<?xml version="1.0" encoding="utf-8" standalone="no"?>
<!DOCTYPE svg PUBLIC "-//W3C//DTD SVG 1.1//EN"
  "http://www.w3.org/Graphics/SVG/1.1/DTD/svg11.dtd">
<!-- Created with matplotlib (http://matplotlib.org/) -->
<svg height="345.6pt" version="1.1" viewBox="0 0 460.8 345.6" width="460.8pt" xmlns="http://www.w3.org/2000/svg" xmlns:xlink="http://www.w3.org/1999/xlink">
 <defs>
  <style type="text/css">
*{stroke-linecap:butt;stroke-linejoin:round;}
  </style>
 </defs>
 <g id="figure_1">
  <g id="patch_1">
   <path d="M 0 345.6 
L 460.8 345.6 
L 460.8 0 
L 0 0 
z
" style="fill:#ffffff;"/>
  </g>
  <g id="axes_1">
   <g id="patch_2">
    <path d="M 57.6 307.584 
L 414.72 307.584 
L 414.72 41.472 
L 57.6 41.472 
z
" style="fill:#ffffff;"/>
   </g>
   <g id="matplotlib.axis_1">
    <g id="xtick_1">
     <g id="line2d_1">
      <defs>
       <path d="M 0 0 
L 0 3.5 
" id="mb7a95472b7" style="stroke:#000000;stroke-width:0.8;"/>
      </defs>
      <g>
       <use style="stroke:#000000;stroke-width:0.8;" x="73.832727" xlink:href="#mb7a95472b7" y="307.584"/>
      </g>
     </g>
     <g id="text_1">
      <!-- 0 -->
      <defs>
       <path d="M 31.78125 66.40625 
Q 24.171875 66.40625 20.328125 58.90625 
Q 16.5 51.421875 16.5 36.375 
Q 16.5 21.390625 20.328125 13.890625 
Q 24.171875 6.390625 31.78125 6.390625 
Q 39.453125 6.390625 43.28125 13.890625 
Q 47.125 21.390625 47.125 36.375 
Q 47.125 51.421875 43.28125 58.90625 
Q 39.453125 66.40625 31.78125 66.40625 
z
M 31.78125 74.21875 
Q 44.046875 74.21875 50.515625 64.515625 
Q 56.984375 54.828125 56.984375 36.375 
Q 56.984375 17.96875 50.515625 8.265625 
Q 44.046875 -1.421875 31.78125 -1.421875 
Q 19.53125 -1.421875 13.0625 8.265625 
Q 6.59375 17.96875 6.59375 36.375 
Q 6.59375 54.828125 13.0625 64.515625 
Q 19.53125 74.21875 31.78125 74.21875 
z
" id="DejaVuSans-30"/>
      </defs>
      <g transform="translate(70.651477 322.182437)scale(0.1 -0.1)">
       <use xlink:href="#DejaVuSans-30"/>
      </g>
     </g>
    </g>
    <g id="xtick_2">
     <g id="line2d_2">
      <g>
       <use style="stroke:#000000;stroke-width:0.8;" x="138.763636" xlink:href="#mb7a95472b7" y="307.584"/>
      </g>
     </g>
     <g id="text_2">
      <!-- 2000 -->
      <defs>
       <path d="M 19.1875 8.296875 
L 53.609375 8.296875 
L 53.609375 0 
L 7.328125 0 
L 7.328125 8.296875 
Q 12.9375 14.109375 22.625 23.890625 
Q 32.328125 33.6875 34.8125 36.53125 
Q 39.546875 41.84375 41.421875 45.53125 
Q 43.3125 49.21875 43.3125 52.78125 
Q 43.3125 58.59375 39.234375 62.25 
Q 35.15625 65.921875 28.609375 65.921875 
Q 23.96875 65.921875 18.8125 64.3125 
Q 13.671875 62.703125 7.8125 59.421875 
L 7.8125 69.390625 
Q 13.765625 71.78125 18.9375 73 
Q 24.125 74.21875 28.421875 74.21875 
Q 39.75 74.21875 46.484375 68.546875 
Q 53.21875 62.890625 53.21875 53.421875 
Q 53.21875 48.921875 51.53125 44.890625 
Q 49.859375 40.875 45.40625 35.40625 
Q 44.1875 33.984375 37.640625 27.21875 
Q 31.109375 20.453125 19.1875 8.296875 
z
" id="DejaVuSans-32"/>
      </defs>
      <g transform="translate(126.038636 322.182437)scale(0.1 -0.1)">
       <use xlink:href="#DejaVuSans-32"/>
       <use x="63.623047" xlink:href="#DejaVuSans-30"/>
       <use x="127.246094" xlink:href="#DejaVuSans-30"/>
       <use x="190.869141" xlink:href="#DejaVuSans-30"/>
      </g>
     </g>
    </g>
    <g id="xtick_3">
     <g id="line2d_3">
      <g>
       <use style="stroke:#000000;stroke-width:0.8;" x="203.694545" xlink:href="#mb7a95472b7" y="307.584"/>
      </g>
     </g>
     <g id="text_3">
      <!-- 4000 -->
      <defs>
       <path d="M 37.796875 64.3125 
L 12.890625 25.390625 
L 37.796875 25.390625 
z
M 35.203125 72.90625 
L 47.609375 72.90625 
L 47.609375 25.390625 
L 58.015625 25.390625 
L 58.015625 17.1875 
L 47.609375 17.1875 
L 47.609375 0 
L 37.796875 0 
L 37.796875 17.1875 
L 4.890625 17.1875 
L 4.890625 26.703125 
z
" id="DejaVuSans-34"/>
      </defs>
      <g transform="translate(190.969545 322.182437)scale(0.1 -0.1)">
       <use xlink:href="#DejaVuSans-34"/>
       <use x="63.623047" xlink:href="#DejaVuSans-30"/>
       <use x="127.246094" xlink:href="#DejaVuSans-30"/>
       <use x="190.869141" xlink:href="#DejaVuSans-30"/>
      </g>
     </g>
    </g>
    <g id="xtick_4">
     <g id="line2d_4">
      <g>
       <use style="stroke:#000000;stroke-width:0.8;" x="268.625455" xlink:href="#mb7a95472b7" y="307.584"/>
      </g>
     </g>
     <g id="text_4">
      <!-- 6000 -->
      <defs>
       <path d="M 33.015625 40.375 
Q 26.375 40.375 22.484375 35.828125 
Q 18.609375 31.296875 18.609375 23.390625 
Q 18.609375 15.53125 22.484375 10.953125 
Q 26.375 6.390625 33.015625 6.390625 
Q 39.65625 6.390625 43.53125 10.953125 
Q 47.40625 15.53125 47.40625 23.390625 
Q 47.40625 31.296875 43.53125 35.828125 
Q 39.65625 40.375 33.015625 40.375 
z
M 52.59375 71.296875 
L 52.59375 62.3125 
Q 48.875 64.0625 45.09375 64.984375 
Q 41.3125 65.921875 37.59375 65.921875 
Q 27.828125 65.921875 22.671875 59.328125 
Q 17.53125 52.734375 16.796875 39.40625 
Q 19.671875 43.65625 24.015625 45.921875 
Q 28.375 48.1875 33.59375 48.1875 
Q 44.578125 48.1875 50.953125 41.515625 
Q 57.328125 34.859375 57.328125 23.390625 
Q 57.328125 12.15625 50.6875 5.359375 
Q 44.046875 -1.421875 33.015625 -1.421875 
Q 20.359375 -1.421875 13.671875 8.265625 
Q 6.984375 17.96875 6.984375 36.375 
Q 6.984375 53.65625 15.1875 63.9375 
Q 23.390625 74.21875 37.203125 74.21875 
Q 40.921875 74.21875 44.703125 73.484375 
Q 48.484375 72.75 52.59375 71.296875 
z
" id="DejaVuSans-36"/>
      </defs>
      <g transform="translate(255.900455 322.182437)scale(0.1 -0.1)">
       <use xlink:href="#DejaVuSans-36"/>
       <use x="63.623047" xlink:href="#DejaVuSans-30"/>
       <use x="127.246094" xlink:href="#DejaVuSans-30"/>
       <use x="190.869141" xlink:href="#DejaVuSans-30"/>
      </g>
     </g>
    </g>
    <g id="xtick_5">
     <g id="line2d_5">
      <g>
       <use style="stroke:#000000;stroke-width:0.8;" x="333.556364" xlink:href="#mb7a95472b7" y="307.584"/>
      </g>
     </g>
     <g id="text_5">
      <!-- 8000 -->
      <defs>
       <path d="M 31.78125 34.625 
Q 24.75 34.625 20.71875 30.859375 
Q 16.703125 27.09375 16.703125 20.515625 
Q 16.703125 13.921875 20.71875 10.15625 
Q 24.75 6.390625 31.78125 6.390625 
Q 38.8125 6.390625 42.859375 10.171875 
Q 46.921875 13.96875 46.921875 20.515625 
Q 46.921875 27.09375 42.890625 30.859375 
Q 38.875 34.625 31.78125 34.625 
z
M 21.921875 38.8125 
Q 15.578125 40.375 12.03125 44.71875 
Q 8.5 49.078125 8.5 55.328125 
Q 8.5 64.0625 14.71875 69.140625 
Q 20.953125 74.21875 31.78125 74.21875 
Q 42.671875 74.21875 48.875 69.140625 
Q 55.078125 64.0625 55.078125 55.328125 
Q 55.078125 49.078125 51.53125 44.71875 
Q 48 40.375 41.703125 38.8125 
Q 48.828125 37.15625 52.796875 32.3125 
Q 56.78125 27.484375 56.78125 20.515625 
Q 56.78125 9.90625 50.3125 4.234375 
Q 43.84375 -1.421875 31.78125 -1.421875 
Q 19.734375 -1.421875 13.25 4.234375 
Q 6.78125 9.90625 6.78125 20.515625 
Q 6.78125 27.484375 10.78125 32.3125 
Q 14.796875 37.15625 21.921875 38.8125 
z
M 18.3125 54.390625 
Q 18.3125 48.734375 21.84375 45.5625 
Q 25.390625 42.390625 31.78125 42.390625 
Q 38.140625 42.390625 41.71875 45.5625 
Q 45.3125 48.734375 45.3125 54.390625 
Q 45.3125 60.0625 41.71875 63.234375 
Q 38.140625 66.40625 31.78125 66.40625 
Q 25.390625 66.40625 21.84375 63.234375 
Q 18.3125 60.0625 18.3125 54.390625 
z
" id="DejaVuSans-38"/>
      </defs>
      <g transform="translate(320.831364 322.182437)scale(0.1 -0.1)">
       <use xlink:href="#DejaVuSans-38"/>
       <use x="63.623047" xlink:href="#DejaVuSans-30"/>
       <use x="127.246094" xlink:href="#DejaVuSans-30"/>
       <use x="190.869141" xlink:href="#DejaVuSans-30"/>
      </g>
     </g>
    </g>
    <g id="xtick_6">
     <g id="line2d_6">
      <g>
       <use style="stroke:#000000;stroke-width:0.8;" x="398.487273" xlink:href="#mb7a95472b7" y="307.584"/>
      </g>
     </g>
     <g id="text_6">
      <!-- 10000 -->
      <defs>
       <path d="M 12.40625 8.296875 
L 28.515625 8.296875 
L 28.515625 63.921875 
L 10.984375 60.40625 
L 10.984375 69.390625 
L 28.421875 72.90625 
L 38.28125 72.90625 
L 38.28125 8.296875 
L 54.390625 8.296875 
L 54.390625 0 
L 12.40625 0 
z
" id="DejaVuSans-31"/>
      </defs>
      <g transform="translate(382.581023 322.182437)scale(0.1 -0.1)">
       <use xlink:href="#DejaVuSans-31"/>
       <use x="63.623047" xlink:href="#DejaVuSans-30"/>
       <use x="127.246094" xlink:href="#DejaVuSans-30"/>
       <use x="190.869141" xlink:href="#DejaVuSans-30"/>
       <use x="254.492188" xlink:href="#DejaVuSans-30"/>
      </g>
     </g>
    </g>
   </g>
   <g id="matplotlib.axis_2">
    <g id="ytick_1">
     <g id="line2d_7">
      <defs>
       <path d="M 0 0 
L -3.5 0 
" id="mde463d7500" style="stroke:#000000;stroke-width:0.8;"/>
      </defs>
      <g>
       <use style="stroke:#000000;stroke-width:0.8;" x="57.6" xlink:href="#mde463d7500" y="295.488"/>
      </g>
     </g>
     <g id="text_7">
      <!-- 0 -->
      <g transform="translate(44.2375 299.287219)scale(0.1 -0.1)">
       <use xlink:href="#DejaVuSans-30"/>
      </g>
     </g>
    </g>
    <g id="ytick_2">
     <g id="line2d_8">
      <g>
       <use style="stroke:#000000;stroke-width:0.8;" x="57.6" xlink:href="#mde463d7500" y="237.141667"/>
      </g>
     </g>
     <g id="text_8">
      <!-- 1 -->
      <g transform="translate(44.2375 240.940886)scale(0.1 -0.1)">
       <use xlink:href="#DejaVuSans-31"/>
      </g>
     </g>
    </g>
    <g id="ytick_3">
     <g id="line2d_9">
      <g>
       <use style="stroke:#000000;stroke-width:0.8;" x="57.6" xlink:href="#mde463d7500" y="178.795335"/>
      </g>
     </g>
     <g id="text_9">
      <!-- 2 -->
      <g transform="translate(44.2375 182.594553)scale(0.1 -0.1)">
       <use xlink:href="#DejaVuSans-32"/>
      </g>
     </g>
    </g>
    <g id="ytick_4">
     <g id="line2d_10">
      <g>
       <use style="stroke:#000000;stroke-width:0.8;" x="57.6" xlink:href="#mde463d7500" y="120.449002"/>
      </g>
     </g>
     <g id="text_10">
      <!-- 3 -->
      <defs>
       <path d="M 40.578125 39.3125 
Q 47.65625 37.796875 51.625 33 
Q 55.609375 28.21875 55.609375 21.1875 
Q 55.609375 10.40625 48.1875 4.484375 
Q 40.765625 -1.421875 27.09375 -1.421875 
Q 22.515625 -1.421875 17.65625 -0.515625 
Q 12.796875 0.390625 7.625 2.203125 
L 7.625 11.71875 
Q 11.71875 9.328125 16.59375 8.109375 
Q 21.484375 6.890625 26.8125 6.890625 
Q 36.078125 6.890625 40.9375 10.546875 
Q 45.796875 14.203125 45.796875 21.1875 
Q 45.796875 27.640625 41.28125 31.265625 
Q 36.765625 34.90625 28.71875 34.90625 
L 20.21875 34.90625 
L 20.21875 43.015625 
L 29.109375 43.015625 
Q 36.375 43.015625 40.234375 45.921875 
Q 44.09375 48.828125 44.09375 54.296875 
Q 44.09375 59.90625 40.109375 62.90625 
Q 36.140625 65.921875 28.71875 65.921875 
Q 24.65625 65.921875 20.015625 65.03125 
Q 15.375 64.15625 9.8125 62.3125 
L 9.8125 71.09375 
Q 15.4375 72.65625 20.34375 73.4375 
Q 25.25 74.21875 29.59375 74.21875 
Q 40.828125 74.21875 47.359375 69.109375 
Q 53.90625 64.015625 53.90625 55.328125 
Q 53.90625 49.265625 50.4375 45.09375 
Q 46.96875 40.921875 40.578125 39.3125 
z
" id="DejaVuSans-33"/>
      </defs>
      <g transform="translate(44.2375 124.248221)scale(0.1 -0.1)">
       <use xlink:href="#DejaVuSans-33"/>
      </g>
     </g>
    </g>
    <g id="ytick_5">
     <g id="line2d_11">
      <g>
       <use style="stroke:#000000;stroke-width:0.8;" x="57.6" xlink:href="#mde463d7500" y="62.102669"/>
      </g>
     </g>
     <g id="text_11">
      <!-- 4 -->
      <g transform="translate(44.2375 65.901888)scale(0.1 -0.1)">
       <use xlink:href="#DejaVuSans-34"/>
      </g>
     </g>
    </g>
    <g id="text_12">
     <!-- 1e−7 -->
     <defs>
      <path d="M 56.203125 29.59375 
L 56.203125 25.203125 
L 14.890625 25.203125 
Q 15.484375 15.921875 20.484375 11.0625 
Q 25.484375 6.203125 34.421875 6.203125 
Q 39.59375 6.203125 44.453125 7.46875 
Q 49.3125 8.734375 54.109375 11.28125 
L 54.109375 2.78125 
Q 49.265625 0.734375 44.1875 -0.34375 
Q 39.109375 -1.421875 33.890625 -1.421875 
Q 20.796875 -1.421875 13.15625 6.1875 
Q 5.515625 13.8125 5.515625 26.8125 
Q 5.515625 40.234375 12.765625 48.109375 
Q 20.015625 56 32.328125 56 
Q 43.359375 56 49.78125 48.890625 
Q 56.203125 41.796875 56.203125 29.59375 
z
M 47.21875 32.234375 
Q 47.125 39.59375 43.09375 43.984375 
Q 39.0625 48.390625 32.421875 48.390625 
Q 24.90625 48.390625 20.390625 44.140625 
Q 15.875 39.890625 15.1875 32.171875 
z
" id="DejaVuSans-65"/>
      <path d="M 10.59375 35.5 
L 73.1875 35.5 
L 73.1875 27.203125 
L 10.59375 27.203125 
z
" id="DejaVuSans-2212"/>
      <path d="M 8.203125 72.90625 
L 55.078125 72.90625 
L 55.078125 68.703125 
L 28.609375 0 
L 18.3125 0 
L 43.21875 64.59375 
L 8.203125 64.59375 
z
" id="DejaVuSans-37"/>
     </defs>
     <g transform="translate(57.6 38.472)scale(0.1 -0.1)">
      <use xlink:href="#DejaVuSans-31"/>
      <use x="63.623047" xlink:href="#DejaVuSans-65"/>
      <use x="125.146484" xlink:href="#DejaVuSans-2212"/>
      <use x="208.935547" xlink:href="#DejaVuSans-37"/>
     </g>
    </g>
   </g>
   <g id="line2d_12">
    <path clip-path="url(#p71107551c5)" d="M 73.832727 295.488 
L 73.944733 295.369019 
L 74.417917 295.375008 
L 75.628067 295.342342 
L 75.906458 294.990189 
L 76.290362 294.095384 
L 76.838217 292.187909 
L 77.661216 288.419846 
L 79.458179 278.843574 
L 80.403735 273.191993 
L 81.206444 266.294949 
L 84.030127 238.787838 
L 85.190767 224.557214 
L 87.05753 202.201142 
L 87.943837 191.059962 
L 90.358455 159.861104 
L 91.751223 143.294005 
L 93.556303 121.224147 
L 94.558673 111.709628 
L 95.672239 101.586978 
L 97.663183 82.369037 
L 98.554359 76.061593 
L 99.305123 72.215345 
L 99.946316 69.990155 
L 100.484431 68.844025 
L 100.868335 68.037046 
L 101.325286 66.409831 
L 102.265972 62.027358 
L 103.383596 57.21428 
L 104.088096 55.093032 
L 104.644879 54.050111 
L 105.088844 53.637401 
L 105.45408 53.57594 
L 105.804707 53.748535 
L 106.206467 54.216894 
L 106.695884 55.161106 
L 107.294871 56.840649 
L 108.025344 59.601233 
L 108.914897 63.893553 
L 110.005737 70.326475 
L 111.372532 79.805991 
L 111.963404 83.345005 
L 112.459313 85.030303 
L 112.969021 86.023489 
L 113.586676 86.734008 
L 114.964023 88.187744 
L 115.628753 89.326545 
L 116.333254 91.002975 
L 117.124599 93.497053 
L 118.040937 97.167077 
L 119.128529 102.498712 
L 120.459613 110.207773 
L 122.183529 121.594832 
L 124.814042 140.642045 
L 127.656393 160.909974 
L 128.079255 162.185272 
L 128.450985 162.687804 
L 128.784567 162.800559 
L 129.152239 162.678863 
L 129.706586 162.225048 
L 131.193504 160.930572 
L 131.766519 160.759055 
L 132.274604 160.835452 
L 132.789181 161.14618 
L 133.35895 161.766468 
L 134.01881 162.836616 
L 134.797169 164.551466 
L 135.728928 167.177673 
L 136.864407 171.086505 
L 138.293699 176.858055 
L 140.23838 185.714829 
L 142.086476 193.958337 
L 142.375418 194.258645 
L 142.605111 194.210541 
L 142.884314 193.887043 
L 143.301495 193.012157 
L 144.014112 190.913816 
L 145.826496 185.462469 
L 146.601609 183.875285 
L 147.243613 183.026655 
L 147.791468 182.642648 
L 148.281696 182.557815 
L 148.76462 182.702599 
L 149.293807 183.106329 
L 149.91065 183.876049 
L 150.647616 185.176045 
L 151.539604 187.2309 
L 152.634502 190.348407 
L 154.01753 195.002954 
L 155.889975 202.150355 
L 159.575616 216.412153 
L 159.793946 216.421368 
L 160.028509 216.171859 
L 160.371831 215.429926 
L 160.907511 213.666985 
L 162.012148 209.073972 
L 163.338362 203.910966 
L 164.220611 201.325811 
L 164.963258 199.787832 
L 165.605263 198.930456 
L 166.166915 198.524451 
L 166.676623 198.417573 
L 167.18146 198.540542 
L 167.733373 198.915597 
L 168.374566 199.638052 
L 169.140751 200.859269 
L 170.070074 202.786879 
L 171.217728 205.71338 
L 172.684355 210.105188 
L 174.732925 217.006506 
L 175.815648 220.397094 
L 176.044529 220.485997 
L 176.253932 220.308323 
L 176.552614 219.711252 
L 177.009565 218.229084 
L 177.791983 214.811601 
L 179.818639 205.777953 
L 180.711439 202.888649 
L 181.470319 201.13116 
L 182.130179 200.120812 
L 182.708064 199.612224 
L 183.225888 199.435855 
L 183.725856 199.49843 
L 184.260724 199.799016 
L 184.875945 200.41654 
L 185.607229 201.487054 
L 186.492724 203.204183 
L 187.581129 205.832249 
L 188.957664 209.776929 
L 190.822804 215.852866 
L 191.69856 218.445711 
L 191.924195 218.523565 
L 192.133597 218.336281 
L 192.434714 217.715391 
L 192.895724 216.18214 
L 193.691127 212.634747 
L 195.664215 203.690629 
L 196.55945 200.72808 
L 197.319142 198.927514 
L 197.978191 197.893269 
L 198.553641 197.371975 
L 199.068218 197.188229 
L 199.563316 197.245595 
L 200.09088 197.540139 
L 200.697172 198.149741 
L 201.418717 199.212122 
L 202.292038 200.920534 
L 203.365021 203.540706 
L 204.718831 207.473506 
L 206.540143 213.50299 
L 208.635788 220.374905 
L 208.846813 220.394086 
L 209.067578 220.15128 
L 209.391421 219.408583 
L 209.891389 217.626784 
L 210.805292 213.390257 
L 212.473204 205.772317 
L 213.391165 202.615667 
L 214.167089 200.687055 
L 214.840748 199.562704 
L 215.429184 198.979471 
L 215.953501 198.753342 
L 216.451034 198.77665 
L 216.973728 199.031632 
L 217.569469 199.585105 
L 218.275593 200.565345 
L 219.128623 202.155928 
L 220.173199 204.605187 
L 221.485615 208.287322 
L 223.231444 213.899872 
L 226.320532 223.950169 
L 226.515325 223.881764 
L 226.760439 223.510694 
L 227.128922 222.487897 
L 227.710054 220.125478 
L 229.083343 213.297651 
L 230.297551 207.868188 
L 231.198467 204.798551 
L 231.96871 202.908088 
L 232.640745 201.803448 
L 233.229993 201.230307 
L 233.756745 201.009668 
L 234.258336 201.036846 
L 234.786711 201.296096 
L 235.389757 201.855149 
L 236.104809 202.842036 
L 236.96839 204.438516 
L 238.027575 206.894812 
L 239.361094 210.586657 
L 241.145882 216.23464 
L 243.031313 222.11438 
L 243.235846 222.119539 
L 243.454988 221.859432 
L 243.778831 221.07312 
L 244.27961 219.190758 
L 245.188643 214.746615 
L 246.902007 206.463828 
L 247.831331 203.072403 
L 248.618618 200.981427 
L 249.304451 199.743526 
L 249.90425 199.084553 
L 250.43506 198.809543 
L 250.932593 198.795708 
L 251.447171 199.010686 
L 252.027491 199.508725 
L 252.713324 200.410491 
L 253.539569 201.88916 
L 254.550057 204.183711 
L 255.812963 207.639917 
L 257.471948 212.876838 
L 259.882508 220.518949 
L 260.078112 220.473404 
L 260.312675 220.140988 
L 260.664113 219.196979 
L 261.213591 216.994755 
L 262.343389 211.320342 
L 263.723171 204.8026 
L 264.643567 201.479319 
L 265.424361 199.434524 
L 266.1037 198.231969 
L 266.696195 197.599759 
L 267.221324 197.342906 
L 267.714799 197.343063 
L 268.228564 197.572969 
L 268.810508 198.092108 
L 269.499587 199.025343 
L 270.330703 200.550685 
L 271.347683 202.912546 
L 272.62114 206.470182 
L 274.297981 211.865037 
L 276.902522 221.09127 
L 279.718089 230.902077 
L 279.942912 231.000331 
L 280.141763 230.823254 
L 280.426647 230.216507 
L 280.860873 228.693236 
L 281.574301 225.25764 
L 284.118781 212.414363 
L 285.016451 209.250133 
L 285.79481 207.265302 
L 286.47902 206.084921 
L 287.082065 205.45503 
L 287.620992 205.193589 
L 288.1307 205.187789 
L 288.66151 205.410733 
L 289.261309 205.917906 
L 289.969868 206.827662 
L 290.823709 208.309865 
L 291.87072 210.602406 
L 292.207549 211.118541 
L 292.39666 211.078639 
L 292.619049 210.751572 
L 292.953443 209.800699 
L 293.474513 207.554528 
L 294.46958 202.074116 
L 296.006819 193.882374 
L 296.931273 190.130615 
L 297.712067 187.825028 
L 298.38816 186.467587 
L 298.974161 185.748376 
L 299.485492 185.446046 
L 299.95543 185.417351 
L 300.435919 185.6171 
L 300.978903 186.099373 
L 301.622531 186.989959 
L 302.275087 187.843238 
L 302.464198 187.696839 
L 302.728791 187.15297 
L 303.133798 185.735959 
L 303.801775 182.46556 
L 306.202595 170.105466 
L 307.017478 167.289031 
L 307.707369 165.640318 
L 308.295805 164.759395 
L 308.798208 164.372645 
L 309.242173 164.295418 
L 309.681268 164.448481 
L 309.992937 164.505363 
L 310.199092 164.242895 
L 310.499398 163.436495 
L 310.965277 161.455737 
L 311.809379 156.714286 
L 313.439956 147.639951 
L 314.291363 144.156795 
L 314.996675 142.132531 
L 315.591604 141.04032 
L 316.090761 140.544257 
L 316.534726 140.399059 
L 316.748998 140.221866 
L 317.008721 139.653114 
L 317.39993 138.177004 
L 318.048428 134.726066 
L 320.277993 122.279536 
L 321.045801 119.447151 
L 321.682935 117.872099 
L 322.212122 117.097771 
L 322.650406 116.811083 
L 322.927174 116.611757 
L 323.187709 116.05374 
L 323.578106 114.608796 
L 324.233908 111.190828 
L 326.259753 100.211685 
L 327.008081 97.513401 
L 327.620055 96.061836 
L 328.121647 95.384382 
L 328.532335 95.164983 
L 328.896759 95.213964 
L 329.348841 95.292795 
L 329.577722 94.959315 
L 329.920233 94.001996 
L 330.481073 91.672079 
L 332.730929 81.679677 
L 333.38105 79.99675 
L 333.904556 79.19398 
L 334.327418 78.90887 
L 334.689408 78.918146 
L 335.059514 79.162121 
L 335.494551 79.739986 
L 336.369495 80.993314 
L 336.589449 80.796644 
L 336.910857 80.158469 
L 337.43842 78.537786 
L 339.479686 71.816759 
L 340.064876 70.776117 
L 340.527508 70.358365 
L 340.908166 70.289941 
L 341.271779 70.455549 
L 341.682467 70.908295 
L 342.177565 71.815066 
L 342.798467 73.461978 
L 343.142601 74.083492 
L 343.372294 74.124086 
L 343.609292 73.909512 
L 343.96073 73.24024 
L 344.568646 71.519645 
L 346.056375 67.227634 
L 346.665103 66.159995 
L 347.138287 65.731347 
L 347.524625 65.656808 
L 347.890673 65.81707 
L 348.30055 66.260272 
L 348.792401 67.149522 
L 349.389766 68.727823 
L 350.345062 71.310735 
L 350.57719 71.327968 
L 350.832044 71.091169 
L 351.215948 70.380487 
L 351.943174 68.466032 
L 353.057551 65.671081 
L 353.660596 64.721224 
L 354.125664 64.360244 
L 354.509568 64.324064 
L 354.882109 64.519646 
L 355.30416 65.014271 
L 355.810621 65.981165 
L 356.423407 67.669417 
L 357.507753 70.766085 
L 357.739881 70.774207 
L 357.999604 70.527731 
L 358.393248 69.797915 
L 359.169172 67.782125 
L 360.200762 65.290621 
L 360.796503 64.388732 
L 361.255889 64.054032 
L 361.63817 64.032741 
L 362.013146 64.243357 
L 362.440067 64.76089 
L 362.952209 65.762195 
L 363.5723 67.503027 
L 364.712649 70.837402 
L 364.943965 70.838921 
L 365.205312 70.583612 
L 365.603014 69.833822 
L 366.396794 67.749596 
L 367.410528 65.292387 
L 368.006269 64.38544 
L 368.466467 64.047681 
L 368.848748 64.025191 
L 369.222912 64.234361 
L 369.649021 64.749659 
L 370.160352 65.747757 
L 370.779631 67.484307 
L 371.528771 70.297279 
L 372.038479 71.975705 
L 372.322551 72.255463 
L 372.553056 72.198515 
L 372.844433 71.85701 
L 373.306255 70.916966 
L 375.333722 66.378803 
L 375.82882 65.922114 
L 376.228957 65.830587 
L 376.601498 65.97602 
L 377.012186 66.39489 
L 377.49998 67.238458 
L 378.089228 68.738413 
L 378.801844 71.207339 
L 379.663802 75.052583 
L 380.375607 78.020501 
L 380.685652 78.433901 
L 380.93239 78.44225 
L 381.213216 78.199088 
L 381.643383 77.484444 
L 383.785292 73.478827 
L 384.243866 73.214325 
L 384.633452 73.233869 
L 385.025472 73.486742 
L 385.474307 74.063703 
L 386.010799 75.146977 
L 386.656861 76.992825 
L 387.43522 79.938941 
L 388.393763 83.535174 
L 388.661603 83.73035 
L 388.891296 83.631085 
L 389.198906 83.213165 
L 389.696439 82.100907 
L 391.622452 77.450054 
L 392.157321 76.827283 
L 392.584241 76.639316 
L 392.961652 76.710361 
L 393.359354 77.026973 
L 393.824422 77.706583 
L 394.385263 78.953074 
L 395.063791 81.045416 
L 395.884355 84.348081 
L 396.588044 87.00356 
L 396.868058 87.282131 
L 397.091258 87.221238 
L 397.373708 86.872962 
L 397.816049 85.918158 
L 398.487273 84.032305 
L 398.487273 84.032305 
" style="fill:none;stroke:#1f77b4;stroke-linecap:square;stroke-width:1.5;"/>
   </g>
   <g id="patch_3">
    <path d="M 57.6 307.584 
L 57.6 41.472 
" style="fill:none;stroke:#000000;stroke-linecap:square;stroke-linejoin:miter;stroke-width:0.8;"/>
   </g>
   <g id="patch_4">
    <path d="M 414.72 307.584 
L 414.72 41.472 
" style="fill:none;stroke:#000000;stroke-linecap:square;stroke-linejoin:miter;stroke-width:0.8;"/>
   </g>
   <g id="patch_5">
    <path d="M 57.6 307.584 
L 414.72 307.584 
" style="fill:none;stroke:#000000;stroke-linecap:square;stroke-linejoin:miter;stroke-width:0.8;"/>
   </g>
   <g id="patch_6">
    <path d="M 57.6 41.472 
L 414.72 41.472 
" style="fill:none;stroke:#000000;stroke-linecap:square;stroke-linejoin:miter;stroke-width:0.8;"/>
   </g>
   <g id="text_13">
    <!-- Muscarinic recording -->
    <defs>
     <path d="M 9.8125 72.90625 
L 24.515625 72.90625 
L 43.109375 23.296875 
L 61.8125 72.90625 
L 76.515625 72.90625 
L 76.515625 0 
L 66.890625 0 
L 66.890625 64.015625 
L 48.09375 14.015625 
L 38.1875 14.015625 
L 19.390625 64.015625 
L 19.390625 0 
L 9.8125 0 
z
" id="DejaVuSans-4d"/>
     <path d="M 8.5 21.578125 
L 8.5 54.6875 
L 17.484375 54.6875 
L 17.484375 21.921875 
Q 17.484375 14.15625 20.5 10.265625 
Q 23.53125 6.390625 29.59375 6.390625 
Q 36.859375 6.390625 41.078125 11.03125 
Q 45.3125 15.671875 45.3125 23.6875 
L 45.3125 54.6875 
L 54.296875 54.6875 
L 54.296875 0 
L 45.3125 0 
L 45.3125 8.40625 
Q 42.046875 3.421875 37.71875 1 
Q 33.40625 -1.421875 27.6875 -1.421875 
Q 18.265625 -1.421875 13.375 4.4375 
Q 8.5 10.296875 8.5 21.578125 
z
M 31.109375 56 
z
" id="DejaVuSans-75"/>
     <path d="M 44.28125 53.078125 
L 44.28125 44.578125 
Q 40.484375 46.53125 36.375 47.5 
Q 32.28125 48.484375 27.875 48.484375 
Q 21.1875 48.484375 17.84375 46.4375 
Q 14.5 44.390625 14.5 40.28125 
Q 14.5 37.15625 16.890625 35.375 
Q 19.28125 33.59375 26.515625 31.984375 
L 29.59375 31.296875 
Q 39.15625 29.25 43.1875 25.515625 
Q 47.21875 21.78125 47.21875 15.09375 
Q 47.21875 7.46875 41.1875 3.015625 
Q 35.15625 -1.421875 24.609375 -1.421875 
Q 20.21875 -1.421875 15.453125 -0.5625 
Q 10.6875 0.296875 5.421875 2 
L 5.421875 11.28125 
Q 10.40625 8.6875 15.234375 7.390625 
Q 20.0625 6.109375 24.8125 6.109375 
Q 31.15625 6.109375 34.5625 8.28125 
Q 37.984375 10.453125 37.984375 14.40625 
Q 37.984375 18.0625 35.515625 20.015625 
Q 33.0625 21.96875 24.703125 23.78125 
L 21.578125 24.515625 
Q 13.234375 26.265625 9.515625 29.90625 
Q 5.8125 33.546875 5.8125 39.890625 
Q 5.8125 47.609375 11.28125 51.796875 
Q 16.75 56 26.8125 56 
Q 31.78125 56 36.171875 55.265625 
Q 40.578125 54.546875 44.28125 53.078125 
z
" id="DejaVuSans-73"/>
     <path d="M 48.78125 52.59375 
L 48.78125 44.1875 
Q 44.96875 46.296875 41.140625 47.34375 
Q 37.3125 48.390625 33.40625 48.390625 
Q 24.65625 48.390625 19.8125 42.84375 
Q 14.984375 37.3125 14.984375 27.296875 
Q 14.984375 17.28125 19.8125 11.734375 
Q 24.65625 6.203125 33.40625 6.203125 
Q 37.3125 6.203125 41.140625 7.25 
Q 44.96875 8.296875 48.78125 10.40625 
L 48.78125 2.09375 
Q 45.015625 0.34375 40.984375 -0.53125 
Q 36.96875 -1.421875 32.421875 -1.421875 
Q 20.0625 -1.421875 12.78125 6.34375 
Q 5.515625 14.109375 5.515625 27.296875 
Q 5.515625 40.671875 12.859375 48.328125 
Q 20.21875 56 33.015625 56 
Q 37.15625 56 41.109375 55.140625 
Q 45.0625 54.296875 48.78125 52.59375 
z
" id="DejaVuSans-63"/>
     <path d="M 34.28125 27.484375 
Q 23.390625 27.484375 19.1875 25 
Q 14.984375 22.515625 14.984375 16.5 
Q 14.984375 11.71875 18.140625 8.90625 
Q 21.296875 6.109375 26.703125 6.109375 
Q 34.1875 6.109375 38.703125 11.40625 
Q 43.21875 16.703125 43.21875 25.484375 
L 43.21875 27.484375 
z
M 52.203125 31.203125 
L 52.203125 0 
L 43.21875 0 
L 43.21875 8.296875 
Q 40.140625 3.328125 35.546875 0.953125 
Q 30.953125 -1.421875 24.3125 -1.421875 
Q 15.921875 -1.421875 10.953125 3.296875 
Q 6 8.015625 6 15.921875 
Q 6 25.140625 12.171875 29.828125 
Q 18.359375 34.515625 30.609375 34.515625 
L 43.21875 34.515625 
L 43.21875 35.40625 
Q 43.21875 41.609375 39.140625 45 
Q 35.0625 48.390625 27.6875 48.390625 
Q 23 48.390625 18.546875 47.265625 
Q 14.109375 46.140625 10.015625 43.890625 
L 10.015625 52.203125 
Q 14.9375 54.109375 19.578125 55.046875 
Q 24.21875 56 28.609375 56 
Q 40.484375 56 46.34375 49.84375 
Q 52.203125 43.703125 52.203125 31.203125 
z
" id="DejaVuSans-61"/>
     <path d="M 41.109375 46.296875 
Q 39.59375 47.171875 37.8125 47.578125 
Q 36.03125 48 33.890625 48 
Q 26.265625 48 22.1875 43.046875 
Q 18.109375 38.09375 18.109375 28.8125 
L 18.109375 0 
L 9.078125 0 
L 9.078125 54.6875 
L 18.109375 54.6875 
L 18.109375 46.1875 
Q 20.953125 51.171875 25.484375 53.578125 
Q 30.03125 56 36.53125 56 
Q 37.453125 56 38.578125 55.875 
Q 39.703125 55.765625 41.0625 55.515625 
z
" id="DejaVuSans-72"/>
     <path d="M 9.421875 54.6875 
L 18.40625 54.6875 
L 18.40625 0 
L 9.421875 0 
z
M 9.421875 75.984375 
L 18.40625 75.984375 
L 18.40625 64.59375 
L 9.421875 64.59375 
z
" id="DejaVuSans-69"/>
     <path d="M 54.890625 33.015625 
L 54.890625 0 
L 45.90625 0 
L 45.90625 32.71875 
Q 45.90625 40.484375 42.875 44.328125 
Q 39.84375 48.1875 33.796875 48.1875 
Q 26.515625 48.1875 22.3125 43.546875 
Q 18.109375 38.921875 18.109375 30.90625 
L 18.109375 0 
L 9.078125 0 
L 9.078125 54.6875 
L 18.109375 54.6875 
L 18.109375 46.1875 
Q 21.34375 51.125 25.703125 53.5625 
Q 30.078125 56 35.796875 56 
Q 45.21875 56 50.046875 50.171875 
Q 54.890625 44.34375 54.890625 33.015625 
z
" id="DejaVuSans-6e"/>
     <path id="DejaVuSans-20"/>
     <path d="M 30.609375 48.390625 
Q 23.390625 48.390625 19.1875 42.75 
Q 14.984375 37.109375 14.984375 27.296875 
Q 14.984375 17.484375 19.15625 11.84375 
Q 23.34375 6.203125 30.609375 6.203125 
Q 37.796875 6.203125 41.984375 11.859375 
Q 46.1875 17.53125 46.1875 27.296875 
Q 46.1875 37.015625 41.984375 42.703125 
Q 37.796875 48.390625 30.609375 48.390625 
z
M 30.609375 56 
Q 42.328125 56 49.015625 48.375 
Q 55.71875 40.765625 55.71875 27.296875 
Q 55.71875 13.875 49.015625 6.21875 
Q 42.328125 -1.421875 30.609375 -1.421875 
Q 18.84375 -1.421875 12.171875 6.21875 
Q 5.515625 13.875 5.515625 27.296875 
Q 5.515625 40.765625 12.171875 48.375 
Q 18.84375 56 30.609375 56 
z
" id="DejaVuSans-6f"/>
     <path d="M 45.40625 46.390625 
L 45.40625 75.984375 
L 54.390625 75.984375 
L 54.390625 0 
L 45.40625 0 
L 45.40625 8.203125 
Q 42.578125 3.328125 38.25 0.953125 
Q 33.9375 -1.421875 27.875 -1.421875 
Q 17.96875 -1.421875 11.734375 6.484375 
Q 5.515625 14.40625 5.515625 27.296875 
Q 5.515625 40.1875 11.734375 48.09375 
Q 17.96875 56 27.875 56 
Q 33.9375 56 38.25 53.625 
Q 42.578125 51.265625 45.40625 46.390625 
z
M 14.796875 27.296875 
Q 14.796875 17.390625 18.875 11.75 
Q 22.953125 6.109375 30.078125 6.109375 
Q 37.203125 6.109375 41.296875 11.75 
Q 45.40625 17.390625 45.40625 27.296875 
Q 45.40625 37.203125 41.296875 42.84375 
Q 37.203125 48.484375 30.078125 48.484375 
Q 22.953125 48.484375 18.875 42.84375 
Q 14.796875 37.203125 14.796875 27.296875 
z
" id="DejaVuSans-64"/>
     <path d="M 45.40625 27.984375 
Q 45.40625 37.75 41.375 43.109375 
Q 37.359375 48.484375 30.078125 48.484375 
Q 22.859375 48.484375 18.828125 43.109375 
Q 14.796875 37.75 14.796875 27.984375 
Q 14.796875 18.265625 18.828125 12.890625 
Q 22.859375 7.515625 30.078125 7.515625 
Q 37.359375 7.515625 41.375 12.890625 
Q 45.40625 18.265625 45.40625 27.984375 
z
M 54.390625 6.78125 
Q 54.390625 -7.171875 48.1875 -13.984375 
Q 42 -20.796875 29.203125 -20.796875 
Q 24.46875 -20.796875 20.265625 -20.09375 
Q 16.0625 -19.390625 12.109375 -17.921875 
L 12.109375 -9.1875 
Q 16.0625 -11.328125 19.921875 -12.34375 
Q 23.78125 -13.375 27.78125 -13.375 
Q 36.625 -13.375 41.015625 -8.765625 
Q 45.40625 -4.15625 45.40625 5.171875 
L 45.40625 9.625 
Q 42.625 4.78125 38.28125 2.390625 
Q 33.9375 0 27.875 0 
Q 17.828125 0 11.671875 7.65625 
Q 5.515625 15.328125 5.515625 27.984375 
Q 5.515625 40.671875 11.671875 48.328125 
Q 17.828125 56 27.875 56 
Q 33.9375 56 38.28125 53.609375 
Q 42.625 51.21875 45.40625 46.390625 
L 45.40625 54.6875 
L 54.390625 54.6875 
z
" id="DejaVuSans-67"/>
    </defs>
    <g transform="translate(173.590312 35.472)scale(0.12 -0.12)">
     <use xlink:href="#DejaVuSans-4d"/>
     <use x="86.279297" xlink:href="#DejaVuSans-75"/>
     <use x="149.658203" xlink:href="#DejaVuSans-73"/>
     <use x="201.757812" xlink:href="#DejaVuSans-63"/>
     <use x="256.738281" xlink:href="#DejaVuSans-61"/>
     <use x="318.017578" xlink:href="#DejaVuSans-72"/>
     <use x="359.130859" xlink:href="#DejaVuSans-69"/>
     <use x="386.914062" xlink:href="#DejaVuSans-6e"/>
     <use x="450.292969" xlink:href="#DejaVuSans-69"/>
     <use x="478.076172" xlink:href="#DejaVuSans-63"/>
     <use x="533.056641" xlink:href="#DejaVuSans-20"/>
     <use x="564.84375" xlink:href="#DejaVuSans-72"/>
     <use x="605.925781" xlink:href="#DejaVuSans-65"/>
     <use x="667.449219" xlink:href="#DejaVuSans-63"/>
     <use x="722.429688" xlink:href="#DejaVuSans-6f"/>
     <use x="783.611328" xlink:href="#DejaVuSans-72"/>
     <use x="824.708984" xlink:href="#DejaVuSans-64"/>
     <use x="888.185547" xlink:href="#DejaVuSans-69"/>
     <use x="915.96875" xlink:href="#DejaVuSans-6e"/>
     <use x="979.347656" xlink:href="#DejaVuSans-67"/>
    </g>
   </g>
  </g>
 </g>
 <defs>
  <clipPath id="p71107551c5">
   <rect height="266.112" width="357.12" x="57.6" y="41.472"/>
  </clipPath>
 </defs>
</svg>
