<?xml version="1.0" encoding="utf-8" standalone="no"?>
<!DOCTYPE svg PUBLIC "-//W3C//DTD SVG 1.1//EN"
  "http://www.w3.org/Graphics/SVG/1.1/DTD/svg11.dtd">
<!-- Created with matplotlib (http://matplotlib.org/) -->
<svg height="345.6pt" version="1.1" viewBox="0 0 460.8 345.6" width="460.8pt" xmlns="http://www.w3.org/2000/svg" xmlns:xlink="http://www.w3.org/1999/xlink">
 <defs>
  <style type="text/css">
*{stroke-linecap:butt;stroke-linejoin:round;}
  </style>
 </defs>
 <g id="figure_1">
  <g id="patch_1">
   <path d="M 0 345.6 
L 460.8 345.6 
L 460.8 0 
L 0 0 
z
" style="fill:#ffffff;"/>
  </g>
  <g id="axes_1">
   <g id="patch_2">
    <path d="M 57.6 307.584 
L 414.72 307.584 
L 414.72 41.472 
L 57.6 41.472 
z
" style="fill:#ffffff;"/>
   </g>
   <g id="matplotlib.axis_1">
    <g id="xtick_1">
     <g id="line2d_1">
      <defs>
       <path d="M 0 0 
L 0 3.5 
" id="mf803d17465" style="stroke:#000000;stroke-width:0.8;"/>
      </defs>
      <g>
       <use style="stroke:#000000;stroke-width:0.8;" x="73.832727" xlink:href="#mf803d17465" y="307.584"/>
      </g>
     </g>
     <g id="text_1">
      <!-- 0 -->
      <defs>
       <path d="M 31.78125 66.40625 
Q 24.171875 66.40625 20.328125 58.90625 
Q 16.5 51.421875 16.5 36.375 
Q 16.5 21.390625 20.328125 13.890625 
Q 24.171875 6.390625 31.78125 6.390625 
Q 39.453125 6.390625 43.28125 13.890625 
Q 47.125 21.390625 47.125 36.375 
Q 47.125 51.421875 43.28125 58.90625 
Q 39.453125 66.40625 31.78125 66.40625 
z
M 31.78125 74.21875 
Q 44.046875 74.21875 50.515625 64.515625 
Q 56.984375 54.828125 56.984375 36.375 
Q 56.984375 17.96875 50.515625 8.265625 
Q 44.046875 -1.421875 31.78125 -1.421875 
Q 19.53125 -1.421875 13.0625 8.265625 
Q 6.59375 17.96875 6.59375 36.375 
Q 6.59375 54.828125 13.0625 64.515625 
Q 19.53125 74.21875 31.78125 74.21875 
z
" id="DejaVuSans-30"/>
      </defs>
      <g transform="translate(70.651477 322.182437)scale(0.1 -0.1)">
       <use xlink:href="#DejaVuSans-30"/>
      </g>
     </g>
    </g>
    <g id="xtick_2">
     <g id="line2d_2">
      <g>
       <use style="stroke:#000000;stroke-width:0.8;" x="114.414545" xlink:href="#mf803d17465" y="307.584"/>
      </g>
     </g>
     <g id="text_2">
      <!-- 5000 -->
      <defs>
       <path d="M 10.796875 72.90625 
L 49.515625 72.90625 
L 49.515625 64.59375 
L 19.828125 64.59375 
L 19.828125 46.734375 
Q 21.96875 47.46875 24.109375 47.828125 
Q 26.265625 48.1875 28.421875 48.1875 
Q 40.625 48.1875 47.75 41.5 
Q 54.890625 34.8125 54.890625 23.390625 
Q 54.890625 11.625 47.5625 5.09375 
Q 40.234375 -1.421875 26.90625 -1.421875 
Q 22.3125 -1.421875 17.546875 -0.640625 
Q 12.796875 0.140625 7.71875 1.703125 
L 7.71875 11.625 
Q 12.109375 9.234375 16.796875 8.0625 
Q 21.484375 6.890625 26.703125 6.890625 
Q 35.15625 6.890625 40.078125 11.328125 
Q 45.015625 15.765625 45.015625 23.390625 
Q 45.015625 31 40.078125 35.4375 
Q 35.15625 39.890625 26.703125 39.890625 
Q 22.75 39.890625 18.8125 39.015625 
Q 14.890625 38.140625 10.796875 36.28125 
z
" id="DejaVuSans-35"/>
      </defs>
      <g transform="translate(101.689545 322.182437)scale(0.1 -0.1)">
       <use xlink:href="#DejaVuSans-35"/>
       <use x="63.623047" xlink:href="#DejaVuSans-30"/>
       <use x="127.246094" xlink:href="#DejaVuSans-30"/>
       <use x="190.869141" xlink:href="#DejaVuSans-30"/>
      </g>
     </g>
    </g>
    <g id="xtick_3">
     <g id="line2d_3">
      <g>
       <use style="stroke:#000000;stroke-width:0.8;" x="154.996364" xlink:href="#mf803d17465" y="307.584"/>
      </g>
     </g>
     <g id="text_3">
      <!-- 10000 -->
      <defs>
       <path d="M 12.40625 8.296875 
L 28.515625 8.296875 
L 28.515625 63.921875 
L 10.984375 60.40625 
L 10.984375 69.390625 
L 28.421875 72.90625 
L 38.28125 72.90625 
L 38.28125 8.296875 
L 54.390625 8.296875 
L 54.390625 0 
L 12.40625 0 
z
" id="DejaVuSans-31"/>
      </defs>
      <g transform="translate(139.090114 322.182437)scale(0.1 -0.1)">
       <use xlink:href="#DejaVuSans-31"/>
       <use x="63.623047" xlink:href="#DejaVuSans-30"/>
       <use x="127.246094" xlink:href="#DejaVuSans-30"/>
       <use x="190.869141" xlink:href="#DejaVuSans-30"/>
       <use x="254.492188" xlink:href="#DejaVuSans-30"/>
      </g>
     </g>
    </g>
    <g id="xtick_4">
     <g id="line2d_4">
      <g>
       <use style="stroke:#000000;stroke-width:0.8;" x="195.578182" xlink:href="#mf803d17465" y="307.584"/>
      </g>
     </g>
     <g id="text_4">
      <!-- 15000 -->
      <g transform="translate(179.671932 322.182437)scale(0.1 -0.1)">
       <use xlink:href="#DejaVuSans-31"/>
       <use x="63.623047" xlink:href="#DejaVuSans-35"/>
       <use x="127.246094" xlink:href="#DejaVuSans-30"/>
       <use x="190.869141" xlink:href="#DejaVuSans-30"/>
       <use x="254.492188" xlink:href="#DejaVuSans-30"/>
      </g>
     </g>
    </g>
    <g id="xtick_5">
     <g id="line2d_5">
      <g>
       <use style="stroke:#000000;stroke-width:0.8;" x="236.16" xlink:href="#mf803d17465" y="307.584"/>
      </g>
     </g>
     <g id="text_5">
      <!-- 20000 -->
      <defs>
       <path d="M 19.1875 8.296875 
L 53.609375 8.296875 
L 53.609375 0 
L 7.328125 0 
L 7.328125 8.296875 
Q 12.9375 14.109375 22.625 23.890625 
Q 32.328125 33.6875 34.8125 36.53125 
Q 39.546875 41.84375 41.421875 45.53125 
Q 43.3125 49.21875 43.3125 52.78125 
Q 43.3125 58.59375 39.234375 62.25 
Q 35.15625 65.921875 28.609375 65.921875 
Q 23.96875 65.921875 18.8125 64.3125 
Q 13.671875 62.703125 7.8125 59.421875 
L 7.8125 69.390625 
Q 13.765625 71.78125 18.9375 73 
Q 24.125 74.21875 28.421875 74.21875 
Q 39.75 74.21875 46.484375 68.546875 
Q 53.21875 62.890625 53.21875 53.421875 
Q 53.21875 48.921875 51.53125 44.890625 
Q 49.859375 40.875 45.40625 35.40625 
Q 44.1875 33.984375 37.640625 27.21875 
Q 31.109375 20.453125 19.1875 8.296875 
z
" id="DejaVuSans-32"/>
      </defs>
      <g transform="translate(220.25375 322.182437)scale(0.1 -0.1)">
       <use xlink:href="#DejaVuSans-32"/>
       <use x="63.623047" xlink:href="#DejaVuSans-30"/>
       <use x="127.246094" xlink:href="#DejaVuSans-30"/>
       <use x="190.869141" xlink:href="#DejaVuSans-30"/>
       <use x="254.492188" xlink:href="#DejaVuSans-30"/>
      </g>
     </g>
    </g>
    <g id="xtick_6">
     <g id="line2d_6">
      <g>
       <use style="stroke:#000000;stroke-width:0.8;" x="276.741818" xlink:href="#mf803d17465" y="307.584"/>
      </g>
     </g>
     <g id="text_6">
      <!-- 25000 -->
      <g transform="translate(260.835568 322.182437)scale(0.1 -0.1)">
       <use xlink:href="#DejaVuSans-32"/>
       <use x="63.623047" xlink:href="#DejaVuSans-35"/>
       <use x="127.246094" xlink:href="#DejaVuSans-30"/>
       <use x="190.869141" xlink:href="#DejaVuSans-30"/>
       <use x="254.492188" xlink:href="#DejaVuSans-30"/>
      </g>
     </g>
    </g>
    <g id="xtick_7">
     <g id="line2d_7">
      <g>
       <use style="stroke:#000000;stroke-width:0.8;" x="317.323636" xlink:href="#mf803d17465" y="307.584"/>
      </g>
     </g>
     <g id="text_7">
      <!-- 30000 -->
      <defs>
       <path d="M 40.578125 39.3125 
Q 47.65625 37.796875 51.625 33 
Q 55.609375 28.21875 55.609375 21.1875 
Q 55.609375 10.40625 48.1875 4.484375 
Q 40.765625 -1.421875 27.09375 -1.421875 
Q 22.515625 -1.421875 17.65625 -0.515625 
Q 12.796875 0.390625 7.625 2.203125 
L 7.625 11.71875 
Q 11.71875 9.328125 16.59375 8.109375 
Q 21.484375 6.890625 26.8125 6.890625 
Q 36.078125 6.890625 40.9375 10.546875 
Q 45.796875 14.203125 45.796875 21.1875 
Q 45.796875 27.640625 41.28125 31.265625 
Q 36.765625 34.90625 28.71875 34.90625 
L 20.21875 34.90625 
L 20.21875 43.015625 
L 29.109375 43.015625 
Q 36.375 43.015625 40.234375 45.921875 
Q 44.09375 48.828125 44.09375 54.296875 
Q 44.09375 59.90625 40.109375 62.90625 
Q 36.140625 65.921875 28.71875 65.921875 
Q 24.65625 65.921875 20.015625 65.03125 
Q 15.375 64.15625 9.8125 62.3125 
L 9.8125 71.09375 
Q 15.4375 72.65625 20.34375 73.4375 
Q 25.25 74.21875 29.59375 74.21875 
Q 40.828125 74.21875 47.359375 69.109375 
Q 53.90625 64.015625 53.90625 55.328125 
Q 53.90625 49.265625 50.4375 45.09375 
Q 46.96875 40.921875 40.578125 39.3125 
z
" id="DejaVuSans-33"/>
      </defs>
      <g transform="translate(301.417386 322.182437)scale(0.1 -0.1)">
       <use xlink:href="#DejaVuSans-33"/>
       <use x="63.623047" xlink:href="#DejaVuSans-30"/>
       <use x="127.246094" xlink:href="#DejaVuSans-30"/>
       <use x="190.869141" xlink:href="#DejaVuSans-30"/>
       <use x="254.492188" xlink:href="#DejaVuSans-30"/>
      </g>
     </g>
    </g>
    <g id="xtick_8">
     <g id="line2d_8">
      <g>
       <use style="stroke:#000000;stroke-width:0.8;" x="357.905455" xlink:href="#mf803d17465" y="307.584"/>
      </g>
     </g>
     <g id="text_8">
      <!-- 35000 -->
      <g transform="translate(341.999205 322.182437)scale(0.1 -0.1)">
       <use xlink:href="#DejaVuSans-33"/>
       <use x="63.623047" xlink:href="#DejaVuSans-35"/>
       <use x="127.246094" xlink:href="#DejaVuSans-30"/>
       <use x="190.869141" xlink:href="#DejaVuSans-30"/>
       <use x="254.492188" xlink:href="#DejaVuSans-30"/>
      </g>
     </g>
    </g>
    <g id="xtick_9">
     <g id="line2d_9">
      <g>
       <use style="stroke:#000000;stroke-width:0.8;" x="398.487273" xlink:href="#mf803d17465" y="307.584"/>
      </g>
     </g>
     <g id="text_9">
      <!-- 40000 -->
      <defs>
       <path d="M 37.796875 64.3125 
L 12.890625 25.390625 
L 37.796875 25.390625 
z
M 35.203125 72.90625 
L 47.609375 72.90625 
L 47.609375 25.390625 
L 58.015625 25.390625 
L 58.015625 17.1875 
L 47.609375 17.1875 
L 47.609375 0 
L 37.796875 0 
L 37.796875 17.1875 
L 4.890625 17.1875 
L 4.890625 26.703125 
z
" id="DejaVuSans-34"/>
      </defs>
      <g transform="translate(382.581023 322.182437)scale(0.1 -0.1)">
       <use xlink:href="#DejaVuSans-34"/>
       <use x="63.623047" xlink:href="#DejaVuSans-30"/>
       <use x="127.246094" xlink:href="#DejaVuSans-30"/>
       <use x="190.869141" xlink:href="#DejaVuSans-30"/>
       <use x="254.492188" xlink:href="#DejaVuSans-30"/>
      </g>
     </g>
    </g>
   </g>
   <g id="matplotlib.axis_2">
    <g id="ytick_1">
     <g id="line2d_10">
      <defs>
       <path d="M 0 0 
L -3.5 0 
" id="m800633d929" style="stroke:#000000;stroke-width:0.8;"/>
      </defs>
      <g>
       <use style="stroke:#000000;stroke-width:0.8;" x="57.6" xlink:href="#m800633d929" y="295.488"/>
      </g>
     </g>
     <g id="text_10">
      <!-- 0 -->
      <g transform="translate(44.2375 299.287219)scale(0.1 -0.1)">
       <use xlink:href="#DejaVuSans-30"/>
      </g>
     </g>
    </g>
    <g id="ytick_2">
     <g id="line2d_11">
      <g>
       <use style="stroke:#000000;stroke-width:0.8;" x="57.6" xlink:href="#m800633d929" y="236.907978"/>
      </g>
     </g>
     <g id="text_11">
      <!-- 1 -->
      <g transform="translate(44.2375 240.707197)scale(0.1 -0.1)">
       <use xlink:href="#DejaVuSans-31"/>
      </g>
     </g>
    </g>
    <g id="ytick_3">
     <g id="line2d_12">
      <g>
       <use style="stroke:#000000;stroke-width:0.8;" x="57.6" xlink:href="#m800633d929" y="178.327956"/>
      </g>
     </g>
     <g id="text_12">
      <!-- 2 -->
      <g transform="translate(44.2375 182.127175)scale(0.1 -0.1)">
       <use xlink:href="#DejaVuSans-32"/>
      </g>
     </g>
    </g>
    <g id="ytick_4">
     <g id="line2d_13">
      <g>
       <use style="stroke:#000000;stroke-width:0.8;" x="57.6" xlink:href="#m800633d929" y="119.747934"/>
      </g>
     </g>
     <g id="text_13">
      <!-- 3 -->
      <g transform="translate(44.2375 123.547153)scale(0.1 -0.1)">
       <use xlink:href="#DejaVuSans-33"/>
      </g>
     </g>
    </g>
    <g id="ytick_5">
     <g id="line2d_14">
      <g>
       <use style="stroke:#000000;stroke-width:0.8;" x="57.6" xlink:href="#m800633d929" y="61.167912"/>
      </g>
     </g>
     <g id="text_14">
      <!-- 4 -->
      <g transform="translate(44.2375 64.967131)scale(0.1 -0.1)">
       <use xlink:href="#DejaVuSans-34"/>
      </g>
     </g>
    </g>
    <g id="text_15">
     <!-- 1e−7 -->
     <defs>
      <path d="M 56.203125 29.59375 
L 56.203125 25.203125 
L 14.890625 25.203125 
Q 15.484375 15.921875 20.484375 11.0625 
Q 25.484375 6.203125 34.421875 6.203125 
Q 39.59375 6.203125 44.453125 7.46875 
Q 49.3125 8.734375 54.109375 11.28125 
L 54.109375 2.78125 
Q 49.265625 0.734375 44.1875 -0.34375 
Q 39.109375 -1.421875 33.890625 -1.421875 
Q 20.796875 -1.421875 13.15625 6.1875 
Q 5.515625 13.8125 5.515625 26.8125 
Q 5.515625 40.234375 12.765625 48.109375 
Q 20.015625 56 32.328125 56 
Q 43.359375 56 49.78125 48.890625 
Q 56.203125 41.796875 56.203125 29.59375 
z
M 47.21875 32.234375 
Q 47.125 39.59375 43.09375 43.984375 
Q 39.0625 48.390625 32.421875 48.390625 
Q 24.90625 48.390625 20.390625 44.140625 
Q 15.875 39.890625 15.1875 32.171875 
z
" id="DejaVuSans-65"/>
      <path d="M 10.59375 35.5 
L 73.1875 35.5 
L 73.1875 27.203125 
L 10.59375 27.203125 
z
" id="DejaVuSans-2212"/>
      <path d="M 8.203125 72.90625 
L 55.078125 72.90625 
L 55.078125 68.703125 
L 28.609375 0 
L 18.3125 0 
L 43.21875 64.59375 
L 8.203125 64.59375 
z
" id="DejaVuSans-37"/>
     </defs>
     <g transform="translate(57.6 38.472)scale(0.1 -0.1)">
      <use xlink:href="#DejaVuSans-31"/>
      <use x="63.623047" xlink:href="#DejaVuSans-65"/>
      <use x="125.146484" xlink:href="#DejaVuSans-2212"/>
      <use x="208.935547" xlink:href="#DejaVuSans-37"/>
     </g>
    </g>
   </g>
   <g id="line2d_15">
    <path clip-path="url(#p4c0e43c1e9)" d="M 73.832727 295.488 
L 73.893803 295.35684 
L 73.944124 295.365536 
L 74.282577 295.335984 
L 74.39722 294.603433 
L 74.63158 291.365915 
L 75.208248 279.425407 
L 75.652822 267.448424 
L 76.58316 229.610577 
L 79.118712 107.406773 
L 80.3455 69.189372 
L 81.199139 57.899623 
L 81.563969 54.058196 
L 81.752269 53.568592 
L 81.766676 53.574319 
L 81.861434 53.762136 
L 82.028428 54.708371 
L 82.293833 57.703119 
L 82.688695 65.025667 
L 83.279972 80.649399 
L 83.584335 86.420991 
L 83.865973 87.990565 
L 84.281734 89.931864 
L 84.595634 92.877235 
L 85.004293 99.0924 
L 85.581164 111.680697 
L 86.546199 138.394644 
L 87.432912 161.201686 
L 87.576369 161.579611 
L 87.604979 161.562948 
L 87.725913 161.287954 
L 88.364062 159.508033 
L 88.382932 159.516266 
L 88.516649 159.720033 
L 88.719761 160.52362 
L 89.020473 162.761442 
L 89.456119 167.895526 
L 90.117602 178.669165 
L 91.004112 193.568661 
L 91.047129 193.5041 
L 91.161975 192.837557 
L 91.452541 189.499809 
L 92.048891 183.184002 
L 92.343515 182.004822 
L 92.481696 181.943266 
L 92.50361 181.961073 
L 92.647879 182.258193 
L 92.879398 183.341731 
L 93.231445 186.210161 
L 93.761849 192.598018 
L 94.662766 206.56969 
L 95.28874 215.621659 
L 95.317959 215.584438 
L 95.410283 215.064749 
L 95.628816 212.270874 
L 96.563415 199.277738 
L 96.876707 197.795668 
L 97.054049 197.646527 
L 97.064601 197.652166 
L 97.202376 197.866175 
L 97.421924 198.704919 
L 97.759767 201.005843 
L 98.271504 206.224406 
L 99.130418 217.617594 
L 99.457913 221.315764 
L 99.496263 221.246847 
L 99.60137 220.484947 
L 99.849325 216.684361 
L 100.718182 202.743902 
L 101.067794 200.448998 
L 101.29769 200.038158 
L 101.423697 200.14172 
L 101.60875 200.670301 
L 101.899519 202.284747 
L 102.339831 206.155709 
L 103.036215 214.516938 
L 103.298374 217.159873 
L 103.340579 217.075021 
L 103.451164 216.206544 
L 103.713932 211.968799 
L 104.525568 198.604075 
L 104.879644 196.113833 
L 105.113193 195.650863 
L 105.236967 195.744635 
L 105.415933 196.251995 
L 105.698585 197.833343 
L 106.126927 201.667802 
L 106.798961 209.959684 
L 107.584017 220.229369 
L 107.647527 220.04582 
L 107.787129 218.655407 
L 108.14364 212.272029 
L 108.775905 202.071021 
L 109.145402 199.215922 
L 109.395792 198.604321 
L 109.526668 198.663329 
L 109.695895 199.08393 
L 109.964546 200.449922 
L 110.372596 203.837699 
L 111.006484 211.209948 
L 112.041321 224.69927 
L 112.128775 224.350003 
L 112.299421 222.223488 
L 112.881973 210.889034 
L 113.371796 204.043035 
L 113.718161 201.800988 
L 113.946231 201.405083 
L 114.072847 201.512316 
L 114.259726 202.049831 
L 114.553335 203.682251 
L 114.998518 207.585544 
L 115.705656 216.020999 
L 116.207856 221.947543 
L 116.258583 221.821834 
L 116.380532 220.701807 
L 116.673127 215.4637 
L 117.431804 202.086187 
L 117.805156 199.038536 
L 118.061431 198.354392 
L 118.195553 198.40031 
L 118.360924 198.797178 
L 118.6243 200.108482 
L 119.025249 203.392682 
L 119.646556 210.562781 
L 120.418017 220.27372 
L 120.489847 220.029127 
L 120.640202 218.331392 
L 121.04318 210.503631 
L 121.634051 200.653501 
L 122.005577 197.640782 
L 122.259417 196.976598 
L 122.391308 197.027546 
L 122.557287 197.434912 
L 122.821678 198.77595 
L 123.224047 202.128221 
L 123.847586 209.439059 
L 125.144175 227.926568 
L 125.439814 231.259259 
L 125.479381 231.178567 
L 125.5853 230.310947 
L 125.83224 226.035343 
L 126.773738 208.699482 
L 127.143439 205.82636 
L 127.399916 205.176478 
L 127.537082 205.222916 
L 127.706308 205.614598 
L 127.974757 206.894627 
L 128.383416 210.078524 
L 129.020145 217.021316 
L 129.693397 224.896636 
L 129.759951 224.672383 
L 129.902596 223.035697 
L 130.263572 215.641796 
L 130.919983 203.41296 
L 131.307742 199.822809 
L 131.58106 198.917456 
L 131.717212 198.907225 
L 131.72959 198.919621 
L 131.885627 199.253747 
L 132.135814 200.411619 
L 132.518297 203.386119 
L 133.10714 209.941538 
L 133.496928 214.238798 
L 133.549481 214.098857 
L 133.673865 212.885916 
L 133.974982 207.234194 
L 134.703223 193.979023 
L 135.07272 190.859915 
L 135.323313 190.187834 
L 135.450537 190.243721 
L 135.614284 190.667822 
L 135.876443 192.072195 
L 136.275565 195.593025 
L 136.892815 203.275789 
L 138.147807 222.347286 
L 138.664414 229.253801 
L 138.699111 229.189996 
L 138.797928 228.430483 
L 139.028027 224.550102 
L 140.041558 205.896995 
L 140.398069 203.346017 
L 140.639531 202.833259 
L 140.768378 202.910848 
L 140.945518 203.370869 
L 141.225735 204.822094 
L 141.651641 208.36337 
L 142.321241 216.047478 
L 143.186243 226.844061 
L 143.25929 226.5686 
L 143.410052 224.681216 
L 143.803087 216.166528 
L 144.430887 204.176572 
L 144.822705 200.396539 
L 145.101502 199.409224 
L 145.239886 199.379211 
L 145.255713 199.393552 
L 145.408909 199.708225 
L 145.654835 200.816501 
L 146.031434 203.688424 
L 146.610334 210.040363 
L 147.230221 217.446113 
L 147.298804 217.204657 
L 147.444087 215.475811 
L 147.819063 207.615378 
L 148.446661 195.90731 
L 148.826101 192.427797 
L 149.088868 191.607542 
L 149.218324 191.626482 
L 149.225629 191.635227 
L 149.383087 192.010431 
L 149.636317 193.291633 
L 150.023062 196.55848 
L 150.618803 203.733441 
L 151.036593 208.728555 
L 151.088132 208.591942 
L 151.211095 207.390988 
L 151.508965 201.762091 
L 152.234365 188.450576 
L 152.598384 185.393109 
L 152.874949 183.524024 
L 153.122092 177.580984 
L 154.01124 155.079775 
L 154.365925 151.373572 
L 154.601097 150.65771 
L 154.706407 150.737496 
L 154.829978 151.00733 
L 154.883343 150.832773 
L 155.008538 149.40909 
L 155.322641 142.621299 
L 155.940094 130.378697 
L 156.266777 127.620443 
L 156.466846 127.265123 
L 156.529748 127.007412 
L 156.667117 125.223229 
L 157.037223 116.618724 
L 157.567019 106.302818 
L 157.876658 103.81065 
L 158.018289 103.579249 
L 158.051769 103.596367 
L 158.106554 103.4968 
L 158.106757 103.495931 
L 158.210647 102.558451 
L 158.458804 97.779711 
L 159.13226 84.97273 
L 159.415724 83.100852 
L 159.512105 83.008579 
L 159.555934 83.054326 
L 159.613154 83.119665 
L 159.656577 83.006122 
L 159.76838 81.953531 
L 160.051235 76.614455 
L 160.612076 67.000718 
L 160.881945 65.406117 
L 160.95905 65.360911 
L 161.003893 65.416215 
L 161.132537 65.897594 
L 161.349853 67.732329 
L 161.506702 68.816693 
L 161.55053 68.734751 
L 161.667 67.909385 
L 162.02554 63.212451 
L 162.412488 59.588778 
L 162.587599 59.1981 
L 162.607889 59.208248 
L 162.708735 59.428954 
L 162.883846 60.470694 
L 163.187195 63.903626 
L 163.281548 64.29349 
L 163.331869 64.192417 
L 163.460108 63.275924 
L 164.29934 56.074887 
L 164.304615 56.075817 
L 164.395721 56.213125 
L 164.550744 56.96817 
L 164.79809 59.467449 
L 165.165559 65.758745 
L 165.390179 68.080569 
L 165.427108 68.061924 
L 165.456936 67.991416 
L 165.597552 67.19172 
L 166.240368 63.15787 
L 166.329445 63.198772 
L 166.343649 63.223566 
L 166.482033 63.730662 
L 166.70503 65.546046 
L 167.153459 70.747688 
L 167.260595 70.351639 
L 167.482172 68.099575 
L 168.001213 63.182419 
L 168.173077 62.829106 
L 168.194585 62.840333 
L 168.297866 63.06717 
L 168.475412 64.115065 
L 168.751368 67.290794 
L 169.114372 71.80224 
L 169.163882 71.712516 
L 169.291106 70.877653 
L 170.109439 64.406731 
L 170.118367 64.40877 
L 170.212719 64.559177 
L 170.373017 65.349687 
L 170.626451 67.907878 
L 171.123172 74.568372 
L 171.222192 74.240514 
L 171.429565 72.296753 
L 171.969506 67.440527 
L 172.128587 67.153674 
L 172.154965 67.169694 
L 172.263319 67.426639 
L 172.447966 68.560942 
L 172.732444 71.912871 
L 173.221049 78.909753 
L 173.298155 78.70575 
L 173.467584 77.307107 
L 174.121154 71.577228 
L 174.239856 71.440503 
L 174.278409 71.474178 
L 174.399545 71.829303 
L 174.602049 73.247008 
L 174.909659 77.212967 
L 175.339015 83.328234 
L 175.393191 83.218398 
L 175.5263 82.265451 
L 176.376692 75.048258 
L 176.47003 75.145067 
L 176.616327 75.74647 
L 176.852716 77.825352 
L 177.205575 83.180033 
L 177.627626 89.620695 
L 177.661715 89.575882 
L 177.764387 89.017772 
L 178.046228 85.90284 
L 178.495874 81.779959 
L 178.689855 81.347549 
L 178.701827 81.351921 
L 178.801455 81.528788 
L 178.971087 82.396832 
L 179.237304 85.109403 
L 179.632368 91.729916 
L 179.816609 93.466801 
L 179.833654 93.453687 
L 179.907919 93.146644 
L 180.095001 91.190943 
L 180.782457 83.624715 
L 180.957973 83.264191 
L 180.977452 83.273621 
L 181.081139 83.488349 
L 181.259293 84.486135 
L 181.537887 87.515984 
L 181.950807 94.767832 
L 182.279114 99.590423 
L 182.2921 99.582946 
L 182.360481 99.342773 
L 182.532345 97.719343 
L 183.272151 90.098201 
L 183.416825 89.878221 
L 183.447668 89.899471 
L 183.562311 90.185868 
L 183.756698 91.393478 
L 184.055989 94.870337 
L 184.498534 102.952352 
L 184.73959 105.967396 
L 184.749532 105.962737 
L 184.811825 105.757274 
L 184.968471 104.273204 
L 185.829617 94.915668 
L 185.943652 94.797565 
L 185.982814 94.832649 
L 186.107197 95.195278 
L 186.315788 96.622492 
L 186.634558 100.574418 
L 187.176122 108.941614 
L 187.26662 108.595581 
L 187.449035 106.489643 
L 188.235916 96.573973 
L 188.429289 96.131929 
L 188.440652 96.135933 
L 188.539874 96.309249 
L 188.710318 97.167233 
L 188.98039 99.855818 
L 189.383367 106.399353 
L 189.681644 110.586598 
L 189.708631 110.551611 
L 189.797302 110.030079 
L 190.017864 107.08444 
L 190.686044 98.072159 
L 190.928317 97.188956 
L 191.026931 97.263977 
L 191.169576 97.799871 
L 191.40353 99.698457 
L 191.757201 104.650078 
L 192.313577 113.890562 
L 192.393118 113.612641 
L 192.558895 111.782387 
L 193.449868 100.561857 
L 193.602456 100.3062 
L 193.630457 100.323712 
L 193.742666 100.58895 
L 193.934618 101.734427 
L 194.232895 105.070332 
L 194.677063 112.870774 
L 195.14071 120.993299 
L 195.178045 120.927667 
L 195.282543 120.181634 
L 195.54734 116.280502 
L 196.135167 108.170491 
L 196.399355 106.972719 
L 196.481533 106.958607 
L 196.517448 107.004548 
L 196.654006 107.459842 
L 196.880047 109.130883 
L 197.223572 113.573259 
L 197.736932 123.472586 
L 198.314005 134.783598 
L 198.353978 134.707346 
L 198.461926 133.886058 
L 198.733418 129.682256 
L 199.340116 120.842428 
L 199.619116 119.410439 
L 199.715498 119.356734 
L 199.754863 119.397822 
L 199.887971 119.79799 
L 200.109548 121.301475 
L 200.448 125.349163 
L 200.954867 134.42974 
L 201.384223 141.835734 
L 201.420949 141.764742 
L 201.523012 140.95094 
L 201.772185 136.749269 
L 202.473844 124.946793 
L 202.765425 123.201166 
L 202.879257 123.094973 
L 202.917607 123.128718 
L 203.045236 123.482935 
L 203.259914 124.862245 
L 203.590453 128.649651 
L 204.086566 137.229408 
L 204.900637 155.741496 
L 205.076762 157.713148 
L 205.097459 157.689321 
L 205.174159 157.244703 
L 205.35982 154.557934 
L 206.361785 138.076541 
L 206.609132 137.195276 
L 206.706934 137.236105 
L 206.718703 137.255136 
L 206.865 137.73366 
L 207.105244 139.416474 
L 207.471292 143.781091 
L 208.026046 153.405535 
L 208.668456 165.277645 
L 208.728111 165.076983 
L 208.861625 163.485446 
L 209.204542 156.009909 
L 209.804341 144.329748 
L 210.140561 141.433669 
L 210.340833 141.020898 
L 210.347326 141.022836 
L 210.452027 141.180031 
L 210.628152 141.950337 
L 210.908978 144.339252 
L 211.333261 150.114519 
L 211.99373 162.54863 
L 213.399079 192.189916 
L 213.49546 191.651475 
L 213.675847 188.570772 
L 214.922114 163.478081 
L 215.192592 162.307919 
L 215.297699 162.273728 
L 215.329961 162.306957 
L 215.471795 162.682738 
L 215.706155 164.051101 
L 216.066521 167.665335 
L 216.616202 175.715932 
L 217.585905 193.753392 
L 218.180428 204.121959 
L 218.218778 204.023004 
L 218.320841 202.938241 
L 218.557028 197.51937 
L 219.551079 172.817351 
L 219.910025 169.267006 
L 220.152705 168.536327 
L 220.266943 168.602808 
L 220.423183 169.07447 
L 220.677833 170.67478 
L 221.067622 174.741352 
L 221.669247 183.659246 
L 222.40946 195.696996 
L 222.481695 195.354575 
L 222.629413 192.992099 
L 223.007027 182.396659 
L 223.64477 166.400397 
L 224.029892 161.595342 
L 224.298746 160.410126 
L 224.401621 160.375801 
L 224.434898 160.4105 
L 224.576326 160.793023 
L 224.810483 162.186752 
L 225.171458 165.873869 
L 225.722965 174.091686 
L 226.699769 192.552293 
L 227.626658 209.663132 
L 227.662776 209.571803 
L 227.761187 208.524894 
L 227.987836 203.20788 
L 229.060617 175.403346 
L 229.418954 171.865704 
L 229.662445 171.129896 
L 229.7779 171.193638 
L 229.93414 171.657007 
L 230.188791 173.230371 
L 230.578985 177.231257 
L 231.182031 186.011177 
L 232.368644 207.262086 
L 232.868003 215.274649 
L 232.907773 215.160312 
L 233.011054 213.944187 
L 233.247443 207.94443 
L 234.301759 178.691532 
L 234.676329 174.463046 
L 234.939908 173.442413 
L 235.046841 173.429135 
L 235.073219 173.458473 
L 235.220328 173.843797 
L 235.462196 175.215461 
L 235.834534 178.793144 
L 236.407143 186.729109 
L 237.55987 205.681901 
L 237.672079 204.839128 
L 237.8689 200.476707 
L 239.128154 168.082095 
L 239.449562 165.6749 
L 239.639688 165.355241 
L 239.649631 165.358901 
L 239.763057 165.534416 
L 239.952371 166.336712 
L 240.252473 168.73109 
L 240.708816 174.402617 
L 241.440709 186.663892 
L 242.813592 211.669634 
L 242.890697 211.251055 
L 243.043285 208.49676 
L 243.429421 196.395573 
L 244.094354 177.598389 
L 244.503013 171.598682 
L 244.801695 169.84413 
L 244.948804 169.68884 
L 244.975183 169.705816 
L 245.103218 169.969026 
L 245.317084 171.020891 
L 245.65087 173.948168 
L 246.159563 180.634527 
L 247.015839 195.280134 
L 248.367011 219.144541 
L 248.415709 218.967392 
L 248.530759 217.353442 
L 248.793932 209.823718 
L 249.755112 180.797426 
L 250.154031 175.291916 
L 250.445815 173.725079 
L 250.582981 173.606982 
L 250.611591 173.627483 
L 250.744497 173.913237 
L 250.965668 175.021654 
L 251.309599 178.05286 
L 251.835133 184.920147 
L 252.73889 200.122745 
L 253.615457 214.886536 
L 253.662938 214.717179 
L 253.776161 213.146945 
L 254.035073 205.7648 
L 255.004573 176.455822 
L 255.398217 171.114291 
L 255.683507 169.646871 
L 255.809108 169.554902 
L 255.840761 169.580285 
L 255.975899 169.894104 
L 256.200925 171.088077 
L 256.550132 174.319965 
L 257.084188 181.608027 
L 258.011889 197.822147 
L 258.386865 203.674025 
L 258.430287 203.533146 
L 258.538438 202.135205 
L 258.78619 195.39864 
L 259.770096 166.723294 
L 260.146898 162.059181 
L 260.411289 160.928936 
L 260.510917 160.904741 
L 260.54318 160.940222 
L 260.685825 161.335646 
L 260.922417 162.768317 
L 261.287247 166.541317 
L 261.846465 174.941358 
L 262.852082 194.004463 
L 263.74752 210.507403 
L 263.784652 210.401903 
L 263.883672 209.22494 
L 264.109713 203.297125 
L 265.225916 170.737037 
L 265.591355 166.663189 
L 265.844585 165.747532 
L 265.946446 165.763113 
L 265.965925 165.78919 
L 266.11486 166.218665 
L 266.360177 167.727577 
L 266.737385 171.632984 
L 267.318314 180.267849 
L 268.407124 200.429303 
L 269.077333 212.091794 
L 269.116495 211.972404 
L 269.218355 210.692316 
L 269.450077 204.348703 
L 270.548221 171.139895 
L 270.921574 166.659954 
L 271.184544 165.580765 
L 271.285593 165.563039 
L 271.315623 165.59672 
L 271.460095 165.992619 
L 271.699121 167.415846 
L 272.067807 171.149217 
L 272.634329 179.450107 
L 273.667948 198.47643 
L 274.493788 213.146429 
L 274.532544 213.028274 
L 274.63339 211.753761 
L 274.862474 205.413214 
L 275.98375 170.954594 
L 276.356494 166.472236 
L 276.619058 165.39373 
L 276.719701 165.376076 
L 276.749935 165.410034 
L 276.894406 165.807055 
L 277.133433 167.233864 
L 277.502321 170.978055 
L 278.069249 179.302923 
L 279.104695 198.398901 
L 279.868444 211.920703 
L 279.908215 211.795171 
L 280.010481 210.468248 
L 280.242609 203.917072 
L 281.347652 169.443349 
L 281.723033 164.782405 
L 281.988439 163.641202 
L 282.08969 163.614315 
L 282.121953 163.649148 
L 282.264598 164.03879 
L 282.501393 165.452478 
L 282.867035 169.178501 
L 283.428281 177.47701 
L 284.443639 196.39349 
L 284.818412 202.523825 
L 284.860617 202.384059 
L 284.966535 200.9679 
L 285.207591 194.093854 
L 286.239587 162.131951 
L 286.614969 157.329466 
L 286.878548 156.170777 
L 286.974929 156.145968 
L 287.008612 156.183577 
L 287.15004 156.587272 
L 287.385415 158.056045 
L 287.748825 161.934278 
L 288.30581 170.577797 
L 289.304326 190.156924 
L 290.285391 208.979267 
L 290.321306 208.874962 
L 290.418297 207.681982 
L 290.638453 201.622124 
L 291.808427 165.375189 
L 292.170214 161.263918 
L 292.419792 160.361576 
L 292.519217 160.385138 
L 292.536668 160.410021 
L 292.685197 160.857425 
L 292.930311 162.429034 
L 293.307519 166.498572 
L 293.888651 175.498494 
L 294.978273 196.518121 
L 296.182538 218.932591 
L 296.202626 218.89854 
L 296.27405 218.271101 
L 296.441247 214.397134 
L 296.881154 197.486091 
L 297.522144 176.071587 
L 297.947239 168.424211 
L 298.267835 165.941094 
L 298.460193 165.603632 
L 298.469324 165.606818 
L 298.581329 165.77755 
L 298.768817 166.568875 
L 299.067297 168.948193 
L 299.522422 174.606929 
L 300.253706 186.866838 
L 301.743465 214.176042 
L 301.823208 213.666941 
L 301.975999 210.40407 
L 302.350975 196.381835 
L 303.059736 171.874897 
L 303.485236 164.062739 
L 303.804818 161.542286 
L 303.993929 161.205214 
L 304.004684 161.209141 
L 304.115878 161.385334 
L 304.303163 162.200923 
L 304.601236 164.65141 
L 305.05555 170.478023 
L 305.784805 183.095827 
L 307.44379 214.548505 
L 307.525359 214.011761 
L 307.680382 210.619653 
L 308.063068 196.064023 
L 308.763511 171.605196 
L 309.190025 163.664475 
L 309.511028 161.086519 
L 309.703385 160.734137 
L 309.712719 160.737376 
L 309.822899 160.907969 
L 310.008358 161.70714 
L 310.303996 164.122693 
L 310.75486 169.887022 
L 311.476608 182.367786 
L 313.225887 215.659512 
L 313.310297 215.07745 
L 313.468364 211.491053 
L 313.862616 196.108224 
L 314.552101 171.658558 
L 314.980442 163.510915 
L 315.303879 160.836716 
L 315.502324 160.455868 
L 315.508817 160.457867 
L 315.617374 160.61749 
L 315.799383 161.382525 
L 316.090558 163.722972 
L 316.534726 169.341291 
L 317.242879 181.515214 
L 319.059727 216.170028 
L 319.149818 215.503087 
L 319.314377 211.564967 
L 319.736834 194.580821 
L 320.397506 171.07177 
L 320.825644 162.851489 
L 321.149487 160.14655 
L 321.348744 159.759148 
L 321.354831 159.760984 
L 321.462779 159.91871 
L 321.643977 160.679507 
L 321.934137 163.014116 
L 322.376681 168.624666 
L 323.081588 180.783253 
L 324.81362 213.988648 
L 324.904523 213.303927 
L 325.070097 209.290379 
L 325.497829 191.940357 
L 326.152008 168.587721 
L 326.578523 160.386788 
L 326.900337 157.712086 
L 327.094115 157.341654 
L 327.10284 157.344579 
L 327.211193 157.511864 
L 327.394217 158.306484 
L 327.686812 160.727452 
L 328.133212 166.528449 
L 328.845626 179.090332 
L 329.904406 199.308995 
L 329.976844 198.875254 
L 330.120707 195.911187 
L 330.464029 183.093294 
L 331.208705 156.599996 
L 331.62406 148.979977 
L 331.930453 146.665195 
L 332.087708 146.420164 
L 332.112665 146.434404 
L 332.228729 146.679336 
L 332.427783 147.730996 
L 332.741887 150.772967 
L 333.21994 157.859292 
L 334.000329 173.21507 
L 335.878455 212.528269 
L 335.935676 212.245828 
L 336.060059 209.970466 
L 336.341697 199.809492 
L 337.27102 165.044682 
L 337.685564 157.564189 
L 337.995203 155.242465 
L 338.161385 154.97959 
L 338.182285 154.990191 
L 338.297537 155.211966 
L 338.494156 156.178901 
L 338.805216 158.998926 
L 339.279415 165.599906 
L 340.052498 179.9177 
L 341.68267 212.247609 
L 341.748615 211.871794 
L 341.883347 209.132678 
L 342.192783 197.242234 
L 343.041755 164.575741 
L 343.466038 156.281701 
L 343.785823 153.596575 
L 343.974325 153.235622 
L 343.985688 153.239768 
L 344.093839 153.416498 
L 344.277877 154.247879 
L 344.572095 156.771777 
L 345.020727 162.80307 
L 345.738011 175.864598 
L 347.408764 209.410705 
L 347.494189 208.787071 
L 347.652458 204.974494 
L 348.043667 188.726966 
L 348.739036 162.364466 
L 349.16758 153.656845 
L 349.490815 150.804213 
L 349.686825 150.400193 
L 349.694941 150.402759 
L 349.800251 150.565594 
L 349.97942 151.357845 
L 350.266942 153.80176 
L 350.705631 159.695089 
L 351.402218 172.464554 
L 353.133236 207.885854 
L 353.227385 207.128455 
L 353.396003 202.782512 
L 353.83591 183.976918 
L 354.478726 160.058857 
L 354.903212 151.56287 
L 355.222185 148.824537 
L 355.408252 148.460162 
L 355.421036 148.465002 
L 355.528172 148.646263 
L 355.711804 149.500511 
L 356.005414 152.095209 
L 356.453031 158.298541 
L 357.16788 171.728026 
L 358.300924 194.82934 
L 358.374783 194.359549 
L 358.519863 191.19285 
L 358.864403 177.585423 
L 359.61192 149.433745 
L 360.028492 141.325844 
L 360.336305 138.846435 
L 360.495183 138.576819 
L 360.519735 138.590559 
L 360.632756 138.832697 
L 360.827954 139.890504 
L 361.137188 142.984051 
L 361.607734 150.229175 
L 362.370672 165.902802 
L 364.291815 208.225461 
L 364.355123 207.868368 
L 364.486405 205.191219 
L 364.784681 193.507738 
L 365.667336 158.366459 
L 366.088169 150.014948 
L 366.404099 147.353635 
L 366.582862 147.016969 
L 366.598892 147.023782 
L 366.707651 147.21992 
L 366.89453 148.122968 
L 367.192604 150.835288 
L 367.64712 157.283849 
L 368.376578 171.243727 
L 370.010808 205.46815 
L 370.09116 204.896585 
L 370.242733 201.259098 
L 370.604723 185.856 
L 371.344935 156.170754 
L 371.773885 147.0409 
L 372.097525 144.043539 
L 372.293738 143.615761 
L 372.301855 143.618269 
L 372.404729 143.779677 
L 372.581057 144.578033 
L 372.864927 147.063447 
L 373.298138 153.08534 
L 373.983565 166.139452 
L 375.405958 196.381886 
L 375.496861 195.659686 
L 375.66142 191.424508 
L 376.081239 173.229315 
L 376.735621 148.157132 
L 377.155237 139.597398 
L 377.467514 136.922516 
L 377.635929 136.606998 
L 377.656828 136.617444 
L 377.765993 136.838326 
L 377.955511 137.836282 
L 378.257033 140.804316 
L 378.716217 147.822329 
L 379.454603 162.997272 
L 381.205505 202.143466 
L 381.281799 201.618955 
L 381.428705 198.166687 
L 381.773854 183.515788 
L 382.542473 152.190153 
L 382.969191 143.0705 
L 383.290193 140.110074 
L 383.479102 139.70581 
L 383.490871 139.710013 
L 383.594557 139.885968 
L 383.773523 140.736845 
L 384.061045 143.359501 
L 384.499735 149.682241 
L 385.195713 163.371634 
L 387.196599 207.257719 
L 387.291561 206.441982 
L 387.459569 201.800907 
L 387.88649 182.071131 
L 388.551829 154.827941 
L 388.983214 145.245329 
L 389.310506 142.048205 
L 389.51585 141.565243 
L 389.519705 141.566194 
L 389.61974 141.711042 
L 389.790386 142.458255 
L 390.066748 144.832734 
L 390.489205 150.652104 
L 391.153732 163.296784 
L 392.690769 196.477528 
L 392.792223 195.557247 
L 392.968145 190.542048 
L 393.447214 168.451384 
L 394.057159 144.833523 
L 394.474137 136.211227 
L 394.784588 133.531018 
L 394.949147 133.222467 
L 394.971873 133.234373 
L 395.081444 133.465275 
L 395.271975 134.500317 
L 395.575121 137.569257 
L 396.03674 144.810528 
L 396.780604 160.472948 
L 398.487273 200.868905 
L 398.487273 200.868905 
" style="fill:none;stroke:#1f77b4;stroke-linecap:square;stroke-width:1.5;"/>
   </g>
   <g id="patch_3">
    <path d="M 57.6 307.584 
L 57.6 41.472 
" style="fill:none;stroke:#000000;stroke-linecap:square;stroke-linejoin:miter;stroke-width:0.8;"/>
   </g>
   <g id="patch_4">
    <path d="M 414.72 307.584 
L 414.72 41.472 
" style="fill:none;stroke:#000000;stroke-linecap:square;stroke-linejoin:miter;stroke-width:0.8;"/>
   </g>
   <g id="patch_5">
    <path d="M 57.6 307.584 
L 414.72 307.584 
" style="fill:none;stroke:#000000;stroke-linecap:square;stroke-linejoin:miter;stroke-width:0.8;"/>
   </g>
   <g id="patch_6">
    <path d="M 57.6 41.472 
L 414.72 41.472 
" style="fill:none;stroke:#000000;stroke-linecap:square;stroke-linejoin:miter;stroke-width:0.8;"/>
   </g>
   <g id="text_16">
    <!-- Muscarinic recording -->
    <defs>
     <path d="M 9.8125 72.90625 
L 24.515625 72.90625 
L 43.109375 23.296875 
L 61.8125 72.90625 
L 76.515625 72.90625 
L 76.515625 0 
L 66.890625 0 
L 66.890625 64.015625 
L 48.09375 14.015625 
L 38.1875 14.015625 
L 19.390625 64.015625 
L 19.390625 0 
L 9.8125 0 
z
" id="DejaVuSans-4d"/>
     <path d="M 8.5 21.578125 
L 8.5 54.6875 
L 17.484375 54.6875 
L 17.484375 21.921875 
Q 17.484375 14.15625 20.5 10.265625 
Q 23.53125 6.390625 29.59375 6.390625 
Q 36.859375 6.390625 41.078125 11.03125 
Q 45.3125 15.671875 45.3125 23.6875 
L 45.3125 54.6875 
L 54.296875 54.6875 
L 54.296875 0 
L 45.3125 0 
L 45.3125 8.40625 
Q 42.046875 3.421875 37.71875 1 
Q 33.40625 -1.421875 27.6875 -1.421875 
Q 18.265625 -1.421875 13.375 4.4375 
Q 8.5 10.296875 8.5 21.578125 
z
M 31.109375 56 
z
" id="DejaVuSans-75"/>
     <path d="M 44.28125 53.078125 
L 44.28125 44.578125 
Q 40.484375 46.53125 36.375 47.5 
Q 32.28125 48.484375 27.875 48.484375 
Q 21.1875 48.484375 17.84375 46.4375 
Q 14.5 44.390625 14.5 40.28125 
Q 14.5 37.15625 16.890625 35.375 
Q 19.28125 33.59375 26.515625 31.984375 
L 29.59375 31.296875 
Q 39.15625 29.25 43.1875 25.515625 
Q 47.21875 21.78125 47.21875 15.09375 
Q 47.21875 7.46875 41.1875 3.015625 
Q 35.15625 -1.421875 24.609375 -1.421875 
Q 20.21875 -1.421875 15.453125 -0.5625 
Q 10.6875 0.296875 5.421875 2 
L 5.421875 11.28125 
Q 10.40625 8.6875 15.234375 7.390625 
Q 20.0625 6.109375 24.8125 6.109375 
Q 31.15625 6.109375 34.5625 8.28125 
Q 37.984375 10.453125 37.984375 14.40625 
Q 37.984375 18.0625 35.515625 20.015625 
Q 33.0625 21.96875 24.703125 23.78125 
L 21.578125 24.515625 
Q 13.234375 26.265625 9.515625 29.90625 
Q 5.8125 33.546875 5.8125 39.890625 
Q 5.8125 47.609375 11.28125 51.796875 
Q 16.75 56 26.8125 56 
Q 31.78125 56 36.171875 55.265625 
Q 40.578125 54.546875 44.28125 53.078125 
z
" id="DejaVuSans-73"/>
     <path d="M 48.78125 52.59375 
L 48.78125 44.1875 
Q 44.96875 46.296875 41.140625 47.34375 
Q 37.3125 48.390625 33.40625 48.390625 
Q 24.65625 48.390625 19.8125 42.84375 
Q 14.984375 37.3125 14.984375 27.296875 
Q 14.984375 17.28125 19.8125 11.734375 
Q 24.65625 6.203125 33.40625 6.203125 
Q 37.3125 6.203125 41.140625 7.25 
Q 44.96875 8.296875 48.78125 10.40625 
L 48.78125 2.09375 
Q 45.015625 0.34375 40.984375 -0.53125 
Q 36.96875 -1.421875 32.421875 -1.421875 
Q 20.0625 -1.421875 12.78125 6.34375 
Q 5.515625 14.109375 5.515625 27.296875 
Q 5.515625 40.671875 12.859375 48.328125 
Q 20.21875 56 33.015625 56 
Q 37.15625 56 41.109375 55.140625 
Q 45.0625 54.296875 48.78125 52.59375 
z
" id="DejaVuSans-63"/>
     <path d="M 34.28125 27.484375 
Q 23.390625 27.484375 19.1875 25 
Q 14.984375 22.515625 14.984375 16.5 
Q 14.984375 11.71875 18.140625 8.90625 
Q 21.296875 6.109375 26.703125 6.109375 
Q 34.1875 6.109375 38.703125 11.40625 
Q 43.21875 16.703125 43.21875 25.484375 
L 43.21875 27.484375 
z
M 52.203125 31.203125 
L 52.203125 0 
L 43.21875 0 
L 43.21875 8.296875 
Q 40.140625 3.328125 35.546875 0.953125 
Q 30.953125 -1.421875 24.3125 -1.421875 
Q 15.921875 -1.421875 10.953125 3.296875 
Q 6 8.015625 6 15.921875 
Q 6 25.140625 12.171875 29.828125 
Q 18.359375 34.515625 30.609375 34.515625 
L 43.21875 34.515625 
L 43.21875 35.40625 
Q 43.21875 41.609375 39.140625 45 
Q 35.0625 48.390625 27.6875 48.390625 
Q 23 48.390625 18.546875 47.265625 
Q 14.109375 46.140625 10.015625 43.890625 
L 10.015625 52.203125 
Q 14.9375 54.109375 19.578125 55.046875 
Q 24.21875 56 28.609375 56 
Q 40.484375 56 46.34375 49.84375 
Q 52.203125 43.703125 52.203125 31.203125 
z
" id="DejaVuSans-61"/>
     <path d="M 41.109375 46.296875 
Q 39.59375 47.171875 37.8125 47.578125 
Q 36.03125 48 33.890625 48 
Q 26.265625 48 22.1875 43.046875 
Q 18.109375 38.09375 18.109375 28.8125 
L 18.109375 0 
L 9.078125 0 
L 9.078125 54.6875 
L 18.109375 54.6875 
L 18.109375 46.1875 
Q 20.953125 51.171875 25.484375 53.578125 
Q 30.03125 56 36.53125 56 
Q 37.453125 56 38.578125 55.875 
Q 39.703125 55.765625 41.0625 55.515625 
z
" id="DejaVuSans-72"/>
     <path d="M 9.421875 54.6875 
L 18.40625 54.6875 
L 18.40625 0 
L 9.421875 0 
z
M 9.421875 75.984375 
L 18.40625 75.984375 
L 18.40625 64.59375 
L 9.421875 64.59375 
z
" id="DejaVuSans-69"/>
     <path d="M 54.890625 33.015625 
L 54.890625 0 
L 45.90625 0 
L 45.90625 32.71875 
Q 45.90625 40.484375 42.875 44.328125 
Q 39.84375 48.1875 33.796875 48.1875 
Q 26.515625 48.1875 22.3125 43.546875 
Q 18.109375 38.921875 18.109375 30.90625 
L 18.109375 0 
L 9.078125 0 
L 9.078125 54.6875 
L 18.109375 54.6875 
L 18.109375 46.1875 
Q 21.34375 51.125 25.703125 53.5625 
Q 30.078125 56 35.796875 56 
Q 45.21875 56 50.046875 50.171875 
Q 54.890625 44.34375 54.890625 33.015625 
z
" id="DejaVuSans-6e"/>
     <path id="DejaVuSans-20"/>
     <path d="M 30.609375 48.390625 
Q 23.390625 48.390625 19.1875 42.75 
Q 14.984375 37.109375 14.984375 27.296875 
Q 14.984375 17.484375 19.15625 11.84375 
Q 23.34375 6.203125 30.609375 6.203125 
Q 37.796875 6.203125 41.984375 11.859375 
Q 46.1875 17.53125 46.1875 27.296875 
Q 46.1875 37.015625 41.984375 42.703125 
Q 37.796875 48.390625 30.609375 48.390625 
z
M 30.609375 56 
Q 42.328125 56 49.015625 48.375 
Q 55.71875 40.765625 55.71875 27.296875 
Q 55.71875 13.875 49.015625 6.21875 
Q 42.328125 -1.421875 30.609375 -1.421875 
Q 18.84375 -1.421875 12.171875 6.21875 
Q 5.515625 13.875 5.515625 27.296875 
Q 5.515625 40.765625 12.171875 48.375 
Q 18.84375 56 30.609375 56 
z
" id="DejaVuSans-6f"/>
     <path d="M 45.40625 46.390625 
L 45.40625 75.984375 
L 54.390625 75.984375 
L 54.390625 0 
L 45.40625 0 
L 45.40625 8.203125 
Q 42.578125 3.328125 38.25 0.953125 
Q 33.9375 -1.421875 27.875 -1.421875 
Q 17.96875 -1.421875 11.734375 6.484375 
Q 5.515625 14.40625 5.515625 27.296875 
Q 5.515625 40.1875 11.734375 48.09375 
Q 17.96875 56 27.875 56 
Q 33.9375 56 38.25 53.625 
Q 42.578125 51.265625 45.40625 46.390625 
z
M 14.796875 27.296875 
Q 14.796875 17.390625 18.875 11.75 
Q 22.953125 6.109375 30.078125 6.109375 
Q 37.203125 6.109375 41.296875 11.75 
Q 45.40625 17.390625 45.40625 27.296875 
Q 45.40625 37.203125 41.296875 42.84375 
Q 37.203125 48.484375 30.078125 48.484375 
Q 22.953125 48.484375 18.875 42.84375 
Q 14.796875 37.203125 14.796875 27.296875 
z
" id="DejaVuSans-64"/>
     <path d="M 45.40625 27.984375 
Q 45.40625 37.75 41.375 43.109375 
Q 37.359375 48.484375 30.078125 48.484375 
Q 22.859375 48.484375 18.828125 43.109375 
Q 14.796875 37.75 14.796875 27.984375 
Q 14.796875 18.265625 18.828125 12.890625 
Q 22.859375 7.515625 30.078125 7.515625 
Q 37.359375 7.515625 41.375 12.890625 
Q 45.40625 18.265625 45.40625 27.984375 
z
M 54.390625 6.78125 
Q 54.390625 -7.171875 48.1875 -13.984375 
Q 42 -20.796875 29.203125 -20.796875 
Q 24.46875 -20.796875 20.265625 -20.09375 
Q 16.0625 -19.390625 12.109375 -17.921875 
L 12.109375 -9.1875 
Q 16.0625 -11.328125 19.921875 -12.34375 
Q 23.78125 -13.375 27.78125 -13.375 
Q 36.625 -13.375 41.015625 -8.765625 
Q 45.40625 -4.15625 45.40625 5.171875 
L 45.40625 9.625 
Q 42.625 4.78125 38.28125 2.390625 
Q 33.9375 0 27.875 0 
Q 17.828125 0 11.671875 7.65625 
Q 5.515625 15.328125 5.515625 27.984375 
Q 5.515625 40.671875 11.671875 48.328125 
Q 17.828125 56 27.875 56 
Q 33.9375 56 38.28125 53.609375 
Q 42.625 51.21875 45.40625 46.390625 
L 45.40625 54.6875 
L 54.390625 54.6875 
z
" id="DejaVuSans-67"/>
    </defs>
    <g transform="translate(173.590312 35.472)scale(0.12 -0.12)">
     <use xlink:href="#DejaVuSans-4d"/>
     <use x="86.279297" xlink:href="#DejaVuSans-75"/>
     <use x="149.658203" xlink:href="#DejaVuSans-73"/>
     <use x="201.757812" xlink:href="#DejaVuSans-63"/>
     <use x="256.738281" xlink:href="#DejaVuSans-61"/>
     <use x="318.017578" xlink:href="#DejaVuSans-72"/>
     <use x="359.130859" xlink:href="#DejaVuSans-69"/>
     <use x="386.914062" xlink:href="#DejaVuSans-6e"/>
     <use x="450.292969" xlink:href="#DejaVuSans-69"/>
     <use x="478.076172" xlink:href="#DejaVuSans-63"/>
     <use x="533.056641" xlink:href="#DejaVuSans-20"/>
     <use x="564.84375" xlink:href="#DejaVuSans-72"/>
     <use x="605.925781" xlink:href="#DejaVuSans-65"/>
     <use x="667.449219" xlink:href="#DejaVuSans-63"/>
     <use x="722.429688" xlink:href="#DejaVuSans-6f"/>
     <use x="783.611328" xlink:href="#DejaVuSans-72"/>
     <use x="824.708984" xlink:href="#DejaVuSans-64"/>
     <use x="888.185547" xlink:href="#DejaVuSans-69"/>
     <use x="915.96875" xlink:href="#DejaVuSans-6e"/>
     <use x="979.347656" xlink:href="#DejaVuSans-67"/>
    </g>
   </g>
  </g>
 </g>
 <defs>
  <clipPath id="p4c0e43c1e9">
   <rect height="266.112" width="357.12" x="57.6" y="41.472"/>
  </clipPath>
 </defs>
</svg>
