<?xml version="1.0" encoding="utf-8" standalone="no"?>
<!DOCTYPE svg PUBLIC "-//W3C//DTD SVG 1.1//EN"
  "http://www.w3.org/Graphics/SVG/1.1/DTD/svg11.dtd">
<!-- Created with matplotlib (http://matplotlib.org/) -->
<svg height="345.6pt" version="1.1" viewBox="0 0 460.8 345.6" width="460.8pt" xmlns="http://www.w3.org/2000/svg" xmlns:xlink="http://www.w3.org/1999/xlink">
 <defs>
  <style type="text/css">
*{stroke-linecap:butt;stroke-linejoin:round;}
  </style>
 </defs>
 <g id="figure_1">
  <g id="patch_1">
   <path d="M 0 345.6 
L 460.8 345.6 
L 460.8 0 
L 0 0 
z
" style="fill:#ffffff;"/>
  </g>
  <g id="axes_1">
   <g id="patch_2">
    <path d="M 57.6 307.584 
L 414.72 307.584 
L 414.72 41.472 
L 57.6 41.472 
z
" style="fill:#ffffff;"/>
   </g>
   <g id="matplotlib.axis_1">
    <g id="xtick_1">
     <g id="line2d_1">
      <defs>
       <path d="M 0 0 
L 0 3.5 
" id="m909bcf5922" style="stroke:#000000;stroke-width:0.8;"/>
      </defs>
      <g>
       <use style="stroke:#000000;stroke-width:0.8;" x="73.832727" xlink:href="#m909bcf5922" y="307.584"/>
      </g>
     </g>
     <g id="text_1">
      <!-- 0 -->
      <defs>
       <path d="M 31.78125 66.40625 
Q 24.171875 66.40625 20.328125 58.90625 
Q 16.5 51.421875 16.5 36.375 
Q 16.5 21.390625 20.328125 13.890625 
Q 24.171875 6.390625 31.78125 6.390625 
Q 39.453125 6.390625 43.28125 13.890625 
Q 47.125 21.390625 47.125 36.375 
Q 47.125 51.421875 43.28125 58.90625 
Q 39.453125 66.40625 31.78125 66.40625 
z
M 31.78125 74.21875 
Q 44.046875 74.21875 50.515625 64.515625 
Q 56.984375 54.828125 56.984375 36.375 
Q 56.984375 17.96875 50.515625 8.265625 
Q 44.046875 -1.421875 31.78125 -1.421875 
Q 19.53125 -1.421875 13.0625 8.265625 
Q 6.59375 17.96875 6.59375 36.375 
Q 6.59375 54.828125 13.0625 64.515625 
Q 19.53125 74.21875 31.78125 74.21875 
z
" id="DejaVuSans-30"/>
      </defs>
      <g transform="translate(70.651477 322.182437)scale(0.1 -0.1)">
       <use xlink:href="#DejaVuSans-30"/>
      </g>
     </g>
    </g>
    <g id="xtick_2">
     <g id="line2d_2">
      <g>
       <use style="stroke:#000000;stroke-width:0.8;" x="114.414545" xlink:href="#m909bcf5922" y="307.584"/>
      </g>
     </g>
     <g id="text_2">
      <!-- 5000 -->
      <defs>
       <path d="M 10.796875 72.90625 
L 49.515625 72.90625 
L 49.515625 64.59375 
L 19.828125 64.59375 
L 19.828125 46.734375 
Q 21.96875 47.46875 24.109375 47.828125 
Q 26.265625 48.1875 28.421875 48.1875 
Q 40.625 48.1875 47.75 41.5 
Q 54.890625 34.8125 54.890625 23.390625 
Q 54.890625 11.625 47.5625 5.09375 
Q 40.234375 -1.421875 26.90625 -1.421875 
Q 22.3125 -1.421875 17.546875 -0.640625 
Q 12.796875 0.140625 7.71875 1.703125 
L 7.71875 11.625 
Q 12.109375 9.234375 16.796875 8.0625 
Q 21.484375 6.890625 26.703125 6.890625 
Q 35.15625 6.890625 40.078125 11.328125 
Q 45.015625 15.765625 45.015625 23.390625 
Q 45.015625 31 40.078125 35.4375 
Q 35.15625 39.890625 26.703125 39.890625 
Q 22.75 39.890625 18.8125 39.015625 
Q 14.890625 38.140625 10.796875 36.28125 
z
" id="DejaVuSans-35"/>
      </defs>
      <g transform="translate(101.689545 322.182437)scale(0.1 -0.1)">
       <use xlink:href="#DejaVuSans-35"/>
       <use x="63.623047" xlink:href="#DejaVuSans-30"/>
       <use x="127.246094" xlink:href="#DejaVuSans-30"/>
       <use x="190.869141" xlink:href="#DejaVuSans-30"/>
      </g>
     </g>
    </g>
    <g id="xtick_3">
     <g id="line2d_3">
      <g>
       <use style="stroke:#000000;stroke-width:0.8;" x="154.996364" xlink:href="#m909bcf5922" y="307.584"/>
      </g>
     </g>
     <g id="text_3">
      <!-- 10000 -->
      <defs>
       <path d="M 12.40625 8.296875 
L 28.515625 8.296875 
L 28.515625 63.921875 
L 10.984375 60.40625 
L 10.984375 69.390625 
L 28.421875 72.90625 
L 38.28125 72.90625 
L 38.28125 8.296875 
L 54.390625 8.296875 
L 54.390625 0 
L 12.40625 0 
z
" id="DejaVuSans-31"/>
      </defs>
      <g transform="translate(139.090114 322.182437)scale(0.1 -0.1)">
       <use xlink:href="#DejaVuSans-31"/>
       <use x="63.623047" xlink:href="#DejaVuSans-30"/>
       <use x="127.246094" xlink:href="#DejaVuSans-30"/>
       <use x="190.869141" xlink:href="#DejaVuSans-30"/>
       <use x="254.492188" xlink:href="#DejaVuSans-30"/>
      </g>
     </g>
    </g>
    <g id="xtick_4">
     <g id="line2d_4">
      <g>
       <use style="stroke:#000000;stroke-width:0.8;" x="195.578182" xlink:href="#m909bcf5922" y="307.584"/>
      </g>
     </g>
     <g id="text_4">
      <!-- 15000 -->
      <g transform="translate(179.671932 322.182437)scale(0.1 -0.1)">
       <use xlink:href="#DejaVuSans-31"/>
       <use x="63.623047" xlink:href="#DejaVuSans-35"/>
       <use x="127.246094" xlink:href="#DejaVuSans-30"/>
       <use x="190.869141" xlink:href="#DejaVuSans-30"/>
       <use x="254.492188" xlink:href="#DejaVuSans-30"/>
      </g>
     </g>
    </g>
    <g id="xtick_5">
     <g id="line2d_5">
      <g>
       <use style="stroke:#000000;stroke-width:0.8;" x="236.16" xlink:href="#m909bcf5922" y="307.584"/>
      </g>
     </g>
     <g id="text_5">
      <!-- 20000 -->
      <defs>
       <path d="M 19.1875 8.296875 
L 53.609375 8.296875 
L 53.609375 0 
L 7.328125 0 
L 7.328125 8.296875 
Q 12.9375 14.109375 22.625 23.890625 
Q 32.328125 33.6875 34.8125 36.53125 
Q 39.546875 41.84375 41.421875 45.53125 
Q 43.3125 49.21875 43.3125 52.78125 
Q 43.3125 58.59375 39.234375 62.25 
Q 35.15625 65.921875 28.609375 65.921875 
Q 23.96875 65.921875 18.8125 64.3125 
Q 13.671875 62.703125 7.8125 59.421875 
L 7.8125 69.390625 
Q 13.765625 71.78125 18.9375 73 
Q 24.125 74.21875 28.421875 74.21875 
Q 39.75 74.21875 46.484375 68.546875 
Q 53.21875 62.890625 53.21875 53.421875 
Q 53.21875 48.921875 51.53125 44.890625 
Q 49.859375 40.875 45.40625 35.40625 
Q 44.1875 33.984375 37.640625 27.21875 
Q 31.109375 20.453125 19.1875 8.296875 
z
" id="DejaVuSans-32"/>
      </defs>
      <g transform="translate(220.25375 322.182437)scale(0.1 -0.1)">
       <use xlink:href="#DejaVuSans-32"/>
       <use x="63.623047" xlink:href="#DejaVuSans-30"/>
       <use x="127.246094" xlink:href="#DejaVuSans-30"/>
       <use x="190.869141" xlink:href="#DejaVuSans-30"/>
       <use x="254.492188" xlink:href="#DejaVuSans-30"/>
      </g>
     </g>
    </g>
    <g id="xtick_6">
     <g id="line2d_6">
      <g>
       <use style="stroke:#000000;stroke-width:0.8;" x="276.741818" xlink:href="#m909bcf5922" y="307.584"/>
      </g>
     </g>
     <g id="text_6">
      <!-- 25000 -->
      <g transform="translate(260.835568 322.182437)scale(0.1 -0.1)">
       <use xlink:href="#DejaVuSans-32"/>
       <use x="63.623047" xlink:href="#DejaVuSans-35"/>
       <use x="127.246094" xlink:href="#DejaVuSans-30"/>
       <use x="190.869141" xlink:href="#DejaVuSans-30"/>
       <use x="254.492188" xlink:href="#DejaVuSans-30"/>
      </g>
     </g>
    </g>
    <g id="xtick_7">
     <g id="line2d_7">
      <g>
       <use style="stroke:#000000;stroke-width:0.8;" x="317.323636" xlink:href="#m909bcf5922" y="307.584"/>
      </g>
     </g>
     <g id="text_7">
      <!-- 30000 -->
      <defs>
       <path d="M 40.578125 39.3125 
Q 47.65625 37.796875 51.625 33 
Q 55.609375 28.21875 55.609375 21.1875 
Q 55.609375 10.40625 48.1875 4.484375 
Q 40.765625 -1.421875 27.09375 -1.421875 
Q 22.515625 -1.421875 17.65625 -0.515625 
Q 12.796875 0.390625 7.625 2.203125 
L 7.625 11.71875 
Q 11.71875 9.328125 16.59375 8.109375 
Q 21.484375 6.890625 26.8125 6.890625 
Q 36.078125 6.890625 40.9375 10.546875 
Q 45.796875 14.203125 45.796875 21.1875 
Q 45.796875 27.640625 41.28125 31.265625 
Q 36.765625 34.90625 28.71875 34.90625 
L 20.21875 34.90625 
L 20.21875 43.015625 
L 29.109375 43.015625 
Q 36.375 43.015625 40.234375 45.921875 
Q 44.09375 48.828125 44.09375 54.296875 
Q 44.09375 59.90625 40.109375 62.90625 
Q 36.140625 65.921875 28.71875 65.921875 
Q 24.65625 65.921875 20.015625 65.03125 
Q 15.375 64.15625 9.8125 62.3125 
L 9.8125 71.09375 
Q 15.4375 72.65625 20.34375 73.4375 
Q 25.25 74.21875 29.59375 74.21875 
Q 40.828125 74.21875 47.359375 69.109375 
Q 53.90625 64.015625 53.90625 55.328125 
Q 53.90625 49.265625 50.4375 45.09375 
Q 46.96875 40.921875 40.578125 39.3125 
z
" id="DejaVuSans-33"/>
      </defs>
      <g transform="translate(301.417386 322.182437)scale(0.1 -0.1)">
       <use xlink:href="#DejaVuSans-33"/>
       <use x="63.623047" xlink:href="#DejaVuSans-30"/>
       <use x="127.246094" xlink:href="#DejaVuSans-30"/>
       <use x="190.869141" xlink:href="#DejaVuSans-30"/>
       <use x="254.492188" xlink:href="#DejaVuSans-30"/>
      </g>
     </g>
    </g>
    <g id="xtick_8">
     <g id="line2d_8">
      <g>
       <use style="stroke:#000000;stroke-width:0.8;" x="357.905455" xlink:href="#m909bcf5922" y="307.584"/>
      </g>
     </g>
     <g id="text_8">
      <!-- 35000 -->
      <g transform="translate(341.999205 322.182437)scale(0.1 -0.1)">
       <use xlink:href="#DejaVuSans-33"/>
       <use x="63.623047" xlink:href="#DejaVuSans-35"/>
       <use x="127.246094" xlink:href="#DejaVuSans-30"/>
       <use x="190.869141" xlink:href="#DejaVuSans-30"/>
       <use x="254.492188" xlink:href="#DejaVuSans-30"/>
      </g>
     </g>
    </g>
    <g id="xtick_9">
     <g id="line2d_9">
      <g>
       <use style="stroke:#000000;stroke-width:0.8;" x="398.487273" xlink:href="#m909bcf5922" y="307.584"/>
      </g>
     </g>
     <g id="text_9">
      <!-- 40000 -->
      <defs>
       <path d="M 37.796875 64.3125 
L 12.890625 25.390625 
L 37.796875 25.390625 
z
M 35.203125 72.90625 
L 47.609375 72.90625 
L 47.609375 25.390625 
L 58.015625 25.390625 
L 58.015625 17.1875 
L 47.609375 17.1875 
L 47.609375 0 
L 37.796875 0 
L 37.796875 17.1875 
L 4.890625 17.1875 
L 4.890625 26.703125 
z
" id="DejaVuSans-34"/>
      </defs>
      <g transform="translate(382.581023 322.182437)scale(0.1 -0.1)">
       <use xlink:href="#DejaVuSans-34"/>
       <use x="63.623047" xlink:href="#DejaVuSans-30"/>
       <use x="127.246094" xlink:href="#DejaVuSans-30"/>
       <use x="190.869141" xlink:href="#DejaVuSans-30"/>
       <use x="254.492188" xlink:href="#DejaVuSans-30"/>
      </g>
     </g>
    </g>
   </g>
   <g id="matplotlib.axis_2">
    <g id="ytick_1">
     <g id="line2d_10">
      <defs>
       <path d="M 0 0 
L -3.5 0 
" id="mbef80b75e7" style="stroke:#000000;stroke-width:0.8;"/>
      </defs>
      <g>
       <use style="stroke:#000000;stroke-width:0.8;" x="57.6" xlink:href="#mbef80b75e7" y="295.488"/>
      </g>
     </g>
     <g id="text_10">
      <!-- 0.00000 -->
      <defs>
       <path d="M 10.6875 12.40625 
L 21 12.40625 
L 21 0 
L 10.6875 0 
z
" id="DejaVuSans-2e"/>
      </defs>
      <g transform="translate(9.246875 299.287219)scale(0.1 -0.1)">
       <use xlink:href="#DejaVuSans-30"/>
       <use x="63.623047" xlink:href="#DejaVuSans-2e"/>
       <use x="95.410156" xlink:href="#DejaVuSans-30"/>
       <use x="159.033203" xlink:href="#DejaVuSans-30"/>
       <use x="222.65625" xlink:href="#DejaVuSans-30"/>
       <use x="286.279297" xlink:href="#DejaVuSans-30"/>
       <use x="349.902344" xlink:href="#DejaVuSans-30"/>
      </g>
     </g>
    </g>
    <g id="ytick_2">
     <g id="line2d_11">
      <g>
       <use style="stroke:#000000;stroke-width:0.8;" x="57.6" xlink:href="#mbef80b75e7" y="241.728"/>
      </g>
     </g>
     <g id="text_11">
      <!-- 0.00001 -->
      <g transform="translate(9.246875 245.527219)scale(0.1 -0.1)">
       <use xlink:href="#DejaVuSans-30"/>
       <use x="63.623047" xlink:href="#DejaVuSans-2e"/>
       <use x="95.410156" xlink:href="#DejaVuSans-30"/>
       <use x="159.033203" xlink:href="#DejaVuSans-30"/>
       <use x="222.65625" xlink:href="#DejaVuSans-30"/>
       <use x="286.279297" xlink:href="#DejaVuSans-30"/>
       <use x="349.902344" xlink:href="#DejaVuSans-31"/>
      </g>
     </g>
    </g>
    <g id="ytick_3">
     <g id="line2d_12">
      <g>
       <use style="stroke:#000000;stroke-width:0.8;" x="57.6" xlink:href="#mbef80b75e7" y="187.968"/>
      </g>
     </g>
     <g id="text_12">
      <!-- 0.00002 -->
      <g transform="translate(9.246875 191.767219)scale(0.1 -0.1)">
       <use xlink:href="#DejaVuSans-30"/>
       <use x="63.623047" xlink:href="#DejaVuSans-2e"/>
       <use x="95.410156" xlink:href="#DejaVuSans-30"/>
       <use x="159.033203" xlink:href="#DejaVuSans-30"/>
       <use x="222.65625" xlink:href="#DejaVuSans-30"/>
       <use x="286.279297" xlink:href="#DejaVuSans-30"/>
       <use x="349.902344" xlink:href="#DejaVuSans-32"/>
      </g>
     </g>
    </g>
    <g id="ytick_4">
     <g id="line2d_13">
      <g>
       <use style="stroke:#000000;stroke-width:0.8;" x="57.6" xlink:href="#mbef80b75e7" y="134.208"/>
      </g>
     </g>
     <g id="text_13">
      <!-- 0.00003 -->
      <g transform="translate(9.246875 138.007219)scale(0.1 -0.1)">
       <use xlink:href="#DejaVuSans-30"/>
       <use x="63.623047" xlink:href="#DejaVuSans-2e"/>
       <use x="95.410156" xlink:href="#DejaVuSans-30"/>
       <use x="159.033203" xlink:href="#DejaVuSans-30"/>
       <use x="222.65625" xlink:href="#DejaVuSans-30"/>
       <use x="286.279297" xlink:href="#DejaVuSans-30"/>
       <use x="349.902344" xlink:href="#DejaVuSans-33"/>
      </g>
     </g>
    </g>
    <g id="ytick_5">
     <g id="line2d_14">
      <g>
       <use style="stroke:#000000;stroke-width:0.8;" x="57.6" xlink:href="#mbef80b75e7" y="80.448"/>
      </g>
     </g>
     <g id="text_14">
      <!-- 0.00004 -->
      <g transform="translate(9.246875 84.247219)scale(0.1 -0.1)">
       <use xlink:href="#DejaVuSans-30"/>
       <use x="63.623047" xlink:href="#DejaVuSans-2e"/>
       <use x="95.410156" xlink:href="#DejaVuSans-30"/>
       <use x="159.033203" xlink:href="#DejaVuSans-30"/>
       <use x="222.65625" xlink:href="#DejaVuSans-30"/>
       <use x="286.279297" xlink:href="#DejaVuSans-30"/>
       <use x="349.902344" xlink:href="#DejaVuSans-34"/>
      </g>
     </g>
    </g>
   </g>
   <g id="line2d_15">
    <path clip-path="url(#pe64b7e8b53)" d="M 73.832727 53.568 
L 73.943921 295.488 
L 74.219269 295.378503 
L 74.76895 275.677163 
L 75.281701 264.534601 
L 75.387011 260.993209 
L 75.905444 237.416807 
L 76.472169 214.112373 
L 76.950831 194.348039 
L 77.215425 183.045943 
L 77.681913 161.327982 
L 78.318641 136.291989 
L 78.728518 123.639205 
L 79.222196 111.262275 
L 79.614216 99.854136 
L 79.91858 96.25485 
L 80.078066 95.838297 
L 80.103836 95.854033 
L 80.204073 96.11835 
L 80.386894 97.364174 
L 80.543337 99.120633 
L 80.576614 98.090054 
L 80.93069 90.801683 
L 81.184124 89.102465 
L 81.250475 89.062817 
L 81.29755 89.126915 
L 81.426194 89.667317 
L 81.6498 91.74434 
L 82.002456 97.408559 
L 82.550716 110.277725 
L 83.284639 131.671806 
L 83.408007 130.203207 
L 83.661238 128.840975 
L 83.735908 128.815726 
L 83.777505 128.868853 
L 83.912236 129.348888 
L 84.142944 131.14565 
L 84.504934 135.968544 
L 85.069224 146.859711 
L 86.135308 172.603146 
L 87.157361 197.743854 
L 87.205248 196.753572 
L 87.588543 191.345607 
L 87.881544 189.7409 
L 88.030276 189.602333 
L 88.054625 189.617843 
L 88.187328 189.87597 
L 88.408296 190.891428 
L 88.755271 193.689779 
L 89.293385 200.081814 
L 90.262479 214.723974 
L 90.782332 223.021955 
L 90.822305 221.885036 
L 91.262212 212.767968 
L 91.630898 209.060564 
L 91.904825 208.078507 
L 92.042398 208.049361 
L 92.058428 208.063916 
L 92.212841 208.380289 
L 92.462825 209.493566 
L 92.850382 212.381611 
L 93.458906 218.816682 
L 94.747176 235.422752 
L 95.111601 240.144522 
L 95.142849 239.15446 
L 95.610554 228.053919 
L 96.016169 223.024281 
L 96.339404 221.30212 
L 96.554487 221.037619 
L 96.69206 221.176248 
L 96.901665 221.782202 
L 97.229566 223.516613 
L 97.735215 227.55108 
L 98.604884 236.57013 
L 99.306543 244.435148 
L 99.335965 243.454555 
L 99.81199 231.487621 
L 100.228562 225.911881 
L 100.566203 223.88593 
L 100.800157 223.499965 
L 100.937932 223.595008 
L 101.133537 224.080612 
L 101.440944 225.535573 
L 101.913519 228.995215 
L 102.698372 236.632065 
L 103.15512 241.544386 
L 103.18373 240.582591 
L 103.656914 228.601297 
L 104.069834 223.068084 
L 104.402605 221.095462 
L 104.630066 220.742872 
L 104.765204 220.851075 
L 104.963243 221.375745 
L 105.274505 222.931183 
L 105.753574 226.613379 
L 106.55405 234.753121 
L 107.431429 244.599919 
L 107.463286 243.540344 
L 107.939108 231.618926 
L 108.355477 226.06513 
L 108.693118 224.047191 
L 108.926869 223.664009 
L 109.064847 223.759762 
L 109.260857 224.246826 
L 109.568873 225.704541 
L 110.042463 229.169113 
L 110.829548 236.817419 
L 111.894212 248.277839 
L 111.926068 247.200859 
L 112.407166 234.904278 
L 112.830434 229.077874 
L 113.177206 226.885005 
L 113.423132 226.418711 
L 113.56598 226.488807 
L 113.755497 226.911364 
L 114.053164 228.20867 
L 114.510521 231.333698 
L 115.259662 238.213852 
L 116.066631 246.552143 
L 116.097473 245.502162 
L 116.576948 233.167463 
L 116.998187 227.350692 
L 117.342118 225.184207 
L 117.584391 224.73738 
L 117.724601 224.814453 
L 117.91493 225.25512 
L 118.214221 226.601682 
L 118.674216 229.83766 
L 119.429444 236.96397 
L 120.272734 245.897204 
L 120.304591 244.820746 
L 120.782847 232.626482 
L 121.202463 226.899765 
L 121.544365 224.784527 
L 121.783595 224.360608 
L 121.922791 224.443992 
L 122.114945 224.899724 
L 122.417077 226.282597 
L 122.881536 229.593873 
L 123.646909 236.889335 
L 125.297169 254.263497 
L 125.328417 253.186063 
L 125.817833 240.352539 
L 126.252059 234.11418 
L 126.613237 231.643505 
L 126.878439 231.0337 
L 127.034679 231.06249 
L 127.216283 231.402243 
L 127.500356 232.48696 
L 127.936204 235.151164 
L 128.63827 241.015461 
L 129.559883 249.864913 
L 129.59174 248.758854 
L 130.076084 236.015454 
L 130.503816 229.911396 
L 130.856472 227.565055 
L 131.110108 227.033648 
L 131.256406 227.087212 
L 131.441053 227.474866 
L 131.731213 228.688409 
L 132.177004 231.641865 
L 132.900578 238.140914 
L 133.360573 242.795128 
L 133.388169 241.851244 
L 133.863991 229.564889 
L 134.280157 223.845546 
L 134.617392 221.769337 
L 134.850737 221.375263 
L 134.986484 221.470675 
L 135.180262 221.960852 
L 135.485437 223.436384 
L 135.954766 226.954425 
L 136.731908 234.714041 
L 138.517102 254.191691 
L 138.546321 253.188998 
L 139.035535 240.409756 
L 139.469557 234.200577 
L 139.830532 231.74409 
L 140.095329 231.140222 
L 140.251366 231.170393 
L 140.433578 231.512531 
L 140.718463 232.60236 
L 141.155529 235.27605 
L 141.860232 241.161618 
L 143.051308 252.597428 
L 143.0856 251.40322 
L 143.573191 238.523894 
L 144.005184 232.293342 
L 144.363521 229.850329 
L 144.624665 229.264842 
L 144.77705 229.302489 
L 144.959263 229.658941 
L 145.244959 230.7901 
L 145.683648 233.561625 
L 146.391801 239.661108 
L 147.093866 246.565156 
L 147.123694 245.537345 
L 147.60398 233.018064 
L 148.026233 227.100342 
L 148.371585 224.884814 
L 148.615481 224.42097 
L 148.755895 224.494111 
L 148.9446 224.926543 
L 149.241456 226.25517 
L 149.697799 229.45839 
L 150.444707 236.509209 
L 150.893136 241.240065 
L 150.921543 240.280436 
L 151.394727 228.239895 
L 151.807647 222.680115 
L 152.140418 220.69875 
L 152.367676 220.345248 
L 152.502408 220.45354 
L 152.700041 220.978883 
L 152.713636 221.02952 
L 152.72297 220.646747 
L 153.189864 206.136118 
L 153.594059 199.586603 
L 153.915264 197.358938 
L 154.125681 197.023105 
L 154.2456 197.16543 
L 154.437552 197.829373 
L 154.743539 199.817187 
L 154.771743 200.049325 
L 154.792237 199.307829 
L 155.230927 187.609951 
L 155.597989 182.876865 
L 155.869076 181.64014 
L 155.981893 181.589287 
L 156.013953 181.619226 
L 156.155786 181.969427 
L 156.392378 183.257916 
L 156.433772 183.563317 
L 156.452033 182.88906 
L 156.87936 171.356161 
L 157.231204 166.924684 
L 157.481797 165.91872 
L 157.573512 165.922272 
L 157.600702 165.957907 
L 157.746391 166.399209 
L 157.990084 167.976162 
L 158.031275 168.334008 
L 158.052783 167.570733 
L 158.465095 157.047051 
L 158.796648 153.302771 
L 159.020051 152.632037 
L 159.117447 152.731366 
L 159.274093 153.328347 
L 159.53402 155.347327 
L 159.563036 155.642398 
L 159.588399 154.780819 
L 159.987319 145.192976 
L 160.301016 142.033185 
L 160.486475 141.603306 
L 160.499867 141.608278 
L 160.600916 141.789804 
L 160.778867 142.679618 
L 161.068215 145.446193 
L 161.362636 149.592112 
L 161.411335 148.233967 
L 161.784079 141.242092 
L 162.06247 139.32501 
L 162.172447 139.205093 
L 162.213028 139.24196 
L 162.339238 139.615557 
L 162.557365 141.090738 
L 162.901702 145.169314 
L 163.11293 148.501837 
L 163.158585 147.272584 
L 163.527068 140.618078 
L 163.800183 138.850811 
L 163.901029 138.758286 
L 163.943234 138.799589 
L 164.072284 139.197641 
L 164.29447 140.74237 
L 164.644488 144.972851 
L 165.154804 153.936974 
L 165.236171 152.040515 
L 165.589233 146.823536 
L 165.841449 145.62135 
L 165.921598 145.60643 
L 165.958527 145.653398 
L 166.097317 146.112873 
L 166.332692 147.802336 
L 166.701175 152.295638 
L 166.962724 156.521781 
L 167.011625 155.229304 
L 167.383761 148.619557 
L 167.661543 146.814106 
L 167.771723 146.704426 
L 167.811696 146.740404 
L 167.939935 147.108013 
L 168.160294 148.545127 
L 168.507674 152.498385 
L 168.909028 158.959045 
L 168.970713 157.379158 
L 169.340007 151.117899 
L 169.613935 149.446878 
L 169.718636 149.357442 
L 169.759217 149.395632 
L 169.889891 149.774859 
L 170.1137 151.237592 
L 170.465747 155.228666 
L 170.910118 162.401449 
L 170.97586 160.729781 
L 171.346575 154.498302 
L 171.622532 152.814652 
L 171.731088 152.718852 
L 171.770655 152.754785 
L 171.901126 153.121615 
L 172.124326 154.540602 
L 172.475561 158.419825 
L 172.999473 166.847729 
L 173.074143 164.970266 
L 173.446279 158.819828 
L 173.724061 157.139912 
L 173.836676 157.038897 
L 173.875025 157.072446 
L 174.005496 157.425782 
L 174.22829 158.795026 
L 174.578917 162.542691 
L 175.122511 171.056453 
L 175.197384 169.140413 
L 175.574795 162.744692 
L 175.859679 160.925098 
L 175.985077 160.791327 
L 176.02018 160.818591 
L 176.147607 161.137278 
L 176.365532 162.400083 
L 176.70926 165.89815 
L 177.242302 173.905632 
L 177.398339 176.65579 
L 177.444196 175.463683 
L 177.830941 168.56168 
L 178.128406 166.461514 
L 178.27937 166.254121 
L 178.305951 166.270201 
L 178.426682 166.525816 
L 178.633447 167.593337 
L 178.961551 170.637053 
L 179.469026 177.701764 
L 179.61086 180.036388 
L 179.653471 178.875966 
L 180.047926 171.41337 
L 180.355739 169.022484 
L 180.530241 168.731871 
L 180.547285 168.739559 
L 180.66132 168.942835 
L 180.856316 169.84948 
L 181.167984 172.523723 
L 181.649284 178.837614 
L 182.052668 185.468736 
L 182.105221 184.077528 
L 182.500691 176.852676 
L 182.809924 174.524239 
L 182.988281 174.235621 
L 183.0035 174.242159 
L 183.118752 174.437788 
L 183.314356 175.309428 
L 183.626633 177.87717 
L 184.108745 183.934953 
L 184.523289 190.469906 
L 184.574016 189.089068 
L 184.976791 181.447559 
L 185.295764 178.872209 
L 185.499281 178.494236 
L 185.502528 178.495134 
L 185.613519 178.645774 
L 185.797761 179.369419 
L 186.094211 181.580982 
L 186.551771 186.899038 
L 186.974836 193.186046 
L 187.024143 191.801811 
L 187.432396 183.756461 
L 187.758674 180.958014 
L 187.975381 180.496329 
L 188.084546 180.618088 
L 188.260265 181.247933 
L 188.544744 183.232027 
L 188.984042 188.080098 
L 189.481575 195.297532 
L 189.535143 193.788279 
L 189.945223 185.686178 
L 190.273935 182.838384 
L 190.494092 182.350482 
L 190.603663 182.463166 
L 190.77715 183.061891 
L 191.058585 184.966055 
L 191.493216 189.640314 
L 192.106407 198.515895 
L 192.168497 196.782942 
L 192.579997 188.766607 
L 192.910536 185.928973 
L 193.133127 185.430585 
L 193.244119 185.537412 
L 193.4172 186.114074 
L 193.69762 187.951367 
L 194.130831 192.469587 
L 194.829041 202.412866 
L 194.925017 203.930346 
L 194.964991 202.798934 
L 195.384809 194.300111 
L 195.726711 191.152907 
L 195.964521 190.513667 
L 196.081599 190.586654 
L 196.245956 191.063064 
L 196.513593 192.638632 
L 196.92773 196.592751 
L 197.587185 205.321459 
L 198.091617 213.031245 
L 198.13646 211.754581 
L 198.565409 202.971643 
L 198.919486 199.571098 
L 199.173934 198.782293 
L 199.301969 198.815743 
L 199.305419 198.820227 
L 199.464703 199.216165 
L 199.72402 200.562739 
L 200.125577 203.992207 
L 200.76048 211.589923 
L 201.186589 217.50817 
L 201.226156 216.32285 
L 201.66444 206.767662 
L 202.030894 202.911077 
L 202.301575 201.909227 
L 202.430219 201.882511 
L 202.449901 201.901191 
L 202.60188 202.232644 
L 202.849835 203.405684 
L 203.234753 206.458094 
L 203.838611 213.266286 
L 204.869795 227.402117 
L 204.928436 225.654266 
L 205.375241 216.002132 
L 205.753261 211.959713 
L 206.039566 210.807427 
L 206.191545 210.735638 
L 206.207575 210.747345 
L 206.356713 211.017788 
L 206.597566 212.00407 
L 206.97173 214.611261 
L 207.556108 220.461717 
L 208.483606 231.858751 
L 208.534739 230.259425 
L 208.990676 219.795879 
L 209.380667 215.255395 
L 209.683001 213.844826 
L 209.862576 213.702217 
L 209.870895 213.706599 
L 210.012729 213.918 
L 210.239581 214.739226 
L 210.593252 216.979864 
L 211.141918 222.074895 
L 212.146521 233.871758 
L 213.218895 246.873595 
L 213.244056 246.044623 
L 213.722516 234.105751 
L 214.142335 228.496818 
L 214.484439 226.423073 
L 214.724278 226.005702 
L 214.865097 226.088757 
L 215.058875 226.541544 
L 215.362833 227.909494 
L 215.829929 231.177468 
L 216.601593 238.382718 
L 218.023783 253.099332 
L 218.055233 252.015535 
L 218.54323 239.240654 
L 218.975426 233.059871 
L 219.334169 230.631748 
L 219.595922 230.047089 
L 219.749321 230.083546 
L 219.932143 230.43734 
L 220.218447 231.559332 
L 220.657745 234.305336 
L 221.367319 240.349643 
L 222.25951 249.052818 
L 222.291164 247.958487 
L 222.774493 235.305768 
L 223.200602 229.270937 
L 223.551229 226.96773 
L 223.802025 226.457567 
L 223.946699 226.516938 
L 224.132767 226.917265 
L 224.425159 228.162771 
L 224.874399 231.18436 
L 225.605481 237.833221 
L 227.473462 256.81914 
L 227.506536 255.664288 
L 227.999605 242.552463 
L 228.438497 236.111431 
L 228.806169 233.504633 
L 229.07969 232.824465 
L 229.243438 232.832988 
L 229.421998 233.141958 
L 229.700389 234.146562 
L 230.127513 236.637644 
L 230.811316 242.127002 
L 232.725561 259.801753 
L 232.763302 258.457032 
L 233.260632 244.955528 
L 233.705206 238.238949 
L 234.080182 235.455949 
L 234.363646 234.682598 
L 234.537133 234.663501 
L 234.711838 234.937466 
L 234.982924 235.851324 
L 235.398685 238.145589 
L 236.05956 243.213219 
L 237.416413 255.476693 
L 237.454357 254.136523 
L 237.946006 240.956752 
L 238.383072 234.508965 
L 238.748105 231.921677 
L 239.018177 231.260544 
L 239.178273 231.276434 
L 239.356833 231.597084 
L 239.636036 232.635629 
L 240.06458 235.206257 
L 240.751427 240.869225 
L 242.666889 258.993243 
L 242.705036 257.642185 
L 243.200945 244.27282 
L 243.643896 237.643413 
L 244.01664 234.916434 
L 244.29706 234.172303 
L 244.467504 234.161741 
L 244.643426 234.445833 
L 244.916745 235.385874 
L 245.335955 237.736811 
L 246.003526 242.92381 
L 248.228424 262.833335 
L 248.266571 261.455089 
L 248.768162 247.610568 
L 249.218417 240.637179 
L 249.601104 237.679046 
L 249.894511 236.809295 
L 250.078752 236.75856 
L 250.25021 236.99895 
L 250.513992 237.823267 
L 250.918593 239.921506 
L 251.557351 244.57022 
L 253.118736 258.152285 
L 253.477073 261.177683 
L 253.497161 260.446888 
L 253.998144 246.404266 
L 254.447588 239.342347 
L 254.82926 236.355028 
L 255.121246 235.482966 
L 255.303458 235.435099 
L 255.473902 235.679893 
L 255.737075 236.519828 
L 256.140864 238.658395 
L 256.778404 243.398548 
L 258.242596 256.42735 
L 258.28399 254.96172 
L 258.776653 241.735896 
L 259.21514 235.244704 
L 259.581999 232.624872 
L 259.854506 231.944814 
L 260.016833 231.954807 
L 260.194785 232.26671 
L 260.472567 233.281475 
L 260.898879 235.799201 
L 261.58106 241.347037 
L 263.600614 260.194535 
L 263.638558 258.842748 
L 264.136294 245.328703 
L 264.581476 238.595739 
L 264.957264 235.798666 
L 265.241743 235.016328 
L 265.416447 234.993884 
L 265.590949 235.263991 
L 265.861427 236.167426 
L 266.276173 238.438098 
L 266.934816 243.4533 
L 268.934688 261.241804 
L 268.975676 259.770303 
L 269.474832 246.120872 
L 269.921841 239.293151 
L 270.300266 236.433503 
L 270.587991 235.618788 
L 270.766145 235.586212 
L 270.93943 235.845261 
L 271.20727 236.719061 
L 271.618161 238.926186 
L 272.269296 243.807249 
L 274.157568 260.486061 
L 274.352361 262.110219 
L 274.372855 261.363872 
L 274.875055 247.265534 
L 275.326121 240.152645 
L 275.70962 237.127586 
L 276.004244 236.230726 
L 276.1895 236.173651 
L 276.359335 236.409331 
L 276.620681 237.224198 
L 277.02163 239.306538 
L 277.653692 243.926886 
L 279.131479 256.905994 
L 279.726814 261.968639 
L 279.745076 261.302537 
L 280.247276 247.166113 
L 280.698343 240.033082 
L 281.082044 236.9976 
L 281.376668 236.097915 
L 281.561924 236.040292 
L 281.731556 236.275737 
L 281.9927 237.090799 
L 282.393445 239.175195 
L 283.024898 243.799311 
L 284.496395 256.75151 
L 284.67252 258.286404 
L 284.694028 257.5125 
L 285.190953 243.780485 
L 285.635121 236.953969 
L 286.009488 234.130891 
L 286.291937 233.350059 
L 286.463801 233.331682 
L 286.637289 233.608266 
L 286.906955 234.532753 
L 287.320889 236.858351 
L 287.978315 241.997382 
L 290.138485 261.641681 
L 290.180081 260.150551 
L 290.679644 246.511058 
L 291.127261 239.679958 
L 291.506295 236.814206 
L 291.795035 235.993167 
L 291.974204 235.958087 
L 292.147488 236.21421 
L 292.415125 237.080053 
L 292.825407 239.267276 
L 293.475325 244.104664 
L 295.292782 260.08264 
L 296.045372 266.138382 
L 296.059169 265.625418 
L 296.567457 250.956922 
L 297.02664 243.4277 
L 297.421095 240.122086 
L 297.730126 239.067533 
L 297.93202 238.954632 
L 298.097797 239.145209 
L 298.348187 239.840112 
L 298.732294 241.657984 
L 299.332499 245.720716 
L 300.563143 255.945111 
L 301.605689 264.461788 
L 301.618879 263.972765 
L 302.125137 249.416304 
L 302.581479 241.990065 
L 302.972079 238.764398 
L 303.27624 237.759396 
L 303.472047 237.666253 
L 303.638636 237.871946 
L 303.892272 238.608076 
L 304.281452 240.519086 
L 304.891193 244.779351 
L 306.181289 255.775211 
L 307.304797 265.04045 
L 307.315551 264.641084 
L 307.822621 250.012654 
L 308.280181 242.528493 
L 308.672607 239.261249 
L 308.978797 238.23344 
L 309.177242 238.131608 
L 309.343222 238.330521 
L 309.595235 239.0485 
L 309.98198 240.91949 
L 310.587055 245.094801 
L 311.847323 255.73511 
L 313.087909 265.856029 
L 313.096431 265.537926 
L 313.604921 250.766763 
L 314.064308 243.183278 
L 314.458966 239.852275 
L 314.768199 238.78821 
L 314.970297 238.673145 
L 315.135465 238.862647 
L 315.385043 239.55581 
L 315.767932 241.371525 
L 316.366108 245.432653 
L 317.584983 255.602521 
L 318.92256 266.414946 
L 318.929662 266.148858 
L 319.439167 251.275235 
L 319.89977 243.62235 
L 320.296052 240.246008 
L 320.607314 239.156922 
L 320.811847 239.032488 
L 320.976406 239.215416 
L 321.224158 239.891127 
L 321.604207 241.668067 
L 322.197107 245.647524 
L 323.387777 255.500483 
L 324.675033 265.91547 
L 324.683961 265.581794 
L 325.192654 250.788752 
L 325.65204 243.195888 
L 326.046901 239.857805 
L 326.356337 238.790571 
L 326.558638 238.674476 
L 326.723806 238.863479 
L 326.973181 239.555261 
L 327.355665 241.367475 
L 327.953232 245.422003 
L 329.168657 255.56068 
L 329.758108 260.515406 
L 329.777385 259.812531 
L 330.277759 245.755151 
L 330.726391 238.699257 
L 331.106845 235.725843 
L 331.397208 234.865129 
L 331.577594 234.821891 
L 331.748241 235.071981 
L 332.012225 235.927301 
L 332.417232 238.101146 
L 333.057207 242.917683 
L 334.63726 257.115185 
L 335.734999 266.216945 
L 335.742709 265.929725 
L 336.251605 251.167558 
L 336.7116 243.579109 
L 337.106867 240.240292 
L 337.417115 239.167972 
L 337.62043 239.04893 
L 337.785598 239.235237 
L 338.034567 239.91916 
L 338.416442 241.713038 
L 339.012792 245.727674 
L 340.221521 255.739577 
L 341.542663 266.375496 
L 341.550373 266.086592 
L 342.059675 251.222595 
L 342.520076 243.574996 
L 342.916154 240.201422 
L 343.227417 239.11327 
L 343.431746 238.989606 
L 343.596508 239.173405 
L 343.844463 239.851181 
L 344.224918 241.633126 
L 344.81863 245.623817 
L 346.012953 255.517148 
L 347.266728 265.683276 
L 347.276265 265.327315 
L 347.784552 250.57257 
L 348.243532 243.00525 
L 348.637582 239.686246 
L 348.946207 238.628655 
L 349.147492 238.516187 
L 349.312863 238.707724 
L 349.562847 239.406092 
L 349.946345 241.233228 
L 350.545739 245.31882 
L 351.771513 255.578924 
L 352.989576 265.513451 
L 352.999316 265.150446 
L 353.507197 250.431774 
L 353.965772 242.886312 
L 354.359415 239.58023 
L 354.667431 238.530085 
L 354.868108 238.420329 
L 355.033682 238.613933 
L 355.284275 239.317813 
L 355.668788 241.157538 
L 356.269804 245.267889 
L 357.505521 255.634631 
L 358.150366 261.054853 
L 358.169033 260.373265 
L 358.670219 246.264037 
L 359.119865 239.168062 
L 359.501537 236.166714 
L 359.793727 235.289004 
L 359.975939 235.24004 
L 360.145977 235.483982 
L 360.408541 236.322359 
L 360.811519 238.459393 
L 361.447436 243.196811 
L 362.971689 256.798528 
L 364.145112 266.49311 
L 364.151402 266.258228 
L 364.660907 251.42863 
L 365.121511 243.797696 
L 365.517792 240.430397 
L 365.829257 239.343301 
L 366.033993 239.21909 
L 366.198958 239.402246 
L 366.447116 240.078026 
L 366.827773 241.854325 
L 367.421688 245.831144 
L 368.617431 255.696908 
L 369.865728 265.778671 
L 369.875468 265.414912 
L 370.383755 250.650525 
L 370.842938 243.072556 
L 371.237393 239.745973 
L 371.546221 238.685455 
L 371.747913 238.571745 
L 371.913081 238.762223 
L 372.162862 239.458174 
L 372.545954 241.279641 
L 373.144536 245.352784 
L 374.366049 255.564578 
L 375.254993 262.943762 
L 375.27082 262.361319 
L 375.774644 248.020261 
L 376.227943 240.747925 
L 376.614687 237.624983 
L 376.913369 236.679544 
L 377.103089 236.607367 
L 377.271301 236.830471 
L 377.529199 237.613006 
L 377.924871 239.626029 
L 378.546991 244.102027 
L 379.929207 256.134977 
L 381.05515 265.459885 
L 381.064484 265.112908 
L 381.572365 250.431683 
L 382.030737 242.911328 
L 382.424177 239.618264 
L 382.731788 238.574397 
L 382.932059 238.466283 
L 383.097836 238.66076 
L 383.348834 239.366759 
L 383.733956 241.210716 
L 384.335987 245.328797 
L 385.577791 255.741794 
L 387.051316 267.551346 
L 387.054157 267.444187 
L 387.565488 252.368621 
L 388.028527 244.571492 
L 388.428055 241.099136 
L 388.743781 239.954781 
L 388.953589 239.809406 
L 389.117134 239.978749 
L 389.361233 240.618891 
L 389.735601 242.317027 
L 390.318153 246.132281 
L 391.457081 255.388099 
L 392.54021 264.189683 
L 392.554211 263.670576 
L 393.060063 249.134886 
L 393.516 241.725473 
L 393.905991 238.514135 
L 394.209137 237.5188 
L 394.40393 237.429226 
L 394.570721 237.637955 
L 394.825169 238.382861 
L 395.215567 240.313688 
L 395.82754 244.615805 
L 397.132652 255.792112 
L 398.487273 266.820649 
L 398.487273 266.820649 
" style="fill:none;stroke:#1f77b4;stroke-linecap:square;stroke-width:1.5;"/>
   </g>
   <g id="patch_3">
    <path d="M 57.6 307.584 
L 57.6 41.472 
" style="fill:none;stroke:#000000;stroke-linecap:square;stroke-linejoin:miter;stroke-width:0.8;"/>
   </g>
   <g id="patch_4">
    <path d="M 414.72 307.584 
L 414.72 41.472 
" style="fill:none;stroke:#000000;stroke-linecap:square;stroke-linejoin:miter;stroke-width:0.8;"/>
   </g>
   <g id="patch_5">
    <path d="M 57.6 307.584 
L 414.72 307.584 
" style="fill:none;stroke:#000000;stroke-linecap:square;stroke-linejoin:miter;stroke-width:0.8;"/>
   </g>
   <g id="patch_6">
    <path d="M 57.6 41.472 
L 414.72 41.472 
" style="fill:none;stroke:#000000;stroke-linecap:square;stroke-linejoin:miter;stroke-width:0.8;"/>
   </g>
   <g id="text_15">
    <!-- Acetylcholine activation -->
    <defs>
     <path d="M 34.1875 63.1875 
L 20.796875 26.90625 
L 47.609375 26.90625 
z
M 28.609375 72.90625 
L 39.796875 72.90625 
L 67.578125 0 
L 57.328125 0 
L 50.6875 18.703125 
L 17.828125 18.703125 
L 11.1875 0 
L 0.78125 0 
z
" id="DejaVuSans-41"/>
     <path d="M 48.78125 52.59375 
L 48.78125 44.1875 
Q 44.96875 46.296875 41.140625 47.34375 
Q 37.3125 48.390625 33.40625 48.390625 
Q 24.65625 48.390625 19.8125 42.84375 
Q 14.984375 37.3125 14.984375 27.296875 
Q 14.984375 17.28125 19.8125 11.734375 
Q 24.65625 6.203125 33.40625 6.203125 
Q 37.3125 6.203125 41.140625 7.25 
Q 44.96875 8.296875 48.78125 10.40625 
L 48.78125 2.09375 
Q 45.015625 0.34375 40.984375 -0.53125 
Q 36.96875 -1.421875 32.421875 -1.421875 
Q 20.0625 -1.421875 12.78125 6.34375 
Q 5.515625 14.109375 5.515625 27.296875 
Q 5.515625 40.671875 12.859375 48.328125 
Q 20.21875 56 33.015625 56 
Q 37.15625 56 41.109375 55.140625 
Q 45.0625 54.296875 48.78125 52.59375 
z
" id="DejaVuSans-63"/>
     <path d="M 56.203125 29.59375 
L 56.203125 25.203125 
L 14.890625 25.203125 
Q 15.484375 15.921875 20.484375 11.0625 
Q 25.484375 6.203125 34.421875 6.203125 
Q 39.59375 6.203125 44.453125 7.46875 
Q 49.3125 8.734375 54.109375 11.28125 
L 54.109375 2.78125 
Q 49.265625 0.734375 44.1875 -0.34375 
Q 39.109375 -1.421875 33.890625 -1.421875 
Q 20.796875 -1.421875 13.15625 6.1875 
Q 5.515625 13.8125 5.515625 26.8125 
Q 5.515625 40.234375 12.765625 48.109375 
Q 20.015625 56 32.328125 56 
Q 43.359375 56 49.78125 48.890625 
Q 56.203125 41.796875 56.203125 29.59375 
z
M 47.21875 32.234375 
Q 47.125 39.59375 43.09375 43.984375 
Q 39.0625 48.390625 32.421875 48.390625 
Q 24.90625 48.390625 20.390625 44.140625 
Q 15.875 39.890625 15.1875 32.171875 
z
" id="DejaVuSans-65"/>
     <path d="M 18.3125 70.21875 
L 18.3125 54.6875 
L 36.8125 54.6875 
L 36.8125 47.703125 
L 18.3125 47.703125 
L 18.3125 18.015625 
Q 18.3125 11.328125 20.140625 9.421875 
Q 21.96875 7.515625 27.59375 7.515625 
L 36.8125 7.515625 
L 36.8125 0 
L 27.59375 0 
Q 17.1875 0 13.234375 3.875 
Q 9.28125 7.765625 9.28125 18.015625 
L 9.28125 47.703125 
L 2.6875 47.703125 
L 2.6875 54.6875 
L 9.28125 54.6875 
L 9.28125 70.21875 
z
" id="DejaVuSans-74"/>
     <path d="M 32.171875 -5.078125 
Q 28.375 -14.84375 24.75 -17.8125 
Q 21.140625 -20.796875 15.09375 -20.796875 
L 7.90625 -20.796875 
L 7.90625 -13.28125 
L 13.1875 -13.28125 
Q 16.890625 -13.28125 18.9375 -11.515625 
Q 21 -9.765625 23.484375 -3.21875 
L 25.09375 0.875 
L 2.984375 54.6875 
L 12.5 54.6875 
L 29.59375 11.921875 
L 46.6875 54.6875 
L 56.203125 54.6875 
z
" id="DejaVuSans-79"/>
     <path d="M 9.421875 75.984375 
L 18.40625 75.984375 
L 18.40625 0 
L 9.421875 0 
z
" id="DejaVuSans-6c"/>
     <path d="M 54.890625 33.015625 
L 54.890625 0 
L 45.90625 0 
L 45.90625 32.71875 
Q 45.90625 40.484375 42.875 44.328125 
Q 39.84375 48.1875 33.796875 48.1875 
Q 26.515625 48.1875 22.3125 43.546875 
Q 18.109375 38.921875 18.109375 30.90625 
L 18.109375 0 
L 9.078125 0 
L 9.078125 75.984375 
L 18.109375 75.984375 
L 18.109375 46.1875 
Q 21.34375 51.125 25.703125 53.5625 
Q 30.078125 56 35.796875 56 
Q 45.21875 56 50.046875 50.171875 
Q 54.890625 44.34375 54.890625 33.015625 
z
" id="DejaVuSans-68"/>
     <path d="M 30.609375 48.390625 
Q 23.390625 48.390625 19.1875 42.75 
Q 14.984375 37.109375 14.984375 27.296875 
Q 14.984375 17.484375 19.15625 11.84375 
Q 23.34375 6.203125 30.609375 6.203125 
Q 37.796875 6.203125 41.984375 11.859375 
Q 46.1875 17.53125 46.1875 27.296875 
Q 46.1875 37.015625 41.984375 42.703125 
Q 37.796875 48.390625 30.609375 48.390625 
z
M 30.609375 56 
Q 42.328125 56 49.015625 48.375 
Q 55.71875 40.765625 55.71875 27.296875 
Q 55.71875 13.875 49.015625 6.21875 
Q 42.328125 -1.421875 30.609375 -1.421875 
Q 18.84375 -1.421875 12.171875 6.21875 
Q 5.515625 13.875 5.515625 27.296875 
Q 5.515625 40.765625 12.171875 48.375 
Q 18.84375 56 30.609375 56 
z
" id="DejaVuSans-6f"/>
     <path d="M 9.421875 54.6875 
L 18.40625 54.6875 
L 18.40625 0 
L 9.421875 0 
z
M 9.421875 75.984375 
L 18.40625 75.984375 
L 18.40625 64.59375 
L 9.421875 64.59375 
z
" id="DejaVuSans-69"/>
     <path d="M 54.890625 33.015625 
L 54.890625 0 
L 45.90625 0 
L 45.90625 32.71875 
Q 45.90625 40.484375 42.875 44.328125 
Q 39.84375 48.1875 33.796875 48.1875 
Q 26.515625 48.1875 22.3125 43.546875 
Q 18.109375 38.921875 18.109375 30.90625 
L 18.109375 0 
L 9.078125 0 
L 9.078125 54.6875 
L 18.109375 54.6875 
L 18.109375 46.1875 
Q 21.34375 51.125 25.703125 53.5625 
Q 30.078125 56 35.796875 56 
Q 45.21875 56 50.046875 50.171875 
Q 54.890625 44.34375 54.890625 33.015625 
z
" id="DejaVuSans-6e"/>
     <path id="DejaVuSans-20"/>
     <path d="M 34.28125 27.484375 
Q 23.390625 27.484375 19.1875 25 
Q 14.984375 22.515625 14.984375 16.5 
Q 14.984375 11.71875 18.140625 8.90625 
Q 21.296875 6.109375 26.703125 6.109375 
Q 34.1875 6.109375 38.703125 11.40625 
Q 43.21875 16.703125 43.21875 25.484375 
L 43.21875 27.484375 
z
M 52.203125 31.203125 
L 52.203125 0 
L 43.21875 0 
L 43.21875 8.296875 
Q 40.140625 3.328125 35.546875 0.953125 
Q 30.953125 -1.421875 24.3125 -1.421875 
Q 15.921875 -1.421875 10.953125 3.296875 
Q 6 8.015625 6 15.921875 
Q 6 25.140625 12.171875 29.828125 
Q 18.359375 34.515625 30.609375 34.515625 
L 43.21875 34.515625 
L 43.21875 35.40625 
Q 43.21875 41.609375 39.140625 45 
Q 35.0625 48.390625 27.6875 48.390625 
Q 23 48.390625 18.546875 47.265625 
Q 14.109375 46.140625 10.015625 43.890625 
L 10.015625 52.203125 
Q 14.9375 54.109375 19.578125 55.046875 
Q 24.21875 56 28.609375 56 
Q 40.484375 56 46.34375 49.84375 
Q 52.203125 43.703125 52.203125 31.203125 
z
" id="DejaVuSans-61"/>
     <path d="M 2.984375 54.6875 
L 12.5 54.6875 
L 29.59375 8.796875 
L 46.6875 54.6875 
L 56.203125 54.6875 
L 35.6875 0 
L 23.484375 0 
z
" id="DejaVuSans-76"/>
    </defs>
    <g transform="translate(164.271563 35.472)scale(0.12 -0.12)">
     <use xlink:href="#DejaVuSans-41"/>
     <use x="68.392578" xlink:href="#DejaVuSans-63"/>
     <use x="123.373047" xlink:href="#DejaVuSans-65"/>
     <use x="184.896484" xlink:href="#DejaVuSans-74"/>
     <use x="224.105469" xlink:href="#DejaVuSans-79"/>
     <use x="283.285156" xlink:href="#DejaVuSans-6c"/>
     <use x="311.068359" xlink:href="#DejaVuSans-63"/>
     <use x="366.048828" xlink:href="#DejaVuSans-68"/>
     <use x="429.427734" xlink:href="#DejaVuSans-6f"/>
     <use x="490.609375" xlink:href="#DejaVuSans-6c"/>
     <use x="518.392578" xlink:href="#DejaVuSans-69"/>
     <use x="546.175781" xlink:href="#DejaVuSans-6e"/>
     <use x="609.554688" xlink:href="#DejaVuSans-65"/>
     <use x="671.078125" xlink:href="#DejaVuSans-20"/>
     <use x="702.865234" xlink:href="#DejaVuSans-61"/>
     <use x="764.144531" xlink:href="#DejaVuSans-63"/>
     <use x="819.125" xlink:href="#DejaVuSans-74"/>
     <use x="858.333984" xlink:href="#DejaVuSans-69"/>
     <use x="886.117188" xlink:href="#DejaVuSans-76"/>
     <use x="945.296875" xlink:href="#DejaVuSans-61"/>
     <use x="1006.576172" xlink:href="#DejaVuSans-74"/>
     <use x="1045.785156" xlink:href="#DejaVuSans-69"/>
     <use x="1073.568359" xlink:href="#DejaVuSans-6f"/>
     <use x="1134.75" xlink:href="#DejaVuSans-6e"/>
    </g>
   </g>
  </g>
 </g>
 <defs>
  <clipPath id="pe64b7e8b53">
   <rect height="266.112" width="357.12" x="57.6" y="41.472"/>
  </clipPath>
 </defs>
</svg>
