<?xml version="1.0" encoding="utf-8" standalone="no"?>
<!DOCTYPE svg PUBLIC "-//W3C//DTD SVG 1.1//EN"
  "http://www.w3.org/Graphics/SVG/1.1/DTD/svg11.dtd">
<!-- Created with matplotlib (http://matplotlib.org/) -->
<svg height="345.6pt" version="1.1" viewBox="0 0 460.8 345.6" width="460.8pt" xmlns="http://www.w3.org/2000/svg" xmlns:xlink="http://www.w3.org/1999/xlink">
 <defs>
  <style type="text/css">
*{stroke-linecap:butt;stroke-linejoin:round;}
  </style>
 </defs>
 <g id="figure_1">
  <g id="patch_1">
   <path d="M 0 345.6 
L 460.8 345.6 
L 460.8 0 
L 0 0 
z
" style="fill:#ffffff;"/>
  </g>
  <g id="axes_1">
   <g id="patch_2">
    <path d="M 57.6 307.584 
L 414.72 307.584 
L 414.72 41.472 
L 57.6 41.472 
z
" style="fill:#ffffff;"/>
   </g>
   <g id="matplotlib.axis_1">
    <g id="xtick_1">
     <g id="line2d_1">
      <defs>
       <path d="M 0 0 
L 0 3.5 
" id="mdd5b804b3e" style="stroke:#000000;stroke-width:0.8;"/>
      </defs>
      <g>
       <use style="stroke:#000000;stroke-width:0.8;" x="73.832727" xlink:href="#mdd5b804b3e" y="307.584"/>
      </g>
     </g>
     <g id="text_1">
      <!-- 0 -->
      <defs>
       <path d="M 31.78125 66.40625 
Q 24.171875 66.40625 20.328125 58.90625 
Q 16.5 51.421875 16.5 36.375 
Q 16.5 21.390625 20.328125 13.890625 
Q 24.171875 6.390625 31.78125 6.390625 
Q 39.453125 6.390625 43.28125 13.890625 
Q 47.125 21.390625 47.125 36.375 
Q 47.125 51.421875 43.28125 58.90625 
Q 39.453125 66.40625 31.78125 66.40625 
z
M 31.78125 74.21875 
Q 44.046875 74.21875 50.515625 64.515625 
Q 56.984375 54.828125 56.984375 36.375 
Q 56.984375 17.96875 50.515625 8.265625 
Q 44.046875 -1.421875 31.78125 -1.421875 
Q 19.53125 -1.421875 13.0625 8.265625 
Q 6.59375 17.96875 6.59375 36.375 
Q 6.59375 54.828125 13.0625 64.515625 
Q 19.53125 74.21875 31.78125 74.21875 
z
" id="DejaVuSans-30"/>
      </defs>
      <g transform="translate(70.651477 322.182437)scale(0.1 -0.1)">
       <use xlink:href="#DejaVuSans-30"/>
      </g>
     </g>
    </g>
    <g id="xtick_2">
     <g id="line2d_2">
      <g>
       <use style="stroke:#000000;stroke-width:0.8;" x="138.763636" xlink:href="#mdd5b804b3e" y="307.584"/>
      </g>
     </g>
     <g id="text_2">
      <!-- 2000 -->
      <defs>
       <path d="M 19.1875 8.296875 
L 53.609375 8.296875 
L 53.609375 0 
L 7.328125 0 
L 7.328125 8.296875 
Q 12.9375 14.109375 22.625 23.890625 
Q 32.328125 33.6875 34.8125 36.53125 
Q 39.546875 41.84375 41.421875 45.53125 
Q 43.3125 49.21875 43.3125 52.78125 
Q 43.3125 58.59375 39.234375 62.25 
Q 35.15625 65.921875 28.609375 65.921875 
Q 23.96875 65.921875 18.8125 64.3125 
Q 13.671875 62.703125 7.8125 59.421875 
L 7.8125 69.390625 
Q 13.765625 71.78125 18.9375 73 
Q 24.125 74.21875 28.421875 74.21875 
Q 39.75 74.21875 46.484375 68.546875 
Q 53.21875 62.890625 53.21875 53.421875 
Q 53.21875 48.921875 51.53125 44.890625 
Q 49.859375 40.875 45.40625 35.40625 
Q 44.1875 33.984375 37.640625 27.21875 
Q 31.109375 20.453125 19.1875 8.296875 
z
" id="DejaVuSans-32"/>
      </defs>
      <g transform="translate(126.038636 322.182437)scale(0.1 -0.1)">
       <use xlink:href="#DejaVuSans-32"/>
       <use x="63.623047" xlink:href="#DejaVuSans-30"/>
       <use x="127.246094" xlink:href="#DejaVuSans-30"/>
       <use x="190.869141" xlink:href="#DejaVuSans-30"/>
      </g>
     </g>
    </g>
    <g id="xtick_3">
     <g id="line2d_3">
      <g>
       <use style="stroke:#000000;stroke-width:0.8;" x="203.694545" xlink:href="#mdd5b804b3e" y="307.584"/>
      </g>
     </g>
     <g id="text_3">
      <!-- 4000 -->
      <defs>
       <path d="M 37.796875 64.3125 
L 12.890625 25.390625 
L 37.796875 25.390625 
z
M 35.203125 72.90625 
L 47.609375 72.90625 
L 47.609375 25.390625 
L 58.015625 25.390625 
L 58.015625 17.1875 
L 47.609375 17.1875 
L 47.609375 0 
L 37.796875 0 
L 37.796875 17.1875 
L 4.890625 17.1875 
L 4.890625 26.703125 
z
" id="DejaVuSans-34"/>
      </defs>
      <g transform="translate(190.969545 322.182437)scale(0.1 -0.1)">
       <use xlink:href="#DejaVuSans-34"/>
       <use x="63.623047" xlink:href="#DejaVuSans-30"/>
       <use x="127.246094" xlink:href="#DejaVuSans-30"/>
       <use x="190.869141" xlink:href="#DejaVuSans-30"/>
      </g>
     </g>
    </g>
    <g id="xtick_4">
     <g id="line2d_4">
      <g>
       <use style="stroke:#000000;stroke-width:0.8;" x="268.625455" xlink:href="#mdd5b804b3e" y="307.584"/>
      </g>
     </g>
     <g id="text_4">
      <!-- 6000 -->
      <defs>
       <path d="M 33.015625 40.375 
Q 26.375 40.375 22.484375 35.828125 
Q 18.609375 31.296875 18.609375 23.390625 
Q 18.609375 15.53125 22.484375 10.953125 
Q 26.375 6.390625 33.015625 6.390625 
Q 39.65625 6.390625 43.53125 10.953125 
Q 47.40625 15.53125 47.40625 23.390625 
Q 47.40625 31.296875 43.53125 35.828125 
Q 39.65625 40.375 33.015625 40.375 
z
M 52.59375 71.296875 
L 52.59375 62.3125 
Q 48.875 64.0625 45.09375 64.984375 
Q 41.3125 65.921875 37.59375 65.921875 
Q 27.828125 65.921875 22.671875 59.328125 
Q 17.53125 52.734375 16.796875 39.40625 
Q 19.671875 43.65625 24.015625 45.921875 
Q 28.375 48.1875 33.59375 48.1875 
Q 44.578125 48.1875 50.953125 41.515625 
Q 57.328125 34.859375 57.328125 23.390625 
Q 57.328125 12.15625 50.6875 5.359375 
Q 44.046875 -1.421875 33.015625 -1.421875 
Q 20.359375 -1.421875 13.671875 8.265625 
Q 6.984375 17.96875 6.984375 36.375 
Q 6.984375 53.65625 15.1875 63.9375 
Q 23.390625 74.21875 37.203125 74.21875 
Q 40.921875 74.21875 44.703125 73.484375 
Q 48.484375 72.75 52.59375 71.296875 
z
" id="DejaVuSans-36"/>
      </defs>
      <g transform="translate(255.900455 322.182437)scale(0.1 -0.1)">
       <use xlink:href="#DejaVuSans-36"/>
       <use x="63.623047" xlink:href="#DejaVuSans-30"/>
       <use x="127.246094" xlink:href="#DejaVuSans-30"/>
       <use x="190.869141" xlink:href="#DejaVuSans-30"/>
      </g>
     </g>
    </g>
    <g id="xtick_5">
     <g id="line2d_5">
      <g>
       <use style="stroke:#000000;stroke-width:0.8;" x="333.556364" xlink:href="#mdd5b804b3e" y="307.584"/>
      </g>
     </g>
     <g id="text_5">
      <!-- 8000 -->
      <defs>
       <path d="M 31.78125 34.625 
Q 24.75 34.625 20.71875 30.859375 
Q 16.703125 27.09375 16.703125 20.515625 
Q 16.703125 13.921875 20.71875 10.15625 
Q 24.75 6.390625 31.78125 6.390625 
Q 38.8125 6.390625 42.859375 10.171875 
Q 46.921875 13.96875 46.921875 20.515625 
Q 46.921875 27.09375 42.890625 30.859375 
Q 38.875 34.625 31.78125 34.625 
z
M 21.921875 38.8125 
Q 15.578125 40.375 12.03125 44.71875 
Q 8.5 49.078125 8.5 55.328125 
Q 8.5 64.0625 14.71875 69.140625 
Q 20.953125 74.21875 31.78125 74.21875 
Q 42.671875 74.21875 48.875 69.140625 
Q 55.078125 64.0625 55.078125 55.328125 
Q 55.078125 49.078125 51.53125 44.71875 
Q 48 40.375 41.703125 38.8125 
Q 48.828125 37.15625 52.796875 32.3125 
Q 56.78125 27.484375 56.78125 20.515625 
Q 56.78125 9.90625 50.3125 4.234375 
Q 43.84375 -1.421875 31.78125 -1.421875 
Q 19.734375 -1.421875 13.25 4.234375 
Q 6.78125 9.90625 6.78125 20.515625 
Q 6.78125 27.484375 10.78125 32.3125 
Q 14.796875 37.15625 21.921875 38.8125 
z
M 18.3125 54.390625 
Q 18.3125 48.734375 21.84375 45.5625 
Q 25.390625 42.390625 31.78125 42.390625 
Q 38.140625 42.390625 41.71875 45.5625 
Q 45.3125 48.734375 45.3125 54.390625 
Q 45.3125 60.0625 41.71875 63.234375 
Q 38.140625 66.40625 31.78125 66.40625 
Q 25.390625 66.40625 21.84375 63.234375 
Q 18.3125 60.0625 18.3125 54.390625 
z
" id="DejaVuSans-38"/>
      </defs>
      <g transform="translate(320.831364 322.182437)scale(0.1 -0.1)">
       <use xlink:href="#DejaVuSans-38"/>
       <use x="63.623047" xlink:href="#DejaVuSans-30"/>
       <use x="127.246094" xlink:href="#DejaVuSans-30"/>
       <use x="190.869141" xlink:href="#DejaVuSans-30"/>
      </g>
     </g>
    </g>
    <g id="xtick_6">
     <g id="line2d_6">
      <g>
       <use style="stroke:#000000;stroke-width:0.8;" x="398.487273" xlink:href="#mdd5b804b3e" y="307.584"/>
      </g>
     </g>
     <g id="text_6">
      <!-- 10000 -->
      <defs>
       <path d="M 12.40625 8.296875 
L 28.515625 8.296875 
L 28.515625 63.921875 
L 10.984375 60.40625 
L 10.984375 69.390625 
L 28.421875 72.90625 
L 38.28125 72.90625 
L 38.28125 8.296875 
L 54.390625 8.296875 
L 54.390625 0 
L 12.40625 0 
z
" id="DejaVuSans-31"/>
      </defs>
      <g transform="translate(382.581023 322.182437)scale(0.1 -0.1)">
       <use xlink:href="#DejaVuSans-31"/>
       <use x="63.623047" xlink:href="#DejaVuSans-30"/>
       <use x="127.246094" xlink:href="#DejaVuSans-30"/>
       <use x="190.869141" xlink:href="#DejaVuSans-30"/>
       <use x="254.492188" xlink:href="#DejaVuSans-30"/>
      </g>
     </g>
    </g>
   </g>
   <g id="matplotlib.axis_2">
    <g id="ytick_1">
     <g id="line2d_7">
      <defs>
       <path d="M 0 0 
L -3.5 0 
" id="m49a1ee88f2" style="stroke:#000000;stroke-width:0.8;"/>
      </defs>
      <g>
       <use style="stroke:#000000;stroke-width:0.8;" x="57.6" xlink:href="#m49a1ee88f2" y="295.488"/>
      </g>
     </g>
     <g id="text_7">
      <!-- 0.00000 -->
      <defs>
       <path d="M 10.6875 12.40625 
L 21 12.40625 
L 21 0 
L 10.6875 0 
z
" id="DejaVuSans-2e"/>
      </defs>
      <g transform="translate(9.246875 299.287219)scale(0.1 -0.1)">
       <use xlink:href="#DejaVuSans-30"/>
       <use x="63.623047" xlink:href="#DejaVuSans-2e"/>
       <use x="95.410156" xlink:href="#DejaVuSans-30"/>
       <use x="159.033203" xlink:href="#DejaVuSans-30"/>
       <use x="222.65625" xlink:href="#DejaVuSans-30"/>
       <use x="286.279297" xlink:href="#DejaVuSans-30"/>
       <use x="349.902344" xlink:href="#DejaVuSans-30"/>
      </g>
     </g>
    </g>
    <g id="ytick_2">
     <g id="line2d_8">
      <g>
       <use style="stroke:#000000;stroke-width:0.8;" x="57.6" xlink:href="#m49a1ee88f2" y="241.728"/>
      </g>
     </g>
     <g id="text_8">
      <!-- 0.00001 -->
      <g transform="translate(9.246875 245.527219)scale(0.1 -0.1)">
       <use xlink:href="#DejaVuSans-30"/>
       <use x="63.623047" xlink:href="#DejaVuSans-2e"/>
       <use x="95.410156" xlink:href="#DejaVuSans-30"/>
       <use x="159.033203" xlink:href="#DejaVuSans-30"/>
       <use x="222.65625" xlink:href="#DejaVuSans-30"/>
       <use x="286.279297" xlink:href="#DejaVuSans-30"/>
       <use x="349.902344" xlink:href="#DejaVuSans-31"/>
      </g>
     </g>
    </g>
    <g id="ytick_3">
     <g id="line2d_9">
      <g>
       <use style="stroke:#000000;stroke-width:0.8;" x="57.6" xlink:href="#m49a1ee88f2" y="187.968"/>
      </g>
     </g>
     <g id="text_9">
      <!-- 0.00002 -->
      <g transform="translate(9.246875 191.767219)scale(0.1 -0.1)">
       <use xlink:href="#DejaVuSans-30"/>
       <use x="63.623047" xlink:href="#DejaVuSans-2e"/>
       <use x="95.410156" xlink:href="#DejaVuSans-30"/>
       <use x="159.033203" xlink:href="#DejaVuSans-30"/>
       <use x="222.65625" xlink:href="#DejaVuSans-30"/>
       <use x="286.279297" xlink:href="#DejaVuSans-30"/>
       <use x="349.902344" xlink:href="#DejaVuSans-32"/>
      </g>
     </g>
    </g>
    <g id="ytick_4">
     <g id="line2d_10">
      <g>
       <use style="stroke:#000000;stroke-width:0.8;" x="57.6" xlink:href="#m49a1ee88f2" y="134.208"/>
      </g>
     </g>
     <g id="text_10">
      <!-- 0.00003 -->
      <defs>
       <path d="M 40.578125 39.3125 
Q 47.65625 37.796875 51.625 33 
Q 55.609375 28.21875 55.609375 21.1875 
Q 55.609375 10.40625 48.1875 4.484375 
Q 40.765625 -1.421875 27.09375 -1.421875 
Q 22.515625 -1.421875 17.65625 -0.515625 
Q 12.796875 0.390625 7.625 2.203125 
L 7.625 11.71875 
Q 11.71875 9.328125 16.59375 8.109375 
Q 21.484375 6.890625 26.8125 6.890625 
Q 36.078125 6.890625 40.9375 10.546875 
Q 45.796875 14.203125 45.796875 21.1875 
Q 45.796875 27.640625 41.28125 31.265625 
Q 36.765625 34.90625 28.71875 34.90625 
L 20.21875 34.90625 
L 20.21875 43.015625 
L 29.109375 43.015625 
Q 36.375 43.015625 40.234375 45.921875 
Q 44.09375 48.828125 44.09375 54.296875 
Q 44.09375 59.90625 40.109375 62.90625 
Q 36.140625 65.921875 28.71875 65.921875 
Q 24.65625 65.921875 20.015625 65.03125 
Q 15.375 64.15625 9.8125 62.3125 
L 9.8125 71.09375 
Q 15.4375 72.65625 20.34375 73.4375 
Q 25.25 74.21875 29.59375 74.21875 
Q 40.828125 74.21875 47.359375 69.109375 
Q 53.90625 64.015625 53.90625 55.328125 
Q 53.90625 49.265625 50.4375 45.09375 
Q 46.96875 40.921875 40.578125 39.3125 
z
" id="DejaVuSans-33"/>
      </defs>
      <g transform="translate(9.246875 138.007219)scale(0.1 -0.1)">
       <use xlink:href="#DejaVuSans-30"/>
       <use x="63.623047" xlink:href="#DejaVuSans-2e"/>
       <use x="95.410156" xlink:href="#DejaVuSans-30"/>
       <use x="159.033203" xlink:href="#DejaVuSans-30"/>
       <use x="222.65625" xlink:href="#DejaVuSans-30"/>
       <use x="286.279297" xlink:href="#DejaVuSans-30"/>
       <use x="349.902344" xlink:href="#DejaVuSans-33"/>
      </g>
     </g>
    </g>
    <g id="ytick_5">
     <g id="line2d_11">
      <g>
       <use style="stroke:#000000;stroke-width:0.8;" x="57.6" xlink:href="#m49a1ee88f2" y="80.448"/>
      </g>
     </g>
     <g id="text_11">
      <!-- 0.00004 -->
      <g transform="translate(9.246875 84.247219)scale(0.1 -0.1)">
       <use xlink:href="#DejaVuSans-30"/>
       <use x="63.623047" xlink:href="#DejaVuSans-2e"/>
       <use x="95.410156" xlink:href="#DejaVuSans-30"/>
       <use x="159.033203" xlink:href="#DejaVuSans-30"/>
       <use x="222.65625" xlink:href="#DejaVuSans-30"/>
       <use x="286.279297" xlink:href="#DejaVuSans-30"/>
       <use x="349.902344" xlink:href="#DejaVuSans-34"/>
      </g>
     </g>
    </g>
   </g>
   <g id="line2d_12">
    <path clip-path="url(#p2a70851504)" d="M 73.832727 53.568 
L 73.943921 295.488 
L 75.382141 295.378503 
L 76.452689 284.607205 
L 77.492396 276.297226 
L 78.498013 269.96982 
L 79.466295 265.227717 
L 79.834778 263.165311 
L 80.849324 249.621847 
L 81.825722 239.422447 
L 82.759916 231.881185 
L 83.548015 225.552994 
L 84.516297 211.46969 
L 85.439939 201.110912 
L 86.314071 193.673847 
L 87.045356 187.502029 
L 87.969809 174.083687 
L 88.843942 164.454137 
L 89.66126 157.762809 
L 90.414458 153.308342 
L 90.588148 151.900111 
L 91.467962 139.890732 
L 92.291773 131.506809 
L 93.052276 125.890862 
L 93.740544 122.339825 
L 94.349271 120.266133 
L 94.70558 119.015667 
L 95.524521 109.828253 
L 96.278531 103.703322 
L 96.960305 99.845155 
L 97.560916 97.610646 
L 98.072247 96.474723 
L 98.491863 96.018901 
L 98.83762 95.939607 
L 99.170391 96.097884 
L 99.559977 96.554715 
L 100.045335 97.500091 
L 100.461705 98.614006 
L 100.500663 98.294897 
L 101.212468 93.425531 
L 101.846356 90.498217 
L 102.393399 88.918632 
L 102.847916 88.206183 
L 103.215587 87.993693 
L 103.537807 88.055098 
L 103.890057 88.368577 
L 104.325094 89.084339 
L 104.872137 90.452902 
L 105.555535 92.811183 
L 106.406941 96.608158 
L 107.474243 102.456734 
L 108.847532 111.311017 
L 110.754877 125.190585 
L 111.357923 129.805258 
L 111.438275 129.52837 
L 112.012913 127.992737 
L 112.499895 127.258765 
L 112.90409 127.008476 
L 113.262022 127.036706 
L 113.641868 127.304017 
L 114.098007 127.922111 
L 114.663718 129.096049 
L 115.366595 131.107817 
L 116.239916 134.331388 
L 117.334813 139.283249 
L 118.748684 146.782933 
L 120.739628 158.657074 
L 127.102857 198.322756 
L 127.179151 197.920078 
L 127.945335 194.525548 
L 128.643343 192.370109 
L 129.266679 191.108509 
L 129.814534 190.458295 
L 130.297457 190.204455 
L 130.747916 190.211913 
L 131.221911 190.450903 
L 131.770577 190.994446 
L 132.431249 191.985468 
L 133.239639 193.627931 
L 134.239575 196.197871 
L 135.504105 200.103342 
L 137.19312 206.099167 
L 139.938886 216.788564 
L 141.562159 223.230531 
L 141.601117 222.947492 
L 142.471191 217.47426 
L 143.285263 213.684458 
L 144.036838 211.174167 
L 144.721047 209.608376 
L 145.334644 208.717167 
L 145.881687 208.285896 
L 146.383279 208.16017 
L 146.882435 208.265767 
L 147.431913 208.621032 
L 148.076352 209.320562 
L 148.853088 210.514502 
L 149.805137 212.412954 
L 150.99662 215.31829 
L 152.553338 219.743858 
L 154.864879 227.060503 
L 158.98718 240.529426 
L 159.020457 240.26206 
L 159.940852 233.796621 
L 160.811738 229.170212 
L 161.627433 225.967762 
L 162.382255 223.847061 
L 163.072145 222.526044 
L 163.696294 221.777067 
L 164.262816 221.422353 
L 164.798496 221.340852 
L 165.347162 221.486128 
L 165.957513 221.889421 
L 166.673376 222.645816 
L 167.535334 223.901008 
L 168.595331 225.862912 
L 169.937777 228.847055 
L 171.757466 233.478897 
L 175.066508 242.63444 
L 175.394409 243.550074 
L 175.423628 243.303712 
L 176.356198 236.411371 
L 177.240881 231.442677 
L 178.071997 227.970368 
L 178.843863 225.641207 
L 179.55161 224.164475 
L 180.193615 223.30273 
L 180.776369 222.868329 
L 181.320166 222.728793 
L 181.865585 222.819163 
L 182.462138 223.153029 
L 183.154464 223.810525 
L 183.983956 224.924638 
L 184.998502 226.683759 
L 186.272771 229.367936 
L 187.965033 233.491356 
L 190.677521 240.769984 
L 191.283814 242.435889 
L 191.312221 242.195194 
L 192.243168 235.282467 
L 193.125417 230.307487 
L 193.954097 226.834312 
L 194.722717 224.51014 
L 195.427217 223.039476 
L 196.065975 222.184154 
L 196.644672 221.756409 
L 197.18441 221.622485 
L 197.726583 221.718208 
L 198.320701 222.059048 
L 199.011404 222.727486 
L 199.839273 223.858205 
L 200.852195 225.642422 
L 202.124841 228.36447 
L 203.814668 232.544405 
L 206.521475 239.917509 
L 208.155299 244.467839 
L 208.183706 244.227782 
L 209.118711 237.298829 
L 210.00583 232.298748 
L 210.83938 228.799494 
L 211.614493 226.445213 
L 212.326298 224.946794 
L 212.972361 224.068477 
L 213.559174 223.62158 
L 214.106217 223.472663 
L 214.654071 223.554705 
L 215.251436 223.878698 
L 215.94295 224.521773 
L 216.770819 225.614893 
L 217.782118 227.342289 
L 219.051517 229.979925 
L 220.734039 234.028206 
L 223.410816 241.128847 
L 225.771055 247.521037 
L 225.797839 247.292126 
L 226.74096 240.21346 
L 227.637007 235.083031 
L 228.481108 231.469217 
L 229.267584 229.019834 
L 229.991564 227.444136 
L 230.651424 226.503751 
L 231.251223 226.010566 
L 231.809629 225.826317 
L 232.363165 225.876938 
L 232.960529 226.163174 
L 233.647174 226.752838 
L 234.465303 227.767016 
L 235.461993 229.379395 
L 236.708666 231.847101 
L 238.348983 235.624214 
L 240.880477 242.082206 
L 242.568681 246.519422 
L 242.597088 246.275134 
L 243.538586 239.168144 
L 244.433009 234.020833 
L 245.274676 230.401746 
L 246.058717 227.951672 
L 246.780262 226.378402 
L 247.436876 225.44324 
L 248.032617 224.955837 
L 248.586964 224.776493 
L 249.137254 224.831715 
L 249.731372 225.123405 
L 250.415581 225.721464 
L 251.231276 226.748558 
L 252.22553 228.380996 
L 253.468957 230.878143 
L 255.105216 234.700567 
L 257.626159 241.225954 
L 259.363872 245.861702 
L 259.392279 245.618515 
L 260.331343 238.563467 
L 261.223331 233.457475 
L 262.062563 229.871191 
L 262.844169 227.447074 
L 263.562467 225.895635 
L 264.215834 224.976715 
L 264.80914 224.500763 
L 265.361053 224.330372 
L 265.909719 224.393214 
L 266.504649 224.694123 
L 267.190481 225.304839 
L 268.009423 226.350954 
L 269.008547 228.011503 
L 270.259279 230.550343 
L 271.907712 234.437724 
L 274.468425 241.119676 
L 279.325257 253.906586 
L 279.332561 253.84275 
L 280.292727 246.436373 
L 281.208253 241.015364 
L 282.074269 237.149663 
L 282.885094 234.48702 
L 283.636669 232.73379 
L 284.325748 231.652827 
L 284.955578 231.051538 
L 285.539956 230.785735 
L 286.109725 230.767039 
L 286.710336 230.975349 
L 287.388864 231.45785 
L 288.189137 232.316408 
L 289.156608 233.701032 
L 290.357018 235.83228 
L 291.849617 238.939195 
L 291.891823 238.559637 
L 292.821146 231.24948 
L 293.701772 225.9898 
L 294.528017 222.322309 
L 295.294202 219.868728 
L 295.994644 218.319661 
L 296.627721 217.419925 
L 297.197489 216.969765 
L 297.724241 216.824114 
L 298.248559 216.910548 
L 298.820762 217.240361 
L 299.486304 217.896655 
L 300.284954 219.017138 
L 301.262164 220.796701 
L 301.894429 222.143996 
L 301.922836 221.888892 
L 302.819695 214.867402 
L 303.663796 209.91273 
L 304.448649 206.546696 
L 305.167759 204.37407 
L 305.815444 203.070481 
L 306.390895 202.371506 
L 306.903037 202.074068 
L 307.381903 202.04513 
L 307.877812 202.244486 
L 308.4419 202.725942 
L 309.114746 203.613076 
L 309.706429 204.638383 
L 309.734836 204.374069 
L 310.606534 197.334177 
L 311.421417 192.452746 
L 312.172992 189.210448 
L 312.854767 187.18126 
L 313.460247 186.019495 
L 313.989434 185.443191 
L 314.454502 185.241088 
L 314.89522 185.288163 
L 315.368404 185.573786 
L 315.922752 186.18761 
L 316.438141 186.999892 
L 316.465737 186.739757 
L 317.312273 179.844791 
L 318.098749 175.149015 
L 318.817859 172.107214 
L 319.462298 170.27118 
L 320.026385 169.275248 
L 320.511744 168.827477 
L 320.937041 168.717219 
L 321.351788 168.841656 
L 321.816044 169.229167 
L 322.373638 170.007579 
L 322.643101 170.495135 
L 322.665827 170.284215 
L 323.486391 163.731677 
L 324.243648 159.35563 
L 324.929481 156.598775 
L 325.536585 155.00049 
L 326.06009 154.187664 
L 326.504055 153.86843 
L 326.897699 153.844732 
L 327.300271 154.05214 
L 327.769396 154.564408 
L 328.343223 155.548126 
L 329.003084 157.107767 
L 329.047724 156.728211 
L 329.834199 151.040582 
L 330.552497 147.352779 
L 331.195313 145.121164 
L 331.755343 143.905686 
L 332.23015 143.351983 
L 332.63191 143.194178 
L 333.007697 143.283425 
L 333.423255 143.627621 
L 333.925658 144.358055 
L 334.54656 145.686025 
L 335.31518 147.895014 
L 335.833815 149.68948 
L 335.879267 149.348076 
L 336.633277 144.571177 
L 337.315052 141.568595 
L 337.917286 139.832323 
L 338.434298 138.952648 
L 338.867712 138.608025 
L 339.244311 138.574741 
L 339.62578 138.773628 
L 340.07218 139.279713 
L 340.620847 140.267845 
L 341.300998 141.9884 
L 342.144288 144.771878 
L 342.687273 146.886401 
L 342.736783 146.535965 
L 343.476183 142.144378 
L 344.141725 139.426915 
L 344.725292 137.894386 
L 345.222825 137.14852 
L 345.639194 136.883769 
L 346.008489 136.900357 
L 346.397263 137.153438 
L 346.859895 137.743739 
L 347.431287 138.864515 
L 348.139846 140.782946 
L 349.01966 143.854502 
L 349.759872 146.927326 
L 349.820745 146.516383 
L 350.550406 142.404671 
L 351.205396 139.885697 
L 351.7776 138.487394 
L 352.26377 137.825696 
L 352.671212 137.60924 
L 353.039695 137.657315 
L 353.436585 137.94809 
L 353.913827 138.598561 
L 354.503887 139.811564 
L 355.235171 141.863609 
L 356.143392 145.123103 
L 356.878735 148.235931 
L 356.939607 147.829155 
L 357.669268 143.759697 
L 358.323447 141.270048 
L 358.895651 139.886631 
L 359.381821 139.232677 
L 359.790074 139.019423 
L 360.16018 139.069424 
L 360.559505 139.362718 
L 361.039183 140.01592 
L 361.631677 141.230564 
L 362.366208 143.283482 
L 363.278487 146.541492 
L 364.065775 149.868367 
L 364.128271 149.451104 
L 364.859555 145.374953 
L 365.516169 142.873801 
L 366.090807 141.480117 
L 366.579412 140.81769 
L 366.990912 140.597838 
L 367.363453 140.643457 
L 367.76359 140.931186 
L 368.243267 141.57458 
L 368.835761 142.773441 
L 369.569481 144.799352 
L 370.480948 148.016887 
L 371.557178 152.613401 
L 371.63753 152.088444 
L 372.367191 148.125762 
L 373.022993 145.694917 
L 373.59682 144.34419 
L 374.084614 143.705939 
L 374.496113 143.498152 
L 374.871901 143.550952 
L 375.277719 143.847535 
L 375.763889 144.502481 
L 376.3645 145.716653 
L 377.107959 147.760677 
L 378.03079 150.995453 
L 379.192241 155.933894 
L 379.839116 159.010042 
L 379.89593 158.65376 
L 380.628838 154.812053 
L 381.287075 152.454333 
L 381.864148 151.138897 
L 382.357623 150.512251 
L 382.776428 150.307014 
L 383.161143 150.360595 
L 383.575889 150.657177 
L 384.071799 151.308782 
L 384.68215 152.50867 
L 385.436972 154.521094 
L 386.3736 157.696778 
L 387.553719 162.53884 
L 387.815066 163.712829 
L 387.861329 163.405789 
L 388.612093 159.209843 
L 389.290621 156.583736 
L 389.89042 155.074543 
L 390.406621 154.319665 
L 390.844093 154.035683 
L 391.236113 154.034561 
L 391.643555 154.266577 
L 392.121609 154.815958 
L 392.70761 155.856793 
L 393.430778 157.629979 
L 394.326825 160.458488 
L 395.450941 164.795023 
L 396.071031 167.482601 
L 396.122976 167.134249 
L 396.881044 162.85004 
L 397.567689 160.149567 
L 398.176416 158.580944 
L 398.487273 158.049908 
L 398.487273 158.049908 
" style="fill:none;stroke:#1f77b4;stroke-linecap:square;stroke-width:1.5;"/>
   </g>
   <g id="patch_3">
    <path d="M 57.6 307.584 
L 57.6 41.472 
" style="fill:none;stroke:#000000;stroke-linecap:square;stroke-linejoin:miter;stroke-width:0.8;"/>
   </g>
   <g id="patch_4">
    <path d="M 414.72 307.584 
L 414.72 41.472 
" style="fill:none;stroke:#000000;stroke-linecap:square;stroke-linejoin:miter;stroke-width:0.8;"/>
   </g>
   <g id="patch_5">
    <path d="M 57.6 307.584 
L 414.72 307.584 
" style="fill:none;stroke:#000000;stroke-linecap:square;stroke-linejoin:miter;stroke-width:0.8;"/>
   </g>
   <g id="patch_6">
    <path d="M 57.6 41.472 
L 414.72 41.472 
" style="fill:none;stroke:#000000;stroke-linecap:square;stroke-linejoin:miter;stroke-width:0.8;"/>
   </g>
   <g id="text_12">
    <!-- Acetylcholine activation -->
    <defs>
     <path d="M 34.1875 63.1875 
L 20.796875 26.90625 
L 47.609375 26.90625 
z
M 28.609375 72.90625 
L 39.796875 72.90625 
L 67.578125 0 
L 57.328125 0 
L 50.6875 18.703125 
L 17.828125 18.703125 
L 11.1875 0 
L 0.78125 0 
z
" id="DejaVuSans-41"/>
     <path d="M 48.78125 52.59375 
L 48.78125 44.1875 
Q 44.96875 46.296875 41.140625 47.34375 
Q 37.3125 48.390625 33.40625 48.390625 
Q 24.65625 48.390625 19.8125 42.84375 
Q 14.984375 37.3125 14.984375 27.296875 
Q 14.984375 17.28125 19.8125 11.734375 
Q 24.65625 6.203125 33.40625 6.203125 
Q 37.3125 6.203125 41.140625 7.25 
Q 44.96875 8.296875 48.78125 10.40625 
L 48.78125 2.09375 
Q 45.015625 0.34375 40.984375 -0.53125 
Q 36.96875 -1.421875 32.421875 -1.421875 
Q 20.0625 -1.421875 12.78125 6.34375 
Q 5.515625 14.109375 5.515625 27.296875 
Q 5.515625 40.671875 12.859375 48.328125 
Q 20.21875 56 33.015625 56 
Q 37.15625 56 41.109375 55.140625 
Q 45.0625 54.296875 48.78125 52.59375 
z
" id="DejaVuSans-63"/>
     <path d="M 56.203125 29.59375 
L 56.203125 25.203125 
L 14.890625 25.203125 
Q 15.484375 15.921875 20.484375 11.0625 
Q 25.484375 6.203125 34.421875 6.203125 
Q 39.59375 6.203125 44.453125 7.46875 
Q 49.3125 8.734375 54.109375 11.28125 
L 54.109375 2.78125 
Q 49.265625 0.734375 44.1875 -0.34375 
Q 39.109375 -1.421875 33.890625 -1.421875 
Q 20.796875 -1.421875 13.15625 6.1875 
Q 5.515625 13.8125 5.515625 26.8125 
Q 5.515625 40.234375 12.765625 48.109375 
Q 20.015625 56 32.328125 56 
Q 43.359375 56 49.78125 48.890625 
Q 56.203125 41.796875 56.203125 29.59375 
z
M 47.21875 32.234375 
Q 47.125 39.59375 43.09375 43.984375 
Q 39.0625 48.390625 32.421875 48.390625 
Q 24.90625 48.390625 20.390625 44.140625 
Q 15.875 39.890625 15.1875 32.171875 
z
" id="DejaVuSans-65"/>
     <path d="M 18.3125 70.21875 
L 18.3125 54.6875 
L 36.8125 54.6875 
L 36.8125 47.703125 
L 18.3125 47.703125 
L 18.3125 18.015625 
Q 18.3125 11.328125 20.140625 9.421875 
Q 21.96875 7.515625 27.59375 7.515625 
L 36.8125 7.515625 
L 36.8125 0 
L 27.59375 0 
Q 17.1875 0 13.234375 3.875 
Q 9.28125 7.765625 9.28125 18.015625 
L 9.28125 47.703125 
L 2.6875 47.703125 
L 2.6875 54.6875 
L 9.28125 54.6875 
L 9.28125 70.21875 
z
" id="DejaVuSans-74"/>
     <path d="M 32.171875 -5.078125 
Q 28.375 -14.84375 24.75 -17.8125 
Q 21.140625 -20.796875 15.09375 -20.796875 
L 7.90625 -20.796875 
L 7.90625 -13.28125 
L 13.1875 -13.28125 
Q 16.890625 -13.28125 18.9375 -11.515625 
Q 21 -9.765625 23.484375 -3.21875 
L 25.09375 0.875 
L 2.984375 54.6875 
L 12.5 54.6875 
L 29.59375 11.921875 
L 46.6875 54.6875 
L 56.203125 54.6875 
z
" id="DejaVuSans-79"/>
     <path d="M 9.421875 75.984375 
L 18.40625 75.984375 
L 18.40625 0 
L 9.421875 0 
z
" id="DejaVuSans-6c"/>
     <path d="M 54.890625 33.015625 
L 54.890625 0 
L 45.90625 0 
L 45.90625 32.71875 
Q 45.90625 40.484375 42.875 44.328125 
Q 39.84375 48.1875 33.796875 48.1875 
Q 26.515625 48.1875 22.3125 43.546875 
Q 18.109375 38.921875 18.109375 30.90625 
L 18.109375 0 
L 9.078125 0 
L 9.078125 75.984375 
L 18.109375 75.984375 
L 18.109375 46.1875 
Q 21.34375 51.125 25.703125 53.5625 
Q 30.078125 56 35.796875 56 
Q 45.21875 56 50.046875 50.171875 
Q 54.890625 44.34375 54.890625 33.015625 
z
" id="DejaVuSans-68"/>
     <path d="M 30.609375 48.390625 
Q 23.390625 48.390625 19.1875 42.75 
Q 14.984375 37.109375 14.984375 27.296875 
Q 14.984375 17.484375 19.15625 11.84375 
Q 23.34375 6.203125 30.609375 6.203125 
Q 37.796875 6.203125 41.984375 11.859375 
Q 46.1875 17.53125 46.1875 27.296875 
Q 46.1875 37.015625 41.984375 42.703125 
Q 37.796875 48.390625 30.609375 48.390625 
z
M 30.609375 56 
Q 42.328125 56 49.015625 48.375 
Q 55.71875 40.765625 55.71875 27.296875 
Q 55.71875 13.875 49.015625 6.21875 
Q 42.328125 -1.421875 30.609375 -1.421875 
Q 18.84375 -1.421875 12.171875 6.21875 
Q 5.515625 13.875 5.515625 27.296875 
Q 5.515625 40.765625 12.171875 48.375 
Q 18.84375 56 30.609375 56 
z
" id="DejaVuSans-6f"/>
     <path d="M 9.421875 54.6875 
L 18.40625 54.6875 
L 18.40625 0 
L 9.421875 0 
z
M 9.421875 75.984375 
L 18.40625 75.984375 
L 18.40625 64.59375 
L 9.421875 64.59375 
z
" id="DejaVuSans-69"/>
     <path d="M 54.890625 33.015625 
L 54.890625 0 
L 45.90625 0 
L 45.90625 32.71875 
Q 45.90625 40.484375 42.875 44.328125 
Q 39.84375 48.1875 33.796875 48.1875 
Q 26.515625 48.1875 22.3125 43.546875 
Q 18.109375 38.921875 18.109375 30.90625 
L 18.109375 0 
L 9.078125 0 
L 9.078125 54.6875 
L 18.109375 54.6875 
L 18.109375 46.1875 
Q 21.34375 51.125 25.703125 53.5625 
Q 30.078125 56 35.796875 56 
Q 45.21875 56 50.046875 50.171875 
Q 54.890625 44.34375 54.890625 33.015625 
z
" id="DejaVuSans-6e"/>
     <path id="DejaVuSans-20"/>
     <path d="M 34.28125 27.484375 
Q 23.390625 27.484375 19.1875 25 
Q 14.984375 22.515625 14.984375 16.5 
Q 14.984375 11.71875 18.140625 8.90625 
Q 21.296875 6.109375 26.703125 6.109375 
Q 34.1875 6.109375 38.703125 11.40625 
Q 43.21875 16.703125 43.21875 25.484375 
L 43.21875 27.484375 
z
M 52.203125 31.203125 
L 52.203125 0 
L 43.21875 0 
L 43.21875 8.296875 
Q 40.140625 3.328125 35.546875 0.953125 
Q 30.953125 -1.421875 24.3125 -1.421875 
Q 15.921875 -1.421875 10.953125 3.296875 
Q 6 8.015625 6 15.921875 
Q 6 25.140625 12.171875 29.828125 
Q 18.359375 34.515625 30.609375 34.515625 
L 43.21875 34.515625 
L 43.21875 35.40625 
Q 43.21875 41.609375 39.140625 45 
Q 35.0625 48.390625 27.6875 48.390625 
Q 23 48.390625 18.546875 47.265625 
Q 14.109375 46.140625 10.015625 43.890625 
L 10.015625 52.203125 
Q 14.9375 54.109375 19.578125 55.046875 
Q 24.21875 56 28.609375 56 
Q 40.484375 56 46.34375 49.84375 
Q 52.203125 43.703125 52.203125 31.203125 
z
" id="DejaVuSans-61"/>
     <path d="M 2.984375 54.6875 
L 12.5 54.6875 
L 29.59375 8.796875 
L 46.6875 54.6875 
L 56.203125 54.6875 
L 35.6875 0 
L 23.484375 0 
z
" id="DejaVuSans-76"/>
    </defs>
    <g transform="translate(164.271563 35.472)scale(0.12 -0.12)">
     <use xlink:href="#DejaVuSans-41"/>
     <use x="68.392578" xlink:href="#DejaVuSans-63"/>
     <use x="123.373047" xlink:href="#DejaVuSans-65"/>
     <use x="184.896484" xlink:href="#DejaVuSans-74"/>
     <use x="224.105469" xlink:href="#DejaVuSans-79"/>
     <use x="283.285156" xlink:href="#DejaVuSans-6c"/>
     <use x="311.068359" xlink:href="#DejaVuSans-63"/>
     <use x="366.048828" xlink:href="#DejaVuSans-68"/>
     <use x="429.427734" xlink:href="#DejaVuSans-6f"/>
     <use x="490.609375" xlink:href="#DejaVuSans-6c"/>
     <use x="518.392578" xlink:href="#DejaVuSans-69"/>
     <use x="546.175781" xlink:href="#DejaVuSans-6e"/>
     <use x="609.554688" xlink:href="#DejaVuSans-65"/>
     <use x="671.078125" xlink:href="#DejaVuSans-20"/>
     <use x="702.865234" xlink:href="#DejaVuSans-61"/>
     <use x="764.144531" xlink:href="#DejaVuSans-63"/>
     <use x="819.125" xlink:href="#DejaVuSans-74"/>
     <use x="858.333984" xlink:href="#DejaVuSans-69"/>
     <use x="886.117188" xlink:href="#DejaVuSans-76"/>
     <use x="945.296875" xlink:href="#DejaVuSans-61"/>
     <use x="1006.576172" xlink:href="#DejaVuSans-74"/>
     <use x="1045.785156" xlink:href="#DejaVuSans-69"/>
     <use x="1073.568359" xlink:href="#DejaVuSans-6f"/>
     <use x="1134.75" xlink:href="#DejaVuSans-6e"/>
    </g>
   </g>
  </g>
 </g>
 <defs>
  <clipPath id="p2a70851504">
   <rect height="266.112" width="357.12" x="57.6" y="41.472"/>
  </clipPath>
 </defs>
</svg>
