<?xml version="1.0" encoding="utf-8" standalone="no"?>
<!DOCTYPE svg PUBLIC "-//W3C//DTD SVG 1.1//EN"
  "http://www.w3.org/Graphics/SVG/1.1/DTD/svg11.dtd">
<!-- Created with matplotlib (http://matplotlib.org/) -->
<svg height="345.6pt" version="1.1" viewBox="0 0 460.8 345.6" width="460.8pt" xmlns="http://www.w3.org/2000/svg" xmlns:xlink="http://www.w3.org/1999/xlink">
 <defs>
  <style type="text/css">
*{stroke-linecap:butt;stroke-linejoin:round;}
  </style>
 </defs>
 <g id="figure_1">
  <g id="patch_1">
   <path d="M 0 345.6 
L 460.8 345.6 
L 460.8 0 
L 0 0 
z
" style="fill:#ffffff;"/>
  </g>
  <g id="axes_1">
   <g id="patch_2">
    <path d="M 57.6 307.584 
L 414.72 307.584 
L 414.72 41.472 
L 57.6 41.472 
z
" style="fill:#ffffff;"/>
   </g>
   <g id="matplotlib.axis_1">
    <g id="xtick_1">
     <g id="line2d_1">
      <defs>
       <path d="M 0 0 
L 0 3.5 
" id="m9ccf839055" style="stroke:#000000;stroke-width:0.8;"/>
      </defs>
      <g>
       <use style="stroke:#000000;stroke-width:0.8;" x="73.832727" xlink:href="#m9ccf839055" y="307.584"/>
      </g>
     </g>
     <g id="text_1">
      <!-- 0 -->
      <defs>
       <path d="M 31.78125 66.40625 
Q 24.171875 66.40625 20.328125 58.90625 
Q 16.5 51.421875 16.5 36.375 
Q 16.5 21.390625 20.328125 13.890625 
Q 24.171875 6.390625 31.78125 6.390625 
Q 39.453125 6.390625 43.28125 13.890625 
Q 47.125 21.390625 47.125 36.375 
Q 47.125 51.421875 43.28125 58.90625 
Q 39.453125 66.40625 31.78125 66.40625 
z
M 31.78125 74.21875 
Q 44.046875 74.21875 50.515625 64.515625 
Q 56.984375 54.828125 56.984375 36.375 
Q 56.984375 17.96875 50.515625 8.265625 
Q 44.046875 -1.421875 31.78125 -1.421875 
Q 19.53125 -1.421875 13.0625 8.265625 
Q 6.59375 17.96875 6.59375 36.375 
Q 6.59375 54.828125 13.0625 64.515625 
Q 19.53125 74.21875 31.78125 74.21875 
z
" id="DejaVuSans-30"/>
      </defs>
      <g transform="translate(70.651477 322.182437)scale(0.1 -0.1)">
       <use xlink:href="#DejaVuSans-30"/>
      </g>
     </g>
    </g>
    <g id="xtick_2">
     <g id="line2d_2">
      <g>
       <use style="stroke:#000000;stroke-width:0.8;" x="114.414545" xlink:href="#m9ccf839055" y="307.584"/>
      </g>
     </g>
     <g id="text_2">
      <!-- 5000 -->
      <defs>
       <path d="M 10.796875 72.90625 
L 49.515625 72.90625 
L 49.515625 64.59375 
L 19.828125 64.59375 
L 19.828125 46.734375 
Q 21.96875 47.46875 24.109375 47.828125 
Q 26.265625 48.1875 28.421875 48.1875 
Q 40.625 48.1875 47.75 41.5 
Q 54.890625 34.8125 54.890625 23.390625 
Q 54.890625 11.625 47.5625 5.09375 
Q 40.234375 -1.421875 26.90625 -1.421875 
Q 22.3125 -1.421875 17.546875 -0.640625 
Q 12.796875 0.140625 7.71875 1.703125 
L 7.71875 11.625 
Q 12.109375 9.234375 16.796875 8.0625 
Q 21.484375 6.890625 26.703125 6.890625 
Q 35.15625 6.890625 40.078125 11.328125 
Q 45.015625 15.765625 45.015625 23.390625 
Q 45.015625 31 40.078125 35.4375 
Q 35.15625 39.890625 26.703125 39.890625 
Q 22.75 39.890625 18.8125 39.015625 
Q 14.890625 38.140625 10.796875 36.28125 
z
" id="DejaVuSans-35"/>
      </defs>
      <g transform="translate(101.689545 322.182437)scale(0.1 -0.1)">
       <use xlink:href="#DejaVuSans-35"/>
       <use x="63.623047" xlink:href="#DejaVuSans-30"/>
       <use x="127.246094" xlink:href="#DejaVuSans-30"/>
       <use x="190.869141" xlink:href="#DejaVuSans-30"/>
      </g>
     </g>
    </g>
    <g id="xtick_3">
     <g id="line2d_3">
      <g>
       <use style="stroke:#000000;stroke-width:0.8;" x="154.996364" xlink:href="#m9ccf839055" y="307.584"/>
      </g>
     </g>
     <g id="text_3">
      <!-- 10000 -->
      <defs>
       <path d="M 12.40625 8.296875 
L 28.515625 8.296875 
L 28.515625 63.921875 
L 10.984375 60.40625 
L 10.984375 69.390625 
L 28.421875 72.90625 
L 38.28125 72.90625 
L 38.28125 8.296875 
L 54.390625 8.296875 
L 54.390625 0 
L 12.40625 0 
z
" id="DejaVuSans-31"/>
      </defs>
      <g transform="translate(139.090114 322.182437)scale(0.1 -0.1)">
       <use xlink:href="#DejaVuSans-31"/>
       <use x="63.623047" xlink:href="#DejaVuSans-30"/>
       <use x="127.246094" xlink:href="#DejaVuSans-30"/>
       <use x="190.869141" xlink:href="#DejaVuSans-30"/>
       <use x="254.492188" xlink:href="#DejaVuSans-30"/>
      </g>
     </g>
    </g>
    <g id="xtick_4">
     <g id="line2d_4">
      <g>
       <use style="stroke:#000000;stroke-width:0.8;" x="195.578182" xlink:href="#m9ccf839055" y="307.584"/>
      </g>
     </g>
     <g id="text_4">
      <!-- 15000 -->
      <g transform="translate(179.671932 322.182437)scale(0.1 -0.1)">
       <use xlink:href="#DejaVuSans-31"/>
       <use x="63.623047" xlink:href="#DejaVuSans-35"/>
       <use x="127.246094" xlink:href="#DejaVuSans-30"/>
       <use x="190.869141" xlink:href="#DejaVuSans-30"/>
       <use x="254.492188" xlink:href="#DejaVuSans-30"/>
      </g>
     </g>
    </g>
    <g id="xtick_5">
     <g id="line2d_5">
      <g>
       <use style="stroke:#000000;stroke-width:0.8;" x="236.16" xlink:href="#m9ccf839055" y="307.584"/>
      </g>
     </g>
     <g id="text_5">
      <!-- 20000 -->
      <defs>
       <path d="M 19.1875 8.296875 
L 53.609375 8.296875 
L 53.609375 0 
L 7.328125 0 
L 7.328125 8.296875 
Q 12.9375 14.109375 22.625 23.890625 
Q 32.328125 33.6875 34.8125 36.53125 
Q 39.546875 41.84375 41.421875 45.53125 
Q 43.3125 49.21875 43.3125 52.78125 
Q 43.3125 58.59375 39.234375 62.25 
Q 35.15625 65.921875 28.609375 65.921875 
Q 23.96875 65.921875 18.8125 64.3125 
Q 13.671875 62.703125 7.8125 59.421875 
L 7.8125 69.390625 
Q 13.765625 71.78125 18.9375 73 
Q 24.125 74.21875 28.421875 74.21875 
Q 39.75 74.21875 46.484375 68.546875 
Q 53.21875 62.890625 53.21875 53.421875 
Q 53.21875 48.921875 51.53125 44.890625 
Q 49.859375 40.875 45.40625 35.40625 
Q 44.1875 33.984375 37.640625 27.21875 
Q 31.109375 20.453125 19.1875 8.296875 
z
" id="DejaVuSans-32"/>
      </defs>
      <g transform="translate(220.25375 322.182437)scale(0.1 -0.1)">
       <use xlink:href="#DejaVuSans-32"/>
       <use x="63.623047" xlink:href="#DejaVuSans-30"/>
       <use x="127.246094" xlink:href="#DejaVuSans-30"/>
       <use x="190.869141" xlink:href="#DejaVuSans-30"/>
       <use x="254.492188" xlink:href="#DejaVuSans-30"/>
      </g>
     </g>
    </g>
    <g id="xtick_6">
     <g id="line2d_6">
      <g>
       <use style="stroke:#000000;stroke-width:0.8;" x="276.741818" xlink:href="#m9ccf839055" y="307.584"/>
      </g>
     </g>
     <g id="text_6">
      <!-- 25000 -->
      <g transform="translate(260.835568 322.182437)scale(0.1 -0.1)">
       <use xlink:href="#DejaVuSans-32"/>
       <use x="63.623047" xlink:href="#DejaVuSans-35"/>
       <use x="127.246094" xlink:href="#DejaVuSans-30"/>
       <use x="190.869141" xlink:href="#DejaVuSans-30"/>
       <use x="254.492188" xlink:href="#DejaVuSans-30"/>
      </g>
     </g>
    </g>
    <g id="xtick_7">
     <g id="line2d_7">
      <g>
       <use style="stroke:#000000;stroke-width:0.8;" x="317.323636" xlink:href="#m9ccf839055" y="307.584"/>
      </g>
     </g>
     <g id="text_7">
      <!-- 30000 -->
      <defs>
       <path d="M 40.578125 39.3125 
Q 47.65625 37.796875 51.625 33 
Q 55.609375 28.21875 55.609375 21.1875 
Q 55.609375 10.40625 48.1875 4.484375 
Q 40.765625 -1.421875 27.09375 -1.421875 
Q 22.515625 -1.421875 17.65625 -0.515625 
Q 12.796875 0.390625 7.625 2.203125 
L 7.625 11.71875 
Q 11.71875 9.328125 16.59375 8.109375 
Q 21.484375 6.890625 26.8125 6.890625 
Q 36.078125 6.890625 40.9375 10.546875 
Q 45.796875 14.203125 45.796875 21.1875 
Q 45.796875 27.640625 41.28125 31.265625 
Q 36.765625 34.90625 28.71875 34.90625 
L 20.21875 34.90625 
L 20.21875 43.015625 
L 29.109375 43.015625 
Q 36.375 43.015625 40.234375 45.921875 
Q 44.09375 48.828125 44.09375 54.296875 
Q 44.09375 59.90625 40.109375 62.90625 
Q 36.140625 65.921875 28.71875 65.921875 
Q 24.65625 65.921875 20.015625 65.03125 
Q 15.375 64.15625 9.8125 62.3125 
L 9.8125 71.09375 
Q 15.4375 72.65625 20.34375 73.4375 
Q 25.25 74.21875 29.59375 74.21875 
Q 40.828125 74.21875 47.359375 69.109375 
Q 53.90625 64.015625 53.90625 55.328125 
Q 53.90625 49.265625 50.4375 45.09375 
Q 46.96875 40.921875 40.578125 39.3125 
z
" id="DejaVuSans-33"/>
      </defs>
      <g transform="translate(301.417386 322.182437)scale(0.1 -0.1)">
       <use xlink:href="#DejaVuSans-33"/>
       <use x="63.623047" xlink:href="#DejaVuSans-30"/>
       <use x="127.246094" xlink:href="#DejaVuSans-30"/>
       <use x="190.869141" xlink:href="#DejaVuSans-30"/>
       <use x="254.492188" xlink:href="#DejaVuSans-30"/>
      </g>
     </g>
    </g>
    <g id="xtick_8">
     <g id="line2d_8">
      <g>
       <use style="stroke:#000000;stroke-width:0.8;" x="357.905455" xlink:href="#m9ccf839055" y="307.584"/>
      </g>
     </g>
     <g id="text_8">
      <!-- 35000 -->
      <g transform="translate(341.999205 322.182437)scale(0.1 -0.1)">
       <use xlink:href="#DejaVuSans-33"/>
       <use x="63.623047" xlink:href="#DejaVuSans-35"/>
       <use x="127.246094" xlink:href="#DejaVuSans-30"/>
       <use x="190.869141" xlink:href="#DejaVuSans-30"/>
       <use x="254.492188" xlink:href="#DejaVuSans-30"/>
      </g>
     </g>
    </g>
    <g id="xtick_9">
     <g id="line2d_9">
      <g>
       <use style="stroke:#000000;stroke-width:0.8;" x="398.487273" xlink:href="#m9ccf839055" y="307.584"/>
      </g>
     </g>
     <g id="text_9">
      <!-- 40000 -->
      <defs>
       <path d="M 37.796875 64.3125 
L 12.890625 25.390625 
L 37.796875 25.390625 
z
M 35.203125 72.90625 
L 47.609375 72.90625 
L 47.609375 25.390625 
L 58.015625 25.390625 
L 58.015625 17.1875 
L 47.609375 17.1875 
L 47.609375 0 
L 37.796875 0 
L 37.796875 17.1875 
L 4.890625 17.1875 
L 4.890625 26.703125 
z
" id="DejaVuSans-34"/>
      </defs>
      <g transform="translate(382.581023 322.182437)scale(0.1 -0.1)">
       <use xlink:href="#DejaVuSans-34"/>
       <use x="63.623047" xlink:href="#DejaVuSans-30"/>
       <use x="127.246094" xlink:href="#DejaVuSans-30"/>
       <use x="190.869141" xlink:href="#DejaVuSans-30"/>
       <use x="254.492188" xlink:href="#DejaVuSans-30"/>
      </g>
     </g>
    </g>
   </g>
   <g id="matplotlib.axis_2">
    <g id="ytick_1">
     <g id="line2d_10">
      <defs>
       <path d="M 0 0 
L -3.5 0 
" id="mfbf5f5d476" style="stroke:#000000;stroke-width:0.8;"/>
      </defs>
      <g>
       <use style="stroke:#000000;stroke-width:0.8;" x="57.6" xlink:href="#mfbf5f5d476" y="295.488"/>
      </g>
     </g>
     <g id="text_10">
      <!-- 0.00 -->
      <defs>
       <path d="M 10.6875 12.40625 
L 21 12.40625 
L 21 0 
L 10.6875 0 
z
" id="DejaVuSans-2e"/>
      </defs>
      <g transform="translate(28.334375 299.287219)scale(0.1 -0.1)">
       <use xlink:href="#DejaVuSans-30"/>
       <use x="63.623047" xlink:href="#DejaVuSans-2e"/>
       <use x="95.410156" xlink:href="#DejaVuSans-30"/>
       <use x="159.033203" xlink:href="#DejaVuSans-30"/>
      </g>
     </g>
    </g>
    <g id="ytick_2">
     <g id="line2d_11">
      <g>
       <use style="stroke:#000000;stroke-width:0.8;" x="57.6" xlink:href="#mfbf5f5d476" y="265.248"/>
      </g>
     </g>
     <g id="text_11">
      <!-- 0.25 -->
      <g transform="translate(28.334375 269.047219)scale(0.1 -0.1)">
       <use xlink:href="#DejaVuSans-30"/>
       <use x="63.623047" xlink:href="#DejaVuSans-2e"/>
       <use x="95.410156" xlink:href="#DejaVuSans-32"/>
       <use x="159.033203" xlink:href="#DejaVuSans-35"/>
      </g>
     </g>
    </g>
    <g id="ytick_3">
     <g id="line2d_12">
      <g>
       <use style="stroke:#000000;stroke-width:0.8;" x="57.6" xlink:href="#mfbf5f5d476" y="235.008"/>
      </g>
     </g>
     <g id="text_12">
      <!-- 0.50 -->
      <g transform="translate(28.334375 238.807219)scale(0.1 -0.1)">
       <use xlink:href="#DejaVuSans-30"/>
       <use x="63.623047" xlink:href="#DejaVuSans-2e"/>
       <use x="95.410156" xlink:href="#DejaVuSans-35"/>
       <use x="159.033203" xlink:href="#DejaVuSans-30"/>
      </g>
     </g>
    </g>
    <g id="ytick_4">
     <g id="line2d_13">
      <g>
       <use style="stroke:#000000;stroke-width:0.8;" x="57.6" xlink:href="#mfbf5f5d476" y="204.768"/>
      </g>
     </g>
     <g id="text_13">
      <!-- 0.75 -->
      <defs>
       <path d="M 8.203125 72.90625 
L 55.078125 72.90625 
L 55.078125 68.703125 
L 28.609375 0 
L 18.3125 0 
L 43.21875 64.59375 
L 8.203125 64.59375 
z
" id="DejaVuSans-37"/>
      </defs>
      <g transform="translate(28.334375 208.567219)scale(0.1 -0.1)">
       <use xlink:href="#DejaVuSans-30"/>
       <use x="63.623047" xlink:href="#DejaVuSans-2e"/>
       <use x="95.410156" xlink:href="#DejaVuSans-37"/>
       <use x="159.033203" xlink:href="#DejaVuSans-35"/>
      </g>
     </g>
    </g>
    <g id="ytick_5">
     <g id="line2d_14">
      <g>
       <use style="stroke:#000000;stroke-width:0.8;" x="57.6" xlink:href="#mfbf5f5d476" y="174.528"/>
      </g>
     </g>
     <g id="text_14">
      <!-- 1.00 -->
      <g transform="translate(28.334375 178.327219)scale(0.1 -0.1)">
       <use xlink:href="#DejaVuSans-31"/>
       <use x="63.623047" xlink:href="#DejaVuSans-2e"/>
       <use x="95.410156" xlink:href="#DejaVuSans-30"/>
       <use x="159.033203" xlink:href="#DejaVuSans-30"/>
      </g>
     </g>
    </g>
    <g id="ytick_6">
     <g id="line2d_15">
      <g>
       <use style="stroke:#000000;stroke-width:0.8;" x="57.6" xlink:href="#mfbf5f5d476" y="144.288"/>
      </g>
     </g>
     <g id="text_15">
      <!-- 1.25 -->
      <g transform="translate(28.334375 148.087219)scale(0.1 -0.1)">
       <use xlink:href="#DejaVuSans-31"/>
       <use x="63.623047" xlink:href="#DejaVuSans-2e"/>
       <use x="95.410156" xlink:href="#DejaVuSans-32"/>
       <use x="159.033203" xlink:href="#DejaVuSans-35"/>
      </g>
     </g>
    </g>
    <g id="ytick_7">
     <g id="line2d_16">
      <g>
       <use style="stroke:#000000;stroke-width:0.8;" x="57.6" xlink:href="#mfbf5f5d476" y="114.048"/>
      </g>
     </g>
     <g id="text_16">
      <!-- 1.50 -->
      <g transform="translate(28.334375 117.847219)scale(0.1 -0.1)">
       <use xlink:href="#DejaVuSans-31"/>
       <use x="63.623047" xlink:href="#DejaVuSans-2e"/>
       <use x="95.410156" xlink:href="#DejaVuSans-35"/>
       <use x="159.033203" xlink:href="#DejaVuSans-30"/>
      </g>
     </g>
    </g>
    <g id="ytick_8">
     <g id="line2d_17">
      <g>
       <use style="stroke:#000000;stroke-width:0.8;" x="57.6" xlink:href="#mfbf5f5d476" y="83.808"/>
      </g>
     </g>
     <g id="text_17">
      <!-- 1.75 -->
      <g transform="translate(28.334375 87.607219)scale(0.1 -0.1)">
       <use xlink:href="#DejaVuSans-31"/>
       <use x="63.623047" xlink:href="#DejaVuSans-2e"/>
       <use x="95.410156" xlink:href="#DejaVuSans-37"/>
       <use x="159.033203" xlink:href="#DejaVuSans-35"/>
      </g>
     </g>
    </g>
    <g id="ytick_9">
     <g id="line2d_18">
      <g>
       <use style="stroke:#000000;stroke-width:0.8;" x="57.6" xlink:href="#mfbf5f5d476" y="53.568"/>
      </g>
     </g>
     <g id="text_18">
      <!-- 2.00 -->
      <g transform="translate(28.334375 57.367219)scale(0.1 -0.1)">
       <use xlink:href="#DejaVuSans-32"/>
       <use x="63.623047" xlink:href="#DejaVuSans-2e"/>
       <use x="95.410156" xlink:href="#DejaVuSans-30"/>
       <use x="159.033203" xlink:href="#DejaVuSans-30"/>
      </g>
     </g>
    </g>
   </g>
   <g id="line2d_19">
    <path clip-path="url(#pf075a151a7)" d="M 73.832727 295.488 
L 74.325188 295.488 
L 74.436382 289.44 
L 74.749876 289.44 
L 74.861071 283.700325 
L 75.189377 283.700325 
L 75.300572 278.273653 
L 75.68549 278.273653 
L 75.796684 273.246367 
L 76.205749 273.246367 
L 76.316943 268.579323 
L 76.825839 268.579323 
L 76.937033 264.510576 
L 77.47454 264.510576 
L 77.585734 260.842089 
L 78.493955 260.842089 
L 78.605149 258.88343 
L 90.127951 258.88343 
L 90.239145 280.709933 
L 90.746417 280.709933 
L 90.857612 275.746187 
L 91.331607 275.746187 
L 91.442801 271.07147 
L 92.106314 271.07147 
L 92.217508 267.246258 
L 92.846932 267.246258 
L 92.958127 263.661234 
L 93.524649 263.661234 
L 93.635843 260.162842 
L 94.129115 260.162842 
L 94.240309 256.650105 
L 94.723639 256.650105 
L 94.834833 253.345285 
L 95.36402 253.345285 
L 95.475214 250.494555 
L 95.981269 250.494555 
L 96.092463 247.741431 
L 96.485904 247.741431 
L 96.597098 244.571669 
L 97.133387 244.571669 
L 97.244581 242.427726 
L 97.741303 242.427726 
L 97.852497 240.208754 
L 98.317564 240.208754 
L 98.428759 237.949489 
L 98.867651 237.949489 
L 98.978845 235.671947 
L 99.514322 235.671947 
L 99.625516 234.204875 
L 100.094033 234.204875 
L 100.205228 232.381359 
L 100.671513 232.381359 
L 100.782707 230.667386 
L 101.354911 230.667386 
L 101.466105 229.85382 
L 102.018017 229.85382 
L 102.129212 228.954927 
L 102.592047 228.954927 
L 102.703241 227.449933 
L 103.198745 227.449933 
L 103.30994 226.302344 
L 103.747817 226.302344 
L 103.859012 224.779949 
L 104.314137 224.779949 
L 104.425331 223.497415 
L 106.062807 223.507246 
L 106.174001 226.078984 
L 106.679245 226.078984 
L 106.790439 225.107383 
L 107.272957 225.107383 
L 107.384151 224.023933 
L 107.738633 224.023933 
L 107.849828 221.960776 
L 108.385711 221.960776 
L 108.496905 221.547149 
L 109.809118 221.587213 
L 109.920312 221.862609 
L 111.0773 221.817555 
L 111.188494 220.832511 
L 111.625154 220.832511 
L 111.736348 219.657445 
L 112.224142 219.657445 
L 112.335336 219.004224 
L 112.750082 219.004224 
L 112.861276 217.755207 
L 113.238687 217.755207 
L 113.349881 216.248652 
L 113.804804 216.248652 
L 113.915998 215.539249 
L 114.480491 215.539249 
L 114.591685 215.877468 
L 115.687394 215.918977 
L 115.798588 215.18539 
L 116.204812 215.18539 
L 116.316007 214.096917 
L 116.721013 214.096917 
L 116.832207 213.064213 
L 117.915945 213.034929 
L 118.027139 212.668821 
L 118.437827 212.668821 
L 118.549021 211.778498 
L 119.155111 211.778498 
L 119.266305 212.810854 
L 119.715951 212.810854 
L 119.827145 212.28293 
L 120.924884 212.295269 
L 121.036078 212.129098 
L 121.569323 212.129098 
L 121.680517 212.443851 
L 122.748631 212.492576 
L 122.859825 211.98203 
L 123.38333 211.98203 
L 123.494524 212.215395 
L 123.97826 212.215395 
L 124.089454 212.052937 
L 124.60322 212.052937 
L 124.714414 212.188321 
L 125.137073 212.188321 
L 125.248268 211.443052 
L 125.645767 211.443052 
L 125.756961 210.500894 
L 126.203969 210.500894 
L 126.315164 210.101417 
L 127.344319 209.997064 
L 127.455513 209.597148 
L 128.546758 209.499922 
L 128.657952 209.772744 
L 129.690962 209.695257 
L 129.802156 209.349325 
L 130.244701 209.349325 
L 130.355895 208.982146 
L 130.914707 208.982146 
L 131.025901 209.788403 
L 131.436792 209.788403 
L 131.547986 209.079471 
L 131.861075 209.079471 
L 131.972269 207.432444 
L 132.350897 207.432444 
L 132.462092 206.54142 
L 132.870142 206.54142 
L 132.981336 206.005577 
L 133.302338 206.005577 
L 133.413532 204.597872 
L 133.816916 204.597872 
L 133.92811 204.133437 
L 134.283809 204.133437 
L 134.395004 203.192314 
L 134.702411 203.192314 
L 134.813605 201.783795 
L 135.169305 201.783795 
L 135.280499 200.97402 
L 135.647967 200.97402 
L 135.759161 200.338804 
L 136.095179 200.338804 
L 136.206373 199.391704 
L 136.43424 199.391704 
L 136.545434 197.275431 
L 136.827884 197.275431 
L 136.939078 195.877076 
L 137.229644 195.877076 
L 137.340838 194.63977 
L 137.673812 194.63977 
L 137.785006 193.962395 
L 138.040671 193.962395 
L 138.151865 192.401187 
L 138.544292 192.401187 
L 138.655486 192.555313 
L 138.903847 192.555313 
L 139.015041 190.967704 
L 139.365465 190.967704 
L 139.476659 190.698406 
L 139.746528 190.698406 
L 139.857722 189.45657 
L 140.019847 189.45657 
L 140.131041 186.919728 
L 140.394214 186.919728 
L 140.505408 185.765704 
L 140.812207 185.765704 
L 140.923401 185.225363 
L 141.246432 185.225363 
L 141.357626 184.921391 
L 141.727529 184.921391 
L 141.838724 185.236769 
L 142.261383 185.236769 
L 142.372577 186.207195 
L 142.669231 186.207195 
L 142.780425 185.514868 
L 143.105079 185.514868 
L 143.216273 185.216661 
L 143.624527 185.216661 
L 143.735721 186.004933 
L 143.947355 186.004933 
L 144.058549 184.226155 
L 144.314012 184.226155 
L 144.425206 183.092569 
L 144.7805 183.092569 
L 144.891694 183.32236 
L 145.109618 183.32236 
L 145.220812 181.731694 
L 145.486623 181.731694 
L 145.597817 180.846832 
L 145.971576 180.846832 
L 146.08277 181.448019 
L 146.301709 181.448019 
L 146.412903 179.945524 
L 146.727007 179.945524 
L 146.838201 179.796059 
L 147.102997 179.796059 
L 147.214191 178.985245 
L 147.54818 178.985245 
L 147.659374 179.155331 
L 147.814193 179.155331 
L 147.925388 176.858329 
L 148.200938 176.858329 
L 148.312132 176.330471 
L 148.598437 176.330471 
L 148.709631 175.977613 
L 148.991472 175.977613 
L 149.102666 175.579014 
L 149.355085 175.579014 
L 149.466279 174.784382 
L 150.006423 174.697774 
L 150.087587 53.568 
L 150.08779 295.488 
L 150.117212 295.488 
L 150.363746 295.488 
L 150.47494 289.44 
L 150.653703 289.44 
L 150.764897 283.604251 
L 151.027665 283.604251 
L 151.138859 278.091372 
L 151.389452 278.091372 
L 151.500646 272.801798 
L 151.663379 272.801798 
L 151.774573 267.506681 
L 152.077719 267.506681 
L 152.188913 262.851279 
L 152.370517 262.851279 
L 152.481711 257.959665 
L 152.791959 257.959665 
L 152.903153 253.810596 
L 153.253375 253.810596 
L 153.364569 250.065866 
L 153.723515 250.065866 
L 153.834709 246.57419 
L 154.017327 246.57419 
L 154.128521 242.265204 
L 154.550167 242.265204 
L 154.661361 239.599057 
L 154.851689 239.599057 
L 154.962884 235.589238 
L 155.491056 235.589238 
L 155.60225 234.078697 
L 156.582707 234.078697 
L 156.693901 235.758881 
L 213.279159 235.758881 
L 213.390353 289.384736 
L 213.768373 289.384736 
L 213.879567 283.693743 
L 214.35965 283.693743 
L 214.470844 278.474404 
L 215.077137 278.474404 
L 215.188331 273.865845 
L 216.371494 273.865845 
L 216.482688 271.005139 
L 217.064631 271.005139 
L 217.175825 266.961185 
L 217.756348 266.961185 
L 217.867543 263.243665 
L 218.309681 263.243665 
L 218.420876 259.320664 
L 218.944178 259.320664 
L 219.055372 255.992354 
L 219.679724 255.992354 
L 219.790918 253.366251 
L 220.503332 253.366251 
L 220.614526 251.382841 
L 221.088116 251.382841 
L 221.19931 248.400839 
L 221.745744 248.400839 
L 221.856938 246.017603 
L 222.342905 246.017603 
L 222.4541 243.478713 
L 223.044768 243.478713 
L 223.155962 241.739241 
L 223.848897 241.739241 
L 223.960091 240.761105 
L 224.714304 240.761105 
L 224.825498 240.248036 
L 226.186409 240.248036 
L 226.297604 243.363103 
L 226.880967 243.363103 
L 226.992161 241.590163 
L 227.500652 241.590163 
L 227.611846 239.504092 
L 228.086247 239.504092 
L 228.197441 237.353058 
L 228.717903 237.353058 
L 228.829097 235.657835 
L 229.506205 235.657835 
L 229.617399 235.147562 
L 230.224706 235.147562 
L 230.3359 234.21159 
L 230.994543 234.21159 
L 231.105737 233.708532 
L 231.591908 233.708532 
L 231.703102 232.044203 
L 232.227419 232.044203 
L 232.338613 230.774347 
L 232.814435 230.774347 
L 232.925629 229.241514 
L 233.51021 229.241514 
L 233.621404 228.635888 
L 234.176969 228.635888 
L 234.288164 227.860262 
L 234.877006 227.860262 
L 234.9882 227.400689 
L 235.526924 227.400689 
L 235.638118 226.592204 
L 236.168116 226.592204 
L 236.279311 225.777534 
L 236.96494 225.777534 
L 237.076135 226.248142 
L 237.600046 226.248142 
L 237.71124 225.411603 
L 238.283444 225.411603 
L 238.394638 225.022456 
L 238.94858 225.022456 
L 239.059774 224.518824 
L 239.759201 224.518824 
L 239.870396 225.216406 
L 240.667625 225.216406 
L 240.77882 226.609373 
L 241.245511 226.609373 
L 241.356705 225.295014 
L 242.052277 225.295014 
L 242.163471 225.888641 
L 242.608654 225.888641 
L 242.719848 224.451823 
L 243.193438 224.451823 
L 243.304632 223.341947 
L 243.975855 223.341947 
L 244.087049 223.924119 
L 244.733924 223.924119 
L 244.845118 224.257535 
L 246.030919 224.310955 
L 246.142113 223.091552 
L 246.600079 223.091552 
L 246.711273 221.946437 
L 247.18121 221.946437 
L 247.292404 220.979925 
L 247.681381 220.979925 
L 247.792575 219.38487 
L 248.27347 219.38487 
L 248.384664 218.690929 
L 248.896604 218.690929 
L 249.007798 218.318371 
L 249.470633 218.318371 
L 249.581828 217.539661 
L 250.191975 217.539661 
L 250.303169 218.120393 
L 250.835806 218.120393 
L 250.947 217.972473 
L 251.520218 217.972473 
L 251.631412 218.192961 
L 252.822692 218.256946 
L 252.933886 218.011166 
L 253.45313 218.011166 
L 253.564324 217.75339 
L 254.00971 217.75339 
L 254.120904 216.857374 
L 254.737545 216.857374 
L 254.848739 217.553659 
L 255.375491 217.553659 
L 255.486685 217.396746 
L 256.050164 217.396746 
L 256.161358 217.577608 
L 256.746953 217.577608 
L 256.858148 217.93915 
L 257.491224 217.93915 
L 257.602418 218.686071 
L 258.207696 218.686071 
L 258.31889 219.127137 
L 258.911385 219.127137 
L 259.022579 219.420743 
L 260.553325 219.531104 
L 260.664519 221.928968 
L 261.41995 221.928968 
L 261.531144 223.330449 
L 263.027193 223.39562 
L 263.138387 224.824885 
L 263.607919 224.824885 
L 263.719113 223.656193 
L 264.218269 223.656193 
L 264.329463 222.811836 
L 264.68496 222.811836 
L 264.796154 220.824842 
L 265.327167 220.824842 
L 265.438361 220.456885 
L 266.166196 220.456885 
L 266.277391 221.777785 
L 267.167756 221.777785 
L 267.27895 224.286802 
L 267.767352 224.286802 
L 267.878546 223.309197 
L 268.419096 223.309197 
L 268.53029 222.830553 
L 269.025185 222.830553 
L 269.13638 222.010616 
L 269.537531 222.010616 
L 269.648725 220.457513 
L 270.142606 220.457513 
L 270.2538 219.799623 
L 270.717041 219.799623 
L 270.828236 218.923297 
L 271.537606 218.923297 
L 271.6488 220.237556 
L 272.802947 220.259308 
L 272.914141 219.423376 
L 273.40092 219.423376 
L 273.512114 218.777976 
L 274.023039 218.777976 
L 274.134233 218.390104 
L 274.619186 218.390104 
L 274.73038 217.801976 
L 275.332817 217.801976 
L 275.444012 218.292843 
L 276.036912 218.292843 
L 276.148106 218.659274 
L 276.948785 218.659274 
L 277.05998 220.775756 
L 277.753726 220.775756 
L 277.86492 221.781771 
L 278.574696 221.781771 
L 278.68589 222.824498 
L 279.29969 222.824498 
L 279.410884 222.985718 
L 279.918157 222.985718 
L 280.029351 222.257148 
L 281.660537 222.274024 
L 281.771732 225.036928 
L 282.296049 225.036928 
L 282.407243 224.294811 
L 283.473733 224.294811 
L 283.584927 227.862463 
L 284.078199 227.862463 
L 284.189393 226.667901 
L 285.407254 226.715894 
L 285.518448 225.381404 
L 286.227209 225.381404 
L 286.338404 226.069917 
L 287.126503 226.069917 
L 287.237697 227.302641 
L 287.918254 227.302641 
L 288.029448 227.591994 
L 288.63919 227.591994 
L 288.750384 227.314768 
L 289.355053 227.314768 
L 289.466247 227.022106 
L 289.943895 227.022106 
L 290.055089 225.765401 
L 290.599495 225.765401 
L 290.710689 225.127791 
L 291.356143 225.127791 
L 291.467337 225.342658 
L 292.322801 225.342658 
L 292.433996 227.170646 
L 293.180701 227.170646 
L 293.291895 227.975251 
L 293.985439 227.975251 
L 294.096633 228.299992 
L 294.774146 228.299992 
L 294.88534 228.473789 
L 295.464849 228.473789 
L 295.576043 227.892779 
L 295.982876 227.892779 
L 296.09407 226.024248 
L 296.512874 226.024248 
L 296.624068 224.367303 
L 297.126471 224.367303 
L 297.237665 223.497814 
L 297.94805 223.497814 
L 298.059244 224.380333 
L 298.717887 224.380333 
L 298.829081 224.766912 
L 299.567873 224.766912 
L 299.679068 225.750558 
L 300.198515 225.750558 
L 300.309709 224.915993 
L 301.379649 224.875897 
L 301.490843 222.710205 
L 301.894632 222.710205 
L 302.005826 221.136508 
L 302.522027 221.136508 
L 302.633221 220.619357 
L 304.227681 220.708325 
L 304.338875 223.422417 
L 305.733672 223.492987 
L 305.844866 224.089058 
L 306.417679 224.089058 
L 306.528873 223.811632 
L 307.010782 223.811632 
L 307.121976 222.814586 
L 307.611799 222.814586 
L 307.722993 221.953632 
L 308.276732 221.953632 
L 308.387926 221.689767 
L 308.840413 221.689767 
L 308.951607 220.593128 
L 309.562972 220.593128 
L 309.674167 220.924471 
L 310.293242 220.924471 
L 310.404436 221.292362 
L 311.068558 221.292362 
L 311.179752 222.003908 
L 311.936806 222.003908 
L 312.048 223.411006 
L 312.674583 223.411006 
L 312.785777 223.625847 
L 313.291021 223.625847 
L 313.402215 222.833662 
L 313.928359 222.833662 
L 314.039553 222.272594 
L 314.958731 222.272594 
L 315.069925 224.953502 
L 316.274799 224.953502 
L 316.385993 229.463554 
L 316.942573 229.463554 
L 317.053767 228.630254 
L 317.61684 228.630254 
L 317.728034 227.912012 
L 318.145418 227.912012 
L 318.256612 226.124655 
L 318.742783 226.124655 
L 318.853977 224.998453 
L 319.285159 224.998453 
L 319.396353 223.506977 
L 320.138797 223.506977 
L 320.249991 224.64506 
L 320.721755 224.64506 
L 320.832949 223.506918 
L 322.875229 223.506918 
L 322.986423 234.233631 
L 323.468129 234.233631 
L 323.579324 232.500735 
L 324.031811 232.500735 
L 324.143005 230.678753 
L 324.630596 230.678753 
L 324.74179 229.239944 
L 325.156739 229.239944 
L 325.267933 227.350237 
L 325.824919 227.350237 
L 325.936113 226.686988 
L 326.866248 226.686988 
L 326.977442 228.923355 
L 327.962769 228.923355 
L 328.073963 231.287226 
L 328.530711 231.287226 
L 328.641905 229.578098 
L 329.235617 229.578098 
L 329.346812 229.012839 
L 329.921653 229.012839 
L 330.032847 228.352739 
L 330.592268 228.352739 
L 330.703462 227.62881 
L 331.544317 227.62881 
L 331.655511 229.091577 
L 332.414188 229.091577 
L 332.525383 229.791549 
L 333.872902 229.892762 
L 333.984096 228.975701 
L 334.672769 228.975701 
L 334.783964 229.169854 
L 335.204391 229.169854 
L 335.315585 227.326488 
L 335.806017 227.326488 
L 335.917211 226.148245 
L 336.38938 226.148245 
L 336.500575 224.90915 
L 338.115934 224.969644 
L 338.227128 227.033275 
L 339.136364 227.033275 
L 339.247558 229.072699 
L 339.728249 229.072699 
L 339.839444 227.69565 
L 340.26677 227.69565 
L 340.377964 225.999697 
L 340.877121 225.999697 
L 340.988315 224.985572 
L 341.400423 224.985572 
L 341.511617 223.339775 
L 341.932654 223.339775 
L 342.043848 221.871109 
L 342.582166 221.871109 
L 342.69336 221.484744 
L 343.161471 221.484744 
L 343.272665 220.534631 
L 344.285182 220.534631 
L 344.396376 224.177593 
L 345.135371 224.177593 
L 345.246565 225.221439 
L 345.895671 225.221439 
L 346.006865 225.45677 
L 346.4417 225.45677 
L 346.552894 223.965138 
L 347.030542 223.965138 
L 347.141736 222.922362 
L 347.624051 222.922362 
L 347.735245 221.991354 
L 348.471602 221.991354 
L 348.582796 223.231108 
L 349.14871 223.231108 
L 349.259904 222.966544 
L 350.677833 222.966544 
L 350.789027 229.371687 
L 351.412769 229.371687 
L 351.523964 229.047465 
L 352.13614 229.047465 
L 352.247335 228.664768 
L 352.75968 228.664768 
L 352.870874 227.558219 
L 353.369625 227.558219 
L 353.480819 226.428041 
L 354.33182 226.428041 
L 354.443014 228.100433 
L 355.156036 228.100433 
L 355.267231 228.559645 
L 355.973963 228.559645 
L 356.085157 228.927636 
L 356.594256 228.927636 
L 356.70545 227.776988 
L 357.171329 227.776988 
L 357.282524 226.376079 
L 357.825305 226.376079 
L 357.9365 225.67833 
L 358.433018 225.67833 
L 358.544212 224.666437 
L 359.06508 224.666437 
L 359.176274 223.924385 
L 363.562763 223.924385 
L 363.673957 248.322378 
L 364.087486 248.322378 
L 364.19868 245.227159 
L 364.593338 245.227159 
L 364.704532 242.216046 
L 365.208153 242.216046 
L 365.319347 240.054345 
L 366.782524 240.09251 
L 366.893719 238.184487 
L 367.900756 238.184487 
L 368.011951 239.511752 
L 368.56853 239.511752 
L 368.679724 237.884832 
L 369.251319 237.884832 
L 369.362513 236.484467 
L 369.899614 236.484467 
L 370.010808 234.966065 
L 370.442396 234.966065 
L 370.55359 232.833102 
L 370.926943 232.833102 
L 371.038137 230.416134 
L 372.085148 230.416134 
L 372.196342 233.021773 
L 373.778627 233.107251 
L 373.889821 233.293929 
L 374.330337 233.293929 
L 374.441531 231.333085 
L 375.020228 231.333085 
L 375.131422 230.512922 
L 375.616983 230.512922 
L 375.728177 229.070816 
L 376.556858 229.070816 
L 376.668052 230.285313 
L 380.035532 230.285313 
L 380.146726 246.965637 
L 380.703305 246.965637 
L 380.8145 244.749999 
L 381.345919 244.749999 
L 381.457113 242.564265 
L 382.205847 242.564265 
L 382.317041 241.836708 
L 382.87565 241.836708 
L 382.986844 240.038512 
L 383.720969 240.038512 
L 383.832164 239.475014 
L 385.58266 239.475014 
L 385.693855 244.907977 
L 386.19362 244.907977 
L 386.304814 242.527616 
L 386.721792 242.527616 
L 386.832986 239.816269 
L 387.214658 239.816269 
L 387.325852 237.048336 
L 387.848343 237.048336 
L 387.959537 235.389443 
L 388.542495 235.389443 
L 388.653689 234.267711 
L 389.31984 234.267711 
L 389.431034 233.811055 
L 392.664188 233.811055 
L 392.775382 248.591904 
L 393.294829 248.591904 
L 393.406023 246.049765 
L 393.91289 246.049765 
L 394.024084 243.626715 
L 395.014687 243.626715 
L 395.125881 244.161941 
L 395.725477 244.161941 
L 395.836671 242.417623 
L 396.993253 242.417623 
L 397.104447 244.044231 
L 397.628561 244.044231 
L 397.739756 241.869428 
L 398.204417 241.869428 
L 398.315612 239.493846 
L 398.487273 239.493846 
L 398.487273 239.493846 
" style="fill:none;stroke:#1f77b4;stroke-linecap:square;stroke-width:1.5;"/>
   </g>
   <g id="patch_3">
    <path d="M 57.6 307.584 
L 57.6 41.472 
" style="fill:none;stroke:#000000;stroke-linecap:square;stroke-linejoin:miter;stroke-width:0.8;"/>
   </g>
   <g id="patch_4">
    <path d="M 414.72 307.584 
L 414.72 41.472 
" style="fill:none;stroke:#000000;stroke-linecap:square;stroke-linejoin:miter;stroke-width:0.8;"/>
   </g>
   <g id="patch_5">
    <path d="M 57.6 307.584 
L 414.72 307.584 
" style="fill:none;stroke:#000000;stroke-linecap:square;stroke-linejoin:miter;stroke-width:0.8;"/>
   </g>
   <g id="patch_6">
    <path d="M 57.6 41.472 
L 414.72 41.472 
" style="fill:none;stroke:#000000;stroke-linecap:square;stroke-linejoin:miter;stroke-width:0.8;"/>
   </g>
   <g id="text_19">
    <!-- Checker on LTS -->
    <defs>
     <path d="M 64.40625 67.28125 
L 64.40625 56.890625 
Q 59.421875 61.53125 53.78125 63.8125 
Q 48.140625 66.109375 41.796875 66.109375 
Q 29.296875 66.109375 22.65625 58.46875 
Q 16.015625 50.828125 16.015625 36.375 
Q 16.015625 21.96875 22.65625 14.328125 
Q 29.296875 6.6875 41.796875 6.6875 
Q 48.140625 6.6875 53.78125 8.984375 
Q 59.421875 11.28125 64.40625 15.921875 
L 64.40625 5.609375 
Q 59.234375 2.09375 53.4375 0.328125 
Q 47.65625 -1.421875 41.21875 -1.421875 
Q 24.65625 -1.421875 15.125 8.703125 
Q 5.609375 18.84375 5.609375 36.375 
Q 5.609375 53.953125 15.125 64.078125 
Q 24.65625 74.21875 41.21875 74.21875 
Q 47.75 74.21875 53.53125 72.484375 
Q 59.328125 70.75 64.40625 67.28125 
z
" id="DejaVuSans-43"/>
     <path d="M 54.890625 33.015625 
L 54.890625 0 
L 45.90625 0 
L 45.90625 32.71875 
Q 45.90625 40.484375 42.875 44.328125 
Q 39.84375 48.1875 33.796875 48.1875 
Q 26.515625 48.1875 22.3125 43.546875 
Q 18.109375 38.921875 18.109375 30.90625 
L 18.109375 0 
L 9.078125 0 
L 9.078125 75.984375 
L 18.109375 75.984375 
L 18.109375 46.1875 
Q 21.34375 51.125 25.703125 53.5625 
Q 30.078125 56 35.796875 56 
Q 45.21875 56 50.046875 50.171875 
Q 54.890625 44.34375 54.890625 33.015625 
z
" id="DejaVuSans-68"/>
     <path d="M 56.203125 29.59375 
L 56.203125 25.203125 
L 14.890625 25.203125 
Q 15.484375 15.921875 20.484375 11.0625 
Q 25.484375 6.203125 34.421875 6.203125 
Q 39.59375 6.203125 44.453125 7.46875 
Q 49.3125 8.734375 54.109375 11.28125 
L 54.109375 2.78125 
Q 49.265625 0.734375 44.1875 -0.34375 
Q 39.109375 -1.421875 33.890625 -1.421875 
Q 20.796875 -1.421875 13.15625 6.1875 
Q 5.515625 13.8125 5.515625 26.8125 
Q 5.515625 40.234375 12.765625 48.109375 
Q 20.015625 56 32.328125 56 
Q 43.359375 56 49.78125 48.890625 
Q 56.203125 41.796875 56.203125 29.59375 
z
M 47.21875 32.234375 
Q 47.125 39.59375 43.09375 43.984375 
Q 39.0625 48.390625 32.421875 48.390625 
Q 24.90625 48.390625 20.390625 44.140625 
Q 15.875 39.890625 15.1875 32.171875 
z
" id="DejaVuSans-65"/>
     <path d="M 48.78125 52.59375 
L 48.78125 44.1875 
Q 44.96875 46.296875 41.140625 47.34375 
Q 37.3125 48.390625 33.40625 48.390625 
Q 24.65625 48.390625 19.8125 42.84375 
Q 14.984375 37.3125 14.984375 27.296875 
Q 14.984375 17.28125 19.8125 11.734375 
Q 24.65625 6.203125 33.40625 6.203125 
Q 37.3125 6.203125 41.140625 7.25 
Q 44.96875 8.296875 48.78125 10.40625 
L 48.78125 2.09375 
Q 45.015625 0.34375 40.984375 -0.53125 
Q 36.96875 -1.421875 32.421875 -1.421875 
Q 20.0625 -1.421875 12.78125 6.34375 
Q 5.515625 14.109375 5.515625 27.296875 
Q 5.515625 40.671875 12.859375 48.328125 
Q 20.21875 56 33.015625 56 
Q 37.15625 56 41.109375 55.140625 
Q 45.0625 54.296875 48.78125 52.59375 
z
" id="DejaVuSans-63"/>
     <path d="M 9.078125 75.984375 
L 18.109375 75.984375 
L 18.109375 31.109375 
L 44.921875 54.6875 
L 56.390625 54.6875 
L 27.390625 29.109375 
L 57.625 0 
L 45.90625 0 
L 18.109375 26.703125 
L 18.109375 0 
L 9.078125 0 
z
" id="DejaVuSans-6b"/>
     <path d="M 41.109375 46.296875 
Q 39.59375 47.171875 37.8125 47.578125 
Q 36.03125 48 33.890625 48 
Q 26.265625 48 22.1875 43.046875 
Q 18.109375 38.09375 18.109375 28.8125 
L 18.109375 0 
L 9.078125 0 
L 9.078125 54.6875 
L 18.109375 54.6875 
L 18.109375 46.1875 
Q 20.953125 51.171875 25.484375 53.578125 
Q 30.03125 56 36.53125 56 
Q 37.453125 56 38.578125 55.875 
Q 39.703125 55.765625 41.0625 55.515625 
z
" id="DejaVuSans-72"/>
     <path id="DejaVuSans-20"/>
     <path d="M 30.609375 48.390625 
Q 23.390625 48.390625 19.1875 42.75 
Q 14.984375 37.109375 14.984375 27.296875 
Q 14.984375 17.484375 19.15625 11.84375 
Q 23.34375 6.203125 30.609375 6.203125 
Q 37.796875 6.203125 41.984375 11.859375 
Q 46.1875 17.53125 46.1875 27.296875 
Q 46.1875 37.015625 41.984375 42.703125 
Q 37.796875 48.390625 30.609375 48.390625 
z
M 30.609375 56 
Q 42.328125 56 49.015625 48.375 
Q 55.71875 40.765625 55.71875 27.296875 
Q 55.71875 13.875 49.015625 6.21875 
Q 42.328125 -1.421875 30.609375 -1.421875 
Q 18.84375 -1.421875 12.171875 6.21875 
Q 5.515625 13.875 5.515625 27.296875 
Q 5.515625 40.765625 12.171875 48.375 
Q 18.84375 56 30.609375 56 
z
" id="DejaVuSans-6f"/>
     <path d="M 54.890625 33.015625 
L 54.890625 0 
L 45.90625 0 
L 45.90625 32.71875 
Q 45.90625 40.484375 42.875 44.328125 
Q 39.84375 48.1875 33.796875 48.1875 
Q 26.515625 48.1875 22.3125 43.546875 
Q 18.109375 38.921875 18.109375 30.90625 
L 18.109375 0 
L 9.078125 0 
L 9.078125 54.6875 
L 18.109375 54.6875 
L 18.109375 46.1875 
Q 21.34375 51.125 25.703125 53.5625 
Q 30.078125 56 35.796875 56 
Q 45.21875 56 50.046875 50.171875 
Q 54.890625 44.34375 54.890625 33.015625 
z
" id="DejaVuSans-6e"/>
     <path d="M 9.8125 72.90625 
L 19.671875 72.90625 
L 19.671875 8.296875 
L 55.171875 8.296875 
L 55.171875 0 
L 9.8125 0 
z
" id="DejaVuSans-4c"/>
     <path d="M -0.296875 72.90625 
L 61.375 72.90625 
L 61.375 64.59375 
L 35.5 64.59375 
L 35.5 0 
L 25.59375 0 
L 25.59375 64.59375 
L -0.296875 64.59375 
z
" id="DejaVuSans-54"/>
     <path d="M 53.515625 70.515625 
L 53.515625 60.890625 
Q 47.90625 63.578125 42.921875 64.890625 
Q 37.9375 66.21875 33.296875 66.21875 
Q 25.25 66.21875 20.875 63.09375 
Q 16.5 59.96875 16.5 54.203125 
Q 16.5 49.359375 19.40625 46.890625 
Q 22.3125 44.4375 30.421875 42.921875 
L 36.375 41.703125 
Q 47.40625 39.59375 52.65625 34.296875 
Q 57.90625 29 57.90625 20.125 
Q 57.90625 9.515625 50.796875 4.046875 
Q 43.703125 -1.421875 29.984375 -1.421875 
Q 24.8125 -1.421875 18.96875 -0.25 
Q 13.140625 0.921875 6.890625 3.21875 
L 6.890625 13.375 
Q 12.890625 10.015625 18.65625 8.296875 
Q 24.421875 6.59375 29.984375 6.59375 
Q 38.421875 6.59375 43.015625 9.90625 
Q 47.609375 13.234375 47.609375 19.390625 
Q 47.609375 24.75 44.3125 27.78125 
Q 41.015625 30.8125 33.5 32.328125 
L 27.484375 33.5 
Q 16.453125 35.6875 11.515625 40.375 
Q 6.59375 45.0625 6.59375 53.421875 
Q 6.59375 63.09375 13.40625 68.65625 
Q 20.21875 74.21875 32.171875 74.21875 
Q 37.3125 74.21875 42.625 73.28125 
Q 47.953125 72.359375 53.515625 70.515625 
z
" id="DejaVuSans-53"/>
    </defs>
    <g transform="translate(189.454688 35.472)scale(0.12 -0.12)">
     <use xlink:href="#DejaVuSans-43"/>
     <use x="69.824219" xlink:href="#DejaVuSans-68"/>
     <use x="133.203125" xlink:href="#DejaVuSans-65"/>
     <use x="194.726562" xlink:href="#DejaVuSans-63"/>
     <use x="249.707031" xlink:href="#DejaVuSans-6b"/>
     <use x="307.570312" xlink:href="#DejaVuSans-65"/>
     <use x="369.09375" xlink:href="#DejaVuSans-72"/>
     <use x="410.207031" xlink:href="#DejaVuSans-20"/>
     <use x="441.994141" xlink:href="#DejaVuSans-6f"/>
     <use x="503.175781" xlink:href="#DejaVuSans-6e"/>
     <use x="566.554688" xlink:href="#DejaVuSans-20"/>
     <use x="598.341797" xlink:href="#DejaVuSans-4c"/>
     <use x="653.851562" xlink:href="#DejaVuSans-54"/>
     <use x="714.935547" xlink:href="#DejaVuSans-53"/>
    </g>
   </g>
   <g id="legend_1">
    <g id="patch_7">
     <path d="M 357.712188 64.150125 
L 407.72 64.150125 
Q 409.72 64.150125 409.72 62.150125 
L 409.72 48.472 
Q 409.72 46.472 407.72 46.472 
L 357.712188 46.472 
Q 355.712188 46.472 355.712188 48.472 
L 355.712188 62.150125 
Q 355.712188 64.150125 357.712188 64.150125 
z
" style="fill:#ffffff;opacity:0.8;stroke:#cccccc;stroke-linejoin:miter;"/>
    </g>
    <g id="line2d_20">
     <path d="M 359.712188 54.570438 
L 379.712188 54.570438 
" style="fill:none;stroke:#1f77b4;stroke-linecap:square;stroke-width:1.5;"/>
    </g>
    <g id="line2d_21"/>
    <g id="text_20">
     <!-- LTS -->
     <g transform="translate(387.712188 58.070438)scale(0.1 -0.1)">
      <use xlink:href="#DejaVuSans-4c"/>
      <use x="55.509766" xlink:href="#DejaVuSans-54"/>
      <use x="116.59375" xlink:href="#DejaVuSans-53"/>
     </g>
    </g>
   </g>
  </g>
 </g>
 <defs>
  <clipPath id="pf075a151a7">
   <rect height="266.112" width="357.12" x="57.6" y="41.472"/>
  </clipPath>
 </defs>
</svg>
