<?xml version="1.0" encoding="utf-8" standalone="no"?>
<!DOCTYPE svg PUBLIC "-//W3C//DTD SVG 1.1//EN"
  "http://www.w3.org/Graphics/SVG/1.1/DTD/svg11.dtd">
<!-- Created with matplotlib (http://matplotlib.org/) -->
<svg height="345.6pt" version="1.1" viewBox="0 0 460.8 345.6" width="460.8pt" xmlns="http://www.w3.org/2000/svg" xmlns:xlink="http://www.w3.org/1999/xlink">
 <defs>
  <style type="text/css">
*{stroke-linecap:butt;stroke-linejoin:round;}
  </style>
 </defs>
 <g id="figure_1">
  <g id="patch_1">
   <path d="M 0 345.6 
L 460.8 345.6 
L 460.8 0 
L 0 0 
z
" style="fill:#ffffff;"/>
  </g>
  <g id="axes_1">
   <g id="patch_2">
    <path d="M 57.6 307.584 
L 414.72 307.584 
L 414.72 41.472 
L 57.6 41.472 
z
" style="fill:#ffffff;"/>
   </g>
   <g id="matplotlib.axis_1">
    <g id="xtick_1">
     <g id="line2d_1">
      <defs>
       <path d="M 0 0 
L 0 3.5 
" id="m68ef2a2d28" style="stroke:#000000;stroke-width:0.8;"/>
      </defs>
      <g>
       <use style="stroke:#000000;stroke-width:0.8;" x="73.832727" xlink:href="#m68ef2a2d28" y="307.584"/>
      </g>
     </g>
     <g id="text_1">
      <!-- 0 -->
      <defs>
       <path d="M 31.78125 66.40625 
Q 24.171875 66.40625 20.328125 58.90625 
Q 16.5 51.421875 16.5 36.375 
Q 16.5 21.390625 20.328125 13.890625 
Q 24.171875 6.390625 31.78125 6.390625 
Q 39.453125 6.390625 43.28125 13.890625 
Q 47.125 21.390625 47.125 36.375 
Q 47.125 51.421875 43.28125 58.90625 
Q 39.453125 66.40625 31.78125 66.40625 
z
M 31.78125 74.21875 
Q 44.046875 74.21875 50.515625 64.515625 
Q 56.984375 54.828125 56.984375 36.375 
Q 56.984375 17.96875 50.515625 8.265625 
Q 44.046875 -1.421875 31.78125 -1.421875 
Q 19.53125 -1.421875 13.0625 8.265625 
Q 6.59375 17.96875 6.59375 36.375 
Q 6.59375 54.828125 13.0625 64.515625 
Q 19.53125 74.21875 31.78125 74.21875 
z
" id="DejaVuSans-30"/>
      </defs>
      <g transform="translate(70.651477 322.182437)scale(0.1 -0.1)">
       <use xlink:href="#DejaVuSans-30"/>
      </g>
     </g>
    </g>
    <g id="xtick_2">
     <g id="line2d_2">
      <g>
       <use style="stroke:#000000;stroke-width:0.8;" x="138.763636" xlink:href="#m68ef2a2d28" y="307.584"/>
      </g>
     </g>
     <g id="text_2">
      <!-- 10000 -->
      <defs>
       <path d="M 12.40625 8.296875 
L 28.515625 8.296875 
L 28.515625 63.921875 
L 10.984375 60.40625 
L 10.984375 69.390625 
L 28.421875 72.90625 
L 38.28125 72.90625 
L 38.28125 8.296875 
L 54.390625 8.296875 
L 54.390625 0 
L 12.40625 0 
z
" id="DejaVuSans-31"/>
      </defs>
      <g transform="translate(122.857386 322.182437)scale(0.1 -0.1)">
       <use xlink:href="#DejaVuSans-31"/>
       <use x="63.623047" xlink:href="#DejaVuSans-30"/>
       <use x="127.246094" xlink:href="#DejaVuSans-30"/>
       <use x="190.869141" xlink:href="#DejaVuSans-30"/>
       <use x="254.492188" xlink:href="#DejaVuSans-30"/>
      </g>
     </g>
    </g>
    <g id="xtick_3">
     <g id="line2d_3">
      <g>
       <use style="stroke:#000000;stroke-width:0.8;" x="203.694545" xlink:href="#m68ef2a2d28" y="307.584"/>
      </g>
     </g>
     <g id="text_3">
      <!-- 20000 -->
      <defs>
       <path d="M 19.1875 8.296875 
L 53.609375 8.296875 
L 53.609375 0 
L 7.328125 0 
L 7.328125 8.296875 
Q 12.9375 14.109375 22.625 23.890625 
Q 32.328125 33.6875 34.8125 36.53125 
Q 39.546875 41.84375 41.421875 45.53125 
Q 43.3125 49.21875 43.3125 52.78125 
Q 43.3125 58.59375 39.234375 62.25 
Q 35.15625 65.921875 28.609375 65.921875 
Q 23.96875 65.921875 18.8125 64.3125 
Q 13.671875 62.703125 7.8125 59.421875 
L 7.8125 69.390625 
Q 13.765625 71.78125 18.9375 73 
Q 24.125 74.21875 28.421875 74.21875 
Q 39.75 74.21875 46.484375 68.546875 
Q 53.21875 62.890625 53.21875 53.421875 
Q 53.21875 48.921875 51.53125 44.890625 
Q 49.859375 40.875 45.40625 35.40625 
Q 44.1875 33.984375 37.640625 27.21875 
Q 31.109375 20.453125 19.1875 8.296875 
z
" id="DejaVuSans-32"/>
      </defs>
      <g transform="translate(187.788295 322.182437)scale(0.1 -0.1)">
       <use xlink:href="#DejaVuSans-32"/>
       <use x="63.623047" xlink:href="#DejaVuSans-30"/>
       <use x="127.246094" xlink:href="#DejaVuSans-30"/>
       <use x="190.869141" xlink:href="#DejaVuSans-30"/>
       <use x="254.492188" xlink:href="#DejaVuSans-30"/>
      </g>
     </g>
    </g>
    <g id="xtick_4">
     <g id="line2d_4">
      <g>
       <use style="stroke:#000000;stroke-width:0.8;" x="268.625455" xlink:href="#m68ef2a2d28" y="307.584"/>
      </g>
     </g>
     <g id="text_4">
      <!-- 30000 -->
      <defs>
       <path d="M 40.578125 39.3125 
Q 47.65625 37.796875 51.625 33 
Q 55.609375 28.21875 55.609375 21.1875 
Q 55.609375 10.40625 48.1875 4.484375 
Q 40.765625 -1.421875 27.09375 -1.421875 
Q 22.515625 -1.421875 17.65625 -0.515625 
Q 12.796875 0.390625 7.625 2.203125 
L 7.625 11.71875 
Q 11.71875 9.328125 16.59375 8.109375 
Q 21.484375 6.890625 26.8125 6.890625 
Q 36.078125 6.890625 40.9375 10.546875 
Q 45.796875 14.203125 45.796875 21.1875 
Q 45.796875 27.640625 41.28125 31.265625 
Q 36.765625 34.90625 28.71875 34.90625 
L 20.21875 34.90625 
L 20.21875 43.015625 
L 29.109375 43.015625 
Q 36.375 43.015625 40.234375 45.921875 
Q 44.09375 48.828125 44.09375 54.296875 
Q 44.09375 59.90625 40.109375 62.90625 
Q 36.140625 65.921875 28.71875 65.921875 
Q 24.65625 65.921875 20.015625 65.03125 
Q 15.375 64.15625 9.8125 62.3125 
L 9.8125 71.09375 
Q 15.4375 72.65625 20.34375 73.4375 
Q 25.25 74.21875 29.59375 74.21875 
Q 40.828125 74.21875 47.359375 69.109375 
Q 53.90625 64.015625 53.90625 55.328125 
Q 53.90625 49.265625 50.4375 45.09375 
Q 46.96875 40.921875 40.578125 39.3125 
z
" id="DejaVuSans-33"/>
      </defs>
      <g transform="translate(252.719205 322.182437)scale(0.1 -0.1)">
       <use xlink:href="#DejaVuSans-33"/>
       <use x="63.623047" xlink:href="#DejaVuSans-30"/>
       <use x="127.246094" xlink:href="#DejaVuSans-30"/>
       <use x="190.869141" xlink:href="#DejaVuSans-30"/>
       <use x="254.492188" xlink:href="#DejaVuSans-30"/>
      </g>
     </g>
    </g>
    <g id="xtick_5">
     <g id="line2d_5">
      <g>
       <use style="stroke:#000000;stroke-width:0.8;" x="333.556364" xlink:href="#m68ef2a2d28" y="307.584"/>
      </g>
     </g>
     <g id="text_5">
      <!-- 40000 -->
      <defs>
       <path d="M 37.796875 64.3125 
L 12.890625 25.390625 
L 37.796875 25.390625 
z
M 35.203125 72.90625 
L 47.609375 72.90625 
L 47.609375 25.390625 
L 58.015625 25.390625 
L 58.015625 17.1875 
L 47.609375 17.1875 
L 47.609375 0 
L 37.796875 0 
L 37.796875 17.1875 
L 4.890625 17.1875 
L 4.890625 26.703125 
z
" id="DejaVuSans-34"/>
      </defs>
      <g transform="translate(317.650114 322.182437)scale(0.1 -0.1)">
       <use xlink:href="#DejaVuSans-34"/>
       <use x="63.623047" xlink:href="#DejaVuSans-30"/>
       <use x="127.246094" xlink:href="#DejaVuSans-30"/>
       <use x="190.869141" xlink:href="#DejaVuSans-30"/>
       <use x="254.492188" xlink:href="#DejaVuSans-30"/>
      </g>
     </g>
    </g>
    <g id="xtick_6">
     <g id="line2d_6">
      <g>
       <use style="stroke:#000000;stroke-width:0.8;" x="398.487273" xlink:href="#m68ef2a2d28" y="307.584"/>
      </g>
     </g>
     <g id="text_6">
      <!-- 50000 -->
      <defs>
       <path d="M 10.796875 72.90625 
L 49.515625 72.90625 
L 49.515625 64.59375 
L 19.828125 64.59375 
L 19.828125 46.734375 
Q 21.96875 47.46875 24.109375 47.828125 
Q 26.265625 48.1875 28.421875 48.1875 
Q 40.625 48.1875 47.75 41.5 
Q 54.890625 34.8125 54.890625 23.390625 
Q 54.890625 11.625 47.5625 5.09375 
Q 40.234375 -1.421875 26.90625 -1.421875 
Q 22.3125 -1.421875 17.546875 -0.640625 
Q 12.796875 0.140625 7.71875 1.703125 
L 7.71875 11.625 
Q 12.109375 9.234375 16.796875 8.0625 
Q 21.484375 6.890625 26.703125 6.890625 
Q 35.15625 6.890625 40.078125 11.328125 
Q 45.015625 15.765625 45.015625 23.390625 
Q 45.015625 31 40.078125 35.4375 
Q 35.15625 39.890625 26.703125 39.890625 
Q 22.75 39.890625 18.8125 39.015625 
Q 14.890625 38.140625 10.796875 36.28125 
z
" id="DejaVuSans-35"/>
      </defs>
      <g transform="translate(382.581023 322.182437)scale(0.1 -0.1)">
       <use xlink:href="#DejaVuSans-35"/>
       <use x="63.623047" xlink:href="#DejaVuSans-30"/>
       <use x="127.246094" xlink:href="#DejaVuSans-30"/>
       <use x="190.869141" xlink:href="#DejaVuSans-30"/>
       <use x="254.492188" xlink:href="#DejaVuSans-30"/>
      </g>
     </g>
    </g>
   </g>
   <g id="matplotlib.axis_2">
    <g id="ytick_1">
     <g id="line2d_7">
      <defs>
       <path d="M 0 0 
L -3.5 0 
" id="mef1c276aec" style="stroke:#000000;stroke-width:0.8;"/>
      </defs>
      <g>
       <use style="stroke:#000000;stroke-width:0.8;" x="57.6" xlink:href="#mef1c276aec" y="295.488"/>
      </g>
     </g>
     <g id="text_7">
      <!-- 0.00000 -->
      <defs>
       <path d="M 10.6875 12.40625 
L 21 12.40625 
L 21 0 
L 10.6875 0 
z
" id="DejaVuSans-2e"/>
      </defs>
      <g transform="translate(9.246875 299.287219)scale(0.1 -0.1)">
       <use xlink:href="#DejaVuSans-30"/>
       <use x="63.623047" xlink:href="#DejaVuSans-2e"/>
       <use x="95.410156" xlink:href="#DejaVuSans-30"/>
       <use x="159.033203" xlink:href="#DejaVuSans-30"/>
       <use x="222.65625" xlink:href="#DejaVuSans-30"/>
       <use x="286.279297" xlink:href="#DejaVuSans-30"/>
       <use x="349.902344" xlink:href="#DejaVuSans-30"/>
      </g>
     </g>
    </g>
    <g id="ytick_2">
     <g id="line2d_8">
      <g>
       <use style="stroke:#000000;stroke-width:0.8;" x="57.6" xlink:href="#mef1c276aec" y="241.728"/>
      </g>
     </g>
     <g id="text_8">
      <!-- 0.00001 -->
      <g transform="translate(9.246875 245.527219)scale(0.1 -0.1)">
       <use xlink:href="#DejaVuSans-30"/>
       <use x="63.623047" xlink:href="#DejaVuSans-2e"/>
       <use x="95.410156" xlink:href="#DejaVuSans-30"/>
       <use x="159.033203" xlink:href="#DejaVuSans-30"/>
       <use x="222.65625" xlink:href="#DejaVuSans-30"/>
       <use x="286.279297" xlink:href="#DejaVuSans-30"/>
       <use x="349.902344" xlink:href="#DejaVuSans-31"/>
      </g>
     </g>
    </g>
    <g id="ytick_3">
     <g id="line2d_9">
      <g>
       <use style="stroke:#000000;stroke-width:0.8;" x="57.6" xlink:href="#mef1c276aec" y="187.968"/>
      </g>
     </g>
     <g id="text_9">
      <!-- 0.00002 -->
      <g transform="translate(9.246875 191.767219)scale(0.1 -0.1)">
       <use xlink:href="#DejaVuSans-30"/>
       <use x="63.623047" xlink:href="#DejaVuSans-2e"/>
       <use x="95.410156" xlink:href="#DejaVuSans-30"/>
       <use x="159.033203" xlink:href="#DejaVuSans-30"/>
       <use x="222.65625" xlink:href="#DejaVuSans-30"/>
       <use x="286.279297" xlink:href="#DejaVuSans-30"/>
       <use x="349.902344" xlink:href="#DejaVuSans-32"/>
      </g>
     </g>
    </g>
    <g id="ytick_4">
     <g id="line2d_10">
      <g>
       <use style="stroke:#000000;stroke-width:0.8;" x="57.6" xlink:href="#mef1c276aec" y="134.208"/>
      </g>
     </g>
     <g id="text_10">
      <!-- 0.00003 -->
      <g transform="translate(9.246875 138.007219)scale(0.1 -0.1)">
       <use xlink:href="#DejaVuSans-30"/>
       <use x="63.623047" xlink:href="#DejaVuSans-2e"/>
       <use x="95.410156" xlink:href="#DejaVuSans-30"/>
       <use x="159.033203" xlink:href="#DejaVuSans-30"/>
       <use x="222.65625" xlink:href="#DejaVuSans-30"/>
       <use x="286.279297" xlink:href="#DejaVuSans-30"/>
       <use x="349.902344" xlink:href="#DejaVuSans-33"/>
      </g>
     </g>
    </g>
    <g id="ytick_5">
     <g id="line2d_11">
      <g>
       <use style="stroke:#000000;stroke-width:0.8;" x="57.6" xlink:href="#mef1c276aec" y="80.448"/>
      </g>
     </g>
     <g id="text_11">
      <!-- 0.00004 -->
      <g transform="translate(9.246875 84.247219)scale(0.1 -0.1)">
       <use xlink:href="#DejaVuSans-30"/>
       <use x="63.623047" xlink:href="#DejaVuSans-2e"/>
       <use x="95.410156" xlink:href="#DejaVuSans-30"/>
       <use x="159.033203" xlink:href="#DejaVuSans-30"/>
       <use x="222.65625" xlink:href="#DejaVuSans-30"/>
       <use x="286.279297" xlink:href="#DejaVuSans-30"/>
       <use x="349.902344" xlink:href="#DejaVuSans-34"/>
      </g>
     </g>
    </g>
   </g>
   <g id="line2d_12">
    <path clip-path="url(#p7f1a4911cc)" d="M 73.832727 53.568 
L 73.943921 295.488 
L 74.14261 295.378503 
L 74.637546 273.824332 
L 75.192867 252.182652 
L 75.647871 230.82856 
L 75.83471 220.828732 
L 76.276077 195.670532 
L 76.591317 178.596792 
L 77.003466 157.552922 
L 77.297765 143.638535 
L 77.686701 125.528091 
L 77.998045 119.526948 
L 78.01931 118.259695 
L 78.394286 101.492743 
L 78.685988 96.45996 
L 78.82283 95.963026 
L 78.858704 96.001043 
L 78.959185 96.44625 
L 79.148783 98.499679 
L 79.157386 98.626581 
L 79.187092 97.439201 
L 79.507851 89.347134 
L 79.722935 87.983782 
L 79.787379 88.094566 
L 79.914319 88.921289 
L 80.14109 92.131406 
L 80.510871 101.005793 
L 81.138591 122.253341 
L 81.341175 129.961756 
L 81.422501 128.720951 
L 81.654954 127.16287 
L 81.700081 127.163635 
L 81.739039 127.235424 
L 81.865168 127.888275 
L 82.090153 130.44282 
L 82.457175 137.536443 
L 83.078402 154.521912 
L 84.479611 198.10412 
L 84.561748 196.080089 
L 84.896954 191.026024 
L 85.132978 189.991392 
L 85.209597 190.017085 
L 85.232809 190.056022 
L 85.374683 190.583487 
L 85.619635 192.506861 
L 86.016688 197.651775 
L 86.708202 209.981133 
L 87.393548 223.557063 
L 87.437538 222.003707 
L 87.832318 212.331588 
L 88.151941 209.00749 
L 88.366375 208.462227 
L 88.467018 208.58343 
L 88.635838 209.244017 
L 88.91845 211.401437 
L 89.3767 216.866548 
L 90.252943 230.518409 
L 90.789759 239.27098 
L 90.82125 238.030868 
L 91.240379 226.168795 
L 91.593928 221.504144 
L 91.856087 220.339759 
L 91.961112 220.30597 
L 91.993253 220.338771 
L 92.138211 220.714506 
L 92.383975 222.085065 
L 92.781514 225.753537 
L 93.473516 234.546099 
L 94.093443 243.300041 
L 94.124286 242.026893 
L 94.550395 229.296597 
L 94.913521 224.121717 
L 95.189153 222.711139 
L 95.311872 222.628513 
L 95.34385 222.65464 
L 95.482803 222.974865 
L 95.718826 224.185939 
L 96.100783 227.48615 
L 96.754961 235.382985 
L 97.28707 242.631443 
L 97.317263 241.373922 
L 97.74321 228.53043 
L 98.106011 223.314117 
L 98.381318 221.893886 
L 98.503064 221.81104 
L 98.535529 221.837719 
L 98.674157 222.160424 
L 98.909856 223.381855 
L 99.291487 226.713339 
L 99.944855 234.684956 
L 100.681334 244.848261 
L 100.713474 243.512611 
L 101.141531 230.628056 
L 101.507255 225.346105 
L 101.786458 223.874571 
L 101.91567 223.777077 
L 101.946188 223.800461 
L 102.083679 224.104263 
L 102.317105 225.26566 
L 102.695003 228.448154 
L 103.339605 236.063409 
L 104.203024 247.648399 
L 104.235489 246.284133 
L 104.667117 233.107501 
L 105.037711 227.619964 
L 105.323731 226.029588 
L 105.46593 225.90103 
L 105.492714 225.918973 
L 105.627121 226.190729 
L 105.854866 227.254479 
L 106.223836 230.204708 
L 106.848147 237.270159 
L 107.578782 246.763934 
L 107.610435 245.425436 
L 108.041414 232.184671 
L 108.411196 226.682473 
L 108.69608 225.096879 
L 108.836006 224.971824 
L 108.863602 224.99075 
L 108.998009 225.267898 
L 109.226079 226.350327 
L 109.595698 229.350221 
L 110.22147 236.533832 
L 110.890258 245.335136 
L 110.921587 244.016583 
L 111.350943 230.90612 
L 111.718289 225.502753 
L 111.999927 223.974888 
L 112.133198 223.865536 
L 112.162742 223.887177 
L 112.298609 224.180043 
L 112.529439 225.310882 
L 112.903279 228.425456 
L 113.538627 235.879803 
L 114.907209 254.004118 
L 114.939999 252.60059 
L 115.379256 238.849529 
L 115.760563 232.924693 
L 116.061518 231.064662 
L 116.237643 230.851352 
L 116.251279 230.857662 
L 116.37903 231.059585 
L 116.59249 231.905553 
L 116.939222 234.332277 
L 117.515808 240.179624 
L 118.306179 249.653716 
L 118.338483 248.259111 
L 118.77352 234.569895 
L 119.14882 228.779916 
L 119.441496 227.037208 
L 119.597655 226.869469 
L 119.619732 226.88222 
L 119.750081 227.123012 
L 119.970521 228.095363 
L 120.32829 230.836413 
L 120.928252 237.417259 
L 121.363127 242.915304 
L 121.391372 241.71386 
L 121.818942 228.510313 
L 122.184016 223.107989 
L 122.462245 221.610346 
L 122.588535 221.512654 
L 122.620351 221.53744 
L 122.756869 221.847601 
L 122.989321 223.036114 
L 123.365921 226.298567 
L 124.0076 234.105235 
L 125.125224 249.510287 
L 125.159637 248.068265 
L 125.592888 234.875706 
L 125.965754 229.339002 
L 126.255021 227.703745 
L 126.404687 227.559557 
L 126.428712 227.574505 
L 126.561982 227.829541 
L 126.78713 228.839599 
L 127.15188 231.656533 
L 127.766938 238.408462 
L 128.083476 242.36272 
L 128.109935 241.230845 
L 128.537343 227.9422 
L 128.902255 222.506932 
L 129.180321 221.001813 
L 129.3058 220.904173 
L 129.338103 220.929494 
L 129.474458 221.242022 
L 129.67753 222.24806 
L 129.69084 221.589929 
L 130.10932 206.536336 
L 130.461733 200.638979 
L 130.722106 199.179024 
L 130.811386 199.128481 
L 130.853104 199.173783 
L 130.988809 199.598039 
L 131.224022 201.200522 
L 131.224509 201.204832 
L 131.242202 200.377354 
L 131.640066 187.150525 
L 131.964072 182.514892 
L 132.184025 181.700322 
L 132.271519 181.800836 
L 132.40966 182.381102 
L 132.419887 181.870501 
L 132.809959 168.0573 
L 133.122926 163.446143 
L 133.318043 162.763097 
L 133.327134 162.765756 
L 133.412518 162.926376 
L 133.572086 163.828451 
L 133.662826 164.651452 
L 133.681332 163.812826 
L 134.0516 152.265058 
L 134.336647 148.923618 
L 134.460665 148.640515 
L 134.500273 148.678537 
L 134.611467 149.087568 
L 134.814538 150.850856 
L 135.004786 153.492587 
L 135.039037 152.160458 
L 135.387229 143.254217 
L 135.641271 141.140676 
L 135.707988 141.07751 
L 135.758309 141.149117 
L 135.884113 141.74071 
L 136.108287 144.063403 
L 136.326779 147.59249 
L 136.368497 146.0854 
L 136.705327 138.28978 
L 136.943298 136.659834 
L 136.992321 136.648237 
L 137.035987 136.72116 
L 137.163089 137.347248 
L 137.389374 139.787173 
L 137.710295 145.511094 
L 137.769219 143.569822 
L 138.093874 136.996649 
L 138.314477 135.82813 
L 138.388985 135.923467 
L 138.521444 136.619953 
L 138.755195 139.256947 
L 139.101277 145.688756 
L 139.165559 143.637505 
L 139.48648 137.428637 
L 139.701888 136.38357 
L 139.775585 136.495396 
L 139.913076 137.25589 
L 140.153807 140.061624 
L 140.545016 147.617906 
L 140.562547 148.022398 
L 140.60946 146.550332 
L 140.932491 140.252514 
L 141.150984 139.15547 
L 141.225654 139.256639 
L 141.36071 139.970849 
L 141.598033 142.640517 
L 141.983722 149.873205 
L 142.128681 153.26041 
L 142.17884 151.746071 
L 142.501222 145.729279 
L 142.718903 144.69166 
L 142.79471 144.796124 
L 142.932201 145.514546 
L 143.17277 148.168099 
L 143.563654 155.317785 
L 143.732312 159.174236 
L 143.781984 157.651128 
L 144.110047 151.361717 
L 144.335682 150.186527 
L 144.404509 150.243225 
L 144.416521 150.271014 
L 144.549792 150.910495 
L 144.784193 153.324185 
L 145.165499 159.902983 
L 145.319386 163.230231 
L 145.365811 161.740584 
L 145.701504 154.889543 
L 145.937853 153.478928 
L 145.991421 153.477625 
L 146.030379 153.542684 
L 146.161053 154.136654 
L 146.39172 156.411692 
L 146.767183 162.657981 
L 147.107583 170.149598 
L 147.165696 168.372254 
L 147.500415 161.95163 
L 147.735627 160.64348 
L 147.792442 160.649392 
L 147.827829 160.709634 
L 147.96045 161.292724 
L 148.193715 163.505991 
L 148.573073 169.552455 
L 148.76397 173.411826 
L 148.80861 171.917907 
L 149.155666 164.371953 
L 149.408247 162.601725 
L 149.476587 162.555069 
L 149.524474 162.61908 
L 149.653686 163.15709 
L 149.882081 165.237951 
L 150.253972 170.978794 
L 150.545187 176.874818 
L 150.595184 175.232046 
L 150.942565 167.852291 
L 151.195633 166.115306 
L 151.265271 166.0688 
L 151.312833 166.131327 
L 151.442695 166.659917 
L 151.671739 168.698308 
L 152.044605 174.314876 
L 152.371045 180.81563 
L 152.422178 179.123212 
L 152.773129 171.578202 
L 153.03123 169.736801 
L 153.108173 169.673008 
L 153.155897 169.731683 
L 153.284785 170.234509 
L 153.512368 172.186508 
L 153.882799 177.579784 
L 154.247386 184.679469 
L 154.29998 182.921637 
L 154.654665 175.186862 
L 154.918122 173.228821 
L 155.003668 173.144215 
L 155.050743 173.198342 
L 155.178495 173.674462 
L 155.40413 175.535952 
L 155.767581 180.632941 
L 155.816603 178.782489 
L 156.179242 169.715084 
L 156.453576 167.252636 
L 156.557303 167.096605 
L 156.601943 167.142817 
L 156.723039 167.581209 
L 156.86962 168.660091 
L 156.886827 167.862523 
L 157.261478 155.82926 
L 157.553018 152.219469 
L 157.691646 151.865702 
L 157.726059 151.894147 
L 157.827838 152.224463 
L 157.834981 151.860363 
L 158.208496 138.567471 
L 158.49825 134.615978 
L 158.63217 134.241204 
L 158.668694 134.275262 
L 158.774044 134.671027 
L 158.811379 134.910865 
L 158.823716 134.31116 
L 159.183109 122.382487 
L 159.453059 119.226477 
L 159.544287 119.049339 
L 159.593472 119.115953 
L 159.711646 119.700671 
L 159.925756 122.095899 
L 160.276383 128.906694 
L 160.862709 145.285744 
L 163.281872 220.027903 
L 163.326837 218.694903 
L 163.704573 211.091975 
L 164.000495 208.760161 
L 164.156816 208.512534 
L 164.181652 208.52648 
L 164.29869 208.769654 
L 164.503385 209.818393 
L 164.838429 212.880182 
L 165.392614 220.297783 
L 165.599906 223.504175 
L 165.632047 222.234626 
L 166.035754 210.958688 
L 166.367714 206.876207 
L 166.599355 206.076123 
L 166.701621 206.152209 
L 166.853884 206.677359 
L 167.112634 208.510983 
L 167.531438 213.310014 
L 167.932062 219.220224 
L 167.970209 217.719893 
L 168.369047 206.735966 
L 168.694188 202.868719 
L 168.916414 202.176749 
L 169.013324 202.27498 
L 169.170619 202.872862 
L 169.436998 204.912727 
L 169.868301 210.190139 
L 170.654128 223.033815 
L 170.839505 226.292575 
L 170.875055 224.954915 
L 171.277789 214.276967 
L 171.60845 210.430357 
L 171.838467 209.688695 
L 171.941708 209.769415 
L 172.097542 210.301051 
L 172.360999 212.13025 
L 172.787433 216.884905 
L 173.558487 228.418983 
L 173.938171 234.559101 
L 173.971123 233.268469 
L 174.385058 221.690648 
L 174.731139 217.261623 
L 174.982909 216.235559 
L 175.078682 216.231498 
L 175.106927 216.266024 
L 175.254645 216.687793 
L 175.505278 218.199711 
L 175.659814 219.536882 
L 175.678481 218.675613 
L 176.089981 205.005891 
L 176.432816 199.837844 
L 176.679716 198.681847 
L 176.758282 198.675221 
L 176.793183 198.721705 
L 176.878242 198.953876 
L 176.883761 198.664839 
L 177.28893 183.328614 
L 177.623 177.723925 
L 177.857238 176.592631 
L 177.875094 176.447401 
L 178.271173 160.398129 
L 178.592581 154.833947 
L 178.808801 153.890611 
L 178.887042 154.00071 
L 178.943045 154.209973 
L 178.950025 153.851961 
L 179.325164 140.391301 
L 179.617353 136.338477 
L 179.75663 135.934777 
L 179.791043 135.964847 
L 179.894283 136.335629 
L 180.086316 138.022957 
L 180.404478 143.101902 
L 180.926847 155.529137 
L 182.173845 192.231162 
L 183.406721 225.182931 
L 184.369159 245.224195 
L 185.25644 259.306625 
L 185.542623 263.05075 
L 185.56616 262.034368 
L 186.016781 247.585595 
L 186.413509 241.074068 
L 186.736053 238.81062 
L 186.956169 238.42584 
L 187.080511 238.541166 
L 187.272707 239.111422 
L 187.585836 240.85162 
L 188.096842 245.133956 
L 189.238003 257.110995 
L 189.649665 261.399995 
L 189.669144 260.51246 
L 190.120252 245.207042 
L 190.517629 238.297964 
L 190.840985 235.887944 
L 191.061912 235.472666 
L 191.183009 235.584517 
L 191.370497 236.152106 
L 191.677295 237.90805 
L 192.176938 242.252365 
L 193.243104 253.973886 
L 193.376537 255.469879 
L 193.398938 254.473518 
L 193.842416 239.901747 
L 194.229242 233.52036 
L 194.537989 231.43733 
L 194.732944 231.158258 
L 194.738463 231.160188 
L 194.861182 231.328189 
L 195.064254 232.074668 
L 195.328847 233.753103 
L 195.346216 232.917659 
L 195.77265 217.932087 
L 196.136101 211.834645 
L 196.411895 210.167844 
L 196.528121 210.063517 
L 196.565132 210.09462 
L 196.697266 210.435344 
L 196.731679 210.578892 
L 196.739796 210.161051 
L 197.152107 194.748103 
L 197.495916 188.898719 
L 197.744115 187.573761 
L 197.81635 187.554618 
L 197.857257 187.608514 
L 197.981924 188.038669 
L 197.99004 187.624933 
L 198.385632 173.216502 
L 198.706228 168.239209 
L 198.921474 167.404763 
L 199.003774 167.518439 
L 199.151167 168.234811 
L 199.405047 170.767659 
L 199.816709 177.44039 
L 200.546533 193.502935 
L 202.551112 238.607244 
L 203.516472 254.839636 
L 204.405214 266.23342 
L 205.152894 273.554059 
L 205.157439 273.33787 
L 205.624779 256.44057 
L 206.044233 248.35852 
L 206.398106 245.180459 
L 206.661563 244.386426 
L 206.810417 244.399216 
L 206.976803 244.736757 
L 207.248376 245.882048 
L 207.685686 248.834022 
L 208.487745 256.047128 
L 209.441418 265.097333 
L 209.4583 264.308734 
L 209.914602 248.348785 
L 210.318959 241.005215 
L 210.652217 238.334646 
L 210.88678 237.806315 
L 211.011447 237.886411 
L 211.189683 238.362058 
L 211.481872 239.883824 
L 211.95538 243.70457 
L 212.890223 253.451063 
L 213.631896 261.34547 
L 213.650077 260.517618 
L 214.101185 245.209197 
L 214.498562 238.29833 
L 214.821918 235.887295 
L 215.027424 234.639448 
L 215.463597 216.550935 
L 215.840359 208.866325 
L 216.134821 206.528394 
L 216.164851 206.015592 
L 216.582519 188.056554 
L 216.933958 181.044209 
L 217.192708 179.326278 
L 217.220952 179.026928 
L 217.619628 162.600927 
L 217.944607 156.818156 
L 218.16586 155.783853 
L 218.245562 155.878594 
L 218.383216 156.543113 
L 218.623785 158.999383 
L 219.014506 165.617571 
L 219.6906 181.460243 
L 221.931041 236.056041 
L 222.882765 252.946618 
L 223.765176 264.860068 
L 224.610739 273.420822 
L 224.715278 274.31322 
L 224.73216 273.512485 
L 225.199338 256.786972 
L 225.618629 248.786846 
L 225.972503 245.640082 
L 226.23596 244.85453 
L 226.385139 244.868096 
L 226.552336 245.20605 
L 226.824883 246.349427 
L 227.263816 249.293033 
L 228.070907 256.494756 
L 229.033346 265.535936 
L 229.049903 264.760586 
L 229.506692 248.732717 
L 229.912023 241.337263 
L 230.246255 238.637913 
L 230.482441 238.09546 
L 230.60792 238.172128 
L 230.785344 238.639015 
L 231.076234 240.138262 
L 231.547308 243.907229 
L 232.471924 253.484494 
L 233.093962 260.119908 
L 233.113442 259.236396 
L 233.562926 244.073526 
L 233.958193 237.268649 
L 234.278465 234.926818 
L 234.495172 234.541703 
L 234.554421 234.574377 
L 234.556856 234.440033 
L 234.99238 216.572394 
L 235.368168 209.004641 
L 235.661331 206.717377 
L 235.810834 206.488452 
L 235.83843 206.505227 
L 235.956766 206.765552 
L 236.032898 207.082427 
L 236.041176 206.659584 
L 236.450404 191.528857 
L 236.78983 185.882581 
L 237.03186 184.664397 
L 237.100362 184.661757 
L 237.136886 184.715111 
L 237.270806 185.210712 
L 237.279896 184.751266 
L 237.67289 170.608142 
L 237.989915 165.800135 
L 238.196883 165.039683 
L 238.199967 165.040251 
L 238.282916 165.174059 
L 238.435666 165.971097 
L 238.697175 168.722941 
L 239.121174 175.887526 
L 239.885736 193.242349 
L 241.768894 236.490315 
L 242.740423 253.358677 
L 243.631924 265.172101 
L 244.483006 273.647112 
L 245.309577 279.766212 
L 245.490572 280.875209 
L 245.502422 280.282493 
L 245.978852 262.131832 
L 246.41048 253.191324 
L 246.781398 249.46501 
L 247.068393 248.384788 
L 247.239161 248.312926 
L 247.244518 248.316554 
L 247.401326 248.563983 
L 247.654232 249.459963 
L 248.060212 251.84104 
L 248.771693 257.560157 
L 249.479764 263.835989 
L 249.498757 262.944472 
L 249.953598 246.993889 
L 250.356169 239.688618 
L 250.686668 237.061772 
L 250.917497 236.559163 
L 251.040054 236.646837 
L 251.21975 237.144937 
L 251.514374 238.728285 
L 251.992266 242.692719 
L 252.946426 252.882421 
L 254.432694 268.173839 
L 254.479931 268.597185 
L 254.497787 267.760456 
L 254.957985 251.574595 
L 255.367862 244.016832 
L 255.708586 241.187003 
L 255.953701 240.57311 
L 256.08551 240.630906 
L 256.259363 241.050153 
L 256.544085 242.418526 
L 257.004283 245.884194 
L 257.885558 254.555211 
L 258.737126 263.197043 
L 258.754171 262.411509 
L 259.207876 246.786615 
L 259.608824 239.663992 
L 259.93705 237.127568 
L 260.164795 236.657704 
L 260.287027 236.753124 
L 260.469645 237.271666 
L 260.768815 238.90375 
L 261.25466 242.971177 
L 262.246155 253.587964 
L 263.685024 268.30708 
L 263.798328 269.31083 
L 263.81586 268.486143 
L 264.277032 252.18917 
L 264.688207 244.554418 
L 265.030717 241.676127 
L 265.278266 241.038789 
L 265.411862 241.090806 
L 265.584415 241.497319 
L 265.867027 242.832017 
L 266.323492 246.220865 
L 267.190968 254.661266 
L 268.820247 270.260016 
L 268.867972 270.655105 
L 268.884529 269.867392 
L 269.347649 253.283338 
L 269.761421 245.462387 
L 270.107503 242.47318 
L 270.360084 241.783877 
L 270.4979 241.824254 
L 270.668019 242.20836 
L 270.946572 243.483629 
L 271.396056 246.73858 
L 272.238697 254.782753 
L 273.171917 264.05258 
L 273.188637 263.277932 
L 273.643478 247.513889 
L 274.045887 240.297711 
L 274.376385 237.702542 
L 274.607215 237.206946 
L 274.730421 237.295352 
L 274.911091 237.793995 
L 275.207176 239.375275 
L 275.687503 243.328876 
L 276.652538 253.535205 
L 277.284641 260.344908 
L 277.303795 259.477031 
L 277.753604 244.314228 
L 278.149033 237.50725 
L 278.469792 235.158518 
L 278.687148 234.769581 
L 278.80792 234.890191 
L 278.998005 235.485368 
L 279.308699 237.309953 
L 279.815485 241.807839 
L 280.927589 254.211539 
L 281.768932 263.312038 
L 281.783216 262.658604 
L 282.236921 247.123065 
L 282.637869 240.039056 
L 282.966257 237.513801 
L 283.194165 237.04508 
L 283.316884 237.140099 
L 283.499827 237.656873 
L 283.799321 239.281795 
L 284.285654 243.329382 
L 285.279746 253.90677 
L 286.425939 265.827423 
L 286.435029 265.404504 
L 286.892467 249.378869 
L 287.29861 241.967895 
L 287.634141 239.248316 
L 287.87195 238.693442 
L 287.998565 238.766184 
L 288.175177 239.221971 
L 288.464769 240.690963 
L 288.93357 244.389968 
L 289.848609 253.755451 
L 291.392991 269.125537 
L 291.455649 269.666336 
L 291.472856 268.853803 
L 291.934515 252.466623 
L 292.346339 244.774717 
L 292.689823 241.862553 
L 292.938833 241.209644 
L 293.073565 241.258257 
L 293.245307 241.657987 
L 293.526621 242.975145 
L 293.980975 246.326064 
L 294.840497 254.649393 
L 296.008605 266.192124 
L 296.021104 265.607593 
L 296.479029 249.512192 
L 296.885659 242.063415 
L 297.221839 239.323882 
L 297.46046 238.761157 
L 297.587562 238.832372 
L 297.763849 239.284947 
L 298.052792 240.745296 
L 298.520457 244.42498 
L 299.43095 253.726152 
L 300.114024 260.919804 
L 300.133016 260.054871 
L 300.583636 244.775009 
L 300.980364 237.890927 
L 301.302746 235.500398 
L 301.522213 235.094812 
L 301.642984 235.209819 
L 301.831284 235.78764 
L 302.139381 237.570344 
L 302.641297 241.974747 
L 303.721585 253.937457 
L 304.800412 265.398751 
L 304.809178 264.992617 
L 305.266129 249.054841 
L 305.67146 241.703012 
L 306.005854 239.01761 
L 306.242203 238.477608 
L 306.368006 238.554053 
L 306.545755 239.019493 
L 306.83697 240.512327 
L 307.308693 244.264554 
L 308.235906 253.80842 
L 309.382911 265.590617 
L 309.393949 265.077217 
L 309.851063 249.09184 
L 310.256556 241.713824 
L 310.591275 239.014204 
L 310.828111 238.468664 
L 310.954239 238.544147 
L 311.131663 239.007428 
L 311.422391 240.495169 
L 311.893302 244.236981 
L 312.817107 253.742343 
L 313.74643 263.432293 
L 313.761851 262.722965 
L 314.215881 247.098608 
L 314.617154 239.969505 
L 314.946029 237.423153 
L 315.174586 236.947625 
L 315.297143 237.041039 
L 315.479274 237.553231 
L 315.777631 239.168047 
L 316.262016 243.195473 
L 317.246369 253.675872 
L 318.430871 266.002458 
L 318.439149 265.616864 
L 318.896912 249.550855 
L 319.30338 242.115067 
L 319.63956 239.379142 
L 319.878181 238.817453 
L 320.005283 238.888808 
L 320.18157 239.341183 
L 320.470675 240.801424 
L 320.938502 244.479695 
L 321.849808 253.781027 
L 322.956393 265.143309 
L 322.96873 264.570725 
L 323.425194 248.66225 
L 323.829876 241.336738 
L 324.163296 238.671254 
L 324.398346 238.141319 
L 324.5235 238.220563 
L 324.701898 238.693752 
L 324.994249 240.207807 
L 325.46792 244.008398 
L 326.403412 253.705897 
L 327.687259 266.819719 
L 327.694401 266.485129 
L 328.153463 250.256922 
L 328.561553 242.716743 
L 328.899844 239.918821 
L 329.141549 239.328158 
L 329.270437 239.392562 
L 329.444938 239.828009 
L 329.731121 241.243787 
L 330.193917 244.822601 
L 331.085256 253.807852 
L 332.340532 266.496495 
L 332.35011 266.048446 
L 332.808522 249.894598 
L 333.215801 242.403146 
L 333.553117 239.634274 
L 333.793361 239.05783 
L 333.921275 239.125725 
L 334.096751 239.56994 
L 334.384395 241.008378 
L 334.849787 244.638585 
L 335.751191 253.78493 
L 337.268626 268.866636 
L 337.270249 268.789548 
L 337.732395 252.137192 
L 338.144706 244.313746 
L 338.48884 241.344198 
L 338.738662 240.673252 
L 338.873718 240.71938 
L 339.044162 241.115755 
L 339.323689 242.428124 
L 339.774959 245.773386 
L 340.623768 254.055337 
L 341.423393 262.207369 
L 341.441736 261.365091 
L 341.894142 245.870379 
L 342.293304 238.842419 
L 342.619095 236.366152 
L 342.843269 235.9242 
L 342.964528 236.027752 
L 343.149418 236.570695 
L 343.452159 238.265384 
L 343.944497 242.474433 
L 344.969107 253.618246 
L 346.078452 265.340901 
L 346.087704 264.911998 
L 346.544493 248.977102 
L 346.949662 241.6275 
L 347.283894 238.943833 
L 347.52008 238.404911 
L 347.645884 238.481918 
L 347.823632 238.948511 
L 348.11501 240.444997 
L 348.587057 244.206148 
L 349.515569 253.777346 
L 350.67134 265.654686 
L 350.682053 265.156205 
L 351.139329 249.155558 
L 351.544985 241.768779 
L 351.879866 239.064291 
L 352.116864 238.516384 
L 352.243155 238.591116 
L 352.420254 239.052063 
L 352.710657 240.534633 
L 353.180919 244.264614 
L 354.101964 253.729731 
L 355.289064 265.894852 
L 355.29929 265.41834 
L 355.756891 249.374065 
L 356.163034 241.956931 
L 356.498726 239.233448 
L 356.736698 238.677728 
L 356.863313 238.750506 
L 357.039926 239.206437 
L 357.329517 240.675858 
L 357.798319 244.37591 
L 358.713357 253.743996 
L 360.020092 266.996708 
L 360.027397 266.654056 
L 360.486621 250.396619 
L 360.895036 242.834834 
L 361.233813 240.023836 
L 361.476168 239.427442 
L 361.605542 239.490746 
L 361.779882 239.923972 
L 362.06574 241.333684 
L 362.528048 244.899373 
L 363.417277 253.844168 
L 364.619798 266.026962 
L 364.630836 265.511959 
L 365.088599 249.447585 
L 365.494904 242.018565 
L 365.830759 239.288259 
L 366.069055 238.729001 
L 366.195995 238.801047 
L 366.372445 239.255328 
L 366.661712 240.720096 
L 367.130026 244.410211 
L 368.043117 253.746945 
L 369.362838 267.111527 
L 369.369981 266.776266 
L 369.829367 250.49882 
L 370.238107 242.922085 
L 370.577208 240.103375 
L 370.819888 239.503585 
L 370.949425 239.565837 
L 371.12344 239.996317 
L 371.408811 241.398937 
L 371.870145 244.947581 
L 372.755965 253.84048 
L 373.923098 265.683766 
L 373.934948 265.131879 
L 374.392062 249.130985 
L 374.797718 241.740705 
L 375.132599 239.035006 
L 375.369597 238.486918 
L 375.495725 238.561492 
L 375.672824 239.022378 
L 375.963065 240.504297 
L 376.433002 244.2324 
L 377.352911 253.689179 
L 378.663542 267.009483 
L 378.670522 266.682054 
L 379.129745 250.420371 
L 379.538323 242.853264 
L 379.8771 240.041081 
L 380.119455 239.443779 
L 380.24883 239.506588 
L 380.423007 239.938571 
L 380.708541 241.344731 
L 381.170362 244.903003 
L 382.057642 253.822554 
L 383.299121 266.367122 
L 383.309186 265.896613 
L 383.767436 249.766933 
L 384.174552 242.291729 
L 384.511382 239.535001 
L 384.750977 238.963666 
L 384.878566 239.032583 
L 385.054204 239.479029 
L 385.342173 240.9235 
L 385.808214 244.568126 
L 386.712052 253.758228 
L 387.865875 265.552852 
L 387.8774 265.016678 
L 388.334351 249.037858 
L 388.739845 241.661315 
L 389.074401 238.964677 
L 389.311074 238.420499 
L 389.43704 238.496291 
L 389.614464 238.960193 
L 389.905354 240.45052 
L 390.376428 244.197721 
L 391.300882 253.718781 
L 392.830492 269.002538 
L 392.83666 269.056375 
L 392.854029 268.238913 
L 393.314877 251.946166 
L 393.725727 244.318503 
L 394.06775 241.448526 
L 394.31465 240.816546 
L 394.447759 240.870297 
L 394.620637 241.280938 
L 394.903736 242.626586 
L 395.361174 246.041623 
L 396.23206 254.555638 
L 397.70031 268.837748 
L 397.705018 268.614204 
L 398.166839 252.006684 
L 398.487273 245.488251 
L 398.487273 245.488251 
" style="fill:none;stroke:#1f77b4;stroke-linecap:square;stroke-width:1.5;"/>
   </g>
   <g id="patch_3">
    <path d="M 57.6 307.584 
L 57.6 41.472 
" style="fill:none;stroke:#000000;stroke-linecap:square;stroke-linejoin:miter;stroke-width:0.8;"/>
   </g>
   <g id="patch_4">
    <path d="M 414.72 307.584 
L 414.72 41.472 
" style="fill:none;stroke:#000000;stroke-linecap:square;stroke-linejoin:miter;stroke-width:0.8;"/>
   </g>
   <g id="patch_5">
    <path d="M 57.6 307.584 
L 414.72 307.584 
" style="fill:none;stroke:#000000;stroke-linecap:square;stroke-linejoin:miter;stroke-width:0.8;"/>
   </g>
   <g id="patch_6">
    <path d="M 57.6 41.472 
L 414.72 41.472 
" style="fill:none;stroke:#000000;stroke-linecap:square;stroke-linejoin:miter;stroke-width:0.8;"/>
   </g>
   <g id="text_12">
    <!-- Acetylcholine activation -->
    <defs>
     <path d="M 34.1875 63.1875 
L 20.796875 26.90625 
L 47.609375 26.90625 
z
M 28.609375 72.90625 
L 39.796875 72.90625 
L 67.578125 0 
L 57.328125 0 
L 50.6875 18.703125 
L 17.828125 18.703125 
L 11.1875 0 
L 0.78125 0 
z
" id="DejaVuSans-41"/>
     <path d="M 48.78125 52.59375 
L 48.78125 44.1875 
Q 44.96875 46.296875 41.140625 47.34375 
Q 37.3125 48.390625 33.40625 48.390625 
Q 24.65625 48.390625 19.8125 42.84375 
Q 14.984375 37.3125 14.984375 27.296875 
Q 14.984375 17.28125 19.8125 11.734375 
Q 24.65625 6.203125 33.40625 6.203125 
Q 37.3125 6.203125 41.140625 7.25 
Q 44.96875 8.296875 48.78125 10.40625 
L 48.78125 2.09375 
Q 45.015625 0.34375 40.984375 -0.53125 
Q 36.96875 -1.421875 32.421875 -1.421875 
Q 20.0625 -1.421875 12.78125 6.34375 
Q 5.515625 14.109375 5.515625 27.296875 
Q 5.515625 40.671875 12.859375 48.328125 
Q 20.21875 56 33.015625 56 
Q 37.15625 56 41.109375 55.140625 
Q 45.0625 54.296875 48.78125 52.59375 
z
" id="DejaVuSans-63"/>
     <path d="M 56.203125 29.59375 
L 56.203125 25.203125 
L 14.890625 25.203125 
Q 15.484375 15.921875 20.484375 11.0625 
Q 25.484375 6.203125 34.421875 6.203125 
Q 39.59375 6.203125 44.453125 7.46875 
Q 49.3125 8.734375 54.109375 11.28125 
L 54.109375 2.78125 
Q 49.265625 0.734375 44.1875 -0.34375 
Q 39.109375 -1.421875 33.890625 -1.421875 
Q 20.796875 -1.421875 13.15625 6.1875 
Q 5.515625 13.8125 5.515625 26.8125 
Q 5.515625 40.234375 12.765625 48.109375 
Q 20.015625 56 32.328125 56 
Q 43.359375 56 49.78125 48.890625 
Q 56.203125 41.796875 56.203125 29.59375 
z
M 47.21875 32.234375 
Q 47.125 39.59375 43.09375 43.984375 
Q 39.0625 48.390625 32.421875 48.390625 
Q 24.90625 48.390625 20.390625 44.140625 
Q 15.875 39.890625 15.1875 32.171875 
z
" id="DejaVuSans-65"/>
     <path d="M 18.3125 70.21875 
L 18.3125 54.6875 
L 36.8125 54.6875 
L 36.8125 47.703125 
L 18.3125 47.703125 
L 18.3125 18.015625 
Q 18.3125 11.328125 20.140625 9.421875 
Q 21.96875 7.515625 27.59375 7.515625 
L 36.8125 7.515625 
L 36.8125 0 
L 27.59375 0 
Q 17.1875 0 13.234375 3.875 
Q 9.28125 7.765625 9.28125 18.015625 
L 9.28125 47.703125 
L 2.6875 47.703125 
L 2.6875 54.6875 
L 9.28125 54.6875 
L 9.28125 70.21875 
z
" id="DejaVuSans-74"/>
     <path d="M 32.171875 -5.078125 
Q 28.375 -14.84375 24.75 -17.8125 
Q 21.140625 -20.796875 15.09375 -20.796875 
L 7.90625 -20.796875 
L 7.90625 -13.28125 
L 13.1875 -13.28125 
Q 16.890625 -13.28125 18.9375 -11.515625 
Q 21 -9.765625 23.484375 -3.21875 
L 25.09375 0.875 
L 2.984375 54.6875 
L 12.5 54.6875 
L 29.59375 11.921875 
L 46.6875 54.6875 
L 56.203125 54.6875 
z
" id="DejaVuSans-79"/>
     <path d="M 9.421875 75.984375 
L 18.40625 75.984375 
L 18.40625 0 
L 9.421875 0 
z
" id="DejaVuSans-6c"/>
     <path d="M 54.890625 33.015625 
L 54.890625 0 
L 45.90625 0 
L 45.90625 32.71875 
Q 45.90625 40.484375 42.875 44.328125 
Q 39.84375 48.1875 33.796875 48.1875 
Q 26.515625 48.1875 22.3125 43.546875 
Q 18.109375 38.921875 18.109375 30.90625 
L 18.109375 0 
L 9.078125 0 
L 9.078125 75.984375 
L 18.109375 75.984375 
L 18.109375 46.1875 
Q 21.34375 51.125 25.703125 53.5625 
Q 30.078125 56 35.796875 56 
Q 45.21875 56 50.046875 50.171875 
Q 54.890625 44.34375 54.890625 33.015625 
z
" id="DejaVuSans-68"/>
     <path d="M 30.609375 48.390625 
Q 23.390625 48.390625 19.1875 42.75 
Q 14.984375 37.109375 14.984375 27.296875 
Q 14.984375 17.484375 19.15625 11.84375 
Q 23.34375 6.203125 30.609375 6.203125 
Q 37.796875 6.203125 41.984375 11.859375 
Q 46.1875 17.53125 46.1875 27.296875 
Q 46.1875 37.015625 41.984375 42.703125 
Q 37.796875 48.390625 30.609375 48.390625 
z
M 30.609375 56 
Q 42.328125 56 49.015625 48.375 
Q 55.71875 40.765625 55.71875 27.296875 
Q 55.71875 13.875 49.015625 6.21875 
Q 42.328125 -1.421875 30.609375 -1.421875 
Q 18.84375 -1.421875 12.171875 6.21875 
Q 5.515625 13.875 5.515625 27.296875 
Q 5.515625 40.765625 12.171875 48.375 
Q 18.84375 56 30.609375 56 
z
" id="DejaVuSans-6f"/>
     <path d="M 9.421875 54.6875 
L 18.40625 54.6875 
L 18.40625 0 
L 9.421875 0 
z
M 9.421875 75.984375 
L 18.40625 75.984375 
L 18.40625 64.59375 
L 9.421875 64.59375 
z
" id="DejaVuSans-69"/>
     <path d="M 54.890625 33.015625 
L 54.890625 0 
L 45.90625 0 
L 45.90625 32.71875 
Q 45.90625 40.484375 42.875 44.328125 
Q 39.84375 48.1875 33.796875 48.1875 
Q 26.515625 48.1875 22.3125 43.546875 
Q 18.109375 38.921875 18.109375 30.90625 
L 18.109375 0 
L 9.078125 0 
L 9.078125 54.6875 
L 18.109375 54.6875 
L 18.109375 46.1875 
Q 21.34375 51.125 25.703125 53.5625 
Q 30.078125 56 35.796875 56 
Q 45.21875 56 50.046875 50.171875 
Q 54.890625 44.34375 54.890625 33.015625 
z
" id="DejaVuSans-6e"/>
     <path id="DejaVuSans-20"/>
     <path d="M 34.28125 27.484375 
Q 23.390625 27.484375 19.1875 25 
Q 14.984375 22.515625 14.984375 16.5 
Q 14.984375 11.71875 18.140625 8.90625 
Q 21.296875 6.109375 26.703125 6.109375 
Q 34.1875 6.109375 38.703125 11.40625 
Q 43.21875 16.703125 43.21875 25.484375 
L 43.21875 27.484375 
z
M 52.203125 31.203125 
L 52.203125 0 
L 43.21875 0 
L 43.21875 8.296875 
Q 40.140625 3.328125 35.546875 0.953125 
Q 30.953125 -1.421875 24.3125 -1.421875 
Q 15.921875 -1.421875 10.953125 3.296875 
Q 6 8.015625 6 15.921875 
Q 6 25.140625 12.171875 29.828125 
Q 18.359375 34.515625 30.609375 34.515625 
L 43.21875 34.515625 
L 43.21875 35.40625 
Q 43.21875 41.609375 39.140625 45 
Q 35.0625 48.390625 27.6875 48.390625 
Q 23 48.390625 18.546875 47.265625 
Q 14.109375 46.140625 10.015625 43.890625 
L 10.015625 52.203125 
Q 14.9375 54.109375 19.578125 55.046875 
Q 24.21875 56 28.609375 56 
Q 40.484375 56 46.34375 49.84375 
Q 52.203125 43.703125 52.203125 31.203125 
z
" id="DejaVuSans-61"/>
     <path d="M 2.984375 54.6875 
L 12.5 54.6875 
L 29.59375 8.796875 
L 46.6875 54.6875 
L 56.203125 54.6875 
L 35.6875 0 
L 23.484375 0 
z
" id="DejaVuSans-76"/>
    </defs>
    <g transform="translate(164.271563 35.472)scale(0.12 -0.12)">
     <use xlink:href="#DejaVuSans-41"/>
     <use x="68.392578" xlink:href="#DejaVuSans-63"/>
     <use x="123.373047" xlink:href="#DejaVuSans-65"/>
     <use x="184.896484" xlink:href="#DejaVuSans-74"/>
     <use x="224.105469" xlink:href="#DejaVuSans-79"/>
     <use x="283.285156" xlink:href="#DejaVuSans-6c"/>
     <use x="311.068359" xlink:href="#DejaVuSans-63"/>
     <use x="366.048828" xlink:href="#DejaVuSans-68"/>
     <use x="429.427734" xlink:href="#DejaVuSans-6f"/>
     <use x="490.609375" xlink:href="#DejaVuSans-6c"/>
     <use x="518.392578" xlink:href="#DejaVuSans-69"/>
     <use x="546.175781" xlink:href="#DejaVuSans-6e"/>
     <use x="609.554688" xlink:href="#DejaVuSans-65"/>
     <use x="671.078125" xlink:href="#DejaVuSans-20"/>
     <use x="702.865234" xlink:href="#DejaVuSans-61"/>
     <use x="764.144531" xlink:href="#DejaVuSans-63"/>
     <use x="819.125" xlink:href="#DejaVuSans-74"/>
     <use x="858.333984" xlink:href="#DejaVuSans-69"/>
     <use x="886.117188" xlink:href="#DejaVuSans-76"/>
     <use x="945.296875" xlink:href="#DejaVuSans-61"/>
     <use x="1006.576172" xlink:href="#DejaVuSans-74"/>
     <use x="1045.785156" xlink:href="#DejaVuSans-69"/>
     <use x="1073.568359" xlink:href="#DejaVuSans-6f"/>
     <use x="1134.75" xlink:href="#DejaVuSans-6e"/>
    </g>
   </g>
  </g>
 </g>
 <defs>
  <clipPath id="p7f1a4911cc">
   <rect height="266.112" width="357.12" x="57.6" y="41.472"/>
  </clipPath>
 </defs>
</svg>
