<?xml version="1.0" encoding="utf-8" standalone="no"?>
<!DOCTYPE svg PUBLIC "-//W3C//DTD SVG 1.1//EN"
  "http://www.w3.org/Graphics/SVG/1.1/DTD/svg11.dtd">
<!-- Created with matplotlib (http://matplotlib.org/) -->
<svg height="345.6pt" version="1.1" viewBox="0 0 460.8 345.6" width="460.8pt" xmlns="http://www.w3.org/2000/svg" xmlns:xlink="http://www.w3.org/1999/xlink">
 <defs>
  <style type="text/css">
*{stroke-linecap:butt;stroke-linejoin:round;}
  </style>
 </defs>
 <g id="figure_1">
  <g id="patch_1">
   <path d="M 0 345.6 
L 460.8 345.6 
L 460.8 0 
L 0 0 
z
" style="fill:#ffffff;"/>
  </g>
  <g id="axes_1">
   <g id="patch_2">
    <path d="M 57.6 307.584 
L 414.72 307.584 
L 414.72 41.472 
L 57.6 41.472 
z
" style="fill:#ffffff;"/>
   </g>
   <g id="matplotlib.axis_1">
    <g id="xtick_1">
     <g id="line2d_1">
      <defs>
       <path d="M 0 0 
L 0 3.5 
" id="mdb862c4efa" style="stroke:#000000;stroke-width:0.8;"/>
      </defs>
      <g>
       <use style="stroke:#000000;stroke-width:0.8;" x="73.832727" xlink:href="#mdb862c4efa" y="307.584"/>
      </g>
     </g>
     <g id="text_1">
      <!-- 0 -->
      <defs>
       <path d="M 31.78125 66.40625 
Q 24.171875 66.40625 20.328125 58.90625 
Q 16.5 51.421875 16.5 36.375 
Q 16.5 21.390625 20.328125 13.890625 
Q 24.171875 6.390625 31.78125 6.390625 
Q 39.453125 6.390625 43.28125 13.890625 
Q 47.125 21.390625 47.125 36.375 
Q 47.125 51.421875 43.28125 58.90625 
Q 39.453125 66.40625 31.78125 66.40625 
z
M 31.78125 74.21875 
Q 44.046875 74.21875 50.515625 64.515625 
Q 56.984375 54.828125 56.984375 36.375 
Q 56.984375 17.96875 50.515625 8.265625 
Q 44.046875 -1.421875 31.78125 -1.421875 
Q 19.53125 -1.421875 13.0625 8.265625 
Q 6.59375 17.96875 6.59375 36.375 
Q 6.59375 54.828125 13.0625 64.515625 
Q 19.53125 74.21875 31.78125 74.21875 
z
" id="DejaVuSans-30"/>
      </defs>
      <g transform="translate(70.651477 322.182437)scale(0.1 -0.1)">
       <use xlink:href="#DejaVuSans-30"/>
      </g>
     </g>
    </g>
    <g id="xtick_2">
     <g id="line2d_2">
      <g>
       <use style="stroke:#000000;stroke-width:0.8;" x="138.763636" xlink:href="#mdb862c4efa" y="307.584"/>
      </g>
     </g>
     <g id="text_2">
      <!-- 10000 -->
      <defs>
       <path d="M 12.40625 8.296875 
L 28.515625 8.296875 
L 28.515625 63.921875 
L 10.984375 60.40625 
L 10.984375 69.390625 
L 28.421875 72.90625 
L 38.28125 72.90625 
L 38.28125 8.296875 
L 54.390625 8.296875 
L 54.390625 0 
L 12.40625 0 
z
" id="DejaVuSans-31"/>
      </defs>
      <g transform="translate(122.857386 322.182437)scale(0.1 -0.1)">
       <use xlink:href="#DejaVuSans-31"/>
       <use x="63.623047" xlink:href="#DejaVuSans-30"/>
       <use x="127.246094" xlink:href="#DejaVuSans-30"/>
       <use x="190.869141" xlink:href="#DejaVuSans-30"/>
       <use x="254.492188" xlink:href="#DejaVuSans-30"/>
      </g>
     </g>
    </g>
    <g id="xtick_3">
     <g id="line2d_3">
      <g>
       <use style="stroke:#000000;stroke-width:0.8;" x="203.694545" xlink:href="#mdb862c4efa" y="307.584"/>
      </g>
     </g>
     <g id="text_3">
      <!-- 20000 -->
      <defs>
       <path d="M 19.1875 8.296875 
L 53.609375 8.296875 
L 53.609375 0 
L 7.328125 0 
L 7.328125 8.296875 
Q 12.9375 14.109375 22.625 23.890625 
Q 32.328125 33.6875 34.8125 36.53125 
Q 39.546875 41.84375 41.421875 45.53125 
Q 43.3125 49.21875 43.3125 52.78125 
Q 43.3125 58.59375 39.234375 62.25 
Q 35.15625 65.921875 28.609375 65.921875 
Q 23.96875 65.921875 18.8125 64.3125 
Q 13.671875 62.703125 7.8125 59.421875 
L 7.8125 69.390625 
Q 13.765625 71.78125 18.9375 73 
Q 24.125 74.21875 28.421875 74.21875 
Q 39.75 74.21875 46.484375 68.546875 
Q 53.21875 62.890625 53.21875 53.421875 
Q 53.21875 48.921875 51.53125 44.890625 
Q 49.859375 40.875 45.40625 35.40625 
Q 44.1875 33.984375 37.640625 27.21875 
Q 31.109375 20.453125 19.1875 8.296875 
z
" id="DejaVuSans-32"/>
      </defs>
      <g transform="translate(187.788295 322.182437)scale(0.1 -0.1)">
       <use xlink:href="#DejaVuSans-32"/>
       <use x="63.623047" xlink:href="#DejaVuSans-30"/>
       <use x="127.246094" xlink:href="#DejaVuSans-30"/>
       <use x="190.869141" xlink:href="#DejaVuSans-30"/>
       <use x="254.492188" xlink:href="#DejaVuSans-30"/>
      </g>
     </g>
    </g>
    <g id="xtick_4">
     <g id="line2d_4">
      <g>
       <use style="stroke:#000000;stroke-width:0.8;" x="268.625455" xlink:href="#mdb862c4efa" y="307.584"/>
      </g>
     </g>
     <g id="text_4">
      <!-- 30000 -->
      <defs>
       <path d="M 40.578125 39.3125 
Q 47.65625 37.796875 51.625 33 
Q 55.609375 28.21875 55.609375 21.1875 
Q 55.609375 10.40625 48.1875 4.484375 
Q 40.765625 -1.421875 27.09375 -1.421875 
Q 22.515625 -1.421875 17.65625 -0.515625 
Q 12.796875 0.390625 7.625 2.203125 
L 7.625 11.71875 
Q 11.71875 9.328125 16.59375 8.109375 
Q 21.484375 6.890625 26.8125 6.890625 
Q 36.078125 6.890625 40.9375 10.546875 
Q 45.796875 14.203125 45.796875 21.1875 
Q 45.796875 27.640625 41.28125 31.265625 
Q 36.765625 34.90625 28.71875 34.90625 
L 20.21875 34.90625 
L 20.21875 43.015625 
L 29.109375 43.015625 
Q 36.375 43.015625 40.234375 45.921875 
Q 44.09375 48.828125 44.09375 54.296875 
Q 44.09375 59.90625 40.109375 62.90625 
Q 36.140625 65.921875 28.71875 65.921875 
Q 24.65625 65.921875 20.015625 65.03125 
Q 15.375 64.15625 9.8125 62.3125 
L 9.8125 71.09375 
Q 15.4375 72.65625 20.34375 73.4375 
Q 25.25 74.21875 29.59375 74.21875 
Q 40.828125 74.21875 47.359375 69.109375 
Q 53.90625 64.015625 53.90625 55.328125 
Q 53.90625 49.265625 50.4375 45.09375 
Q 46.96875 40.921875 40.578125 39.3125 
z
" id="DejaVuSans-33"/>
      </defs>
      <g transform="translate(252.719205 322.182437)scale(0.1 -0.1)">
       <use xlink:href="#DejaVuSans-33"/>
       <use x="63.623047" xlink:href="#DejaVuSans-30"/>
       <use x="127.246094" xlink:href="#DejaVuSans-30"/>
       <use x="190.869141" xlink:href="#DejaVuSans-30"/>
       <use x="254.492188" xlink:href="#DejaVuSans-30"/>
      </g>
     </g>
    </g>
    <g id="xtick_5">
     <g id="line2d_5">
      <g>
       <use style="stroke:#000000;stroke-width:0.8;" x="333.556364" xlink:href="#mdb862c4efa" y="307.584"/>
      </g>
     </g>
     <g id="text_5">
      <!-- 40000 -->
      <defs>
       <path d="M 37.796875 64.3125 
L 12.890625 25.390625 
L 37.796875 25.390625 
z
M 35.203125 72.90625 
L 47.609375 72.90625 
L 47.609375 25.390625 
L 58.015625 25.390625 
L 58.015625 17.1875 
L 47.609375 17.1875 
L 47.609375 0 
L 37.796875 0 
L 37.796875 17.1875 
L 4.890625 17.1875 
L 4.890625 26.703125 
z
" id="DejaVuSans-34"/>
      </defs>
      <g transform="translate(317.650114 322.182437)scale(0.1 -0.1)">
       <use xlink:href="#DejaVuSans-34"/>
       <use x="63.623047" xlink:href="#DejaVuSans-30"/>
       <use x="127.246094" xlink:href="#DejaVuSans-30"/>
       <use x="190.869141" xlink:href="#DejaVuSans-30"/>
       <use x="254.492188" xlink:href="#DejaVuSans-30"/>
      </g>
     </g>
    </g>
    <g id="xtick_6">
     <g id="line2d_6">
      <g>
       <use style="stroke:#000000;stroke-width:0.8;" x="398.487273" xlink:href="#mdb862c4efa" y="307.584"/>
      </g>
     </g>
     <g id="text_6">
      <!-- 50000 -->
      <defs>
       <path d="M 10.796875 72.90625 
L 49.515625 72.90625 
L 49.515625 64.59375 
L 19.828125 64.59375 
L 19.828125 46.734375 
Q 21.96875 47.46875 24.109375 47.828125 
Q 26.265625 48.1875 28.421875 48.1875 
Q 40.625 48.1875 47.75 41.5 
Q 54.890625 34.8125 54.890625 23.390625 
Q 54.890625 11.625 47.5625 5.09375 
Q 40.234375 -1.421875 26.90625 -1.421875 
Q 22.3125 -1.421875 17.546875 -0.640625 
Q 12.796875 0.140625 7.71875 1.703125 
L 7.71875 11.625 
Q 12.109375 9.234375 16.796875 8.0625 
Q 21.484375 6.890625 26.703125 6.890625 
Q 35.15625 6.890625 40.078125 11.328125 
Q 45.015625 15.765625 45.015625 23.390625 
Q 45.015625 31 40.078125 35.4375 
Q 35.15625 39.890625 26.703125 39.890625 
Q 22.75 39.890625 18.8125 39.015625 
Q 14.890625 38.140625 10.796875 36.28125 
z
" id="DejaVuSans-35"/>
      </defs>
      <g transform="translate(382.581023 322.182437)scale(0.1 -0.1)">
       <use xlink:href="#DejaVuSans-35"/>
       <use x="63.623047" xlink:href="#DejaVuSans-30"/>
       <use x="127.246094" xlink:href="#DejaVuSans-30"/>
       <use x="190.869141" xlink:href="#DejaVuSans-30"/>
       <use x="254.492188" xlink:href="#DejaVuSans-30"/>
      </g>
     </g>
    </g>
   </g>
   <g id="matplotlib.axis_2">
    <g id="ytick_1">
     <g id="line2d_7">
      <defs>
       <path d="M 0 0 
L -3.5 0 
" id="mf92280ee9d" style="stroke:#000000;stroke-width:0.8;"/>
      </defs>
      <g>
       <use style="stroke:#000000;stroke-width:0.8;" x="57.6" xlink:href="#mf92280ee9d" y="295.488"/>
      </g>
     </g>
     <g id="text_7">
      <!-- 0 -->
      <g transform="translate(44.2375 299.287219)scale(0.1 -0.1)">
       <use xlink:href="#DejaVuSans-30"/>
      </g>
     </g>
    </g>
    <g id="ytick_2">
     <g id="line2d_8">
      <g>
       <use style="stroke:#000000;stroke-width:0.8;" x="57.6" xlink:href="#mf92280ee9d" y="248.941058"/>
      </g>
     </g>
     <g id="text_8">
      <!-- 1 -->
      <g transform="translate(44.2375 252.740277)scale(0.1 -0.1)">
       <use xlink:href="#DejaVuSans-31"/>
      </g>
     </g>
    </g>
    <g id="ytick_3">
     <g id="line2d_9">
      <g>
       <use style="stroke:#000000;stroke-width:0.8;" x="57.6" xlink:href="#mf92280ee9d" y="202.394116"/>
      </g>
     </g>
     <g id="text_9">
      <!-- 2 -->
      <g transform="translate(44.2375 206.193335)scale(0.1 -0.1)">
       <use xlink:href="#DejaVuSans-32"/>
      </g>
     </g>
    </g>
    <g id="ytick_4">
     <g id="line2d_10">
      <g>
       <use style="stroke:#000000;stroke-width:0.8;" x="57.6" xlink:href="#mf92280ee9d" y="155.847175"/>
      </g>
     </g>
     <g id="text_10">
      <!-- 3 -->
      <g transform="translate(44.2375 159.646393)scale(0.1 -0.1)">
       <use xlink:href="#DejaVuSans-33"/>
      </g>
     </g>
    </g>
    <g id="ytick_5">
     <g id="line2d_11">
      <g>
       <use style="stroke:#000000;stroke-width:0.8;" x="57.6" xlink:href="#mf92280ee9d" y="109.300233"/>
      </g>
     </g>
     <g id="text_11">
      <!-- 4 -->
      <g transform="translate(44.2375 113.099452)scale(0.1 -0.1)">
       <use xlink:href="#DejaVuSans-34"/>
      </g>
     </g>
    </g>
    <g id="ytick_6">
     <g id="line2d_12">
      <g>
       <use style="stroke:#000000;stroke-width:0.8;" x="57.6" xlink:href="#mf92280ee9d" y="62.753291"/>
      </g>
     </g>
     <g id="text_12">
      <!-- 5 -->
      <g transform="translate(44.2375 66.55251)scale(0.1 -0.1)">
       <use xlink:href="#DejaVuSans-35"/>
      </g>
     </g>
    </g>
    <g id="text_13">
     <!-- 1e−7 -->
     <defs>
      <path d="M 56.203125 29.59375 
L 56.203125 25.203125 
L 14.890625 25.203125 
Q 15.484375 15.921875 20.484375 11.0625 
Q 25.484375 6.203125 34.421875 6.203125 
Q 39.59375 6.203125 44.453125 7.46875 
Q 49.3125 8.734375 54.109375 11.28125 
L 54.109375 2.78125 
Q 49.265625 0.734375 44.1875 -0.34375 
Q 39.109375 -1.421875 33.890625 -1.421875 
Q 20.796875 -1.421875 13.15625 6.1875 
Q 5.515625 13.8125 5.515625 26.8125 
Q 5.515625 40.234375 12.765625 48.109375 
Q 20.015625 56 32.328125 56 
Q 43.359375 56 49.78125 48.890625 
Q 56.203125 41.796875 56.203125 29.59375 
z
M 47.21875 32.234375 
Q 47.125 39.59375 43.09375 43.984375 
Q 39.0625 48.390625 32.421875 48.390625 
Q 24.90625 48.390625 20.390625 44.140625 
Q 15.875 39.890625 15.1875 32.171875 
z
" id="DejaVuSans-65"/>
      <path d="M 10.59375 35.5 
L 73.1875 35.5 
L 73.1875 27.203125 
L 10.59375 27.203125 
z
" id="DejaVuSans-2212"/>
      <path d="M 8.203125 72.90625 
L 55.078125 72.90625 
L 55.078125 68.703125 
L 28.609375 0 
L 18.3125 0 
L 43.21875 64.59375 
L 8.203125 64.59375 
z
" id="DejaVuSans-37"/>
     </defs>
     <g transform="translate(57.6 38.472)scale(0.1 -0.1)">
      <use xlink:href="#DejaVuSans-31"/>
      <use x="63.623047" xlink:href="#DejaVuSans-65"/>
      <use x="125.146484" xlink:href="#DejaVuSans-2212"/>
      <use x="208.935547" xlink:href="#DejaVuSans-37"/>
     </g>
    </g>
   </g>
   <g id="line2d_13">
    <path clip-path="url(#p62a74b09bb)" d="M 73.832727 295.488 
L 73.881588 295.383782 
L 73.944084 295.396393 
L 74.1991 295.347637 
L 74.309645 294.538522 
L 74.551837 290.762296 
L 75.185238 276.487626 
L 75.844287 251.44512 
L 76.667611 211.45146 
L 77.837179 153.948864 
L 78.808383 119.721549 
L 79.134011 114.895921 
L 79.34455 112.514488 
L 80.026811 102.722095 
L 80.144336 102.492207 
L 80.186054 102.534203 
L 80.298385 102.959132 
L 80.496586 104.750618 
L 80.809878 109.922164 
L 81.296535 122.150785 
L 81.61632 128.202409 
L 81.902178 129.509346 
L 82.172129 130.975742 
L 82.463181 134.049785 
L 82.862344 140.967928 
L 83.473506 155.979712 
L 84.802317 189.421937 
L 84.885429 189.337483 
L 85.089637 188.611404 
L 85.404065 187.812497 
L 85.521752 187.886551 
L 85.676937 188.35978 
L 85.919778 189.94215 
L 86.286151 194.013765 
L 86.863874 203.276645 
L 87.57016 215.05489 
L 87.622104 214.942231 
L 87.753752 213.931032 
L 88.648662 205.752875 
L 88.759532 205.705717 
L 88.791835 205.736833 
L 88.932248 206.094489 
L 89.16535 207.411805 
L 89.531885 210.952219 
L 90.1286 219.197885 
L 90.931308 231.141912 
L 90.998836 230.917796 
L 91.151749 229.259601 
L 92.090812 217.438647 
L 92.311902 216.985183 
L 92.424394 217.101212 
L 92.601656 217.702207 
L 92.8893 219.595875 
L 93.345115 224.293763 
L 94.215676 235.342227 
L 94.326708 234.724621 
L 94.548285 231.335691 
L 95.24337 220.597796 
L 95.54611 218.9015 
L 95.69951 218.748097 
L 95.722722 218.762251 
L 95.853558 219.011662 
L 96.072213 220.006564 
L 96.420892 222.789503 
L 96.988226 229.371763 
L 97.404595 234.287339 
L 97.462059 234.102925 
L 97.598576 232.585044 
L 98.712304 217.483618 
L 98.887455 217.252298 
L 98.902876 217.259529 
L 99.025595 217.464004 
L 99.230777 218.335033 
L 99.559814 220.855655 
L 100.089488 226.883098 
L 100.801618 236.009063 
L 100.880509 235.671958 
L 101.049167 233.426015 
L 101.965829 219.602065 
L 102.227825 218.644662 
L 102.338695 218.64178 
L 102.360447 218.666753 
L 102.511411 219.053697 
L 102.761395 220.418545 
L 103.157961 224.002265 
L 103.828372 232.402731 
L 104.320549 238.572781 
L 104.375415 238.398212 
L 104.50755 236.917308 
L 104.944535 228.521161 
L 105.3997 222.094873 
L 105.703577 220.356904 
L 105.862008 220.190701 
L 105.883273 220.203008 
L 106.013135 220.441798 
L 106.230167 221.40458 
L 106.576898 224.111452 
L 107.141147 230.525954 
L 107.692898 237.245916 
L 107.758316 236.997833 
L 107.906196 235.13422 
L 108.974959 219.075174 
L 109.203028 218.542561 
L 109.315521 218.639983 
L 109.486614 219.185652 
L 109.766466 220.948071 
L 110.211243 225.375037 
L 111.005835 235.139132 
L 111.111185 234.534457 
L 111.321724 231.136922 
L 112.067618 218.639195 
L 112.37117 216.845012 
L 112.526517 216.675163 
L 112.549567 216.688772 
L 112.677806 216.933334 
L 112.893214 217.923477 
L 113.237673 220.716054 
L 113.797215 227.338009 
L 115.022136 244.141386 
L 115.124078 243.551804 
L 115.326825 240.193354 
L 116.144954 225.725953 
L 116.458733 223.771787 
L 116.640052 223.54027 
L 116.652227 223.545614 
L 116.777219 223.739712 
L 116.984349 224.565597 
L 117.316957 226.951014 
L 117.855234 232.659385 
L 118.413153 239.155873 
L 118.482629 238.861535 
L 118.635866 236.740074 
L 119.700084 219.312648 
L 119.94601 218.56022 
L 120.065482 218.617609 
L 120.223752 219.063536 
L 120.485261 220.583714 
L 120.900819 224.505702 
L 121.47286 231.041243 
L 121.559705 230.602005 
L 121.740213 227.847012 
L 122.600872 213.344437 
L 122.878289 212.025332 
L 122.992568 211.964279 
L 123.025683 211.994254 
L 123.165446 212.339229 
L 123.400172 213.623793 
L 123.773524 217.091645 
L 124.391667 225.226904 
L 125.246807 237.43705 
L 125.317744 237.140573 
L 125.473416 235.029086 
L 126.502246 218.657125 
L 126.748983 217.894021 
L 126.868618 217.950233 
L 127.026238 218.394384 
L 127.286611 219.911457 
L 127.700059 223.829636 
L 128.191099 229.326718 
L 128.269503 228.954526 
L 128.437025 226.469118 
L 129.364887 210.822345 
L 129.625423 209.774587 
L 129.759505 209.455518 
L 129.8931 207.373683 
L 130.351837 195.237825 
L 130.788335 187.082479 
L 131.079713 184.967971 
L 131.203893 184.807922 
L 131.242527 184.832549 
L 131.284732 184.750871 
L 131.289277 184.729423 
L 131.388946 183.662891 
L 131.653864 177.770821 
L 132.204154 166.683165 
L 132.730581 158.990402 
L 133.366742 144.583066 
L 133.637503 142.603233 
L 133.763307 142.023573 
L 133.938458 138.966676 
L 134.621694 126.346633 
L 134.837102 125.519637 
L 134.838401 125.519829 
L 134.918428 125.646076 
L 135.07621 126.273985 
L 135.146822 125.977169 
L 135.31126 123.844436 
L 135.917877 115.676963 
L 136.059589 115.347211 
L 136.093353 115.37434 
L 136.198541 115.712352 
L 136.4245 117.13488 
L 136.514105 116.72643 
L 136.721072 114.088279 
L 137.177699 108.902541 
L 137.32217 108.563774 
L 137.355123 108.58967 
L 137.459337 108.920395 
L 137.644552 110.401604 
L 137.83967 112.10301 
L 137.897458 111.947271 
L 138.044851 110.635641 
L 138.582966 105.723025 
L 138.661533 105.653383 
L 138.709094 105.713569 
L 138.832301 106.226164 
L 139.042028 108.230836 
L 139.244125 110.154472 
L 139.294934 110.038287 
L 139.430801 108.965409 
L 139.98239 104.375648 
L 140.044886 104.35506 
L 140.088389 104.418603 
L 140.214842 104.964959 
L 140.428303 107.058724 
L 140.725848 110.505127 
L 140.790617 110.336686 
L 140.955055 108.997002 
L 141.40324 105.585964 
L 141.482943 105.520274 
L 141.529693 105.57836 
L 141.653062 106.076971 
L 141.86149 108.022171 
L 142.316169 114.193932 
L 142.431583 113.754243 
L 143.032357 109.908815 
L 143.10443 110.001383 
L 143.240136 110.621935 
L 143.463985 112.876663 
L 143.918988 119.276234 
L 144.025962 118.876798 
L 144.327566 116.123624 
L 144.617645 114.565573 
L 144.684686 114.545988 
L 144.726566 114.605154 
L 144.854318 115.126044 
L 145.068265 117.108321 
L 145.489342 122.676795 
L 145.59518 122.238248 
L 145.86302 119.420433 
L 146.204719 116.884556 
L 146.301466 116.770407 
L 146.346755 116.820081 
L 146.467202 117.271457 
L 146.672708 119.070903 
L 146.992168 124.132914 
L 147.303187 128.693021 
L 147.334029 128.653058 
L 147.43451 128.107457 
L 148.084468 123.501276 
L 148.13268 123.542943 
L 148.250042 123.940922 
L 148.450516 125.56196 
L 148.762347 130.180555 
L 148.924512 131.779283 
L 148.957464 131.72477 
L 149.059406 131.034274 
L 149.803677 124.345904 
L 149.855946 124.395224 
L 149.975906 124.836255 
L 150.181899 126.604226 
L 150.504119 131.59033 
L 150.715631 134.168988 
L 150.747772 134.118544 
L 150.848253 133.463178 
L 151.591387 126.939371 
L 151.649825 126.999464 
L 151.775141 127.487298 
L 151.988277 129.379521 
L 152.320399 134.621214 
L 152.541813 137.446428 
L 152.574603 137.392731 
L 152.675895 136.707956 
L 153.10655 131.448303 
L 153.384616 129.80671 
L 153.45604 129.76962 
L 153.501005 129.828728 
L 153.628756 130.337315 
L 153.845463 132.284462 
L 154.183104 137.636944 
L 154.417018 140.754233 
L 154.451756 140.692176 
L 154.556132 139.93972 
L 155.341147 132.501943 
L 155.387897 132.540737 
L 155.503799 132.928083 
L 155.704598 134.528288 
L 155.876015 136.022619 
L 155.935102 135.805259 
L 156.076976 134.038238 
L 156.819461 123.61139 
L 156.990717 122.62936 
L 157.191191 118.150933 
L 157.814365 104.182331 
L 158.002989 100.821386 
L 159.638761 59.523525 
L 159.891992 57.413734 
L 159.941015 57.380924 
L 159.9902 57.465309 
L 160.111621 58.156617 
L 160.324756 60.895391 
L 160.662235 68.53938 
L 161.196454 86.402383 
L 162.306285 132.819961 
L 163.447933 176.989475 
L 163.565296 177.659649 
L 163.606851 177.591159 
L 163.725026 176.861066 
L 164.485691 171.300952 
L 164.581627 171.409545 
L 164.736162 172.038689 
L 164.987932 174.158525 
L 165.377355 179.600004 
L 165.736098 185.009523 
L 165.79762 184.757043 
L 165.940306 182.770628 
L 166.868656 167.577161 
L 167.019945 167.280021 
L 167.048677 167.298481 
L 167.157598 167.572853 
L 167.350443 168.789908 
L 167.660975 172.398128 
L 168.063709 178.149668 
L 168.143087 177.735373 
L 168.31418 174.969042 
L 169.081014 161.437636 
L 169.308435 160.587712 
L 169.396578 160.682073 
L 169.540725 161.301432 
L 169.783729 163.501576 
L 170.166984 169.299574 
L 170.799573 182.755033 
L 171.002644 185.766351 
L 171.035434 185.695487 
L 171.133155 184.810268 
L 171.401969 179.794643 
L 171.921904 171.210991 
L 172.188283 169.72352 
L 172.268797 169.682521 
L 172.311976 169.733995 
L 172.444435 170.194706 
L 172.670719 171.936543 
L 173.028813 176.680685 
L 173.609296 187.761755 
L 174.090434 196.924008 
L 174.140268 196.753374 
L 174.264449 195.198547 
L 174.66978 186.258158 
L 175.100921 179.333299 
L 175.369573 177.811633 
L 175.456255 177.760432 
L 175.498947 177.80831 
L 175.631569 178.246149 
L 175.716791 178.586501 
L 175.768735 178.362854 
L 175.889345 176.419922 
L 176.242082 165.964289 
L 176.725492 154.447055 
L 177.141537 146.548323 
L 178.926488 87.101209 
L 179.150013 81.921666 
L 179.963272 58.227656 
L 180.164883 57.186465 
L 180.172999 57.188922 
L 180.244098 57.349898 
L 180.384674 58.369977 
L 180.624431 62.027864 
L 181.001842 71.692848 
L 181.615439 93.947489 
L 184.596093 209.900668 
L 185.521845 234.094645 
L 185.678491 236.254959 
L 185.721345 236.100051 
L 185.832539 234.53735 
L 186.123267 226.494254 
L 186.75537 210.214143 
L 187.110055 206.071443 
L 187.352085 205.214426 
L 187.454189 205.260974 
L 187.46263 205.274647 
L 187.613107 205.751359 
L 187.865851 207.424169 
L 188.269072 211.80423 
L 188.95945 222.122198 
L 189.756639 234.667795 
L 189.818161 234.333481 
L 189.955327 231.734179 
L 190.372346 218.119339 
L 190.884976 204.84294 
L 191.234304 200.6559 
L 191.471464 199.821139 
L 191.576328 199.890738 
L 191.72648 200.397 
L 191.979386 202.172184 
L 192.383094 206.818129 
L 193.074284 217.756364 
L 193.490004 224.21359 
L 193.544059 223.958405 
L 193.671161 221.783643 
L 194.033476 210.581703 
L 194.569156 196.725184 
L 194.911341 192.724979 
L 195.137139 192.006938 
L 195.233886 192.100948 
L 195.377545 192.524059 
L 195.431113 192.259483 
L 195.551398 190.059468 
L 195.878974 178.769642 
L 196.422284 162.646981 
L 196.749535 158.463392 
L 196.863165 156.761031 
L 197.09789 148.698212 
L 197.770087 125.775789 
L 198.364042 111.56805 
L 198.95118 92.142877 
L 199.240934 88.622613 
L 199.347746 88.379603 
L 199.393197 88.435362 
L 199.506015 88.960055 
L 199.708924 91.165377 
L 200.034877 97.515623 
L 200.553675 112.584987 
L 201.6114 151.318724 
L 203.054651 201.596361 
L 204.046633 228.615751 
L 204.948199 247.431431 
L 205.255647 252.011867 
L 205.301423 251.805931 
L 205.414403 249.833692 
L 205.700586 239.955621 
L 206.395996 216.906903 
L 206.781686 210.766087 
L 207.065758 209.067767 
L 207.191887 208.947592 
L 207.225813 208.973803 
L 207.356649 209.287419 
L 207.58066 210.516117 
L 207.941027 213.9233 
L 208.53758 221.997876 
L 209.542061 237.299066 
L 209.622088 236.699854 
L 209.783766 232.790639 
L 210.952847 199.221588 
L 211.238705 197.291943 
L 211.362724 197.14959 
L 211.398922 197.178201 
L 211.524888 197.504777 
L 211.743056 198.811237 
L 212.094333 202.47438 
L 212.670757 211.16377 
L 213.742928 229.593526 
L 213.830585 228.897484 
L 214.004113 224.604833 
L 215.058591 194.526455 
L 215.218321 189.710981 
L 215.758384 162.98691 
L 216.216634 147.343356 
L 216.447301 137.193046 
L 217.207155 102.262049 
L 217.467852 92.385061 
L 218.232251 59.45166 
L 218.516162 55.555969 
L 218.615506 55.307518 
L 218.663393 55.376715 
L 218.776697 55.999562 
L 218.981229 58.604093 
L 219.310104 66.076743 
L 219.834422 83.776152 
L 220.913573 129.551207 
L 222.342378 187.013805 
L 223.334685 218.241059 
L 224.236413 239.986122 
L 224.819654 250.315864 
L 224.840108 250.271119 
L 224.912181 249.469652 
L 225.089605 244.44379 
L 226.21713 207.39743 
L 226.54357 204.132316 
L 226.758004 203.605319 
L 226.859134 203.729356 
L 227.028442 204.397225 
L 227.309268 206.563651 
L 227.759239 212.018884 
L 228.583537 225.220621 
L 229.136261 233.930292 
L 229.188693 233.651571 
L 229.310438 231.235811 
L 229.630223 219.253019 
L 230.249015 198.216801 
L 230.620744 192.186305 
L 230.885013 190.711931 
L 230.974618 190.660306 
L 231.016336 190.705611 
L 231.151067 191.129824 
L 231.382871 192.733043 
L 231.7546 197.094715 
L 232.373229 207.372562 
L 233.20889 222.520812 
L 233.279503 222.037942 
L 233.428032 218.620208 
L 233.993743 197.788132 
L 234.437545 186.850081 
L 234.767719 179.710021 
L 235.248695 155.255258 
L 235.718794 137.799119 
L 236.047507 132.427766 
L 236.173311 130.235651 
L 236.419074 120.538604 
L 237.065462 95.683425 
L 237.665261 79.300813 
L 238.245094 57.723004 
L 238.532413 53.820006 
L 238.633056 53.568356 
L 238.680456 53.635787 
L 238.793111 54.246685 
L 238.996182 56.808689 
L 239.321811 64.170984 
L 239.838823 81.613602 
L 240.879341 125.971962 
L 242.347104 185.745079 
L 243.340385 217.358314 
L 244.242275 239.355904 
L 245.098064 255.084326 
L 245.574982 261.569386 
L 245.610369 261.427508 
L 245.704844 259.791278 
L 245.92918 251.135836 
L 246.858017 212.634695 
L 247.242732 205.774439 
L 247.530701 203.815485 
L 247.663485 203.655615 
L 247.696599 203.679589 
L 247.821754 203.98029 
L 248.038461 205.19635 
L 248.388763 208.626974 
L 248.965836 216.79684 
L 249.581868 226.363865 
L 249.649559 225.883866 
L 249.791433 222.398409 
L 250.217217 204.517882 
L 250.73845 187.087626 
L 251.096869 181.412551 
L 251.345554 180.16459 
L 251.417952 180.15367 
L 251.456099 180.205717 
L 251.592941 180.697334 
L 251.828478 182.525421 
L 252.205889 187.458434 
L 252.836205 199.061737 
L 254.589502 234.500907 
L 254.659952 233.975185 
L 254.805885 230.262574 
L 255.256667 211.006516 
L 255.77303 193.766347 
L 256.136481 187.944942 
L 256.392958 186.587452 
L 256.472986 186.556991 
L 256.514217 186.606846 
L 256.650409 187.064674 
L 256.88481 188.777587 
L 257.26076 193.414192 
L 257.888804 204.335511 
L 258.851405 222.675915 
L 258.92364 222.132282 
L 259.072657 218.349054 
L 259.583825 197.186824 
L 260.057821 183.031075 
L 260.396923 178.444919 
L 260.622233 177.617175 
L 260.712812 177.709403 
L 260.85988 178.313383 
L 261.109864 180.447069 
L 261.509189 186.051912 
L 262.189016 199.222755 
L 263.907737 234.586509 
L 263.954812 234.342519 
L 264.067792 232.060759 
L 264.349917 220.721024 
L 265.047274 193.68335 
L 265.424685 186.793133 
L 265.696746 185.018294 
L 265.795116 184.928943 
L 265.838133 184.971949 
L 265.96767 185.379545 
L 266.192493 186.961369 
L 266.554159 191.32871 
L 267.151848 201.647702 
L 268.972997 237.019931 
L 269.058381 236.230128 
L 269.223144 231.31331 
L 270.440923 188.005847 
L 270.737819 185.430063 
L 270.881641 185.179441 
L 270.912646 185.200241 
L 271.026762 185.486497 
L 271.228859 186.719335 
L 271.557085 190.31373 
L 272.089681 198.952013 
L 273.286195 221.990174 
L 273.390734 220.852515 
L 273.583903 214.580424 
L 274.560302 179.170779 
L 274.885119 175.207168 
L 275.087866 174.608311 
L 275.093385 174.609628 
L 275.18445 174.755195 
L 275.347102 175.552973 
L 275.619163 178.19085 
L 276.053388 184.88802 
L 276.82428 200.813852 
L 277.407847 212.733179 
L 277.458818 212.452658 
L 277.578291 209.97369 
L 277.888823 197.65456 
L 278.504043 175.398178 
L 278.862137 169.416349 
L 279.107251 168.142518 
L 279.173156 168.13692 
L 279.211303 168.193046 
L 279.346197 168.717293 
L 279.579299 170.680175 
L 279.952327 175.992438 
L 280.571768 188.472339 
L 281.892463 218.004864 
L 281.97249 217.320341 
L 282.131895 212.876995 
L 283.320131 173.2735 
L 283.589919 171.395854 
L 283.680822 171.309284 
L 283.726274 171.358569 
L 283.854025 171.803213 
L 284.077063 173.537773 
L 284.435319 178.334757 
L 285.024567 189.658022 
L 286.5446 222.870256 
L 286.637776 221.934544 
L 286.814063 216.415227 
L 287.906688 176.79424 
L 288.211863 173.678902 
L 288.369321 173.331965 
L 288.395618 173.347575 
L 288.501293 173.605551 
L 288.691378 174.783164 
L 289.002235 178.329371 
L 289.502203 186.952071 
L 290.516261 209.183913 
L 291.56733 230.963923 
L 291.585998 230.922615 
L 291.654013 230.124471 
L 291.819912 224.956257 
L 293.027464 180.207354 
L 293.32225 177.550759 
L 293.459904 177.304778 
L 293.493506 177.329351 
L 293.60746 177.639895 
L 293.810206 178.970504 
L 294.139406 182.840662 
L 294.6733 192.126915 
L 295.918675 218.89079 
L 296.124669 222.266004 
L 296.173854 221.989021 
L 296.289431 219.479764 
L 296.578373 207.121122 
L 297.254791 179.554543 
L 297.626358 172.466666 
L 297.889815 170.740637 
L 297.972115 170.677712 
L 298.018054 170.731086 
L 298.147916 171.19977 
L 298.374038 173.004634 
L 298.737326 177.96595 
L 299.33745 189.666453 
L 300.238691 209.076813 
L 300.313199 208.464388 
L 300.464326 204.304797 
L 301.009258 180.170978 
L 301.465236 166.208478 
L 301.791351 161.842282 
L 301.993286 161.182866 
L 301.999617 161.184415 
L 302.086787 161.332362 
L 302.245381 162.164053 
L 302.511597 164.950817 
L 302.935921 172.074968 
L 303.677594 188.898431 
L 304.92443 218.153765 
L 304.970369 217.909169 
L 305.081725 215.584076 
L 305.357194 204.011218 
L 306.056176 175.505704 
L 306.423035 168.654002 
L 306.680324 167.054293 
L 306.754183 167.011507 
L 306.799797 167.068759 
L 306.930957 167.564152 
L 307.159027 169.45659 
L 307.525075 174.635844 
L 308.130556 186.835012 
L 309.504656 217.897623 
L 309.589553 217.082601 
L 309.753504 211.999786 
L 310.945149 167.999636 
L 311.226137 165.656361 
L 311.334409 165.502143 
L 311.377426 165.54382 
L 311.498522 165.951568 
L 311.71247 167.604554 
L 312.05774 172.274164 
L 312.621178 183.357867 
L 313.871747 211.776569 
L 313.968656 210.728685 
L 314.149327 204.707662 
L 315.205915 164.284675 
L 315.510928 160.905516 
L 315.665463 160.534304 
L 315.693221 160.552 
L 315.796786 160.827146 
L 315.984923 162.093752 
L 316.292858 165.924895 
L 316.786982 175.253045 
L 317.769712 198.953858 
L 318.554889 216.898462 
L 318.590601 216.74569 
L 318.686536 214.995942 
L 318.916392 205.777148 
L 319.751078 170.649738 
L 320.10479 164.517752 
L 320.347793 163.224524 
L 320.410614 163.220887 
L 320.448761 163.278915 
L 320.582681 163.818878 
L 320.814809 165.848269 
L 321.187025 171.355901 
L 321.805492 184.308725 
L 323.080898 213.954392 
L 323.160113 213.226983 
L 323.315785 208.493647 
L 323.903248 180.236419 
L 324.356141 165.595551 
L 324.686152 160.875896 
L 324.900749 160.109263 
L 324.984834 160.231443 
L 325.135149 160.970414 
L 325.390328 163.535983 
L 325.797607 170.211452 
L 326.496264 185.906796 
L 327.810628 217.124979 
L 327.865819 216.760336 
L 327.988863 213.72814 
L 328.300044 199.105602 
L 328.944808 171.043248 
L 329.318486 163.294528 
L 329.583891 161.384962 
L 329.66684 161.308257 
L 329.713915 161.363595 
L 329.841342 161.846445 
L 330.064542 163.728625 
L 330.423447 168.934094 
L 331.014156 181.22116 
L 332.464226 215.443794 
L 332.555454 214.471344 
L 332.72606 208.692745 
L 333.888323 162.302635 
L 334.181324 159.377101 
L 334.311672 159.120188 
L 334.348521 159.1508 
L 334.461014 159.503899 
L 334.662786 161.017703 
L 334.990363 165.423993 
L 335.520199 175.99002 
L 336.719635 205.673075 
L 337.389398 220.606896 
L 337.423649 220.461048 
L 337.516662 218.737044 
L 337.735966 209.580029 
L 338.637694 169.068182 
L 338.990918 162.778429 
L 339.234734 161.440368 
L 339.296743 161.43313 
L 339.336513 161.492965 
L 339.469784 162.035973 
L 339.701263 164.083899 
L 340.072667 169.649862 
L 340.689998 182.751635 
L 341.552118 202.663037 
L 341.621432 202.092402 
L 341.763468 198.039033 
L 342.17026 177.939084 
L 342.702694 156.505557 
L 343.058028 149.78896 
L 343.300545 148.383631 
L 343.358009 148.37663 
L 343.398591 148.440318 
L 343.529589 149.00885 
L 343.757983 151.173396 
L 344.124031 157.084023 
L 344.728051 170.977243 
L 346.209612 209.187676 
L 346.295646 208.307853 
L 346.459434 202.889663 
L 347.667798 155.12276 
L 347.942781 152.786995 
L 348.038878 152.657135 
L 348.085142 152.708068 
L 348.207536 153.172277 
L 348.423756 155.031375 
L 348.772111 160.248401 
L 349.341068 172.601982 
L 350.800714 209.16438 
L 350.901195 207.967545 
L 351.083489 201.274918 
L 352.165887 155.508321 
L 352.473984 151.732657 
L 352.635175 151.292713 
L 352.660498 151.308071 
L 352.759355 151.570509 
L 352.941324 152.822649 
L 353.240656 156.681316 
L 353.719846 166.152968 
L 354.638781 189.628822 
L 355.418925 208.782573 
L 355.457235 208.59831 
L 355.556254 206.60138 
L 355.790493 196.326486 
L 356.620797 158.248573 
L 356.975644 151.491765 
L 357.219297 150.060228 
L 357.27741 150.049694 
L 357.319128 150.113631 
L 357.450127 150.677514 
L 357.678521 152.824919 
L 358.044894 158.691466 
L 358.650374 172.493572 
L 360.14898 210.767303 
L 360.234039 209.881436 
L 360.395068 204.398476 
L 361.655864 152.59121 
L 361.925489 150.392046 
L 362.012984 150.287928 
L 362.060708 150.343974 
L 362.184888 150.835971 
L 362.403868 152.784308 
L 362.756443 158.218901 
L 363.334003 171.069416 
L 364.750471 207.144039 
L 364.846082 206.032206 
L 365.020908 199.632924 
L 366.167913 150.410574 
L 366.463186 147.145372 
L 366.596619 146.845495 
L 366.632818 146.875966 
L 366.741902 147.234319 
L 366.939454 148.801989 
L 367.260862 153.413751 
L 367.778849 164.512155 
L 368.888518 194.321752 
L 369.493349 209.060593 
L 369.530685 208.881917 
L 369.627919 206.907007 
L 369.855664 196.699019 
L 370.723303 155.421371 
L 371.076527 148.613795 
L 371.318882 147.183275 
L 371.375696 147.174911 
L 371.416765 147.239258 
L 371.547276 147.810501 
L 371.775184 149.990867 
L 372.140907 155.954125 
L 372.745089 169.987615 
L 374.056044 204.070908 
L 374.139643 203.205753 
L 374.298237 197.792751 
L 374.859564 167.289156 
L 375.32593 149.624212 
L 375.663571 143.844163 
L 375.886771 142.817201 
L 375.966636 142.911976 
L 376.10364 143.575395 
L 376.340476 146.020332 
L 376.71951 152.587678 
L 377.35145 167.990211 
L 378.796325 206.67627 
L 378.870509 205.983048 
L 379.016603 201.294984 
L 379.42583 178.657286 
L 379.973685 153.660165 
L 380.340869 145.580013 
L 380.598483 143.685848 
L 380.667959 143.630512 
L 380.716657 143.69589 
L 380.843759 144.243187 
L 381.066959 146.370563 
L 381.425702 152.24728 
L 382.015275 166.102913 
L 383.433204 203.852821 
L 383.523782 202.825812 
L 383.690817 196.733122 
L 384.913791 143.445048 
L 385.191695 140.806892 
L 385.291364 140.646948 
L 385.337627 140.6988 
L 385.4571 141.175426 
L 385.669749 143.113588 
L 386.012909 148.596846 
L 386.571315 161.606054 
L 388.002554 200.353023 
L 388.106768 199.00973 
L 388.291334 191.6931 
L 389.381362 141.911821 
L 389.688161 137.881952 
L 389.845131 137.424512 
L 389.872402 137.442866 
L 389.97061 137.73062 
L 390.152579 139.100956 
L 390.451748 143.318352 
L 390.930289 153.665085 
L 391.844354 179.231498 
L 392.968632 209.610287 
L 392.987625 209.562133 
L 393.055315 208.64823 
L 393.216019 202.786829 
L 393.752998 171.396031 
L 394.239168 150.784976 
L 394.591418 143.779708 
L 394.833286 142.310603 
L 394.888315 142.301446 
L 394.930195 142.367977 
L 395.059895 142.951092 
L 395.286991 145.186009 
L 395.651578 151.30988 
L 396.253325 165.724562 
L 397.831795 208.164836 
L 397.917829 207.212839 
L 398.077234 201.389123 
L 398.487273 177.05556 
L 398.487273 177.05556 
" style="fill:none;stroke:#1f77b4;stroke-linecap:square;stroke-width:1.5;"/>
   </g>
   <g id="patch_3">
    <path d="M 57.6 307.584 
L 57.6 41.472 
" style="fill:none;stroke:#000000;stroke-linecap:square;stroke-linejoin:miter;stroke-width:0.8;"/>
   </g>
   <g id="patch_4">
    <path d="M 414.72 307.584 
L 414.72 41.472 
" style="fill:none;stroke:#000000;stroke-linecap:square;stroke-linejoin:miter;stroke-width:0.8;"/>
   </g>
   <g id="patch_5">
    <path d="M 57.6 307.584 
L 414.72 307.584 
" style="fill:none;stroke:#000000;stroke-linecap:square;stroke-linejoin:miter;stroke-width:0.8;"/>
   </g>
   <g id="patch_6">
    <path d="M 57.6 41.472 
L 414.72 41.472 
" style="fill:none;stroke:#000000;stroke-linecap:square;stroke-linejoin:miter;stroke-width:0.8;"/>
   </g>
   <g id="text_14">
    <!-- Muscarinic recording -->
    <defs>
     <path d="M 9.8125 72.90625 
L 24.515625 72.90625 
L 43.109375 23.296875 
L 61.8125 72.90625 
L 76.515625 72.90625 
L 76.515625 0 
L 66.890625 0 
L 66.890625 64.015625 
L 48.09375 14.015625 
L 38.1875 14.015625 
L 19.390625 64.015625 
L 19.390625 0 
L 9.8125 0 
z
" id="DejaVuSans-4d"/>
     <path d="M 8.5 21.578125 
L 8.5 54.6875 
L 17.484375 54.6875 
L 17.484375 21.921875 
Q 17.484375 14.15625 20.5 10.265625 
Q 23.53125 6.390625 29.59375 6.390625 
Q 36.859375 6.390625 41.078125 11.03125 
Q 45.3125 15.671875 45.3125 23.6875 
L 45.3125 54.6875 
L 54.296875 54.6875 
L 54.296875 0 
L 45.3125 0 
L 45.3125 8.40625 
Q 42.046875 3.421875 37.71875 1 
Q 33.40625 -1.421875 27.6875 -1.421875 
Q 18.265625 -1.421875 13.375 4.4375 
Q 8.5 10.296875 8.5 21.578125 
z
M 31.109375 56 
z
" id="DejaVuSans-75"/>
     <path d="M 44.28125 53.078125 
L 44.28125 44.578125 
Q 40.484375 46.53125 36.375 47.5 
Q 32.28125 48.484375 27.875 48.484375 
Q 21.1875 48.484375 17.84375 46.4375 
Q 14.5 44.390625 14.5 40.28125 
Q 14.5 37.15625 16.890625 35.375 
Q 19.28125 33.59375 26.515625 31.984375 
L 29.59375 31.296875 
Q 39.15625 29.25 43.1875 25.515625 
Q 47.21875 21.78125 47.21875 15.09375 
Q 47.21875 7.46875 41.1875 3.015625 
Q 35.15625 -1.421875 24.609375 -1.421875 
Q 20.21875 -1.421875 15.453125 -0.5625 
Q 10.6875 0.296875 5.421875 2 
L 5.421875 11.28125 
Q 10.40625 8.6875 15.234375 7.390625 
Q 20.0625 6.109375 24.8125 6.109375 
Q 31.15625 6.109375 34.5625 8.28125 
Q 37.984375 10.453125 37.984375 14.40625 
Q 37.984375 18.0625 35.515625 20.015625 
Q 33.0625 21.96875 24.703125 23.78125 
L 21.578125 24.515625 
Q 13.234375 26.265625 9.515625 29.90625 
Q 5.8125 33.546875 5.8125 39.890625 
Q 5.8125 47.609375 11.28125 51.796875 
Q 16.75 56 26.8125 56 
Q 31.78125 56 36.171875 55.265625 
Q 40.578125 54.546875 44.28125 53.078125 
z
" id="DejaVuSans-73"/>
     <path d="M 48.78125 52.59375 
L 48.78125 44.1875 
Q 44.96875 46.296875 41.140625 47.34375 
Q 37.3125 48.390625 33.40625 48.390625 
Q 24.65625 48.390625 19.8125 42.84375 
Q 14.984375 37.3125 14.984375 27.296875 
Q 14.984375 17.28125 19.8125 11.734375 
Q 24.65625 6.203125 33.40625 6.203125 
Q 37.3125 6.203125 41.140625 7.25 
Q 44.96875 8.296875 48.78125 10.40625 
L 48.78125 2.09375 
Q 45.015625 0.34375 40.984375 -0.53125 
Q 36.96875 -1.421875 32.421875 -1.421875 
Q 20.0625 -1.421875 12.78125 6.34375 
Q 5.515625 14.109375 5.515625 27.296875 
Q 5.515625 40.671875 12.859375 48.328125 
Q 20.21875 56 33.015625 56 
Q 37.15625 56 41.109375 55.140625 
Q 45.0625 54.296875 48.78125 52.59375 
z
" id="DejaVuSans-63"/>
     <path d="M 34.28125 27.484375 
Q 23.390625 27.484375 19.1875 25 
Q 14.984375 22.515625 14.984375 16.5 
Q 14.984375 11.71875 18.140625 8.90625 
Q 21.296875 6.109375 26.703125 6.109375 
Q 34.1875 6.109375 38.703125 11.40625 
Q 43.21875 16.703125 43.21875 25.484375 
L 43.21875 27.484375 
z
M 52.203125 31.203125 
L 52.203125 0 
L 43.21875 0 
L 43.21875 8.296875 
Q 40.140625 3.328125 35.546875 0.953125 
Q 30.953125 -1.421875 24.3125 -1.421875 
Q 15.921875 -1.421875 10.953125 3.296875 
Q 6 8.015625 6 15.921875 
Q 6 25.140625 12.171875 29.828125 
Q 18.359375 34.515625 30.609375 34.515625 
L 43.21875 34.515625 
L 43.21875 35.40625 
Q 43.21875 41.609375 39.140625 45 
Q 35.0625 48.390625 27.6875 48.390625 
Q 23 48.390625 18.546875 47.265625 
Q 14.109375 46.140625 10.015625 43.890625 
L 10.015625 52.203125 
Q 14.9375 54.109375 19.578125 55.046875 
Q 24.21875 56 28.609375 56 
Q 40.484375 56 46.34375 49.84375 
Q 52.203125 43.703125 52.203125 31.203125 
z
" id="DejaVuSans-61"/>
     <path d="M 41.109375 46.296875 
Q 39.59375 47.171875 37.8125 47.578125 
Q 36.03125 48 33.890625 48 
Q 26.265625 48 22.1875 43.046875 
Q 18.109375 38.09375 18.109375 28.8125 
L 18.109375 0 
L 9.078125 0 
L 9.078125 54.6875 
L 18.109375 54.6875 
L 18.109375 46.1875 
Q 20.953125 51.171875 25.484375 53.578125 
Q 30.03125 56 36.53125 56 
Q 37.453125 56 38.578125 55.875 
Q 39.703125 55.765625 41.0625 55.515625 
z
" id="DejaVuSans-72"/>
     <path d="M 9.421875 54.6875 
L 18.40625 54.6875 
L 18.40625 0 
L 9.421875 0 
z
M 9.421875 75.984375 
L 18.40625 75.984375 
L 18.40625 64.59375 
L 9.421875 64.59375 
z
" id="DejaVuSans-69"/>
     <path d="M 54.890625 33.015625 
L 54.890625 0 
L 45.90625 0 
L 45.90625 32.71875 
Q 45.90625 40.484375 42.875 44.328125 
Q 39.84375 48.1875 33.796875 48.1875 
Q 26.515625 48.1875 22.3125 43.546875 
Q 18.109375 38.921875 18.109375 30.90625 
L 18.109375 0 
L 9.078125 0 
L 9.078125 54.6875 
L 18.109375 54.6875 
L 18.109375 46.1875 
Q 21.34375 51.125 25.703125 53.5625 
Q 30.078125 56 35.796875 56 
Q 45.21875 56 50.046875 50.171875 
Q 54.890625 44.34375 54.890625 33.015625 
z
" id="DejaVuSans-6e"/>
     <path id="DejaVuSans-20"/>
     <path d="M 30.609375 48.390625 
Q 23.390625 48.390625 19.1875 42.75 
Q 14.984375 37.109375 14.984375 27.296875 
Q 14.984375 17.484375 19.15625 11.84375 
Q 23.34375 6.203125 30.609375 6.203125 
Q 37.796875 6.203125 41.984375 11.859375 
Q 46.1875 17.53125 46.1875 27.296875 
Q 46.1875 37.015625 41.984375 42.703125 
Q 37.796875 48.390625 30.609375 48.390625 
z
M 30.609375 56 
Q 42.328125 56 49.015625 48.375 
Q 55.71875 40.765625 55.71875 27.296875 
Q 55.71875 13.875 49.015625 6.21875 
Q 42.328125 -1.421875 30.609375 -1.421875 
Q 18.84375 -1.421875 12.171875 6.21875 
Q 5.515625 13.875 5.515625 27.296875 
Q 5.515625 40.765625 12.171875 48.375 
Q 18.84375 56 30.609375 56 
z
" id="DejaVuSans-6f"/>
     <path d="M 45.40625 46.390625 
L 45.40625 75.984375 
L 54.390625 75.984375 
L 54.390625 0 
L 45.40625 0 
L 45.40625 8.203125 
Q 42.578125 3.328125 38.25 0.953125 
Q 33.9375 -1.421875 27.875 -1.421875 
Q 17.96875 -1.421875 11.734375 6.484375 
Q 5.515625 14.40625 5.515625 27.296875 
Q 5.515625 40.1875 11.734375 48.09375 
Q 17.96875 56 27.875 56 
Q 33.9375 56 38.25 53.625 
Q 42.578125 51.265625 45.40625 46.390625 
z
M 14.796875 27.296875 
Q 14.796875 17.390625 18.875 11.75 
Q 22.953125 6.109375 30.078125 6.109375 
Q 37.203125 6.109375 41.296875 11.75 
Q 45.40625 17.390625 45.40625 27.296875 
Q 45.40625 37.203125 41.296875 42.84375 
Q 37.203125 48.484375 30.078125 48.484375 
Q 22.953125 48.484375 18.875 42.84375 
Q 14.796875 37.203125 14.796875 27.296875 
z
" id="DejaVuSans-64"/>
     <path d="M 45.40625 27.984375 
Q 45.40625 37.75 41.375 43.109375 
Q 37.359375 48.484375 30.078125 48.484375 
Q 22.859375 48.484375 18.828125 43.109375 
Q 14.796875 37.75 14.796875 27.984375 
Q 14.796875 18.265625 18.828125 12.890625 
Q 22.859375 7.515625 30.078125 7.515625 
Q 37.359375 7.515625 41.375 12.890625 
Q 45.40625 18.265625 45.40625 27.984375 
z
M 54.390625 6.78125 
Q 54.390625 -7.171875 48.1875 -13.984375 
Q 42 -20.796875 29.203125 -20.796875 
Q 24.46875 -20.796875 20.265625 -20.09375 
Q 16.0625 -19.390625 12.109375 -17.921875 
L 12.109375 -9.1875 
Q 16.0625 -11.328125 19.921875 -12.34375 
Q 23.78125 -13.375 27.78125 -13.375 
Q 36.625 -13.375 41.015625 -8.765625 
Q 45.40625 -4.15625 45.40625 5.171875 
L 45.40625 9.625 
Q 42.625 4.78125 38.28125 2.390625 
Q 33.9375 0 27.875 0 
Q 17.828125 0 11.671875 7.65625 
Q 5.515625 15.328125 5.515625 27.984375 
Q 5.515625 40.671875 11.671875 48.328125 
Q 17.828125 56 27.875 56 
Q 33.9375 56 38.28125 53.609375 
Q 42.625 51.21875 45.40625 46.390625 
L 45.40625 54.6875 
L 54.390625 54.6875 
z
" id="DejaVuSans-67"/>
    </defs>
    <g transform="translate(173.590312 35.472)scale(0.12 -0.12)">
     <use xlink:href="#DejaVuSans-4d"/>
     <use x="86.279297" xlink:href="#DejaVuSans-75"/>
     <use x="149.658203" xlink:href="#DejaVuSans-73"/>
     <use x="201.757812" xlink:href="#DejaVuSans-63"/>
     <use x="256.738281" xlink:href="#DejaVuSans-61"/>
     <use x="318.017578" xlink:href="#DejaVuSans-72"/>
     <use x="359.130859" xlink:href="#DejaVuSans-69"/>
     <use x="386.914062" xlink:href="#DejaVuSans-6e"/>
     <use x="450.292969" xlink:href="#DejaVuSans-69"/>
     <use x="478.076172" xlink:href="#DejaVuSans-63"/>
     <use x="533.056641" xlink:href="#DejaVuSans-20"/>
     <use x="564.84375" xlink:href="#DejaVuSans-72"/>
     <use x="605.925781" xlink:href="#DejaVuSans-65"/>
     <use x="667.449219" xlink:href="#DejaVuSans-63"/>
     <use x="722.429688" xlink:href="#DejaVuSans-6f"/>
     <use x="783.611328" xlink:href="#DejaVuSans-72"/>
     <use x="824.708984" xlink:href="#DejaVuSans-64"/>
     <use x="888.185547" xlink:href="#DejaVuSans-69"/>
     <use x="915.96875" xlink:href="#DejaVuSans-6e"/>
     <use x="979.347656" xlink:href="#DejaVuSans-67"/>
    </g>
   </g>
  </g>
 </g>
 <defs>
  <clipPath id="p62a74b09bb">
   <rect height="266.112" width="357.12" x="57.6" y="41.472"/>
  </clipPath>
 </defs>
</svg>
