<?xml version="1.0" encoding="utf-8" standalone="no"?>
<!DOCTYPE svg PUBLIC "-//W3C//DTD SVG 1.1//EN"
  "http://www.w3.org/Graphics/SVG/1.1/DTD/svg11.dtd">
<!-- Created with matplotlib (http://matplotlib.org/) -->
<svg height="345.6pt" version="1.1" viewBox="0 0 460.8 345.6" width="460.8pt" xmlns="http://www.w3.org/2000/svg" xmlns:xlink="http://www.w3.org/1999/xlink">
 <defs>
  <style type="text/css">
*{stroke-linecap:butt;stroke-linejoin:round;}
  </style>
 </defs>
 <g id="figure_1">
  <g id="patch_1">
   <path d="M 0 345.6 
L 460.8 345.6 
L 460.8 0 
L 0 0 
z
" style="fill:#ffffff;"/>
  </g>
  <g id="axes_1">
   <g id="patch_2">
    <path d="M 57.6 307.584 
L 414.72 307.584 
L 414.72 41.472 
L 57.6 41.472 
z
" style="fill:#ffffff;"/>
   </g>
   <g id="matplotlib.axis_1">
    <g id="xtick_1">
     <g id="line2d_1">
      <defs>
       <path d="M 0 0 
L 0 3.5 
" id="md30f06cd74" style="stroke:#000000;stroke-width:0.8;"/>
      </defs>
      <g>
       <use style="stroke:#000000;stroke-width:0.8;" x="73.832727" xlink:href="#md30f06cd74" y="307.584"/>
      </g>
     </g>
     <g id="text_1">
      <!-- 0 -->
      <defs>
       <path d="M 31.78125 66.40625 
Q 24.171875 66.40625 20.328125 58.90625 
Q 16.5 51.421875 16.5 36.375 
Q 16.5 21.390625 20.328125 13.890625 
Q 24.171875 6.390625 31.78125 6.390625 
Q 39.453125 6.390625 43.28125 13.890625 
Q 47.125 21.390625 47.125 36.375 
Q 47.125 51.421875 43.28125 58.90625 
Q 39.453125 66.40625 31.78125 66.40625 
z
M 31.78125 74.21875 
Q 44.046875 74.21875 50.515625 64.515625 
Q 56.984375 54.828125 56.984375 36.375 
Q 56.984375 17.96875 50.515625 8.265625 
Q 44.046875 -1.421875 31.78125 -1.421875 
Q 19.53125 -1.421875 13.0625 8.265625 
Q 6.59375 17.96875 6.59375 36.375 
Q 6.59375 54.828125 13.0625 64.515625 
Q 19.53125 74.21875 31.78125 74.21875 
z
" id="DejaVuSans-30"/>
      </defs>
      <g transform="translate(70.651477 322.182437)scale(0.1 -0.1)">
       <use xlink:href="#DejaVuSans-30"/>
      </g>
     </g>
    </g>
    <g id="xtick_2">
     <g id="line2d_2">
      <g>
       <use style="stroke:#000000;stroke-width:0.8;" x="138.763636" xlink:href="#md30f06cd74" y="307.584"/>
      </g>
     </g>
     <g id="text_2">
      <!-- 10000 -->
      <defs>
       <path d="M 12.40625 8.296875 
L 28.515625 8.296875 
L 28.515625 63.921875 
L 10.984375 60.40625 
L 10.984375 69.390625 
L 28.421875 72.90625 
L 38.28125 72.90625 
L 38.28125 8.296875 
L 54.390625 8.296875 
L 54.390625 0 
L 12.40625 0 
z
" id="DejaVuSans-31"/>
      </defs>
      <g transform="translate(122.857386 322.182437)scale(0.1 -0.1)">
       <use xlink:href="#DejaVuSans-31"/>
       <use x="63.623047" xlink:href="#DejaVuSans-30"/>
       <use x="127.246094" xlink:href="#DejaVuSans-30"/>
       <use x="190.869141" xlink:href="#DejaVuSans-30"/>
       <use x="254.492188" xlink:href="#DejaVuSans-30"/>
      </g>
     </g>
    </g>
    <g id="xtick_3">
     <g id="line2d_3">
      <g>
       <use style="stroke:#000000;stroke-width:0.8;" x="203.694545" xlink:href="#md30f06cd74" y="307.584"/>
      </g>
     </g>
     <g id="text_3">
      <!-- 20000 -->
      <defs>
       <path d="M 19.1875 8.296875 
L 53.609375 8.296875 
L 53.609375 0 
L 7.328125 0 
L 7.328125 8.296875 
Q 12.9375 14.109375 22.625 23.890625 
Q 32.328125 33.6875 34.8125 36.53125 
Q 39.546875 41.84375 41.421875 45.53125 
Q 43.3125 49.21875 43.3125 52.78125 
Q 43.3125 58.59375 39.234375 62.25 
Q 35.15625 65.921875 28.609375 65.921875 
Q 23.96875 65.921875 18.8125 64.3125 
Q 13.671875 62.703125 7.8125 59.421875 
L 7.8125 69.390625 
Q 13.765625 71.78125 18.9375 73 
Q 24.125 74.21875 28.421875 74.21875 
Q 39.75 74.21875 46.484375 68.546875 
Q 53.21875 62.890625 53.21875 53.421875 
Q 53.21875 48.921875 51.53125 44.890625 
Q 49.859375 40.875 45.40625 35.40625 
Q 44.1875 33.984375 37.640625 27.21875 
Q 31.109375 20.453125 19.1875 8.296875 
z
" id="DejaVuSans-32"/>
      </defs>
      <g transform="translate(187.788295 322.182437)scale(0.1 -0.1)">
       <use xlink:href="#DejaVuSans-32"/>
       <use x="63.623047" xlink:href="#DejaVuSans-30"/>
       <use x="127.246094" xlink:href="#DejaVuSans-30"/>
       <use x="190.869141" xlink:href="#DejaVuSans-30"/>
       <use x="254.492188" xlink:href="#DejaVuSans-30"/>
      </g>
     </g>
    </g>
    <g id="xtick_4">
     <g id="line2d_4">
      <g>
       <use style="stroke:#000000;stroke-width:0.8;" x="268.625455" xlink:href="#md30f06cd74" y="307.584"/>
      </g>
     </g>
     <g id="text_4">
      <!-- 30000 -->
      <defs>
       <path d="M 40.578125 39.3125 
Q 47.65625 37.796875 51.625 33 
Q 55.609375 28.21875 55.609375 21.1875 
Q 55.609375 10.40625 48.1875 4.484375 
Q 40.765625 -1.421875 27.09375 -1.421875 
Q 22.515625 -1.421875 17.65625 -0.515625 
Q 12.796875 0.390625 7.625 2.203125 
L 7.625 11.71875 
Q 11.71875 9.328125 16.59375 8.109375 
Q 21.484375 6.890625 26.8125 6.890625 
Q 36.078125 6.890625 40.9375 10.546875 
Q 45.796875 14.203125 45.796875 21.1875 
Q 45.796875 27.640625 41.28125 31.265625 
Q 36.765625 34.90625 28.71875 34.90625 
L 20.21875 34.90625 
L 20.21875 43.015625 
L 29.109375 43.015625 
Q 36.375 43.015625 40.234375 45.921875 
Q 44.09375 48.828125 44.09375 54.296875 
Q 44.09375 59.90625 40.109375 62.90625 
Q 36.140625 65.921875 28.71875 65.921875 
Q 24.65625 65.921875 20.015625 65.03125 
Q 15.375 64.15625 9.8125 62.3125 
L 9.8125 71.09375 
Q 15.4375 72.65625 20.34375 73.4375 
Q 25.25 74.21875 29.59375 74.21875 
Q 40.828125 74.21875 47.359375 69.109375 
Q 53.90625 64.015625 53.90625 55.328125 
Q 53.90625 49.265625 50.4375 45.09375 
Q 46.96875 40.921875 40.578125 39.3125 
z
" id="DejaVuSans-33"/>
      </defs>
      <g transform="translate(252.719205 322.182437)scale(0.1 -0.1)">
       <use xlink:href="#DejaVuSans-33"/>
       <use x="63.623047" xlink:href="#DejaVuSans-30"/>
       <use x="127.246094" xlink:href="#DejaVuSans-30"/>
       <use x="190.869141" xlink:href="#DejaVuSans-30"/>
       <use x="254.492188" xlink:href="#DejaVuSans-30"/>
      </g>
     </g>
    </g>
    <g id="xtick_5">
     <g id="line2d_5">
      <g>
       <use style="stroke:#000000;stroke-width:0.8;" x="333.556364" xlink:href="#md30f06cd74" y="307.584"/>
      </g>
     </g>
     <g id="text_5">
      <!-- 40000 -->
      <defs>
       <path d="M 37.796875 64.3125 
L 12.890625 25.390625 
L 37.796875 25.390625 
z
M 35.203125 72.90625 
L 47.609375 72.90625 
L 47.609375 25.390625 
L 58.015625 25.390625 
L 58.015625 17.1875 
L 47.609375 17.1875 
L 47.609375 0 
L 37.796875 0 
L 37.796875 17.1875 
L 4.890625 17.1875 
L 4.890625 26.703125 
z
" id="DejaVuSans-34"/>
      </defs>
      <g transform="translate(317.650114 322.182437)scale(0.1 -0.1)">
       <use xlink:href="#DejaVuSans-34"/>
       <use x="63.623047" xlink:href="#DejaVuSans-30"/>
       <use x="127.246094" xlink:href="#DejaVuSans-30"/>
       <use x="190.869141" xlink:href="#DejaVuSans-30"/>
       <use x="254.492188" xlink:href="#DejaVuSans-30"/>
      </g>
     </g>
    </g>
    <g id="xtick_6">
     <g id="line2d_6">
      <g>
       <use style="stroke:#000000;stroke-width:0.8;" x="398.487273" xlink:href="#md30f06cd74" y="307.584"/>
      </g>
     </g>
     <g id="text_6">
      <!-- 50000 -->
      <defs>
       <path d="M 10.796875 72.90625 
L 49.515625 72.90625 
L 49.515625 64.59375 
L 19.828125 64.59375 
L 19.828125 46.734375 
Q 21.96875 47.46875 24.109375 47.828125 
Q 26.265625 48.1875 28.421875 48.1875 
Q 40.625 48.1875 47.75 41.5 
Q 54.890625 34.8125 54.890625 23.390625 
Q 54.890625 11.625 47.5625 5.09375 
Q 40.234375 -1.421875 26.90625 -1.421875 
Q 22.3125 -1.421875 17.546875 -0.640625 
Q 12.796875 0.140625 7.71875 1.703125 
L 7.71875 11.625 
Q 12.109375 9.234375 16.796875 8.0625 
Q 21.484375 6.890625 26.703125 6.890625 
Q 35.15625 6.890625 40.078125 11.328125 
Q 45.015625 15.765625 45.015625 23.390625 
Q 45.015625 31 40.078125 35.4375 
Q 35.15625 39.890625 26.703125 39.890625 
Q 22.75 39.890625 18.8125 39.015625 
Q 14.890625 38.140625 10.796875 36.28125 
z
" id="DejaVuSans-35"/>
      </defs>
      <g transform="translate(382.581023 322.182437)scale(0.1 -0.1)">
       <use xlink:href="#DejaVuSans-35"/>
       <use x="63.623047" xlink:href="#DejaVuSans-30"/>
       <use x="127.246094" xlink:href="#DejaVuSans-30"/>
       <use x="190.869141" xlink:href="#DejaVuSans-30"/>
       <use x="254.492188" xlink:href="#DejaVuSans-30"/>
      </g>
     </g>
    </g>
   </g>
   <g id="matplotlib.axis_2">
    <g id="ytick_1">
     <g id="line2d_7">
      <defs>
       <path d="M 0 0 
L -3.5 0 
" id="m9c0a108132" style="stroke:#000000;stroke-width:0.8;"/>
      </defs>
      <g>
       <use style="stroke:#000000;stroke-width:0.8;" x="57.6" xlink:href="#m9c0a108132" y="295.488"/>
      </g>
     </g>
     <g id="text_7">
      <!-- 0.00 -->
      <defs>
       <path d="M 10.6875 12.40625 
L 21 12.40625 
L 21 0 
L 10.6875 0 
z
" id="DejaVuSans-2e"/>
      </defs>
      <g transform="translate(28.334375 299.287219)scale(0.1 -0.1)">
       <use xlink:href="#DejaVuSans-30"/>
       <use x="63.623047" xlink:href="#DejaVuSans-2e"/>
       <use x="95.410156" xlink:href="#DejaVuSans-30"/>
       <use x="159.033203" xlink:href="#DejaVuSans-30"/>
      </g>
     </g>
    </g>
    <g id="ytick_2">
     <g id="line2d_8">
      <g>
       <use style="stroke:#000000;stroke-width:0.8;" x="57.6" xlink:href="#m9c0a108132" y="265.248"/>
      </g>
     </g>
     <g id="text_8">
      <!-- 0.25 -->
      <g transform="translate(28.334375 269.047219)scale(0.1 -0.1)">
       <use xlink:href="#DejaVuSans-30"/>
       <use x="63.623047" xlink:href="#DejaVuSans-2e"/>
       <use x="95.410156" xlink:href="#DejaVuSans-32"/>
       <use x="159.033203" xlink:href="#DejaVuSans-35"/>
      </g>
     </g>
    </g>
    <g id="ytick_3">
     <g id="line2d_9">
      <g>
       <use style="stroke:#000000;stroke-width:0.8;" x="57.6" xlink:href="#m9c0a108132" y="235.008"/>
      </g>
     </g>
     <g id="text_9">
      <!-- 0.50 -->
      <g transform="translate(28.334375 238.807219)scale(0.1 -0.1)">
       <use xlink:href="#DejaVuSans-30"/>
       <use x="63.623047" xlink:href="#DejaVuSans-2e"/>
       <use x="95.410156" xlink:href="#DejaVuSans-35"/>
       <use x="159.033203" xlink:href="#DejaVuSans-30"/>
      </g>
     </g>
    </g>
    <g id="ytick_4">
     <g id="line2d_10">
      <g>
       <use style="stroke:#000000;stroke-width:0.8;" x="57.6" xlink:href="#m9c0a108132" y="204.768"/>
      </g>
     </g>
     <g id="text_10">
      <!-- 0.75 -->
      <defs>
       <path d="M 8.203125 72.90625 
L 55.078125 72.90625 
L 55.078125 68.703125 
L 28.609375 0 
L 18.3125 0 
L 43.21875 64.59375 
L 8.203125 64.59375 
z
" id="DejaVuSans-37"/>
      </defs>
      <g transform="translate(28.334375 208.567219)scale(0.1 -0.1)">
       <use xlink:href="#DejaVuSans-30"/>
       <use x="63.623047" xlink:href="#DejaVuSans-2e"/>
       <use x="95.410156" xlink:href="#DejaVuSans-37"/>
       <use x="159.033203" xlink:href="#DejaVuSans-35"/>
      </g>
     </g>
    </g>
    <g id="ytick_5">
     <g id="line2d_11">
      <g>
       <use style="stroke:#000000;stroke-width:0.8;" x="57.6" xlink:href="#m9c0a108132" y="174.528"/>
      </g>
     </g>
     <g id="text_11">
      <!-- 1.00 -->
      <g transform="translate(28.334375 178.327219)scale(0.1 -0.1)">
       <use xlink:href="#DejaVuSans-31"/>
       <use x="63.623047" xlink:href="#DejaVuSans-2e"/>
       <use x="95.410156" xlink:href="#DejaVuSans-30"/>
       <use x="159.033203" xlink:href="#DejaVuSans-30"/>
      </g>
     </g>
    </g>
    <g id="ytick_6">
     <g id="line2d_12">
      <g>
       <use style="stroke:#000000;stroke-width:0.8;" x="57.6" xlink:href="#m9c0a108132" y="144.288"/>
      </g>
     </g>
     <g id="text_12">
      <!-- 1.25 -->
      <g transform="translate(28.334375 148.087219)scale(0.1 -0.1)">
       <use xlink:href="#DejaVuSans-31"/>
       <use x="63.623047" xlink:href="#DejaVuSans-2e"/>
       <use x="95.410156" xlink:href="#DejaVuSans-32"/>
       <use x="159.033203" xlink:href="#DejaVuSans-35"/>
      </g>
     </g>
    </g>
    <g id="ytick_7">
     <g id="line2d_13">
      <g>
       <use style="stroke:#000000;stroke-width:0.8;" x="57.6" xlink:href="#m9c0a108132" y="114.048"/>
      </g>
     </g>
     <g id="text_13">
      <!-- 1.50 -->
      <g transform="translate(28.334375 117.847219)scale(0.1 -0.1)">
       <use xlink:href="#DejaVuSans-31"/>
       <use x="63.623047" xlink:href="#DejaVuSans-2e"/>
       <use x="95.410156" xlink:href="#DejaVuSans-35"/>
       <use x="159.033203" xlink:href="#DejaVuSans-30"/>
      </g>
     </g>
    </g>
    <g id="ytick_8">
     <g id="line2d_14">
      <g>
       <use style="stroke:#000000;stroke-width:0.8;" x="57.6" xlink:href="#m9c0a108132" y="83.808"/>
      </g>
     </g>
     <g id="text_14">
      <!-- 1.75 -->
      <g transform="translate(28.334375 87.607219)scale(0.1 -0.1)">
       <use xlink:href="#DejaVuSans-31"/>
       <use x="63.623047" xlink:href="#DejaVuSans-2e"/>
       <use x="95.410156" xlink:href="#DejaVuSans-37"/>
       <use x="159.033203" xlink:href="#DejaVuSans-35"/>
      </g>
     </g>
    </g>
    <g id="ytick_9">
     <g id="line2d_15">
      <g>
       <use style="stroke:#000000;stroke-width:0.8;" x="57.6" xlink:href="#m9c0a108132" y="53.568"/>
      </g>
     </g>
     <g id="text_15">
      <!-- 2.00 -->
      <g transform="translate(28.334375 57.367219)scale(0.1 -0.1)">
       <use xlink:href="#DejaVuSans-32"/>
       <use x="63.623047" xlink:href="#DejaVuSans-2e"/>
       <use x="95.410156" xlink:href="#DejaVuSans-30"/>
       <use x="159.033203" xlink:href="#DejaVuSans-30"/>
      </g>
     </g>
    </g>
   </g>
   <g id="line2d_16">
    <path clip-path="url(#pd3aabc202a)" d="M 73.832727 295.488 
L 74.226696 295.488 
L 74.33789 289.44 
L 74.566284 289.44 
L 74.677478 283.700181 
L 74.929573 283.700181 
L 75.040767 278.293599 
L 75.299354 278.293599 
L 75.410548 273.197458 
L 75.735852 273.197458 
L 75.847046 268.598682 
L 76.14654 268.598682 
L 76.257734 264.198762 
L 76.624756 264.198762 
L 76.735951 260.372398 
L 77.443697 260.372398 
L 77.554892 258.485434 
L 86.819721 258.485434 
L 86.930915 280.708063 
L 87.263848 280.708063 
L 87.375042 275.637211 
L 87.752616 275.637211 
L 87.86381 271.028624 
L 88.229533 271.028624 
L 88.340727 266.712773 
L 88.712781 266.712773 
L 88.823976 262.728616 
L 89.269077 262.728616 
L 89.380271 259.370407 
L 89.720671 259.370407 
L 89.831866 255.749022 
L 90.166747 255.749022 
L 90.277941 252.339423 
L 90.743171 252.339423 
L 90.854365 249.956833 
L 91.173987 249.956833 
L 91.285182 246.831785 
L 91.700739 246.831785 
L 91.811934 244.575153 
L 92.196487 244.575153 
L 92.307681 242.269661 
L 92.664314 242.269661 
L 92.775508 239.921168 
L 93.163308 239.921168 
L 93.274502 237.983516 
L 93.597371 237.983516 
L 93.708566 235.654015 
L 94.055621 235.654015 
L 94.166815 233.683232 
L 94.492606 233.683232 
L 94.6038 231.657814 
L 94.911086 231.657814 
L 95.02228 229.593904 
L 95.383621 229.593904 
L 95.494815 228.171009 
L 95.893978 228.171009 
L 96.005172 227.211527 
L 96.374142 227.211527 
L 96.485336 226.030401 
L 96.85252 226.030401 
L 96.963714 224.915727 
L 97.249086 224.915727 
L 97.36028 223.048945 
L 97.74045 223.048945 
L 97.851645 222.280487 
L 98.257463 222.280487 
L 98.368657 221.835601 
L 98.828855 221.835601 
L 98.940049 221.992014 
L 99.295059 221.992014 
L 99.406253 221.036035 
L 99.787884 221.036035 
L 99.899078 220.429812 
L 100.267074 220.429812 
L 100.378269 219.721643 
L 100.721591 219.721643 
L 100.832785 218.795917 
L 101.173672 218.795917 
L 101.284866 217.905956 
L 101.621208 217.905956 
L 101.732403 217.025177 
L 102.110301 217.025177 
L 102.221495 216.670281 
L 102.693705 216.670281 
L 102.804899 217.395223 
L 103.131501 217.395223 
L 103.242696 216.439042 
L 103.572869 216.439042 
L 103.684063 215.585836 
L 103.963429 215.585836 
L 104.074623 214.202263 
L 104.491642 214.202263 
L 104.602836 214.505038 
L 104.953787 214.505038 
L 105.064982 214.020656 
L 105.335581 214.020656 
L 105.446775 212.624822 
L 105.696759 212.624822 
L 105.807953 211.060235 
L 106.214421 211.060235 
L 106.325615 211.481915 
L 106.812759 211.481915 
L 106.923953 212.82911 
L 107.275067 212.82911 
L 107.386262 212.461791 
L 107.679749 212.461791 
L 107.790943 211.430444 
L 108.067874 211.430444 
L 108.179068 210.259761 
L 108.595924 210.259761 
L 108.707119 210.868596 
L 109.102872 210.868596 
L 109.214067 211.175931 
L 109.51632 211.175931 
L 109.627514 210.329151 
L 110.076836 210.329151 
L 110.18803 211.324124 
L 110.599368 211.324124 
L 110.710562 211.783845 
L 111.028074 211.783845 
L 111.139268 211.083916 
L 111.52512 211.083916 
L 111.636314 211.25594 
L 112.046353 211.25594 
L 112.157547 211.705389 
L 113.008629 211.767561 
L 113.119823 211.572541 
L 113.47256 211.572541 
L 113.583754 211.311114 
L 113.943959 211.311114 
L 114.055153 211.15779 
L 114.405455 211.15779 
L 114.516649 210.895514 
L 114.811273 210.895514 
L 114.922467 209.972714 
L 115.23722 209.972714 
L 115.348414 209.354473 
L 115.650668 209.354473 
L 115.761862 208.620059 
L 116.143006 208.620059 
L 116.2542 208.915294 
L 117.061941 208.851207 
L 117.173135 208.652311 
L 117.504607 208.652311 
L 117.615802 208.327044 
L 118.015451 208.327044 
L 118.126646 208.873617 
L 118.468507 208.873617 
L 118.579701 208.663112 
L 118.888772 208.663112 
L 118.999966 208.056845 
L 119.325108 208.056845 
L 119.436302 207.691155 
L 120.140315 207.615594 
L 120.25151 206.278389 
L 120.515129 206.278389 
L 120.626323 205.234202 
L 120.802773 205.234202 
L 120.913967 203.097177 
L 121.658887 203.105641 
L 121.770081 202.789218 
L 122.074282 202.789218 
L 122.185477 202.485905 
L 122.479938 202.485905 
L 122.591133 202.070433 
L 122.749889 202.070433 
L 122.861083 199.826641 
L 123.132819 199.826641 
L 123.244013 199.257135 
L 123.409424 199.257135 
L 123.520618 197.222478 
L 123.749662 197.222478 
L 123.860856 196.191011 
L 123.976433 196.191011 
L 124.087628 193.551098 
L 124.243786 193.551098 
L 124.354981 191.615113 
L 124.523639 191.615113 
L 124.634833 189.948928 
L 124.852027 189.948928 
L 124.963221 189.105838 
L 125.188694 189.105838 
L 125.299888 188.433193 
L 125.365955 188.433193 
L 125.477149 185.268256 
L 125.542567 185.268256 
L 125.653761 182.177828 
L 125.778753 182.177828 
L 125.889947 180.177423 
L 126.028413 180.177423 
L 126.139607 178.478959 
L 126.309076 178.478959 
L 126.420271 177.380923 
L 126.601428 177.380923 
L 126.712622 176.532755 
L 126.971047 176.532755 
L 127.082241 177.067153 
L 127.227037 177.067153 
L 127.338231 175.59706 
L 127.467444 175.59706 
L 127.532375 53.568 
L 127.532537 295.488 
L 127.578313 295.488 
L 127.785281 295.488 
L 127.896475 289.44 
L 128.037862 289.44 
L 128.149056 283.62275 
L 128.298722 283.62275 
L 128.409916 278.041988 
L 128.564776 278.041988 
L 128.67597 272.694391 
L 128.859887 272.694391 
L 128.971081 267.659171 
L 129.2123 267.659171 
L 129.323494 263.081323 
L 129.607891 263.081323 
L 129.719085 258.948759 
L 129.873621 258.948759 
L 129.984815 254.365941 
L 130.249246 254.365941 
L 130.36044 250.62935 
L 130.652305 250.62935 
L 130.763499 247.281285 
L 131.002445 247.281285 
L 131.113639 243.763985 
L 131.191556 243.763985 
L 131.30275 239.20072 
L 131.522541 239.20072 
L 131.633736 235.950061 
L 131.923327 235.950061 
L 132.034522 233.46592 
L 132.255124 233.46592 
L 132.366319 230.507633 
L 132.455436 230.507633 
L 132.56663 226.433672 
L 132.806225 226.433672 
L 132.91742 224.017348 
L 133.357002 224.017348 
L 133.468196 223.781839 
L 133.599681 223.781839 
L 133.710875 220.364392 
L 133.789117 220.364392 
L 133.900311 216.47646 
L 134.128056 216.47646 
L 134.239251 214.447064 
L 134.546861 214.447064 
L 134.658055 213.461196 
L 134.729804 213.461196 
L 134.840998 209.692047 
L 134.992936 209.692047 
L 135.10413 207.05142 
L 135.309799 207.05142 
L 135.420993 205.215514 
L 135.653283 205.215514 
L 135.764478 203.818817 
L 136.160556 203.818817 
L 136.27175 204.659865 
L 136.551765 204.659865 
L 136.662959 203.922666 
L 136.836649 203.922666 
L 136.947843 201.805237 
L 137.241169 201.805237 
L 137.352363 201.415586 
L 137.434825 201.415586 
L 137.546019 198.131868 
L 137.78529 198.131868 
L 137.896484 197.199369 
L 138.168382 197.199369 
L 138.279576 196.782642 
L 138.592381 196.782642 
L 138.703575 196.974165 
L 138.764773 196.974165 
L 138.875967 193.507291 
L 139.13358 193.507291 
L 139.244774 193.090359 
L 139.760975 193.090359 
L 139.872169 196.47355 
L 174.812952 196.47355 
L 174.924147 288.992055 
L 175.502843 288.992055 
L 175.614038 283.598847 
L 185.144921 283.598847 
L 185.256115 286.747012 
L 185.56892 286.747012 
L 185.680114 281.251561 
L 185.959966 281.251561 
L 186.07116 276.035643 
L 186.40523 276.035643 
L 186.516424 271.276879 
L 186.912665 271.276879 
L 187.023859 267.048933 
L 187.431301 267.048933 
L 187.542495 263.184151 
L 187.952696 263.184151 
L 188.06389 259.628733 
L 188.465812 259.628733 
L 188.577007 256.305434 
L 189.059281 256.305434 
L 189.170475 253.67993 
L 189.485552 253.67993 
L 189.596746 250.288475 
L 189.91994 250.288475 
L 190.031134 247.165394 
L 190.393124 247.165394 
L 190.504318 244.51365 
L 191.071327 244.51365 
L 191.182522 243.521294 
L 191.589476 243.521294 
L 191.70067 241.459089 
L 192.135383 241.459089 
L 192.246577 239.767856 
L 192.621066 239.767856 
L 192.73226 237.73566 
L 193.086134 237.73566 
L 193.197328 235.679507 
L 193.62019 235.679507 
L 193.731384 234.353885 
L 194.92173 234.373307 
L 195.032925 233.915336 
L 195.488577 233.915336 
L 195.599771 233.01468 
L 203.477839 233.01468 
L 203.589033 271.187271 
L 203.877326 271.187271 
L 203.98852 266.589309 
L 204.276326 266.589309 
L 204.387521 262.263672 
L 204.69854 262.263672 
L 204.809734 258.307342 
L 205.135038 258.307342 
L 205.246232 254.67665 
L 205.575594 254.67665 
L 205.686788 251.305849 
L 206.022643 251.305849 
L 206.133837 248.197434 
L 206.548097 248.197434 
L 206.659291 245.825667 
L 207.13426 245.825667 
L 207.245455 244.064525 
L 207.786167 244.064525 
L 207.897361 242.928724 
L 208.39603 242.928724 
L 208.507224 241.592609 
L 208.847462 241.592609 
L 208.958657 239.164395 
L 209.314316 239.164395 
L 209.42551 237.023904 
L 209.808602 237.023904 
L 209.919796 235.261301 
L 210.392656 235.261301 
L 210.50385 234.394189 
L 210.86584 234.394189 
L 210.977034 232.640043 
L 211.509792 232.640043 
L 211.620986 232.525882 
L 211.972587 232.525882 
L 212.083781 230.809313 
L 212.50291 230.809313 
L 212.614104 229.83397 
L 212.947525 229.83397 
L 213.058719 228.131164 
L 213.37753 228.131164 
L 213.488724 226.399372 
L 213.858505 226.399372 
L 213.9697 225.284159 
L 214.404412 225.284159 
L 214.515606 224.897235 
L 215.137644 224.897235 
L 215.248838 226.387083 
L 216.028496 226.387083 
L 216.13969 229.198107 
L 223.353514 229.198107 
L 223.464709 267.985971 
L 223.787091 267.985971 
L 223.898285 263.714447 
L 224.219368 263.714447 
L 224.330562 259.712895 
L 224.644503 259.712895 
L 224.755697 255.932233 
L 225.06623 255.932233 
L 225.177424 252.371724 
L 225.540063 252.371724 
L 225.651257 249.358072 
L 225.998637 249.358072 
L 226.109832 246.455614 
L 226.508507 246.455614 
L 226.619702 244.110591 
L 227.040778 244.110591 
L 227.151973 242.106251 
L 227.763297 242.106251 
L 227.876602 235.984369 
L 228.412769 235.984369 
L 228.523963 235.245071 
L 228.836443 235.245071 
L 228.947637 233.002423 
L 229.289661 233.002423 
L 229.400855 231.16718 
L 229.727295 231.16718 
L 229.838489 229.311534 
L 230.195934 229.311534 
L 230.307128 227.87153 
L 230.82414 227.87153 
L 230.935334 228.058923 
L 231.568248 228.058923 
L 231.679443 229.311957 
L 232.232492 229.311957 
L 232.343686 229.699003 
L 232.616396 229.699003 
L 232.72759 227.428019 
L 233.047699 227.428019 
L 233.158893 225.754023 
L 233.486794 225.754023 
L 233.597989 224.265866 
L 234.225221 224.265866 
L 234.336415 225.874006 
L 234.737364 225.874006 
L 234.848558 225.105849 
L 243.456286 225.105849 
L 243.56748 271.062268 
L 243.900414 271.062268 
L 244.011608 266.629131 
L 244.29633 266.629131 
L 244.407524 262.288226 
L 244.675851 262.288226 
L 244.787045 258.12513 
L 245.05521 258.12513 
L 245.166404 254.197511 
L 245.441062 254.197511 
L 245.552256 250.531716 
L 245.84688 250.531716 
L 245.958074 247.20748 
L 246.323473 247.20748 
L 246.434667 244.576337 
L 246.784645 244.576337 
L 246.895839 242.018912 
L 247.343862 242.018912 
L 247.455056 240.383206 
L 247.960868 240.383206 
L 248.072062 239.330444 
L 248.443954 239.330444 
L 248.555148 237.308924 
L 248.979472 237.308924 
L 249.090666 235.866702 
L 249.457526 235.866702 
L 249.56872 234.050621 
L 249.942722 234.050621 
L 250.053916 232.426195 
L 250.675954 232.426195 
L 250.787148 233.112083 
L 251.572812 233.112083 
L 251.684006 235.111212 
L 252.189656 235.111212 
L 252.30085 234.534983 
L 252.808772 234.534983 
L 252.919966 234.030373 
L 253.292994 234.030373 
L 253.404189 232.398849 
L 253.751569 232.398849 
L 253.862763 230.652819 
L 254.192937 230.652819 
L 254.304131 228.865539 
L 254.652485 228.865539 
L 254.763679 227.369752 
L 255.081029 227.369752 
L 255.192223 225.672406 
L 255.78066 225.672406 
L 255.891854 226.755927 
L 256.94617 226.755927 
L 257.057364 232.001435 
L 257.432177 232.001435 
L 257.543372 230.531917 
L 257.994154 230.531917 
L 258.105349 229.869446 
L 258.493798 229.869446 
L 258.604992 228.681409 
L 258.944905 228.681409 
L 259.0561 227.117236 
L 259.446984 227.117236 
L 259.558178 226.156774 
L 260.142718 226.156774 
L 260.253912 227.153457 
L 260.830337 227.153457 
L 260.941531 227.972081 
L 261.769075 227.972081 
L 261.880269 231.012399 
L 262.2158 231.012399 
L 262.326994 229.251165 
L 262.676647 229.251165 
L 262.787841 227.74137 
L 263.117041 227.74137 
L 263.228235 226.135924 
L 263.673986 226.135924 
L 263.787777 220.20604 
L 264.096524 220.20604 
L 264.207718 218.426817 
L 264.565487 218.426817 
L 264.676681 217.748321 
L 265.399038 217.748321 
L 265.510232 221.066126 
L 266.206778 221.066126 
L 266.317972 223.723508 
L 267.31661 223.686375 
L 267.427804 223.387022 
L 267.903748 223.387022 
L 268.014942 223.572668 
L 268.353556 223.572668 
L 268.464751 222.337957 
L 268.870082 222.337957 
L 268.981276 221.883606 
L 269.294405 221.883606 
L 269.405599 220.491853 
L 269.747623 220.491853 
L 269.858817 219.50007 
L 270.61234 219.50007 
L 270.723535 222.926861 
L 271.542151 222.926861 
L 271.653345 226.559914 
L 272.054781 226.559914 
L 272.165975 225.744512 
L 272.579747 225.744512 
L 272.690941 225.113347 
L 273.086046 225.113347 
L 273.19724 224.344322 
L 273.540237 224.344322 
L 273.651432 223.102758 
L 274.185975 223.102758 
L 274.297169 223.907091 
L 274.86986 223.907091 
L 274.981054 225.014894 
L 276.911613 225.014894 
L 277.022807 237.981217 
L 277.340644 237.981217 
L 277.451838 235.610163 
L 277.754416 235.610163 
L 277.86561 233.258842 
L 278.285064 233.258842 
L 278.396258 232.094253 
L 281.623486 232.094253 
L 281.73468 251.529989 
L 282.062419 251.529989 
L 282.173613 248.355337 
L 282.573912 248.355337 
L 282.685107 245.877737 
L 283.291237 245.877737 
L 283.402431 245.018538 
L 284.268122 245.018538 
L 284.379316 246.020075 
L 284.755266 246.020075 
L 284.866461 243.547602 
L 285.406523 243.547602 
L 285.517718 242.456482 
L 285.826139 242.456482 
L 285.937334 239.727251 
L 286.27887 239.727251 
L 286.390064 237.434723 
L 286.738906 237.434723 
L 286.8501 235.357473 
L 287.241471 235.357473 
L 287.352665 233.78802 
L 287.786404 233.78802 
L 287.897598 232.706855 
L 290.424871 232.706855 
L 290.536065 247.622923 
L 290.952435 247.622923 
L 291.063629 245.310162 
L 291.330495 245.310162 
L 291.441689 242.100339 
L 291.712613 242.100339 
L 291.823807 239.10354 
L 292.179953 239.10354 
L 292.291148 236.971207 
L 293.01464 236.971207 
L 293.125834 237.982111 
L 293.611193 237.982111 
L 293.722387 236.982026 
L 294.263262 236.982026 
L 294.374456 236.524099 
L 294.821018 236.524099 
L 294.932212 235.329654 
L 295.375528 235.329654 
L 295.486722 234.205918 
L 295.810078 234.205918 
L 295.921272 232.124993 
L 296.248524 232.124993 
L 296.359718 230.214321 
L 297.085159 230.214321 
L 297.196353 232.057529 
L 297.920657 232.057529 
L 298.031852 233.668145 
L 298.535229 233.668145 
L 298.646423 233.203017 
L 299.544255 233.203017 
L 299.655449 236.119528 
L 299.977506 236.119528 
L 300.088701 233.903619 
L 300.420173 233.903619 
L 300.531367 231.914215 
L 300.924524 231.914215 
L 301.035718 230.617396 
L 301.664574 230.617396 
L 301.775768 231.557241 
L 304.886121 231.557241 
L 304.997315 250.514459 
L 305.423262 250.514459 
L 305.534456 248.037166 
L 306.290901 248.037166 
L 306.402095 247.924407 
L 307.122504 247.924407 
L 307.233698 247.59415 
L 308.311389 247.59415 
L 308.422583 249.559515 
L 308.909565 249.559515 
L 309.020759 247.553629 
L 309.412617 247.553629 
L 309.523811 245.079128 
L 309.937421 245.079128 
L 310.048615 242.945121 
L 310.611728 242.945121 
L 310.722922 242.079924 
L 311.415411 242.079924 
L 311.526605 242.249766 
L 313.821425 242.249766 
L 313.93262 252.686744 
L 314.352723 252.686744 
L 314.463917 250.001502 
L 314.832887 250.001502 
L 314.944081 247.195865 
L 315.306395 247.195865 
L 315.41759 244.544224 
L 318.507814 244.544224 
L 318.619008 258.325542 
L 319.011515 258.325542 
L 319.12271 255.051436 
L 319.775914 255.051436 
L 319.887109 253.494302 
L 320.414997 253.494302 
L 320.526191 251.382637 
L 321.630017 251.382637 
L 321.741211 252.861656 
L 322.311629 252.861656 
L 322.422823 251.061498 
L 322.788059 251.061498 
L 322.899254 248.156571 
L 323.261243 248.156571 
L 323.372438 245.435164 
L 324.170114 245.435164 
L 324.281308 245.925067 
L 324.831435 245.925067 
L 324.942629 244.676493 
L 325.449577 244.676493 
L 325.560772 243.242631 
L 326.13119 243.242631 
L 326.242384 242.401037 
L 326.782934 242.401037 
L 326.894128 241.422939 
L 327.236638 241.422939 
L 327.347832 239.02377 
L 327.703978 239.02377 
L 327.815173 236.896976 
L 328.311569 236.896976 
L 328.422764 236.082929 
L 332.223819 236.082929 
L 332.335013 256.920022 
L 332.702035 256.920022 
L 332.813229 253.610473 
L 333.147299 253.610473 
L 333.258493 250.337972 
L 337.175613 250.337972 
L 337.286807 265.161507 
L 337.611786 265.161507 
L 337.72298 261.083772 
L 338.322617 261.083772 
L 338.433811 258.603333 
L 342.259865 258.603333 
L 342.371059 269.325902 
L 346.278926 269.325902 
L 346.39012 275.351812 
L 346.726787 275.351812 
L 346.837981 270.645889 
L 347.337462 270.645889 
L 347.448656 266.827785 
L 350.937719 266.827785 
L 351.048913 272.978325 
L 351.411714 272.978325 
L 351.522909 268.514988 
L 355.81192 268.514988 
L 355.923114 275.743206 
L 356.57989 275.743206 
L 356.691084 271.897704 
L 360.468602 271.897704 
L 360.579796 276.479122 
L 361.230404 276.479122 
L 361.341598 272.535478 
L 365.086975 272.535478 
L 365.19817 276.766949 
L 365.640511 276.766949 
L 365.751706 272.248783 
L 366.086587 272.248783 
L 366.197781 267.74371 
L 366.86381 267.74371 
L 366.975004 264.825639 
L 369.691226 264.825639 
L 369.80242 269.602266 
L 370.213108 269.602266 
L 370.324303 265.553415 
L 370.954619 265.553415 
L 371.065814 262.73597 
L 374.629546 262.73597 
L 374.740741 270.843192 
L 375.740677 270.843192 
L 375.851871 268.67142 
L 379.441414 268.67142 
L 379.552608 274.273784 
L 380.204352 274.273784 
L 380.315546 270.577581 
L 384.18137 270.577581 
L 384.292564 275.938698 
L 393.295397 275.938698 
L 393.406591 284.636765 
L 394.081548 284.636765 
L 394.192742 279.826159 
L 398.038113 279.826159 
L 398.149307 280.924592 
L 398.487273 280.924592 
L 398.487273 280.924592 
" style="fill:none;stroke:#1f77b4;stroke-linecap:square;stroke-width:1.5;"/>
   </g>
   <g id="patch_3">
    <path d="M 57.6 307.584 
L 57.6 41.472 
" style="fill:none;stroke:#000000;stroke-linecap:square;stroke-linejoin:miter;stroke-width:0.8;"/>
   </g>
   <g id="patch_4">
    <path d="M 414.72 307.584 
L 414.72 41.472 
" style="fill:none;stroke:#000000;stroke-linecap:square;stroke-linejoin:miter;stroke-width:0.8;"/>
   </g>
   <g id="patch_5">
    <path d="M 57.6 307.584 
L 414.72 307.584 
" style="fill:none;stroke:#000000;stroke-linecap:square;stroke-linejoin:miter;stroke-width:0.8;"/>
   </g>
   <g id="patch_6">
    <path d="M 57.6 41.472 
L 414.72 41.472 
" style="fill:none;stroke:#000000;stroke-linecap:square;stroke-linejoin:miter;stroke-width:0.8;"/>
   </g>
   <g id="text_16">
    <!-- Checker on LTS -->
    <defs>
     <path d="M 64.40625 67.28125 
L 64.40625 56.890625 
Q 59.421875 61.53125 53.78125 63.8125 
Q 48.140625 66.109375 41.796875 66.109375 
Q 29.296875 66.109375 22.65625 58.46875 
Q 16.015625 50.828125 16.015625 36.375 
Q 16.015625 21.96875 22.65625 14.328125 
Q 29.296875 6.6875 41.796875 6.6875 
Q 48.140625 6.6875 53.78125 8.984375 
Q 59.421875 11.28125 64.40625 15.921875 
L 64.40625 5.609375 
Q 59.234375 2.09375 53.4375 0.328125 
Q 47.65625 -1.421875 41.21875 -1.421875 
Q 24.65625 -1.421875 15.125 8.703125 
Q 5.609375 18.84375 5.609375 36.375 
Q 5.609375 53.953125 15.125 64.078125 
Q 24.65625 74.21875 41.21875 74.21875 
Q 47.75 74.21875 53.53125 72.484375 
Q 59.328125 70.75 64.40625 67.28125 
z
" id="DejaVuSans-43"/>
     <path d="M 54.890625 33.015625 
L 54.890625 0 
L 45.90625 0 
L 45.90625 32.71875 
Q 45.90625 40.484375 42.875 44.328125 
Q 39.84375 48.1875 33.796875 48.1875 
Q 26.515625 48.1875 22.3125 43.546875 
Q 18.109375 38.921875 18.109375 30.90625 
L 18.109375 0 
L 9.078125 0 
L 9.078125 75.984375 
L 18.109375 75.984375 
L 18.109375 46.1875 
Q 21.34375 51.125 25.703125 53.5625 
Q 30.078125 56 35.796875 56 
Q 45.21875 56 50.046875 50.171875 
Q 54.890625 44.34375 54.890625 33.015625 
z
" id="DejaVuSans-68"/>
     <path d="M 56.203125 29.59375 
L 56.203125 25.203125 
L 14.890625 25.203125 
Q 15.484375 15.921875 20.484375 11.0625 
Q 25.484375 6.203125 34.421875 6.203125 
Q 39.59375 6.203125 44.453125 7.46875 
Q 49.3125 8.734375 54.109375 11.28125 
L 54.109375 2.78125 
Q 49.265625 0.734375 44.1875 -0.34375 
Q 39.109375 -1.421875 33.890625 -1.421875 
Q 20.796875 -1.421875 13.15625 6.1875 
Q 5.515625 13.8125 5.515625 26.8125 
Q 5.515625 40.234375 12.765625 48.109375 
Q 20.015625 56 32.328125 56 
Q 43.359375 56 49.78125 48.890625 
Q 56.203125 41.796875 56.203125 29.59375 
z
M 47.21875 32.234375 
Q 47.125 39.59375 43.09375 43.984375 
Q 39.0625 48.390625 32.421875 48.390625 
Q 24.90625 48.390625 20.390625 44.140625 
Q 15.875 39.890625 15.1875 32.171875 
z
" id="DejaVuSans-65"/>
     <path d="M 48.78125 52.59375 
L 48.78125 44.1875 
Q 44.96875 46.296875 41.140625 47.34375 
Q 37.3125 48.390625 33.40625 48.390625 
Q 24.65625 48.390625 19.8125 42.84375 
Q 14.984375 37.3125 14.984375 27.296875 
Q 14.984375 17.28125 19.8125 11.734375 
Q 24.65625 6.203125 33.40625 6.203125 
Q 37.3125 6.203125 41.140625 7.25 
Q 44.96875 8.296875 48.78125 10.40625 
L 48.78125 2.09375 
Q 45.015625 0.34375 40.984375 -0.53125 
Q 36.96875 -1.421875 32.421875 -1.421875 
Q 20.0625 -1.421875 12.78125 6.34375 
Q 5.515625 14.109375 5.515625 27.296875 
Q 5.515625 40.671875 12.859375 48.328125 
Q 20.21875 56 33.015625 56 
Q 37.15625 56 41.109375 55.140625 
Q 45.0625 54.296875 48.78125 52.59375 
z
" id="DejaVuSans-63"/>
     <path d="M 9.078125 75.984375 
L 18.109375 75.984375 
L 18.109375 31.109375 
L 44.921875 54.6875 
L 56.390625 54.6875 
L 27.390625 29.109375 
L 57.625 0 
L 45.90625 0 
L 18.109375 26.703125 
L 18.109375 0 
L 9.078125 0 
z
" id="DejaVuSans-6b"/>
     <path d="M 41.109375 46.296875 
Q 39.59375 47.171875 37.8125 47.578125 
Q 36.03125 48 33.890625 48 
Q 26.265625 48 22.1875 43.046875 
Q 18.109375 38.09375 18.109375 28.8125 
L 18.109375 0 
L 9.078125 0 
L 9.078125 54.6875 
L 18.109375 54.6875 
L 18.109375 46.1875 
Q 20.953125 51.171875 25.484375 53.578125 
Q 30.03125 56 36.53125 56 
Q 37.453125 56 38.578125 55.875 
Q 39.703125 55.765625 41.0625 55.515625 
z
" id="DejaVuSans-72"/>
     <path id="DejaVuSans-20"/>
     <path d="M 30.609375 48.390625 
Q 23.390625 48.390625 19.1875 42.75 
Q 14.984375 37.109375 14.984375 27.296875 
Q 14.984375 17.484375 19.15625 11.84375 
Q 23.34375 6.203125 30.609375 6.203125 
Q 37.796875 6.203125 41.984375 11.859375 
Q 46.1875 17.53125 46.1875 27.296875 
Q 46.1875 37.015625 41.984375 42.703125 
Q 37.796875 48.390625 30.609375 48.390625 
z
M 30.609375 56 
Q 42.328125 56 49.015625 48.375 
Q 55.71875 40.765625 55.71875 27.296875 
Q 55.71875 13.875 49.015625 6.21875 
Q 42.328125 -1.421875 30.609375 -1.421875 
Q 18.84375 -1.421875 12.171875 6.21875 
Q 5.515625 13.875 5.515625 27.296875 
Q 5.515625 40.765625 12.171875 48.375 
Q 18.84375 56 30.609375 56 
z
" id="DejaVuSans-6f"/>
     <path d="M 54.890625 33.015625 
L 54.890625 0 
L 45.90625 0 
L 45.90625 32.71875 
Q 45.90625 40.484375 42.875 44.328125 
Q 39.84375 48.1875 33.796875 48.1875 
Q 26.515625 48.1875 22.3125 43.546875 
Q 18.109375 38.921875 18.109375 30.90625 
L 18.109375 0 
L 9.078125 0 
L 9.078125 54.6875 
L 18.109375 54.6875 
L 18.109375 46.1875 
Q 21.34375 51.125 25.703125 53.5625 
Q 30.078125 56 35.796875 56 
Q 45.21875 56 50.046875 50.171875 
Q 54.890625 44.34375 54.890625 33.015625 
z
" id="DejaVuSans-6e"/>
     <path d="M 9.8125 72.90625 
L 19.671875 72.90625 
L 19.671875 8.296875 
L 55.171875 8.296875 
L 55.171875 0 
L 9.8125 0 
z
" id="DejaVuSans-4c"/>
     <path d="M -0.296875 72.90625 
L 61.375 72.90625 
L 61.375 64.59375 
L 35.5 64.59375 
L 35.5 0 
L 25.59375 0 
L 25.59375 64.59375 
L -0.296875 64.59375 
z
" id="DejaVuSans-54"/>
     <path d="M 53.515625 70.515625 
L 53.515625 60.890625 
Q 47.90625 63.578125 42.921875 64.890625 
Q 37.9375 66.21875 33.296875 66.21875 
Q 25.25 66.21875 20.875 63.09375 
Q 16.5 59.96875 16.5 54.203125 
Q 16.5 49.359375 19.40625 46.890625 
Q 22.3125 44.4375 30.421875 42.921875 
L 36.375 41.703125 
Q 47.40625 39.59375 52.65625 34.296875 
Q 57.90625 29 57.90625 20.125 
Q 57.90625 9.515625 50.796875 4.046875 
Q 43.703125 -1.421875 29.984375 -1.421875 
Q 24.8125 -1.421875 18.96875 -0.25 
Q 13.140625 0.921875 6.890625 3.21875 
L 6.890625 13.375 
Q 12.890625 10.015625 18.65625 8.296875 
Q 24.421875 6.59375 29.984375 6.59375 
Q 38.421875 6.59375 43.015625 9.90625 
Q 47.609375 13.234375 47.609375 19.390625 
Q 47.609375 24.75 44.3125 27.78125 
Q 41.015625 30.8125 33.5 32.328125 
L 27.484375 33.5 
Q 16.453125 35.6875 11.515625 40.375 
Q 6.59375 45.0625 6.59375 53.421875 
Q 6.59375 63.09375 13.40625 68.65625 
Q 20.21875 74.21875 32.171875 74.21875 
Q 37.3125 74.21875 42.625 73.28125 
Q 47.953125 72.359375 53.515625 70.515625 
z
" id="DejaVuSans-53"/>
    </defs>
    <g transform="translate(189.454688 35.472)scale(0.12 -0.12)">
     <use xlink:href="#DejaVuSans-43"/>
     <use x="69.824219" xlink:href="#DejaVuSans-68"/>
     <use x="133.203125" xlink:href="#DejaVuSans-65"/>
     <use x="194.726562" xlink:href="#DejaVuSans-63"/>
     <use x="249.707031" xlink:href="#DejaVuSans-6b"/>
     <use x="307.570312" xlink:href="#DejaVuSans-65"/>
     <use x="369.09375" xlink:href="#DejaVuSans-72"/>
     <use x="410.207031" xlink:href="#DejaVuSans-20"/>
     <use x="441.994141" xlink:href="#DejaVuSans-6f"/>
     <use x="503.175781" xlink:href="#DejaVuSans-6e"/>
     <use x="566.554688" xlink:href="#DejaVuSans-20"/>
     <use x="598.341797" xlink:href="#DejaVuSans-4c"/>
     <use x="653.851562" xlink:href="#DejaVuSans-54"/>
     <use x="714.935547" xlink:href="#DejaVuSans-53"/>
    </g>
   </g>
   <g id="legend_1">
    <g id="patch_7">
     <path d="M 357.712188 64.150125 
L 407.72 64.150125 
Q 409.72 64.150125 409.72 62.150125 
L 409.72 48.472 
Q 409.72 46.472 407.72 46.472 
L 357.712188 46.472 
Q 355.712188 46.472 355.712188 48.472 
L 355.712188 62.150125 
Q 355.712188 64.150125 357.712188 64.150125 
z
" style="fill:#ffffff;opacity:0.8;stroke:#cccccc;stroke-linejoin:miter;"/>
    </g>
    <g id="line2d_17">
     <path d="M 359.712188 54.570438 
L 379.712188 54.570438 
" style="fill:none;stroke:#1f77b4;stroke-linecap:square;stroke-width:1.5;"/>
    </g>
    <g id="line2d_18"/>
    <g id="text_17">
     <!-- LTS -->
     <g transform="translate(387.712188 58.070438)scale(0.1 -0.1)">
      <use xlink:href="#DejaVuSans-4c"/>
      <use x="55.509766" xlink:href="#DejaVuSans-54"/>
      <use x="116.59375" xlink:href="#DejaVuSans-53"/>
     </g>
    </g>
   </g>
  </g>
 </g>
 <defs>
  <clipPath id="pd3aabc202a">
   <rect height="266.112" width="357.12" x="57.6" y="41.472"/>
  </clipPath>
 </defs>
</svg>
