<?xml version="1.0" encoding="utf-8" standalone="no"?>
<!DOCTYPE svg PUBLIC "-//W3C//DTD SVG 1.1//EN"
  "http://www.w3.org/Graphics/SVG/1.1/DTD/svg11.dtd">
<!-- Created with matplotlib (http://matplotlib.org/) -->
<svg height="345.6pt" version="1.1" viewBox="0 0 460.8 345.6" width="460.8pt" xmlns="http://www.w3.org/2000/svg" xmlns:xlink="http://www.w3.org/1999/xlink">
 <defs>
  <style type="text/css">
*{stroke-linecap:butt;stroke-linejoin:round;}
  </style>
 </defs>
 <g id="figure_1">
  <g id="patch_1">
   <path d="M 0 345.6 
L 460.8 345.6 
L 460.8 0 
L 0 0 
z
" style="fill:#ffffff;"/>
  </g>
  <g id="axes_1">
   <g id="patch_2">
    <path d="M 57.6 307.584 
L 414.72 307.584 
L 414.72 41.472 
L 57.6 41.472 
z
" style="fill:#ffffff;"/>
   </g>
   <g id="matplotlib.axis_1">
    <g id="xtick_1">
     <g id="line2d_1">
      <defs>
       <path d="M 0 0 
L 0 3.5 
" id="m58330c8f65" style="stroke:#000000;stroke-width:0.8;"/>
      </defs>
      <g>
       <use style="stroke:#000000;stroke-width:0.8;" x="73.832727" xlink:href="#m58330c8f65" y="307.584"/>
      </g>
     </g>
     <g id="text_1">
      <!-- 0 -->
      <defs>
       <path d="M 31.78125 66.40625 
Q 24.171875 66.40625 20.328125 58.90625 
Q 16.5 51.421875 16.5 36.375 
Q 16.5 21.390625 20.328125 13.890625 
Q 24.171875 6.390625 31.78125 6.390625 
Q 39.453125 6.390625 43.28125 13.890625 
Q 47.125 21.390625 47.125 36.375 
Q 47.125 51.421875 43.28125 58.90625 
Q 39.453125 66.40625 31.78125 66.40625 
z
M 31.78125 74.21875 
Q 44.046875 74.21875 50.515625 64.515625 
Q 56.984375 54.828125 56.984375 36.375 
Q 56.984375 17.96875 50.515625 8.265625 
Q 44.046875 -1.421875 31.78125 -1.421875 
Q 19.53125 -1.421875 13.0625 8.265625 
Q 6.59375 17.96875 6.59375 36.375 
Q 6.59375 54.828125 13.0625 64.515625 
Q 19.53125 74.21875 31.78125 74.21875 
z
" id="DejaVuSans-30"/>
      </defs>
      <g transform="translate(70.651477 322.182437)scale(0.1 -0.1)">
       <use xlink:href="#DejaVuSans-30"/>
      </g>
     </g>
    </g>
    <g id="xtick_2">
     <g id="line2d_2">
      <g>
       <use style="stroke:#000000;stroke-width:0.8;" x="117.12" xlink:href="#m58330c8f65" y="307.584"/>
      </g>
     </g>
     <g id="text_2">
      <!-- 2000 -->
      <defs>
       <path d="M 19.1875 8.296875 
L 53.609375 8.296875 
L 53.609375 0 
L 7.328125 0 
L 7.328125 8.296875 
Q 12.9375 14.109375 22.625 23.890625 
Q 32.328125 33.6875 34.8125 36.53125 
Q 39.546875 41.84375 41.421875 45.53125 
Q 43.3125 49.21875 43.3125 52.78125 
Q 43.3125 58.59375 39.234375 62.25 
Q 35.15625 65.921875 28.609375 65.921875 
Q 23.96875 65.921875 18.8125 64.3125 
Q 13.671875 62.703125 7.8125 59.421875 
L 7.8125 69.390625 
Q 13.765625 71.78125 18.9375 73 
Q 24.125 74.21875 28.421875 74.21875 
Q 39.75 74.21875 46.484375 68.546875 
Q 53.21875 62.890625 53.21875 53.421875 
Q 53.21875 48.921875 51.53125 44.890625 
Q 49.859375 40.875 45.40625 35.40625 
Q 44.1875 33.984375 37.640625 27.21875 
Q 31.109375 20.453125 19.1875 8.296875 
z
" id="DejaVuSans-32"/>
      </defs>
      <g transform="translate(104.395 322.182437)scale(0.1 -0.1)">
       <use xlink:href="#DejaVuSans-32"/>
       <use x="63.623047" xlink:href="#DejaVuSans-30"/>
       <use x="127.246094" xlink:href="#DejaVuSans-30"/>
       <use x="190.869141" xlink:href="#DejaVuSans-30"/>
      </g>
     </g>
    </g>
    <g id="xtick_3">
     <g id="line2d_3">
      <g>
       <use style="stroke:#000000;stroke-width:0.8;" x="160.407273" xlink:href="#m58330c8f65" y="307.584"/>
      </g>
     </g>
     <g id="text_3">
      <!-- 4000 -->
      <defs>
       <path d="M 37.796875 64.3125 
L 12.890625 25.390625 
L 37.796875 25.390625 
z
M 35.203125 72.90625 
L 47.609375 72.90625 
L 47.609375 25.390625 
L 58.015625 25.390625 
L 58.015625 17.1875 
L 47.609375 17.1875 
L 47.609375 0 
L 37.796875 0 
L 37.796875 17.1875 
L 4.890625 17.1875 
L 4.890625 26.703125 
z
" id="DejaVuSans-34"/>
      </defs>
      <g transform="translate(147.682273 322.182437)scale(0.1 -0.1)">
       <use xlink:href="#DejaVuSans-34"/>
       <use x="63.623047" xlink:href="#DejaVuSans-30"/>
       <use x="127.246094" xlink:href="#DejaVuSans-30"/>
       <use x="190.869141" xlink:href="#DejaVuSans-30"/>
      </g>
     </g>
    </g>
    <g id="xtick_4">
     <g id="line2d_4">
      <g>
       <use style="stroke:#000000;stroke-width:0.8;" x="203.694545" xlink:href="#m58330c8f65" y="307.584"/>
      </g>
     </g>
     <g id="text_4">
      <!-- 6000 -->
      <defs>
       <path d="M 33.015625 40.375 
Q 26.375 40.375 22.484375 35.828125 
Q 18.609375 31.296875 18.609375 23.390625 
Q 18.609375 15.53125 22.484375 10.953125 
Q 26.375 6.390625 33.015625 6.390625 
Q 39.65625 6.390625 43.53125 10.953125 
Q 47.40625 15.53125 47.40625 23.390625 
Q 47.40625 31.296875 43.53125 35.828125 
Q 39.65625 40.375 33.015625 40.375 
z
M 52.59375 71.296875 
L 52.59375 62.3125 
Q 48.875 64.0625 45.09375 64.984375 
Q 41.3125 65.921875 37.59375 65.921875 
Q 27.828125 65.921875 22.671875 59.328125 
Q 17.53125 52.734375 16.796875 39.40625 
Q 19.671875 43.65625 24.015625 45.921875 
Q 28.375 48.1875 33.59375 48.1875 
Q 44.578125 48.1875 50.953125 41.515625 
Q 57.328125 34.859375 57.328125 23.390625 
Q 57.328125 12.15625 50.6875 5.359375 
Q 44.046875 -1.421875 33.015625 -1.421875 
Q 20.359375 -1.421875 13.671875 8.265625 
Q 6.984375 17.96875 6.984375 36.375 
Q 6.984375 53.65625 15.1875 63.9375 
Q 23.390625 74.21875 37.203125 74.21875 
Q 40.921875 74.21875 44.703125 73.484375 
Q 48.484375 72.75 52.59375 71.296875 
z
" id="DejaVuSans-36"/>
      </defs>
      <g transform="translate(190.969545 322.182437)scale(0.1 -0.1)">
       <use xlink:href="#DejaVuSans-36"/>
       <use x="63.623047" xlink:href="#DejaVuSans-30"/>
       <use x="127.246094" xlink:href="#DejaVuSans-30"/>
       <use x="190.869141" xlink:href="#DejaVuSans-30"/>
      </g>
     </g>
    </g>
    <g id="xtick_5">
     <g id="line2d_5">
      <g>
       <use style="stroke:#000000;stroke-width:0.8;" x="246.981818" xlink:href="#m58330c8f65" y="307.584"/>
      </g>
     </g>
     <g id="text_5">
      <!-- 8000 -->
      <defs>
       <path d="M 31.78125 34.625 
Q 24.75 34.625 20.71875 30.859375 
Q 16.703125 27.09375 16.703125 20.515625 
Q 16.703125 13.921875 20.71875 10.15625 
Q 24.75 6.390625 31.78125 6.390625 
Q 38.8125 6.390625 42.859375 10.171875 
Q 46.921875 13.96875 46.921875 20.515625 
Q 46.921875 27.09375 42.890625 30.859375 
Q 38.875 34.625 31.78125 34.625 
z
M 21.921875 38.8125 
Q 15.578125 40.375 12.03125 44.71875 
Q 8.5 49.078125 8.5 55.328125 
Q 8.5 64.0625 14.71875 69.140625 
Q 20.953125 74.21875 31.78125 74.21875 
Q 42.671875 74.21875 48.875 69.140625 
Q 55.078125 64.0625 55.078125 55.328125 
Q 55.078125 49.078125 51.53125 44.71875 
Q 48 40.375 41.703125 38.8125 
Q 48.828125 37.15625 52.796875 32.3125 
Q 56.78125 27.484375 56.78125 20.515625 
Q 56.78125 9.90625 50.3125 4.234375 
Q 43.84375 -1.421875 31.78125 -1.421875 
Q 19.734375 -1.421875 13.25 4.234375 
Q 6.78125 9.90625 6.78125 20.515625 
Q 6.78125 27.484375 10.78125 32.3125 
Q 14.796875 37.15625 21.921875 38.8125 
z
M 18.3125 54.390625 
Q 18.3125 48.734375 21.84375 45.5625 
Q 25.390625 42.390625 31.78125 42.390625 
Q 38.140625 42.390625 41.71875 45.5625 
Q 45.3125 48.734375 45.3125 54.390625 
Q 45.3125 60.0625 41.71875 63.234375 
Q 38.140625 66.40625 31.78125 66.40625 
Q 25.390625 66.40625 21.84375 63.234375 
Q 18.3125 60.0625 18.3125 54.390625 
z
" id="DejaVuSans-38"/>
      </defs>
      <g transform="translate(234.256818 322.182437)scale(0.1 -0.1)">
       <use xlink:href="#DejaVuSans-38"/>
       <use x="63.623047" xlink:href="#DejaVuSans-30"/>
       <use x="127.246094" xlink:href="#DejaVuSans-30"/>
       <use x="190.869141" xlink:href="#DejaVuSans-30"/>
      </g>
     </g>
    </g>
    <g id="xtick_6">
     <g id="line2d_6">
      <g>
       <use style="stroke:#000000;stroke-width:0.8;" x="290.269091" xlink:href="#m58330c8f65" y="307.584"/>
      </g>
     </g>
     <g id="text_6">
      <!-- 10000 -->
      <defs>
       <path d="M 12.40625 8.296875 
L 28.515625 8.296875 
L 28.515625 63.921875 
L 10.984375 60.40625 
L 10.984375 69.390625 
L 28.421875 72.90625 
L 38.28125 72.90625 
L 38.28125 8.296875 
L 54.390625 8.296875 
L 54.390625 0 
L 12.40625 0 
z
" id="DejaVuSans-31"/>
      </defs>
      <g transform="translate(274.362841 322.182437)scale(0.1 -0.1)">
       <use xlink:href="#DejaVuSans-31"/>
       <use x="63.623047" xlink:href="#DejaVuSans-30"/>
       <use x="127.246094" xlink:href="#DejaVuSans-30"/>
       <use x="190.869141" xlink:href="#DejaVuSans-30"/>
       <use x="254.492188" xlink:href="#DejaVuSans-30"/>
      </g>
     </g>
    </g>
    <g id="xtick_7">
     <g id="line2d_7">
      <g>
       <use style="stroke:#000000;stroke-width:0.8;" x="333.556364" xlink:href="#m58330c8f65" y="307.584"/>
      </g>
     </g>
     <g id="text_7">
      <!-- 12000 -->
      <g transform="translate(317.650114 322.182437)scale(0.1 -0.1)">
       <use xlink:href="#DejaVuSans-31"/>
       <use x="63.623047" xlink:href="#DejaVuSans-32"/>
       <use x="127.246094" xlink:href="#DejaVuSans-30"/>
       <use x="190.869141" xlink:href="#DejaVuSans-30"/>
       <use x="254.492188" xlink:href="#DejaVuSans-30"/>
      </g>
     </g>
    </g>
    <g id="xtick_8">
     <g id="line2d_8">
      <g>
       <use style="stroke:#000000;stroke-width:0.8;" x="376.843636" xlink:href="#m58330c8f65" y="307.584"/>
      </g>
     </g>
     <g id="text_8">
      <!-- 14000 -->
      <g transform="translate(360.937386 322.182437)scale(0.1 -0.1)">
       <use xlink:href="#DejaVuSans-31"/>
       <use x="63.623047" xlink:href="#DejaVuSans-34"/>
       <use x="127.246094" xlink:href="#DejaVuSans-30"/>
       <use x="190.869141" xlink:href="#DejaVuSans-30"/>
       <use x="254.492188" xlink:href="#DejaVuSans-30"/>
      </g>
     </g>
    </g>
   </g>
   <g id="matplotlib.axis_2">
    <g id="ytick_1">
     <g id="line2d_9">
      <defs>
       <path d="M 0 0 
L -3.5 0 
" id="mf2a3b06c5c" style="stroke:#000000;stroke-width:0.8;"/>
      </defs>
      <g>
       <use style="stroke:#000000;stroke-width:0.8;" x="57.6" xlink:href="#mf2a3b06c5c" y="275.906241"/>
      </g>
     </g>
     <g id="text_9">
      <!-- −80 -->
      <defs>
       <path d="M 10.59375 35.5 
L 73.1875 35.5 
L 73.1875 27.203125 
L 10.59375 27.203125 
z
" id="DejaVuSans-2212"/>
      </defs>
      <g transform="translate(29.495313 279.70546)scale(0.1 -0.1)">
       <use xlink:href="#DejaVuSans-2212"/>
       <use x="83.789062" xlink:href="#DejaVuSans-38"/>
       <use x="147.412109" xlink:href="#DejaVuSans-30"/>
      </g>
     </g>
    </g>
    <g id="ytick_2">
     <g id="line2d_10">
      <g>
       <use style="stroke:#000000;stroke-width:0.8;" x="57.6" xlink:href="#mf2a3b06c5c" y="231.613996"/>
      </g>
     </g>
     <g id="text_10">
      <!-- −60 -->
      <g transform="translate(29.495313 235.413215)scale(0.1 -0.1)">
       <use xlink:href="#DejaVuSans-2212"/>
       <use x="83.789062" xlink:href="#DejaVuSans-36"/>
       <use x="147.412109" xlink:href="#DejaVuSans-30"/>
      </g>
     </g>
    </g>
    <g id="ytick_3">
     <g id="line2d_11">
      <g>
       <use style="stroke:#000000;stroke-width:0.8;" x="57.6" xlink:href="#mf2a3b06c5c" y="187.321751"/>
      </g>
     </g>
     <g id="text_11">
      <!-- −40 -->
      <g transform="translate(29.495313 191.12097)scale(0.1 -0.1)">
       <use xlink:href="#DejaVuSans-2212"/>
       <use x="83.789062" xlink:href="#DejaVuSans-34"/>
       <use x="147.412109" xlink:href="#DejaVuSans-30"/>
      </g>
     </g>
    </g>
    <g id="ytick_4">
     <g id="line2d_12">
      <g>
       <use style="stroke:#000000;stroke-width:0.8;" x="57.6" xlink:href="#mf2a3b06c5c" y="143.029506"/>
      </g>
     </g>
     <g id="text_12">
      <!-- −20 -->
      <g transform="translate(29.495313 146.828725)scale(0.1 -0.1)">
       <use xlink:href="#DejaVuSans-2212"/>
       <use x="83.789062" xlink:href="#DejaVuSans-32"/>
       <use x="147.412109" xlink:href="#DejaVuSans-30"/>
      </g>
     </g>
    </g>
    <g id="ytick_5">
     <g id="line2d_13">
      <g>
       <use style="stroke:#000000;stroke-width:0.8;" x="57.6" xlink:href="#mf2a3b06c5c" y="98.737261"/>
      </g>
     </g>
     <g id="text_13">
      <!-- 0 -->
      <g transform="translate(44.2375 102.53648)scale(0.1 -0.1)">
       <use xlink:href="#DejaVuSans-30"/>
      </g>
     </g>
    </g>
    <g id="ytick_6">
     <g id="line2d_14">
      <g>
       <use style="stroke:#000000;stroke-width:0.8;" x="57.6" xlink:href="#mf2a3b06c5c" y="54.445016"/>
      </g>
     </g>
     <g id="text_14">
      <!-- 20 -->
      <g transform="translate(37.875 58.244235)scale(0.1 -0.1)">
       <use xlink:href="#DejaVuSans-32"/>
       <use x="63.623047" xlink:href="#DejaVuSans-30"/>
      </g>
     </g>
    </g>
   </g>
   <g id="line2d_15">
    <path clip-path="url(#p87ad7c1be4)" d="M 73.832727 264.83318 
L 74.041588 258.206896 
L 74.240169 252.639243 
L 74.531817 244.694964 
L 74.532358 244.695535 
L 74.537228 244.56012 
L 75.136215 210.888073 
L 75.19303 171.910727 
L 75.211427 53.568 
L 75.301789 178.491255 
L 75.529047 245.220306 
L 75.582074 245.96734 
L 75.643759 245.460502 
L 76.123165 231.07782 
L 76.352588 209.159454 
L 76.39858 181.450499 
L 76.421306 54.043925 
L 76.511127 177.775682 
L 76.732433 244.678721 
L 76.732975 244.669523 
L 76.783296 245.684247 
L 76.784378 245.672636 
L 76.797905 245.756136 
L 76.876905 244.970572 
L 76.879069 244.973191 
L 77.119313 239.355664 
L 77.250799 235.276333 
L 77.429359 227.24683 
L 77.611706 202.324511 
L 77.646336 140.324795 
L 77.659322 54.35997 
L 77.752931 179.777856 
L 77.99047 245.082902 
L 78.046202 245.696059 
L 78.106263 245.175853 
L 78.402781 238.572789 
L 78.670621 228.54623 
L 78.860544 208.337478 
L 78.910865 159.603645 
L 78.926557 54.732961 
L 79.018543 178.294181 
L 79.237684 244.097239 
L 79.310191 245.483794 
L 79.388649 244.787718 
L 79.390272 244.791046 
L 79.411916 244.465708 
L 79.598051 240.523486 
L 79.849117 233.147249 
L 80.164032 201.594277 
L 80.196497 146.052304 
L 80.210025 54.753837 
L 80.303092 178.888649 
L 80.522234 244.229737 
L 80.594199 245.59728 
L 80.65913 245.163621 
L 80.659671 245.168302 
L 80.700794 244.562437 
L 80.784122 242.997475 
L 80.965929 238.654925 
L 81.391226 217.817112 
L 81.482129 191.227018 
L 81.508102 61.872748 
L 81.512431 55.05843 
L 81.587642 167.835837 
L 81.821935 243.835435 
L 81.906345 245.394769 
L 81.976145 244.891231 
L 82.133603 241.889225 
L 82.134144 241.897238 
L 82.176349 240.888521 
L 82.17689 240.895105 
L 82.451764 233.363155 
L 82.452305 233.365338 
L 82.462586 232.980718 
L 82.783453 199.691699 
L 82.813754 130.918264 
L 82.825658 55.107713 
L 82.919808 179.159643 
L 83.149231 244.172071 
L 83.219572 245.218415 
L 83.270435 244.840993 
L 83.272599 244.842043 
L 83.46631 241.23576 
L 83.589137 238.356855 
L 84.049606 212.252893 
L 84.114537 174.49699 
L 84.134557 55.290103 
L 84.224378 176.481349 
L 84.447308 243.611333 
L 84.529553 245.0996 
L 84.586368 244.739465 
L 84.58745 244.744143 
L 84.780079 241.392239 
L 84.965132 236.890724 
L 84.965673 236.900054 
L 85.006255 235.702178 
L 85.186979 228.929618 
L 85.419107 198.589455 
L 85.447785 127.792297 
L 85.459689 55.274638 
L 85.553839 179.093472 
L 85.77785 243.935275 
L 85.85198 245.218933 
L 85.915828 244.778722 
L 86.074909 241.889241 
L 86.081943 241.760809 
L 86.153367 240.220638 
L 86.405516 233.262596 
L 86.582452 224.775399 
L 86.747485 194.306945 
L 86.773457 85.039948 
L 86.781033 55.278285 
L 86.8741 178.22964 
L 87.094324 243.807113 
L 87.190097 245.27969 
L 87.233385 244.889752 
L 87.235008 244.890859 
L 87.594292 237.445247 
L 87.977926 218.744899 
L 88.07911 189.808114 
L 88.108329 55.392718 
L 88.200314 177.768602 
L 88.423785 243.665932 
L 88.5109 245.10404 
L 88.557434 244.723858 
L 88.557975 244.72757 
L 88.594769 244.232835 
L 88.81824 239.769044 
L 89.195921 226.7525 
L 89.332276 214.201118 
L 89.406406 179.451634 
L 89.428591 55.39145 
L 89.518412 176.472201 
L 89.754327 244.232436 
L 89.754868 244.232395 
L 89.832244 245.298245 
L 89.886895 244.748517 
L 90.041647 242.161994 
L 90.160145 239.578599 
L 90.319767 235.288538 
L 90.65362 216.005413 
L 90.739654 179.460906 
L 90.761839 55.319357 
L 90.85166 176.643736 
L 91.078918 243.952408 
L 91.157917 245.334347 
L 91.215273 244.997931 
L 91.379764 242.276447 
L 91.380305 242.308932 
L 91.461469 240.518019 
L 91.990656 217.111245 
L 92.079936 188.023618 
L 92.107532 55.351222 
L 92.198976 177.489698 
L 92.426775 244.06588 
L 92.499281 245.369317 
L 92.555014 245.046028 
L 92.556096 245.047846 
L 93.062016 233.54662 
L 93.32174 218.405891 
L 93.41102 196.788044 
L 93.438074 111.616143 
L 93.448355 55.21788 
L 93.543046 179.427039 
L 93.762188 243.908556 
L 93.841187 245.462532 
L 93.890967 245.1969 
L 94.156643 240.380398 
L 94.157184 240.381956 
L 94.331415 235.96454 
L 94.331956 235.968624 
L 94.493201 230.346686 
L 94.756713 198.284992 
L 94.785932 115.54986 
L 94.796753 55.356217 
L 94.891444 179.359593 
L 95.114915 243.907206 
L 95.204195 245.227611 
L 95.245859 244.842735 
L 95.2464 244.847465 
L 95.288605 244.254503 
L 95.291311 244.266613 
L 95.987695 220.067104 
L 96.087796 199.929953 
L 96.118639 131.653395 
L 96.130543 55.447497 
L 96.224692 178.737565 
L 96.442752 243.509257 
L 96.541231 245.160142 
L 96.588305 244.77146 
L 97.214348 227.874996 
L 97.395072 209.641875 
L 97.446476 177.149504 
L 97.467578 55.462399 
L 97.557399 176.359289 
L 97.784116 243.652544 
L 97.784657 243.633959 
L 97.853376 245.001147 
L 97.856623 244.979753 
L 97.863657 245.050239 
L 97.928588 244.601204 
L 97.92967 244.603914 
L 98.185065 239.776874 
L 98.185606 239.787171 
L 98.234845 238.6075 
L 98.649321 220.288889 
L 98.754292 198.681692 
L 98.783511 124.002225 
L 98.794874 55.386312 
L 98.889565 179.163347 
L 99.113577 243.823708 
L 99.188788 245.212286 
L 99.269411 244.541625 
L 99.528052 239.631114 
L 99.528593 239.633627 
L 99.571881 238.634762 
L 100.036678 215.102354 
L 100.108102 191.577708 
L 100.138944 55.340513 
L 100.232012 178.446208 
L 100.469551 244.335579 
L 100.530694 245.109631 
L 100.590755 244.807932 
L 101.195153 228.978686 
L 101.417001 203.612845 
L 101.454877 144.705402 
L 101.468404 55.328125 
L 101.561472 178.304089 
L 101.788189 243.892131 
L 101.78873 243.890863 
L 101.795223 244.150936 
L 101.86286 245.156393 
L 101.923462 244.733105 
L 102.514874 229.499488 
L 102.731852 208.44747 
L 102.781632 166.872895 
L 102.798947 55.421858 
L 102.88985 176.911076 
L 103.124143 244.244055 
L 103.124684 244.231976 
L 103.19232 245.323259 
L 103.262662 244.799918 
L 103.982854 221.663154 
L 104.092695 203.267431 
L 104.128948 150.222038 
L 104.143017 55.28362 
L 104.236084 178.278023 
L 104.459555 243.954795 
L 104.537472 245.272895 
L 104.593745 244.938754 
L 105.3253 221.90394 
L 105.436224 203.831607 
L 105.473559 152.760201 
L 105.488169 55.344233 
L 105.580695 177.986019 
L 105.812823 244.136528 
L 105.884788 245.177435 
L 105.936733 244.807031 
L 106.047116 243.094243 
L 106.2971 237.532627 
L 106.463756 232.395864 
L 106.765143 204.478365 
L 106.803561 157.350516 
L 106.819252 55.374423 
L 106.910697 177.457738 
L 107.134708 243.805268 
L 107.215872 245.204093 
L 107.286755 244.666018 
L 107.450705 241.827741 
L 108.044282 216.379008 
L 108.121658 194.25683 
L 108.148172 80.194126 
L 108.155206 55.464409 
L 108.24665 177.029338 
L 108.464169 243.387381 
L 108.551284 245.236959 
L 108.591325 245.011236 
L 109.037725 235.735735 
L 109.445167 201.956568 
L 109.478714 146.899092 
L 109.492783 55.408625 
L 109.585309 178.106109 
L 109.817437 244.181668 
L 109.88832 245.269474 
L 109.944052 244.930462 
L 110.148044 241.415505 
L 109.946217 244.938244 
L 110.148585 241.416067 
L 110.316323 237.579289 
L 110.435363 234.009006 
L 110.758394 211.236706 
L 110.818996 171.698046 
L 110.837935 55.409615 
L 110.928297 176.717263 
L 111.160425 244.095176 
L 111.223732 245.226932 
L 111.300026 244.689936 
L 111.36658 243.673173 
L 111.7237 235.505128 
L 111.757789 234.517669 
L 112.131683 200.573323 
L 112.163607 132.603037 
L 112.175511 55.275612 
L 112.269661 178.850085 
L 112.49746 244.120303 
L 112.565097 245.259789 
L 112.620288 244.962616 
L 112.620829 244.970252 
L 112.678185 244.210433 
L 112.678726 244.224647 
L 112.972538 238.160249 
L 112.973079 238.177328 
L 113.03314 236.569909 
L 113.300439 225.953918 
L 113.476294 200.006275 
L 113.507677 128.273609 
L 113.519581 55.499636 
L 113.613731 178.772572 
L 113.832332 243.565946 
L 113.915119 245.132563 
L 113.971933 244.785349 
L 114.008727 244.306799 
L 114.149952 241.677735 
L 114.238691 239.69243 
L 114.74407 215.82947 
L 114.813329 196.911929 
L 114.840384 114.438024 
L 114.850665 55.391625 
L 114.945356 179.058875 
L 115.174778 244.146757 
L 115.175319 244.139952 
L 115.212113 245.021814 
L 115.21536 245.012125 
L 115.244579 245.207927 
L 115.319249 244.713716 
L 115.319791 244.732008 
L 115.394461 243.531905 
L 115.650397 238.102541 
L 115.650938 238.105164 
L 115.668794 237.660768 
L 116.005894 224.042424 
L 116.153612 199.401214 
L 116.183913 126.848544 
L 116.195817 55.37172 
L 116.289967 179.055746 
L 116.516143 244.034093 
L 116.52967 244.48449 
L 116.594601 245.302825 
L 116.663319 244.737072 
L 116.937111 239.458848 
L 116.937652 239.459114 
L 116.943063 239.338932 
L 117.17465 232.765209 
L 117.175191 232.768155 
L 117.175732 232.76988 
L 117.18439 232.447006 
L 117.470086 209.276535 
L 117.522031 171.105694 
L 117.540969 55.408601 
L 117.631331 176.824887 
L 117.865623 244.211575 
L 117.866164 244.207251 
L 117.932177 245.27717 
L 117.999273 244.822126 
L 118.32014 238.484738 
L 118.379119 237.045233 
L 118.818484 206.891053 
L 118.863936 160.152201 
L 118.880169 55.346771 
L 118.971613 177.526878 
L 119.188049 243.512328 
L 119.281117 245.228684 
L 119.349836 244.670759 
L 119.50567 241.928602 
L 119.506211 241.943991 
L 119.568977 240.577952 
L 119.810845 234.260418 
L 119.811386 234.261011 
L 119.815174 234.133438 
L 120.160931 205.691048 
L 120.202595 158.976199 
L 120.218287 55.397529 
L 120.310272 177.558813 
L 120.533743 243.750833 
L 120.606249 245.175247 
L 120.663604 244.872762 
L 120.664145 244.873412 
L 120.680378 244.719695 
L 120.845952 241.93579 
L 121.442234 217.405068 
L 121.525562 195.703054 
L 121.551535 106.145641 
L 121.561274 55.396441 
L 121.655965 179.136147 
L 121.874566 243.656285 
L 121.962764 245.172404 
L 122.01038 244.845241 
L 122.111023 243.372761 
L 122.290124 239.605596 
L 122.791715 215.189385 
L 122.855564 197.730532 
L 122.8837 117.421841 
L 122.894522 55.387888 
L 122.989213 179.211201 
L 123.209437 243.683275 
L 123.209978 243.680216 
L 123.224588 244.20531 
L 123.299799 245.172827 
L 123.347415 244.841565 
L 123.580625 240.630908 
L 123.734295 236.99709 
L 123.740247 236.875366 
L 124.082217 221.079591 
L 124.202339 193.772083 
L 124.228852 74.887722 
L 124.235345 55.26987 
L 124.324625 176.105666 
L 124.551343 243.92685 
L 124.637917 245.335339 
L 124.676876 245.07991 
L 124.678499 245.080932 
L 124.959325 239.907702 
L 125.143837 235.095913 
L 125.509615 209.478181 
L 125.561018 175.055371 
L 125.581039 55.352234 
L 125.671401 176.717113 
L 125.89433 243.809237 
L 125.985233 245.332741 
L 126.026897 245.017456 
L 126.529571 233.873183 
L 126.758993 222.244458 
L 126.891561 194.934514 
L 126.917533 94.125703 
L 126.926191 55.358621 
L 127.02034 178.935986 
L 127.242188 243.933495 
L 127.316858 245.279336 
L 127.38233 244.860584 
L 127.599308 240.934941 
L 127.89799 232.748864 
L 127.937489 231.253029 
L 127.938031 231.256346 
L 128.205329 206.249274 
L 128.248617 159.997727 
L 128.264849 55.339405 
L 128.356294 177.52479 
L 128.580847 243.957761 
L 128.589504 244.274395 
L 128.662551 245.41788 
L 128.713414 245.079648 
L 128.981254 240.304793 
L 128.981795 240.304843 
L 129.513687 216.002444 
L 129.583488 197.256867 
L 129.611084 114.523251 
L 129.621364 55.335698 
L 129.716596 179.491478 
L 129.939526 244.031369 
L 129.940067 244.029861 
L 129.947642 244.331932 
L 130.01095 245.297944 
L 130.068305 244.916278 
L 130.778758 223.407669 
L 130.926476 194.440971 
L 130.951907 93.055993 
L 130.960564 55.361828 
L 131.054173 178.604407 
L 131.279267 243.866364 
L 131.346903 245.136289 
L 131.42482 244.613137 
L 132.047075 227.607419 
L 132.237539 205.153933 
L 132.278662 152.511126 
L 132.293271 55.360742 
L 132.385798 177.973918 
L 132.606022 243.687903 
L 132.695302 245.29897 
L 132.739671 244.999538 
L 133.189318 235.352734 
L 133.557801 210.402039 
L 133.613533 174.341226 
L 133.633553 55.329787 
L 133.723375 176.668611 
L 133.95442 244.121291 
L 134.021516 245.324729 
L 134.100515 244.738946 
L 134.262301 241.947666 
L 134.263383 241.955867 
L 134.8272 220.729362 
L 134.919727 205.590278 
L 134.962473 150.895207 
L 134.977082 55.327266 
L 135.069609 178.219501 
L 135.29849 244.165393 
L 135.380195 245.328383 
L 135.42727 245.024415 
L 135.576611 242.621562 
L 135.577152 242.625995 
L 135.606371 241.958273 
L 136.162071 221.572819 
L 136.270289 203.483137 
L 136.307625 146.350047 
L 136.321693 55.460777 
L 136.41422 177.961061 
L 136.640396 243.788609 
L 136.712361 245.008904 
L 136.792442 244.461472 
L 137.484497 221.453427 
L 137.60462 196.937408 
L 137.632215 108.274071 
L 137.642496 55.380244 
L 137.736646 179.089237 
L 137.962281 244.063859 
L 138.026671 245.346761 
L 138.112163 244.773196 
L 138.167354 243.926637 
L 138.31399 241.057263 
L 138.315072 241.061058 
L 138.316154 241.066274 
L 138.337798 240.615861 
L 138.549364 235.191809 
L 138.753897 226.797701 
L 138.935703 203.422831 
L 138.972497 149.179667 
L 138.986566 55.354747 
L 139.079633 178.288787 
L 139.303104 243.938099 
L 139.379398 245.38643 
L 139.442705 244.988395 
L 139.540643 243.416616 
L 139.725696 239.553643 
L 139.726237 239.559097 
L 139.760867 238.738578 
L 140.221335 216.556581 
L 140.308992 185.183929 
L 140.334423 55.56103 
L 140.425327 176.874167 
L 140.651503 243.535133 
L 140.71968 244.92435 
L 140.793268 244.502292 
L 140.941527 241.969715 
L 141.226682 234.976101 
L 141.613021 199.513337 
L 141.643863 123.406074 
L 141.655226 55.35689 
L 141.749917 179.247224 
L 141.975552 244.078274 
L 142.043729 245.298833 
L 142.116236 244.808194 
L 142.698991 229.937212 
L 142.921379 209.330042 
L 142.970618 179.154504 
L 142.992262 55.483218 
L 143.082624 176.453799 
L 143.310964 243.812531 
L 143.387258 245.109053 
L 143.437039 244.795314 
L 143.43758 244.805591 
L 143.501428 243.920577 
L 143.672413 240.547457 
L 143.672954 240.554633 
L 143.715159 239.640453 
L 143.997068 231.147372 
L 144.250839 209.15297 
L 144.302784 169.185906 
L 144.321181 55.373884 
L 144.411543 176.857973 
L 144.635555 243.742234 
L 144.708602 245.232549 
L 144.803293 244.567943 
L 145.157167 237.180153 
L 145.157708 237.183402 
L 145.583546 211.548533 
L 145.646313 169.916736 
L 145.66471 55.435257 
L 145.755072 176.763885 
L 145.976919 243.627805 
L 146.046179 245.226838 
L 146.104617 244.924458 
L 146.273437 242.177869 
L 146.880541 217.199343 
L 146.969821 188.795572 
L 146.997958 55.360139 
L 147.090484 178.03983 
L 147.313955 243.898037 
L 147.314496 243.887823 
L 147.397824 245.256434 
L 147.440029 245.003961 
L 147.746828 239.312793 
L 147.860457 236.385892 
L 148.247878 213.89452 
L 148.317679 183.611055 
L 148.342028 55.374236 
L 148.43239 176.801936 
L 148.658566 243.854407 
L 148.742976 245.246572 
L 148.78951 244.959241 
L 149.172602 237.220406 
L 149.524852 221.497332 
L 149.654714 189.429188 
L 149.683392 55.294798 
L 149.775377 177.822085 
L 150.001553 243.99571 
L 150.077847 245.292954 
L 150.124381 245.022146 
L 150.401961 239.88452 
L 150.402502 239.892676 
L 150.445789 238.870166 
L 150.44633 238.883117 
L 150.934394 212.979844 
L 151.000948 180.374708 
L 151.023133 55.378698 
L 151.113495 176.579425 
L 151.340753 243.855729 
L 151.417047 245.203405 
L 151.470074 244.917402 
L 152.148602 225.62497 
L 152.326621 195.571671 
L 152.354217 86.552004 
L 152.362333 55.474516 
L 152.45486 177.86963 
L 152.684282 243.87068 
L 152.770857 245.114788 
L 152.812521 244.784551 
L 152.860137 244.176935 
L 153.028416 240.962759 
L 153.2784 234.479729 
L 153.381748 230.715943 
L 153.626321 208.589712 
L 153.676102 168.876352 
L 153.693958 55.433807 
L 153.784861 176.88149 
L 154.011578 243.833811 
L 154.086249 245.199338 
L 154.138735 244.910803 
L 154.312966 241.991643 
L 154.313507 241.999667 
L 154.3595 241.037933 
L 154.360041 241.041865 
L 154.752332 229.008681 
L 154.975802 202.943535 
L 155.012055 143.125173 
L 155.025583 55.285386 
L 155.11865 178.547535 
L 155.352401 244.435583 
L 155.422202 245.46543 
L 155.472524 245.131333 
L 155.632687 242.482134 
L 155.633228 242.49346 
L 155.689501 241.346881 
L 155.698159 241.159413 
L 155.943273 235.066814 
L 155.943814 235.069305 
L 155.955718 234.626483 
L 156.323119 204.720089 
L 156.362077 158.236939 
L 156.377769 55.331996 
L 156.469213 177.431165 
L 156.69106 243.730998 
L 156.767354 245.234713 
L 156.826874 244.918975 
L 157.556265 222.309054 
L 157.685585 197.820142 
L 157.714263 113.540314 
L 157.724544 55.532776 
L 157.819235 178.906036 
L 158.037836 243.437504 
L 158.115753 244.997449 
L 158.167697 244.72985 
L 158.170944 244.732849 
L 158.516701 237.983352 
L 158.739089 230.835025 
L 158.971217 212.231511 
L 159.036148 173.456858 
L 159.055628 55.274976 
L 159.14599 176.889643 
L 159.366214 243.734893 
L 159.459823 245.425832 
L 159.513932 245.006513 
L 159.700608 241.798551 
L 159.752553 240.647994 
L 160.282281 217.290471 
L 160.362362 197.035213 
L 160.389417 117.019231 
L 160.400239 55.40215 
L 160.494929 179.206021 
L 160.717318 243.829905 
L 160.803892 245.182157 
L 160.859084 244.822096 
L 160.861789 244.822668 
L 161.040349 241.537187 
L 161.04089 241.537886 
L 161.051171 241.37158 
L 161.477551 228.325096 
L 161.679377 206.215835 
L 161.722665 159.989231 
L 161.738897 55.427683 
L 161.830342 177.508811 
L 162.058141 243.954454 
L 162.127401 245.273144 
L 162.184215 245.036745 
L 162.185297 245.077089 
L 162.249146 244.153206 
L 162.392535 241.477173 
L 162.976372 215.673287 
L 163.055913 186.997139 
L 163.082426 55.370961 
L 163.173871 177.234584 
L 163.401129 243.746085 
L 163.466601 245.053734 
L 163.52558 244.789017 
L 163.723619 241.413923 
L 163.729571 241.305591 
L 164.291223 217.446603 
L 164.384832 186.056596 
L 164.410804 55.448968 
L 164.501708 176.977709 
L 164.719226 243.324857 
L 164.811212 245.208761 
L 164.848006 244.980176 
L 164.90969 244.187053 
L 165.493527 227.950992 
L 165.676957 209.498084 
L 165.731066 166.715088 
L 165.748381 55.457928 
L 165.839284 176.759043 
L 166.066543 243.808576 
L 166.148247 245.140158 
L 166.192076 244.881288 
L 166.195863 244.892226 
L 166.837597 227.657793 
L 166.993972 213.65552 
L 167.05728 190.379571 
L 167.08704 55.461942 
L 167.179567 178.061937 
L 167.398708 243.565013 
L 167.475002 245.178821 
L 167.556707 244.589184 
L 168.075072 232.186408 
L 168.371049 203.83935 
L 168.408384 153.218745 
L 168.422993 55.329917 
L 168.51552 177.901144 
L 168.744943 244.087094 
L 168.819072 245.223296 
L 168.876428 244.828064 
L 169.121542 240.340045 
L 169.222726 238.065411 
L 169.504093 228.2321 
L 169.523572 227.24083 
L 169.623674 219.764593 
L 169.736221 187.91941 
L 169.763276 55.269658 
L 169.85472 177.426513 
L 170.077108 243.872615 
L 170.149615 245.390456 
L 170.207511 245.102114 
L 170.309777 243.646766 
L 170.647418 235.990991 
L 170.647959 235.995159 
L 170.854115 228.059914 
L 171.053236 205.370508 
L 171.093818 160.253065 
L 171.110051 55.397642 
L 171.201495 177.406154 
L 171.428212 243.837809 
L 171.438493 244.208091 
L 171.507753 245.195646 
L 171.559697 244.9075 
L 171.7296 242.070922 
L 172.284218 222.12944 
L 172.396224 204.283814 
L 172.4341 157.455272 
L 172.449792 55.414743 
L 172.541236 177.46164 
L 172.767412 243.861398 
L 172.843165 245.1944 
L 172.905391 244.745388 
L 173.312832 236.32099 
L 173.719191 208.215074 
L 173.766807 171.309908 
L 173.785745 55.35056 
L 173.876108 176.802543 
L 174.096873 243.681898 
L 174.187776 245.278748 
L 174.230522 244.970231 
L 174.825722 230.521796 
L 175.03296 215.128967 
L 175.103843 192.230433 
L 175.129274 70.323214 
L 175.135226 55.386145 
L 175.221801 174.495553 
L 175.456634 244.090377 
L 175.534551 245.265544 
L 175.61842 244.494517 
L 176.331037 220.222162 
L 176.439796 195.812324 
L 176.46631 101.508449 
L 176.475508 55.369283 
L 176.570199 179.074592 
L 176.7888 243.73914 
L 176.864553 245.285855 
L 176.91758 244.957468 
L 177.096681 241.908214 
L 176.919203 244.962553 
L 177.097222 241.91817 
L 177.118324 241.507834 
L 177.300131 237.28785 
L 177.640477 222.603695 
L 177.75086 206.824423 
L 177.79577 161.64226 
L 177.812003 55.336939 
L 177.903447 177.285888 
L 178.127459 243.686183 
L 178.215116 245.127734 
L 178.255697 244.840859 
L 178.751337 233.70678 
L 179.100881 201.592641 
L 179.134429 139.200183 
L 179.147415 55.402769 
L 179.241024 178.556173 
L 179.463953 243.772339 
L 179.542953 245.152988 
L 179.597603 244.787747 
L 179.939031 238.063997 
L 180.036969 235.332873 
L 180.434671 201.636892 
L 180.467677 144.745102 
L 180.481204 55.335477 
L 180.574272 178.263635 
L 180.793955 243.734037 
L 180.879447 245.25797 
L 180.943296 244.806301 
L 181.09426 242.215611 
L 181.376169 235.488084 
L 181.37671 235.49066 
L 181.390778 235.032332 
L 181.749521 210.831772 
L 181.804713 180.23492 
L 181.826897 55.39809 
L 181.91726 176.613622 
L 182.142895 243.790403 
L 182.228928 245.223631 
L 182.267887 244.960287 
L 182.46322 241.813446 
L 183.020003 220.913513 
L 183.134714 196.726811 
L 183.16231 104.651199 
L 183.172049 55.3623 
L 183.26674 179.287165 
L 183.490211 243.962796 
L 183.571375 245.301668 
L 183.618991 245.017117 
L 183.623319 245.034186 
L 183.808372 241.980363 
L 183.808913 241.99151 
L 183.863023 240.824878 
L 184.144931 233.582317 
L 184.461469 211.233173 
L 184.518825 180.541513 
L 184.541551 55.656793 
L 184.631913 176.554112 
L 184.870534 244.145625 
L 184.941958 245.257362 
L 185.036108 244.675279 
L 185.292585 240.624879 
L 185.293126 240.626059 
L 185.306653 240.389174 
L 185.321263 240.136233 
L 185.79634 227.523505 
L 186.013859 201.565122 
L 186.048489 134.533123 
L 186.060934 56.701395 
L 186.155084 177.33416 
L 186.387212 242.938954 
L 186.507875 244.761273 
L 186.544669 244.666564 
L 186.547916 244.66674 
L 186.672908 243.869202 
L 187.549475 236.683633 
L 187.737233 234.29111 
L 187.552721 236.695126 
L 187.738857 234.294791 
L 187.739398 234.29732 
L 187.764288 233.888555 
L 187.911465 231.108604 
L 188.167942 221.144861 
L 188.289146 203.891625 
L 188.328646 154.841978 
L 188.344337 59.299938 
L 188.436323 173.481802 
L 188.678191 239.9482 
L 188.827532 243.330797 
L 189.569367 251.463406 
L 189.779311 255.025079 
L 189.779852 255.01954 
L 190.496256 268.608776 
L 190.496797 268.60728 
L 190.510865 268.894352 
L 190.578502 270.092625 
L 190.81063 273.992521 
L 191.916079 285.496252 
L 191.917161 285.49203 
L 191.917702 285.47518 
L 192.009687 285.987409 
L 192.013475 285.94846 
L 192.131974 286.623728 
L 192.133056 286.613269 
L 192.451759 287.977122 
L 192.453382 287.967344 
L 192.460957 287.943109 
L 192.528052 288.18901 
L 192.529135 288.178439 
L 192.646551 288.580583 
L 192.652503 288.54027 
L 192.790481 288.970852 
L 192.793728 288.936331 
L 192.79481 288.93107 
L 192.835933 289.059468 
L 192.841885 289.027674 
L 192.846755 289.0062 
L 192.960384 289.408811 
L 192.967959 289.378314 
L 193.050205 289.636699 
L 193.055616 289.621034 
L 193.312093 290.39619 
L 193.313716 290.366338 
L 193.314257 290.350708 
L 193.411654 290.678505 
L 193.4149 290.652888 
L 193.529612 290.973414 
L 193.53394 290.972599 
L 193.557207 290.9439 
L 193.634042 291.183889 
L 193.638912 291.15685 
L 193.756329 291.54336 
L 193.75687 291.500603 
L 193.766609 291.496845 
L 193.801239 291.634208 
L 193.930019 291.954442 
L 193.819636 291.626687 
L 193.931642 291.920863 
L 193.944087 291.89823 
L 194.02958 292.158243 
L 194.030662 292.148174 
L 194.152948 292.490314 
L 194.036073 292.131878 
L 194.155113 292.458521 
L 194.162688 292.440193 
L 194.254673 292.625757 
L 194.387782 292.894081 
L 194.256838 292.592621 
L 194.396439 292.872186 
L 194.397521 292.847258 
L 194.480308 293.048935 
L 194.50087 293.037183 
L 194.604759 293.213204 
L 194.507904 292.992165 
L 194.624239 293.20336 
L 194.638848 293.166353 
L 194.718388 293.375357 
L 194.72921 293.369345 
L 194.730292 293.345629 
L 194.805504 293.532617 
L 194.810915 293.519146 
L 194.914804 293.734532 
L 194.926708 293.717172 
L 194.934284 293.68406 
L 195.023023 293.841072 
L 195.034385 293.793841 
L 195.283287 294.205576 
L 195.283828 294.199774 
L 195.397999 294.379033 
L 195.297897 294.172823 
L 195.402868 294.370631 
L 195.403409 294.362135 
L 195.494313 294.543203 
L 195.505135 294.499262 
L 195.625257 294.689069 
L 195.506758 294.492161 
L 195.629585 294.662255 
L 195.634996 294.624788 
L 195.717783 294.786927 
L 195.735639 294.735261 
L 195.849268 294.876997 
L 195.757824 294.702973 
L 195.850892 294.855862 
L 195.953699 294.976965 
L 195.853597 294.843122 
L 195.965603 294.953334 
L 195.981295 294.915917 
L 196.037027 295.05941 
L 196.073821 295.014445 
L 196.076527 294.985879 
L 196.16256 295.094375 
L 196.169053 295.09444 
L 196.2816 295.198192 
L 196.171217 295.061312 
L 196.284305 295.1715 
L 196.379537 295.131095 
L 196.307572 295.228777 
L 196.395229 295.163393 
L 196.474228 295.274803 
L 196.417414 295.145247 
L 196.508858 295.269951 
L 196.520221 295.222484 
L 196.575953 295.328799 
L 196.6187 295.313663 
L 196.696076 295.274648 
L 196.673891 295.372537 
L 196.727459 295.344659 
L 196.806458 295.422415 
L 196.73774 295.320607 
L 196.839465 295.377844 
L 196.897361 295.483822 
L 196.841629 295.354974 
L 196.950929 295.406278 
L 197.04562 295.370537 
L 196.982854 295.466269 
L 197.060771 295.423589 
L 197.076463 295.443658 
L 197.125161 295.352192 
L 197.170071 295.391559 
L 197.277748 295.362484 
L 197.220934 295.488 
L 197.281536 295.381267 
L 197.302097 295.369471 
L 197.359453 295.472419 
L 197.389213 295.409754 
L 197.422761 295.487636 
L 197.408692 295.402143 
L 197.500678 295.462336 
L 197.579677 295.388335 
L 197.509335 295.480216 
L 197.611601 295.450847 
L 197.644608 295.465852 
L 197.679779 295.357735 
L 197.709539 295.39174 
L 197.788538 295.323053 
L 197.713327 295.426323 
L 197.821004 295.383444 
L 197.929763 295.432492 
L 197.851305 295.314873 
L 197.933009 295.399564 
L 198.021207 295.371446 
L 197.965475 295.471456 
L 198.03744 295.447493 
L 198.083433 295.45583 
L 198.075316 295.358802 
L 198.143494 295.407821 
L 198.22574 295.317644 
L 198.155398 295.437429 
L 198.2555 295.35985 
L 198.261452 295.394933 
L 198.311773 295.257477 
L 198.34478 295.294193 
L 198.382115 295.246828 
L 198.4043 295.346866 
L 198.455162 295.283181 
L 198.561216 295.346714 
L 198.495203 295.23135 
L 198.567168 295.333242 
L 198.680797 295.247514 
L 198.595305 295.336276 
L 198.681338 295.256333 
L 198.701359 295.308199 
L 198.759796 295.191583 
L 198.790097 295.222879 
L 198.884788 295.144409 
L 198.802001 295.286939 
L 198.908596 295.173644 
L 198.976233 295.228486 
L 198.921041 295.108802 
L 199.020061 295.180079 
L 199.100684 295.047444 
L 199.063889 295.200613 
L 199.133149 295.091904 
L 199.146135 295.117321 
L 199.217018 294.997933 
L 199.240826 295.031149 
L 199.344175 294.928826 
L 199.267881 295.045001 
L 199.352832 294.974835 
L 199.367441 295.001814 
L 199.460509 294.872212 
L 199.46105 294.878153 
L 199.57522 294.714922 
L 199.465379 294.89778 
L 199.578467 294.731279 
L 199.650432 294.688563 
L 199.579549 294.725453 
L 199.655302 294.639935 
L 199.655843 294.620682 
L 199.69426 294.763589 
L 199.76352 294.73008 
L 199.764061 294.745785 
L 199.864704 294.554654 
L 199.869033 294.567057 
L 199.970217 294.443896 
L 199.876608 294.569556 
L 199.984826 294.471919 
L 200.015668 294.529645 
L 200.087092 294.440645 
L 200.091962 294.44402 
L 200.20018 294.38525 
L 200.107113 294.476441 
L 200.203968 294.411909 
L 200.291084 294.434372 
L 200.265111 294.318792 
L 200.309481 294.393169 
L 200.415535 294.246738 
L 200.422569 294.268454 
L 200.426356 294.33957 
L 200.511849 294.139651 
L 200.525376 294.171642 
L 200.649286 293.99457 
L 200.532951 294.205677 
L 200.649827 294.005579 
L 200.663895 294.057148 
L 200.747223 293.919932 
L 200.757504 293.96747 
L 200.874921 293.78939 
L 200.76562 293.971114 
L 200.879249 293.800506 
L 200.881414 293.82733 
L 200.981516 293.657544 
L 200.986927 293.688076 
L 201.095686 293.551663 
L 201.011276 293.717132 
L 201.103802 293.560738 
L 201.22176 293.405693 
L 201.120576 293.587761 
L 201.223383 293.424614 
L 201.233123 293.436544 
L 201.32078 293.255312 
L 201.328355 293.313802 
L 201.439279 293.156503 
L 201.441984 293.203103 
L 201.442525 293.227608 
L 201.484189 293.061105 
L 201.550202 293.093131 
L 201.655715 292.877562 
L 201.674653 292.895213 
L 201.696297 292.929785 
L 201.753652 292.785772 
L 201.784495 292.853844 
L 201.79694 292.867943 
L 201.864576 292.689392 
L 201.868364 292.705179 
L 202.068567 292.425383 
L 201.885137 292.731132 
L 202.072896 292.480781 
L 202.088588 292.50239 
L 202.176785 292.285978 
L 202.178409 292.324083 
L 202.188689 292.329308 
L 202.29799 292.142987 
L 202.420817 291.999873 
L 202.301777 292.153273 
L 202.424064 292.032991 
L 202.44192 292.048779 
L 202.523625 291.886914 
L 202.529577 291.929487 
L 202.612364 291.688414 
L 202.649699 291.745535 
L 202.65024 291.756658 
L 202.753047 291.602407 
L 202.753588 291.611349 
L 202.857478 291.483786 
L 202.756294 291.612108 
L 202.866676 291.520242 
L 202.98247 291.300479 
L 202.867759 291.536215 
L 202.984634 291.317597 
L 202.985175 291.341334 
L 203.079866 291.115493 
L 203.091229 291.120145 
L 203.204858 290.985225 
L 203.097722 291.182604 
L 203.217844 290.99903 
L 203.238947 291.022372 
L 203.308207 290.848302 
L 203.326063 290.895177 
L 203.332015 290.90933 
L 203.407767 290.738332 
L 203.428329 290.763489 
L 203.433199 290.792015 
L 203.467828 290.654459 
L 203.480815 290.656582 
L 203.592279 290.458472 
L 203.490013 290.657257 
L 203.595526 290.481047 
L 203.596067 290.504324 
L 203.700497 290.266998 
L 203.702121 290.285645 
L 203.718353 290.313086 
L 203.807092 290.118792 
L 203.809257 290.139472 
L 203.818996 290.17767 
L 203.906653 290.043007 
L 203.916934 290.081589 
L 204.025152 289.872936 
L 203.92505 290.089198 
L 204.032727 289.883004 
L 204.038679 289.910806 
L 204.07872 289.759894 
L 204.089001 289.763667 
L 204.106316 289.810577 
L 204.215075 289.521647 
L 204.216698 289.564715 
L 204.299485 289.354655 
L 204.303814 289.355732 
L 204.389847 289.218041 
L 204.308143 289.395654 
L 204.417984 289.258335 
L 204.4261 289.297897 
L 204.522956 289.078433 
L 204.523497 289.079837 
L 204.643078 288.893867 
L 204.526743 289.103788 
L 204.64416 288.900496 
L 204.650112 288.937076 
L 204.745344 288.739896 
L 204.750214 288.759886 
L 204.853021 288.531116 
L 204.870336 288.555634 
L 204.873041 288.560308 
L 204.984506 288.303599 
L 205.100841 288.078282 
L 204.987212 288.325168 
L 205.105169 288.092348 
L 205.106793 288.10783 
L 205.173347 287.961254 
L 205.307537 287.662853 
L 205.185792 288.020945 
L 205.312407 287.677527 
L 205.312948 287.688409 
L 205.407639 287.513878 
L 205.415756 287.541299 
L 205.522892 287.242193 
L 205.53696 287.264937 
L 205.745821 286.849018 
L 205.540748 287.311412 
L 205.748527 286.866088 
L 205.749068 286.878486 
L 205.833478 286.644814 
L 205.850252 286.666537 
L 205.969833 286.381723 
L 205.851334 286.670125 
L 205.977949 286.393005 
L 205.979572 286.434002 
L 206.053161 286.214755 
L 206.060195 286.240929 
L 206.174365 285.948153 
L 206.064524 286.277888 
L 206.185728 285.986601 
L 206.192762 286.026868 
L 206.284207 285.762446 
L 206.287453 285.786279 
L 206.405411 285.527596 
L 206.292323 285.799911 
L 206.406493 285.555981 
L 206.532026 285.284915 
L 206.412986 285.575592 
L 206.555834 285.308398 
L 206.559081 285.329824 
L 206.654313 285.071795 
L 206.660265 285.102699 
L 206.660806 285.102948 
L 206.681908 285.002547 
L 206.682449 285.003355 
L 206.703552 285.028045 
L 206.797702 284.778594 
L 206.802031 284.821697 
L 206.890769 284.575669 
L 206.90592 284.580429 
L 207.027124 284.309152 
L 206.916201 284.601213 
L 207.028207 284.337691 
L 207.029289 284.34702 
L 207.052556 284.225155 
L 207.055261 284.228676 
L 207.184582 283.862512 
L 207.056884 284.25393 
L 207.185664 283.881235 
L 207.192698 283.920752 
L 207.28306 283.638249 
L 207.289012 283.650972 
L 207.290095 283.654211 
L 207.415628 283.301953 
L 207.431319 283.33493 
L 207.520599 283.195118 
L 207.648297 282.807692 
L 207.522764 283.233927 
L 207.661824 282.854345 
L 207.662365 282.871586 
L 207.763549 282.595837 
L 207.765172 282.608829 
L 207.823069 282.481292 
L 207.771124 282.646258 
L 207.82361 282.489143 
L 207.941568 282.260251 
L 207.836596 282.506976 
L 207.943191 282.273448 
L 207.946438 282.290794 
L 208.024896 282.061382 
L 208.02706 282.085508 
L 208.031389 282.105486 
L 208.1461 281.799113 
L 208.149347 281.855896 
L 208.251072 281.634401 
L 208.268928 281.650339 
L 208.36903 281.328311 
L 208.495645 281.023545 
L 208.372276 281.364059 
L 208.510255 281.056196 
L 208.510796 281.072062 
L 208.608733 280.766141 
L 208.611439 280.793676 
L 208.732643 280.471375 
L 208.733184 280.498127 
L 208.7413 280.53818 
L 208.78567 280.333185 
L 208.904169 280.048468 
L 208.906333 280.056796 
L 208.907956 280.099335 
L 209.000483 279.778035 
L 209.009681 279.789397 
L 209.141167 279.37393 
L 209.010764 279.789871 
L 209.153612 279.399091 
L 209.154153 279.4096 
L 209.249926 279.122173 
L 209.250467 279.124693 
L 209.387363 278.719663 
L 209.251549 279.136716 
L 209.388445 278.732342 
L 209.393315 278.763028 
L 209.458246 278.505022 
L 209.476102 278.529344 
L 209.610292 278.136985 
L 209.477184 278.552979 
L 209.612457 278.170033 
L 209.725004 277.885479 
L 209.620573 278.185734 
L 209.726086 277.893042 
L 209.844585 277.530253 
L 209.84729 277.563512 
L 209.994467 277.111055 
L 209.998255 277.139855 
L 210.072925 276.859828 
L 210.091322 276.885588 
L 210.210362 276.509055 
L 210.211985 276.510571 
L 210.216855 276.547349 
L 210.309382 276.302148 
L 210.315875 276.334156 
L 210.432209 275.901368 
L 210.434915 275.901525 
L 210.435997 275.921906 
L 210.523654 275.647529 
L 210.525277 275.652551 
L 210.723316 274.998871 
L 210.526359 275.65966 
L 210.723857 275.003292 
L 210.727645 275.011225 
L 210.808268 274.749673 
L 210.931095 274.378982 
L 210.94354 274.436797 
L 211.023081 274.18105 
L 211.026868 274.203628 
L 211.181079 273.744453 
L 211.027951 274.208842 
L 211.185949 273.749823 
L 211.19136 273.776974 
L 211.280099 273.47509 
L 211.287133 273.502116 
L 211.431063 272.949968 
L 211.435392 272.980053 
L 211.435933 272.987778 
L 211.524131 272.674005 
L 211.524672 272.677607 
L 211.654534 272.276916 
L 211.527919 272.689142 
L 211.656698 272.286585 
L 211.657239 272.291294 
L 211.73678 272.014679 
L 211.737321 272.026812 
L 211.867724 271.623177 
L 211.738403 272.030349 
L 211.868265 271.627806 
L 211.876922 271.648919 
L 211.971072 271.333172 
L 211.996503 271.278337 
L 211.99975 271.224168 
L 212.001914 271.257924 
L 212.073879 271.037475 
L 212.19346 270.647188 
L 212.083078 271.059907 
L 212.195625 270.682033 
L 212.316829 270.289817 
L 212.202659 270.689067 
L 212.318993 270.306997 
L 212.321158 270.331834 
L 212.398534 270.005051 
L 212.415849 270.016341 
L 212.533807 269.595966 
L 212.427212 270.03024 
L 212.541923 269.611481 
L 212.542464 269.620878 
L 212.631744 269.348971 
L 212.637696 269.358123 
L 212.761065 268.980934 
L 212.647977 269.362713 
L 212.763229 268.98544 
L 212.954775 268.189064 
L 212.765935 269.009819 
L 212.959645 268.206302 
L 213.176623 267.395723 
L 212.960727 268.219603 
L 213.179869 267.400169 
L 213.184198 267.427416 
L 213.283759 267.060531 
L 213.287005 267.079066 
L 213.377908 266.68947 
L 213.380073 266.707897 
L 213.896273 264.766424 
L 213.898979 264.803311 
L 213.900061 264.812802 
L 213.986636 264.427553 
L 213.987718 264.448414 
L 214.112169 264.021314 
L 213.989882 264.451123 
L 214.11271 264.037597 
L 214.113251 264.055858 
L 214.210647 263.625836 
L 214.211188 263.626515 
L 214.407604 262.919901 
L 214.222551 263.635254 
L 214.408687 262.935854 
L 214.411392 262.938248 
L 214.450351 262.742028 
L 214.452515 262.744903 
L 214.454679 262.764634 
L 214.602397 262.197467 
L 214.605644 262.213775 
L 214.694924 261.820203 
L 214.699252 261.850431 
L 214.700876 261.85183 
L 214.822621 261.313585 
L 214.982243 260.669628 
L 214.828573 261.32645 
L 214.983325 260.676718 
L 214.983866 260.678106 
L 215.034188 260.513993 
L 215.036893 260.516136 
L 215.164591 260.023517 
L 215.166755 260.02946 
L 215.196515 259.897691 
L 215.201926 259.900133 
L 215.329082 259.272603 
L 215.205713 259.908025 
L 215.331788 259.304797 
L 215.332329 259.318588 
L 215.42215 258.856318 
L 215.425396 258.861861 
L 215.573655 258.26581 
L 215.42702 258.873687 
L 215.577443 258.282939 
L 215.577984 258.286165 
L 215.638586 257.992522 
L 215.639668 258.002426 
L 215.761955 257.479289 
L 215.762496 257.487814 
L 215.892899 256.897678 
L 215.89344 256.930172 
L 215.896687 256.930973 
L 215.909132 256.821864 
L 215.910755 256.827091 
L 216.034124 256.23863 
L 216.038452 256.258881 
L 216.343628 254.688084 
L 216.040617 256.27546 
L 216.344169 254.692427 
L 216.463209 253.949811 
L 216.466996 253.970498 
L 216.6672 252.840073 
L 216.670988 252.844633 
L 216.673152 252.864247 
L 216.762432 252.31978 
L 216.915561 251.344916 
L 216.766761 252.332458 
L 216.916102 251.367177 
L 216.916643 251.376746 
L 216.99943 250.874565 
L 217.139572 249.97166 
L 217.002135 250.884757 
L 217.140113 249.976786 
L 217.141196 250.024283 
L 217.23751 249.389297 
L 217.405248 248.279488 
L 217.24238 249.398017 
L 217.40633 248.284486 
L 217.406871 248.306015 
L 217.498316 247.553297 
L 217.64441 246.355061 
L 217.644951 246.365661 
L 217.702307 245.881426 
L 217.866257 244.325778 
L 217.705012 245.881719 
L 217.866799 244.334988 
L 217.86734 244.356161 
L 217.954455 243.422812 
L 217.956079 243.423456 
L 218.18009 240.537011 
L 218.180631 240.539554 
L 218.206604 240.141365 
L 218.207686 240.148768 
L 218.826153 219.147565 
L 218.931124 192.370555 
L 218.957638 67.184334 
L 218.963049 56.166688 
L 219.045836 171.307384 
L 219.276881 242.310691 
L 219.371031 244.248675 
L 219.486825 243.548685 
L 219.697309 240.6085 
L 219.698932 240.631771 
L 219.776849 239.428814 
L 219.777391 239.449725 
L 220.25842 225.93735 
L 220.432652 204.26889 
L 220.471069 156.175177 
L 220.48622 56.096821 
L 220.578205 176.580049 
L 220.802758 242.721488 
L 220.914223 244.637522 
L 220.939654 244.45592 
L 221.042461 243.388804 
L 221.232925 240.733864 
L 221.233466 240.736383 
L 221.777804 226.091274 
L 221.925521 211.702926 
L 221.989911 171.189738 
L 222.008849 56.268596 
L 222.099212 175.621544 
L 222.331881 242.782099 
L 222.435229 244.368807 
L 222.485009 244.049313 
L 222.486633 244.053376 
L 222.791267 239.738289 
L 222.791808 239.764379 
L 222.872431 238.297015 
L 223.119709 232.220859 
L 223.252817 226.716294 
L 223.428131 207.985635 
L 223.478452 159.595559 
L 223.494144 56.180627 
L 223.586129 176.506508 
L 223.826915 243.393988 
L 223.911866 244.555668 
L 223.987619 244.020203 
L 224.050385 243.227965 
L 224.230569 240.381157 
L 224.506525 234.475224 
L 224.874467 210.867804 
L 224.932905 175.263165 
L 224.953466 56.10079 
L 225.043287 175.696106 
L 225.266217 242.676416 
L 225.363072 244.628953 
L 225.404195 244.450194 
L 225.471831 243.770283 
L 225.407983 244.458027 
L 225.472372 243.777311 
L 225.623878 241.316449 
L 225.65959 240.717677 
L 225.88306 236.083893 
L 225.883601 236.087373 
L 225.906327 235.519377 
L 226.015628 232.365002 
L 226.323508 207.563472 
L 226.36896 171.743933 
L 226.387898 55.974151 
L 226.47826 175.987465 
L 226.704977 243.077885 
L 226.806161 244.724032 
L 226.873257 244.233633 
L 226.884079 244.110503 
L 226.885161 244.116678 
L 227.071296 241.144568 
L 227.621585 224.116965 
L 227.749824 208.408095 
L 227.799604 167.28354 
L 227.81746 55.827629 
L 227.907823 176.324948 
L 228.132916 243.203733 
L 228.228148 244.919833 
L 228.274682 244.691416 
L 228.275764 244.697804 
L 228.984052 227.852389 
L 229.124736 217.047189 
L 229.217263 184.580534 
L 229.242153 55.798462 
L 229.333056 176.501376 
L 229.56302 243.5608 
L 229.567889 243.707841 
L 229.644724 244.923312 
L 229.691799 244.702756 
L 229.716148 244.398902 
L 229.692881 244.706443 
L 229.718854 244.420419 
L 229.875229 241.917457 
L 229.876852 241.924571 
L 229.889839 241.649467 
L 230.252369 233.027755 
L 230.396841 226.963467 
L 230.497484 219.578042 
L 230.598127 198.155163 
L 230.626263 127.259336 
L 230.638167 55.809263 
L 230.732317 178.448441 
L 230.955247 243.363823 
L 231.043985 244.927338 
L 231.098636 244.59185 
L 231.100259 244.592842 
L 231.302086 241.406949 
L 231.302627 241.421545 
L 231.365393 240.121832 
L 231.365935 240.12481 
L 231.390825 239.647078 
L 231.688425 231.645707 
L 231.75065 229.053246 
L 231.940032 213.572964 
L 232.007668 185.335502 
L 232.0331 55.678556 
L 232.124003 176.657379 
L 232.346932 243.28082 
L 232.447034 244.958748 
L 232.475171 244.776772 
L 232.876119 237.487668 
L 233.356608 206.733015 
L 233.401519 162.21595 
L 233.418292 55.788057 
L 233.509196 176.664582 
L 233.730502 243.060491 
L 233.834391 244.787283 
L 233.864151 244.584449 
L 233.865233 244.587631 
L 233.879302 244.456903 
L 234.048663 241.702992 
L 234.049204 241.705819 
L 234.07193 241.233869 
L 234.073553 241.241132 
L 234.521577 228.356189 
L 234.738013 202.16008 
L 234.772643 142.760208 
L 234.78617 55.665637 
L 234.879238 177.968926 
L 235.10866 243.733048 
L 235.180625 244.966036 
L 235.253132 244.549538 
L 235.419788 241.809439 
L 235.911098 227.179817 
L 236.111843 198.980427 
L 236.141062 130.047351 
L 236.152966 55.471197 
L 236.247116 178.690306 
L 236.46734 243.624797 
L 236.551209 245.13217 
L 236.610729 244.74219 
L 236.612352 244.746206 
L 236.821754 241.235779 
L 236.822295 241.238909 
L 236.846103 240.75433 
L 236.846644 240.756576 
L 237.043601 236.190677 
L 237.224326 230.057731 
L 237.389359 219.388655 
L 237.481344 201.06074 
L 237.513809 138.560609 
L 237.526796 55.424659 
L 237.620404 178.675579 
L 237.849827 244.189653 
L 237.929367 245.388372 
L 237.976442 245.152788 
L 238.224803 240.995047 
L 238.730182 223.195785 
L 238.879523 192.515308 
L 238.906036 66.379257 
L 238.911447 55.531526 
L 238.993693 171.885583 
L 239.218787 243.316191 
L 239.303197 245.151448 
L 239.374621 244.731296 
L 239.641379 239.874531 
L 239.64192 239.876639 
L 239.658694 239.523416 
L 239.835089 234.930418 
L 239.836172 234.935467 
L 240.065053 225.180773 
L 240.205196 208.624703 
L 240.254976 169.591583 
L 240.273373 55.49399 
L 240.363735 176.619448 
L 240.58937 243.671191 
L 240.589911 243.666524 
L 240.610473 244.444075 
L 240.611014 244.43566 
L 240.673239 245.15408 
L 240.734383 244.697464 
L 240.736547 244.713341 
L 241.122886 237.02041 
L 241.123427 237.04174 
L 241.188358 235.25892 
L 241.561711 209.96822 
L 241.617443 168.450914 
L 241.635299 55.531321 
L 241.726202 176.85514 
L 241.954001 243.79382 
L 242.044905 245.187099 
L 242.089274 244.79091 
L 242.130938 244.357682 
L 242.289478 241.452322 
L 242.890089 214.799765 
L 242.963677 186.581981 
L 242.989649 55.42374 
L 243.081094 177.17019 
L 243.313222 244.05525 
L 243.385728 245.257721 
L 243.440378 244.903548 
L 243.511261 243.87331 
L 243.68928 240.4519 
L 243.689821 240.456346 
L 243.690362 240.458539 
L 243.7093 240.080852 
L 244.129728 225.595338 
L 244.281775 207.053554 
L 244.325603 169.92775 
L 244.344 55.451809 
L 244.434362 176.625886 
L 244.657833 243.605307 
L 244.7509 245.154814 
L 244.801222 244.77188 
L 244.981405 241.690045 
L 245.289286 233.862978 
L 245.559831 218.715704 
L 245.657228 193.826189 
L 245.682659 85.479326 
L 245.690775 55.503793 
L 245.783302 177.952481 
L 246.011642 243.918653 
L 246.088477 245.170309 
L 246.143127 244.795807 
L 246.144751 244.797097 
L 246.579788 235.522847 
L 246.975866 204.755255 
L 247.015907 152.983793 
L 247.030516 55.466627 
L 247.123043 177.745331 
L 247.351924 243.905751 
L 247.424431 245.186893 
L 247.490985 244.778638 
L 247.492067 244.786592 
L 247.790749 239.229558 
L 247.955782 234.846837 
L 248.067247 230.841213 
L 248.218752 222.135822 
L 248.349155 195.282909 
L 248.375127 98.391764 
L 248.384326 55.253039 
L 248.478476 179.126274 
L 248.703028 244.147037 
L 248.782028 245.443072 
L 248.843712 244.956479 
L 249.009827 242.041042 
L 249.273879 235.641071 
L 249.443241 229.371542 
L 249.682403 200.13923 
L 249.713786 130.136085 
L 249.72569 55.366892 
L 249.81984 178.876091 
L 250.047098 244.067218 
L 250.047639 244.054622 
L 250.124474 245.238854 
L 250.175337 244.923942 
L 250.185076 244.797344 
L 250.188323 244.805325 
L 250.463738 239.698961 
L 250.464279 239.699129 
L 250.467526 239.594439 
L 250.990761 212.750765 
L 251.058397 174.480093 
L 251.078417 55.378471 
L 251.168239 176.558491 
L 251.40686 244.233893 
L 251.482071 245.170812 
L 251.531311 244.823708 
L 251.533475 244.841848 
L 251.606522 243.742179 
L 251.607063 243.748111 
L 251.650351 243.007847 
L 252.133545 229.71448 
L 252.353228 209.324194 
L 252.406796 165.730978 
L 252.424111 55.415698 
L 252.515014 177.011202 
L 252.749306 244.097774 
L 252.826141 245.233725 
L 252.873757 244.87308 
L 252.874298 244.873237 
L 252.880791 244.764025 
L 252.881332 244.773274 
L 253.601524 221.639627 
L 253.729763 192.379115 
L 253.754653 74.928698 
L 253.761146 55.326099 
L 253.850967 176.365946 
L 254.082013 244.09924 
L 254.160471 245.293966 
L 254.210252 245.000054 
L 254.370956 242.212176 
L 254.371497 242.236827 
L 254.447791 240.669251 
L 254.985635 216.660518 
L 255.076538 180.030329 
L 255.098723 55.39848 
L 255.189085 176.661442 
L 255.418508 243.998318 
L 255.487767 245.251854 
L 255.554863 244.83835 
L 255.783203 240.538533 
L 255.784285 240.543125 
L 255.799977 240.180325 
L 255.969338 235.972211 
L 255.969879 235.975478 
L 255.987194 235.429881 
L 255.987735 235.430113 
L 256.352431 211.511765 
L 256.411951 178.128623 
L 256.433053 55.407698 
L 256.523415 176.549261 
L 256.744721 243.611331 
L 256.823721 245.246776 
L 256.884864 244.879865 
L 257.623453 221.513866 
L 257.742493 198.037059 
L 257.771171 116.403002 
L 257.781993 55.282325 
L 257.876684 179.421417 
L 258.106106 244.275595 
L 258.195927 245.346948 
L 258.244084 244.883679 
L 258.468096 240.849331 
L 258.468637 240.85555 
L 258.469178 240.856816 
L 258.479459 240.607171 
L 258.938845 224.131635 
L 259.061132 209.036302 
L 259.111994 171.281398 
L 259.130932 55.3594 
L 259.221295 176.866852 
L 259.455046 244.254997 
L 259.530257 245.329394 
L 259.580038 245.033161 
L 259.740742 242.291647 
L 259.741283 242.298388 
L 259.781324 241.416467 
L 260.339188 218.864889 
L 260.441996 189.877384 
L 260.471215 55.338587 
L 260.563741 178.194765 
L 260.789376 243.957956 
L 260.861882 245.280812 
L 260.915991 244.997254 
L 260.916532 244.998505 
L 260.932765 244.772045 
L 260.935471 244.7827 
L 261.163811 240.614406 
L 261.164352 240.63016 
L 261.226577 239.211844 
L 261.700032 216.877331 
L 261.784442 191.428919 
L 261.809873 65.596395 
L 261.814743 55.39253 
L 261.896448 171.439 
L 262.125329 243.512953 
L 262.211904 245.190888 
L 262.28441 244.604421 
L 262.927767 226.307327 
L 263.113903 198.055406 
L 263.14258 117.5974 
L 263.153402 55.401927 
L 263.248093 179.205357 
L 263.46994 243.816871 
L 263.550022 245.222237 
L 263.619823 244.768563 
L 263.860067 240.285878 
L 263.860608 240.302607 
L 263.924457 238.863905 
L 264.421178 210.727337 
L 264.480157 169.578605 
L 264.498554 55.406511 
L 264.588916 176.678001 
L 264.808599 243.479903 
L 264.900044 245.174344 
L 264.936297 244.948249 
L 265.250671 239.105579 
L 265.668393 222.536123 
L 265.804748 194.500963 
L 265.83072 87.962244 
L 265.838836 55.329392 
L 265.931904 178.331995 
L 266.154833 243.904215 
L 266.234915 245.23238 
L 266.295517 244.854625 
L 266.322572 244.507863 
L 266.482735 241.586955 
L 266.655343 237.621569 
L 266.852841 231.235936 
L 267.081722 214.324138 
L 267.153687 184.623935 
L 267.178577 55.436927 
L 267.269481 177.022412 
L 267.508102 244.234811 
L 267.582231 245.235993 
L 267.630929 244.929442 
L 267.660148 244.609347 
L 267.632012 244.935791 
L 267.660689 244.614729 
L 267.85927 240.867902 
L 267.964241 238.441466 
L 268.179055 231.930714 
L 268.373847 220.511954 
L 268.473949 201.788972 
L 268.508038 137.659106 
L 268.520483 55.193642 
L 268.614633 178.97943 
L 268.833233 243.897447 
L 268.91602 245.431216 
L 268.973376 245.093388 
L 269.224442 240.51126 
L 269.375407 236.882095 
L 269.812067 205.238804 
L 269.852649 157.888311 
L 269.86834 55.385023 
L 269.959785 177.458945 
L 270.183796 243.755482 
L 270.184337 243.745981 
L 270.227084 244.936996 
L 270.263337 245.245454 
L 270.326644 244.738183 
L 270.327185 244.745257 
L 270.613964 239.177022 
L 270.328809 244.756309 
L 270.614505 239.183289 
L 270.630196 238.793609 
L 271.116637 213.033004 
L 271.179404 186.692975 
L 271.205917 55.445767 
L 271.297361 177.321139 
L 271.530031 244.03716 
L 271.592797 245.111844 
L 271.67342 244.545723 
L 271.673961 244.551708 
L 271.721036 243.849916 
L 271.722118 243.852853 
L 272.192326 231.932364 
L 272.478563 205.653135 
L 272.520768 155.728582 
L 272.535919 55.402054 
L 272.627904 177.626864 
L 272.853539 243.86547 
L 272.861114 244.109365 
L 272.929833 245.144473 
L 272.984483 244.822789 
L 273.663011 225.139865 
L 273.83616 193.768064 
L 273.862132 79.47102 
L 273.869167 55.436739 
L 273.960611 177.189819 
L 274.188951 243.921651 
L 274.272279 245.199531 
L 274.347491 244.470534 
L 274.543907 240.810951 
L 274.820945 233.427695 
L 274.821487 233.430624 
L 274.835014 232.904184 
L 274.920506 229.43329 
L 275.065519 219.703472 
L 275.153716 203.32817 
L 275.190511 146.930785 
L 275.204579 55.315235 
L 275.297105 178.173978 
L 275.517329 243.841418 
L 275.610397 245.310851 
L 275.653684 245.003332 
L 276.328966 225.895082 
L 276.467485 211.099483 
L 276.526464 174.756335 
L 276.546484 55.315531 
L 276.636305 176.553768 
L 276.86681 244.09111 
L 276.938775 245.268033 
L 277.011823 244.756127 
L 277.013987 244.759151 
L 277.187136 241.71476 
L 277.328361 238.516875 
L 277.340806 238.202918 
L 277.595119 229.909531 
L 277.857548 193.249423 
L 277.884061 70.689209 
L 277.890013 55.314245 
L 277.977129 174.860011 
L 278.204387 243.801202 
L 278.296913 245.337959 
L 278.338036 245.068299 
L 278.519843 241.959962 
L 278.340201 245.074937 
L 278.520925 241.971472 
L 278.526336 241.851211 
L 278.846121 233.832787 
L 278.904017 231.746294 
L 279.169152 209.592974 
L 279.220556 176.178221 
L 279.241117 55.324329 
L 279.330938 176.485973 
L 279.560902 243.98644 
L 279.628538 245.18803 
L 279.684271 244.895415 
L 279.686435 244.898739 
L 279.695633 244.779388 
L 279.696716 244.780476 
L 279.949946 239.970259 
L 279.950487 239.973955 
L 279.974836 239.379472 
L 280.328169 227.828951 
L 280.547852 192.468061 
L 280.573824 68.872102 
L 280.579235 55.476849 
L 280.664727 173.62964 
L 280.892527 243.529617 
L 280.980724 245.090572 
L 281.023471 244.803836 
L 281.024012 244.810584 
L 281.077039 244.087755 
L 281.078662 244.084894 
L 281.082991 243.984237 
L 281.083532 243.99052 
L 281.387625 237.54281 
L 281.388166 237.551826 
L 281.644643 228.700885 
L 281.843764 209.079678 
L 281.896791 163.790907 
L 281.913565 55.423995 
L 282.004468 176.914581 
L 282.232809 243.928054 
L 282.313972 245.205477 
L 282.361047 244.918782 
L 282.361588 244.924064 
L 282.408663 244.320873 
L 282.605079 240.602189 
L 282.60562 240.611154 
L 282.606703 240.614604 
L 282.644579 239.79356 
L 282.930275 231.398972 
L 283.167814 213.508094 
L 283.235991 182.928299 
L 283.259799 55.392562 
L 283.350161 176.683482 
L 283.574714 243.731799 
L 283.64722 245.168376 
L 283.701329 244.933474 
L 284.404207 224.115588 
L 284.560041 195.442029 
L 284.587095 90.358904 
L 284.595212 55.445866 
L 284.68882 178.315844 
L 284.90688 243.508881 
L 284.990208 245.264941 
L 285.031331 245.053529 
L 285.737996 224.572335 
L 285.891124 200.509436 
L 285.923049 132.633066 
L 285.935494 55.348207 
L 286.029103 178.772965 
L 286.254737 243.939922 
L 286.334278 245.22816 
L 286.380812 244.916856 
L 286.381894 244.92574 
L 286.437085 244.181907 
L 286.438167 244.183499 
L 286.704384 238.676087 
L 286.731439 237.985486 
L 286.705466 238.691354 
L 286.73198 237.986492 
L 287.098839 222.788986 
L 287.197859 210.03595 
L 287.250345 178.367451 
L 287.271988 55.336117 
L 287.361809 176.568319 
L 287.591232 243.97221 
L 287.66969 245.247555 
L 287.720553 244.896756 
L 287.721094 244.904375 
L 287.777367 244.171831 
L 287.778449 244.179745 
L 287.948893 240.82896 
L 288.446156 222.006353 
L 288.576017 194.861682 
L 288.601449 99.872934 
L 288.610647 55.545605 
L 288.705338 178.95945 
L 288.925021 243.488176 
L 289.009431 245.0023 
L 289.061917 244.698076 
L 289.416873 237.539314 
L 289.817821 217.771137 
L 289.913594 186.183396 
L 289.939567 55.317286 
L 290.03047 177.125659 
L 290.264762 244.278997 
L 290.295604 244.992219 
L 290.333481 245.330171 
L 290.401117 244.845559 
L 290.402199 244.864022 
L 290.592663 241.438635 
L 290.593204 241.449555 
L 290.594287 241.454826 
L 290.676532 239.594072 
L 291.163514 217.559848 
L 291.251712 192.839422 
L 291.277684 71.456702 
L 291.283636 55.377682 
L 291.371293 174.953923 
L 291.595846 243.564589 
L 291.681338 245.201035 
L 291.72192 244.938086 
L 291.866932 242.700659 
L 291.95026 241.049666 
L 292.161286 235.822926 
L 292.19321 234.854543 
L 292.512454 216.050234 
L 292.599028 178.803707 
L 292.620672 55.202002 
L 292.710493 176.662679 
L 292.935587 244.079362 
L 292.956689 244.743577 
L 293.016209 245.484968 
L 293.081681 245.068506 
L 293.238598 242.489928 
L 293.239139 242.495099 
L 293.288378 241.456457 
L 293.675799 230.11717 
L 293.833257 219.900827 
L 293.920913 204.537069 
L 293.959872 154.805227 
L 293.975023 55.339592 
L 294.067008 177.709169 
L 294.282362 243.383259 
L 294.371101 245.237184 
L 294.420881 244.901322 
L 294.678982 240.129304 
L 294.679523 240.134194 
L 294.709283 239.404336 
L 294.911651 233.843704 
L 295.217908 213.297624 
L 295.287168 178.200381 
L 295.308812 55.39651 
L 295.398633 176.551111 
L 295.632925 244.18472 
L 295.703808 245.282633 
L 295.756835 244.924916 
L 295.757917 244.934789 
L 296.432116 225.776407 
L 296.599855 201.846911 
L 296.633943 140.070819 
L 296.646929 55.347784 
L 296.740538 178.582112 
L 296.964009 243.886709 
L 297.051124 245.241297 
L 297.10848 244.775809 
L 297.750214 226.900509 
L 297.923904 206.49861 
L 297.967191 164.168624 
L 297.983965 55.379975 
L 298.074868 176.954979 
L 298.293469 243.56556 
L 298.375174 245.302867 
L 298.421167 245.069293 
L 298.422249 245.091591 
L 298.468241 244.496469 
L 298.468783 244.498399 
L 298.7653 238.515713 
L 298.971997 232.379986 
L 299.024483 230.249536 
L 299.223063 215.450961 
L 299.299357 188.738239 
L 299.327494 55.368323 
L 299.419479 177.783823 
L 299.647279 244.055229 
L 299.721949 245.26309 
L 299.778223 244.963453 
L 300.502743 222.500991 
L 300.631523 198.765396 
L 300.661283 119.178982 
L 300.672105 55.362846 
L 300.766796 179.214765 
L 300.988102 243.886476 
L 301.068183 245.289767 
L 301.159087 244.500354 
L 301.824087 223.779028 
L 301.965853 200.609821 
L 301.998319 129.251657 
L 302.010223 55.351729 
L 302.104372 178.94351 
L 302.329466 244.054694 
L 302.407924 245.260408 
L 302.491793 244.571297 
L 302.685504 240.894931 
L 302.686045 240.899356 
L 302.686586 240.907645 
L 302.729873 239.874915 
L 303.252567 214.048057 
L 303.324532 182.241563 
L 303.347799 55.508101 
L 303.438161 176.443841 
L 303.667043 243.779549 
L 303.689769 244.512657 
L 303.69031 244.492769 
L 303.74009 245.064774 
L 303.803398 244.659656 
L 303.80448 244.672545 
L 303.82937 244.347868 
L 303.829911 244.35758 
L 304.001978 241.248234 
L 304.002519 241.25417 
L 304.03769 240.443267 
L 304.579863 214.67747 
L 304.655075 183.093662 
L 304.678883 55.430185 
L 304.769245 176.552418 
L 304.991092 243.593363 
L 305.075503 245.133197 
L 305.142057 244.689675 
L 305.325487 241.434903 
L 305.326569 241.451126 
L 305.375267 240.478102 
L 305.935837 211.433142 
L 305.994816 178.275042 
L 306.015919 55.396086 
L 306.106281 176.540961 
L 306.33408 243.89184 
L 306.415244 245.235235 
L 306.462319 244.929465 
L 306.463401 244.943155 
L 306.646831 241.828143 
L 306.908719 235.543027 
L 307.26638 213.848957 
L 307.336721 181.954633 
L 307.359988 55.293525 
L 307.450351 176.848982 
L 307.675444 243.826592 
L 307.752279 245.269548 
L 307.805306 245.028561 
L 307.87186 244.153818 
L 308.06503 240.293387 
L 308.341527 232.624876 
L 308.342068 232.627822 
L 308.356137 232.110012 
L 308.640209 207.790057 
L 308.686202 171.297887 
L 308.70514 55.336911 
L 308.795503 176.859845 
L 309.025466 244.034867 
L 309.092561 245.209297 
L 309.153705 244.886746 
L 309.155328 244.897059 
L 309.518941 237.657031 
L 309.968047 210.653943 
L 310.021615 182.119903 
L 310.044881 55.380691 
L 310.135244 176.700978 
L 310.351139 243.361916 
L 310.432303 245.250914 
L 310.502103 244.80995 
L 311.06592 230.877103 
L 311.295884 212.642786 
L 311.360815 179.069524 
L 311.382458 55.415154 
L 311.47282 176.563781 
L 311.70062 243.811751 
L 311.780701 245.202795 
L 311.847796 244.677501 
L 312.025815 241.515864 
L 312.026356 241.525823 
L 312.076137 240.404635 
L 312.076678 240.415547 
L 312.274176 235.300854 
L 312.376983 231.837057 
L 312.461935 227.959506 
L 312.570694 220.373807 
L 312.675124 199.059095 
L 312.704884 124.553369 
L 312.716247 55.273089 
L 312.810938 179.311116 
L 313.033327 243.889697 
L 313.107456 245.353305 
L 313.169681 244.934477 
L 313.907188 221.047421 
L 314.028393 192.448269 
L 314.055447 62.84053 
L 314.059776 55.207587 
L 314.137152 168.944089 
L 314.371444 243.903949 
L 314.456937 245.504165 
L 314.508881 245.159597 
L 314.651729 242.864434 
L 314.672291 242.498961 
L 314.869248 238.126407 
L 314.878988 237.865146 
L 314.955823 235.764303 
L 315.141958 228.784768 
L 315.29184 217.742725 
L 315.38112 193.139274 
L 315.406551 77.883677 
L 315.413585 55.453906 
L 315.503948 176.608474 
L 315.727959 243.555487 
L 315.796137 245.000401 
L 315.876218 244.603633 
L 315.876759 244.603777 
L 315.883252 244.496171 
L 316.178147 238.57738 
L 316.179229 238.59731 
L 316.17977 238.603076 
L 316.213318 237.779763 
L 316.372399 233.011641 
L 316.460596 229.482974 
L 316.706252 197.923457 
L 316.734929 115.093603 
L 316.745751 55.357534 
L 316.840442 179.337245 
L 317.05742 243.614501 
L 317.140207 245.165394 
L 317.206761 244.66779 
L 317.207843 244.671187 
L 317.229487 244.367614 
L 317.230028 244.381051 
L 317.431855 240.548885 
L 317.432937 240.552534 
L 317.819817 228.379932 
L 318.037876 199.712777 
L 318.068177 132.160157 
L 318.080081 55.300443 
L 318.174231 178.852756 
L 318.398784 244.005538 
L 318.399325 244.000941 
L 318.424215 244.738785 
L 318.473996 245.270548 
L 318.536762 244.864074 
L 318.721274 241.620111 
L 318.721815 241.626451 
L 318.761315 240.783355 
L 319.208256 225.721382 
L 319.363008 206.378193 
L 319.405213 166.5709 
L 319.422528 55.391407 
L 319.513431 176.933333 
L 319.739066 243.753611 
L 319.813737 245.133089 
L 319.866223 244.891488 
L 319.920873 244.171781 
L 320.106467 240.717958 
L 320.280157 236.367902 
L 320.596154 221.900739 
L 320.722769 195.974214 
L 320.748742 110.98328 
L 320.759023 55.361343 
L 320.853713 179.288624 
L 321.078266 243.826144 
L 321.078807 243.821776 
L 321.175121 245.176385 
L 321.203799 244.879862 
L 321.674007 234.651206 
L 322.057641 197.038049 
L 322.085236 110.254309 
L 322.095517 55.360863 
L 322.190208 179.303867 
L 322.403939 243.554553 
L 322.494301 245.288625 
L 322.546787 244.954117 
L 322.547328 244.95497 
L 322.561937 244.781805 
L 322.925551 237.352259 
L 323.022406 234.634038 
L 323.239383 224.854741 
L 323.384396 205.672781 
L 323.426601 156.757759 
L 323.441751 55.40081 
L 323.533737 177.520355 
L 323.759372 243.783601 
L 323.759913 243.780924 
L 323.849734 245.082285 
L 323.898432 244.651668 
L 324.014767 242.879779 
L 324.251223 237.558199 
L 324.541248 226.947616 
L 324.674897 215.010945 
L 324.75065 185.012857 
L 324.77554 55.361255 
L 324.866444 176.880367 
L 325.088832 243.729736 
L 325.190016 245.319173 
L 325.237091 244.864828 
L 325.237632 244.866221 
L 325.258193 244.627177 
L 325.510342 239.646278 
L 325.510883 239.648101 
L 325.640204 236.271699 
L 325.842031 229.010171 
L 325.913455 225.039111 
L 326.05522 207.416329 
L 326.101754 164.087966 
L 326.118528 55.386123 
L 326.209431 177.025047 
L 326.428573 243.513162 
L 326.520017 245.212381 
L 326.570339 244.897887 
L 326.923671 237.911557 
L 327.378188 211.348315 
L 327.43879 173.796627 
L 327.458269 55.331665 
L 327.548631 176.756701 
L 327.767232 243.591426 
L 327.853807 245.27953 
L 327.916032 244.831991 
L 327.917114 244.837899 
L 328.322391 236.319121 
L 328.73362 209.325358 
L 328.785024 173.073646 
L 328.804503 55.35546 
L 328.894865 176.777828 
L 329.124288 243.926411 
L 329.196253 245.161821 
L 329.25415 244.775546 
L 329.255232 244.795981 
L 329.275793 244.577802 
L 329.481949 240.717087 
L 329.48249 240.722629 
L 329.483031 240.738667 
L 329.545798 239.325653 
L 329.918068 226.174243 
L 329.918609 226.179693 
L 330.083642 205.788578 
L 330.126929 151.242788 
L 330.141539 55.341716 
L 330.234065 178.124673 
L 330.455372 243.781709 
L 330.523549 245.281387 
L 330.607418 244.750637 
L 330.6085 244.751274 
L 330.719965 242.921507 
L 330.933696 238.316006 
L 330.934237 238.319026 
L 331.10414 233.447209 
L 331.381178 215.84293 
L 331.466129 179.553637 
L 331.488314 55.347907 
L 331.578135 176.532245 
L 331.800524 243.665423 
L 331.882228 245.265464 
L 331.931468 244.968365 
L 331.955276 244.717037 
L 332.303197 237.63219 
L 332.303738 237.636606 
L 332.327546 236.950223 
L 332.518551 230.493714 
L 332.605667 226.023282 
L 332.723084 215.147079 
L 332.797754 188.332444 
L 332.82535 55.334988 
L 332.917335 177.656908 
L 333.145676 243.983199 
L 333.223052 245.214663 
L 333.277702 244.839258 
L 333.278243 244.846902 
L 333.336681 244.100102 
L 333.366441 243.55667 
L 333.366982 243.558743 
L 333.540672 240.043358 
L 333.890758 229.057985 
L 334.075811 213.565561 
L 334.142365 185.572073 
L 334.167796 55.356084 
L 334.2587 177.018125 
L 334.481088 243.729474 
L 334.561169 245.236849 
L 334.61095 244.932932 
L 335.197492 230.48191 
L 335.447476 205.927435 
L 335.489681 160.319707 
L 335.505914 55.386579 
L 335.597359 177.432671 
L 335.82137 243.857498 
L 335.912273 245.257212 
L 335.964759 244.791937 
L 336.388433 235.79406 
L 336.806697 198.570845 
L 336.835375 127.185464 
L 336.847279 55.360765 
L 336.941428 179.060836 
L 337.168145 244.147314 
L 337.239028 245.318309 
L 337.303959 244.89037 
L 337.491177 241.736553 
L 337.491718 241.745446 
L 337.84505 232.198541 
L 338.132369 206.972152 
L 338.178362 159.423399 
L 338.194054 55.438192 
L 338.286039 177.514858 
L 338.508428 243.669697 
L 338.523578 244.244657 
L 338.596084 245.168108 
L 338.6437 244.854356 
L 338.644783 244.862673 
L 338.676166 244.439316 
L 338.676707 244.443912 
L 338.882863 240.521035 
L 338.883404 240.521226 
L 339.383372 220.557835 
L 339.484015 201.836924 
L 339.518103 140.277411 
L 339.531089 55.463604 
L 339.624698 178.445873 
L 339.84871 243.823556 
L 339.927709 245.204686 
L 339.981818 244.916747 
L 340.216652 240.745985 
L 340.344349 237.68706 
L 340.717161 221.218593 
L 340.836742 195.19984 
L 340.862173 104.156801 
L 340.871913 55.366432 
L 340.966604 179.315518 
L 341.191697 243.988422 
L 341.192239 243.982984 
L 341.221457 244.796424 
L 341.275025 245.239148 
L 341.332922 244.821424 
L 341.334004 244.832197 
L 341.593728 239.978795 
L 342.132113 211.596578 
L 342.192175 178.149197 
L 342.213277 55.309266 
L 342.303639 176.711075 
L 342.539014 244.266771 
L 342.539555 244.263404 
L 342.560657 244.831933 
L 342.606109 245.287914 
L 342.673204 244.864502 
L 342.757073 243.54707 
L 342.758156 243.554275 
L 342.896675 240.694296 
L 343.441553 216.020392 
L 343.525964 183.728601 
L 343.550313 55.428615 
L 343.641216 177.002619 
L 343.864687 243.699271 
L 343.949638 245.196703 
L 344.027014 244.49726 
L 344.215855 240.929888 
L 344.216396 240.939252 
L 344.264012 239.8687 
L 344.792116 212.976219 
L 344.859212 178.880672 
L 344.880855 55.349136 
L 344.971217 176.736188 
L 345.199558 244.109979 
L 345.204969 244.292896 
L 345.276393 245.325728 
L 345.328879 245.020695 
L 345.770409 235.958138 
L 345.77095 235.960205 
L 345.979811 228.062759 
L 345.997126 227.148985 
L 346.185967 203.267553 
L 346.22222 150.443477 
L 346.236829 55.469255 
L 346.329356 177.979397 
L 346.553367 243.734665 
L 346.626956 245.118631 
L 346.690804 244.691718 
L 346.691345 244.698818 
L 346.745455 243.963667 
L 346.960809 239.729186 
L 346.961891 239.732114 
L 346.972713 239.454922 
L 347.14478 234.775725 
L 347.148026 234.677507 
L 347.534906 194.819894 
L 347.560337 98.398309 
L 347.569536 55.331783 
L 347.663686 178.977998 
L 347.892567 244.171267 
L 347.953711 245.223609 
L 348.021888 244.792341 
L 348.02297 244.801813 
L 348.506705 233.882968 
L 348.855168 203.636952 
L 348.892503 150.027479 
L 348.907113 55.512053 
L 348.999639 177.976421 
L 349.217699 243.475381 
L 349.308061 245.126131 
L 349.369745 244.668002 
L 349.400588 244.288875 
L 349.602415 240.478938 
L 349.994705 227.948376 
L 350.204649 200.205695 
L 350.235491 136.643323 
L 350.247936 55.329203 
L 350.342086 178.85966 
L 350.565015 243.918062 
L 350.640227 245.27812 
L 350.690548 245.013595 
L 351.03847 238.420371 
L 351.523287 209.274679 
L 351.575232 171.036963 
L 351.59417 55.356909 
L 351.684532 176.882829 
L 351.908544 243.776008 
L 351.992413 245.21973 
L 352.06546 244.605536 
L 352.221295 241.920116 
L 352.221836 241.92256 
L 352.835433 213.863082 
L 352.905233 183.614554 
L 352.929583 55.374099 
L 353.019945 176.824673 
L 353.243415 243.812138 
L 353.337565 245.258774 
L 353.388969 244.799827 
L 353.443078 243.956534 
L 353.754205 237.130906 
L 353.754746 237.138437 
L 353.79154 236.10159 
L 353.792081 236.106279 
L 353.818054 235.368602 
L 354.116736 220.147998 
L 354.20818 203.862916 
L 354.246057 150.08735 
L 354.260125 55.342831 
L 354.353193 178.199721 
L 354.588567 244.327728 
L 354.589108 244.320842 
L 354.632937 245.140699 
L 354.636183 245.139948 
L 354.661615 245.25003 
L 354.736285 244.638135 
L 354.736826 244.638929 
L 354.933242 240.973307 
L 354.933783 240.975359 
L 354.951639 240.628687 
L 355.138316 235.947082 
L 355.138857 235.957062 
L 355.181603 234.693635 
L 355.390464 225.886418 
L 355.537641 209.427278 
L 355.590668 169.879953 
L 355.609065 55.45076 
L 355.699427 176.66567 
L 355.925062 243.690674 
L 356.008931 245.197597 
L 356.059793 244.823679 
L 356.580323 232.747678 
L 356.894156 202.935537 
L 356.929868 147.892597 
L 356.943936 55.402944 
L 357.037004 178.386711 
L 357.269673 244.172958 
L 357.336227 245.214074 
L 357.395206 244.844164 
L 357.667916 239.767704 
L 358.124055 221.819107 
L 358.249588 195.312759 
L 358.275561 98.906496 
L 358.284759 55.121906 
L 358.378909 179.327098 
L 358.609955 244.575759 
L 358.626729 245.036301 
L 358.62727 245.029473 
L 358.674345 245.578772 
L 358.739817 245.160191 
L 358.883206 242.832493 
L 358.963828 241.179946 
L 359.523857 217.380506 
L 359.616384 186.502042 
L 359.642356 55.418356 
L 359.733801 177.172592 
L 359.952943 243.474916 
L 360.044387 245.103355 
L 360.082804 244.855758 
L 360.093626 244.746381 
L 360.095249 244.760652 
L 360.304111 241.076193 
L 360.304652 241.089477 
L 360.362548 239.802799 
L 360.882537 214.187409 
L 360.953961 184.01534 
L 360.97831 55.297017 
L 361.069213 177.087798 
L 361.294848 244.047655 
L 361.375471 245.480805 
L 361.423087 245.159365 
L 361.424169 245.176122 
L 361.458257 244.73116 
L 361.460422 244.73099 
L 361.647639 241.22472 
L 362.188189 219.513232 
L 362.286127 197.861051 
L 362.313722 125.636 
L 362.325085 55.194147 
L 362.419776 179.368685 
L 362.643788 244.220159 
L 362.717917 245.537362 
L 362.792047 245.018235 
L 362.964113 241.984049 
L 362.964655 241.985231 
L 362.974394 241.753994 
L 363.554444 217.852899 
L 363.6421 194.911936 
L 363.668073 93.468811 
L 363.67673 55.421491 
L 363.77088 178.832364 
L 363.997597 243.977798 
L 364.076596 245.201041 
L 364.140986 244.724949 
L 364.302231 241.931899 
L 364.347683 240.947631 
L 364.880116 218.824554 
L 364.975348 195.881807 
L 365.001321 108.94743 
L 365.011601 55.416053 
L 365.106292 179.238744 
L 365.331386 243.880554 
L 365.41255 245.157749 
L 365.479645 244.607298 
L 365.972579 233.191587 
L 366.293446 204.888001 
L 366.332945 158.318469 
L 366.348637 55.402011 
L 366.440623 177.693619 
L 366.670045 244.005436 
L 366.752291 245.219028 
L 366.814516 244.712857 
L 366.914077 243.173161 
L 367.060713 240.093061 
L 367.061254 240.104782 
L 367.454627 226.785296 
L 367.642385 200.927693 
L 367.674851 135.673481 
L 367.687296 55.344479 
L 367.781446 178.883244 
L 368.008163 243.937218 
L 368.087703 245.219997 
L 368.138566 244.876443 
L 368.139648 244.881388 
L 368.463761 238.48272 
L 368.464303 238.483233 
L 368.469713 238.349166 
L 368.876614 220.348805 
L 368.962647 206.348195 
L 369.007017 155.874654 
L 369.022167 55.360097 
L 369.114153 177.594178 
L 369.327343 243.317615 
L 369.426362 245.303754 
L 369.472896 244.953508 
L 369.473978 244.962201 
L 369.521053 244.306344 
L 369.522676 244.328575 
L 369.725044 240.285378 
L 369.725585 240.288823 
L 369.748311 239.746981 
L 369.748852 239.758202 
L 369.933905 234.928552 
L 370.212567 221.004548 
L 370.326737 197.511542 
L 370.354333 119.180519 
L 370.365155 55.320872 
L 370.459846 179.169141 
L 370.679529 243.830813 
L 370.756905 245.308283 
L 370.829411 244.789364 
L 371.140538 238.748877 
L 371.644294 207.447561 
L 371.69191 158.93787 
L 371.707601 55.37089 
L 371.799587 177.640469 
L 372.034961 244.179091 
L 372.096646 245.15281 
L 372.159412 244.760571 
L 372.324445 242.015701 
L 372.324986 242.037004 
L 372.39641 240.503897 
L 372.679942 232.734505 
L 372.98674 206.178159 
L 373.028945 163.946428 
L 373.045719 55.260143 
L 373.136623 177.211398 
L 373.357929 243.839119 
L 373.439092 245.437024 
L 373.488873 245.144987 
L 373.898479 236.795605 
L 374.314577 211.140113 
L 374.37518 171.083139 
L 374.394118 55.475298 
L 374.48448 176.669308 
L 374.710656 243.677916 
L 374.711197 243.666032 
L 374.793443 245.114695 
L 374.858374 244.582885 
L 374.964969 242.929421 
L 375.450868 229.353599 
L 375.670551 206.686031 
L 375.714921 161.462506 
L 375.731153 55.212545 
L 375.822598 177.540179 
L 376.053644 244.300741 
L 376.120739 245.42457 
L 376.180259 245.095616 
L 376.357737 242.104033 
L 376.358278 242.113207 
L 376.406976 241.059025 
L 376.669946 234.314137 
L 377.04384 194.501065 
L 377.06873 99.315878 
L 377.077929 55.287302 
L 377.172079 179.093349 
L 377.403124 244.339695 
L 377.472925 245.404704 
L 377.525411 245.101126 
L 377.768361 240.73487 
L 377.977222 235.383808 
L 377.977763 235.394619 
L 378.019427 234.053701 
L 378.382499 198.843019 
L 378.412259 120.764423 
L 378.423622 55.354851 
L 378.517772 179.070622 
L 378.74016 243.929168 
L 378.818618 245.311342 
L 378.865152 244.992497 
L 379.065356 241.570596 
L 379.065897 241.571575 
L 379.075636 241.380238 
L 379.271511 236.744719 
L 379.345641 234.600189 
L 379.710336 204.261272 
L 379.748753 153.853809 
L 379.763363 55.345498 
L 379.855889 177.900866 
L 380.075572 243.704349 
L 380.161065 245.358075 
L 380.22329 244.890667 
L 380.564177 238.080259 
L 380.789812 230.781913 
L 380.906147 224.485065 
L 381.015447 212.75448 
L 381.080919 180.178054 
L 381.103104 55.475264 
L 381.193466 176.468698 
L 381.425594 244.024174 
L 381.507299 245.168392 
L 381.584134 244.48512 
L 381.585757 244.501732 
L 381.606319 244.19913 
L 381.60686 244.204293 
L 381.787584 240.746909 
L 382.203142 227.276142 
L 382.343284 215.058762 
L 382.416332 189.57768 
L 382.445009 55.362872 
L 382.537536 177.948838 
L 382.773452 244.275286 
L 382.840006 245.210651 
L 382.90169 244.772126 
L 382.903855 244.780971 
L 383.098647 241.313049 
L 383.661923 217.285099 
L 383.747956 192.546374 
L 383.773388 72.293752 
L 383.779881 55.229349 
L 383.867537 175.448827 
L 384.100748 244.174936 
L 384.183535 245.381162 
L 384.264157 244.607072 
L 384.502237 239.808475 
L 384.572038 238.147866 
L 385.023849 213.84475 
L 385.093108 183.935893 
L 385.117457 55.297879 
L 385.208361 177.07732 
L 385.43616 244.006346 
L 385.519488 245.284497 
L 385.583878 244.755171 
L 385.740794 242.094467 
L 386.067072 233.797604 
L 386.387398 210.438795 
L 386.442048 177.67326 
L 386.463151 55.384738 
L 386.553513 176.664942 
L 386.77536 243.674867 
L 386.857065 245.216836 
L 386.903599 244.946812 
L 387.206068 239.395774 
L 387.206609 239.402462 
L 387.336471 235.98015 
L 387.551284 227.730865 
L 387.64327 221.437726 
L 387.73742 207.414701 
L 387.783412 166.187528 
L 387.800727 55.343447 
L 387.891631 177.04642 
L 388.11456 243.770452 
L 388.202758 245.273146 
L 388.243881 244.987554 
L 388.984093 221.300791 
L 389.092311 202.283116 
L 389.1264 148.753515 
L 389.140468 55.451546 
L 389.233536 178.172342 
L 389.459171 243.74776 
L 389.539793 245.086155 
L 389.591738 244.720187 
L 389.593361 244.726541 
L 389.863907 239.58915 
L 389.864448 239.597579 
L 389.909359 238.572982 
L 390.402833 209.378887 
L 390.455319 170.247891 
L 390.473716 55.359159 
L 390.564079 176.673518 
L 390.801076 244.225739 
L 390.866548 245.230161 
L 390.920657 244.960816 
L 391.485015 231.46513 
L 391.761513 204.560427 
L 391.79993 158.220187 
L 391.815622 55.248841 
L 391.907066 177.593014 
L 392.133242 244.078369 
L 392.217111 245.371205 
L 392.277172 244.911626 
L 392.278255 244.924579 
L 392.444911 242.028819 
L 392.605615 238.359688 
L 392.62834 237.772616 
L 392.837743 231.049768 
L 393.088809 209.138219 
L 393.141836 165.622833 
L 393.159151 55.386477 
L 393.250054 177.090392 
L 393.474065 243.70953 
L 393.555229 245.160983 
L 393.602845 244.912107 
L 393.605551 244.92499 
L 393.647215 244.381325 
L 393.648297 244.399934 
L 394.195881 230.77579 
L 394.412317 214.453362 
L 394.483741 186.516459 
L 394.509713 55.442875 
L 394.601158 177.105693 
L 394.824628 243.657648 
L 394.905251 245.157402 
L 394.958819 244.775425 
L 394.969641 244.666379 
L 395.267241 238.86615 
L 395.478266 232.713585 
L 395.571334 228.814148 
L 395.776948 207.516003 
L 395.824564 160.928342 
L 395.840797 55.348748 
L 395.932241 177.386961 
L 396.161123 243.958469 
L 396.234711 245.23296 
L 396.315875 244.581292 
L 396.590749 239.213827 
L 396.602653 238.951399 
L 397.085306 214.111732 
L 397.155107 185.493903 
L 397.180538 55.388184 
L 397.271441 177.027597 
L 397.495453 243.793025 
L 397.575535 245.230558 
L 397.662109 244.521365 
L 397.663191 244.526189 
L 397.7963 242.122695 
L 397.945641 238.82015 
L 398.250275 228.670448 
L 398.476451 199.1701 
L 398.487273 191.55266 
L 398.487273 191.55266 
" style="fill:none;stroke:#000000;stroke-linecap:square;stroke-width:1.5;"/>
   </g>
   <g id="patch_3">
    <path d="M 57.6 307.584 
L 57.6 41.472 
" style="fill:none;stroke:#000000;stroke-linecap:square;stroke-linejoin:miter;stroke-width:0.8;"/>
   </g>
   <g id="patch_4">
    <path d="M 414.72 307.584 
L 414.72 41.472 
" style="fill:none;stroke:#000000;stroke-linecap:square;stroke-linejoin:miter;stroke-width:0.8;"/>
   </g>
   <g id="patch_5">
    <path d="M 57.6 307.584 
L 414.72 307.584 
" style="fill:none;stroke:#000000;stroke-linecap:square;stroke-linejoin:miter;stroke-width:0.8;"/>
   </g>
   <g id="patch_6">
    <path d="M 57.6 41.472 
L 414.72 41.472 
" style="fill:none;stroke:#000000;stroke-linecap:square;stroke-linejoin:miter;stroke-width:0.8;"/>
   </g>
   <g id="text_15">
    <!-- ChIN_LTS -->
    <defs>
     <path d="M 64.40625 67.28125 
L 64.40625 56.890625 
Q 59.421875 61.53125 53.78125 63.8125 
Q 48.140625 66.109375 41.796875 66.109375 
Q 29.296875 66.109375 22.65625 58.46875 
Q 16.015625 50.828125 16.015625 36.375 
Q 16.015625 21.96875 22.65625 14.328125 
Q 29.296875 6.6875 41.796875 6.6875 
Q 48.140625 6.6875 53.78125 8.984375 
Q 59.421875 11.28125 64.40625 15.921875 
L 64.40625 5.609375 
Q 59.234375 2.09375 53.4375 0.328125 
Q 47.65625 -1.421875 41.21875 -1.421875 
Q 24.65625 -1.421875 15.125 8.703125 
Q 5.609375 18.84375 5.609375 36.375 
Q 5.609375 53.953125 15.125 64.078125 
Q 24.65625 74.21875 41.21875 74.21875 
Q 47.75 74.21875 53.53125 72.484375 
Q 59.328125 70.75 64.40625 67.28125 
z
" id="DejaVuSans-43"/>
     <path d="M 54.890625 33.015625 
L 54.890625 0 
L 45.90625 0 
L 45.90625 32.71875 
Q 45.90625 40.484375 42.875 44.328125 
Q 39.84375 48.1875 33.796875 48.1875 
Q 26.515625 48.1875 22.3125 43.546875 
Q 18.109375 38.921875 18.109375 30.90625 
L 18.109375 0 
L 9.078125 0 
L 9.078125 75.984375 
L 18.109375 75.984375 
L 18.109375 46.1875 
Q 21.34375 51.125 25.703125 53.5625 
Q 30.078125 56 35.796875 56 
Q 45.21875 56 50.046875 50.171875 
Q 54.890625 44.34375 54.890625 33.015625 
z
" id="DejaVuSans-68"/>
     <path d="M 9.8125 72.90625 
L 19.671875 72.90625 
L 19.671875 0 
L 9.8125 0 
z
" id="DejaVuSans-49"/>
     <path d="M 9.8125 72.90625 
L 23.09375 72.90625 
L 55.421875 11.921875 
L 55.421875 72.90625 
L 64.984375 72.90625 
L 64.984375 0 
L 51.703125 0 
L 19.390625 60.984375 
L 19.390625 0 
L 9.8125 0 
z
" id="DejaVuSans-4e"/>
     <path d="M 50.984375 -16.609375 
L 50.984375 -23.578125 
L -0.984375 -23.578125 
L -0.984375 -16.609375 
z
" id="DejaVuSans-5f"/>
     <path d="M 9.8125 72.90625 
L 19.671875 72.90625 
L 19.671875 8.296875 
L 55.171875 8.296875 
L 55.171875 0 
L 9.8125 0 
z
" id="DejaVuSans-4c"/>
     <path d="M -0.296875 72.90625 
L 61.375 72.90625 
L 61.375 64.59375 
L 35.5 64.59375 
L 35.5 0 
L 25.59375 0 
L 25.59375 64.59375 
L -0.296875 64.59375 
z
" id="DejaVuSans-54"/>
     <path d="M 53.515625 70.515625 
L 53.515625 60.890625 
Q 47.90625 63.578125 42.921875 64.890625 
Q 37.9375 66.21875 33.296875 66.21875 
Q 25.25 66.21875 20.875 63.09375 
Q 16.5 59.96875 16.5 54.203125 
Q 16.5 49.359375 19.40625 46.890625 
Q 22.3125 44.4375 30.421875 42.921875 
L 36.375 41.703125 
Q 47.40625 39.59375 52.65625 34.296875 
Q 57.90625 29 57.90625 20.125 
Q 57.90625 9.515625 50.796875 4.046875 
Q 43.703125 -1.421875 29.984375 -1.421875 
Q 24.8125 -1.421875 18.96875 -0.25 
Q 13.140625 0.921875 6.890625 3.21875 
L 6.890625 13.375 
Q 12.890625 10.015625 18.65625 8.296875 
Q 24.421875 6.59375 29.984375 6.59375 
Q 38.421875 6.59375 43.015625 9.90625 
Q 47.609375 13.234375 47.609375 19.390625 
Q 47.609375 24.75 44.3125 27.78125 
Q 41.015625 30.8125 33.5 32.328125 
L 27.484375 33.5 
Q 16.453125 35.6875 11.515625 40.375 
Q 6.59375 45.0625 6.59375 53.421875 
Q 6.59375 63.09375 13.40625 68.65625 
Q 20.21875 74.21875 32.171875 74.21875 
Q 37.3125 74.21875 42.625 73.28125 
Q 47.953125 72.359375 53.515625 70.515625 
z
" id="DejaVuSans-53"/>
    </defs>
    <g transform="translate(208.104375 35.472)scale(0.12 -0.12)">
     <use xlink:href="#DejaVuSans-43"/>
     <use x="69.824219" xlink:href="#DejaVuSans-68"/>
     <use x="133.203125" xlink:href="#DejaVuSans-49"/>
     <use x="162.695312" xlink:href="#DejaVuSans-4e"/>
     <use x="237.5" xlink:href="#DejaVuSans-5f"/>
     <use x="287.5" xlink:href="#DejaVuSans-4c"/>
     <use x="343.009766" xlink:href="#DejaVuSans-54"/>
     <use x="404.09375" xlink:href="#DejaVuSans-53"/>
    </g>
   </g>
   <g id="legend_1">
    <g id="patch_7">
     <path d="M 403.72 54.472 
L 407.72 54.472 
Q 409.72 54.472 409.72 52.472 
L 409.72 48.472 
Q 409.72 46.472 407.72 46.472 
L 403.72 46.472 
Q 401.72 46.472 401.72 48.472 
L 401.72 52.472 
Q 401.72 54.472 403.72 54.472 
z
" style="fill:#ffffff;opacity:0.8;stroke:#cccccc;stroke-linejoin:miter;"/>
    </g>
   </g>
  </g>
 </g>
 <defs>
  <clipPath id="p87ad7c1be4">
   <rect height="266.112" width="357.12" x="57.6" y="41.472"/>
  </clipPath>
 </defs>
</svg>
