<?xml version="1.0" encoding="utf-8" standalone="no"?>
<!DOCTYPE svg PUBLIC "-//W3C//DTD SVG 1.1//EN"
  "http://www.w3.org/Graphics/SVG/1.1/DTD/svg11.dtd">
<!-- Created with matplotlib (http://matplotlib.org/) -->
<svg height="345.6pt" version="1.1" viewBox="0 0 460.8 345.6" width="460.8pt" xmlns="http://www.w3.org/2000/svg" xmlns:xlink="http://www.w3.org/1999/xlink">
 <defs>
  <style type="text/css">
*{stroke-linecap:butt;stroke-linejoin:round;}
  </style>
 </defs>
 <g id="figure_1">
  <g id="patch_1">
   <path d="M 0 345.6 
L 460.8 345.6 
L 460.8 0 
L 0 0 
z
" style="fill:#ffffff;"/>
  </g>
  <g id="axes_1">
   <g id="patch_2">
    <path d="M 57.6 307.584 
L 414.72 307.584 
L 414.72 41.472 
L 57.6 41.472 
z
" style="fill:#ffffff;"/>
   </g>
   <g id="matplotlib.axis_1">
    <g id="xtick_1">
     <g id="line2d_1">
      <defs>
       <path d="M 0 0 
L 0 3.5 
" id="m7e15976a97" style="stroke:#000000;stroke-width:0.8;"/>
      </defs>
      <g>
       <use style="stroke:#000000;stroke-width:0.8;" x="73.832727" xlink:href="#m7e15976a97" y="307.584"/>
      </g>
     </g>
     <g id="text_1">
      <!-- 0 -->
      <defs>
       <path d="M 31.78125 66.40625 
Q 24.171875 66.40625 20.328125 58.90625 
Q 16.5 51.421875 16.5 36.375 
Q 16.5 21.390625 20.328125 13.890625 
Q 24.171875 6.390625 31.78125 6.390625 
Q 39.453125 6.390625 43.28125 13.890625 
Q 47.125 21.390625 47.125 36.375 
Q 47.125 51.421875 43.28125 58.90625 
Q 39.453125 66.40625 31.78125 66.40625 
z
M 31.78125 74.21875 
Q 44.046875 74.21875 50.515625 64.515625 
Q 56.984375 54.828125 56.984375 36.375 
Q 56.984375 17.96875 50.515625 8.265625 
Q 44.046875 -1.421875 31.78125 -1.421875 
Q 19.53125 -1.421875 13.0625 8.265625 
Q 6.59375 17.96875 6.59375 36.375 
Q 6.59375 54.828125 13.0625 64.515625 
Q 19.53125 74.21875 31.78125 74.21875 
z
" id="DejaVuSans-30"/>
      </defs>
      <g transform="translate(70.651477 322.182437)scale(0.1 -0.1)">
       <use xlink:href="#DejaVuSans-30"/>
      </g>
     </g>
    </g>
    <g id="xtick_2">
     <g id="line2d_2">
      <g>
       <use style="stroke:#000000;stroke-width:0.8;" x="117.12" xlink:href="#m7e15976a97" y="307.584"/>
      </g>
     </g>
     <g id="text_2">
      <!-- 2000 -->
      <defs>
       <path d="M 19.1875 8.296875 
L 53.609375 8.296875 
L 53.609375 0 
L 7.328125 0 
L 7.328125 8.296875 
Q 12.9375 14.109375 22.625 23.890625 
Q 32.328125 33.6875 34.8125 36.53125 
Q 39.546875 41.84375 41.421875 45.53125 
Q 43.3125 49.21875 43.3125 52.78125 
Q 43.3125 58.59375 39.234375 62.25 
Q 35.15625 65.921875 28.609375 65.921875 
Q 23.96875 65.921875 18.8125 64.3125 
Q 13.671875 62.703125 7.8125 59.421875 
L 7.8125 69.390625 
Q 13.765625 71.78125 18.9375 73 
Q 24.125 74.21875 28.421875 74.21875 
Q 39.75 74.21875 46.484375 68.546875 
Q 53.21875 62.890625 53.21875 53.421875 
Q 53.21875 48.921875 51.53125 44.890625 
Q 49.859375 40.875 45.40625 35.40625 
Q 44.1875 33.984375 37.640625 27.21875 
Q 31.109375 20.453125 19.1875 8.296875 
z
" id="DejaVuSans-32"/>
      </defs>
      <g transform="translate(104.395 322.182437)scale(0.1 -0.1)">
       <use xlink:href="#DejaVuSans-32"/>
       <use x="63.623047" xlink:href="#DejaVuSans-30"/>
       <use x="127.246094" xlink:href="#DejaVuSans-30"/>
       <use x="190.869141" xlink:href="#DejaVuSans-30"/>
      </g>
     </g>
    </g>
    <g id="xtick_3">
     <g id="line2d_3">
      <g>
       <use style="stroke:#000000;stroke-width:0.8;" x="160.407273" xlink:href="#m7e15976a97" y="307.584"/>
      </g>
     </g>
     <g id="text_3">
      <!-- 4000 -->
      <defs>
       <path d="M 37.796875 64.3125 
L 12.890625 25.390625 
L 37.796875 25.390625 
z
M 35.203125 72.90625 
L 47.609375 72.90625 
L 47.609375 25.390625 
L 58.015625 25.390625 
L 58.015625 17.1875 
L 47.609375 17.1875 
L 47.609375 0 
L 37.796875 0 
L 37.796875 17.1875 
L 4.890625 17.1875 
L 4.890625 26.703125 
z
" id="DejaVuSans-34"/>
      </defs>
      <g transform="translate(147.682273 322.182437)scale(0.1 -0.1)">
       <use xlink:href="#DejaVuSans-34"/>
       <use x="63.623047" xlink:href="#DejaVuSans-30"/>
       <use x="127.246094" xlink:href="#DejaVuSans-30"/>
       <use x="190.869141" xlink:href="#DejaVuSans-30"/>
      </g>
     </g>
    </g>
    <g id="xtick_4">
     <g id="line2d_4">
      <g>
       <use style="stroke:#000000;stroke-width:0.8;" x="203.694545" xlink:href="#m7e15976a97" y="307.584"/>
      </g>
     </g>
     <g id="text_4">
      <!-- 6000 -->
      <defs>
       <path d="M 33.015625 40.375 
Q 26.375 40.375 22.484375 35.828125 
Q 18.609375 31.296875 18.609375 23.390625 
Q 18.609375 15.53125 22.484375 10.953125 
Q 26.375 6.390625 33.015625 6.390625 
Q 39.65625 6.390625 43.53125 10.953125 
Q 47.40625 15.53125 47.40625 23.390625 
Q 47.40625 31.296875 43.53125 35.828125 
Q 39.65625 40.375 33.015625 40.375 
z
M 52.59375 71.296875 
L 52.59375 62.3125 
Q 48.875 64.0625 45.09375 64.984375 
Q 41.3125 65.921875 37.59375 65.921875 
Q 27.828125 65.921875 22.671875 59.328125 
Q 17.53125 52.734375 16.796875 39.40625 
Q 19.671875 43.65625 24.015625 45.921875 
Q 28.375 48.1875 33.59375 48.1875 
Q 44.578125 48.1875 50.953125 41.515625 
Q 57.328125 34.859375 57.328125 23.390625 
Q 57.328125 12.15625 50.6875 5.359375 
Q 44.046875 -1.421875 33.015625 -1.421875 
Q 20.359375 -1.421875 13.671875 8.265625 
Q 6.984375 17.96875 6.984375 36.375 
Q 6.984375 53.65625 15.1875 63.9375 
Q 23.390625 74.21875 37.203125 74.21875 
Q 40.921875 74.21875 44.703125 73.484375 
Q 48.484375 72.75 52.59375 71.296875 
z
" id="DejaVuSans-36"/>
      </defs>
      <g transform="translate(190.969545 322.182437)scale(0.1 -0.1)">
       <use xlink:href="#DejaVuSans-36"/>
       <use x="63.623047" xlink:href="#DejaVuSans-30"/>
       <use x="127.246094" xlink:href="#DejaVuSans-30"/>
       <use x="190.869141" xlink:href="#DejaVuSans-30"/>
      </g>
     </g>
    </g>
    <g id="xtick_5">
     <g id="line2d_5">
      <g>
       <use style="stroke:#000000;stroke-width:0.8;" x="246.981818" xlink:href="#m7e15976a97" y="307.584"/>
      </g>
     </g>
     <g id="text_5">
      <!-- 8000 -->
      <defs>
       <path d="M 31.78125 34.625 
Q 24.75 34.625 20.71875 30.859375 
Q 16.703125 27.09375 16.703125 20.515625 
Q 16.703125 13.921875 20.71875 10.15625 
Q 24.75 6.390625 31.78125 6.390625 
Q 38.8125 6.390625 42.859375 10.171875 
Q 46.921875 13.96875 46.921875 20.515625 
Q 46.921875 27.09375 42.890625 30.859375 
Q 38.875 34.625 31.78125 34.625 
z
M 21.921875 38.8125 
Q 15.578125 40.375 12.03125 44.71875 
Q 8.5 49.078125 8.5 55.328125 
Q 8.5 64.0625 14.71875 69.140625 
Q 20.953125 74.21875 31.78125 74.21875 
Q 42.671875 74.21875 48.875 69.140625 
Q 55.078125 64.0625 55.078125 55.328125 
Q 55.078125 49.078125 51.53125 44.71875 
Q 48 40.375 41.703125 38.8125 
Q 48.828125 37.15625 52.796875 32.3125 
Q 56.78125 27.484375 56.78125 20.515625 
Q 56.78125 9.90625 50.3125 4.234375 
Q 43.84375 -1.421875 31.78125 -1.421875 
Q 19.734375 -1.421875 13.25 4.234375 
Q 6.78125 9.90625 6.78125 20.515625 
Q 6.78125 27.484375 10.78125 32.3125 
Q 14.796875 37.15625 21.921875 38.8125 
z
M 18.3125 54.390625 
Q 18.3125 48.734375 21.84375 45.5625 
Q 25.390625 42.390625 31.78125 42.390625 
Q 38.140625 42.390625 41.71875 45.5625 
Q 45.3125 48.734375 45.3125 54.390625 
Q 45.3125 60.0625 41.71875 63.234375 
Q 38.140625 66.40625 31.78125 66.40625 
Q 25.390625 66.40625 21.84375 63.234375 
Q 18.3125 60.0625 18.3125 54.390625 
z
" id="DejaVuSans-38"/>
      </defs>
      <g transform="translate(234.256818 322.182437)scale(0.1 -0.1)">
       <use xlink:href="#DejaVuSans-38"/>
       <use x="63.623047" xlink:href="#DejaVuSans-30"/>
       <use x="127.246094" xlink:href="#DejaVuSans-30"/>
       <use x="190.869141" xlink:href="#DejaVuSans-30"/>
      </g>
     </g>
    </g>
    <g id="xtick_6">
     <g id="line2d_6">
      <g>
       <use style="stroke:#000000;stroke-width:0.8;" x="290.269091" xlink:href="#m7e15976a97" y="307.584"/>
      </g>
     </g>
     <g id="text_6">
      <!-- 10000 -->
      <defs>
       <path d="M 12.40625 8.296875 
L 28.515625 8.296875 
L 28.515625 63.921875 
L 10.984375 60.40625 
L 10.984375 69.390625 
L 28.421875 72.90625 
L 38.28125 72.90625 
L 38.28125 8.296875 
L 54.390625 8.296875 
L 54.390625 0 
L 12.40625 0 
z
" id="DejaVuSans-31"/>
      </defs>
      <g transform="translate(274.362841 322.182437)scale(0.1 -0.1)">
       <use xlink:href="#DejaVuSans-31"/>
       <use x="63.623047" xlink:href="#DejaVuSans-30"/>
       <use x="127.246094" xlink:href="#DejaVuSans-30"/>
       <use x="190.869141" xlink:href="#DejaVuSans-30"/>
       <use x="254.492188" xlink:href="#DejaVuSans-30"/>
      </g>
     </g>
    </g>
    <g id="xtick_7">
     <g id="line2d_7">
      <g>
       <use style="stroke:#000000;stroke-width:0.8;" x="333.556364" xlink:href="#m7e15976a97" y="307.584"/>
      </g>
     </g>
     <g id="text_7">
      <!-- 12000 -->
      <g transform="translate(317.650114 322.182437)scale(0.1 -0.1)">
       <use xlink:href="#DejaVuSans-31"/>
       <use x="63.623047" xlink:href="#DejaVuSans-32"/>
       <use x="127.246094" xlink:href="#DejaVuSans-30"/>
       <use x="190.869141" xlink:href="#DejaVuSans-30"/>
       <use x="254.492188" xlink:href="#DejaVuSans-30"/>
      </g>
     </g>
    </g>
    <g id="xtick_8">
     <g id="line2d_8">
      <g>
       <use style="stroke:#000000;stroke-width:0.8;" x="376.843636" xlink:href="#m7e15976a97" y="307.584"/>
      </g>
     </g>
     <g id="text_8">
      <!-- 14000 -->
      <g transform="translate(360.937386 322.182437)scale(0.1 -0.1)">
       <use xlink:href="#DejaVuSans-31"/>
       <use x="63.623047" xlink:href="#DejaVuSans-34"/>
       <use x="127.246094" xlink:href="#DejaVuSans-30"/>
       <use x="190.869141" xlink:href="#DejaVuSans-30"/>
       <use x="254.492188" xlink:href="#DejaVuSans-30"/>
      </g>
     </g>
    </g>
   </g>
   <g id="matplotlib.axis_2">
    <g id="ytick_1">
     <g id="line2d_9">
      <defs>
       <path d="M 0 0 
L -3.5 0 
" id="m06666b4b9f" style="stroke:#000000;stroke-width:0.8;"/>
      </defs>
      <g>
       <use style="stroke:#000000;stroke-width:0.8;" x="57.6" xlink:href="#m06666b4b9f" y="275.857299"/>
      </g>
     </g>
     <g id="text_9">
      <!-- −80 -->
      <defs>
       <path d="M 10.59375 35.5 
L 73.1875 35.5 
L 73.1875 27.203125 
L 10.59375 27.203125 
z
" id="DejaVuSans-2212"/>
      </defs>
      <g transform="translate(29.495313 279.656517)scale(0.1 -0.1)">
       <use xlink:href="#DejaVuSans-2212"/>
       <use x="83.789062" xlink:href="#DejaVuSans-38"/>
       <use x="147.412109" xlink:href="#DejaVuSans-30"/>
      </g>
     </g>
    </g>
    <g id="ytick_2">
     <g id="line2d_10">
      <g>
       <use style="stroke:#000000;stroke-width:0.8;" x="57.6" xlink:href="#m06666b4b9f" y="231.88831"/>
      </g>
     </g>
     <g id="text_10">
      <!-- −60 -->
      <g transform="translate(29.495313 235.687528)scale(0.1 -0.1)">
       <use xlink:href="#DejaVuSans-2212"/>
       <use x="83.789062" xlink:href="#DejaVuSans-36"/>
       <use x="147.412109" xlink:href="#DejaVuSans-30"/>
      </g>
     </g>
    </g>
    <g id="ytick_3">
     <g id="line2d_11">
      <g>
       <use style="stroke:#000000;stroke-width:0.8;" x="57.6" xlink:href="#m06666b4b9f" y="187.919321"/>
      </g>
     </g>
     <g id="text_11">
      <!-- −40 -->
      <g transform="translate(29.495313 191.71854)scale(0.1 -0.1)">
       <use xlink:href="#DejaVuSans-2212"/>
       <use x="83.789062" xlink:href="#DejaVuSans-34"/>
       <use x="147.412109" xlink:href="#DejaVuSans-30"/>
      </g>
     </g>
    </g>
    <g id="ytick_4">
     <g id="line2d_12">
      <g>
       <use style="stroke:#000000;stroke-width:0.8;" x="57.6" xlink:href="#m06666b4b9f" y="143.950332"/>
      </g>
     </g>
     <g id="text_12">
      <!-- −20 -->
      <g transform="translate(29.495313 147.749551)scale(0.1 -0.1)">
       <use xlink:href="#DejaVuSans-2212"/>
       <use x="83.789062" xlink:href="#DejaVuSans-32"/>
       <use x="147.412109" xlink:href="#DejaVuSans-30"/>
      </g>
     </g>
    </g>
    <g id="ytick_5">
     <g id="line2d_13">
      <g>
       <use style="stroke:#000000;stroke-width:0.8;" x="57.6" xlink:href="#m06666b4b9f" y="99.981343"/>
      </g>
     </g>
     <g id="text_13">
      <!-- 0 -->
      <g transform="translate(44.2375 103.780562)scale(0.1 -0.1)">
       <use xlink:href="#DejaVuSans-30"/>
      </g>
     </g>
    </g>
    <g id="ytick_6">
     <g id="line2d_14">
      <g>
       <use style="stroke:#000000;stroke-width:0.8;" x="57.6" xlink:href="#m06666b4b9f" y="56.012354"/>
      </g>
     </g>
     <g id="text_14">
      <!-- 20 -->
      <g transform="translate(37.875 59.811573)scale(0.1 -0.1)">
       <use xlink:href="#DejaVuSans-32"/>
       <use x="63.623047" xlink:href="#DejaVuSans-30"/>
      </g>
     </g>
    </g>
   </g>
   <g id="line2d_15">
    <path clip-path="url(#p64dd21fd07)" d="M 73.832727 264.865051 
L 74.059985 257.757481 
L 74.060527 257.761167 
L 74.08217 257.160502 
L 74.469591 246.582016 
L 74.976052 228.289035 
L 75.138921 209.734895 
L 75.18816 172.783288 
L 75.207098 53.568 
L 75.29746 178.571904 
L 75.508486 244.274954 
L 75.582074 245.686864 
L 75.634019 245.267107 
L 75.878051 239.401247 
L 75.888332 239.141131 
L 76.24978 221.512457 
L 76.369903 187.880154 
L 76.396416 54.033372 
L 76.487319 178.46705 
L 76.713495 244.635723 
L 76.769769 245.566198 
L 76.850932 244.914772 
L 76.886644 244.249006 
L 77.399057 227.1463 
L 77.532707 213.544305 
L 77.595473 185.113549 
L 77.619823 54.482302 
L 77.710726 177.74822 
L 77.940689 244.3005 
L 78.012655 245.31205 
L 78.064058 244.887691 
L 78.212858 242.114098 
L 78.766935 215.656299 
L 78.844311 182.340422 
L 78.867037 54.735769 
L 78.95794 177.466597 
L 79.18087 243.85426 
L 79.259869 245.251996 
L 79.31506 244.839964 
L 79.3643 244.127785 
L 79.994129 220.976726 
L 80.107759 192.923908 
L 80.132649 71.956898 
L 80.139142 54.94964 
L 80.226799 175.557814 
L 80.463255 244.14063 
L 80.469207 244.28557 
L 80.539008 245.14235 
L 80.588788 244.751918 
L 80.917231 237.761883 
L 81.366877 204.973211 
L 81.405836 151.586187 
L 81.419904 55.219307 
L 81.512972 178.058021 
L 81.742394 243.752952 
L 81.821935 244.972661 
L 81.865222 244.641265 
L 81.866304 244.661448 
L 81.932858 243.779884 
L 82.498839 226.386446 
L 82.567017 221.242781 
L 82.665495 204.048312 
L 82.702289 148.323225 
L 82.716358 55.157022 
L 82.809425 178.460498 
L 83.038848 243.820393 
L 83.10919 244.925982 
L 83.163299 244.629115 
L 83.333743 241.600269 
L 83.813149 225.08993 
L 83.972771 198.190903 
L 84.000367 118.28483 
L 84.011188 55.220324 
L 84.105879 179.159269 
L 84.326644 243.542044 
L 84.401315 244.999357 
L 84.466787 244.649234 
L 84.467869 244.658682 
L 84.526307 243.773492 
L 84.744367 239.384214 
L 84.744908 239.384672 
L 84.745449 239.385415 
L 84.751942 239.220975 
L 84.753024 239.221486 
L 85.173452 221.824247 
L 85.269766 207.153192 
L 85.313053 165.352946 
L 85.329827 55.420086 
L 85.421271 177.007623 
L 85.652858 243.530865 
L 85.653399 243.527202 
L 85.672337 244.149027 
L 85.724823 244.801311 
L 85.791377 244.362838 
L 86.123066 237.525033 
L 86.25888 233.508522 
L 86.59598 197.819635 
L 86.623034 118.547475 
L 86.633856 55.428541 
L 86.728547 178.863353 
L 86.957428 243.714253 
L 87.035887 244.962611 
L 87.110016 244.288455 
L 87.337815 239.986787 
L 87.519081 235.182715 
L 87.81614 219.277177 
L 87.921652 185.200436 
L 87.946543 55.402352 
L 88.037446 176.898182 
L 88.265786 243.44355 
L 88.346409 244.76711 
L 88.389155 244.536968 
L 88.389696 244.5479 
L 88.457332 243.686043 
L 88.671604 239.24653 
L 88.672687 239.260637 
L 88.716515 238.151104 
L 89.104477 221.296358 
L 89.222976 193.210791 
L 89.248948 68.417331 
L 89.254359 55.512175 
L 89.339852 173.469438 
L 89.584425 243.854398 
L 89.65152 244.831882 
L 89.724026 244.37052 
L 89.950202 240.24471 
L 89.725108 244.376126 
L 89.950743 240.247696 
L 90.155817 234.970062 
L 90.460992 217.487986 
L 90.546484 191.771957 
L 90.576785 55.4739 
L 90.670394 178.383108 
L 90.908474 243.977866 
L 90.974487 244.968021 
L 91.049158 244.420959 
L 91.182266 242.184819 
L 91.548044 232.841512 
L 91.760692 221.00881 
L 91.87865 191.06448 
L 91.907869 55.48557 
L 92.001478 178.142133 
L 92.234147 243.678146 
L 92.315311 244.928562 
L 92.380241 244.421156 
L 92.570164 241.111673 
L 92.754676 236.762198 
L 93.06905 222.742536 
L 93.178351 206.549269 
L 93.219473 166.522559 
L 93.236788 55.576777 
L 93.327692 176.676888 
L 93.561443 243.565066 
L 93.638278 244.845726 
L 93.714572 244.204676 
L 93.85742 241.83322 
L 93.975919 239.202069 
L 94.44288 217.759498 
L 94.529996 192.331457 
L 94.560838 55.482671 
L 94.654988 178.65774 
L 94.883869 243.593271 
L 94.963409 244.845477 
L 95.011567 244.56381 
L 95.380591 237.16598 
L 95.381132 237.181943 
L 95.594863 229.871815 
L 95.768012 217.205143 
L 95.852963 189.766658 
L 95.8811 55.477003 
L 95.974167 177.933733 
L 96.199802 243.499759 
L 96.281507 244.907986 
L 96.336698 244.547397 
L 96.70464 237.307578 
L 96.338321 244.552295 
L 96.705181 237.322928 
L 96.780393 235.178087 
L 97.154828 205.379358 
L 97.194327 156.735237 
L 97.209478 55.525076 
L 97.302004 177.633622 
L 97.537379 243.798982 
L 97.609344 244.878507 
L 97.664535 244.542996 
L 98.377152 221.852839 
L 98.496192 197.456817 
L 98.523788 104.829009 
L 98.533527 55.368765 
L 98.628218 179.069007 
L 98.857641 243.873591 
L 98.929606 245.05183 
L 98.99129 244.675224 
L 99.136303 242.262085 
L 99.136844 242.272803 
L 99.301876 238.73896 
L 99.302417 238.739998 
L 99.311616 238.531085 
L 99.671983 224.972946 
L 99.814831 205.491907 
L 99.854871 155.148826 
L 99.870022 55.41903 
L 99.962007 177.500001 
L 100.189265 243.561103 
L 100.261772 244.999121 
L 100.316422 244.749258 
L 100.557207 240.417889 
L 100.557748 240.426157 
L 100.602659 239.414992 
L 100.6032 239.419071 
L 100.628631 238.78437 
L 100.629172 238.78952 
L 100.879697 231.010923 
L 100.880239 231.014629 
L 100.894307 230.381688 
L 101.140503 204.121668 
L 101.177297 151.241387 
L 101.191907 55.505322 
L 101.284433 177.786334 
L 101.51602 243.56323 
L 101.590691 244.825749 
L 101.67943 244.04952 
L 101.824983 241.321651 
L 101.866647 240.438877 
L 102.369862 219.441239 
L 102.455895 202.319119 
L 102.489984 136.469226 
L 102.502429 55.531144 
L 102.596579 178.451112 
L 102.833036 243.800303 
L 102.90446 244.885082 
L 102.968849 244.452719 
L 103.183121 240.756181 
L 103.401181 235.271231 
L 103.746938 213.35884 
L 103.812951 180.357514 
L 103.835136 55.583025 
L 103.925498 176.415668 
L 104.150051 243.104987 
L 104.239872 244.728171 
L 104.284783 244.460258 
L 104.493644 240.886306 
L 104.538013 239.86653 
L 104.733888 234.779147 
L 104.734429 234.796448 
L 104.875654 229.40209 
L 105.066659 212.862603 
L 105.130508 179.005194 
L 105.15161 55.573067 
L 105.242513 176.496293 
L 105.469231 243.179719 
L 105.549312 244.783654 
L 105.605585 244.408145 
L 105.606668 244.411475 
L 105.962164 237.244876 
L 106.403695 207.081069 
L 106.4459 169.057692 
L 106.463756 55.446848 
L 106.554659 176.819461 
L 106.781376 243.439425 
L 106.866868 244.95325 
L 106.915567 244.673657 
L 107.127133 241.067676 
L 107.127674 241.071845 
L 107.15527 240.431602 
L 107.517801 229.440341 
L 107.753716 198.63917 
L 107.782394 116.495817 
L 107.793216 55.622068 
L 107.887907 178.727215 
L 108.125987 243.638556 
L 108.200657 244.653513 
L 108.263965 244.147056 
L 108.938705 223.268076 
L 109.052335 207.334956 
L 109.097245 161.609942 
L 109.113478 55.526675 
L 109.204922 177.018154 
L 109.426769 243.107088 
L 109.516591 244.794642 
L 109.569076 244.451381 
L 109.773068 240.930967 
L 109.773609 240.935232 
L 109.802828 240.29156 
L 110.129647 230.79367 
L 110.32498 217.294735 
L 110.407767 192.411349 
L 110.43374 64.055908 
L 110.438609 55.415224 
L 110.517609 169.85051 
L 110.745949 242.996317 
L 110.836311 245.06232 
L 110.884468 244.793961 
L 110.885009 244.810676 
L 110.961844 243.764133 
L 111.640913 219.065337 
L 111.732358 197.558106 
L 111.759412 114.559956 
L 111.769693 55.582982 
L 111.864925 178.92521 
L 112.08569 243.142411 
L 112.169018 244.750702 
L 112.230161 244.372948 
L 112.432529 240.812743 
L 112.677103 234.436018 
L 112.86919 226.157122 
L 112.95847 218.876479 
L 113.054784 192.565838 
L 113.080215 67.79616 
L 113.085626 55.55292 
L 113.170036 172.883818 
L 113.408116 243.522617 
L 113.408657 243.520295 
L 113.500643 244.871543 
L 113.539601 244.617502 
L 113.741428 241.260816 
L 113.758202 240.917489 
L 114.014679 234.353549 
L 114.026583 234.007871 
L 114.336087 211.91554 
L 114.397231 172.937907 
L 114.416169 55.512596 
L 114.507072 176.700334 
L 114.7392 243.608248 
L 114.812788 244.894466 
L 114.889082 244.333501 
L 115.07143 241.058073 
L 115.072512 241.059758 
L 115.273257 236.241426 
L 115.694225 202.782903 
L 115.728855 141.571372 
L 115.741841 55.499599 
L 115.83545 178.215254 
L 116.07353 243.918131 
L 116.144413 244.899722 
L 116.209885 244.43508 
L 116.40576 240.943543 
L 116.837551 227.07885 
L 116.986892 212.536732 
L 117.047494 181.940823 
L 117.07022 55.567951 
L 117.161123 176.627981 
L 117.383511 243.089574 
L 117.478202 244.777 
L 117.516079 244.540147 
L 118.12697 229.141432 
L 118.345571 204.277197 
L 118.382906 151.008851 
L 118.396975 55.572833 
L 118.490042 177.723305 
L 118.724335 243.568743 
L 118.791971 244.690062 
L 118.859066 244.243683 
L 119.25785 235.766907 
L 119.653929 205.72208 
L 119.695052 153.048189 
L 119.709661 55.574163 
L 119.802188 177.490589 
L 120.024576 243.155915 
L 120.101952 244.873865 
L 120.170671 244.552178 
L 120.364381 241.248866 
L 120.364922 241.251417 
L 120.382778 240.815034 
L 120.938479 215.930009 
L 121.015313 188.573192 
L 121.042368 55.556432 
L 121.134895 177.479672 
L 121.366481 243.607019 
L 121.448727 244.908465 
L 121.490391 244.628819 
L 121.648931 242.052105 
L 121.649472 242.06864 
L 121.714403 240.659752 
L 121.814505 238.421635 
L 122.273891 213.652759 
L 122.339904 183.127398 
L 122.363171 55.423227 
L 122.454074 176.735228 
L 122.684038 243.590517 
L 122.756003 244.990319 
L 122.827427 244.475094 
L 122.996788 241.549765 
L 123.57305 217.324773 
L 123.656378 192.854916 
L 123.682892 64.45572 
L 123.687761 55.646256 
L 123.767302 170.001675 
L 123.999971 242.874757 
L 124.089251 244.596356 
L 124.146607 244.212997 
L 124.336529 240.878801 
L 124.337071 240.881728 
L 124.357632 240.396183 
L 124.876538 218.095008 
L 124.966359 192.192437 
L 124.992873 61.303974 
L 124.99666 55.475673 
L 125.069708 165.850397 
L 125.295884 242.40912 
L 125.39815 244.912237 
L 125.438732 244.684104 
L 125.439814 244.684996 
L 125.91922 234.545785 
L 126.194636 219.483662 
L 126.287703 198.937136 
L 126.316922 115.72757 
L 126.327744 55.545804 
L 126.422435 178.947662 
L 126.648611 243.45842 
L 126.731939 244.842166 
L 126.78226 244.547268 
L 126.955951 241.525063 
L 126.957033 241.538272 
L 126.957574 241.548425 
L 127.011683 240.477405 
L 127.490007 222.52863 
L 127.607424 202.523774 
L 127.640972 145.934026 
L 127.654499 55.453694 
L 127.748108 178.181986 
L 127.974284 243.467608 
L 128.038132 244.854054 
L 128.124166 244.366297 
L 128.294068 241.451171 
L 128.294609 241.46139 
L 128.358999 240.039009 
L 128.844358 220.123017 
L 128.949329 195.185991 
L 128.974761 93.093812 
L 128.983418 55.505472 
L 129.077568 178.533733 
L 129.307532 243.600822 
L 129.323223 244.101932 
L 129.387613 244.903627 
L 129.446051 244.483166 
L 129.653289 240.710527 
L 129.654371 240.741344 
L 129.901108 234.503782 
L 130.098607 225.801701 
L 130.265263 200.775358 
L 130.296646 130.412732 
L 130.30855 55.523104 
L 130.403241 178.802551 
L 130.629958 243.430789 
L 130.710039 244.852329 
L 130.781463 244.403843 
L 130.946496 241.506956 
L 130.981126 240.811949 
L 131.174836 236.152384 
L 131.298746 231.974331 
L 131.600134 194.498834 
L 131.625565 84.280629 
L 131.63314 55.518103 
L 131.725667 177.517949 
L 131.946432 243.112652 
L 132.025972 244.792867 
L 132.110924 244.183132 
L 132.113629 244.188087 
L 132.199121 242.86361 
L 132.372812 239.358517 
L 132.373353 239.363435 
L 132.860335 215.663072 
L 132.938793 183.377762 
L 132.96206 55.48489 
L 133.053504 176.888276 
L 133.281844 243.460321 
L 133.358138 244.918597 
L 133.420905 244.495454 
L 133.423069 244.497087 
L 134.056687 227.305992 
L 134.21198 211.837598 
L 134.270417 179.488308 
L 134.292061 55.528449 
L 134.382423 176.408071 
L 134.61401 243.446924 
L 134.706537 244.783712 
L 134.745495 244.51795 
L 134.789865 243.979522 
L 135.480297 220.259814 
L 135.586892 195.155962 
L 135.612323 92.728061 
L 135.62098 55.447997 
L 135.714589 178.307286 
L 135.940765 243.432178 
L 136.014353 244.871072 
L 136.078202 244.473524 
L 136.247564 241.682878 
L 136.816791 218.991799 
L 136.91527 191.307569 
L 136.94503 55.45911 
L 137.038639 178.43113 
L 137.270767 243.736497 
L 137.354095 244.898113 
L 137.438505 244.198722 
L 138.085108 224.849357 
L 138.229039 204.218159 
L 138.265833 153.442383 
L 138.280442 55.636307 
L 138.372969 177.383524 
L 138.601309 243.219626 
L 138.69113 244.600828 
L 138.774999 243.818251 
L 138.966545 240.147534 
L 138.967087 240.160656 
L 139.02336 238.829672 
L 139.304186 230.053117 
L 139.513588 212.239982 
L 139.576896 170.608266 
L 139.595293 55.450505 
L 139.686196 176.833767 
L 139.919948 243.737795 
L 139.920489 243.737242 
L 139.924276 243.877976 
L 139.983255 244.94084 
L 140.04494 244.578733 
L 140.257047 240.895744 
L 140.41234 237.423892 
L 140.863069 205.804258 
L 140.903651 157.685726 
L 140.918801 55.534909 
L 141.011328 177.467758 
L 141.245079 243.709507 
L 141.314339 244.870969 
L 141.380352 244.481979 
L 141.649274 239.501474 
L 141.649815 239.502815 
L 141.659014 239.248971 
L 141.659555 239.249302 
L 142.114071 219.315091 
L 142.213632 192.954771 
L 142.239604 66.548325 
L 142.245015 55.346512 
L 142.327802 172.235153 
L 142.553978 243.243898 
L 142.642176 245.082755 
L 142.697908 244.788034 
L 142.698991 244.791575 
L 142.714682 244.598618 
L 142.861318 242.126534 
L 142.92679 240.76893 
L 143.128076 235.736114 
L 143.527942 203.448547 
L 143.563654 145.804453 
L 143.577181 55.450805 
L 143.67079 178.243393 
L 143.897507 243.59392 
L 143.972177 244.957935 
L 144.023581 244.725293 
L 144.025204 244.735772 
L 144.22162 241.377383 
L 144.222161 241.388815 
L 144.276812 240.193874 
L 144.277894 240.201849 
L 144.304948 239.568244 
L 144.324428 239.146819 
L 144.498118 234.343907 
L 144.523008 233.531041 
L 144.791389 216.696873 
L 144.874176 188.341474 
L 144.901231 55.531608 
L 144.993757 177.633197 
L 145.220474 243.375936 
L 145.304884 244.858265 
L 145.364945 244.353751 
L 145.379014 244.209306 
L 146.054836 222.854833 
L 146.138705 212.775433 
L 146.20039 182.231464 
L 146.223116 55.516782 
L 146.314019 176.536551 
L 146.549935 243.651324 
L 146.630557 244.803627 
L 146.678173 244.480614 
L 146.872425 241.193389 
L 146.874048 241.19405 
L 147.068841 236.604766 
L 147.501172 202.693488 
L 147.535802 139.218686 
L 147.548788 55.470954 
L 147.642397 178.439971 
L 147.86695 243.336985 
L 147.959476 244.84647 
L 147.993024 244.604155 
L 148.024948 244.216419 
L 148.276556 239.484705 
L 148.647744 226.524302 
L 148.841455 190.154021 
L 148.870132 55.497713 
L 148.9632 178.000578 
L 149.195869 243.672998 
L 149.200739 243.835442 
L 149.267293 244.811689 
L 149.325731 244.483359 
L 149.388497 243.636706 
L 150.036724 222.146526 
L 150.160634 196.849972 
L 150.186607 113.47934 
L 150.196887 55.414731 
L 150.292119 179.266233 
L 150.529117 243.973013 
L 150.599459 244.94599 
L 150.653027 244.60309 
L 150.860265 240.958396 
L 150.861888 240.960019 
L 151.061009 236.124084 
L 151.248768 229.345018 
L 151.482519 199.371341 
L 151.511738 124.116931 
L 151.523101 55.467004 
L 151.617792 178.83485 
L 151.840721 243.333884 
L 151.938659 244.899435 
L 151.974912 244.605872 
L 152.131828 242.119543 
L 152.132369 242.12005 
L 152.132911 242.120709 
L 152.139404 241.958433 
L 152.238964 239.920537 
L 152.239505 239.926419 
L 152.42023 235.294037 
L 152.776809 211.503911 
L 152.831459 183.050687 
L 152.854726 55.531523 
L 152.945629 176.635672 
L 153.173969 243.410527 
L 153.261626 244.82388 
L 153.321146 244.393503 
L 153.445056 242.393472 
L 154.021859 221.910123 
L 154.14144 197.712798 
L 154.168495 117.538901 
L 154.179316 55.555181 
L 154.274007 178.838699 
L 154.513711 244.007363 
L 154.514252 243.982559 
L 154.580806 244.893302 
L 154.637079 244.523433 
L 155.101876 234.310774 
L 155.442764 208.107544 
L 155.488756 168.570477 
L 155.506612 55.606016 
L 155.597516 176.604453 
L 155.820986 243.080663 
L 155.905396 244.833151 
L 155.965999 244.47868 
L 156.563904 228.733835 
L 156.735971 213.796115 
L 156.802525 183.808971 
L 156.826333 55.57947 
L 156.917236 176.555644 
L 157.15207 243.463404 
L 157.23161 244.674624 
L 157.294377 244.190533 
L 157.295459 244.202082 
L 157.308445 244.023044 
L 157.495663 240.602821 
L 157.496204 240.607954 
L 157.617408 237.709554 
L 158.083828 206.360992 
L 158.126575 154.91038 
L 158.141725 55.54987 
L 158.233711 177.399397 
L 158.459887 243.319208 
L 158.460428 243.318345 
L 158.464215 243.491704 
L 158.552413 244.851524 
L 158.586502 244.578926 
L 158.874362 239.422462 
L 158.901417 238.797689 
L 159.397056 210.831408 
L 159.453329 172.322442 
L 159.472268 55.601607 
L 159.56263 176.362777 
L 159.798004 243.48051 
L 159.869428 244.708746 
L 159.942476 244.169834 
L 160.005242 243.309215 
L 160.626415 222.564257 
L 160.743831 202.771274 
L 160.778461 141.561168 
L 160.791447 55.490448 
L 160.885056 178.182521 
L 161.107985 243.283024 
L 161.19943 244.874402 
L 161.242717 244.630335 
L 161.496489 240.018879 
L 161.49703 240.028228 
L 161.543023 238.923862 
L 161.91854 225.112007 
L 162.072751 201.842742 
L 162.105757 136.596055 
L 162.118202 55.55556 
L 162.212352 178.41624 
L 162.451514 243.810511 
L 162.452055 243.809733 
L 162.456925 243.981747 
L 162.524561 244.8048 
L 162.577047 244.349826 
L 162.607348 243.964676 
L 162.607889 243.966752 
L 162.82649 239.798679 
L 162.922263 237.539445 
L 163.279924 221.866372 
L 163.397882 197.988612 
L 163.425478 114.69691 
L 163.435759 55.364729 
L 163.530991 179.155032 
L 163.752838 243.525607 
L 163.837789 245.073127 
L 163.920035 244.306246 
L 164.316655 235.874671 
L 164.731671 197.10365 
L 164.758185 112.111763 
L 164.768465 55.575472 
L 164.863156 178.672064 
L 165.082839 243.051593 
L 165.170496 244.75994 
L 165.227852 244.406623 
L 165.459439 240.202723 
L 165.45998 240.211864 
L 165.460521 240.215509 
L 165.48487 239.627464 
L 165.98105 216.413145 
L 166.066001 181.52257 
L 166.088727 55.601848 
L 166.179089 176.37305 
L 166.410676 243.442352 
L 166.49184 244.806274 
L 166.544867 244.448079 
L 166.545949 244.459472 
L 166.5611 244.281219 
L 166.843549 238.714756 
L 166.854371 238.503126 
L 167.089745 231.259253 
L 167.105437 230.615071 
L 167.365161 201.393881 
L 167.397085 137.809891 
L 167.410071 55.540944 
L 167.50368 178.341689 
L 167.734185 243.47939 
L 167.806691 244.697907 
L 167.859718 244.403183 
L 168.409466 231.144322 
L 168.410007 231.146246 
L 168.621033 215.790891 
L 168.695703 190.189157 
L 168.724381 55.503464 
L 168.817449 178.001172 
L 169.04633 243.531439 
L 169.137233 244.819075 
L 169.183767 244.492067 
L 169.763817 229.858586 
L 169.910993 220.094247 
L 170.006767 200.584696 
L 170.037609 132.393983 
L 170.049513 55.573747 
L 170.144204 178.626651 
L 170.362804 243.052398 
L 170.448297 244.785428 
L 170.501324 244.512919 
L 170.781068 239.341974 
L 171.061894 230.816946 
L 171.117626 228.217266 
L 171.246947 218.38613 
L 171.337309 194.03439 
L 171.362199 83.973965 
L 171.369775 55.548012 
L 171.462301 177.499543 
L 171.695511 243.574087 
L 171.78425 244.85661 
L 171.841065 244.316995 
L 171.841606 244.318986 
L 171.864332 243.993572 
L 171.865955 243.993246 
L 172.047761 240.566992 
L 172.048303 240.573854 
L 172.088884 239.697261 
L 172.6224 210.875475 
L 172.67705 177.234389 
L 172.697612 55.429582 
L 172.787974 176.473816 
L 173.036876 244.27426 
L 173.094772 244.997322 
L 173.156457 244.592323 
L 173.157539 244.604868 
L 173.191628 244.143394 
L 173.874484 221.457541 
L 173.977292 203.910779 
L 174.014086 147.729787 
L 174.028154 55.60068 
L 174.121222 177.937313 
L 174.352809 243.576167 
L 174.437219 244.78703 
L 174.486999 244.411919 
L 174.70073 240.624688 
L 175.035124 230.926684 
L 175.30567 199.034669 
L 175.334889 117.319234 
L 175.345711 55.507562 
L 175.440401 178.795394 
L 175.66279 243.274795 
L 175.685516 244.058493 
L 175.74233 244.80918 
L 175.81159 244.39161 
L 175.825117 244.243512 
L 176.347811 231.483531 
L 176.617274 205.015799 
L 176.655151 160.481588 
L 176.670842 55.62148 
L 176.762828 177.057574 
L 176.990627 243.328601 
L 177.073414 244.744024 
L 177.13618 244.239496 
L 177.137804 244.259778 
L 177.746531 227.613055 
L 177.888838 215.019382 
L 177.956474 191.477065 
L 177.986234 55.249751 
L 178.080384 178.884006 
L 178.314135 244.225033 
L 178.379607 245.252527 
L 178.443997 244.938847 
L 178.878493 236.057102 
L 179.294051 201.037867 
L 179.325434 136.086849 
L 179.337879 55.537581 
L 179.432029 178.493645 
L 179.665239 243.753585 
L 179.750191 244.849748 
L 179.797265 244.447985 
L 179.798889 244.464789 
L 180.415191 228.020868 
L 180.540724 218.403223 
L 180.628922 196.007163 
L 180.654895 99.941518 
L 180.664093 55.564448 
L 180.758784 178.688592 
L 180.983878 243.397657 
L 181.065041 244.85031 
L 181.116445 244.585092 
L 181.509818 236.696077 
L 181.920506 210.582947 
L 181.971369 182.686007 
L 181.994636 55.5543 
L 182.085539 176.706947 
L 182.318208 243.549567 
L 182.404783 244.856102 
L 182.464303 244.396689 
L 182.639075 241.364511 
L 182.639616 241.365799 
L 182.653143 241.115405 
L 182.878237 235.692501 
L 183.208303 217.679056 
L 183.293254 193.962064 
L 183.318685 78.422312 
L 183.325719 55.567866 
L 183.416623 176.577506 
L 183.639552 243.134486 
L 183.727209 244.827093 
L 183.776989 244.484959 
L 183.779153 244.49062 
L 183.814865 244.101119 
L 183.989638 241.049761 
L 184.260183 234.403121 
L 184.615139 206.468551 
L 184.658426 156.025286 
L 184.673577 55.921609 
L 184.766103 177.136522 
L 184.998772 243.31176 
L 185.104826 244.827172 
L 185.156771 244.420275 
L 185.157312 244.424104 
L 185.195188 243.916873 
L 185.195729 243.919851 
L 185.199517 243.925377 
L 185.383488 241.295442 
L 185.384029 241.298816 
L 185.413248 240.780915 
L 185.593972 237.449768 
L 185.594513 237.457664 
L 185.595055 237.461631 
L 185.623191 236.858343 
L 186.007907 223.056828 
L 186.164282 184.877935 
L 186.189172 57.117315 
L 186.281158 175.487614 
L 186.51058 241.627225 
L 186.627456 244.075714 
L 186.670743 243.99756 
L 186.672908 244.012625 
L 186.716736 243.794117 
L 186.717277 243.804538 
L 186.721606 243.82303 
L 186.868241 242.765093 
L 186.869865 242.771067 
L 186.928303 242.323826 
L 186.930467 242.327862 
L 187.098746 241.135797 
L 187.099828 241.153735 
L 187.100911 241.170196 
L 187.185862 240.581646 
L 187.33358 239.488702 
L 187.335203 239.492953 
L 187.376326 239.21532 
L 187.539194 237.847099 
L 187.539735 237.855264 
L 187.540276 237.868275 
L 187.618193 237.104809 
L 187.619817 237.123474 
L 187.623604 237.125324 
L 188.283194 223.35727 
L 188.442816 200.979673 
L 188.475281 140.431843 
L 188.488268 59.406075 
L 188.582417 173.99023 
L 188.825367 239.222859 
L 188.991482 242.843479 
L 189.124049 243.77834 
L 189.124591 243.754084 
L 189.126214 243.752624 
L 189.354554 245.922866 
L 189.355095 245.908872 
L 189.428684 246.868782 
L 189.429225 246.858084 
L 189.591011 249.168141 
L 189.591552 249.16717 
L 189.592093 249.163664 
L 189.622935 249.6911 
L 189.796625 252.556641 
L 189.879953 254.149748 
L 190.004945 256.529231 
L 190.175389 259.989199 
L 190.216512 260.78553 
L 190.498961 266.5399 
L 190.499503 266.529331 
L 190.555235 267.602533 
L 190.799267 272.300855 
L 190.799808 272.297865 
L 190.861492 273.360548 
L 191.055203 276.533976 
L 191.055744 276.524282 
L 191.115805 277.416763 
L 191.308433 280.067878 
L 191.311139 280.045905 
L 191.453987 281.700662 
L 191.595753 283.039123 
L 191.455069 281.696121 
L 191.598458 283.014723 
L 191.598999 283.006903 
L 191.670423 283.577112 
L 191.675834 283.568741 
L 191.833833 284.823113 
L 191.836538 284.788461 
L 191.928524 285.484849 
L 192.076241 286.269711 
L 191.929606 285.475036 
L 192.079488 286.26048 
L 192.080029 286.239952 
L 192.177967 286.741197 
L 192.178508 286.722811 
L 192.271575 287.203887 
L 192.275904 287.186343 
L 192.276445 287.174429 
L 192.367348 287.583166 
L 192.368972 287.548973 
L 192.487471 288.015879 
L 192.488553 287.99875 
L 192.617332 288.409224 
L 192.491799 287.988786 
L 192.618956 288.386933 
L 192.628154 288.363494 
L 192.663325 288.553577 
L 192.666031 288.553294 
L 192.775331 288.896868 
L 192.667654 288.530766 
L 192.784529 288.893471 
L 192.78994 288.864433 
L 192.880303 289.122053 
L 192.881926 289.113057 
L 192.88409 289.092525 
L 193.07726 289.656304 
L 193.081047 289.638002 
L 193.175738 289.912103 
L 193.176279 289.909557 
L 193.311011 290.198504 
L 193.184937 289.891881 
L 193.313175 290.191307 
L 193.313716 290.167021 
L 193.415441 290.473427 
L 193.418688 290.443681 
L 193.428969 290.442831 
L 193.43438 290.51356 
L 193.457105 290.546618 
L 193.577769 290.838795 
L 193.463057 290.5309 
L 193.582639 290.797961 
L 193.586967 290.772073 
L 193.651357 290.96315 
L 193.652439 290.957826 
L 193.773103 291.29912 
L 193.656227 290.950832 
L 193.778513 291.274433 
L 193.779596 291.254527 
L 193.872122 291.567728 
L 193.87591 291.541608 
L 193.991162 291.758692 
L 193.892684 291.537084 
L 193.992244 291.754339 
L 193.996032 291.731281 
L 194.092887 292.082914 
L 194.094511 292.060141 
L 194.209222 292.319954 
L 194.217338 292.289923 
L 194.312029 292.590308 
L 194.313111 292.573119 
L 194.31744 292.544498 
L 194.435398 292.89155 
L 194.43648 292.845284 
L 194.536041 293.123899 
L 194.540369 293.117739 
L 194.566883 293.079891 
L 194.643718 293.246677 
L 194.645341 293.218675 
L 194.763299 293.498557 
L 194.770333 293.467551 
L 194.865565 293.619485 
L 194.868812 293.607436 
L 194.978112 293.759955 
L 194.873681 293.60405 
L 194.993263 293.751393 
L 194.99705 293.735189 
L 195.07118 293.916214 
L 195.089577 293.860016 
L 195.212404 294.078272 
L 195.091741 293.839832 
L 195.218356 294.061947 
L 195.23513 294.027601 
L 195.306013 294.157778 
L 195.322787 294.118113 
L 195.330362 294.071869 
L 195.436957 294.26416 
L 195.452108 294.236859 
L 195.528943 294.402154 
L 195.541388 294.361241 
L 195.656099 294.574461 
L 195.552751 294.324199 
L 195.65664 294.548394 
L 195.663133 294.531952 
L 195.755119 294.684185 
L 195.756742 294.668159 
L 195.868207 294.744298 
L 195.834659 294.640834 
L 195.869289 294.732899 
L 195.879028 294.690451 
L 195.95911 294.864975 
L 195.975343 294.822842 
L 196.16743 294.961821 
L 196.175546 294.89878 
L 196.176087 294.879639 
L 196.277271 295.044204 
L 196.282682 295.017708 
L 196.395229 295.125772 
L 196.284847 294.976939 
L 196.399017 295.108211 
L 196.466112 295.074566 
L 196.488838 295.179934 
L 196.507235 295.14865 
L 196.617617 295.301132 
L 196.510481 295.144081 
L 196.635473 295.236101 
L 196.656035 295.179302 
L 196.729623 295.322359 
L 196.740445 295.289449 
L 196.790767 295.241081 
L 196.853533 295.334394 
L 196.899526 295.280675 
L 196.955258 295.416196 
L 196.963916 295.366056 
L 197.002874 295.442158 
L 197.04562 295.322341 
L 197.074839 295.359192 
L 197.076463 295.383576 
L 197.153839 295.272547 
L 197.183599 295.305876 
L 197.237708 295.277628 
L 197.247988 295.400159 
L 197.291817 295.338872 
L 197.391377 295.409109 
L 197.29344 295.328346 
L 197.403823 295.384749 
L 197.453603 295.472771 
L 197.405987 295.37247 
L 197.516369 295.438987 
L 197.613766 295.322106 
L 197.520157 295.488 
L 197.629457 295.354746 
L 197.724689 295.414619 
L 197.65056 295.33665 
L 197.742004 295.391594 
L 197.775552 295.342039 
L 197.792867 295.458243 
L 197.853469 295.377935 
L 197.903791 295.457749 
L 197.876195 295.361046 
L 197.964934 295.410559 
L 198.002269 295.435881 
L 198.044474 295.323935 
L 198.066659 295.370213 
L 198.158644 295.280854 
L 198.178665 295.306562 
L 198.247383 295.333375 
L 198.234397 295.245158 
L 198.287424 295.25195 
L 198.39456 295.186744 
L 198.293376 295.285184 
L 198.398348 295.25516 
L 198.432436 295.29288 
L 198.495744 295.164836 
L 198.50386 295.195529 
L 198.535244 295.131774 
L 198.606127 295.227085 
L 198.614784 295.201401 
L 198.715968 295.048042 
L 198.615866 295.203554 
L 198.730577 295.082915 
L 198.759796 295.139757 
L 198.821481 295.0036 
L 198.827433 295.027233 
L 198.90535 294.903608 
L 198.941062 294.939629 
L 198.98489 294.983697 
L 199.03954 294.887334 
L 199.050903 294.899755 
L 199.096896 295.034806 
L 199.166156 294.832273 
L 199.225135 294.962475 
L 199.273292 294.808399 
L 199.276538 294.825265 
L 199.303052 294.891313 
L 199.391249 294.73832 
L 199.392873 294.799251 
L 199.405318 294.695062 
L 199.501632 294.744329 
L 199.572515 294.636574 
L 199.613638 294.668855 
L 199.61472 294.711401 
L 199.717527 294.585935 
L 199.723479 294.625992 
L 199.861999 294.50326 
L 199.726185 294.64162 
L 199.865786 294.515205 
L 199.898793 294.559853 
L 199.958854 294.445762 
L 199.975087 294.463006 
L 200.066531 294.314341 
L 199.977792 294.482248 
L 200.093585 294.346165 
L 200.12064 294.37124 
L 200.162304 294.264627 
L 200.202886 294.317513 
L 200.301905 294.175668 
L 200.213708 294.361572 
L 200.318679 294.197864 
L 200.340864 294.239881 
L 200.406877 294.111727 
L 200.407418 294.129756 
L 200.521047 293.970183 
L 200.550266 294.041533 
L 200.629265 293.960195 
L 200.632512 293.992729 
L 200.734237 293.852687 
L 200.634676 294.0064 
L 200.749388 293.917718 
L 200.751552 293.926688 
L 200.805661 293.714089 
L 200.826223 293.711352 
L 200.92903 293.616704 
L 200.874921 293.743639 
L 200.939852 293.623508 
L 201.058892 293.460929 
L 200.942557 293.653574 
L 201.059974 293.481592 
L 201.093521 293.541244 
L 201.144925 293.377458 
L 201.166569 293.407962 
L 201.280739 293.253635 
L 201.179555 293.429596 
L 201.282903 293.269735 
L 201.305088 293.309378 
L 201.370019 293.155653 
L 201.381923 293.192325 
L 201.507997 293.057452 
L 201.384628 293.219218 
L 201.509079 293.068993 
L 201.512867 293.123998 
L 201.60377 292.922967 
L 201.616756 292.944659 
L 201.634612 292.950478 
L 201.732009 292.759077 
L 201.861871 292.534783 
L 201.733091 292.789398 
L 201.863494 292.550356 
L 201.868364 292.567064 
L 201.967924 292.418043 
L 201.968465 292.440826 
L 202.081012 292.259136 
L 201.978205 292.48343 
L 202.088047 292.265121 
L 202.092916 292.29715 
L 202.193559 292.157859 
L 202.194641 292.161971 
L 202.307188 292.025758 
L 202.235764 292.197967 
L 202.341277 292.051778 
L 202.365085 292.069274 
L 202.445167 291.936227 
L 202.448954 291.972701 
L 202.539316 291.779303 
L 202.564207 291.800581 
L 202.569076 291.844773 
L 202.873711 291.425461 
L 202.973271 291.330817 
L 202.897519 291.459005 
L 202.985716 291.360022 
L 202.986799 291.370457 
L 203.053894 291.138996 
L 203.085818 291.182788 
L 203.192954 290.982719 
L 203.089606 291.204437 
L 203.203235 291.013847 
L 203.227584 291.033514 
L 203.306583 290.828095 
L 203.307124 290.834123 
L 203.347706 290.837917 
L 203.373137 290.698637 
L 203.378007 290.709473 
L 203.497047 290.484391 
L 203.391535 290.736784 
L 203.499212 290.50497 
L 203.500835 290.531032 
L 203.588492 290.308392 
L 203.603642 290.371254 
L 203.723223 290.217059 
L 203.609594 290.384159 
L 203.723764 290.218051 
L 203.725388 290.229473 
L 203.766511 290.113601 
L 203.876893 289.920368 
L 203.780038 290.155021 
L 203.88014 289.933621 
L 203.883927 289.953973 
L 203.966714 289.723299 
L 203.973207 289.747356 
L 204.089542 289.546252 
L 204.096035 289.551276 
L 204.099281 289.558974 
L 204.150144 289.426096 
L 204.172329 289.449741 
L 204.278924 289.362138 
L 204.185856 289.474098 
L 204.285417 289.375223 
L 204.289204 289.391568 
L 204.385519 289.12831 
L 204.387683 289.159452 
L 204.50023 288.909874 
L 204.395258 289.177156 
L 204.506723 288.950346 
L 204.507805 288.966713 
L 204.560291 288.785946 
L 204.596003 288.783336 
L 204.601955 288.800344 
L 204.693399 288.617339 
L 204.793501 288.413934 
L 204.702057 288.659174 
L 204.808652 288.425747 
L 204.81785 288.466353 
L 204.900096 288.272722 
L 204.915247 288.298786 
L 205.0213 288.104756 
L 204.930938 288.352289 
L 205.029958 288.142031 
L 205.034287 288.160402 
L 205.123567 287.957696 
L 205.127895 287.9812 
L 205.26425 287.73067 
L 205.13006 288.000538 
L 205.268038 287.749752 
L 205.276154 287.77156 
L 205.295633 287.638806 
L 205.297257 287.643264 
L 205.425495 287.342371 
L 205.29888 287.653025 
L 205.427119 287.374883 
L 205.436858 287.394639 
L 205.508282 287.210314 
L 205.512611 287.224472 
L 205.627322 286.908547 
L 205.514234 287.22688 
L 205.628945 286.938696 
L 205.640308 286.963361 
L 206.60345 285.03154 
L 206.714374 284.767305 
L 206.607238 285.032393 
L 206.718703 284.77929 
L 206.720867 284.788339 
L 206.810147 284.536029 
L 206.812311 284.541596 
L 206.91079 284.435903 
L 206.921071 284.448443 
L 207.024419 284.275884 
L 207.02496 284.296763 
L 207.126144 283.963445 
L 207.127767 283.991298 
L 207.379916 283.426169 
L 207.130473 284.004546 
L 207.388032 283.447114 
L 207.391279 283.479951 
L 207.468655 283.235594 
L 207.469737 283.255602 
L 207.587153 282.981528 
L 207.593105 282.996693 
L 207.725673 282.731744 
L 207.726755 282.748877 
L 207.822528 282.549907 
L 207.829562 282.582446 
L 207.950767 282.296123 
L 207.951849 282.300116 
L 207.953472 282.322271 
L 208.047081 282.024577 
L 208.049786 282.062356 
L 208.20562 281.681349 
L 208.051951 282.073708 
L 208.209408 281.698648 
L 208.211572 281.711293 
L 208.288407 281.402958 
L 208.308428 281.427938 
L 208.315462 281.430651 
L 208.437207 281.035158 
L 208.437748 281.057965 
L 208.540556 280.773353 
L 208.542179 280.79286 
L 208.686109 280.39955 
L 208.543802 280.816027 
L 208.687191 280.412425 
L 208.69152 280.43929 
L 208.773225 280.209243 
L 208.774848 280.235523 
L 208.7808 280.23891 
L 208.898758 279.843117 
L 208.901463 279.888763 
L 209.002106 279.589427 
L 209.044852 279.614089 
L 209.07353 279.485867 
L 209.189324 279.155747 
L 209.075695 279.498911 
L 209.194735 279.180781 
L 209.195276 279.184276 
L 209.267782 278.95834 
L 209.274816 278.973628 
L 209.481513 278.306375 
L 209.279686 278.99367 
L 209.4853 278.332257 
L 209.485841 278.361176 
L 209.588108 278.057574 
L 209.591354 278.061177 
L 209.595142 278.093126 
L 209.673059 277.83411 
L 209.680634 277.836632 
L 209.802921 277.448605 
L 209.805626 277.483398 
L 209.893283 277.193004 
L 209.907351 277.207866 
L 210.030179 276.867217 
L 209.911139 277.224533 
L 210.03559 276.873097 
L 210.036131 276.877473 
L 210.118377 276.637483 
L 210.424634 275.778128 
L 210.123247 276.647834 
L 210.425716 275.797265 
L 210.426257 275.807558 
L 210.518784 275.505388 
L 210.522031 275.537694 
L 210.63079 275.175023 
L 210.641071 275.203594 
L 210.641612 275.213514 
L 210.733597 274.893819 
L 210.73522 274.909082 
L 210.845062 274.635341 
L 210.739008 274.914405 
L 210.850473 274.6725 
L 210.851555 274.686194 
L 210.956527 274.29587 
L 211.201641 273.534792 
L 210.959232 274.321945 
L 211.203264 273.54947 
L 211.203805 273.561685 
L 211.30066 273.241966 
L 211.309318 273.28369 
L 211.37479 273.063864 
L 211.37966 273.08397 
L 211.495453 272.70041 
L 211.500323 272.705521 
L 211.500864 272.734051 
L 211.598801 272.404443 
L 211.605836 272.449439 
L 211.718924 272.059849 
L 211.724335 272.065246 
L 211.728663 272.106741 
L 211.794135 271.840667 
L 211.939148 271.328521 
L 211.7963 271.845594 
L 211.951052 271.350746 
L 211.952134 271.363793 
L 212.03438 271.096483 
L 212.038167 271.114127 
L 212.086865 270.936734 
L 212.087407 270.951599 
L 212.204823 270.489 
L 212.08903 270.963752 
L 212.212399 270.526817 
L 212.252439 270.384513 
L 212.370397 269.992889 
L 212.259473 270.392109 
L 212.37202 270.010521 
L 212.38176 270.016214 
L 212.457513 269.748004 
L 212.458054 269.753574 
L 212.572765 269.292452 
L 212.459677 269.765018 
L 212.579799 269.351469 
L 213.826473 264.947882 
L 213.827014 264.955831 
L 213.827555 264.957305 
L 213.865431 264.75913 
L 213.983389 264.366337 
L 213.867055 264.760532 
L 213.986636 264.38119 
L 213.987177 264.388182 
L 214.065635 264.018771 
L 214.069964 264.042571 
L 214.072128 264.046743 
L 214.193332 263.562455 
L 214.193873 263.598611 
L 214.297763 263.202448 
L 214.298845 263.205464 
L 214.468207 262.691118 
L 214.304256 263.235294 
L 214.46983 262.695104 
L 214.4747 262.713069 
L 214.557487 262.320907 
L 214.55911 262.326672 
L 214.562356 262.330185 
L 214.695465 261.876318 
L 214.69817 261.903323 
L 214.78745 261.516583 
L 214.793402 261.524794 
L 214.793943 261.528902 
L 214.865367 261.22521 
L 214.866449 261.252085 
L 214.98062 260.673331 
L 214.984407 260.687268 
L 214.984948 260.697005 
L 215.071523 260.264903 
L 215.072605 260.278175 
L 215.074228 260.287178 
L 215.126173 260.106095 
L 215.129961 260.114064 
L 215.252247 259.555462 
L 215.255494 259.56802 
L 215.256035 259.587895 
L 215.35289 259.098392 
L 215.353972 259.108545 
L 215.495197 258.509223 
L 215.355596 259.121419 
L 215.495738 258.512452 
L 215.503313 258.543393 
L 215.593135 258.126195 
L 215.594758 258.128778 
L 215.596381 258.150634 
L 215.993542 256.268235 
L 216.1115 255.799848 
L 215.994624 256.280651 
L 216.115828 255.804097 
L 216.116369 255.818946 
L 216.206191 255.392519 
L 216.212143 255.4069 
L 216.564934 253.599301 
L 216.565475 253.619256 
L 216.659084 252.981772 
L 216.659625 253.012631 
L 216.799226 252.162086 
L 216.799767 252.164383 
L 216.801932 252.184973 
L 216.87552 251.687659 
L 216.879849 251.715274 
L 216.907444 251.545273 
L 217.040553 250.607188 
L 216.909068 251.554641 
L 217.043258 250.611104 
L 217.627636 246.313391 
L 217.045423 250.620442 
L 217.628719 246.332027 
L 217.754252 245.13724 
L 217.769943 244.994719 
L 217.770484 245.001802 
L 217.901428 243.673296 
L 217.901969 243.676182 
L 217.902511 243.688333 
L 217.974476 242.829655 
L 218.143296 240.558314 
L 218.143837 240.592407 
L 218.232576 239.205543 
L 218.734167 223.151036 
L 218.881885 190.066232 
L 218.910563 55.977871 
L 219.004172 177.454093 
L 219.234135 242.482691 
L 219.251991 243.120067 
L 219.332614 244.100936 
L 219.383476 243.847239 
L 219.3851 243.84779 
L 219.8315 237.356344 
L 220.300084 215.273483 
L 220.375837 185.877643 
L 220.401268 56.14327 
L 220.493254 176.485059 
L 220.7243 242.504426 
L 220.810333 244.148596 
L 220.886086 243.810052 
L 221.137152 240.438817 
L 221.138234 240.452783 
L 221.152303 240.181253 
L 221.324911 237.023341 
L 221.325993 237.025333 
L 221.455313 233.860586 
L 221.775098 215.457127 
L 221.853556 183.118667 
L 221.876823 56.121583 
L 221.968268 176.10439 
L 222.199313 242.545065 
L 222.306991 244.283927 
L 222.342161 244.033889 
L 222.343244 244.041061 
L 222.661405 239.563142 
L 223.223599 217.043692 
L 223.31342 184.438732 
L 223.337769 56.185338 
L 223.429213 176.151763 
L 223.661341 242.588827 
L 223.771724 244.227644 
L 223.796073 244.051058 
L 223.931887 242.40978 
L 223.932428 242.423287 
L 224.5931 222.849524 
L 224.713763 204.568263 
L 224.751639 155.388198 
L 224.76679 56.183784 
L 224.859316 176.752693 
L 225.090903 242.612395 
L 225.185053 244.16086 
L 225.244573 243.78927 
L 225.995066 223.721451 
L 226.124928 205.102845 
L 226.163345 159.510341 
L 226.179037 55.945841 
L 226.271023 176.773214 
L 226.507479 243.152421 
L 226.598383 244.483592 
L 226.6368 244.274441 
L 226.849449 241.304371 
L 226.84999 241.33022 
L 226.930071 239.893652 
L 227.089693 236.47636 
L 227.090234 236.48535 
L 227.135145 235.390793 
L 227.191959 233.727869 
L 227.560983 197.312247 
L 227.588038 111.679094 
L 227.598319 56.02778 
L 227.693009 178.169268 
L 227.927843 243.109209 
L 227.928384 243.095724 
L 227.991151 244.271983 
L 227.992233 244.270025 
L 228.010089 244.34751 
L 228.079889 243.854406 
L 228.24384 241.421085 
L 228.244381 241.431654 
L 228.683747 230.326584 
L 228.940224 203.063563 
L 228.974854 148.69143 
L 228.988922 55.884623 
L 229.08199 177.504545 
L 229.313577 243.245141 
L 229.389871 244.73423 
L 229.46887 244.330185 
L 229.715607 240.392771 
L 229.716148 240.416005 
L 229.791901 238.900346 
L 229.792442 238.90659 
L 229.829777 238.067059 
L 230.261027 219.070509 
L 230.352471 198.504928 
L 230.381149 114.793025 
L 230.39143 55.936143 
L 230.486662 178.43663 
L 230.715543 243.01981 
L 230.799412 244.473219 
L 230.86759 244.051873 
L 230.868131 244.052164 
L 230.875706 243.937095 
L 231.432489 231.211714 
L 231.549364 225.561702 
L 231.70574 204.804567 
L 231.744157 153.945728 
L 231.758767 55.755436 
L 231.851293 177.209334 
L 232.080716 243.1934 
L 232.081257 243.192791 
L 232.124544 244.392816 
L 232.166749 244.755941 
L 232.232762 244.323616 
L 232.391302 241.925962 
L 232.391843 241.928083 
L 232.411322 241.557315 
L 232.412404 241.564497 
L 232.573108 238.248777 
L 232.810106 231.538223 
L 233.021132 218.084031 
L 233.106624 196.379597 
L 233.133137 101.013344 
L 233.142336 55.924416 
L 233.237027 178.237984 
L 233.47673 243.425398 
L 233.552483 244.406455 
L 233.610921 244.024947 
L 233.612544 244.043443 
L 234.268346 226.40359 
L 234.452858 197.252547 
L 234.479913 109.229191 
L 234.490193 55.748656 
L 234.584884 178.622048 
L 234.809978 243.165292 
L 234.900881 244.659499 
L 234.954449 244.334736 
L 235.571834 229.240157 
L 235.755264 214.146978 
L 235.819113 190.545312 
L 235.847791 55.717864 
L 235.94194 178.120382 
L 236.16974 243.198468 
L 236.25902 244.712436 
L 236.314752 244.306727 
L 236.315293 244.312957 
L 236.367779 243.648366 
L 236.575558 239.854606 
L 236.57664 239.856947 
L 236.890473 230.886936 
L 237.127471 211.449463 
L 237.184826 177.892555 
L 237.205929 55.709103 
L 237.296291 176.31126 
L 237.520303 242.915869 
L 237.617699 244.65122 
L 237.660986 244.360137 
L 238.063558 236.394022 
L 238.064099 236.400741 
L 238.097105 235.428173 
L 238.097647 235.448009 
L 238.506711 197.466184 
L 238.533766 113.028787 
L 238.544047 55.744591 
L 238.639279 178.823491 
L 238.870324 243.516631 
L 238.892509 244.184081 
L 238.940125 244.712349 
L 239.013172 244.276569 
L 239.014796 244.285199 
L 239.033734 244.043466 
L 239.214999 240.826656 
L 239.21554 240.834414 
L 239.260992 239.923943 
L 239.491497 233.854582 
L 239.498531 233.617815 
L 239.806953 211.731375 
L 239.867014 172.906895 
L 239.885952 55.496815 
L 239.976855 176.699527 
L 240.205737 243.560947 
L 240.298263 244.989028 
L 240.333975 244.793936 
L 240.494679 242.307585 
L 240.49522 242.330439 
L 240.570432 240.825917 
L 241.146694 214.243577 
L 241.215412 184.954427 
L 241.239761 55.542906 
L 241.331206 176.874271 
L 241.563875 243.604576 
L 241.651532 244.91199 
L 241.692113 244.602356 
L 242.084404 236.939441 
L 241.694819 244.614876 
L 242.084945 236.940846 
L 242.502127 211.377575 
L 242.558941 177.654701 
L 242.579503 55.634387 
L 242.670406 176.453634 
L 242.904157 243.485249 
L 242.986944 244.765554 
L 243.061073 244.075016 
L 243.289955 239.895211 
L 243.466892 235.346842 
L 243.478255 235.034429 
L 243.809943 215.189347 
L 243.87758 193.240449 
L 243.903011 72.304548 
L 243.908963 55.584992 
L 243.997161 174.856195 
L 244.22983 243.407592 
L 244.318569 244.819989 
L 244.364561 244.47601 
L 244.365103 244.485423 
L 244.424623 243.590181 
L 244.425164 243.614834 
L 244.636189 239.55601 
L 244.63673 239.572261 
L 244.768215 236.241508 
L 245.077178 222.348898 
L 245.204335 196.863533 
L 245.230848 108.1165 
L 245.240588 55.640948 
L 245.33582 178.829913 
L 245.565783 243.518925 
L 245.646947 244.828737 
L 245.705926 244.447565 
L 245.867712 241.87756 
L 245.868253 241.891281 
L 245.930479 240.653094 
L 246.498624 213.384274 
L 246.564637 180.364584 
L 246.586822 55.448914 
L 246.677184 176.61831 
L 246.895244 243.037229 
L 246.988311 244.998412 
L 247.029975 244.737049 
L 247.308096 239.821858 
L 247.673873 228.158113 
L 247.840529 212.79789 
L 247.902755 181.41469 
L 247.925481 55.555392 
L 248.015843 176.498035 
L 248.244724 243.391167 
L 248.334004 244.813942 
L 248.376751 244.517881 
L 248.816657 235.182466 
L 249.206243 200.156892 
L 249.236544 128.711565 
L 249.248448 55.495774 
L 249.342598 178.614417 
L 249.569856 243.460368 
L 249.647773 244.901167 
L 249.712163 244.456379 
L 250.285178 230.073973 
L 250.476183 215.447708 
L 250.557347 175.032891 
L 250.576826 55.520051 
L 250.667729 176.550998 
L 250.902022 243.689083 
L 250.977233 244.902994 
L 251.040541 244.499019 
L 251.212067 241.660603 
L 251.435537 236.46785 
L 251.826746 212.683321 
L 251.887348 184.055744 
L 251.911156 55.688382 
L 252.002601 176.64937 
L 252.231482 243.227147 
L 252.320221 244.714678 
L 252.360803 244.465173 
L 252.419782 243.722503 
L 253.106967 218.756746 
L 253.19246 199.420814 
L 253.22222 119.327403 
L 253.233041 55.602214 
L 253.327732 178.629226 
L 253.555532 243.350847 
L 253.641024 244.75419 
L 253.700544 244.24413 
L 254.028986 237.619867 
L 254.029527 237.629573 
L 254.073897 236.431439 
L 254.074438 236.446139 
L 254.433722 217.71448 
L 254.510016 199.864346 
L 254.539776 128.28988 
L 254.55168 55.486476 
L 254.64583 178.648167 
L 254.880663 243.880538 
L 254.953169 244.961392 
L 255.004573 244.694757 
L 255.005114 244.699143 
L 255.047319 244.135659 
L 255.04786 244.138622 
L 255.048943 244.145118 
L 255.081949 243.633523 
L 255.083572 243.642319 
L 255.237783 240.763273 
L 255.238324 240.77062 
L 255.280529 239.850843 
L 255.496966 234.183954 
L 255.507788 233.851254 
L 255.750737 220.646941 
L 255.847052 203.017859 
L 255.881681 146.285191 
L 255.895209 55.51259 
L 255.988817 178.152174 
L 256.216617 243.478873 
L 256.217158 243.475554 
L 256.304815 244.829707 
L 256.344314 244.612279 
L 256.618106 239.629882 
L 256.618647 239.635279 
L 256.915165 230.841936 
L 257.13106 214.090839 
L 257.197615 186.084064 
L 257.223046 55.4108 
L 257.31449 177.249289 
L 257.5477 243.792579 
L 257.629405 245.041412 
L 257.679727 244.696609 
L 257.694336 244.491528 
L 257.695959 244.495092 
L 257.864239 241.524371 
L 257.86478 241.540002 
L 258.367453 224.276634 
L 258.501103 204.941209 
L 258.541143 143.653638 
L 258.554671 55.528955 
L 258.647738 178.122029 
L 258.882572 243.782146 
L 258.883113 243.78213 
L 258.884195 243.841117 
L 258.885277 243.873194 
L 258.955078 244.873015 
L 259.010269 244.579279 
L 259.181254 241.65795 
L 259.292177 239.298748 
L 259.760221 217.779854 
L 259.838679 198.747605 
L 259.866816 124.860139 
L 259.878179 55.519724 
L 259.97287 178.798321 
L 260.205539 243.746638 
L 260.272634 244.863486 
L 260.333777 244.462764 
L 260.548049 240.782871 
L 260.548591 240.790989 
L 260.556707 240.662293 
L 260.772061 235.328833 
L 260.869999 231.989643 
L 261.142167 208.474411 
L 261.189783 167.781079 
L 261.207098 55.595354 
L 261.298543 176.768363 
L 261.526883 243.211474 
L 261.608047 244.707357 
L 261.659991 244.419982 
L 261.891578 240.388038 
L 261.892119 240.390988 
L 261.905105 240.028722 
L 261.905647 240.030505 
L 262.187555 232.14695 
L 262.466217 207.916486 
L 262.512209 165.771339 
L 262.528983 55.539446 
L 262.620428 176.861367 
L 262.847686 243.335618 
L 262.939671 244.83877 
L 262.972137 244.637243 
L 262.97376 244.641552 
L 263.122019 242.423256 
L 263.317894 238.131049 
L 263.318976 238.135375 
L 263.333585 237.790085 
L 263.533789 231.55844 
L 263.604131 228.384513 
L 263.766458 214.221707 
L 263.837341 180.876323 
L 263.859526 55.639432 
L 263.950429 176.486586 
L 264.179852 243.242845 
L 264.265885 244.690442 
L 264.3227 244.237232 
L 264.852428 231.442202 
L 265.114316 207.388868 
L 265.158685 165.074007 
L 265.175459 55.547911 
L 265.266903 176.919663 
L 265.504442 243.799595 
L 265.573702 244.912155 
L 265.628893 244.61015 
L 265.806912 241.599678 
L 265.829097 241.151803 
L 265.829638 241.155165 
L 266.085033 234.785402 
L 266.085574 234.791673 
L 266.113711 233.852447 
L 266.415098 213.140867 
L 266.478406 183.066778 
L 266.501673 55.495779 
L 266.592576 176.60926 
L 266.813341 243.006708 
L 266.908573 244.773709 
L 266.944285 244.611909 
L 267.129879 241.651426 
L 267.172625 240.775362 
L 267.714799 218.198903 
L 267.806243 191.394089 
L 267.836003 55.366752 
L 267.929612 178.502436 
L 268.159034 243.790179 
L 268.245068 244.999026 
L 268.289437 244.715109 
L 268.483689 241.335575 
L 268.48423 241.34862 
L 268.541585 240.078953 
L 268.542127 240.079456 
L 269.063197 214.646867 
L 269.131916 187.99999 
L 269.158429 55.46832 
L 269.250956 177.592915 
L 269.484707 243.678651 
L 269.554508 244.861263 
L 269.612404 244.489507 
L 270.330973 221.032818 
L 270.43865 199.549613 
L 270.46841 122.643729 
L 270.479773 55.595591 
L 270.574464 178.791705 
L 270.793606 243.051512 
L 270.815249 243.901184 
L 270.882886 244.801211 
L 270.9397 244.456842 
L 271.069021 242.342546 
L 271.343354 235.957549 
L 271.379066 234.921326 
L 271.72807 210.272541 
L 271.778932 179.479578 
L 271.800576 55.456725 
L 271.890938 176.47533 
L 272.113868 243.221977 
L 272.203689 244.938209 
L 272.247517 244.683463 
L 272.505076 240.193588 
L 273.00288 218.752986 
L 273.098112 193.153704 
L 273.123543 71.686695 
L 273.129495 55.583555 
L 273.217152 174.594969 
L 273.443328 243.043863 
L 273.443869 243.043835 
L 273.538019 244.712567 
L 273.588881 244.38194 
L 273.981713 236.271369 
L 274.398353 204.248661 
L 274.43623 146.15592 
L 274.449757 55.56073 
L 274.543366 178.126257 
L 274.778199 243.712507 
L 274.864233 244.751671 
L 274.901027 244.465409 
L 274.930787 244.141 
L 275.020067 242.725026 
L 275.347968 234.865841 
L 275.348509 234.869937 
L 275.369071 234.183649 
L 275.686691 212.417331 
L 275.749999 173.819243 
L 275.769478 55.434557 
L 275.85984 176.583023 
L 276.089804 243.575488 
L 276.16231 244.986385 
L 276.220207 244.683721 
L 276.40526 241.614925 
L 276.405801 241.616888 
L 276.422033 241.273891 
L 276.873844 226.548083 
L 277.00046 214.725092 
L 277.07026 187.421535 
L 277.096233 55.521425 
L 277.188759 177.400849 
L 277.419264 243.575239 
L 277.420346 243.560244 
L 277.498804 244.871607 
L 277.549667 244.567089 
L 277.550749 244.570933 
L 277.756364 241.042567 
L 277.946287 236.446396 
L 277.986868 235.285864 
L 278.252544 222.941147 
L 278.380241 200.249679 
L 278.411084 125.038311 
L 278.422447 55.532751 
L 278.517137 178.758508 
L 278.744396 243.560534 
L 278.822854 244.981575 
L 278.875881 244.686299 
L 278.946764 243.735332 
L 278.876963 244.691068 
L 278.947305 243.739547 
L 279.136687 239.938441 
L 279.61447 219.992405 
L 279.697798 205.300242 
L 279.737839 151.61007 
L 279.752448 55.54802 
L 279.844975 177.745471 
L 280.068986 243.274927 
L 280.144198 244.896056 
L 280.218868 244.500678 
L 280.226444 244.378277 
L 280.442339 240.539483 
L 280.229149 244.378599 
L 280.44288 240.544941 
L 280.443421 240.546919 
L 280.459654 240.190701 
L 280.460195 240.198446 
L 280.980183 216.461917 
L 281.054313 194.937888 
L 281.079744 89.365244 
L 281.08786 55.49599 
L 281.181469 178.165553 
L 281.407645 243.497755 
L 281.479069 244.90538 
L 281.549952 244.542813 
L 281.788573 240.273368 
L 282.336698 212.915533 
L 282.40217 175.428307 
L 282.422191 55.403947 
L 282.512553 176.577884 
L 282.741434 243.645051 
L 282.824762 245.088003 
L 282.8832 244.650921 
L 283.135348 239.969239 
L 283.581748 223.117039 
L 283.640186 217.331551 
L 283.725137 190.889653 
L 283.754356 55.484777 
L 283.847965 178.299674 
L 284.080634 243.736893 
L 284.158551 244.898404 
L 284.203462 244.586151 
L 284.204544 244.588817 
L 284.362001 242.144475 
L 284.591965 237.00023 
L 284.655814 235.224718 
L 285.005359 212.473035 
L 285.065961 181.572428 
L 285.088687 55.61392 
L 285.179049 176.369317 
L 285.413341 243.465362 
L 285.502621 244.703367 
L 285.546991 244.320622 
L 285.629777 243.102061 
L 285.793728 239.79137 
L 286.329949 211.017559 
L 286.385681 176.654068 
L 286.406243 55.660723 
L 286.496605 176.322924 
L 286.716829 242.71892 
L 286.805568 244.615144 
L 286.902964 243.760691 
L 286.903505 243.761746 
L 286.918115 243.559747 
L 287.075572 240.532513 
L 287.31744 234.201978 
L 287.662115 205.610898 
L 287.702156 157.351557 
L 287.717306 55.534498 
L 287.809833 177.560823 
L 288.040337 243.492724 
L 288.040879 243.48991 
L 288.054947 243.995273 
L 288.055488 243.994544 
L 288.124748 244.801198 
L 288.176692 244.409032 
L 288.204829 244.066404 
L 288.380684 240.953424 
L 288.536518 237.351354 
L 288.537059 237.35144 
L 288.540847 237.243172 
L 288.636079 234.529573 
L 288.827084 226.32493 
L 288.989411 205.792577 
L 289.029993 157.619167 
L 289.045143 55.533026 
L 289.13767 177.470011 
L 289.361681 243.213725 
L 289.436893 244.833042 
L 289.497495 244.509212 
L 289.659281 241.920465 
L 289.659823 241.927178 
L 289.701487 241.072608 
L 289.702569 241.077916 
L 290.006121 232.971858 
L 290.300474 208.982732 
L 290.350255 166.846807 
L 290.367569 55.546392 
L 290.458473 176.670616 
L 290.679779 243.027827 
L 290.767977 244.821063 
L 290.818298 244.491457 
L 291.03257 240.891919 
L 291.187863 237.294703 
L 291.448128 227.863953 
L 291.527127 222.665876 
L 291.649414 201.423168 
L 291.681879 132.80321 
L 291.694324 55.499763 
L 291.788474 178.725465 
L 292.012486 243.495279 
L 292.101766 244.935023 
L 292.181847 244.167759 
L 292.439948 239.188731 
L 292.820335 224.880331 
L 292.943162 210.58932 
L 292.998353 171.749367 
L 293.016751 55.580905 
L 293.107654 176.511694 
L 293.337076 243.411011 
L 293.410124 244.78445 
L 293.48263 244.36425 
L 293.626019 241.90898 
L 293.648204 241.489604 
L 293.627101 241.912594 
L 293.648745 241.497106 
L 293.822976 237.491343 
L 293.8549 236.665149 
L 293.915503 234.89442 
L 294.291561 200.69443 
L 294.322403 133.497193 
L 294.334307 55.497367 
L 294.428998 178.658649 
L 294.653551 243.382898 
L 294.736879 244.771585 
L 294.800186 244.357985 
L 294.993356 241.056609 
L 295.185984 236.394143 
L 295.529577 218.890902 
L 295.619398 197.811883 
L 295.646452 118.379857 
L 295.657274 55.500326 
L 295.751965 178.800576 
L 295.978682 243.441856 
L 296.063092 244.812439 
L 296.108003 244.479071 
L 296.270871 241.932577 
L 296.534383 235.628365 
L 296.534924 235.637839 
L 296.936954 199.512978 
L 296.966714 121.890172 
L 296.978077 55.505238 
L 297.072768 178.95839 
L 297.302732 243.634394 
L 297.378484 244.859172 
L 297.433676 244.532155 
L 297.640372 240.997952 
L 297.640913 241.003893 
L 297.677167 240.198028 
L 298.110039 224.483284 
L 298.257757 200.403836 
L 298.288599 127.927027 
L 298.300503 55.554901 
L 298.394653 178.538851 
L 298.613254 243.011209 
L 298.699828 244.840076 
L 298.746362 244.570666 
L 299.240919 233.757808 
L 299.447075 223.573609 
L 299.551505 210.641181 
L 299.606697 172.551777 
L 299.625635 55.527724 
L 299.715997 176.407405 
L 299.945961 243.482554 
L 300.021172 244.899977 
L 300.080151 244.549603 
L 300.291177 240.871922 
L 300.291718 240.872906 
L 300.292259 240.873053 
L 300.297129 240.771593 
L 300.798179 221.446442 
L 300.913431 197.420589 
L 300.940486 111.365233 
L 300.950767 55.474346 
L 301.045457 178.939241 
L 301.277585 243.830562 
L 301.359831 244.990572 
L 301.425303 244.391678 
L 301.601699 241.212635 
L 301.60224 241.212898 
L 301.606028 241.1157 
L 301.83545 235.382171 
L 301.835991 235.383959 
L 301.846813 235.037648 
L 302.193652 210.671762 
L 302.247761 176.152559 
L 302.267782 55.4981 
L 302.358685 176.606039 
L 302.588649 243.460858 
L 302.667648 244.817992 
L 302.728791 244.43028 
L 302.908433 241.362272 
L 303.423011 222.77845 
L 303.54151 203.481738 
L 303.577222 146.783212 
L 303.590749 55.440639 
L 303.684358 178.212523 
L 303.907287 243.465329 
L 303.997108 245.025782 
L 304.034985 244.738081 
L 304.03769 244.750251 
L 304.326092 239.421394 
L 304.511145 234.509725 
L 304.524672 234.122617 
L 304.689164 227.111649 
L 304.85582 208.389858 
L 304.904518 161.608929 
L 304.920751 55.566259 
L 305.012195 177.014016 
L 305.241076 243.374257 
L 305.32224 244.813814 
L 305.380678 244.502832 
L 305.58034 240.887907 
L 305.581423 240.908432 
L 305.59008 240.72914 
L 305.817338 234.991338 
L 305.849804 234.023829 
L 306.124137 217.879749 
L 306.214499 189.833702 
L 306.242636 55.484445 
L 306.335703 177.844111 
L 306.554845 243.091009 
L 306.65657 244.887318 
L 306.689036 244.646728 
L 306.697693 244.555859 
L 306.83513 242.454506 
L 306.835671 242.463764 
L 306.885993 241.453898 
L 306.887616 241.456308 
L 307.041827 237.973557 
L 307.395159 223.54657 
L 307.509871 207.954921 
L 307.556404 164.299192 
L 307.573178 55.496148 
L 307.664623 177.051637 
L 307.898374 243.697921 
L 307.976291 244.848039 
L 308.0304 244.509359 
L 308.687825 226.087275 
L 308.847988 205.287245 
L 308.886406 161.432765 
L 308.902639 55.580122 
L 308.994083 177.018134 
L 309.222964 243.367215 
L 309.223505 243.365686 
L 309.231081 243.676893 
L 309.311703 244.854176 
L 309.363107 244.499658 
L 309.498921 242.259359 
L 309.499462 242.261952 
L 309.520023 241.829957 
L 309.750528 236.418184 
L 309.894458 231.770021 
L 310.161216 208.012637 
L 310.20775 164.881408 
L 310.224524 55.433046 
L 310.315968 177.130059 
L 310.542685 243.42112 
L 310.629801 244.925775 
L 310.697978 244.394951 
L 310.698519 244.397937 
L 310.727738 243.948326 
L 310.926319 240.142458 
L 310.92686 240.143897 
L 310.939305 239.869788 
L 311.195782 232.643382 
L 311.44793 215.450252 
L 311.523683 185.591952 
L 311.548573 55.490556 
L 311.640017 176.943141 
L 311.872687 243.596236 
L 311.951686 244.851639 
L 312.029062 244.272435 
L 312.223855 240.622271 
L 312.224396 240.622885 
L 312.224937 240.637064 
L 312.284457 239.311467 
L 312.284998 239.319113 
L 312.798493 210.206168 
L 312.853684 164.424234 
L 312.870458 55.442741 
L 312.961903 177.105474 
L 313.190243 243.548813 
L 313.274112 244.938701 
L 313.31794 244.680055 
L 313.470528 242.312891 
L 313.551692 240.663902 
L 313.552774 240.665965 
L 313.735663 236.149694 
L 313.870935 231.760568 
L 314.014865 224.217721 
L 314.157713 200.686968 
L 314.188015 139.254518 
L 314.201001 55.466933 
L 314.294609 178.40158 
L 314.521868 243.656359 
L 314.59762 245.021455 
L 314.674996 244.432941 
L 315.370298 222.419331 
L 315.48014 205.056163 
L 315.519098 153.548373 
L 315.533708 55.426724 
L 315.626234 177.690627 
L 315.850787 243.392156 
L 315.947642 244.953724 
L 315.982813 244.685897 
L 316.141894 242.183617 
L 316.142435 242.184692 
L 316.151633 241.97532 
L 316.152175 241.97928 
L 316.370775 236.983322 
L 316.476829 233.830352 
L 316.822045 201.07159 
L 316.852346 146.03036 
L 316.865873 55.496434 
L 316.959482 178.177509 
L 317.19161 243.622198 
L 317.192151 243.616426 
L 317.225158 244.454591 
L 317.258705 244.824658 
L 317.333917 244.351343 
L 317.720797 236.269678 
L 317.90098 229.893988 
L 317.952384 227.329835 
L 318.137978 203.475194 
L 318.172608 154.975335 
L 318.187759 55.486678 
L 318.279744 177.479839 
L 318.507002 243.439308 
L 318.578967 244.843153 
L 318.633617 244.599423 
L 318.793239 242.075808 
L 318.79378 242.077159 
L 318.807308 241.838734 
L 319.003183 237.437729 
L 319.124928 233.944016 
L 319.387357 218.83583 
L 319.475014 198.742617 
L 319.504233 110.993201 
L 319.514513 55.489778 
L 319.609204 178.927646 
L 319.839709 243.638365 
L 319.919249 244.834801 
L 319.973359 244.539649 
L 320.146508 241.70466 
L 320.147049 241.705075 
L 320.151919 241.572028 
L 320.518778 231.363534 
L 320.659462 223.742397 
L 320.808803 192.327499 
L 320.839645 55.549965 
L 320.933795 178.576808 
L 321.165923 243.581573 
L 321.239511 244.690429 
L 321.294703 244.353441 
L 321.456489 241.718009 
L 321.520337 240.359359 
L 321.783308 233.436545 
L 322.104175 205.819793 
L 322.144215 161.322857 
L 322.160448 55.598812 
L 322.251892 177.006943 
L 322.475904 243.15083 
L 322.560855 244.805038 
L 322.623622 244.40274 
L 322.625786 244.403959 
L 323.251287 227.294163 
L 323.434176 204.418591 
L 323.472052 148.993307 
L 323.486121 55.513666 
L 323.579188 177.993048 
L 323.813481 243.618674 
L 323.878412 244.71185 
L 323.936849 244.466598 
L 323.939555 244.484961 
L 323.999616 243.662394 
L 324.211724 239.471646 
L 324.286394 237.718691 
L 324.665699 220.488085 
L 324.774999 194.170966 
L 324.799889 85.298808 
L 324.808006 55.447289 
L 324.900532 177.850853 
L 325.128332 243.55033 
L 325.208413 245.054553 
L 325.261981 244.71329 
L 325.262522 244.722134 
L 325.322583 243.889079 
L 325.491945 240.610736 
L 325.492486 240.621208 
L 325.543348 239.470944 
L 325.543889 239.476471 
L 326.023296 217.435659 
L 326.115281 182.819442 
L 326.138548 55.451434 
L 326.229452 176.815268 
L 326.463203 243.644433 
L 326.534086 244.929987 
L 326.583325 244.649906 
L 326.586031 244.665419 
L 326.601181 244.511145 
L 326.780823 241.42139 
L 326.781364 241.429991 
L 326.827898 240.405429 
L 326.84359 240.095068 
L 327.307305 222.129307 
L 327.423639 201.039773 
L 327.455564 130.251971 
L 327.467468 55.492641 
L 327.562159 178.912448 
L 327.795369 243.808311 
L 327.868416 244.861715 
L 327.924148 244.519798 
L 328.446301 232.499857 
L 328.707107 213.78103 
L 328.774202 182.484188 
L 328.797469 55.498669 
L 328.888372 176.821116 
L 329.11022 243.104778 
L 329.183808 244.800262 
L 329.237376 244.597798 
L 329.238999 244.61528 
L 329.279581 244.153732 
L 329.529024 239.28296 
L 329.529565 239.300298 
L 329.592332 237.771122 
L 329.592873 237.776777 
L 330.060916 206.874932 
L 330.102039 170.42576 
L 330.120436 55.420335 
L 330.21134 176.911641 
L 330.43968 243.573571 
L 330.521926 245.034139 
L 330.572788 244.707426 
L 330.743773 241.879285 
L 330.744314 241.892348 
L 330.744855 241.895831 
L 330.771369 241.352743 
L 330.77191 241.366659 
L 330.933696 237.724578 
L 330.934237 237.727107 
L 330.951011 237.289874 
L 331.259974 224.980606 
L 331.423383 195.193343 
L 331.448273 99.160202 
L 331.457472 55.534921 
L 331.552163 178.771391 
L 331.777257 243.302843 
L 331.863831 244.751655 
L 331.907119 244.500173 
L 332.434141 232.200113 
L 332.677091 215.029948 
L 332.750138 185.390136 
L 332.775028 55.538862 
L 332.866473 177.00207 
L 333.091567 243.211907 
L 333.175977 244.820998 
L 333.226839 244.505086 
L 333.379427 242.055191 
L 333.398906 241.685982 
L 334.001681 215.007065 
L 334.075811 184.050551 
L 334.099619 55.624496 
L 334.191063 176.736831 
L 334.415616 243.142277 
L 334.509225 244.718654 
L 334.549265 244.412468 
L 335.257553 221.977266 
L 335.370641 201.92761 
L 335.403648 138.176148 
L 335.416093 55.50165 
L 335.510243 178.436512 
L 335.734255 243.3553 
L 335.82624 244.943949 
L 335.860329 244.691149 
L 335.86087 244.697881 
L 335.917143 244.015392 
L 336.157929 239.280226 
L 336.573487 223.046068 
L 336.707677 197.691685 
L 336.734732 116.474535 
L 336.745553 55.544112 
L 336.840244 178.850957 
L 337.07616 243.831246 
L 337.154618 244.923372 
L 337.207645 244.502289 
L 337.374842 241.692471 
L 337.375383 241.70062 
L 337.422458 240.76193 
L 337.992227 212.881167 
L 338.054993 181.285536 
L 338.077178 55.461167 
L 338.168081 176.637787 
L 338.402374 243.731222 
L 338.481373 244.941964 
L 338.535482 244.589065 
L 338.536023 244.591299 
L 338.563078 244.241378 
L 338.563619 244.25914 
L 338.733521 241.174566 
L 338.912623 237.017227 
L 339.283811 218.487143 
L 339.378502 190.985497 
L 339.407721 55.530931 
L 339.501329 178.100696 
L 339.730211 243.575461 
L 339.810833 244.944522 
L 339.868189 244.562817 
L 340.003462 242.450944 
L 340.463389 229.482604 
L 340.661969 211.47259 
L 340.720407 174.960576 
L 340.739887 55.600086 
L 340.83079 176.445836 
L 341.055343 243.034704 
L 341.132177 244.707328 
L 341.195485 244.340713 
L 341.332381 242.247655 
L 341.611584 235.749199 
L 341.626735 235.318374 
L 341.98169 211.517074 
L 342.040669 172.920589 
L 342.059607 55.443292 
L 342.150511 176.778024 
L 342.375063 243.412295 
L 342.45298 244.935063 
L 342.503302 244.729759 
L 343.060625 231.458778 
L 343.265699 217.885153 
L 343.352815 193.284167 
L 343.378246 72.58882 
L 343.384739 55.583887 
L 343.472396 174.869239 
L 343.698572 243.042938 
L 343.786228 244.811183 
L 343.839796 244.420654 
L 344.542132 221.996145 
L 344.650892 203.754775 
L 344.688227 139.389249 
L 344.701213 55.507058 
L 344.794822 178.386918 
L 345.029114 243.819498 
L 345.104867 244.945287 
L 345.166551 244.482674 
L 345.357015 241.143567 
L 345.357556 241.148028 
L 345.390022 240.499292 
L 345.688704 232.407227 
L 345.829388 225.759046 
L 345.990633 202.924585 
L 346.025804 140.140559 
L 346.03879 55.537852 
L 346.132399 178.206324 
L 346.355869 243.228103 
L 346.438115 244.871466 
L 346.491142 244.583243 
L 346.527936 244.111835 
L 346.492224 244.584577 
L 346.528477 244.115339 
L 346.696756 241.002952 
L 346.769804 239.456682 
L 347.013836 232.566861 
L 347.271395 214.030629 
L 347.337408 186.751418 
L 347.36338 55.538771 
L 347.454825 177.031835 
L 347.688035 243.542752 
L 347.760541 244.78339 
L 347.823849 244.378122 
L 348.390912 229.899513 
L 348.573801 215.909565 
L 348.648471 191.395566 
L 348.678231 55.526051 
L 348.77184 178.297258 
L 349.006132 243.774601 
L 349.078097 244.873708 
L 349.132748 244.608826 
L 349.724701 230.002257 
L 349.93735 211.078518 
L 349.994705 172.227819 
L 350.013644 55.520486 
L 350.104006 176.469768 
L 350.332346 243.389307 
L 350.420544 244.82679 
L 350.464913 244.56564 
L 350.602892 242.387355 
L 350.627241 241.914343 
L 350.793356 238.261767 
L 351.085545 228.338241 
L 351.276009 208.126298 
L 351.32146 170.375012 
L 351.339857 55.417018 
L 351.430761 176.89919 
L 351.657478 243.448275 
L 351.744052 244.970436 
L 351.801949 244.567227 
L 351.963735 241.808024 
L 352.502662 222.36358 
L 352.619537 201.864928 
L 352.652544 137.307046 
L 352.664989 55.541182 
L 352.759139 178.40636 
L 352.993431 243.739074 
L 353.057821 244.908867 
L 353.132492 244.484077 
L 353.318627 241.206452 
L 353.397626 239.465794 
L 353.398167 239.469248 
L 353.618932 233.083758 
L 353.710918 229.381956 
L 353.953868 194.067429 
L 353.978758 83.689796 
L 353.986333 55.388209 
L 354.07886 177.732517 
L 354.304495 243.55353 
L 354.394316 245.004396 
L 354.442473 244.698457 
L 354.443014 244.698944 
L 354.454377 244.568805 
L 354.454918 244.568646 
L 354.675683 240.528456 
L 354.747107 238.990918 
L 354.984646 231.923727 
L 355.000337 231.336149 
L 355.273047 203.258692 
L 355.308218 147.302394 
L 355.322287 55.664619 
L 355.415354 177.845501 
L 355.638825 243.019549 
L 355.719447 244.639676 
L 355.768145 244.37299 
L 356.418537 226.49191 
L 356.59385 201.699619 
L 356.625775 143.623273 
L 356.639302 55.381862 
L 356.732369 178.240981 
L 356.957463 243.575623 
L 357.039168 245.120738 
L 357.106263 244.649122 
L 357.552122 234.985376 
L 357.804271 223.164616 
L 357.911407 208.696075 
L 357.960105 166.378862 
L 357.97742 55.570932 
L 358.068323 176.753948 
L 358.297204 243.254548 
L 358.37458 244.736822 
L 358.430854 244.414102 
L 359.147799 221.121705 
L 359.258723 198.020903 
L 359.286319 116.965388 
L 359.29714 55.579219 
L 359.391831 178.746387 
L 359.617466 243.284867 
L 359.697007 244.754535 
L 359.747869 244.488181 
L 360.430185 224.062572 
L 360.590348 185.694426 
L 360.615238 55.521021 
L 360.706682 176.983852 
L 360.935023 243.404011 
L 361.022138 244.872866 
L 361.06272 244.603672 
L 361.067049 244.608142 
L 361.768303 223.618576 
L 361.92089 186.23613 
L 361.946321 55.505944 
L 362.037766 176.976745 
L 362.26286 243.204624 
L 362.356468 244.703971 
L 362.393263 244.482629 
L 362.691945 239.07444 
L 362.952751 231.267991 
L 363.010647 228.573763 
L 363.111831 221.85213 
L 363.23033 198.188251 
L 363.258467 112.328894 
L 363.268748 55.480359 
L 363.363439 178.872021 
L 363.590697 243.603417 
L 363.677271 244.98067 
L 363.717312 244.671262 
L 363.89966 241.750037 
L 363.900201 241.762202 
L 363.955933 240.545243 
L 363.956474 240.547986 
L 364.329286 229.194399 
L 364.558167 199.992103 
L 364.587927 131.106983 
L 364.599831 55.498995 
L 364.694522 178.797632 
L 364.920698 243.462128 
L 365.010519 244.863663 
L 365.09006 244.067475 
L 365.282688 240.344265 
L 365.283229 240.348848 
L 365.312989 239.662271 
L 365.480186 235.398141 
L 365.658205 228.645994 
L 365.839471 211.826337 
L 365.895203 183.858713 
L 365.919011 55.503012 
L 366.009914 176.667789 
L 366.23609 243.325934 
L 366.310761 244.854417 
L 366.371904 244.529604 
L 366.372445 244.540263 
L 366.438458 243.654047 
L 366.438999 243.660533 
L 366.43954 243.667438 
L 366.486074 242.848817 
L 366.550464 241.608919 
L 366.783133 236.059019 
L 367.001193 227.861221 
L 367.108329 220.134813 
L 367.205725 199.685192 
L 367.235485 124.061378 
L 367.246848 55.394181 
L 367.341539 179.017317 
L 367.568256 243.642413 
L 367.639139 244.98799 
L 367.693248 244.706549 
L 368.043334 237.952438 
L 368.248948 231.469445 
L 368.249489 231.469836 
L 368.252195 231.357984 
L 368.252736 231.369844 
L 368.531939 199.534564 
L 368.561158 128.240712 
L 368.573062 55.479079 
L 368.667212 178.626037 
L 368.896093 243.588617 
L 368.97888 244.909492 
L 369.036777 244.497207 
L 369.095215 243.666011 
L 369.0384 244.497981 
L 369.095756 243.667954 
L 369.275398 240.148278 
L 369.27648 240.149671 
L 369.284055 239.97607 
L 369.644963 228.48546 
L 369.846249 206.092603 
L 369.888454 152.523904 
L 369.903063 55.478866 
L 369.99559 177.746092 
L 370.225012 243.605587 
L 370.314833 244.911579 
L 370.374353 244.437127 
L 370.594036 240.537122 
L 370.594577 240.542 
L 370.625961 239.841731 
L 370.627043 239.845176 
L 371.046929 224.663809 
L 371.161641 211.623429 
L 371.217373 181.844533 
L 371.240099 55.412659 
L 371.331002 176.789158 
L 371.556096 243.363117 
L 371.640506 244.979873 
L 371.703273 244.661669 
L 372.286028 229.719438 
L 372.45106 217.768594 
L 372.539799 190.843899 
L 372.569018 55.535183 
L 372.662086 177.922706 
L 372.891508 243.526481 
L 372.892049 243.525544 
L 372.978083 244.822851 
L 373.023535 244.499113 
L 373.181533 241.867359 
L 373.182074 241.870498 
L 373.205882 241.360652 
L 373.206423 241.361106 
L 373.469393 234.872365 
L 373.815692 210.748441 
L 373.868177 180.62729 
L 373.890362 55.4541 
L 373.980724 176.545188 
L 374.215017 243.726236 
L 374.290228 244.93454 
L 374.339468 244.722152 
L 374.930339 230.269909 
L 375.186275 199.503856 
L 375.215494 127.557921 
L 375.227398 55.58074 
L 375.321548 178.59581 
L 375.553135 243.506731 
L 375.634298 244.693301 
L 375.678668 244.442152 
L 375.865344 241.284414 
L 376.153745 233.918776 
L 376.312826 227.073985 
L 376.450804 214.224941 
L 376.521146 181.424762 
L 376.543872 55.434941 
L 376.634234 176.632448 
L 376.866362 243.695082 
L 376.950231 244.987097 
L 377.015703 244.461797 
L 377.409617 236.267773 
L 377.808943 209.311275 
L 377.860346 164.980828 
L 377.87712 55.413657 
L 377.968564 177.137752 
L 378.19961 243.657306 
L 378.273199 244.998109 
L 378.333801 244.694217 
L 378.521018 241.489254 
L 378.521559 241.491707 
L 378.525888 241.402464 
L 378.697414 237.452163 
L 378.697955 237.452585 
L 378.702825 237.32624 
L 378.934953 229.328098 
L 379.068061 220.399308 
L 379.175197 195.652754 
L 379.201169 94.78452 
L 379.209827 55.625741 
L 379.303977 178.307881 
L 379.534481 243.481762 
L 379.607529 244.701429 
L 379.667049 244.320354 
L 380.332591 224.870933 
L 380.473274 205.500956 
L 380.513856 151.711643 
L 380.528465 55.459462 
L 380.620992 177.721368 
L 380.842839 243.243257 
L 380.933743 244.925296 
L 380.996509 244.445808 
L 381.157213 241.695231 
L 381.157754 241.702341 
L 381.439663 234.865028 
L 381.440204 234.877027 
L 381.483491 233.433099 
L 381.836282 186.987733 
L 381.862255 55.355021 
L 381.95424 177.529232 
L 382.179875 243.580949 
L 382.267532 245.059848 
L 382.320017 244.694571 
L 382.320559 244.703736 
L 382.380079 243.836137 
L 382.38062 243.844586 
L 382.450961 242.649009 
L 382.381702 243.857572 
L 382.451503 242.661902 
L 382.66361 238.013465 
L 382.887081 230.881653 
L 383.111092 212.912296 
L 383.171153 186.028558 
L 383.196585 55.516593 
L 383.287488 176.831385 
L 383.514205 243.331717 
L 383.592122 244.882832 
L 383.659217 244.456 
L 383.934633 239.124839 
L 384.400512 217.018104 
L 384.485463 188.151866 
L 384.511977 55.393305 
L 384.604503 177.654481 
L 384.839878 243.880979 
L 384.904268 245.023413 
L 385.002746 244.2127 
L 385.521111 231.311215 
L 385.633117 225.639187 
L 385.807889 194.912914 
L 385.833321 89.564498 
L 385.841437 55.558882 
L 385.935046 178.067963 
L 386.166633 243.557088 
L 386.251584 244.819606 
L 386.3387 244.013905 
L 386.528623 240.300805 
L 386.529164 240.307424 
L 386.568122 239.423063 
L 387.079994 211.798119 
L 387.139514 176.21195 
L 387.159535 55.557608 
L 387.250438 176.531751 
L 387.476614 243.20951 
L 387.55399 244.777085 
L 387.637859 244.176693 
L 387.696838 243.273752 
L 387.989027 236.97598 
L 388.091834 233.89395 
L 388.26823 226.070123 
L 388.447872 195.539385 
L 388.473303 98.463282 
L 388.482502 55.53105 
L 388.576652 178.529161 
L 388.800663 243.307894 
L 388.878039 244.796015 
L 388.956497 244.273964 
L 389.12153 241.422595 
L 389.122071 241.427211 
L 389.152913 240.749644 
L 389.153455 240.762122 
L 389.702121 215.406566 
L 389.777332 186.085249 
L 389.802764 55.585593 
L 389.894208 176.951857 
L 390.11335 242.836834 
L 390.205335 244.782673 
L 390.269184 244.351815 
L 390.361711 242.903398 
L 390.362252 242.909832 
L 390.607907 237.539436 
L 390.875206 228.034417 
L 391.045649 211.75389 
L 391.104628 176.550421 
L 391.124649 55.533202 
L 391.215552 176.515606 
L 391.437399 243.12092 
L 391.523433 244.876754 
L 391.567802 244.661682 
L 391.568343 244.668123 
L 391.622452 244.012364 
L 391.622993 244.015997 
L 391.800471 240.650008 
L 391.801012 240.651321 
L 391.897868 238.463033 
L 392.073181 233.501707 
L 392.228474 226.570502 
L 392.416233 195.551241 
L 392.441664 98.77627 
L 392.450863 55.537463 
L 392.545012 178.481391 
L 392.77714 243.644877 
L 392.863174 244.890454 
L 392.90592 244.553305 
L 392.906461 244.555424 
L 392.93568 244.224472 
L 393.222999 238.508905 
L 393.717015 206.372491 
L 393.75922 158.600069 
L 393.774912 55.551706 
L 393.866897 177.324048 
L 394.098484 243.513814 
L 394.163956 244.698374 
L 394.235921 244.322328 
L 394.236463 244.323935 
L 394.258106 244.04794 
L 394.451276 240.587986 
L 394.451817 240.595054 
L 394.494022 239.709636 
L 394.910121 224.337185 
L 395.063249 195.924463 
L 395.089222 98.409359 
L 395.09842 55.583275 
L 395.19257 178.471648 
L 395.430109 243.752649 
L 395.49991 244.777208 
L 395.568628 244.278879 
L 395.82727 239.356701 
L 395.827811 239.357997 
L 395.837551 239.095901 
L 396.008535 234.526956 
L 396.342929 210.804629 
L 396.39758 175.931474 
L 396.4176 55.524091 
L 396.507962 176.391843 
L 396.736844 243.408005 
L 396.819089 244.925797 
L 396.872116 244.604173 
L 396.899171 244.249852 
L 397.288756 236.168197 
L 397.630726 218.32105 
L 397.714595 198.306492 
L 397.742732 115.334124 
L 397.753553 55.546853 
L 397.848244 178.896282 
L 398.078208 243.57769 
L 398.162077 244.805253 
L 398.216727 244.400275 
L 398.487273 239.417588 
L 398.487273 239.417588 
" style="fill:none;stroke:#000000;stroke-linecap:square;stroke-width:1.5;"/>
   </g>
   <g id="patch_3">
    <path d="M 57.6 307.584 
L 57.6 41.472 
" style="fill:none;stroke:#000000;stroke-linecap:square;stroke-linejoin:miter;stroke-width:0.8;"/>
   </g>
   <g id="patch_4">
    <path d="M 414.72 307.584 
L 414.72 41.472 
" style="fill:none;stroke:#000000;stroke-linecap:square;stroke-linejoin:miter;stroke-width:0.8;"/>
   </g>
   <g id="patch_5">
    <path d="M 57.6 307.584 
L 414.72 307.584 
" style="fill:none;stroke:#000000;stroke-linecap:square;stroke-linejoin:miter;stroke-width:0.8;"/>
   </g>
   <g id="patch_6">
    <path d="M 57.6 41.472 
L 414.72 41.472 
" style="fill:none;stroke:#000000;stroke-linecap:square;stroke-linejoin:miter;stroke-width:0.8;"/>
   </g>
   <g id="text_15">
    <!-- ChIN_LTS -->
    <defs>
     <path d="M 64.40625 67.28125 
L 64.40625 56.890625 
Q 59.421875 61.53125 53.78125 63.8125 
Q 48.140625 66.109375 41.796875 66.109375 
Q 29.296875 66.109375 22.65625 58.46875 
Q 16.015625 50.828125 16.015625 36.375 
Q 16.015625 21.96875 22.65625 14.328125 
Q 29.296875 6.6875 41.796875 6.6875 
Q 48.140625 6.6875 53.78125 8.984375 
Q 59.421875 11.28125 64.40625 15.921875 
L 64.40625 5.609375 
Q 59.234375 2.09375 53.4375 0.328125 
Q 47.65625 -1.421875 41.21875 -1.421875 
Q 24.65625 -1.421875 15.125 8.703125 
Q 5.609375 18.84375 5.609375 36.375 
Q 5.609375 53.953125 15.125 64.078125 
Q 24.65625 74.21875 41.21875 74.21875 
Q 47.75 74.21875 53.53125 72.484375 
Q 59.328125 70.75 64.40625 67.28125 
z
" id="DejaVuSans-43"/>
     <path d="M 54.890625 33.015625 
L 54.890625 0 
L 45.90625 0 
L 45.90625 32.71875 
Q 45.90625 40.484375 42.875 44.328125 
Q 39.84375 48.1875 33.796875 48.1875 
Q 26.515625 48.1875 22.3125 43.546875 
Q 18.109375 38.921875 18.109375 30.90625 
L 18.109375 0 
L 9.078125 0 
L 9.078125 75.984375 
L 18.109375 75.984375 
L 18.109375 46.1875 
Q 21.34375 51.125 25.703125 53.5625 
Q 30.078125 56 35.796875 56 
Q 45.21875 56 50.046875 50.171875 
Q 54.890625 44.34375 54.890625 33.015625 
z
" id="DejaVuSans-68"/>
     <path d="M 9.8125 72.90625 
L 19.671875 72.90625 
L 19.671875 0 
L 9.8125 0 
z
" id="DejaVuSans-49"/>
     <path d="M 9.8125 72.90625 
L 23.09375 72.90625 
L 55.421875 11.921875 
L 55.421875 72.90625 
L 64.984375 72.90625 
L 64.984375 0 
L 51.703125 0 
L 19.390625 60.984375 
L 19.390625 0 
L 9.8125 0 
z
" id="DejaVuSans-4e"/>
     <path d="M 50.984375 -16.609375 
L 50.984375 -23.578125 
L -0.984375 -23.578125 
L -0.984375 -16.609375 
z
" id="DejaVuSans-5f"/>
     <path d="M 9.8125 72.90625 
L 19.671875 72.90625 
L 19.671875 8.296875 
L 55.171875 8.296875 
L 55.171875 0 
L 9.8125 0 
z
" id="DejaVuSans-4c"/>
     <path d="M -0.296875 72.90625 
L 61.375 72.90625 
L 61.375 64.59375 
L 35.5 64.59375 
L 35.5 0 
L 25.59375 0 
L 25.59375 64.59375 
L -0.296875 64.59375 
z
" id="DejaVuSans-54"/>
     <path d="M 53.515625 70.515625 
L 53.515625 60.890625 
Q 47.90625 63.578125 42.921875 64.890625 
Q 37.9375 66.21875 33.296875 66.21875 
Q 25.25 66.21875 20.875 63.09375 
Q 16.5 59.96875 16.5 54.203125 
Q 16.5 49.359375 19.40625 46.890625 
Q 22.3125 44.4375 30.421875 42.921875 
L 36.375 41.703125 
Q 47.40625 39.59375 52.65625 34.296875 
Q 57.90625 29 57.90625 20.125 
Q 57.90625 9.515625 50.796875 4.046875 
Q 43.703125 -1.421875 29.984375 -1.421875 
Q 24.8125 -1.421875 18.96875 -0.25 
Q 13.140625 0.921875 6.890625 3.21875 
L 6.890625 13.375 
Q 12.890625 10.015625 18.65625 8.296875 
Q 24.421875 6.59375 29.984375 6.59375 
Q 38.421875 6.59375 43.015625 9.90625 
Q 47.609375 13.234375 47.609375 19.390625 
Q 47.609375 24.75 44.3125 27.78125 
Q 41.015625 30.8125 33.5 32.328125 
L 27.484375 33.5 
Q 16.453125 35.6875 11.515625 40.375 
Q 6.59375 45.0625 6.59375 53.421875 
Q 6.59375 63.09375 13.40625 68.65625 
Q 20.21875 74.21875 32.171875 74.21875 
Q 37.3125 74.21875 42.625 73.28125 
Q 47.953125 72.359375 53.515625 70.515625 
z
" id="DejaVuSans-53"/>
    </defs>
    <g transform="translate(208.104375 35.472)scale(0.12 -0.12)">
     <use xlink:href="#DejaVuSans-43"/>
     <use x="69.824219" xlink:href="#DejaVuSans-68"/>
     <use x="133.203125" xlink:href="#DejaVuSans-49"/>
     <use x="162.695312" xlink:href="#DejaVuSans-4e"/>
     <use x="237.5" xlink:href="#DejaVuSans-5f"/>
     <use x="287.5" xlink:href="#DejaVuSans-4c"/>
     <use x="343.009766" xlink:href="#DejaVuSans-54"/>
     <use x="404.09375" xlink:href="#DejaVuSans-53"/>
    </g>
   </g>
   <g id="legend_1">
    <g id="patch_7">
     <path d="M 403.72 54.472 
L 407.72 54.472 
Q 409.72 54.472 409.72 52.472 
L 409.72 48.472 
Q 409.72 46.472 407.72 46.472 
L 403.72 46.472 
Q 401.72 46.472 401.72 48.472 
L 401.72 52.472 
Q 401.72 54.472 403.72 54.472 
z
" style="fill:#ffffff;opacity:0.8;stroke:#cccccc;stroke-linejoin:miter;"/>
    </g>
   </g>
  </g>
 </g>
 <defs>
  <clipPath id="p64dd21fd07">
   <rect height="266.112" width="357.12" x="57.6" y="41.472"/>
  </clipPath>
 </defs>
</svg>
