<?xml version="1.0" encoding="utf-8" standalone="no"?>
<!DOCTYPE svg PUBLIC "-//W3C//DTD SVG 1.1//EN"
  "http://www.w3.org/Graphics/SVG/1.1/DTD/svg11.dtd">
<!-- Created with matplotlib (http://matplotlib.org/) -->
<svg height="345.6pt" version="1.1" viewBox="0 0 460.8 345.6" width="460.8pt" xmlns="http://www.w3.org/2000/svg" xmlns:xlink="http://www.w3.org/1999/xlink">
 <defs>
  <style type="text/css">
*{stroke-linecap:butt;stroke-linejoin:round;}
  </style>
 </defs>
 <g id="figure_1">
  <g id="patch_1">
   <path d="M 0 345.6 
L 460.8 345.6 
L 460.8 0 
L 0 0 
z
" style="fill:#ffffff;"/>
  </g>
  <g id="axes_1">
   <g id="patch_2">
    <path d="M 57.6 307.584 
L 414.72 307.584 
L 414.72 41.472 
L 57.6 41.472 
z
" style="fill:#ffffff;"/>
   </g>
   <g id="matplotlib.axis_1">
    <g id="xtick_1">
     <g id="line2d_1">
      <defs>
       <path d="M 0 0 
L 0 3.5 
" id="m1f441be8dd" style="stroke:#000000;stroke-width:0.8;"/>
      </defs>
      <g>
       <use style="stroke:#000000;stroke-width:0.8;" x="73.832727" xlink:href="#m1f441be8dd" y="307.584"/>
      </g>
     </g>
     <g id="text_1">
      <!-- 0 -->
      <defs>
       <path d="M 31.78125 66.40625 
Q 24.171875 66.40625 20.328125 58.90625 
Q 16.5 51.421875 16.5 36.375 
Q 16.5 21.390625 20.328125 13.890625 
Q 24.171875 6.390625 31.78125 6.390625 
Q 39.453125 6.390625 43.28125 13.890625 
Q 47.125 21.390625 47.125 36.375 
Q 47.125 51.421875 43.28125 58.90625 
Q 39.453125 66.40625 31.78125 66.40625 
z
M 31.78125 74.21875 
Q 44.046875 74.21875 50.515625 64.515625 
Q 56.984375 54.828125 56.984375 36.375 
Q 56.984375 17.96875 50.515625 8.265625 
Q 44.046875 -1.421875 31.78125 -1.421875 
Q 19.53125 -1.421875 13.0625 8.265625 
Q 6.59375 17.96875 6.59375 36.375 
Q 6.59375 54.828125 13.0625 64.515625 
Q 19.53125 74.21875 31.78125 74.21875 
z
" id="DejaVuSans-30"/>
      </defs>
      <g transform="translate(70.651477 322.182437)scale(0.1 -0.1)">
       <use xlink:href="#DejaVuSans-30"/>
      </g>
     </g>
    </g>
    <g id="xtick_2">
     <g id="line2d_2">
      <g>
       <use style="stroke:#000000;stroke-width:0.8;" x="117.12" xlink:href="#m1f441be8dd" y="307.584"/>
      </g>
     </g>
     <g id="text_2">
      <!-- 2000 -->
      <defs>
       <path d="M 19.1875 8.296875 
L 53.609375 8.296875 
L 53.609375 0 
L 7.328125 0 
L 7.328125 8.296875 
Q 12.9375 14.109375 22.625 23.890625 
Q 32.328125 33.6875 34.8125 36.53125 
Q 39.546875 41.84375 41.421875 45.53125 
Q 43.3125 49.21875 43.3125 52.78125 
Q 43.3125 58.59375 39.234375 62.25 
Q 35.15625 65.921875 28.609375 65.921875 
Q 23.96875 65.921875 18.8125 64.3125 
Q 13.671875 62.703125 7.8125 59.421875 
L 7.8125 69.390625 
Q 13.765625 71.78125 18.9375 73 
Q 24.125 74.21875 28.421875 74.21875 
Q 39.75 74.21875 46.484375 68.546875 
Q 53.21875 62.890625 53.21875 53.421875 
Q 53.21875 48.921875 51.53125 44.890625 
Q 49.859375 40.875 45.40625 35.40625 
Q 44.1875 33.984375 37.640625 27.21875 
Q 31.109375 20.453125 19.1875 8.296875 
z
" id="DejaVuSans-32"/>
      </defs>
      <g transform="translate(104.395 322.182437)scale(0.1 -0.1)">
       <use xlink:href="#DejaVuSans-32"/>
       <use x="63.623047" xlink:href="#DejaVuSans-30"/>
       <use x="127.246094" xlink:href="#DejaVuSans-30"/>
       <use x="190.869141" xlink:href="#DejaVuSans-30"/>
      </g>
     </g>
    </g>
    <g id="xtick_3">
     <g id="line2d_3">
      <g>
       <use style="stroke:#000000;stroke-width:0.8;" x="160.407273" xlink:href="#m1f441be8dd" y="307.584"/>
      </g>
     </g>
     <g id="text_3">
      <!-- 4000 -->
      <defs>
       <path d="M 37.796875 64.3125 
L 12.890625 25.390625 
L 37.796875 25.390625 
z
M 35.203125 72.90625 
L 47.609375 72.90625 
L 47.609375 25.390625 
L 58.015625 25.390625 
L 58.015625 17.1875 
L 47.609375 17.1875 
L 47.609375 0 
L 37.796875 0 
L 37.796875 17.1875 
L 4.890625 17.1875 
L 4.890625 26.703125 
z
" id="DejaVuSans-34"/>
      </defs>
      <g transform="translate(147.682273 322.182437)scale(0.1 -0.1)">
       <use xlink:href="#DejaVuSans-34"/>
       <use x="63.623047" xlink:href="#DejaVuSans-30"/>
       <use x="127.246094" xlink:href="#DejaVuSans-30"/>
       <use x="190.869141" xlink:href="#DejaVuSans-30"/>
      </g>
     </g>
    </g>
    <g id="xtick_4">
     <g id="line2d_4">
      <g>
       <use style="stroke:#000000;stroke-width:0.8;" x="203.694545" xlink:href="#m1f441be8dd" y="307.584"/>
      </g>
     </g>
     <g id="text_4">
      <!-- 6000 -->
      <defs>
       <path d="M 33.015625 40.375 
Q 26.375 40.375 22.484375 35.828125 
Q 18.609375 31.296875 18.609375 23.390625 
Q 18.609375 15.53125 22.484375 10.953125 
Q 26.375 6.390625 33.015625 6.390625 
Q 39.65625 6.390625 43.53125 10.953125 
Q 47.40625 15.53125 47.40625 23.390625 
Q 47.40625 31.296875 43.53125 35.828125 
Q 39.65625 40.375 33.015625 40.375 
z
M 52.59375 71.296875 
L 52.59375 62.3125 
Q 48.875 64.0625 45.09375 64.984375 
Q 41.3125 65.921875 37.59375 65.921875 
Q 27.828125 65.921875 22.671875 59.328125 
Q 17.53125 52.734375 16.796875 39.40625 
Q 19.671875 43.65625 24.015625 45.921875 
Q 28.375 48.1875 33.59375 48.1875 
Q 44.578125 48.1875 50.953125 41.515625 
Q 57.328125 34.859375 57.328125 23.390625 
Q 57.328125 12.15625 50.6875 5.359375 
Q 44.046875 -1.421875 33.015625 -1.421875 
Q 20.359375 -1.421875 13.671875 8.265625 
Q 6.984375 17.96875 6.984375 36.375 
Q 6.984375 53.65625 15.1875 63.9375 
Q 23.390625 74.21875 37.203125 74.21875 
Q 40.921875 74.21875 44.703125 73.484375 
Q 48.484375 72.75 52.59375 71.296875 
z
" id="DejaVuSans-36"/>
      </defs>
      <g transform="translate(190.969545 322.182437)scale(0.1 -0.1)">
       <use xlink:href="#DejaVuSans-36"/>
       <use x="63.623047" xlink:href="#DejaVuSans-30"/>
       <use x="127.246094" xlink:href="#DejaVuSans-30"/>
       <use x="190.869141" xlink:href="#DejaVuSans-30"/>
      </g>
     </g>
    </g>
    <g id="xtick_5">
     <g id="line2d_5">
      <g>
       <use style="stroke:#000000;stroke-width:0.8;" x="246.981818" xlink:href="#m1f441be8dd" y="307.584"/>
      </g>
     </g>
     <g id="text_5">
      <!-- 8000 -->
      <defs>
       <path d="M 31.78125 34.625 
Q 24.75 34.625 20.71875 30.859375 
Q 16.703125 27.09375 16.703125 20.515625 
Q 16.703125 13.921875 20.71875 10.15625 
Q 24.75 6.390625 31.78125 6.390625 
Q 38.8125 6.390625 42.859375 10.171875 
Q 46.921875 13.96875 46.921875 20.515625 
Q 46.921875 27.09375 42.890625 30.859375 
Q 38.875 34.625 31.78125 34.625 
z
M 21.921875 38.8125 
Q 15.578125 40.375 12.03125 44.71875 
Q 8.5 49.078125 8.5 55.328125 
Q 8.5 64.0625 14.71875 69.140625 
Q 20.953125 74.21875 31.78125 74.21875 
Q 42.671875 74.21875 48.875 69.140625 
Q 55.078125 64.0625 55.078125 55.328125 
Q 55.078125 49.078125 51.53125 44.71875 
Q 48 40.375 41.703125 38.8125 
Q 48.828125 37.15625 52.796875 32.3125 
Q 56.78125 27.484375 56.78125 20.515625 
Q 56.78125 9.90625 50.3125 4.234375 
Q 43.84375 -1.421875 31.78125 -1.421875 
Q 19.734375 -1.421875 13.25 4.234375 
Q 6.78125 9.90625 6.78125 20.515625 
Q 6.78125 27.484375 10.78125 32.3125 
Q 14.796875 37.15625 21.921875 38.8125 
z
M 18.3125 54.390625 
Q 18.3125 48.734375 21.84375 45.5625 
Q 25.390625 42.390625 31.78125 42.390625 
Q 38.140625 42.390625 41.71875 45.5625 
Q 45.3125 48.734375 45.3125 54.390625 
Q 45.3125 60.0625 41.71875 63.234375 
Q 38.140625 66.40625 31.78125 66.40625 
Q 25.390625 66.40625 21.84375 63.234375 
Q 18.3125 60.0625 18.3125 54.390625 
z
" id="DejaVuSans-38"/>
      </defs>
      <g transform="translate(234.256818 322.182437)scale(0.1 -0.1)">
       <use xlink:href="#DejaVuSans-38"/>
       <use x="63.623047" xlink:href="#DejaVuSans-30"/>
       <use x="127.246094" xlink:href="#DejaVuSans-30"/>
       <use x="190.869141" xlink:href="#DejaVuSans-30"/>
      </g>
     </g>
    </g>
    <g id="xtick_6">
     <g id="line2d_6">
      <g>
       <use style="stroke:#000000;stroke-width:0.8;" x="290.269091" xlink:href="#m1f441be8dd" y="307.584"/>
      </g>
     </g>
     <g id="text_6">
      <!-- 10000 -->
      <defs>
       <path d="M 12.40625 8.296875 
L 28.515625 8.296875 
L 28.515625 63.921875 
L 10.984375 60.40625 
L 10.984375 69.390625 
L 28.421875 72.90625 
L 38.28125 72.90625 
L 38.28125 8.296875 
L 54.390625 8.296875 
L 54.390625 0 
L 12.40625 0 
z
" id="DejaVuSans-31"/>
      </defs>
      <g transform="translate(274.362841 322.182437)scale(0.1 -0.1)">
       <use xlink:href="#DejaVuSans-31"/>
       <use x="63.623047" xlink:href="#DejaVuSans-30"/>
       <use x="127.246094" xlink:href="#DejaVuSans-30"/>
       <use x="190.869141" xlink:href="#DejaVuSans-30"/>
       <use x="254.492188" xlink:href="#DejaVuSans-30"/>
      </g>
     </g>
    </g>
    <g id="xtick_7">
     <g id="line2d_7">
      <g>
       <use style="stroke:#000000;stroke-width:0.8;" x="333.556364" xlink:href="#m1f441be8dd" y="307.584"/>
      </g>
     </g>
     <g id="text_7">
      <!-- 12000 -->
      <g transform="translate(317.650114 322.182437)scale(0.1 -0.1)">
       <use xlink:href="#DejaVuSans-31"/>
       <use x="63.623047" xlink:href="#DejaVuSans-32"/>
       <use x="127.246094" xlink:href="#DejaVuSans-30"/>
       <use x="190.869141" xlink:href="#DejaVuSans-30"/>
       <use x="254.492188" xlink:href="#DejaVuSans-30"/>
      </g>
     </g>
    </g>
    <g id="xtick_8">
     <g id="line2d_8">
      <g>
       <use style="stroke:#000000;stroke-width:0.8;" x="376.843636" xlink:href="#m1f441be8dd" y="307.584"/>
      </g>
     </g>
     <g id="text_8">
      <!-- 14000 -->
      <g transform="translate(360.937386 322.182437)scale(0.1 -0.1)">
       <use xlink:href="#DejaVuSans-31"/>
       <use x="63.623047" xlink:href="#DejaVuSans-34"/>
       <use x="127.246094" xlink:href="#DejaVuSans-30"/>
       <use x="190.869141" xlink:href="#DejaVuSans-30"/>
       <use x="254.492188" xlink:href="#DejaVuSans-30"/>
      </g>
     </g>
    </g>
   </g>
   <g id="matplotlib.axis_2">
    <g id="ytick_1">
     <g id="line2d_9">
      <defs>
       <path d="M 0 0 
L -3.5 0 
" id="m5f00829834" style="stroke:#000000;stroke-width:0.8;"/>
      </defs>
      <g>
       <use style="stroke:#000000;stroke-width:0.8;" x="57.6" xlink:href="#m5f00829834" y="275.928852"/>
      </g>
     </g>
     <g id="text_9">
      <!-- −80 -->
      <defs>
       <path d="M 10.59375 35.5 
L 73.1875 35.5 
L 73.1875 27.203125 
L 10.59375 27.203125 
z
" id="DejaVuSans-2212"/>
      </defs>
      <g transform="translate(29.495313 279.728071)scale(0.1 -0.1)">
       <use xlink:href="#DejaVuSans-2212"/>
       <use x="83.789062" xlink:href="#DejaVuSans-38"/>
       <use x="147.412109" xlink:href="#DejaVuSans-30"/>
      </g>
     </g>
    </g>
    <g id="ytick_2">
     <g id="line2d_10">
      <g>
       <use style="stroke:#000000;stroke-width:0.8;" x="57.6" xlink:href="#m5f00829834" y="232.294005"/>
      </g>
     </g>
     <g id="text_10">
      <!-- −60 -->
      <g transform="translate(29.495313 236.093224)scale(0.1 -0.1)">
       <use xlink:href="#DejaVuSans-2212"/>
       <use x="83.789062" xlink:href="#DejaVuSans-36"/>
       <use x="147.412109" xlink:href="#DejaVuSans-30"/>
      </g>
     </g>
    </g>
    <g id="ytick_3">
     <g id="line2d_11">
      <g>
       <use style="stroke:#000000;stroke-width:0.8;" x="57.6" xlink:href="#m5f00829834" y="188.659158"/>
      </g>
     </g>
     <g id="text_11">
      <!-- −40 -->
      <g transform="translate(29.495313 192.458376)scale(0.1 -0.1)">
       <use xlink:href="#DejaVuSans-2212"/>
       <use x="83.789062" xlink:href="#DejaVuSans-34"/>
       <use x="147.412109" xlink:href="#DejaVuSans-30"/>
      </g>
     </g>
    </g>
    <g id="ytick_4">
     <g id="line2d_12">
      <g>
       <use style="stroke:#000000;stroke-width:0.8;" x="57.6" xlink:href="#m5f00829834" y="145.024311"/>
      </g>
     </g>
     <g id="text_12">
      <!-- −20 -->
      <g transform="translate(29.495313 148.823529)scale(0.1 -0.1)">
       <use xlink:href="#DejaVuSans-2212"/>
       <use x="83.789062" xlink:href="#DejaVuSans-32"/>
       <use x="147.412109" xlink:href="#DejaVuSans-30"/>
      </g>
     </g>
    </g>
    <g id="ytick_5">
     <g id="line2d_13">
      <g>
       <use style="stroke:#000000;stroke-width:0.8;" x="57.6" xlink:href="#m5f00829834" y="101.389463"/>
      </g>
     </g>
     <g id="text_13">
      <!-- 0 -->
      <g transform="translate(44.2375 105.188682)scale(0.1 -0.1)">
       <use xlink:href="#DejaVuSans-30"/>
      </g>
     </g>
    </g>
    <g id="ytick_6">
     <g id="line2d_14">
      <g>
       <use style="stroke:#000000;stroke-width:0.8;" x="57.6" xlink:href="#m5f00829834" y="57.754616"/>
      </g>
     </g>
     <g id="text_14">
      <!-- 20 -->
      <g transform="translate(37.875 61.553835)scale(0.1 -0.1)">
       <use xlink:href="#DejaVuSans-32"/>
       <use x="63.623047" xlink:href="#DejaVuSans-30"/>
      </g>
     </g>
    </g>
   </g>
   <g id="line2d_15">
    <path clip-path="url(#p3881ad2271)" d="M 73.832727 265.02014 
L 74.045376 258.452097 
L 75.049641 222.534197 
L 75.160023 197.706423 
L 75.185996 106.344406 
L 75.195735 53.568 
L 75.290426 182.239351 
L 75.503075 245.667082 
L 75.563136 246.765954 
L 75.642676 246.056945 
L 75.643217 246.058694 
L 75.65945 245.750626 
L 75.841257 241.311971 
L 76.329321 211.49007 
L 76.385053 165.318778 
L 76.401286 54.002872 
L 76.49273 179.676008 
L 76.713495 245.563378 
L 76.78546 246.60572 
L 76.853638 245.978828 
L 77.075485 241.027546 
L 77.414208 228.161621 
L 77.580864 207.248109 
L 77.621987 162.20635 
L 77.637679 54.38421 
L 77.729664 179.602231 
L 77.95097 245.218785 
L 78.029428 246.409394 
L 78.081373 245.950645 
L 78.234502 243.107451 
L 78.456349 237.214141 
L 78.485568 236.221444 
L 78.681443 227.41096 
L 78.82375 211.395793 
L 78.877318 174.566828 
L 78.896256 54.579004 
L 78.986618 178.467186 
L 79.209007 245.069693 
L 79.286924 246.390439 
L 79.358348 245.764114 
L 79.46386 243.844608 
L 79.726831 237.280832 
L 79.744145 236.796138 
L 80.11858 207.803416 
L 80.161327 164.807585 
L 80.177559 54.789252 
L 80.269004 178.835119 
L 80.500591 245.285142 
L 80.568768 246.290589 
L 80.633699 245.793345 
L 80.844724 241.650179 
L 81.033565 236.615324 
L 81.320884 221.806997 
L 81.430185 197.566683 
L 81.456698 102.841155 
L 81.465897 54.899478 
L 81.561129 180.86754 
L 81.782976 245.074372 
L 81.783517 245.061202 
L 81.870092 246.271625 
L 81.915002 245.950458 
L 82.199616 240.286904 
L 82.200157 240.2913 
L 82.200698 240.293395 
L 82.21639 239.912091 
L 82.490723 231.000254 
L 82.698502 212.536294 
L 82.759104 170.318722 
L 82.77696 54.899586 
L 82.867863 178.547967 
L 83.090252 244.743099 
L 83.162217 246.128781 
L 83.231476 245.67219 
L 83.760663 232.35331 
L 83.919203 223.159779 
L 84.039866 199.848072 
L 84.068544 122.510845 
L 84.079366 55.100757 
L 84.174598 180.59705 
L 84.397527 244.757648 
L 84.473821 246.074771 
L 84.532259 245.628273 
L 84.713524 242.532723 
L 84.941324 237.02507 
L 85.202129 225.807909 
L 85.356881 200.622846 
L 85.386641 127.197793 
L 85.398004 55.226859 
L 85.492695 180.177943 
L 85.723741 244.88379 
L 85.797871 245.922175 
L 85.846028 245.602016 
L 86.147956 239.635302 
L 86.38766 232.215247 
L 86.624116 212.86976 
L 86.683095 179.556429 
L 86.704198 55.073856 
L 86.79456 178.057036 
L 87.021818 244.973448 
L 87.087831 246.217113 
L 87.150598 245.898571 
L 87.152221 245.903765 
L 87.460102 239.93013 
L 87.460643 239.942036 
L 87.511505 238.616185 
L 87.949248 212.299327 
L 88.005521 180.03865 
L 88.026624 55.18311 
L 88.116986 177.713385 
L 88.340457 244.443478 
L 88.422703 245.941699 
L 88.468695 245.726914 
L 89.192134 221.783958 
L 89.302516 197.414706 
L 89.32903 101.591314 
L 89.338228 55.217594 
L 89.432919 180.208071 
L 89.665047 245.061462 
L 89.731601 246.104252 
L 89.794909 245.734203 
L 90.268364 235.125048 
L 90.629271 197.445721 
L 90.655785 101.592914 
L 90.664983 55.114248 
L 90.759674 180.364527 
L 90.980439 244.867304 
L 91.058356 246.24671 
L 91.121123 245.821456 
L 91.122205 245.826294 
L 91.655721 233.445137 
L 91.961437 202.341216 
L 91.993903 134.860756 
L 92.005807 55.218453 
L 92.100497 180.153006 
L 92.333167 245.148488 
L 92.391604 246.213903 
L 92.455453 245.871468 
L 92.457076 245.873676 
L 92.504692 245.264838 
L 93.103139 228.413567 
L 93.293062 203.491834 
L 93.327151 143.789445 
L 93.340137 55.249188 
L 93.433745 179.547442 
L 93.669661 245.114112 
L 93.744332 246.013718 
L 93.793571 245.697177 
L 94.170711 238.11246 
L 94.515927 222.476564 
L 94.618193 205.089561 
L 94.654988 153.816161 
L 94.669597 55.19547 
L 94.762124 179.239952 
L 94.990464 244.896343 
L 95.070545 246.10923 
L 95.113292 245.820788 
L 95.113833 245.823691 
L 95.145216 245.389225 
L 95.16199 245.149975 
L 95.163072 245.156375 
L 95.282112 243.035911 
L 95.826449 223.825723 
L 95.942243 205.938705 
L 95.981201 155.154156 
L 95.995811 55.304854 
L 96.088337 178.936564 
L 96.315055 244.61914 
L 96.393513 245.933182 
L 96.443834 245.571902 
L 96.444916 245.582315 
L 96.932439 234.759053 
L 97.237073 213.219822 
L 97.299299 176.736606 
L 97.319319 55.275451 
L 97.409681 177.790327 
L 97.630988 244.343546 
L 97.715398 245.981619 
L 97.767884 245.644826 
L 97.948608 242.61426 
L 97.959971 242.402317 
L 98.185065 237.016726 
L 98.185606 237.023434 
L 98.465891 224.427699 
L 98.614691 190.24895 
L 98.642287 55.190925 
L 98.734813 179.044481 
L 98.968023 245.032791 
L 99.039447 245.998254 
L 99.089769 245.677387 
L 99.091933 245.690198 
L 99.141713 245.023397 
L 99.142796 245.038195 
L 99.286726 242.38169 
L 99.836474 221.101704 
L 99.923049 205.733937 
L 99.961466 155.32586 
L 99.976076 55.235352 
L 100.068602 178.9915 
L 100.298025 244.884199 
L 100.386764 246.045928 
L 100.436544 245.591324 
L 101.047977 228.934698 
L 101.250345 202.467638 
L 101.28281 137.763678 
L 101.295255 55.213839 
L 101.389405 179.9895 
L 101.61991 244.974722 
L 101.620451 244.96663 
L 101.681594 246.017472 
L 101.740032 245.663583 
L 101.773039 245.26637 
L 102.040879 240.022803 
L 102.04142 240.029529 
L 102.077132 239.094474 
L 102.238918 234.354046 
L 102.543552 210.70582 
L 102.594415 175.842415 
L 102.613894 55.198431 
L 102.704256 177.744891 
L 102.936384 244.905763 
L 103.015924 246.169582 
L 103.060835 245.863177 
L 103.135505 244.894322 
L 103.353024 240.586338 
L 103.353565 240.592403 
L 103.354106 240.600384 
L 103.395229 239.585744 
L 103.39577 239.590428 
L 103.849745 216.674948 
L 103.916841 197.507958 
L 103.942813 109.804338 
L 103.953094 55.25517 
L 104.047785 180.40894 
L 104.271255 244.670847 
L 104.349713 246.022321 
L 104.414644 245.508124 
L 104.416268 245.512033 
L 104.658135 240.97619 
L 104.658676 240.982995 
L 104.696553 240.070855 
L 105.059084 227.195309 
L 105.224657 205.309924 
L 105.262534 151.272985 
L 105.276602 55.3025 
L 105.36967 179.213642 
L 105.595305 244.61971 
L 105.677009 245.906353 
L 105.752762 245.2785 
L 106.211607 234.590059 
L 106.491351 216.331849 
L 106.568727 183.784553 
L 106.591994 55.224855 
L 106.682356 177.936837 
L 106.906909 244.687638 
L 106.993484 246.089576 
L 107.05625 245.624056 
L 107.407418 238.53104 
L 107.837585 213.821685 
L 107.899811 183.555095 
L 107.923078 55.234122 
L 108.01344 177.990007 
L 108.254225 245.237441 
L 108.254767 245.231631 
L 108.316992 246.129238 
L 108.373807 245.82556 
L 108.374348 245.840855 
L 108.446854 244.777731 
L 108.447936 244.779142 
L 108.91598 233.242482 
L 109.219532 200.06361 
L 109.248209 127.535459 
L 109.259572 55.163229 
L 109.354263 180.261958 
L 109.579898 244.90176 
L 109.653487 246.10509 
L 109.727075 245.544136 
L 109.727616 245.544994 
L 109.741143 245.360966 
L 109.859101 243.3769 
L 110.360151 228.253065 
L 110.546287 204.212104 
L 110.581457 148.83841 
L 110.595526 55.215066 
L 110.688593 179.584596 
L 110.916934 244.93562 
L 110.917475 244.92726 
L 110.961303 245.951439 
L 110.962385 245.937768 
L 110.987817 246.105608 
L 111.055994 245.651212 
L 111.147439 244.244281 
L 111.785385 221.012907 
L 111.896849 189.681056 
L 111.923904 55.316324 
L 112.016431 178.849444 
L 112.246935 244.777481 
L 112.326476 245.912054 
L 112.372468 245.585459 
L 112.536419 242.758057 
L 112.53696 242.776123 
L 112.832396 235.474584 
L 113.031517 226.830829 
L 113.195468 203.42473 
L 113.229015 147.864882 
L 113.242543 55.292692 
L 113.336151 179.490201 
L 113.559622 244.655115 
L 113.63321 246.031999 
L 113.691648 245.780162 
L 113.776599 244.588485 
L 113.94542 241.218513 
L 114.182959 234.874683 
L 114.491921 212.830827 
L 114.551441 179.442929 
L 114.572544 55.295157 
L 114.662906 177.810083 
L 114.884753 244.356199 
L 114.981068 245.896416 
L 115.037882 245.418012 
L 115.35442 239.149737 
L 115.354961 239.157423 
L 115.39392 238.158542 
L 115.798656 216.06278 
L 115.872785 186.039326 
L 115.897135 55.244303 
L 115.988579 178.290853 
L 116.213673 244.696191 
L 116.302412 246.075808 
L 116.352733 245.714908 
L 116.546985 242.360918 
L 116.547526 242.363518 
L 116.568628 241.91978 
L 116.569169 241.929356 
L 116.642217 240.313697 
L 116.895988 232.78138 
L 116.918173 231.915116 
L 117.195212 197.263301 
L 117.221725 99.491066 
L 117.230924 55.303456 
L 117.325615 180.194694 
L 117.556119 244.904235 
L 117.638365 245.991581 
L 117.694639 245.514849 
L 117.702214 245.401088 
L 117.957609 240.660273 
L 117.966807 240.443514 
L 118.204887 233.70999 
L 118.448919 218.045478 
L 118.537658 185.171029 
L 118.561466 55.229915 
L 118.652911 178.283217 
L 118.879628 244.601892 
L 118.959709 245.937657 
L 119.01977 245.517349 
L 119.050612 245.118385 
L 119.382301 238.096489 
L 119.814633 210.377203 
L 119.866036 168.935741 
L 119.883351 55.209945 
L 119.974255 178.101249 
L 120.200972 244.885902 
L 120.205841 245.033805 
L 120.27943 246.263394 
L 120.355724 245.659742 
L 120.523462 242.661791 
L 120.57216 241.620904 
L 121.071587 222.416694 
L 121.190086 196.491992 
L 121.215517 98.665758 
L 121.224716 55.187645 
L 121.318865 180.122874 
L 121.5445 244.848862 
L 121.614301 246.092217 
L 121.679773 245.644061 
L 122.064489 237.73866 
L 122.400506 221.923157 
L 122.521711 189.166792 
L 122.548765 55.271184 
L 122.640751 178.758186 
L 122.864221 244.504505 
L 122.891276 245.370462 
L 122.949172 245.962472 
L 123.007069 245.498494 
L 123.008151 245.49912 
L 123.461585 235.43774 
L 123.724556 221.797935 
L 123.827363 202.105186 
L 123.859287 134.722884 
L 123.871732 55.237041 
L 123.965882 180.141241 
L 124.188271 244.553014 
L 124.270516 245.99968 
L 124.313263 245.699228 
L 125.024797 223.990725 
L 125.154659 200.652086 
L 125.183878 133.939697 
L 125.195782 55.27613 
L 125.290473 180.067938 
L 125.520436 244.907142 
L 125.520977 244.902195 
L 125.592401 246.009031 
L 125.650839 245.612399 
L 125.65138 245.613439 
L 125.668154 245.412968 
L 125.668695 245.42364 
L 125.825071 242.739546 
L 125.825612 242.742759 
L 125.848879 242.226745 
L 126.188684 232.877071 
L 126.189225 232.87909 
L 126.373196 222.271702 
L 126.496023 191.74287 
L 126.525242 55.365419 
L 126.61831 179.22715 
L 126.847191 244.643707 
L 126.922944 245.813514 
L 126.971642 245.517358 
L 127.113408 243.434664 
L 127.113949 243.437987 
L 127.139921 242.913782 
L 127.140463 242.928361 
L 127.374755 237.412913 
L 127.420207 236.087847 
L 127.794641 205.780485 
L 127.832518 159.055135 
L 127.847668 55.200003 
L 127.940195 178.954499 
L 128.157172 244.272169 
L 128.2405 246.050394 
L 128.295151 245.779507 
L 128.777263 235.284008 
L 129.140876 200.690498 
L 129.170636 128.732194 
L 129.181999 55.251103 
L 129.276689 180.073326 
L 129.509359 245.002552 
L 129.581324 245.977603 
L 129.635974 245.580897 
L 129.638679 245.583559 
L 129.646255 245.46989 
L 129.646796 245.470453 
L 129.834013 242.262451 
L 129.834554 242.269537 
L 129.97632 239.072057 
L 130.208989 231.481117 
L 130.33831 223.96762 
L 130.449233 208.080611 
L 130.493603 163.01804 
L 130.509836 55.253667 
L 130.60128 178.489676 
L 130.837196 245.064034 
L 130.904832 246.079284 
L 130.96814 245.706474 
L 130.968681 245.71407 
L 131.021708 244.897916 
L 131.022249 244.912408 
L 131.266822 239.913682 
L 131.330129 238.342938 
L 131.682921 222.46164 
L 131.792221 202.33663 
L 131.824145 140.790583 
L 131.837132 55.323621 
L 131.93074 179.641752 
L 132.165033 244.979303 
L 132.240785 246.034871 
L 132.297059 245.641232 
L 132.548666 240.960175 
L 133.080017 214.028002 
L 133.141702 186.797674 
L 133.166592 55.358457 
L 133.258036 178.134569 
L 133.479884 244.259008 
L 133.575116 245.930369 
L 133.618403 245.583256 
L 133.824017 242.042288 
L 133.824559 242.044533 
L 134.121617 234.094798 
L 134.413265 212.351774 
L 134.47008 179.533526 
L 134.491183 55.293326 
L 134.581545 177.728452 
L 134.82233 245.148702 
L 134.887802 246.02829 
L 134.961932 245.427067 
L 135.642083 224.633087 
L 135.74002 213.173754 
L 135.801705 177.78856 
L 135.822266 55.24514 
L 135.912628 177.919979 
L 136.142592 244.816865 
L 136.226461 246.060174 
L 136.293015 245.496969 
L 136.545705 240.733012 
L 136.295721 245.501632 
L 136.546246 240.73406 
L 136.546787 240.735369 
L 136.557609 240.481621 
L 136.849257 231.367583 
L 137.023488 219.408946 
L 137.120343 188.989892 
L 137.146857 55.265156 
L 137.238842 178.600236 
L 137.462854 244.63784 
L 137.546723 246.114434 
L 137.593257 245.827239 
L 138.275572 226.651536 
L 138.444934 199.320413 
L 138.473071 118.814384 
L 138.483892 55.217473 
L 138.578583 180.318756 
L 138.809629 245.023278 
L 138.876183 246.078509 
L 138.936785 245.69806 
L 139.13266 242.351142 
L 139.336111 237.610866 
L 139.442164 234.401285 
L 139.726778 214.662769 
L 139.796579 177.792041 
L 139.81714 55.298963 
L 139.907503 177.835109 
L 140.143418 244.867317 
L 140.143959 244.866906 
L 140.2235 245.870441 
L 140.268951 245.529979 
L 140.531921 240.67726 
L 141.063814 210.947792 
L 141.1163 173.996701 
L 141.135238 55.166157 
L 141.2256 177.882537 
L 141.448529 244.600829 
L 141.52807 246.155848 
L 141.582179 245.836507 
L 141.813225 241.740979 
L 141.970682 238.031009 
L 142.166557 231.488558 
L 142.237981 227.834497 
L 142.392733 211.409307 
L 142.447924 171.847589 
L 142.466321 55.191398 
L 142.557225 178.231883 
L 142.781236 244.654861 
L 142.859153 246.106033 
L 142.911639 245.788675 
L 142.912721 245.796662 
L 143.172445 240.977909 
L 143.710289 213.032067 
L 143.770351 179.552212 
L 143.791453 55.18122 
L 143.881815 177.936525 
L 144.109073 244.720064 
L 144.194025 246.082694 
L 144.249216 245.698045 
L 144.415331 242.769231 
L 144.416413 242.78538 
L 144.47431 241.538804 
L 144.660445 236.86593 
L 145.037585 213.156265 
L 145.096564 183.387119 
L 145.119831 55.202831 
L 145.210193 178.010874 
L 145.445027 244.976219 
L 145.522403 246.070078 
L 145.57056 245.665276 
L 145.829201 241.016575 
L 146.336745 217.765231 
L 146.416826 193.220891 
L 146.442257 65.715143 
L 146.447668 55.214375 
L 146.529373 172.935352 
L 146.764748 244.749892 
L 146.841041 246.103174 
L 146.896774 245.806848 
L 146.905431 245.720203 
L 147.072087 242.857847 
L 147.138641 241.488943 
L 147.3264 236.862636 
L 147.600733 224.587857 
L 147.715985 209.087255 
L 147.763601 165.107989 
L 147.780375 55.352139 
L 147.87182 178.363136 
L 148.104489 244.787367 
L 148.10503 244.78673 
L 148.174289 245.860667 
L 148.247878 245.362807 
L 148.887988 226.749853 
L 149.024884 211.471501 
L 149.078993 176.349958 
L 149.098473 55.272963 
L 149.189376 177.828038 
L 149.415552 244.576844 
L 149.505373 246.030879 
L 149.545414 245.759632 
L 149.589242 245.220594 
L 149.780788 241.581216 
L 149.781329 241.587255 
L 149.820288 240.780584 
L 149.82137 240.791184 
L 150.015081 235.597182 
L 150.015622 235.597975 
L 150.021033 235.418368 
L 150.33703 214.442985 
L 150.404125 181.143673 
L 150.425769 55.24095 
L 150.516672 177.981664 
L 150.747177 244.76733 
L 150.815354 246.022175 
L 150.870545 245.67878 
L 150.87271 245.679396 
L 151.066961 242.41852 
L 151.243357 238.301397 
L 151.505786 228.746351 
L 151.700038 204.716975 
L 151.736832 147.364492 
L 151.750359 55.315348 
L 151.843968 179.496583 
L 152.065815 244.49267 
L 152.150767 246.012817 
L 152.210287 245.614851 
L 152.384518 242.656298 
L 152.915328 223.47336 
L 153.031663 204.352464 
L 153.066833 152.584662 
L 153.080902 55.258824 
L 153.173969 179.206415 
L 153.403933 244.890606 
L 153.494836 245.968511 
L 153.54137 245.578714 
L 153.541911 245.582232 
L 153.574377 245.087954 
L 153.578164 245.088336 
L 153.667985 243.569197 
L 154.170118 228.411793 
L 154.347055 208.296156 
L 154.391424 165.785538 
L 154.408198 55.226954 
L 154.499642 178.524682 
L 154.722031 244.5567 
L 154.803194 246.05691 
L 154.852433 245.705701 
L 154.853516 245.707729 
L 155.033699 242.815047 
L 155.244183 237.931853 
L 155.244724 237.936362 
L 155.285306 236.851907 
L 155.675433 209.311318 
L 155.723049 168.110622 
L 155.740364 55.240525 
L 155.831267 178.197447 
L 156.064477 244.928716 
L 156.136983 246.022972 
L 156.188928 245.698542 
L 156.359372 242.798456 
L 156.49735 239.854931 
L 156.972428 215.189685 
L 157.040064 187.841552 
L 157.066036 55.259482 
L 157.157481 178.459108 
L 157.392314 244.983285 
L 157.461574 246.010792 
L 157.518929 245.591788 
L 157.69262 242.724091 
L 157.865228 238.799815 
L 157.894988 238.054149 
L 158.177437 226.904941 
L 158.341388 204.455449 
L 158.3771 150.519222 
L 158.391168 55.302106 
L 158.484236 179.258637 
L 158.713117 244.797754 
L 158.77913 246.017532 
L 158.857588 245.506094 
L 159.549103 224.421888 
L 159.653533 211.230838 
L 159.708724 169.316229 
L 159.726039 55.30898 
L 159.817484 178.16045 
L 160.045824 244.687997 
L 160.124282 245.975861 
L 160.177309 245.623246 
L 160.362362 242.539296 
L 160.523607 238.823528 
L 160.524148 238.827255 
L 160.547415 238.220806 
L 160.918063 220.5424 
L 161.024657 189.365325 
L 161.051712 55.120178 
L 161.143697 178.917141 
L 161.379613 245.254188 
L 161.454284 246.161566 
L 161.502982 245.785115 
L 161.798417 240.255257 
L 161.798959 240.256711 
L 161.813027 239.978585 
L 161.83954 239.316868 
L 161.840081 239.321254 
L 162.061388 232.533783 
L 162.229126 223.068634 
L 162.353577 197.415855 
L 162.38009 101.930316 
L 162.389289 55.253866 
L 162.48398 180.127582 
L 162.709073 244.716935 
L 162.788614 245.963984 
L 162.869236 245.334738 
L 162.917393 244.63749 
L 163.492032 227.336119 
L 163.646784 209.484139 
L 163.695482 166.351034 
L 163.712256 55.234874 
L 163.8037 178.449271 
L 164.033123 244.795358 
L 164.033664 244.786409 
L 164.110499 246.060907 
L 164.161903 245.713963 
L 164.25497 244.378205 
L 164.543372 238.011667 
L 164.544454 238.017369 
L 164.68135 233.703241 
L 164.931875 217.371489 
L 164.999511 200.128661 
L 165.02873 122.397006 
L 165.039552 55.249066 
L 165.134784 180.403374 
L 165.358255 244.752083 
L 165.436713 246.024897 
L 165.491363 245.665351 
L 165.592547 244.103033 
L 165.938845 236.0922 
L 165.939386 236.09414 
L 165.950749 235.733764 
L 166.081693 230.892781 
L 166.28352 214.046696 
L 166.350615 175.445254 
L 166.370095 55.26452 
L 166.460457 177.825184 
L 166.687715 244.641241 
L 166.760762 246.017161 
L 166.832186 245.537037 
L 167.437126 229.671695 
L 167.673041 188.114147 
L 167.699014 55.258479 
L 167.790999 178.629528 
L 168.019881 244.777215 
L 168.095633 246.0228 
L 168.147578 245.660022 
L 168.14866 245.66375 
L 168.171386 245.332768 
L 168.173551 245.347622 
L 168.247139 244.152499 
L 168.727628 231.058162 
L 168.98194 197.882603 
L 169.008454 110.224726 
L 169.018735 55.2274 
L 169.113425 180.35485 
L 169.346636 245.044122 
L 169.407238 246.084063 
L 169.469463 245.716858 
L 170.046266 231.463855 
L 170.272983 211.578485 
L 170.32601 179.893018 
L 170.347113 55.224603 
L 170.437475 177.712848 
L 170.659322 244.446939 
L 170.745897 246.02528 
L 170.789725 245.785742 
L 170.945559 243.249905 
L 171.473664 226.065344 
L 171.637615 198.292395 
L 171.66521 104.077481 
L 171.67495 55.238935 
L 171.769641 180.365287 
L 172.005015 245.110415 
L 172.069946 246.017817 
L 172.15111 245.369034 
L 172.312355 242.579375 
L 172.481175 238.770642 
L 172.94002 210.355903 
L 172.988177 179.355907 
L 173.00928 55.261892 
L 173.099642 177.821915 
L 173.328524 244.695764 
L 173.34151 245.140422 
L 173.410228 245.977884 
L 173.461632 245.61797 
L 173.61422 243.09659 
L 173.645062 242.472204 
L 174.208337 219.55477 
L 174.302487 193.836627 
L 174.327377 73.557249 
L 174.333871 55.312768 
L 174.422609 176.722091 
L 174.649327 244.44885 
L 174.732113 245.90682 
L 174.782435 245.552579 
L 174.783517 245.559976 
L 175.035124 240.952819 
L 175.219095 236.211837 
L 175.219636 236.220878 
L 175.322985 232.644869 
L 175.556195 215.694855 
L 175.62816 186.065943 
L 175.652509 55.252435 
L 175.743953 178.218427 
L 175.966883 244.488055 
L 176.046423 246.050907 
L 176.103779 245.670748 
L 176.237969 243.642256 
L 176.422481 239.571976 
L 176.423023 239.584639 
L 176.476591 238.243362 
L 176.931648 204.767841 
L 176.967901 151.482603 
L 176.981969 55.112071 
L 177.075037 179.460349 
L 177.310412 245.197751 
L 177.387788 246.113072 
L 177.438109 245.750629 
L 177.43865 245.753259 
L 177.465705 245.358506 
L 177.631279 242.436276 
L 177.637772 242.34318 
L 177.801722 238.540313 
L 178.188061 219.266676 
L 178.264896 203.029251 
L 178.298444 139.019257 
L 178.310889 55.251229 
L 178.405039 179.845881 
L 178.631756 244.902836 
L 178.704262 246.160924 
L 178.755665 245.878055 
L 178.972102 242.158778 
L 178.972643 242.159808 
L 178.983465 241.944026 
L 179.354112 230.933399 
L 179.551069 215.148127 
L 179.618164 187.785998 
L 179.644137 55.235819 
L 179.735581 178.547904 
L 179.961757 244.725288 
L 180.047791 246.048476 
L 180.102441 245.685203 
L 180.406534 239.832726 
L 180.407075 239.839815 
L 180.446033 238.892769 
L 180.778804 225.96884 
L 180.929228 203.708501 
L 180.963857 144.043356 
L 180.976844 55.288549 
L 181.070452 179.460338 
L 181.291759 244.560194 
L 181.385367 246.029219 
L 181.429196 245.67553 
L 181.599639 242.896342 
L 182.015197 231.172747 
L 182.245702 208.836055 
L 182.291695 167.339958 
L 182.309009 55.23291 
L 182.399913 178.281097 
L 182.625548 244.715757 
L 182.71591 246.137568 
L 182.780841 245.553001 
L 182.783005 245.566522 
L 183.462074 224.944236 
L 183.518889 219.835567 
L 183.600593 203.024454 
L 183.634141 139.356401 
L 183.646586 55.342969 
L 183.740736 179.701173 
L 183.970159 244.848649 
L 184.0405 245.989007 
L 184.094609 245.707379 
L 184.095151 245.720722 
L 184.167657 244.799553 
L 184.168739 244.806791 
L 184.360285 241.223283 
L 184.360826 241.239616 
L 184.425216 239.838945 
L 184.927348 214.881785 
L 184.99769 182.543755 
L 185.020416 55.902059 
L 185.111319 177.440773 
L 185.345612 244.333656 
L 185.448419 245.782474 
L 185.480343 245.605789 
L 185.719505 242.620115 
L 185.720047 242.644353 
L 185.801751 241.394174 
L 185.802833 241.39617 
L 186.022516 237.819771 
L 186.023057 237.831501 
L 186.080954 236.694534 
L 186.081495 236.695659 
L 186.536553 213.326161 
L 186.598778 184.294887 
L 186.622586 57.216283 
L 186.714031 176.093835 
L 186.955898 243.072331 
L 187.083596 245.074479 
L 187.126342 245.010772 
L 187.128506 245.023519 
L 187.247546 244.553489 
L 187.251334 244.571143 
L 187.331415 244.203984 
L 187.332497 244.212426 
L 187.44288 243.824801 
L 187.449373 243.832679 
L 187.468311 243.831065 
L 187.505647 243.630879 
L 187.511057 243.647481 
L 187.617652 243.423689 
L 187.517009 243.656483 
L 187.634967 243.447324 
L 187.637132 243.484486 
L 187.734528 243.330822 
L 187.743727 243.357399 
L 187.841664 243.388522 
L 187.80974 243.282204 
L 187.851404 243.334184 
L 187.924451 243.316212 
L 187.904431 243.401264 
L 187.961786 243.34968 
L 187.964492 243.327308 
L 188.222051 243.910477 
L 188.229626 243.868217 
L 188.322694 244.261598 
L 188.324317 244.250114 
L 188.526685 245.193397 
L 188.529932 245.168503 
L 188.618129 245.748497 
L 188.618671 245.745623 
L 188.665745 246.080069 
L 188.670074 246.061826 
L 188.8811 247.796352 
L 188.882182 247.791096 
L 188.90599 248.050859 
L 188.906531 248.043187 
L 189.04992 249.645532 
L 189.317219 253.150114 
L 189.31776 253.149255 
L 189.648367 258.298159 
L 189.648908 258.290375 
L 189.700852 259.14299 
L 190.082863 265.824163 
L 190.083404 265.814774 
L 190.140759 266.744928 
L 190.749487 276.344008 
L 190.750028 276.334693 
L 190.813335 277.147185 
L 190.813876 277.142155 
L 190.998929 279.330466 
L 190.999471 279.325545 
L 191.000012 279.323272 
L 191.029772 279.676754 
L 191.030313 279.676 
L 191.042758 279.836616 
L 191.046004 279.819988 
L 191.186147 281.252233 
L 191.186688 281.239879 
L 191.359296 282.765503 
L 191.49024 283.699676 
L 191.362001 282.759191 
L 191.492404 283.676335 
L 191.492945 283.666271 
L 191.571945 284.260853 
L 191.573027 284.254404 
L 191.606575 284.453854 
L 191.759162 285.418145 
L 192.159569 287.109383 
L 192.161193 287.087275 
L 192.162275 287.059482 
L 192.255884 287.545327 
L 192.259671 287.505113 
L 192.260212 287.504327 
L 192.294301 287.648896 
L 192.295383 287.641557 
L 192.545908 288.488022 
L 192.562141 288.445298 
L 192.646551 288.775881 
L 192.65088 288.760863 
L 192.790481 289.143807 
L 192.652503 288.735772 
L 192.793728 289.109838 
L 192.79481 289.104654 
L 192.835933 289.227645 
L 192.850543 289.216596 
L 192.98311 289.606965 
L 192.851625 289.216322 
L 192.984192 289.606609 
L 192.984733 289.597466 
L 193.078342 289.855947 
L 193.080506 289.853052 
L 193.194676 290.210551 
L 193.200628 290.197211 
L 193.204416 290.17686 
L 193.292073 290.464752 
L 193.299107 290.452817 
L 193.411654 290.809484 
L 193.413277 290.767949 
L 193.513379 291.052074 
L 193.517708 291.010038 
L 194.925626 293.801434 
L 194.932119 293.768801 
L 194.934284 293.752647 
L 194.991098 293.894217 
L 195.022481 293.882968 
L 195.032221 293.841751 
L 195.137193 294.051104 
L 195.165871 294.027983 
L 195.240541 294.200603 
L 195.24487 294.179182 
L 195.252445 294.141585 
L 195.343348 294.37445 
L 195.344431 294.360624 
L 195.449402 294.547213 
L 195.368239 294.336619 
L 195.460224 294.513199 
L 195.460765 294.483407 
L 195.568442 294.650625 
L 195.568983 294.619605 
L 195.683153 294.797122 
L 195.570065 294.606884 
L 195.684777 294.759398 
L 195.771351 294.743634 
L 195.707503 294.813687 
L 195.777303 294.812473 
L 195.888227 294.952235 
L 195.787584 294.778643 
L 195.890932 294.933016 
L 195.912035 294.910056 
L 195.989952 295.020668 
L 195.995363 294.976965 
L 196.090595 295.081412 
L 196.10791 295.03623 
L 196.108451 295.019484 
L 196.210176 295.168114 
L 196.215046 295.16032 
L 196.307572 295.243712 
L 196.264826 295.112462 
L 196.330839 295.228833 
L 196.379537 295.147499 
L 196.438516 295.256463 
L 196.441763 295.231517 
L 196.545652 295.324594 
L 196.496954 295.192049 
L 196.555933 295.302439 
L 196.580282 295.272959 
L 196.640343 295.355579 
L 196.666316 295.321718 
L 196.747479 295.399576 
L 196.696076 295.285212 
L 196.78265 295.391817 
L 196.821068 295.329184 
L 196.884375 295.468929 
L 196.892492 295.440738 
L 197.038045 295.425564 
L 197.039668 295.421873 
L 197.125161 295.357778 
L 197.062935 295.447693 
L 197.151133 295.385275 
L 197.277748 295.332046 
L 197.173318 295.41159 
L 197.283159 295.343639 
L 197.359453 295.447957 
L 197.302097 295.341672 
L 197.395165 295.386382 
L 197.422761 295.467966 
L 197.396247 295.382897 
L 197.507712 295.4594 
L 197.579677 295.379544 
L 197.509335 295.466019 
L 197.6208 295.392364 
L 197.644608 295.457661 
L 197.679779 295.353217 
L 197.731724 295.401849 
L 197.833449 295.31851 
L 197.744169 295.41557 
L 197.844271 295.335116 
L 197.965475 295.470035 
L 197.851305 295.31534 
L 197.967098 295.456922 
L 198.075316 295.360531 
L 197.972509 295.469099 
L 198.079645 295.415594 
L 198.297164 295.323122 
L 198.382115 295.25153 
L 198.4043 295.349206 
L 198.408628 295.308241 
L 198.469231 295.344119 
L 198.495203 295.236447 
L 198.519011 295.297607 
L 198.614784 295.266676 
L 198.561216 295.349032 
L 198.631558 295.291619 
L 198.641297 295.32711 
L 198.730036 295.205372 
L 198.738153 295.243056 
L 198.759796 295.196756 
L 198.802001 295.289795 
L 198.847994 295.263044 
L 198.848535 295.274384 
L 198.921041 295.115413 
L 198.955671 295.193226 
L 198.976233 295.232211 
L 199.030883 295.128172 
L 199.064972 295.17247 
L 199.156416 295.044515 
L 199.181306 295.049838 
L 199.182388 295.073986 
L 199.289524 294.958423 
L 199.290065 294.966594 
L 199.327401 295.013796 
L 199.393414 294.920215 
L 199.400448 294.94625 
L 199.404236 294.975822 
L 199.483776 294.830667 
L 199.504879 294.853073 
L 199.531933 294.862251 
L 199.619049 294.705607 
L 199.655843 294.638453 
L 199.69426 294.778297 
L 199.729431 294.711156 
L 199.759732 294.77251 
L 199.833321 294.619044 
L 199.836026 294.648072 
L 199.952361 294.483595 
L 200.015668 294.550802 
L 199.970217 294.466765 
L 200.063284 294.494564 
L 200.172585 294.410632 
L 200.074106 294.511051 
L 200.176913 294.430281 
L 200.220742 294.480632 
L 200.265111 294.34515 
L 200.282426 294.414409 
L 200.356556 294.290194 
L 200.291084 294.457988 
L 200.395514 294.31523 
L 200.426356 294.365229 
L 200.470726 294.23592 
L 200.481007 294.232755 
L 200.499404 294.242954 
L 200.596259 294.132809 
L 200.603293 294.164301 
L 200.653073 294.023064 
L 200.686621 294.045317 
L 200.789428 293.91852 
L 200.712052 294.079266 
L 200.802415 293.93162 
L 200.817024 293.968033 
L 200.909009 293.77625 
L 200.928489 293.820655 
L 200.993961 293.686482 
L 201.016687 293.726974 
L 201.131398 293.564503 
L 201.021015 293.751229 
L 201.131939 293.573203 
L 201.247732 293.387179 
L 201.133562 293.592441 
L 201.250438 293.397319 
L 201.272081 293.455215 
L 201.358656 293.291211 
L 201.359197 293.300145 
L 201.484189 293.121704 
L 201.36569 293.328302 
L 201.520442 293.170742 
L 201.531264 293.19137 
L 201.611887 292.987349 
L 201.617839 293.010076 
L 201.753652 292.855336 
L 201.631907 293.027579 
L 201.764474 292.902058 
L 201.776378 292.949333 
L 201.870528 292.758447 
L 201.872151 292.771427 
L 201.972253 292.587613 
L 201.885137 292.802762 
L 201.991732 292.636186 
L 202.060992 292.594916 
L 202.021492 292.55584 
L 202.063156 292.550738 
L 202.176785 292.370271 
L 202.074519 292.580704 
L 202.187607 292.392841 
L 202.188689 292.412706 
L 202.266065 292.24087 
L 202.294743 292.254637 
L 202.296367 292.26493 
L 202.385105 292.104326 
L 202.39214 292.151801 
L 202.509556 292.015285 
L 202.396468 292.156205 
L 202.510097 292.016808 
L 202.511721 292.045463 
L 202.591261 291.845062 
L 202.592884 291.863971 
L 202.692445 291.742403 
L 202.646993 291.898706 
L 202.705972 291.750563 
L 202.737897 291.797438 
L 202.757917 291.671993 
L 202.787677 291.673915 
L 202.884532 291.542246 
L 202.810944 291.71353 
L 202.900765 291.588138 
L 203.025216 291.356086 
L 203.028463 291.387283 
L 203.029004 291.392239 
L 203.11666 291.212559 
L 203.122612 291.229367 
L 203.180509 291.13337 
L 203.278447 290.998224 
L 203.192954 291.165296 
L 203.293597 291.031434 
L 203.295761 291.061172 
L 203.383959 290.90571 
L 203.400192 290.942239 
L 203.515985 290.712228 
L 203.518691 290.738203 
L 203.521396 290.763813 
L 203.562519 290.636668 
L 203.576047 290.655879 
L 203.690758 290.423124 
L 203.578211 290.66986 
L 203.693463 290.43411 
L 203.69671 290.465508 
L 203.778415 290.283992 
L 203.786531 290.300492 
L 203.885551 290.205763 
L 203.818996 290.326793 
L 203.898537 290.251082 
L 203.899078 290.263167 
L 204.001885 290.091244 
L 204.132288 289.840881 
L 204.004049 290.119065 
L 204.133911 289.84351 
L 204.135535 289.886308 
L 204.232931 289.616711 
L 204.241588 289.664576 
L 204.242129 289.667555 
L 204.314095 289.481571 
L 204.324375 289.502127 
L 204.343855 289.564348 
L 204.473175 289.32027 
L 204.479668 289.369188 
L 204.577606 289.15283 
L 204.57977 289.171012 
L 204.784844 288.849274 
L 204.787008 288.889069 
L 204.793501 288.930968 
L 204.883322 288.707478 
L 204.883863 288.708578 
L 204.935808 288.599921 
L 204.954205 288.609769 
L 205.054848 288.379474 
L 204.959075 288.637522 
L 205.073786 288.38503 
L 205.074327 288.405895 
L 205.173888 288.173874 
L 205.180922 288.231655 
L 205.407639 287.746314 
L 205.185792 288.237671 
L 205.414673 287.756184 
L 205.415215 287.799556 
L 205.522351 287.483869 
L 205.96334 286.674852 
L 205.540748 287.551043 
L 205.963881 286.676293 
L 206.081297 286.479673 
L 205.979572 286.703799 
L 206.082921 286.488559 
L 206.084003 286.512443 
L 206.164084 286.233891 
L 206.184105 286.282859 
L 206.303686 286.032099 
L 206.192762 286.311148 
L 206.304768 286.046678 
L 206.308015 286.076203 
L 206.40487 285.832899 
L 206.532026 285.594851 
L 206.412986 285.875852 
L 206.541766 285.639665 
L 206.543389 285.667568 
L 206.64295 285.39682 
L 206.647279 285.434451 
L 206.649443 285.439222 
L 206.717079 285.285264 
L 206.719244 285.299816 
L 206.721949 285.310961 
L 206.840448 285.034927 
L 206.846941 285.065534 
L 206.944337 284.839025 
L 206.94542 284.851741 
L 207.237609 284.093083 
L 207.243561 284.150117 
L 207.244102 284.157329 
L 207.333923 283.919124 
L 207.336087 283.919936 
L 207.452963 283.640757 
L 207.340957 283.957303 
L 207.454045 283.65934 
L 207.614749 283.317664 
L 207.464326 283.689546 
L 207.62016 283.338897 
L 207.620701 283.348195 
L 207.715392 283.08818 
L 207.718097 283.111146 
L 207.825233 282.862313 
L 207.726755 283.111661 
L 207.839843 282.871663 
L 207.842548 282.9039 
L 207.899904 282.753571 
L 207.908561 282.762701 
L 208.024896 282.49046 
L 208.030848 282.508052 
L 208.034095 282.533755 
L 208.13582 282.258391 
L 208.136361 282.267956 
L 208.5925 281.288821 
L 208.149347 282.293695 
L 208.593583 281.309645 
L 208.596829 281.336981 
L 208.693143 281.060222 
L 208.694225 281.067085 
L 208.800279 280.755831 
L 208.70126 281.093431 
L 208.812724 280.759691 
L 208.818676 280.777136 
L 208.931764 280.504658 
L 208.932847 280.512411 
L 209.021585 280.237449 
L 209.023209 280.263059 
L 209.141167 279.903605 
L 209.143331 279.929372 
L 209.301329 279.478914 
L 209.151447 279.93939 
L 209.301871 279.479964 
L 209.319185 279.503456 
L 209.403596 279.211817 
L 209.405219 279.230561 
L 209.409007 279.249623 
L 209.521553 278.927392 
L 209.533457 278.952464 
L 209.623279 278.682434 
L 209.625984 278.715988 
L 209.627607 278.722747 
L 209.748271 278.377908 
L 209.750976 278.408508 
L 209.845126 278.129734 
L 209.851078 278.140169 
L 210.072925 277.492118 
L 209.852701 278.151597 
L 210.081583 277.524526 
L 210.082124 277.549337 
L 210.182767 277.244072 
L 210.186554 277.248286 
L 210.368361 276.737747 
L 210.190342 277.256859 
L 210.369443 276.748856 
L 210.372148 276.770737 
L 210.469545 276.498911 
L 210.470086 276.515331 
L 210.635119 276.043077 
L 210.471168 276.519266 
L 210.636201 276.051294 
L 210.638906 276.057982 
L 210.712495 275.774626 
L 210.713036 275.776452 
L 210.759569 275.567993 
L 210.767686 275.574598 
L 210.893219 275.203272 
L 210.772556 275.593243 
L 210.894301 275.217633 
L 210.912698 275.219717 
L 210.931095 275.117662 
L 210.940294 275.140968 
L 210.94354 275.17496 
L 211.056628 274.849309 
L 211.064745 274.884458 
L 211.154025 274.603557 
L 211.158895 274.61148 
L 211.169716 274.616045 
L 211.234647 274.364678 
L 211.378577 273.905855 
L 211.237353 274.378304 
L 211.380201 273.930408 
L 211.383988 273.961285 
L 211.471104 273.693581 
L 211.477056 273.710197 
L 211.587439 273.267461 
L 211.595555 273.288751 
L 211.59826 273.3036 
L 211.720547 272.911874 
L 211.723252 272.959414 
L 211.818484 272.60976 
L 211.824436 272.629144 
L 211.936983 272.321639 
L 211.826601 272.636994 
L 211.9451 272.330219 
L 211.952675 272.336657 
L 211.987305 272.153383 
L 211.995421 272.160073 
L 212.115543 271.807283 
L 211.996503 272.16269 
L 212.120413 271.818921 
L 212.124742 271.846513 
L 212.214563 271.522426 
L 212.222138 271.526002 
L 212.223761 271.531943 
L 212.354164 271.157876 
L 212.354705 271.173566 
L 212.453184 270.809449 
L 212.572224 270.498015 
L 212.4613 270.829634 
L 212.573306 270.509799 
L 212.579799 270.532377 
L 212.664209 270.219248 
L 212.66962 270.256296 
L 212.881728 269.517744 
L 212.882269 269.530171 
L 212.883351 269.549201 
L 212.97696 269.115001 
L 212.982912 269.141782 
L 213.025117 268.937647 
L 213.026199 268.945241 
L 213.156061 268.556911 
L 213.028364 268.958241 
L 213.157684 268.559129 
L 213.158225 268.587881 
L 213.247505 268.248744 
L 213.262656 268.260471 
L 213.437969 267.55285 
L 213.263738 268.270214 
L 213.439052 267.567762 
L 213.449332 267.586012 
L 213.528873 267.270522 
L 213.538071 267.273814 
L 213.710679 266.703823 
L 213.71122 266.714031 
L 213.711761 266.71988 
L 213.790761 266.370927 
L 213.793466 266.406385 
L 213.927116 265.910652 
L 213.927657 265.92087 
L 214.01856 265.568996 
L 214.020724 265.578339 
L 214.170065 265.065826 
L 214.170607 265.083446 
L 214.171148 265.091387 
L 214.258804 264.756985 
L 214.259345 264.766545 
L 214.382714 264.342164 
L 214.38542 264.355978 
L 214.4747 263.949304 
L 214.476864 263.963274 
L 214.604561 263.522332 
L 214.477946 263.978073 
L 214.611596 263.532336 
L 214.764724 262.931796 
L 214.765265 262.953591 
L 214.866991 262.587585 
L 214.870237 262.590771 
L 214.989277 262.088542 
L 215.142406 261.594671 
L 214.991983 262.110505 
L 215.144029 261.607757 
L 215.14457 261.616202 
L 215.232768 261.259775 
L 215.233309 261.275787 
L 215.348561 260.722723 
L 215.237638 261.290658 
L 215.355596 260.742723 
L 215.356137 260.752367 
L 215.441088 260.351901 
L 215.443793 260.353869 
L 215.565539 259.910109 
L 215.448122 260.370639 
L 215.56608 259.91015 
L 215.568244 259.930162 
L 215.656442 259.543271 
L 215.656983 259.560171 
L 215.801455 258.982211 
L 215.664559 259.568385 
L 215.807407 259.011299 
L 215.807948 259.021557 
L 215.892899 258.605305 
L 215.897228 258.60984 
L 215.897769 258.613948 
L 215.968111 258.30969 
L 215.969193 258.324957 
L 216.093103 257.734502 
L 215.970816 258.334827 
L 216.095267 257.745028 
L 216.09689 257.769153 
L 216.134225 257.547054 
L 216.276532 256.869799 
L 216.136931 257.570059 
L 216.278156 256.889378 
L 216.278697 256.90451 
L 216.372847 256.428254 
L 216.373388 256.443425 
L 216.373929 256.445618 
L 216.415593 256.191492 
L 216.420463 256.207931 
L 216.537879 255.577946 
L 216.538961 255.587833 
L 216.543831 255.596076 
L 216.60281 255.217934 
L 216.603351 255.223947 
L 216.929629 253.51039 
L 216.931793 253.517814 
L 216.932335 253.532457 
L 217.022156 252.969394 
L 217.023238 253.000662 
L 217.162839 252.213965 
L 217.16338 252.219791 
L 217.163921 252.230998 
L 217.249414 251.742342 
L 217.252119 251.762715 
L 217.470179 250.453913 
L 217.471261 250.473421 
L 217.554048 249.851603 
L 217.55513 249.874477 
L 217.693108 248.938981 
L 217.693649 248.941207 
L 217.694191 248.951072 
L 217.771567 248.3485 
L 217.772108 248.35426 
L 217.775354 248.386147 
L 218.51719 240.505236 
L 218.677894 237.634219 
L 219.073972 221.586359 
L 219.172451 204.208516 
L 219.208163 148.813592 
L 219.222231 55.993919 
L 219.315299 178.359421 
L 219.543098 243.493716 
L 219.630755 245.175669 
L 219.67783 245.04646 
L 220.009519 241.012296 
L 220.01006 241.025413 
L 220.077155 239.957785 
L 220.439145 231.071143 
L 220.677225 211.111051 
L 220.729169 180.100927 
L 220.750813 56.109534 
L 220.841175 176.780079 
L 221.070057 243.376275 
L 221.070598 243.372612 
L 221.087372 244.016036 
L 221.163665 245.109453 
L 221.209658 244.938129 
L 221.226973 244.828417 
L 221.228596 244.852716 
L 221.36441 243.242122 
L 221.366033 243.242915 
L 221.433129 242.294958 
L 221.621428 239.229885 
L 221.621969 239.235541 
L 221.998028 228.264981 
L 222.153321 214.412842 
L 222.220416 183.461042 
L 222.243683 56.067858 
L 222.334586 177.144268 
L 222.578077 244.09544 
L 222.666275 245.373549 
L 222.745815 244.871552 
L 222.748521 244.873862 
L 223.436247 230.565389 
L 223.638074 215.331211 
L 223.707334 188.468475 
L 223.733847 55.999498 
L 223.826374 178.039794 
L 224.054173 243.703707 
L 224.148864 245.355871 
L 224.23598 244.730224 
L 224.324719 243.575314 
L 224.519511 240.332055 
L 224.685626 236.853488 
L 224.951843 227.394401 
L 225.142307 198.190214 
L 225.169361 112.250747 
L 225.179642 55.820548 
L 225.274333 179.481833 
L 225.498886 243.958834 
L 225.582214 245.533845 
L 225.670953 244.961256 
L 225.838691 242.479569 
L 225.839232 242.482805 
L 225.839773 242.484617 
L 225.856547 242.180807 
L 225.85817 242.188478 
L 226.022662 239.14994 
L 226.412247 225.535613 
L 226.56754 200.928183 
L 226.597841 130.03863 
L 226.609745 55.818745 
L 226.704436 179.562311 
L 226.938188 244.328731 
L 227.020975 245.505922 
L 227.070755 245.237331 
L 227.186007 243.817449 
L 227.187089 243.819608 
L 227.328314 241.414434 
L 227.362403 240.812995 
L 227.363485 240.814 
L 227.570182 236.205857 
L 227.576675 236.086545 
L 227.948404 212.634791 
L 228.006301 181.098049 
L 228.027945 55.680779 
L 228.118848 177.417084 
L 228.349894 244.340462 
L 228.435386 245.763672 
L 228.489495 245.474295 
L 228.490036 245.482426 
L 228.553344 244.776292 
L 229.200489 228.103165 
L 229.382836 207.273569 
L 229.425583 159.079632 
L 229.440733 55.771071 
L 229.53326 178.273351 
L 229.761059 244.043831 
L 229.856291 245.523839 
L 229.89038 245.260702 
L 229.891462 245.274311 
L 229.909318 245.101966 
L 230.559709 229.144028 
L 230.772899 201.838942 
L 230.804823 131.62809 
L 230.816727 55.674255 
L 230.911418 179.725916 
L 231.144628 244.542179 
L 231.216593 245.681943 
L 231.26962 245.450787 
L 231.506618 241.789737 
L 231.507159 241.80002 
L 231.560186 240.720571 
L 232.075846 219.167971 
L 232.17216 189.401866 
L 232.199215 55.669445 
L 232.291741 178.418943 
L 232.522246 244.301663 
L 232.604492 245.658839 
L 232.672128 245.166925 
L 232.846359 242.403159 
L 232.855558 242.237712 
L 232.856099 242.241909 
L 233.069289 237.59545 
L 233.087145 237.136152 
L 233.355526 226.687605 
L 233.437231 220.064748 
L 233.531921 197.263 
L 233.557894 106.303441 
L 233.567633 55.392092 
L 233.662324 180.1036 
L 233.889041 244.64047 
L 233.961548 245.954205 
L 234.01728 245.677902 
L 234.296483 241.117079 
L 234.297565 241.133937 
L 234.359791 239.759153 
L 234.360332 239.769456 
L 234.643863 231.17965 
L 234.695267 228.781031 
L 234.848937 215.35723 
L 234.920902 183.089884 
L 234.943628 55.548261 
L 235.034531 177.746877 
L 235.267741 244.579811 
L 235.347823 245.801676 
L 235.412212 245.321919 
L 235.612416 241.928336 
L 235.613498 241.936983 
L 235.614039 241.944806 
L 235.660032 241.004246 
L 236.13998 222.666743 
L 236.256855 200.163308 
L 236.285533 130.990488 
L 236.297437 55.532477 
L 236.392128 179.897537 
L 236.610188 243.977678 
L 236.702173 245.72999 
L 236.755741 245.375194 
L 236.933219 242.489588 
L 236.93376 242.51437 
L 237.010595 240.948699 
L 237.566295 212.986082 
L 237.626356 179.730165 
L 237.647459 55.429316 
L 237.737821 177.513317 
L 237.967785 244.652455 
L 238.04462 246.056622 
L 238.100893 245.735537 
L 238.354124 241.488194 
L 238.584628 235.70194 
L 238.65984 233.228489 
L 238.660381 233.230059 
L 238.92281 214.134541 
L 238.989905 177.302576 
L 239.009926 55.391779 
L 239.100288 177.509036 
L 239.325923 244.424448 
L 239.40871 245.901982 
L 239.456326 245.617799 
L 239.61216 243.300178 
L 239.613242 243.308842 
L 239.613783 243.312007 
L 239.638673 242.809825 
L 240.224134 220.728794 
L 240.319907 200.328162 
L 240.349126 127.289835 
L 240.360489 55.447095 
L 240.45518 179.929602 
L 240.682438 244.552375 
L 240.766307 245.866704 
L 240.826909 245.397007 
L 240.848553 245.129223 
L 241.066612 241.172486 
L 241.346897 233.662615 
L 241.55143 222.592648 
L 241.655319 205.261171 
L 241.693196 150.124818 
L 241.707264 55.345297 
L 241.800332 179.270357 
L 242.034624 244.949423 
L 242.108212 246.010965 
L 242.162321 245.719048 
L 242.482106 239.681626 
L 242.483188 239.684694 
L 242.490223 239.484306 
L 242.692049 233.6906 
L 242.8955 222.590902 
L 242.99506 206.63947 
L 243.03456 164.326349 
L 243.050793 55.353569 
L 243.142237 178.21455 
L 243.369495 244.633599 
L 243.370036 244.622416 
L 243.447412 245.950129 
L 243.494487 245.652674 
L 243.495569 245.666502 
L 243.546973 245.034243 
L 243.548596 245.047879 
L 243.80832 239.987154 
L 244.186001 226.320872 
L 244.316945 211.311812 
L 244.366726 184.087215 
L 244.389993 55.323429 
L 244.480896 177.972919 
L 244.707613 244.516094 
L 244.793647 245.946841 
L 244.834228 245.685985 
L 244.855331 245.430133 
L 244.855872 245.43609 
L 244.858577 245.439033 
L 245.527366 225.855915 
L 245.702138 183.41983 
L 245.725405 55.387057 
L 245.815767 177.765323 
L 246.041943 244.546235 
L 246.118778 245.928925 
L 246.192367 245.414889 
L 246.386618 241.970094 
L 246.387159 241.973264 
L 246.409885 241.455583 
L 246.410426 241.46564 
L 246.644719 235.402959 
L 246.783238 230.060557 
L 246.984524 210.354158 
L 247.033222 178.071815 
L 247.053783 55.270136 
L 247.144145 177.841421 
L 247.361664 244.260155 
L 247.362205 244.259525 
L 247.441745 246.057396 
L 247.494772 245.883467 
L 248.186828 226.949881 
L 248.305868 215.432502 
L 248.377292 184.194956 
L 248.400559 55.16594 
L 248.491462 178.099276 
L 248.721425 244.968136 
L 248.794473 246.16974 
L 248.880506 245.462369 
L 248.985478 243.658095 
L 249.179188 239.488064 
L 249.179729 239.488466 
L 249.18514 239.370585 
L 249.675369 205.91597 
L 249.714868 151.65475 
L 249.728937 55.282507 
L 249.822004 179.211198 
L 250.048721 244.72223 
L 250.124474 245.997495 
L 250.176419 245.710808 
L 250.17696 245.714676 
L 250.215919 245.207925 
L 250.21646 245.208519 
L 250.92096 221.854735 
L 251.020521 203.628971 
L 251.055151 142.624748 
L 251.068137 55.273362 
L 251.161745 179.594615 
L 251.390627 244.786429 
L 251.464215 245.934112 
L 251.532393 245.469538 
L 251.533475 245.502923 
L 251.597324 244.507494 
L 252.053463 233.240554 
L 252.348358 205.362869 
L 252.386775 148.564211 
L 252.400303 55.329641 
L 252.493911 179.401965 
L 252.724957 244.835554 
L 252.803415 245.995465 
L 252.856442 245.601632 
L 253.172439 239.471194 
L 253.173521 239.487617 
L 253.206528 238.64042 
L 253.521443 226.363286 
L 253.638319 214.225843 
L 253.702167 184.544779 
L 253.725975 55.221165 
L 253.816337 177.965779 
L 254.04576 244.827995 
L 254.125841 246.112563 
L 254.178327 245.697493 
L 254.444544 240.788947 
L 254.446167 240.789754 
L 254.635008 235.653255 
L 254.963991 214.220352 
L 255.025135 189.266735 
L 255.052189 55.276659 
L 255.144175 178.774745 
L 255.373056 244.801827 
L 255.443398 246.06483 
L 255.502918 245.739394 
L 256.00992 234.054683 
L 256.314013 208.471236 
L 256.360547 159.142812 
L 256.375697 55.329078 
L 256.468224 178.847772 
L 256.700352 244.88063 
L 256.778269 246.01827 
L 256.824803 245.682212 
L 256.825344 245.684609 
L 256.855104 245.316681 
L 257.058013 241.645898 
L 257.11104 240.512075 
L 257.634816 211.821702 
L 257.691089 174.638971 
L 257.710028 55.345732 
L 257.800931 177.859325 
L 258.026025 244.534367 
L 258.103942 245.965414 
L 258.155345 245.686866 
L 258.339316 242.620617 
L 258.339857 242.634015 
L 258.399919 241.376957 
L 258.401001 241.391211 
L 258.437795 240.55322 
L 258.643409 235.040167 
L 258.643951 235.041149 
L 258.649903 234.840316 
L 258.992954 202.634803 
L 259.025961 137.11426 
L 259.038406 55.359171 
L 259.132556 179.820702 
L 259.36306 244.937653 
L 259.44206 246.053584 
L 259.495087 245.660693 
L 259.798097 239.775556 
L 260.165498 226.028499 
L 260.253155 217.96067 
L 260.337565 189.86595 
L 260.365161 55.088393 
L 260.457146 179.093355 
L 260.686028 245.055576 
L 260.765027 246.235439 
L 260.819677 245.799833 
L 260.995532 242.849948 
L 261.501452 226.282509 
L 261.650793 206.075843 
L 261.690833 151.340285 
L 261.704902 55.305691 
L 261.797969 179.179718 
L 262.024687 244.665816 
L 262.106391 245.931907 
L 262.156172 245.531685 
L 262.157795 245.538212 
L 262.440785 240.219579 
L 262.441327 240.232366 
L 262.494895 238.875687 
L 262.496518 238.872338 
L 262.499764 238.783203 
L 262.939671 214.002854 
L 263.005684 178.040085 
L 263.026246 55.353595 
L 263.116608 177.729587 
L 263.343325 244.50934 
L 263.431523 245.892164 
L 263.476433 245.568232 
L 263.670685 242.381937 
L 263.677719 242.245796 
L 264.125743 227.89879 
L 264.211776 221.488854 
L 264.317289 198.402962 
L 264.344343 113.29615 
L 264.354624 55.162008 
L 264.449856 180.662492 
L 264.676573 244.975832 
L 264.677114 244.972002 
L 264.746915 246.107329 
L 264.821044 245.589931 
L 265.449251 228.536192 
L 265.660276 192.4444 
L 265.690036 55.200372 
L 265.783645 179.67492 
L 266.009821 244.837195 
L 266.081245 246.153568 
L 266.149423 245.689891 
L 266.84256 224.511245 
L 266.984867 197.034758 
L 267.010298 108.314361 
L 267.020038 55.282973 
L 267.11527 180.437504 
L 267.334953 244.583251 
L 267.424233 246.025545 
L 267.512431 245.114274 
L 267.588724 243.911883 
L 268.222342 220.032372 
L 268.317574 196.124548 
L 268.342464 99.636736 
L 268.351663 55.134266 
L 268.446353 180.430223 
L 268.672529 244.993456 
L 268.746118 246.180244 
L 268.798063 245.89737 
L 269.458735 227.845769 
L 269.655692 192.25641 
L 269.685452 55.205361 
L 269.778519 179.525897 
L 270.009565 245.095337 
L 270.010106 245.094303 
L 270.016599 245.315955 
L 270.08153 246.159871 
L 270.137263 245.785332 
L 270.227625 244.433894 
L 270.431616 240.21183 
L 270.877475 221.040294 
L 270.971625 202.553828 
L 271.003549 144.61646 
L 271.017076 55.270623 
L 271.110144 179.506626 
L 271.342272 244.932182 
L 271.420189 245.951205 
L 271.4651 245.611547 
L 271.48512 245.396691 
L 271.486743 245.412898 
L 271.716707 241.144953 
L 271.919616 235.766666 
L 272.160943 224.547451 
L 272.255092 213.647366 
L 272.319482 177.675441 
L 272.339503 55.195156 
L 272.430406 177.992757 
L 272.660369 244.828776 
L 272.740451 246.02689 
L 272.792937 245.63808 
L 273.078092 240.265725 
L 273.427636 228.254041 
L 273.612148 204.899705 
L 273.648943 150.580573 
L 273.663011 55.254182 
L 273.756079 179.372428 
L 273.987124 244.905114 
L 274.05422 246.0524 
L 274.114281 245.684336 
L 274.115363 245.692596 
L 274.146205 245.269818 
L 274.146746 245.269777 
L 274.15378 245.161887 
L 274.462202 238.787585 
L 274.811747 224.49514 
L 274.924835 209.199563 
L 274.97191 168.714158 
L 274.989225 55.239721 
L 275.080128 178.009492 
L 275.307386 244.640178 
L 275.390714 245.946508 
L 275.44807 245.5575 
L 275.459433 245.417461 
L 276.054092 229.536172 
L 276.215878 215.814789 
L 276.290548 182.872505 
L 276.313274 55.288676 
L 276.403636 177.756746 
L 276.636305 244.83017 
L 276.705565 245.970114 
L 276.780236 245.430967 
L 277.436579 226.140216 
L 277.589167 204.015149 
L 277.623255 153.449399 
L 277.637865 55.226192 
L 277.730391 179.150677 
L 277.948451 244.435257 
L 278.034484 246.100047 
L 278.103744 245.516678 
L 278.106449 245.52306 
L 278.132422 245.18488 
L 278.773615 226.090469 
L 278.892113 213.285143 
L 278.953798 179.297553 
L 278.9749 55.262526 
L 279.065263 177.849011 
L 279.293062 244.70643 
L 279.320116 245.473715 
L 279.378554 246.011019 
L 279.435369 245.623078 
L 280.136623 222.98018 
L 280.243217 205.938918 
L 280.282717 152.752154 
L 280.296785 55.434996 
L 280.389853 178.976226 
L 280.61657 244.510321 
L 280.684748 245.802519 
L 280.776192 245.074914 
L 280.803788 244.686229 
L 281.003991 240.66661 
L 281.004532 240.668393 
L 281.017519 240.338625 
L 281.481775 219.727624 
L 281.57863 192.598094 
L 281.60839 55.337806 
L 281.70254 179.65768 
L 281.93575 244.91661 
L 281.936291 244.916542 
L 281.939537 245.002703 
L 281.998516 245.920174 
L 282.062365 245.577182 
L 282.247418 242.46254 
L 282.247959 242.46979 
L 282.291247 241.562663 
L 282.457361 237.600134 
L 282.457903 237.609949 
L 282.855604 213.937934 
L 282.916207 187.314594 
L 282.941638 55.169557 
L 283.033082 178.482 
L 283.260881 244.793385 
L 283.344751 246.08424 
L 283.426455 245.335518 
L 283.427537 245.343707 
L 283.4389 245.164043 
L 283.488681 244.305226 
L 283.489222 244.306699 
L 284.083881 225.141254 
L 284.229434 200.393652 
L 284.258653 128.089426 
L 284.270016 55.263462 
L 284.364707 180.057048 
L 284.589801 244.728682 
L 284.669341 245.970708 
L 284.716416 245.651005 
L 284.863052 243.343999 
L 285.161193 236.411498 
L 285.268329 232.761355 
L 285.26887 232.764437 
L 285.520477 212.752332 
L 285.578915 179.748739 
L 285.600017 55.102334 
L 285.69038 177.895247 
L 285.921967 244.933839 
L 286.004753 246.053834 
L 286.050205 245.677693 
L 286.051287 245.683278 
L 286.344017 240.13085 
L 286.842362 213.127857 
L 286.898636 187.575511 
L 286.924067 55.250612 
L 287.016052 178.614795 
L 287.243852 244.729388 
L 287.326639 246.058598 
L 287.388864 245.538965 
L 287.531712 242.98895 
L 287.532794 242.991331 
L 287.594479 241.742622 
L 287.756806 237.886385 
L 288.131241 218.348428 
L 288.217274 191.638258 
L 288.246493 55.241302 
L 288.33902 179.173078 
L 288.565737 244.78641 
L 288.6469 245.949653 
L 288.726441 245.251654 
L 288.727523 245.261008 
L 288.961274 240.693381 
L 288.961815 240.694379 
L 288.968849 240.50692 
L 288.969391 240.507951 
L 289.150115 235.721936 
L 289.236689 232.694227 
L 289.447174 218.952601 
L 289.536995 192.920109 
L 289.567296 55.348243 
L 289.660905 179.501842 
L 289.883293 244.371259 
L 289.96121 245.882344 
L 290.028305 245.425697 
L 290.245824 241.529531 
L 290.029929 245.432898 
L 290.246365 241.536816 
L 290.401117 237.799235 
L 290.401658 237.806887 
L 290.438452 236.783391 
L 290.852387 198.462451 
L 290.879983 107.988404 
L 290.889722 55.276419 
L 290.984954 180.448183 
L 291.210589 244.760491 
L 291.228986 245.334303 
L 291.229527 245.331798 
L 291.293917 245.997025 
L 291.348026 245.584657 
L 291.348567 245.592841 
L 291.4043 244.752771 
L 291.405382 244.755679 
L 291.456244 243.901397 
L 292.050362 223.419618 
L 292.163991 204.854088 
L 292.200785 149.361906 
L 292.214854 55.197461 
L 292.307921 179.561118 
L 292.528145 244.636202 
L 292.603357 246.185264 
L 292.692637 245.58274 
L 292.836567 243.112833 
L 292.837108 243.127251 
L 292.899875 241.848481 
L 293.203427 233.759 
L 293.482089 212.585497 
L 293.539985 179.045787 
L 293.561088 55.115382 
L 293.65145 178.086738 
L 293.887366 245.285034 
L 293.958249 246.285405 
L 294.015604 245.925302 
L 294.245568 241.81701 
L 294.595654 231.653581 
L 294.833193 209.370964 
L 294.880809 169.156117 
L 294.898124 55.229568 
L 294.989568 178.353314 
L 295.210874 244.518979 
L 295.291497 246.091585 
L 295.35264 245.718204 
L 295.559337 242.080469 
L 295.559878 242.087522 
L 295.602624 241.195186 
L 296.070127 222.885463 
L 296.188084 200.230522 
L 296.217844 118.104186 
L 296.228666 55.30339 
L 296.323357 180.2891 
L 296.550074 244.818881 
L 296.566307 245.308224 
L 296.630156 245.986515 
L 296.683183 245.664306 
L 296.843345 242.945125 
L 297.008919 239.29203 
L 297.480751 211.211111 
L 297.533236 177.551676 
L 297.553257 55.372651 
L 297.64416 177.831055 
L 297.874124 244.634913 
L 297.952041 245.920706 
L 298.016431 245.525005 
L 298.182004 242.57689 
L 298.182545 242.579492 
L 298.203648 242.135469 
L 298.747985 220.211485 
L 298.845923 195.798315 
L 298.871354 88.991664 
L 298.879471 55.241746 
L 298.973079 179.567046 
L 299.195468 244.684358 
L 299.272303 246.116801 
L 299.331281 245.712588 
L 299.504431 242.89047 
L 299.504972 242.893268 
L 299.527697 242.430104 
L 300.000611 227.093375 
L 300.179171 197.67686 
L 300.205684 106.659082 
L 300.215424 55.281839 
L 300.310115 180.236676 
L 300.533044 244.514808 
L 300.617455 245.904143 
L 300.664529 245.550716 
L 301.191011 233.445974 
L 301.46318 212.363944 
L 301.522159 173.358029 
L 301.540556 55.076609 
L 301.631459 178.193015 
L 301.861423 245.032544 
L 301.861964 245.028168 
L 301.886313 245.724466 
L 301.940963 246.196942 
L 301.999401 245.849819 
L 302.065414 244.855584 
L 302.244515 241.293984 
L 302.654662 227.60835 
L 302.80238 212.087655 
L 302.859735 174.587217 
L 302.878673 55.244198 
L 302.969577 177.976067 
L 303.191424 244.47358 
L 303.287197 246.044206 
L 303.327779 245.755329 
L 303.51662 242.556537 
L 303.517161 242.560767 
L 303.548003 241.929807 
L 303.667043 239.18907 
L 303.911075 231.389079 
L 304.034444 224.237249 
L 304.176751 194.735281 
L 304.2011 86.405292 
L 304.209216 55.169483 
L 304.302284 179.558496 
L 304.525754 244.733318 
L 304.604753 246.1578 
L 304.652369 245.821279 
L 304.655075 245.82422 
L 304.765999 244.181464 
L 305.015983 238.835422 
L 305.017065 238.853905 
L 305.063599 237.56579 
L 305.06414 237.57026 
L 305.470499 211.738978 
L 305.524608 178.939796 
L 305.545169 55.27416 
L 305.636073 177.943031 
L 305.873071 245.115574 
L 305.946659 246.070902 
L 305.998604 245.720416 
L 306.234519 241.513241 
L 306.557551 232.24606 
L 306.797254 212.698299 
L 306.855151 181.140312 
L 306.876794 55.325576 
L 306.967697 177.852901 
L 307.205777 244.892702 
L 307.285859 245.847626 
L 307.331852 245.435185 
L 307.473076 243.148782 
L 307.652177 239.099446 
L 307.652719 239.111298 
L 307.702499 237.791377 
L 307.95086 228.521056 
L 307.987113 226.381065 
L 308.151604 199.856437 
L 308.180282 123.729993 
L 308.191645 55.26923 
L 308.286336 180.323864 
L 308.507642 244.660072 
L 308.588806 246.044556 
L 308.661312 245.462025 
L 308.965405 239.402737 
L 309.423709 215.174044 
L 309.492428 186.248083 
L 309.517318 55.288005 
L 309.608221 178.178751 
L 309.833315 244.522772 
L 309.91502 245.922058 
L 309.986985 245.329015 
L 310.065984 244.089701 
L 310.067607 244.091903 
L 310.254284 240.284043 
L 310.649821 225.544092 
L 310.801327 200.304611 
L 310.830545 125.754325 
L 310.841908 55.22029 
L 310.936599 180.298933 
L 311.167104 244.889004 
L 311.247727 245.937073 
L 311.293719 245.592027 
L 311.295343 245.59581 
L 311.853748 231.940376 
L 312.090746 211.704174 
L 312.141609 185.162806 
L 312.165417 55.221447 
L 312.25632 178.068111 
L 312.488989 245.015185 
L 312.565824 246.157384 
L 312.634001 245.595814 
L 312.932143 239.686294 
L 313.256797 228.338801 
L 313.464576 192.211106 
L 313.494336 55.241449 
L 313.587404 179.498412 
L 313.816285 244.845191 
L 313.892579 246.052717 
L 313.946147 245.686222 
L 314.110639 242.937609 
L 314.679325 221.571988 
L 314.797283 188.629069 
L 314.823796 55.356831 
L 314.915782 178.599689 
L 315.144122 244.590247 
L 315.226368 245.893165 
L 315.291299 245.38119 
L 315.376791 243.964458 
L 315.595392 239.212383 
L 315.595933 239.213795 
L 315.606214 238.943591 
L 315.987142 222.040509 
L 316.108887 189.963022 
L 316.136483 55.296128 
L 316.229009 179.068778 
L 316.456268 244.738205 
L 316.540137 246.054036 
L 316.58126 245.799507 
L 316.582342 245.807348 
L 316.631581 245.19961 
L 316.779299 242.473378 
L 316.77984 242.483042 
L 316.957859 238.340636 
L 316.9584 238.347952 
L 316.994112 237.35611 
L 316.994653 237.36096 
L 317.364218 216.40977 
L 317.439971 187.127526 
L 317.465402 55.268464 
L 317.556847 178.412882 
L 317.780317 244.552587 
L 317.871761 246.106973 
L 317.91072 245.794597 
L 318.085492 242.831609 
L 317.911802 245.804491 
L 318.086033 242.834249 
L 318.639569 222.398314 
L 318.761315 193.831532 
L 318.786746 69.508411 
L 318.792698 55.235021 
L 318.878732 175.334162 
L 319.109777 244.732332 
L 319.192564 246.084318 
L 319.253708 245.623442 
L 319.55726 239.629326 
L 319.557801 239.632397 
L 319.577821 239.125672 
L 319.999872 218.345871 
L 320.091316 184.659003 
L 320.115124 55.286234 
L 320.206028 178.146253 
L 320.444649 245.092091 
L 320.44519 245.091479 
L 320.513908 245.951384 
L 320.5691 245.620607 
L 321.255744 224.861442 
L 321.368832 210.680722 
L 321.421318 170.004867 
L 321.439174 55.293571 
L 321.530077 178.157289 
L 321.756253 244.613358 
L 321.835252 246.001446 
L 321.894231 245.585403 
L 322.125277 241.414107 
L 322.512698 229.24855 
L 322.730217 197.791828 
L 322.75673 109.131207 
L 322.76647 55.303098 
L 322.861702 180.35036 
L 323.083008 244.570639 
L 323.160384 245.977517 
L 323.213411 245.649691 
L 323.213952 245.657768 
L 323.269684 244.844262 
L 323.270225 244.867017 
L 323.420649 242.052427 
L 323.42119 242.053267 
L 323.504518 240.211853 
L 323.740433 233.344786 
L 323.93198 222.439351 
L 324.039116 203.172026 
L 324.072122 147.071881 
L 324.085649 55.209358 
L 324.179258 179.745593 
L 324.405434 244.887517 
L 324.48768 246.163826 
L 324.536378 245.816551 
L 324.538001 245.828974 
L 324.602932 244.918059 
L 324.713315 242.869455 
L 325.020113 235.226499 
L 325.381021 200.394096 
L 325.410781 121.813882 
L 325.421603 55.235968 
L 325.516835 180.452124 
L 325.741388 244.727094 
L 325.812812 246.016338 
L 325.889647 245.490585 
L 326.126644 241.153653 
L 326.378252 234.432359 
L 326.434525 232.29259 
L 326.562223 225.640867 
L 326.715351 200.170466 
L 326.74457 123.082468 
L 326.755933 55.213012 
L 326.850624 180.50634 
L 327.0768 244.930362 
L 327.077341 244.927767 
L 327.148224 246.072787 
L 327.234257 245.433608 
L 327.477207 240.815893 
L 327.477748 240.830609 
L 327.537809 239.474668 
L 327.775348 232.103229 
L 327.795369 231.268659 
L 327.957155 220.406538 
L 328.044812 202.643742 
L 328.077818 136.288404 
L 328.090263 55.236704 
L 328.184413 180.017351 
L 328.414918 244.955724 
L 328.484719 246.071599 
L 328.561553 245.500361 
L 328.724422 242.678277 
L 329.091281 232.493156 
L 329.348841 209.810103 
L 329.396457 174.661566 
L 329.415395 55.281222 
L 329.506298 177.949634 
L 329.731933 244.587507 
L 329.81959 246.006691 
L 329.861795 245.698701 
L 330.23623 238.255929 
L 330.236771 238.257704 
L 330.482426 229.491872 
L 330.566295 224.227335 
L 330.662068 212.657689 
L 330.719965 180.88295 
L 330.741609 55.2185 
L 330.831971 177.835725 
L 331.078167 245.324257 
L 331.148509 246.028688 
L 331.193961 245.717 
L 331.351959 243.073351 
L 331.3525 243.074389 
L 331.361699 242.862968 
L 331.362781 242.870883 
L 331.514828 239.466862 
L 331.754531 231.935634 
L 332.029946 197.747995 
L 332.055919 114.314409 
L 332.066199 55.230597 
L 332.161431 180.480766 
L 332.393018 245.083026 
L 332.468771 246.147042 
L 332.530996 245.616018 
L 332.531537 245.622581 
L 332.581859 244.885107 
L 333.183011 226.975436 
L 333.318825 212.369371 
L 333.376721 177.486618 
L 333.396742 55.276052 
L 333.487645 177.937143 
L 333.711657 244.512143 
L 333.805265 245.934245 
L 333.841519 245.666847 
L 333.844224 245.690188 
L 333.872902 245.354596 
L 334.176454 239.32887 
L 334.402089 232.451447 
L 334.672634 205.234668 
L 334.709969 153.410064 
L 334.724579 55.306455 
L 334.817105 179.057744 
L 335.038412 244.380661 
L 335.124986 245.967408 
L 335.181801 245.567403 
L 335.365231 242.413154 
L 335.366313 242.416967 
L 335.366854 242.434653 
L 335.432867 240.980914 
L 335.607639 236.499288 
L 335.990191 208.372978 
L 336.035642 161.581808 
L 336.051334 55.096979 
L 336.143319 178.854287 
L 336.37166 244.954808 
L 336.447953 246.214484 
L 336.499898 245.901631 
L 336.662225 243.266381 
L 336.742307 241.605058 
L 336.972812 235.668159 
L 337.058845 232.71833 
L 337.258508 220.383495 
L 337.367808 183.40894 
L 337.391075 55.295084 
L 337.481437 177.971333 
L 337.710319 244.862229 
L 337.784989 246.085557 
L 337.853167 245.585631 
L 337.855331 245.605794 
L 338.056076 242.04154 
L 338.056617 242.045898 
L 338.086918 241.397304 
L 338.635043 214.319757 
L 338.699433 184.770488 
L 338.723241 55.234224 
L 338.814144 178.167585 
L 339.04519 244.853398 
L 339.11986 246.110575 
L 339.167476 245.817853 
L 339.865484 225.095549 
L 340.018612 195.55083 
L 340.043503 91.562234 
L 340.05216 55.290276 
L 340.145769 179.656038 
L 340.361664 244.235894 
L 340.362205 244.225309 
L 340.404951 245.546299 
L 340.450944 245.929499 
L 340.513711 245.445743 
L 340.514252 245.454596 
L 340.736099 241.471216 
L 341.145705 227.876034 
L 341.290717 213.43357 
L 341.349155 187.130919 
L 341.374586 55.32573 
L 341.466031 178.393147 
L 341.693289 244.679313 
L 341.766877 245.94898 
L 341.827479 245.538201 
L 341.829103 245.540203 
L 342.471377 227.717684 
L 342.638033 207.83841 
L 342.681862 161.407969 
L 342.697553 55.236033 
L 342.789539 178.656346 
L 343.025996 245.052897 
L 343.092009 246.017884 
L 343.155857 245.551197 
L 343.173713 245.303179 
L 343.546525 237.444179 
L 343.965329 206.90288 
L 344.007535 152.381024 
L 344.021603 55.252481 
L 344.114671 179.322501 
L 344.34247 244.826883 
L 344.414976 246.080357 
L 344.482612 245.656934 
L 344.559447 244.484283 
L 345.208215 221.855122 
L 345.310481 202.339968 
L 345.342406 140.686615 
L 345.355392 55.263412 
L 345.449001 179.784455 
L 345.66706 244.415233 
L 345.748224 246.049021 
L 345.849949 245.171738 
L 346.178391 238.302472 
L 346.178932 238.305379 
L 346.197871 237.80759 
L 346.585292 216.45484 
L 346.663209 184.813912 
L 346.687017 55.244866 
L 346.77792 178.118388 
L 347.012212 244.895017 
L 347.077684 245.929859 
L 347.166964 245.308559 
L 347.405044 240.693387 
L 347.405585 240.706998 
L 347.461859 239.35394 
L 347.87904 220.10446 
L 347.984553 185.12248 
L 348.008361 55.050203 
L 348.099264 178.32933 
L 348.329228 245.078737 
L 348.395782 246.22268 
L 348.458548 245.908298 
L 348.620335 243.26809 
L 348.797271 239.374671 
L 349.275055 211.702339 
L 349.331869 170.70656 
L 349.349725 55.297747 
L 349.440628 177.972316 
L 349.667345 244.519607 
L 349.755002 245.912371 
L 349.798831 245.565092 
L 349.799372 245.570598 
L 349.846447 244.935282 
L 349.84807 244.939571 
L 350.356695 231.857978 
L 350.550947 218.569981 
L 350.629405 199.010371 
L 350.657001 118.975824 
L 350.667823 55.240526 
L 350.762513 180.309076 
L 350.986525 244.685881 
L 351.067689 246.0385 
L 351.121257 245.647357 
L 351.12288 245.680391 
L 351.140736 245.435449 
L 351.513007 237.746026 
L 351.892852 216.979293 
L 351.968064 192.309017 
L 351.997824 55.189199 
L 352.090892 179.464266 
L 352.315985 244.733363 
L 352.396608 246.102749 
L 352.446929 245.799405 
L 352.543785 244.388151 
L 352.830022 238.027199 
L 352.870063 236.957697 
L 353.19634 220.446115 
L 353.297524 194.701748 
L 353.322956 76.436293 
L 353.32999 55.219362 
L 353.419811 177.599092 
L 353.641117 244.458556 
L 353.736349 246.063113 
L 353.795328 245.533428 
L 353.796951 245.540645 
L 353.849437 244.733444 
L 354.526342 220.546878 
L 354.616163 202.027422 
L 354.647005 144.006238 
L 354.659991 55.181575 
L 354.7536 179.597202 
L 354.968413 244.390878 
L 355.05607 246.112454 
L 355.101521 245.869587 
L 355.312547 242.374996 
L 355.103145 245.872304 
L 355.313088 242.383094 
L 355.313629 242.383135 
L 355.316876 242.273676 
L 355.317417 242.287211 
L 355.627462 234.18918 
L 355.735139 229.7239 
L 355.896384 216.489416 
L 355.961315 197.909995 
L 355.987828 111.01159 
L 355.998109 55.241891 
L 356.0928 180.335844 
L 356.306531 244.256534 
L 356.396893 246.0415 
L 356.441263 245.829046 
L 356.996963 232.590189 
L 357.265344 207.752626 
L 357.307549 167.790684 
L 357.324864 55.222612 
L 357.415767 178.278153 
L 357.644108 244.795024 
L 357.710121 246.090889 
L 357.768017 245.775146 
L 357.768559 245.796291 
L 357.849722 244.662667 
L 357.850263 244.673596 
L 358.441135 226.786365 
L 358.594263 207.416194 
L 358.635927 165.32203 
L 358.652701 55.277285 
L 358.744145 178.48563 
L 358.966534 244.47858 
L 359.052567 245.936204 
L 359.107759 245.545008 
L 359.750575 227.578032 
L 359.941039 195.236526 
L 359.965929 87.317081 
L 359.974045 55.205801 
L 360.067113 179.456068 
L 360.293289 244.846693 
L 360.367418 246.137416 
L 360.433972 245.657446 
L 360.692073 240.73574 
L 360.692614 240.741618 
L 360.727244 239.920948 
L 361.012399 230.771507 
L 361.125487 224.059079 
L 361.265629 194.949348 
L 361.29106 79.39842 
L 361.298095 55.338114 
L 361.389539 178.180164 
L 361.610304 244.294855 
L 361.69742 245.98153 
L 361.738001 245.770297 
L 361.893295 243.346785 
L 361.893836 243.347176 
L 361.894377 243.351907 
L 361.927924 242.676738 
L 362.394345 227.919955 
L 362.551261 211.394596 
L 362.605911 173.936073 
L 362.624849 55.367701 
L 362.715753 177.894513 
L 362.937059 244.265933 
L 363.029044 245.952026 
L 363.084777 245.511573 
L 363.762223 225.100945 
L 363.916433 194.405626 
L 363.941865 73.906327 
L 363.948358 55.292725 
L 364.037638 177.050653 
L 364.263814 244.52618 
L 364.278964 245.069175 
L 364.343354 245.996525 
L 364.399628 245.630113 
L 364.467264 244.703073 
L 364.403415 245.649847 
L 364.467805 244.709073 
L 364.742679 238.870591 
L 364.74322 238.883227 
L 364.743761 238.896775 
L 364.796247 237.456988 
L 364.796788 237.458433 
L 365.067875 226.428325 
L 365.21938 205.280093 
L 365.256716 153.817542 
L 365.271325 55.154655 
L 365.363852 179.212315 
L 365.587322 244.777584 
L 365.668486 246.168212 
L 365.730711 245.757027 
L 365.948771 241.859149 
L 365.949312 241.862666 
L 365.975825 241.304563 
L 366.193344 235.645264 
L 366.193885 235.64766 
L 366.20633 235.22493 
L 366.505553 216.569238 
L 366.583471 185.508288 
L 366.60782 55.260096 
L 366.698723 178.205473 
L 366.923817 244.669785 
L 366.924358 244.667513 
L 366.934639 245.077398 
L 367.002275 246.121928 
L 367.060172 245.775861 
L 367.263081 242.207178 
L 367.263622 242.223595 
L 367.328012 240.817646 
L 367.69433 228.666765 
L 367.894534 201.275149 
L 367.924294 140.042077 
L 367.93728 55.192042 
L 368.030889 179.910526 
L 368.263017 245.140063 
L 368.338769 246.162091 
L 368.392337 245.801914 
L 368.39342 245.807059 
L 368.620678 241.665759 
L 368.841443 236.073127 
L 368.920442 233.402733 
L 369.113612 222.702422 
L 369.229946 200.03551 
L 369.258624 126.950085 
L 369.269987 55.251852 
L 369.364678 180.17713 
L 369.587066 244.604333 
L 369.665524 246.012322 
L 369.733161 245.51466 
L 369.873844 243.150948 
L 369.874385 243.155827 
L 369.907933 242.458886 
L 370.36786 227.788489 
L 370.535057 208.155057 
L 370.579968 161.835769 
L 370.59566 55.344361 
L 370.687645 178.466592 
L 370.905705 244.180716 
L 370.993361 245.925079 
L 371.056128 245.491962 
L 371.075066 245.291899 
L 371.279057 241.458943 
L 371.460323 236.903804 
L 371.774697 221.654423 
L 371.888326 193.782979 
L 371.912675 76.457418 
L 371.919709 55.172572 
L 372.00953 177.767325 
L 372.240035 244.989139 
L 372.264925 245.687561 
L 372.315247 246.239259 
L 372.380719 245.848063 
L 372.622045 241.478607 
L 372.854714 235.440591 
L 372.863913 235.174354 
L 373.116061 221.758249 
L 373.226985 196.935451 
L 373.252957 100.071458 
L 373.262156 55.247016 
L 373.356847 180.259681 
L 373.577071 244.519006 
L 373.654447 246.003589 
L 373.708015 245.741453 
L 373.709097 245.749993 
L 373.745891 245.286578 
L 374.344879 228.732883 
L 374.552116 198.384443 
L 374.579171 113.366693 
L 374.589452 55.309143 
L 374.684684 180.424124 
L 374.916271 244.916301 
L 374.987695 246.042115 
L 375.041804 245.727129 
L 375.042886 245.732804 
L 375.332369 240.34996 
L 375.82368 215.551847 
L 375.896186 183.613239 
L 375.919453 55.228012 
L 376.009815 177.886803 
L 376.241943 244.800355 
L 376.313908 245.980489 
L 376.381545 245.49867 
L 376.558481 242.441839 
L 376.559023 242.445356 
L 376.586077 241.898562 
L 376.886924 233.708282 
L 377.012998 227.984449 
L 377.156928 214.119652 
L 377.219153 186.967748 
L 377.244585 55.280547 
L 377.335488 178.199589 
L 377.567616 244.85819 
L 377.654191 246.062437 
L 377.713711 245.53572 
L 377.715334 245.537956 
L 377.89714 242.304524 
L 378.416047 222.962071 
L 378.524265 204.805786 
L 378.560518 152.154378 
L 378.574586 55.146896 
L 378.667654 179.391523 
L 378.901946 245.280178 
L 378.971206 246.230231 
L 379.038301 245.702121 
L 379.654063 229.28484 
L 379.800157 217.340129 
L 379.877533 192.997159 
L 379.903505 62.455596 
L 379.907834 55.266393 
L 379.983587 168.978475 
L 380.20814 243.816261 
L 380.310947 246.059888 
L 380.359104 245.710464 
L 380.462993 244.177797 
L 380.463535 244.179535 
L 380.609629 241.218575 
L 380.776826 236.920169 
L 381.133946 216.596142 
L 381.208617 190.119562 
L 381.236212 55.185606 
L 381.328739 179.128877 
L 381.557079 244.942767 
L 381.63662 246.162945 
L 381.701009 245.658811 
L 382.147951 235.768816 
L 382.535913 192.929864 
L 382.560803 66.855289 
L 382.566214 55.205859 
L 382.649542 173.717108 
L 382.873012 244.190383 
L 382.947142 245.993931 
L 383.020189 245.61773 
L 383.021812 245.630858 
L 383.070511 244.886512 
L 383.259892 241.13591 
L 383.260433 241.14749 
L 383.314543 239.93062 
L 383.315625 239.933819 
L 383.547753 232.946117 
L 383.836154 203.49604 
L 383.870243 144.035586 
L 383.883229 55.154072 
L 383.976838 179.646817 
L 384.213295 245.253824 
L 384.287424 246.084494 
L 384.33017 245.726977 
L 384.332335 245.741037 
L 385.02439 225.349541 
L 385.140724 211.339258 
L 385.193751 177.082672 
L 385.213772 55.162962 
L 385.304134 177.823712 
L 385.53031 244.837148 
L 385.607686 246.177774 
L 385.656384 245.920812 
L 385.861999 242.416992 
L 385.86254 242.417702 
L 385.870115 242.255411 
L 386.38361 223.165729 
L 386.494534 204.76971 
L 386.531328 147.084064 
L 386.544855 55.130143 
L 386.638464 179.795092 
L 386.861935 244.898353 
L 386.952297 246.206432 
L 386.990173 245.948729 
L 386.990714 245.956825 
L 387.049693 245.176945 
L 387.050775 245.191603 
L 387.743372 221.143781 
L 387.838063 202.743408 
L 387.871069 138.314969 
L 387.883514 55.318828 
L 387.977664 179.734508 
L 388.202217 244.577563 
L 388.290415 245.873265 
L 388.340736 245.473506 
L 389.013312 225.271073 
L 389.138304 208.902927 
L 389.184297 168.548291 
L 389.201612 55.249444 
L 389.292515 178.058922 
L 389.527348 244.943471 
L 389.545745 245.413884 
L 389.594444 245.945355 
L 389.658833 245.5474 
L 389.869859 241.856458 
L 389.884468 241.561675 
L 390.04896 237.44211 
L 390.049501 237.446954 
L 390.378484 221.885302 
L 390.480209 202.909156 
L 390.513216 141.80255 
L 390.526202 55.286285 
L 390.619811 179.614709 
L 390.849233 244.797379 
L 390.920657 246.035075 
L 390.972602 245.738795 
L 391.017513 245.169163 
L 391.186874 242.067045 
L 391.187415 242.067537 
L 391.232326 241.123104 
L 391.342167 238.461378 
L 391.8048 204.779875 
L 391.841053 152.169222 
L 391.855121 55.186462 
L 391.948189 179.332164 
L 392.16679 244.641399 
L 392.253364 246.175843 
L 392.339939 245.400009 
L 392.75225 236.303574 
L 393.152116 198.195368 
L 393.179171 109.332416 
L 393.188911 55.198952 
L 393.284143 180.498732 
L 393.512483 244.993604 
L 393.586071 246.149482 
L 393.634769 245.818818 
L 393.798179 243.096259 
L 393.635852 245.821814 
L 393.799261 243.107226 
L 393.799802 243.107546 
L 393.805213 242.987717 
L 393.805754 242.993638 
L 394.018403 238.102099 
L 394.343057 224.013913 
L 394.456145 207.858116 
L 394.499974 162.617908 
L 394.516207 55.409143 
L 394.607651 178.373057 
L 394.846813 244.884564 
L 394.847354 244.88334 
L 394.856553 245.122693 
L 394.917696 245.772008 
L 394.973969 245.389366 
L 395.233693 240.489393 
L 395.563217 229.922898 
L 395.783983 203.028106 
L 395.816448 148.976228 
L 395.830516 55.20622 
L 395.923584 179.577182 
L 396.157335 245.133594 
L 396.220643 246.162207 
L 396.279622 245.807601 
L 396.458182 242.793142 
L 396.819631 233.20267 
L 397.091799 210.955159 
L 397.142662 178.595329 
L 397.163223 55.331051 
L 397.253585 177.610732 
L 397.481926 244.564637 
L 397.482467 244.557546 
L 397.557137 245.91359 
L 397.611247 245.628372 
L 397.61287 245.645264 
L 397.740567 243.624605 
L 398.367151 218.684674 
L 398.458595 188.923076 
L 398.485108 55.348477 
L 398.487273 56.32863 
" style="fill:none;stroke:#000000;stroke-linecap:square;stroke-width:1.5;"/>
   </g>
   <g id="patch_3">
    <path d="M 57.6 307.584 
L 57.6 41.472 
" style="fill:none;stroke:#000000;stroke-linecap:square;stroke-linejoin:miter;stroke-width:0.8;"/>
   </g>
   <g id="patch_4">
    <path d="M 414.72 307.584 
L 414.72 41.472 
" style="fill:none;stroke:#000000;stroke-linecap:square;stroke-linejoin:miter;stroke-width:0.8;"/>
   </g>
   <g id="patch_5">
    <path d="M 57.6 307.584 
L 414.72 307.584 
" style="fill:none;stroke:#000000;stroke-linecap:square;stroke-linejoin:miter;stroke-width:0.8;"/>
   </g>
   <g id="patch_6">
    <path d="M 57.6 41.472 
L 414.72 41.472 
" style="fill:none;stroke:#000000;stroke-linecap:square;stroke-linejoin:miter;stroke-width:0.8;"/>
   </g>
   <g id="text_15">
    <!-- ChIN_LTS -->
    <defs>
     <path d="M 64.40625 67.28125 
L 64.40625 56.890625 
Q 59.421875 61.53125 53.78125 63.8125 
Q 48.140625 66.109375 41.796875 66.109375 
Q 29.296875 66.109375 22.65625 58.46875 
Q 16.015625 50.828125 16.015625 36.375 
Q 16.015625 21.96875 22.65625 14.328125 
Q 29.296875 6.6875 41.796875 6.6875 
Q 48.140625 6.6875 53.78125 8.984375 
Q 59.421875 11.28125 64.40625 15.921875 
L 64.40625 5.609375 
Q 59.234375 2.09375 53.4375 0.328125 
Q 47.65625 -1.421875 41.21875 -1.421875 
Q 24.65625 -1.421875 15.125 8.703125 
Q 5.609375 18.84375 5.609375 36.375 
Q 5.609375 53.953125 15.125 64.078125 
Q 24.65625 74.21875 41.21875 74.21875 
Q 47.75 74.21875 53.53125 72.484375 
Q 59.328125 70.75 64.40625 67.28125 
z
" id="DejaVuSans-43"/>
     <path d="M 54.890625 33.015625 
L 54.890625 0 
L 45.90625 0 
L 45.90625 32.71875 
Q 45.90625 40.484375 42.875 44.328125 
Q 39.84375 48.1875 33.796875 48.1875 
Q 26.515625 48.1875 22.3125 43.546875 
Q 18.109375 38.921875 18.109375 30.90625 
L 18.109375 0 
L 9.078125 0 
L 9.078125 75.984375 
L 18.109375 75.984375 
L 18.109375 46.1875 
Q 21.34375 51.125 25.703125 53.5625 
Q 30.078125 56 35.796875 56 
Q 45.21875 56 50.046875 50.171875 
Q 54.890625 44.34375 54.890625 33.015625 
z
" id="DejaVuSans-68"/>
     <path d="M 9.8125 72.90625 
L 19.671875 72.90625 
L 19.671875 0 
L 9.8125 0 
z
" id="DejaVuSans-49"/>
     <path d="M 9.8125 72.90625 
L 23.09375 72.90625 
L 55.421875 11.921875 
L 55.421875 72.90625 
L 64.984375 72.90625 
L 64.984375 0 
L 51.703125 0 
L 19.390625 60.984375 
L 19.390625 0 
L 9.8125 0 
z
" id="DejaVuSans-4e"/>
     <path d="M 50.984375 -16.609375 
L 50.984375 -23.578125 
L -0.984375 -23.578125 
L -0.984375 -16.609375 
z
" id="DejaVuSans-5f"/>
     <path d="M 9.8125 72.90625 
L 19.671875 72.90625 
L 19.671875 8.296875 
L 55.171875 8.296875 
L 55.171875 0 
L 9.8125 0 
z
" id="DejaVuSans-4c"/>
     <path d="M -0.296875 72.90625 
L 61.375 72.90625 
L 61.375 64.59375 
L 35.5 64.59375 
L 35.5 0 
L 25.59375 0 
L 25.59375 64.59375 
L -0.296875 64.59375 
z
" id="DejaVuSans-54"/>
     <path d="M 53.515625 70.515625 
L 53.515625 60.890625 
Q 47.90625 63.578125 42.921875 64.890625 
Q 37.9375 66.21875 33.296875 66.21875 
Q 25.25 66.21875 20.875 63.09375 
Q 16.5 59.96875 16.5 54.203125 
Q 16.5 49.359375 19.40625 46.890625 
Q 22.3125 44.4375 30.421875 42.921875 
L 36.375 41.703125 
Q 47.40625 39.59375 52.65625 34.296875 
Q 57.90625 29 57.90625 20.125 
Q 57.90625 9.515625 50.796875 4.046875 
Q 43.703125 -1.421875 29.984375 -1.421875 
Q 24.8125 -1.421875 18.96875 -0.25 
Q 13.140625 0.921875 6.890625 3.21875 
L 6.890625 13.375 
Q 12.890625 10.015625 18.65625 8.296875 
Q 24.421875 6.59375 29.984375 6.59375 
Q 38.421875 6.59375 43.015625 9.90625 
Q 47.609375 13.234375 47.609375 19.390625 
Q 47.609375 24.75 44.3125 27.78125 
Q 41.015625 30.8125 33.5 32.328125 
L 27.484375 33.5 
Q 16.453125 35.6875 11.515625 40.375 
Q 6.59375 45.0625 6.59375 53.421875 
Q 6.59375 63.09375 13.40625 68.65625 
Q 20.21875 74.21875 32.171875 74.21875 
Q 37.3125 74.21875 42.625 73.28125 
Q 47.953125 72.359375 53.515625 70.515625 
z
" id="DejaVuSans-53"/>
    </defs>
    <g transform="translate(208.104375 35.472)scale(0.12 -0.12)">
     <use xlink:href="#DejaVuSans-43"/>
     <use x="69.824219" xlink:href="#DejaVuSans-68"/>
     <use x="133.203125" xlink:href="#DejaVuSans-49"/>
     <use x="162.695312" xlink:href="#DejaVuSans-4e"/>
     <use x="237.5" xlink:href="#DejaVuSans-5f"/>
     <use x="287.5" xlink:href="#DejaVuSans-4c"/>
     <use x="343.009766" xlink:href="#DejaVuSans-54"/>
     <use x="404.09375" xlink:href="#DejaVuSans-53"/>
    </g>
   </g>
   <g id="legend_1">
    <g id="patch_7">
     <path d="M 403.72 54.472 
L 407.72 54.472 
Q 409.72 54.472 409.72 52.472 
L 409.72 48.472 
Q 409.72 46.472 407.72 46.472 
L 403.72 46.472 
Q 401.72 46.472 401.72 48.472 
L 401.72 52.472 
Q 401.72 54.472 403.72 54.472 
z
" style="fill:#ffffff;opacity:0.8;stroke:#cccccc;stroke-linejoin:miter;"/>
    </g>
   </g>
  </g>
 </g>
 <defs>
  <clipPath id="p3881ad2271">
   <rect height="266.112" width="357.12" x="57.6" y="41.472"/>
  </clipPath>
 </defs>
</svg>
