<?xml version="1.0" encoding="utf-8" standalone="no"?>
<!DOCTYPE svg PUBLIC "-//W3C//DTD SVG 1.1//EN"
  "http://www.w3.org/Graphics/SVG/1.1/DTD/svg11.dtd">
<!-- Created with matplotlib (http://matplotlib.org/) -->
<svg height="345.6pt" version="1.1" viewBox="0 0 460.8 345.6" width="460.8pt" xmlns="http://www.w3.org/2000/svg" xmlns:xlink="http://www.w3.org/1999/xlink">
 <defs>
  <style type="text/css">
*{stroke-linecap:butt;stroke-linejoin:round;}
  </style>
 </defs>
 <g id="figure_1">
  <g id="patch_1">
   <path d="M 0 345.6 
L 460.8 345.6 
L 460.8 0 
L 0 0 
z
" style="fill:#ffffff;"/>
  </g>
  <g id="axes_1">
   <g id="patch_2">
    <path d="M 57.6 307.584 
L 414.72 307.584 
L 414.72 41.472 
L 57.6 41.472 
z
" style="fill:#ffffff;"/>
   </g>
   <g id="matplotlib.axis_1">
    <g id="xtick_1">
     <g id="line2d_1">
      <defs>
       <path d="M 0 0 
L 0 3.5 
" id="m1b285494f2" style="stroke:#000000;stroke-width:0.8;"/>
      </defs>
      <g>
       <use style="stroke:#000000;stroke-width:0.8;" x="73.832727" xlink:href="#m1b285494f2" y="307.584"/>
      </g>
     </g>
     <g id="text_1">
      <!-- 0 -->
      <defs>
       <path d="M 31.78125 66.40625 
Q 24.171875 66.40625 20.328125 58.90625 
Q 16.5 51.421875 16.5 36.375 
Q 16.5 21.390625 20.328125 13.890625 
Q 24.171875 6.390625 31.78125 6.390625 
Q 39.453125 6.390625 43.28125 13.890625 
Q 47.125 21.390625 47.125 36.375 
Q 47.125 51.421875 43.28125 58.90625 
Q 39.453125 66.40625 31.78125 66.40625 
z
M 31.78125 74.21875 
Q 44.046875 74.21875 50.515625 64.515625 
Q 56.984375 54.828125 56.984375 36.375 
Q 56.984375 17.96875 50.515625 8.265625 
Q 44.046875 -1.421875 31.78125 -1.421875 
Q 19.53125 -1.421875 13.0625 8.265625 
Q 6.59375 17.96875 6.59375 36.375 
Q 6.59375 54.828125 13.0625 64.515625 
Q 19.53125 74.21875 31.78125 74.21875 
z
" id="DejaVuSans-30"/>
      </defs>
      <g transform="translate(70.651477 322.182437)scale(0.1 -0.1)">
       <use xlink:href="#DejaVuSans-30"/>
      </g>
     </g>
    </g>
    <g id="xtick_2">
     <g id="line2d_2">
      <g>
       <use style="stroke:#000000;stroke-width:0.8;" x="117.12" xlink:href="#m1b285494f2" y="307.584"/>
      </g>
     </g>
     <g id="text_2">
      <!-- 2000 -->
      <defs>
       <path d="M 19.1875 8.296875 
L 53.609375 8.296875 
L 53.609375 0 
L 7.328125 0 
L 7.328125 8.296875 
Q 12.9375 14.109375 22.625 23.890625 
Q 32.328125 33.6875 34.8125 36.53125 
Q 39.546875 41.84375 41.421875 45.53125 
Q 43.3125 49.21875 43.3125 52.78125 
Q 43.3125 58.59375 39.234375 62.25 
Q 35.15625 65.921875 28.609375 65.921875 
Q 23.96875 65.921875 18.8125 64.3125 
Q 13.671875 62.703125 7.8125 59.421875 
L 7.8125 69.390625 
Q 13.765625 71.78125 18.9375 73 
Q 24.125 74.21875 28.421875 74.21875 
Q 39.75 74.21875 46.484375 68.546875 
Q 53.21875 62.890625 53.21875 53.421875 
Q 53.21875 48.921875 51.53125 44.890625 
Q 49.859375 40.875 45.40625 35.40625 
Q 44.1875 33.984375 37.640625 27.21875 
Q 31.109375 20.453125 19.1875 8.296875 
z
" id="DejaVuSans-32"/>
      </defs>
      <g transform="translate(104.395 322.182437)scale(0.1 -0.1)">
       <use xlink:href="#DejaVuSans-32"/>
       <use x="63.623047" xlink:href="#DejaVuSans-30"/>
       <use x="127.246094" xlink:href="#DejaVuSans-30"/>
       <use x="190.869141" xlink:href="#DejaVuSans-30"/>
      </g>
     </g>
    </g>
    <g id="xtick_3">
     <g id="line2d_3">
      <g>
       <use style="stroke:#000000;stroke-width:0.8;" x="160.407273" xlink:href="#m1b285494f2" y="307.584"/>
      </g>
     </g>
     <g id="text_3">
      <!-- 4000 -->
      <defs>
       <path d="M 37.796875 64.3125 
L 12.890625 25.390625 
L 37.796875 25.390625 
z
M 35.203125 72.90625 
L 47.609375 72.90625 
L 47.609375 25.390625 
L 58.015625 25.390625 
L 58.015625 17.1875 
L 47.609375 17.1875 
L 47.609375 0 
L 37.796875 0 
L 37.796875 17.1875 
L 4.890625 17.1875 
L 4.890625 26.703125 
z
" id="DejaVuSans-34"/>
      </defs>
      <g transform="translate(147.682273 322.182437)scale(0.1 -0.1)">
       <use xlink:href="#DejaVuSans-34"/>
       <use x="63.623047" xlink:href="#DejaVuSans-30"/>
       <use x="127.246094" xlink:href="#DejaVuSans-30"/>
       <use x="190.869141" xlink:href="#DejaVuSans-30"/>
      </g>
     </g>
    </g>
    <g id="xtick_4">
     <g id="line2d_4">
      <g>
       <use style="stroke:#000000;stroke-width:0.8;" x="203.694545" xlink:href="#m1b285494f2" y="307.584"/>
      </g>
     </g>
     <g id="text_4">
      <!-- 6000 -->
      <defs>
       <path d="M 33.015625 40.375 
Q 26.375 40.375 22.484375 35.828125 
Q 18.609375 31.296875 18.609375 23.390625 
Q 18.609375 15.53125 22.484375 10.953125 
Q 26.375 6.390625 33.015625 6.390625 
Q 39.65625 6.390625 43.53125 10.953125 
Q 47.40625 15.53125 47.40625 23.390625 
Q 47.40625 31.296875 43.53125 35.828125 
Q 39.65625 40.375 33.015625 40.375 
z
M 52.59375 71.296875 
L 52.59375 62.3125 
Q 48.875 64.0625 45.09375 64.984375 
Q 41.3125 65.921875 37.59375 65.921875 
Q 27.828125 65.921875 22.671875 59.328125 
Q 17.53125 52.734375 16.796875 39.40625 
Q 19.671875 43.65625 24.015625 45.921875 
Q 28.375 48.1875 33.59375 48.1875 
Q 44.578125 48.1875 50.953125 41.515625 
Q 57.328125 34.859375 57.328125 23.390625 
Q 57.328125 12.15625 50.6875 5.359375 
Q 44.046875 -1.421875 33.015625 -1.421875 
Q 20.359375 -1.421875 13.671875 8.265625 
Q 6.984375 17.96875 6.984375 36.375 
Q 6.984375 53.65625 15.1875 63.9375 
Q 23.390625 74.21875 37.203125 74.21875 
Q 40.921875 74.21875 44.703125 73.484375 
Q 48.484375 72.75 52.59375 71.296875 
z
" id="DejaVuSans-36"/>
      </defs>
      <g transform="translate(190.969545 322.182437)scale(0.1 -0.1)">
       <use xlink:href="#DejaVuSans-36"/>
       <use x="63.623047" xlink:href="#DejaVuSans-30"/>
       <use x="127.246094" xlink:href="#DejaVuSans-30"/>
       <use x="190.869141" xlink:href="#DejaVuSans-30"/>
      </g>
     </g>
    </g>
    <g id="xtick_5">
     <g id="line2d_5">
      <g>
       <use style="stroke:#000000;stroke-width:0.8;" x="246.981818" xlink:href="#m1b285494f2" y="307.584"/>
      </g>
     </g>
     <g id="text_5">
      <!-- 8000 -->
      <defs>
       <path d="M 31.78125 34.625 
Q 24.75 34.625 20.71875 30.859375 
Q 16.703125 27.09375 16.703125 20.515625 
Q 16.703125 13.921875 20.71875 10.15625 
Q 24.75 6.390625 31.78125 6.390625 
Q 38.8125 6.390625 42.859375 10.171875 
Q 46.921875 13.96875 46.921875 20.515625 
Q 46.921875 27.09375 42.890625 30.859375 
Q 38.875 34.625 31.78125 34.625 
z
M 21.921875 38.8125 
Q 15.578125 40.375 12.03125 44.71875 
Q 8.5 49.078125 8.5 55.328125 
Q 8.5 64.0625 14.71875 69.140625 
Q 20.953125 74.21875 31.78125 74.21875 
Q 42.671875 74.21875 48.875 69.140625 
Q 55.078125 64.0625 55.078125 55.328125 
Q 55.078125 49.078125 51.53125 44.71875 
Q 48 40.375 41.703125 38.8125 
Q 48.828125 37.15625 52.796875 32.3125 
Q 56.78125 27.484375 56.78125 20.515625 
Q 56.78125 9.90625 50.3125 4.234375 
Q 43.84375 -1.421875 31.78125 -1.421875 
Q 19.734375 -1.421875 13.25 4.234375 
Q 6.78125 9.90625 6.78125 20.515625 
Q 6.78125 27.484375 10.78125 32.3125 
Q 14.796875 37.15625 21.921875 38.8125 
z
M 18.3125 54.390625 
Q 18.3125 48.734375 21.84375 45.5625 
Q 25.390625 42.390625 31.78125 42.390625 
Q 38.140625 42.390625 41.71875 45.5625 
Q 45.3125 48.734375 45.3125 54.390625 
Q 45.3125 60.0625 41.71875 63.234375 
Q 38.140625 66.40625 31.78125 66.40625 
Q 25.390625 66.40625 21.84375 63.234375 
Q 18.3125 60.0625 18.3125 54.390625 
z
" id="DejaVuSans-38"/>
      </defs>
      <g transform="translate(234.256818 322.182437)scale(0.1 -0.1)">
       <use xlink:href="#DejaVuSans-38"/>
       <use x="63.623047" xlink:href="#DejaVuSans-30"/>
       <use x="127.246094" xlink:href="#DejaVuSans-30"/>
       <use x="190.869141" xlink:href="#DejaVuSans-30"/>
      </g>
     </g>
    </g>
    <g id="xtick_6">
     <g id="line2d_6">
      <g>
       <use style="stroke:#000000;stroke-width:0.8;" x="290.269091" xlink:href="#m1b285494f2" y="307.584"/>
      </g>
     </g>
     <g id="text_6">
      <!-- 10000 -->
      <defs>
       <path d="M 12.40625 8.296875 
L 28.515625 8.296875 
L 28.515625 63.921875 
L 10.984375 60.40625 
L 10.984375 69.390625 
L 28.421875 72.90625 
L 38.28125 72.90625 
L 38.28125 8.296875 
L 54.390625 8.296875 
L 54.390625 0 
L 12.40625 0 
z
" id="DejaVuSans-31"/>
      </defs>
      <g transform="translate(274.362841 322.182437)scale(0.1 -0.1)">
       <use xlink:href="#DejaVuSans-31"/>
       <use x="63.623047" xlink:href="#DejaVuSans-30"/>
       <use x="127.246094" xlink:href="#DejaVuSans-30"/>
       <use x="190.869141" xlink:href="#DejaVuSans-30"/>
       <use x="254.492188" xlink:href="#DejaVuSans-30"/>
      </g>
     </g>
    </g>
    <g id="xtick_7">
     <g id="line2d_7">
      <g>
       <use style="stroke:#000000;stroke-width:0.8;" x="333.556364" xlink:href="#m1b285494f2" y="307.584"/>
      </g>
     </g>
     <g id="text_7">
      <!-- 12000 -->
      <g transform="translate(317.650114 322.182437)scale(0.1 -0.1)">
       <use xlink:href="#DejaVuSans-31"/>
       <use x="63.623047" xlink:href="#DejaVuSans-32"/>
       <use x="127.246094" xlink:href="#DejaVuSans-30"/>
       <use x="190.869141" xlink:href="#DejaVuSans-30"/>
       <use x="254.492188" xlink:href="#DejaVuSans-30"/>
      </g>
     </g>
    </g>
    <g id="xtick_8">
     <g id="line2d_8">
      <g>
       <use style="stroke:#000000;stroke-width:0.8;" x="376.843636" xlink:href="#m1b285494f2" y="307.584"/>
      </g>
     </g>
     <g id="text_8">
      <!-- 14000 -->
      <g transform="translate(360.937386 322.182437)scale(0.1 -0.1)">
       <use xlink:href="#DejaVuSans-31"/>
       <use x="63.623047" xlink:href="#DejaVuSans-34"/>
       <use x="127.246094" xlink:href="#DejaVuSans-30"/>
       <use x="190.869141" xlink:href="#DejaVuSans-30"/>
       <use x="254.492188" xlink:href="#DejaVuSans-30"/>
      </g>
     </g>
    </g>
   </g>
   <g id="matplotlib.axis_2">
    <g id="ytick_1">
     <g id="line2d_9">
      <defs>
       <path d="M 0 0 
L -3.5 0 
" id="m4fd130b111" style="stroke:#000000;stroke-width:0.8;"/>
      </defs>
      <g>
       <use style="stroke:#000000;stroke-width:0.8;" x="57.6" xlink:href="#m4fd130b111" y="276.381969"/>
      </g>
     </g>
     <g id="text_9">
      <!-- −80 -->
      <defs>
       <path d="M 10.59375 35.5 
L 73.1875 35.5 
L 73.1875 27.203125 
L 10.59375 27.203125 
z
" id="DejaVuSans-2212"/>
      </defs>
      <g transform="translate(29.495313 280.181188)scale(0.1 -0.1)">
       <use xlink:href="#DejaVuSans-2212"/>
       <use x="83.789062" xlink:href="#DejaVuSans-38"/>
       <use x="147.412109" xlink:href="#DejaVuSans-30"/>
      </g>
     </g>
    </g>
    <g id="ytick_2">
     <g id="line2d_10">
      <g>
       <use style="stroke:#000000;stroke-width:0.8;" x="57.6" xlink:href="#m4fd130b111" y="231.942477"/>
      </g>
     </g>
     <g id="text_10">
      <!-- −60 -->
      <g transform="translate(29.495313 235.741696)scale(0.1 -0.1)">
       <use xlink:href="#DejaVuSans-2212"/>
       <use x="83.789062" xlink:href="#DejaVuSans-36"/>
       <use x="147.412109" xlink:href="#DejaVuSans-30"/>
      </g>
     </g>
    </g>
    <g id="ytick_3">
     <g id="line2d_11">
      <g>
       <use style="stroke:#000000;stroke-width:0.8;" x="57.6" xlink:href="#m4fd130b111" y="187.502985"/>
      </g>
     </g>
     <g id="text_11">
      <!-- −40 -->
      <g transform="translate(29.495313 191.302204)scale(0.1 -0.1)">
       <use xlink:href="#DejaVuSans-2212"/>
       <use x="83.789062" xlink:href="#DejaVuSans-34"/>
       <use x="147.412109" xlink:href="#DejaVuSans-30"/>
      </g>
     </g>
    </g>
    <g id="ytick_4">
     <g id="line2d_12">
      <g>
       <use style="stroke:#000000;stroke-width:0.8;" x="57.6" xlink:href="#m4fd130b111" y="143.063493"/>
      </g>
     </g>
     <g id="text_12">
      <!-- −20 -->
      <g transform="translate(29.495313 146.862712)scale(0.1 -0.1)">
       <use xlink:href="#DejaVuSans-2212"/>
       <use x="83.789062" xlink:href="#DejaVuSans-32"/>
       <use x="147.412109" xlink:href="#DejaVuSans-30"/>
      </g>
     </g>
    </g>
    <g id="ytick_5">
     <g id="line2d_13">
      <g>
       <use style="stroke:#000000;stroke-width:0.8;" x="57.6" xlink:href="#m4fd130b111" y="98.624001"/>
      </g>
     </g>
     <g id="text_13">
      <!-- 0 -->
      <g transform="translate(44.2375 102.42322)scale(0.1 -0.1)">
       <use xlink:href="#DejaVuSans-30"/>
      </g>
     </g>
    </g>
    <g id="ytick_6">
     <g id="line2d_14">
      <g>
       <use style="stroke:#000000;stroke-width:0.8;" x="57.6" xlink:href="#m4fd130b111" y="54.184509"/>
      </g>
     </g>
     <g id="text_14">
      <!-- 20 -->
      <g transform="translate(37.875 57.983728)scale(0.1 -0.1)">
       <use xlink:href="#DejaVuSans-32"/>
       <use x="63.623047" xlink:href="#DejaVuSans-30"/>
      </g>
     </g>
    </g>
   </g>
   <g id="line2d_15">
    <path clip-path="url(#p7fddea8e1a)" d="M 73.832727 265.272096 
L 74.041588 258.924897 
L 74.229347 253.836683 
L 75.067497 224.091241 
L 75.197359 200.841802 
L 75.228742 134.205113 
L 75.241187 53.568 
L 75.334796 181.468661 
L 75.549609 246.404085 
L 75.55015 246.389611 
L 75.61454 247.430352 
L 75.624279 247.376072 
L 75.62482 247.378259 
L 75.661615 247.069883 
L 75.662156 247.073827 
L 75.78336 244.785253 
L 75.988975 239.404474 
L 76.065809 237.047702 
L 76.434833 209.951895 
L 76.487319 170.115251 
L 76.505716 54.111001 
L 76.595537 178.460087 
L 76.820631 246.256712 
L 76.821713 246.233877 
L 76.880692 247.180477 
L 76.903959 247.117517 
L 76.927767 246.955193 
L 77.54407 229.33714 
L 77.695034 216.902099 
L 77.774033 191.910414 
L 77.804876 54.640204 
L 77.897402 179.470525 
L 78.120332 245.799443 
L 78.196084 246.935484 
L 78.252358 246.465729 
L 78.476911 242.082758 
L 78.650601 237.511939 
L 78.893009 227.822399 
L 79.053172 211.129454 
L 79.109987 175.305485 
L 79.130007 54.84671 
L 79.219828 177.526758 
L 79.440593 245.473915 
L 79.441135 245.472329 
L 79.521757 246.879392 
L 79.585065 246.400285 
L 79.8107 242.195557 
L 79.847494 241.393047 
L 80.2176 229.251701 
L 80.442694 198.375354 
L 80.471372 121.430447 
L 80.482735 55.128839 
L 80.576884 180.00914 
L 80.805225 245.678037 
L 80.860416 246.62859 
L 80.929135 246.261291 
L 80.929676 246.265558 
L 80.970799 245.720233 
L 80.971881 245.733574 
L 81.109859 243.147625 
L 81.1104 243.157359 
L 81.160721 242.083205 
L 81.403671 235.892248 
L 81.404212 235.896421 
L 81.425315 235.232928 
L 81.787846 204.581162 
L 81.826804 152.125617 
L 81.841414 55.201608 
L 81.93394 178.848549 
L 82.152541 245.215328 
L 82.228294 246.707246 
L 82.306211 246.190532 
L 82.529681 242.22672 
L 82.530223 242.234046 
L 82.574051 241.321033 
L 82.811049 235.040633 
L 83.022615 225.521722 
L 83.160593 208.316759 
L 83.208209 169.180335 
L 83.226607 55.317915 
L 83.316969 177.50093 
L 83.54585 245.433401 
L 83.625932 246.650133 
L 83.670842 246.351893 
L 83.671924 246.354861 
L 83.928943 241.975764 
L 84.101551 237.927267 
L 84.184337 235.569817 
L 84.578793 195.373489 
L 84.605306 94.685299 
L 84.613964 55.45856 
L 84.708113 179.453705 
L 84.935372 245.382881 
L 85.012207 246.583826 
L 85.064692 246.215683 
L 85.065233 246.221344 
L 85.116637 245.595729 
L 85.117719 245.612185 
L 85.264355 243.074607 
L 85.264896 243.076161 
L 85.330909 241.73636 
L 85.33145 241.741629 
L 85.54464 236.525087 
L 85.806528 225.519101 
L 85.935308 210.677938 
L 85.99104 173.587007 
L 86.010519 55.366926 
L 86.100881 177.256036 
L 86.331927 245.431243 
L 86.40281 246.637627 
L 86.460707 246.392633 
L 86.514275 245.642777 
L 86.686883 242.576566 
L 86.687965 242.584805 
L 86.702033 242.272601 
L 87.281001 219.126215 
L 87.377315 194.638547 
L 87.403828 85.06625 
L 87.411945 55.522265 
L 87.50393 178.259119 
L 87.723072 244.933262 
L 87.809105 246.533376 
L 87.882153 246.058545 
L 88.081815 242.543747 
L 88.151616 241.089648 
L 88.39673 234.566318 
L 88.449216 232.720085 
L 88.646714 221.505321 
L 88.763049 196.501117 
L 88.790644 100.56578 
L 88.799843 55.450898 
L 88.893993 179.520124 
L 89.11584 245.302393 
L 89.20025 246.689033 
L 89.268428 246.236282 
L 89.478371 242.682977 
L 89.478912 242.700931 
L 89.546548 241.289301 
L 90.095215 218.007494 
L 90.173132 200.172177 
L 90.203974 134.236926 
L 90.216419 55.438154 
L 90.310028 179.246489 
L 90.533498 245.269504 
L 90.609792 246.598964 
L 90.688791 246.002556 
L 90.879796 242.88652 
L 90.966371 241.16095 
L 91.157917 236.505851 
L 91.337559 230.18107 
L 91.467421 222.183416 
L 91.59566 193.922367 
L 91.621091 86.813914 
L 91.629207 55.536317 
L 91.721734 178.518591 
L 91.947369 245.163898 
L 92.041519 246.487038 
L 92.078854 246.234846 
L 92.306112 242.577628 
L 92.306653 242.594168 
L 92.373207 241.240137 
L 92.373748 241.245368 
L 92.407837 240.518771 
L 92.939729 215.29803 
L 93.0144 186.698766 
L 93.040913 55.481313 
L 93.131817 177.611645 
L 93.359616 245.298391 
L 93.446191 246.641881 
L 93.519779 246.087593 
L 93.662086 243.773181 
L 93.880145 239.284215 
L 94.093876 233.257248 
L 94.361716 214.639849 
L 94.427188 192.416588 
L 94.453161 69.131075 
L 94.459113 55.527471 
L 94.544064 174.131573 
L 94.769158 244.903862 
L 94.851945 246.598078 
L 94.955834 245.738701 
L 95.143052 242.405763 
L 95.38546 236.794529 
L 95.438487 235.227628 
L 95.439028 235.2331 
L 95.827532 197.418474 
L 95.855127 116.747871 
L 95.865949 55.494755 
L 95.96064 179.791862 
L 96.18898 245.496609 
L 96.273932 246.598583 
L 96.316678 246.334577 
L 96.456279 244.21556 
L 96.457903 244.231773 
L 96.660271 240.17628 
L 96.660812 240.190404 
L 96.720332 238.851619 
L 96.7344 238.521209 
L 97.058513 226.454069 
L 97.238697 198.570764 
L 97.267916 120.808774 
L 97.279279 55.577767 
L 97.373428 179.492316 
L 97.599604 245.307069 
L 97.672111 246.548173 
L 97.738124 246.103546 
L 97.739206 246.112442 
L 98.165044 237.957955 
L 98.623889 207.078679 
L 98.669341 160.573859 
L 98.685574 55.599565 
L 98.777018 177.846811 
L 99.011311 245.344543 
L 99.084899 246.444696 
L 99.153076 245.993055 
L 99.299171 243.700718 
L 99.299712 243.710713 
L 99.35328 242.680471 
L 99.354362 242.682027 
L 99.537792 238.792721 
L 99.725009 233.490846 
L 99.954973 220.472868 
L 100.060486 197.025486 
L 100.088623 103.393415 
L 100.098362 55.536891 
L 100.192512 179.545339 
L 100.405161 244.733248 
L 100.487948 246.491761 
L 100.534481 246.282803 
L 101.296879 225.346333 
L 101.453254 201.232315 
L 101.486801 129.708965 
L 101.498705 55.547816 
L 101.592855 179.43284 
L 101.820655 245.303981 
L 101.894784 246.529691 
L 101.954304 246.168257 
L 101.982441 245.853986 
L 102.196172 242.064563 
L 102.196713 242.074017 
L 102.29465 239.953502 
L 102.817885 212.464772 
L 102.881193 177.692889 
L 102.902295 55.582331 
L 102.992116 176.79179 
L 103.220998 245.288444 
L 103.295127 246.641708 
L 103.362764 246.299008 
L 103.529961 243.559404 
L 103.531043 243.562757 
L 103.883834 235.492937 
L 104.187386 219.184316 
L 104.2837 195.277427 
L 104.310214 94.011026 
L 104.318871 55.656239 
L 104.41248 178.915543 
L 104.642985 245.3223 
L 104.721443 246.460074 
L 104.77934 246.073882 
L 104.914612 244.014324 
L 105.259287 236.437208 
L 105.337204 234.002434 
L 105.488169 227.546079 
L 105.594764 219.290219 
L 105.684585 199.843708 
L 105.714886 133.686751 
L 105.727331 55.563327 
L 105.82094 179.131648 
L 106.047657 245.213657 
L 106.121786 246.532125 
L 106.182929 246.20306 
L 106.333894 243.818638 
L 106.334435 243.821298 
L 106.500009 240.494008 
L 106.55033 239.351216 
L 106.755945 233.550773 
L 106.831156 230.634112 
L 107.019997 216.883164 
L 107.100079 192.886256 
L 107.124969 80.733218 
L 107.132544 55.60257 
L 107.223447 177.580689 
L 107.456657 245.454012 
L 107.517801 246.561478 
L 107.585978 246.198189 
L 107.655238 245.280653 
L 107.58706 246.207409 
L 107.655779 245.288648 
L 107.848407 241.712272 
L 108.161699 233.595996 
L 108.473367 208.931921 
L 108.52423 167.233116 
L 108.542086 55.655579 
L 108.632448 177.098055 
L 108.854836 244.848901 
L 108.946281 246.428809 
L 108.99552 246.18332 
L 109.210874 242.569093 
L 109.283921 241.074167 
L 109.487913 236.069706 
L 109.488454 236.069961 
L 109.716253 226.925087 
L 109.881286 207.529832 
L 109.928361 159.751918 
L 109.944593 55.588745 
L 110.036038 177.971763 
L 110.270871 245.536059 
L 110.343377 246.575597 
L 110.402356 246.13209 
L 111.174493 223.818888 
L 111.329786 186.333833 
L 111.3563 55.578351 
L 111.447203 177.659535 
L 111.676084 245.276556 
L 111.757248 246.646524 
L 111.845987 245.888614 
L 112.172806 239.713326 
L 112.378961 234.1747 
L 112.173888 239.716976 
L 112.379503 234.177954 
L 112.674938 214.927001 
L 112.75015 182.467939 
L 112.773958 55.518066 
L 112.863779 177.001903 
L 113.088332 245.127792 
L 113.173283 246.673992 
L 113.266351 245.883579 
L 113.441123 242.843384 
L 113.441664 242.860674 
L 113.510924 241.524325 
L 113.731689 236.241903 
L 113.732771 236.23547 
L 113.734935 236.14435 
L 113.735476 236.143154 
L 114.060131 219.441192 
L 114.146164 202.222946 
L 114.180794 140.263622 
L 114.19378 55.552197 
L 114.287389 179.003861 
L 114.504908 244.990958 
L 114.589859 246.702861 
L 114.64018 246.467741 
L 115.132573 236.577607 
L 115.133114 236.580521 
L 115.544884 207.893115 
L 115.590877 169.986745 
L 115.609274 55.543783 
L 115.699636 177.133628 
L 115.927977 245.275451 
L 116.011305 246.641671 
L 116.059462 246.322996 
L 116.060003 246.327915 
L 116.107078 245.757591 
L 116.108701 245.766211 
L 116.276439 242.871369 
L 116.818071 225.566398 
L 116.983645 199.398598 
L 117.012864 135.855404 
L 117.025309 55.49923 
L 117.118918 179.118357 
L 117.347258 245.447483 
L 117.435456 246.626925 
L 117.481449 246.264741 
L 117.48199 246.268345 
L 117.520948 245.807311 
L 117.684358 242.964805 
L 117.684899 242.971113 
L 117.68544 242.987954 
L 117.751994 241.614733 
L 118.240599 225.250095 
L 118.415372 187.589589 
L 118.442426 55.533177 
L 118.533871 177.795585 
L 118.764375 245.34801 
L 118.853114 246.535638 
L 118.896401 246.213347 
L 118.898566 246.224711 
L 118.932113 245.793202 
L 118.934278 245.800884 
L 119.087948 243.110199 
L 119.098769 242.891147 
L 119.308172 238.370302 
L 119.308713 238.378584 
L 119.349836 237.330124 
L 119.350377 237.339898 
L 119.801647 202.056638 
L 119.835735 141.815058 
L 119.849263 55.4556 
L 119.94233 179.060914 
L 120.16526 245.249421 
L 120.242636 246.701362 
L 120.290793 246.471305 
L 120.292416 246.493709 
L 120.860561 234.455329 
L 121.146799 217.43902 
L 121.238784 184.011471 
L 121.263674 55.530978 
L 121.353495 177.118173 
L 121.581295 245.305505 
L 121.680314 246.620049 
L 121.725766 246.222055 
L 121.727389 246.22719 
L 122.011462 241.317636 
L 122.012003 241.324424 
L 122.05042 240.421372 
L 122.413492 229.059598 
L 122.629929 203.426192 
L 122.666723 146.425277 
L 122.680791 55.445072 
L 122.773318 178.697889 
L 122.999494 245.440379 
L 123.088233 246.735892 
L 123.141801 246.355587 
L 123.381504 242.387978 
L 123.382045 242.394055 
L 123.382586 242.401663 
L 123.426956 241.462532 
L 123.599564 237.457009 
L 123.797062 230.947754 
L 124.016204 213.231034 
L 124.080052 183.964128 
L 124.104943 55.469233 
L 124.194764 177.164177 
L 124.4112 244.841964 
L 124.513466 246.67778 
L 124.549178 246.443965 
L 125.206604 231.458941 
L 125.490135 196.238686 
L 125.51719 102.081953 
L 125.526929 55.460254 
L 125.621079 179.677588 
L 125.841844 245.148691 
L 125.923549 246.619721 
L 125.976576 246.319738 
L 126.220608 242.193428 
L 126.221149 242.198199 
L 126.253615 241.523748 
L 126.408908 238.024138 
L 126.790377 220.507215 
L 126.88615 202.112952 
L 126.92078 138.797845 
L 126.933766 55.534805 
L 127.027375 179.162374 
L 127.249222 245.11636 
L 127.329844 246.63472 
L 127.386659 246.276808 
L 127.625821 242.199945 
L 127.626362 242.204679 
L 127.658828 241.516173 
L 127.659369 241.522225 
L 127.827648 237.548189 
L 128.104687 227.145021 
L 128.241041 214.457858 
L 128.311383 185.511862 
L 128.336815 55.562653 
L 128.427718 177.41474 
L 128.658764 245.432055 
L 128.739386 246.61476 
L 128.793495 246.207158 
L 128.882775 244.959168 
L 129.597015 221.167132 
L 129.715514 192.766603 
L 129.742028 68.62973 
L 129.74798 55.685691 
L 129.83239 173.70707 
L 130.060189 244.832778 
L 130.139729 246.464927 
L 130.199249 246.137271 
L 130.200873 246.144482 
L 130.683526 236.209128 
L 131.1072 197.434427 
L 131.135337 111.104743 
L 131.145617 55.490176 
L 131.240308 179.767938 
L 131.457827 245.1212 
L 131.54873 246.738745 
L 131.599052 246.400345 
L 132.152047 234.742151 
L 132.502673 207.900227 
L 132.550289 163.340277 
L 132.567063 55.476865 
L 132.657967 177.552103 
L 132.873321 244.749536 
L 132.964224 246.687298 
L 133.005888 246.497375 
L 133.152524 244.449893 
L 133.153065 244.457596 
L 133.200681 243.569637 
L 133.492329 236.997584 
L 133.49287 237.005673 
L 133.805079 223.609202 
L 133.925201 206.595101 
L 133.969571 156.754702 
L 133.985263 55.446537 
L 134.076707 178.08569 
L 134.30126 245.291803 
L 134.377012 246.698427 
L 134.446272 246.245481 
L 134.929466 236.597279 
L 135.29362 216.652413 
L 135.376948 188.019646 
L 135.404544 55.572558 
L 135.495988 177.917253 
L 135.732445 245.599149 
L 135.809821 246.597646 
L 135.854732 246.302982 
L 135.855273 246.320337 
L 135.931567 245.227503 
L 136.430452 233.792039 
L 136.747532 208.196734 
L 136.79623 164.428615 
L 136.813545 55.615662 
L 136.903907 177.339855 
L 137.132247 245.210081 
L 137.210705 246.504684 
L 137.301068 245.798725 
L 137.552134 241.351486 
L 137.568367 241.020801 
L 138.017472 225.76195 
L 138.15545 209.81811 
L 138.207395 174.921587 
L 138.227415 55.579363 
L 138.317236 176.769311 
L 138.544495 245.068373 
L 138.627281 246.502596 
L 138.708986 245.889699 
L 139.466513 222.911402 
L 139.581225 204.977902 
L 139.621265 154.700913 
L 139.636416 55.615551 
L 139.728401 178.095415 
L 139.960529 245.376022 
L 140.036282 246.419385 
L 140.092015 246.093361 
L 140.648256 234.005722 
L 140.993472 200.117471 
L 141.024314 134.305696 
L 141.036759 55.55692 
L 141.130368 179.087234 
L 141.358708 245.35313 
L 141.442036 246.578898 
L 141.49831 246.204372 
L 141.696349 242.887912 
L 142.26233 224.026877 
L 142.408425 197.144299 
L 142.436561 106.167637 
L 142.446301 55.582803 
L 142.540992 179.632114 
L 142.759052 244.947775 
L 142.854284 246.570172 
L 142.891078 246.358908 
L 143.029056 244.281715 
L 143.33856 237.766654 
L 143.531729 231.458992 
L 143.809309 199.587761 
L 143.840151 123.094654 
L 143.851514 55.464055 
L 143.945664 179.505076 
L 144.173463 245.446659 
L 144.256791 246.646999 
L 144.327674 246.042761 
L 144.373667 245.355515 
L 144.540864 242.329566 
L 144.541946 242.334418 
L 144.571165 241.674962 
L 144.571706 241.688356 
L 145.125783 219.794959 
L 145.230755 192.413109 
L 145.256727 68.755166 
L 145.262679 55.441698 
L 145.347089 173.903134 
L 145.574348 245.075942 
L 145.574889 245.067715 
L 145.609519 246.215045 
L 145.663087 246.723155 
L 145.722065 246.291617 
L 145.723689 246.303467 
L 145.784832 245.537053 
L 146.041309 240.747982 
L 146.533702 220.687853 
L 146.625146 204.759873 
L 146.663564 159.191099 
L 146.679796 55.537373 
L 146.7707 177.782595 
L 146.999581 245.411689 
L 147.079663 246.653327 
L 147.14297 246.231729 
L 147.382132 242.1829 
L 147.382673 242.195332 
L 147.44057 240.983939 
L 147.721396 233.509295 
L 147.827991 229.14743 
L 148.063907 193.430875 
L 148.09042 73.123926 
L 148.096913 55.607092 
L 148.185111 175.851568 
L 148.412369 244.986143 
L 148.496239 246.478903 
L 148.544937 246.191062 
L 148.606621 245.407761 
L 148.607162 245.411688 
L 148.834961 241.192681 
L 148.835503 241.20197 
L 148.884742 240.144751 
L 149.107671 234.212017 
L 149.35008 221.267724 
L 149.439901 207.394408 
L 149.486976 157.14598 
L 149.502668 55.539849 
L 149.594112 177.924579 
L 149.818124 245.188239 
L 149.907404 246.656867 
L 149.981533 246.047069 
L 150.125463 243.632024 
L 150.126004 243.632511 
L 150.370577 238.302365 
L 150.371119 238.310436 
L 150.4117 237.28641 
L 150.846737 208.329252 
L 150.894895 168.250466 
L 150.912751 55.564555 
L 151.003113 177.133408 
L 151.22983 245.194023 
L 151.307747 246.612424 
L 151.368349 246.221888 
L 151.369431 246.235111 
L 151.402438 245.789662 
L 151.40352 245.792714 
L 151.632401 241.781738 
L 151.632943 241.795053 
L 151.691921 240.53204 
L 151.994932 231.765414 
L 152.262772 207.407027 
L 152.309306 160.531887 
L 152.325539 55.535709 
L 152.416983 177.892846 
L 152.644241 245.268022 
L 152.729193 246.595662 
L 152.773021 246.372363 
L 152.775727 246.378063 
L 153.406639 231.807687 
L 153.517562 226.425331 
L 153.703697 194.032671 
L 153.730211 78.655073 
L 153.737245 55.597225 
L 153.828148 177.416484 
L 154.048372 244.823118 
L 154.137652 246.532986 
L 154.199878 246.118205 
L 154.779927 232.935584 
L 154.873536 228.87846 
L 155.020713 217.406955 
L 155.106746 191.194637 
L 155.137047 55.54673 
L 155.230115 178.69262 
L 155.451421 245.164868 
L 155.546653 246.637217 
L 155.582365 246.402887 
L 155.582906 246.41282 
L 155.647837 245.566016 
L 155.704652 244.687784 
L 156.399953 221.569886 
L 156.518993 196.12082 
L 156.546048 100.752437 
L 156.555247 55.601776 
L 156.649937 179.58297 
L 156.871244 245.145367 
L 156.951866 246.621456 
L 157.030324 246.093639 
L 157.280308 241.718935 
L 157.280849 241.732849 
L 157.340911 240.448795 
L 157.892823 212.303086 
L 157.953425 181.819203 
L 157.976692 55.565676 
L 158.066513 176.805351 
L 158.28782 245.003578 
L 158.288361 245.002207 
L 158.378182 246.654741 
L 158.428503 246.333566 
L 158.624919 243.171706 
L 158.62546 243.179278 
L 159.012881 233.637341 
L 159.333207 205.571507 
L 159.375953 146.920313 
L 159.390022 55.503021 
L 159.482548 178.626287 
L 159.700067 244.976566 
L 159.779607 246.645101 
L 159.851572 246.194653 
L 160.108049 241.620326 
L 159.853737 246.197571 
L 160.109132 241.644327 
L 160.294726 237.258685 
L 160.738961 206.462434 
L 160.782249 160.982763 
L 160.798481 55.619733 
L 160.889926 177.753607 
L 161.119889 245.222766 
L 161.187526 246.500788 
L 161.270854 245.924351 
L 161.448332 243.069202 
L 161.449414 243.072686 
L 162.041367 222.675481 
L 162.164195 200.884826 
L 162.197201 128.300052 
L 162.209105 55.641821 
L 162.303255 179.363863 
L 162.53376 245.363709 
L 162.616547 246.486393 
L 162.661999 246.154933 
L 162.823785 243.687275 
L 162.824326 243.691763 
L 162.899537 242.225284 
L 163.067817 238.534677 
L 163.146816 236.408842 
L 163.507183 216.013424 
L 163.584559 189.3953 
L 163.613236 55.510567 
L 163.705222 178.20098 
L 163.94222 245.681188 
L 164.016349 246.659175 
L 164.063965 246.274198 
L 164.066671 246.291541 
L 164.141882 245.258005 
L 164.287436 242.647115 
L 164.466537 238.915244 
L 164.771171 228.738958 
L 164.805801 226.854256 
L 164.958929 210.208858 
L 165.01358 171.887623 
L 165.032518 55.604076 
L 165.12288 176.99774 
L 165.352303 245.205878 
L 165.4405 246.536797 
L 165.506513 245.971068 
L 165.507596 245.976952 
L 165.538438 245.615283 
L 165.731607 242.26831 
L 165.732148 242.276707 
L 165.7776 241.289317 
L 165.778682 241.289322 
L 166.061132 233.824417 
L 166.296506 221.027557 
L 166.405265 198.750266 
L 166.435025 118.059975 
L 166.445847 55.607138 
L 166.540538 179.696859 
L 166.770502 245.481106 
L 166.771043 245.474286 
L 166.855453 246.639565 
L 166.891165 246.415983 
L 167.058903 243.913022 
L 167.059444 243.923442 
L 167.115718 242.869999 
L 167.336483 237.964781 
L 167.693603 222.604052 
L 167.780177 211.641076 
L 167.841321 172.052056 
L 167.860259 55.488923 
L 167.950621 177.188583 
L 168.17842 245.269931 
L 168.258502 246.649756 
L 168.319104 246.255238 
L 168.327761 246.157967 
L 168.320727 246.26845 
L 168.328844 246.162955 
L 168.481972 243.777642 
L 168.523095 243.003132 
L 168.760634 237.856823 
L 168.761175 237.857069 
L 168.765504 237.739519 
L 168.946769 232.001811 
L 169.199459 211.887553 
L 169.261143 174.762526 
L 169.281164 55.594208 
L 169.370985 176.781364 
L 169.602031 245.253952 
L 169.677242 246.501324 
L 169.723235 246.272381 
L 169.958609 242.443213 
L 169.959692 242.443459 
L 170.306531 233.61458 
L 170.619823 207.941057 
L 170.669062 156.448027 
L 170.684753 55.539715 
L 170.776198 177.947233 
L 171.005079 245.291844 
L 171.00562 245.28652 
L 171.033757 246.081635 
L 171.079209 246.547392 
L 171.145763 246.137924 
L 171.146845 246.142417 
L 171.179311 245.722351 
L 171.387089 242.111452 
L 171.387631 242.119467 
L 171.488815 239.93299 
L 171.963351 219.25157 
L 172.046138 202.841294 
L 172.08185 144.317536 
L 172.095377 55.576115 
L 172.188445 178.653951 
L 172.405423 244.845112 
L 172.493079 246.571076 
L 172.548271 246.213608 
L 172.550976 246.218278 
L 172.676509 244.317469 
L 172.845871 240.988487 
L 172.947055 238.79279 
L 173.129402 233.535412 
L 173.142388 233.064011 
L 173.205155 230.559749 
L 173.461632 200.14746 
L 173.493556 122.960382 
L 173.504919 55.53112 
L 173.599069 179.500567 
L 173.825786 245.387102 
L 173.905868 246.648257 
L 173.948614 246.332736 
L 173.95186 246.384589 
L 174.037894 245.175369 
L 174.038435 245.202795 
L 174.077393 244.524242 
L 174.246755 241.229462 
L 174.331706 239.450886 
L 174.659066 228.511591 
L 174.857647 206.000209 
L 174.899852 159.21511 
L 174.916084 55.516719 
L 175.006988 177.749744 
L 175.232623 245.238084 
L 175.318115 246.660025 
L 175.361943 246.469741 
L 175.549702 243.46299 
L 175.551325 243.476337 
L 175.551866 243.499904 
L 175.627619 242.023482 
L 175.62816 242.026251 
L 175.84622 236.969712 
L 175.846761 236.976562 
L 175.879226 235.97941 
L 175.963095 233.262929 
L 176.29262 198.01876 
L 176.321839 110.383086 
L 176.332119 55.624842 
L 176.42681 179.610316 
L 176.640541 244.678929 
L 176.732527 246.587123 
L 176.77906 246.281627 
L 176.925155 244.210938 
L 176.925696 244.217331 
L 176.96736 243.406385 
L 177.567971 222.910833 
L 177.680518 206.128047 
L 177.723264 158.822197 
L 177.738956 55.662219 
L 177.8304 177.590698 
L 178.055494 245.003158 
L 178.132329 246.495105 
L 178.206999 246.103174 
L 178.329827 244.239228 
L 178.330368 244.244193 
L 178.489449 241.133234 
L 179.055971 215.262786 
L 179.13497 179.591012 
L 179.157155 55.615402 
L 179.246976 176.773138 
L 179.473693 245.021779 
L 179.560268 246.508951 
L 179.610589 246.178422 
L 180.017489 238.466081 
L 180.273425 230.183155 
L 180.307514 228.532261 
L 180.521245 200.129377 
L 180.552087 133.5867 
L 180.564532 55.501444 
L 180.658141 179.257389 
L 180.886481 245.408457 
L 180.904879 245.989361 
L 180.965481 246.656358 
L 181.021754 246.377819 
L 181.382662 239.814165 
L 181.383203 239.824257 
L 181.526051 236.243202 
L 181.730042 228.534471 
L 181.903732 212.284829 
L 181.963793 182.655037 
L 181.987601 55.63227 
L 182.077964 177.130918 
L 182.314961 245.495985 
L 182.392879 246.548904 
L 182.450775 246.140471 
L 182.451857 246.141563 
L 182.60174 243.825896 
L 182.777594 240.333749 
L 182.778676 240.351279 
L 183.19207 225.917854 
L 183.348445 205.59743 
L 183.39065 151.262553 
L 183.40526 55.583433 
L 183.497786 178.418642 
L 183.712599 244.732648 
L 183.801338 246.585408 
L 183.864105 246.220156 
L 184.044829 243.442863 
L 184.577804 229.060541 
L 184.77422 210.965393 
L 184.832657 172.288379 
L 184.852137 56.0354 
L 184.941958 176.4953 
L 185.178415 245.143522 
L 185.267695 246.527183 
L 185.313146 246.337439 
L 185.507398 244.11286 
L 185.507939 244.118896 
L 185.556096 243.419402 
L 185.839628 239.070942 
L 185.840169 239.079556 
L 186.089612 233.928242 
L 186.490019 199.428801 
L 186.520861 127.660376 
L 186.532765 57.265123 
L 186.626915 177.40828 
L 186.856337 243.714533 
L 186.997562 245.990279 
L 187.002973 245.977305 
L 187.132294 245.510565 
L 187.134458 245.523351 
L 187.300032 244.853038 
L 187.137705 245.546499 
L 187.303279 244.860124 
L 187.30382 244.863458 
L 187.371456 244.589712 
L 187.374161 244.616555 
L 187.498071 244.173325 
L 187.5024 244.178766 
L 187.647953 243.927362 
L 187.508893 244.209864 
L 187.649577 243.936083 
L 187.660399 243.954216 
L 187.734528 243.797559 
L 187.752384 243.839304 
L 187.80974 243.711676 
L 187.77024 243.855105 
L 187.86439 243.735908 
L 187.901725 243.775476 
L 187.966656 243.65622 
L 187.974772 243.704894 
L 187.97856 243.68116 
L 188.280489 244.143062 
L 188.292934 244.122277 
L 188.410351 244.511503 
L 188.412515 244.462671 
L 188.498548 244.789949 
L 188.502877 244.761621 
L 188.507747 244.756139 
L 189.412992 252.06917 
L 189.584518 254.265139 
L 189.414074 252.067411 
L 189.5856 254.261258 
L 189.586682 254.253131 
L 189.612113 254.669727 
L 189.612655 254.664045 
L 189.780393 257.093587 
L 190.075287 261.785261 
L 190.075828 261.764796 
L 190.153745 262.980466 
L 190.320943 265.72898 
L 190.351244 266.197343 
L 190.573091 269.798678 
L 190.618001 270.506417 
L 190.790609 273.050261 
L 190.791151 273.05018 
L 190.791692 273.04404 
L 190.841472 273.733539 
L 190.842013 273.733295 
L 191.10336 277.136116 
L 191.103901 277.127488 
L 192.247226 286.523743 
L 191.104983 277.113295 
L 192.248849 286.510988 
L 192.249391 286.490719 
L 192.344623 286.994999 
L 192.347328 286.959201 
L 192.480977 287.54703 
L 192.484224 287.530666 
L 192.92846 289.003979 
L 192.486929 287.501664 
L 192.933329 288.988161 
L 192.933871 288.961874 
L 193.037219 289.316986 
L 193.03776 289.306533 
L 193.040465 289.282913 
L 193.091869 289.516315 
L 193.100527 289.490486 
L 193.220108 289.907454 
L 193.222813 289.877393 
L 193.223895 289.855487 
L 193.308305 290.117676 
L 193.309388 290.112511 
L 193.431674 290.51636 
L 193.434921 290.478516 
L 193.536105 290.785307 
L 193.537187 290.782882 
L 194.628026 293.120658 
L 193.557207 290.75306 
L 194.629108 293.10966 
L 194.638848 293.076861 
L 194.718388 293.288624 
L 194.735703 293.278955 
L 194.853661 293.543901 
L 194.741114 293.268437 
L 194.857449 293.525549 
L 194.861236 293.514104 
L 194.946729 293.708794 
L 194.958633 293.652453 
L 194.961338 293.641852 
L 195.078214 293.848975 
L 195.191843 294.009867 
L 195.086871 293.824967 
L 195.199959 293.993597 
L 195.2005 293.984062 
L 195.288698 294.174001 
L 195.302225 294.141125 
L 195.421807 294.371168 
L 195.434793 294.367923 
L 195.487279 294.483512 
L 195.493772 294.48207 
L 195.600908 294.63275 
L 195.501347 294.445838 
L 195.609024 294.626693 
L 195.634996 294.589108 
L 195.708585 294.749204 
L 195.715619 294.720376 
L 195.811392 294.803994 
L 195.757824 294.673578 
L 195.83033 294.788704 
L 195.953699 294.955296 
L 195.831953 294.769101 
L 195.963439 294.927361 
L 195.981295 294.896302 
L 196.037027 295.041627 
L 196.072198 294.982561 
L 196.191779 295.118462 
L 196.076527 294.970253 
L 196.192861 295.103588 
L 196.203683 295.059655 
L 196.301079 295.200073 
L 196.307572 295.219598 
L 196.379537 295.125034 
L 196.409839 295.177509 
L 196.417414 295.139487 
L 196.474228 295.269343 
L 196.513187 295.252132 
L 196.625734 295.334204 
L 196.520221 295.218643 
L 196.626275 295.325242 
L 196.696076 295.275159 
L 196.673891 295.371464 
L 196.736657 295.335299 
L 196.851369 295.441391 
L 196.73774 295.321485 
L 196.855697 295.420909 
L 196.868684 295.394838 
L 196.897361 295.488 
L 196.965539 295.456397 
L 197.085661 295.437963 
L 196.967162 295.436663 
L 197.091613 295.403658 
L 197.202537 295.337915 
L 197.168989 295.446345 
L 197.203619 295.389949 
L 197.305344 295.432953 
L 197.277748 295.352041 
L 197.31346 295.373562 
L 197.314001 295.367307 
L 197.359453 295.464835 
L 197.418432 295.448391 
L 197.509335 295.479372 
L 197.471459 295.404446 
L 197.52665 295.424764 
L 197.634327 295.382963 
L 197.610519 295.478134 
L 197.637574 295.409842 
L 197.644608 295.468609 
L 197.679779 295.362214 
L 197.748497 295.421627 
L 197.851305 295.320385 
L 197.862668 295.333481 
L 197.972509 295.476883 
L 197.982249 295.41704 
L 198.083433 295.464722 
L 198.021207 295.379924 
L 198.095878 295.412261 
L 198.207343 295.361223 
L 198.155398 295.447701 
L 198.208425 295.367267 
L 198.261452 295.406192 
L 198.304198 295.301598 
L 198.304739 295.303207 
L 198.382115 295.259038 
L 198.4043 295.357912 
L 198.416204 295.277432 
L 198.469231 295.353138 
L 198.495203 295.244209 
L 198.527668 295.291628 
L 198.561216 295.358747 
L 198.614784 295.276424 
L 198.639674 295.317689 
L 198.730036 295.215619 
L 198.641297 295.338053 
L 198.753844 295.226986 
L 198.802001 295.301093 
L 198.759796 295.206664 
L 198.86585 295.254945 
L 198.921041 295.1254 
L 198.868556 295.256189 
L 198.978938 295.193488 
L 199.010321 295.238903 
L 199.071465 295.119423 
L 199.325236 294.958213 
L 199.07904 295.169258 
L 199.32686 295.005009 
L 199.327401 295.020749 
L 199.410729 294.901772 
L 199.43616 294.959925 
L 199.553577 294.77332 
L 199.44103 294.963716 
L 199.555741 294.779171 
L 199.563316 294.829793 
L 199.652055 294.659592 
L 199.655843 294.631458 
L 199.69426 294.771724 
L 199.757568 294.76256 
L 199.894464 294.524751 
L 199.759732 294.765915 
L 199.898793 294.536897 
L 199.905827 294.563015 
L 199.970217 294.449853 
L 200.004847 294.504425 
L 200.111983 294.417368 
L 200.015668 294.533924 
L 200.117935 294.426388 
L 200.220742 294.461331 
L 200.123887 294.406598 
L 200.231023 294.41758 
L 200.345193 294.291125 
L 200.291084 294.438382 
L 200.34898 294.293184 
L 200.426356 294.343862 
L 200.415535 294.251994 
L 200.45774 294.272873 
L 200.624937 294.050998 
L 200.463151 294.299933 
L 200.625478 294.066882 
L 200.626019 294.08669 
L 200.729367 293.944621 
L 200.733155 293.953206 
L 200.846784 293.83649 
L 200.73586 293.976365 
L 200.853818 293.852945 
L 200.861393 293.889242 
L 200.951215 293.673936 
L 200.955543 293.696822 
L 201.075665 293.559951 
L 200.960413 293.730407 
L 201.086487 293.571055 
L 201.088111 293.603372 
L 201.186048 293.436451 
L 201.288314 293.281744 
L 201.214185 293.461262 
L 201.3013 293.307154 
L 201.307252 293.321015 
L 201.378135 293.185515 
L 201.394368 293.224122 
L 201.484189 293.044041 
L 201.398697 293.237805 
L 201.508538 293.056899 
L 201.531264 293.112454 
L 201.611887 292.901891 
L 201.616215 292.95298 
L 201.726057 292.847031 
L 201.728762 292.854703 
L 201.740125 292.886167 
L 201.831569 292.706482 
L 201.833193 292.740532 
L 201.840768 292.767777 
L 201.948445 292.580526 
L 202.351558 292.025123 
L 201.949527 292.584525 
L 202.358051 292.0738 
L 202.358592 292.089448 
L 202.460858 291.931365 
L 202.464646 291.949135 
L 202.466269 291.97142 
L 202.546351 291.805976 
L 202.659439 291.628995 
L 202.550138 291.843527 
L 202.663226 291.657448 
L 202.664849 291.676683 
L 202.757917 291.514838 
L 202.76928 291.531179 
L 202.907258 291.373988 
L 202.776314 291.559492 
L 202.90834 291.397528 
L 202.909423 291.423824 
L 202.988422 291.245092 
L 202.995456 291.265476 
L 202.99762 291.282365 
L 203.11666 291.034111 
L 203.119907 291.083852 
L 203.22055 290.921009 
L 203.224879 290.927741 
L 203.238947 290.960847 
L 203.308207 290.786513 
L 203.319569 290.831171 
L 203.434822 290.662351 
L 203.325521 290.850769 
L 203.435363 290.679727 
L 203.441856 290.699774 
L 203.537629 290.477884 
L 203.539793 290.502801 
L 203.655046 290.254179 
L 203.658292 290.278097 
L 203.664244 290.292835 
L 203.755689 290.100585 
L 203.763264 290.12636 
L 203.768134 290.140278 
L 203.843345 290.020471 
L 203.85038 290.04055 
L 203.964009 289.893256 
L 203.856873 290.087477 
L 203.96455 289.91507 
L 204.175575 289.506039 
L 203.980241 289.921809 
L 204.177199 289.53255 
L 204.17774 289.541744 
L 204.263773 289.312836 
L 204.277841 289.370742 
L 204.389847 289.132122 
L 204.280006 289.389343 
L 204.395799 289.18205 
L 204.4261 289.209972 
L 204.404457 289.141846 
L 204.457484 289.104884 
L 204.571654 288.890275 
L 204.574359 288.893814 
L 204.575441 288.919401 
L 204.658228 288.776916 
L 204.669591 288.778424 
L 204.784844 288.559025 
L 204.671756 288.805581 
L 204.792419 288.612102 
L 204.793501 288.641359 
L 204.889815 288.328392 
L 204.893062 288.364995 
L 205.019677 288.141247 
L 204.903884 288.397024 
L 205.0213 288.164147 
L 205.022383 288.186893 
L 205.125731 287.959247 
L 205.126813 287.981288 
L 205.243148 287.743252 
L 205.127895 287.986967 
L 205.246935 287.781856 
L 205.256675 287.794094 
L 205.340003 287.498215 
L 205.342708 287.502699 
L 205.361647 287.534073 
L 205.429283 287.348027 
L 205.437399 287.360537 
L 205.553193 287.099969 
L 205.441728 287.374732 
L 205.553734 287.108024 
L 205.888128 286.436562 
L 205.554816 287.109108 
L 205.893539 286.473556 
L 205.894621 286.483103 
L 205.969833 286.247744 
L 205.986607 286.258704 
L 206.122961 285.921609 
L 206.000134 286.287888 
L 206.13216 285.937419 
L 206.132701 285.967003 
L 206.234426 285.744974 
L 206.239837 285.775098 
L 206.242543 285.798273 
L 206.272303 285.649334 
L 206.283665 285.643911 
L 206.397295 285.408118 
L 206.286371 285.657537 
L 206.398377 285.432127 
L 206.4 285.436863 
L 206.482246 285.267143 
L 206.490362 285.274301 
L 206.64295 284.921921 
L 206.493068 285.301669 
L 206.648902 284.942059 
L 206.649443 284.964288 
L 206.751709 284.715934 
L 206.754415 284.72006 
L 206.863715 284.482923 
L 206.77714 284.75022 
L 206.870749 284.50681 
L 206.87129 284.521564 
L 206.967063 284.266462 
L 206.974639 284.324218 
L 207.145623 283.799764 
L 206.976262 284.336419 
L 207.14887 283.810891 
L 207.159151 283.824773 
L 207.237609 283.551093 
L 207.247889 283.587029 
L 207.386409 283.207581 
L 207.390737 283.209343 
L 207.391279 283.216942 
L 207.487052 283.03503 
L 207.49138 283.071269 
L 207.614749 282.72857 
L 207.498956 283.072156 
L 207.623407 282.729397 
L 207.975116 281.968148 
L 207.975657 281.994146 
L 207.976739 282.010473 
L 208.063313 281.795821 
L 208.064937 281.81457 
L 208.179107 281.530784 
L 208.06656 281.822198 
L 208.1856 281.551735 
L 208.200751 281.574273 
L 208.221853 281.444183 
L 208.242415 281.461462 
L 208.35929 281.140793 
L 208.24512 281.474379 
L 208.367407 281.14282 
L 208.367948 281.151897 
L 208.457228 280.894981 
L 208.465344 280.92174 
L 208.575185 280.597317 
L 208.581679 280.632846 
L 208.707212 280.303604 
L 208.596829 280.638682 
L 208.71154 280.337051 
L 208.713164 280.33903 
L 208.75104 280.203654 
L 208.759156 280.225618 
L 208.874409 279.866986 
L 208.87982 279.91104 
L 209.012387 279.52818 
L 209.012928 279.529526 
L 209.013469 279.542508 
L 209.111407 279.227231 
L 209.111948 279.241961 
L 209.114112 279.249078 
L 209.183913 279.04391 
L 209.186077 279.066293 
L 209.305658 278.685549 
L 209.319185 278.710141 
L 209.403596 278.405165 
L 209.405219 278.423915 
L 209.409007 278.44266 
L 209.521553 278.102722 
L 209.533457 278.126601 
L 209.623279 277.843075 
L 209.624902 277.853691 
L 209.627607 277.883324 
L 209.709853 277.649205 
L 209.712017 277.665538 
L 209.717428 277.670751 
L 209.835386 277.275116 
L 209.840797 277.319425 
L 209.930618 277.011969 
L 209.9317 277.01391 
L 210.072925 276.582999 
L 210.076172 276.628467 
L 210.077254 276.645483 
L 210.176815 276.362974 
L 210.19954 276.267425 
L 210.203328 276.273785 
L 210.318039 275.988192 
L 210.31858 276.015015 
L 210.409484 275.654931 
L 210.42247 275.678599 
L 210.902959 274.132805 
L 210.42734 275.689724 
L 210.911075 274.150886 
L 210.912698 274.169899 
L 211.0128 273.90542 
L 211.013341 273.919366 
L 211.124265 273.573794 
L 211.132922 273.577675 
L 211.460823 272.561039 
L 211.140497 273.585281 
L 211.464611 272.589323 
L 211.465693 272.591951 
L 211.524131 272.334225 
L 211.524672 272.33775 
L 211.527919 272.348795 
L 211.65778 271.93044 
L 211.658321 271.941491 
L 211.746519 271.62484 
L 211.754636 271.641714 
L 211.931572 271.098158 
L 211.935901 271.101214 
L 211.943476 271.119945 
L 212.021393 270.775355 
L 212.026263 270.798717 
L 212.147468 270.478347 
L 212.031133 270.811983 
L 212.148009 270.487601 
L 212.14855 270.497973 
L 212.235665 270.153159 
L 212.243241 270.181646 
L 212.244323 270.194771 
L 212.390417 269.671405 
L 212.523526 269.264667 
L 212.393123 269.68841 
L 212.524067 269.273713 
L 212.529478 269.291172 
L 212.606313 269.046187 
L 212.607936 269.060263 
L 212.611183 269.062642 
L 212.733469 268.635548 
L 212.739421 268.686118 
L 212.81842 268.370394 
L 212.821126 268.388355 
L 212.947741 267.828906 
L 212.948823 267.834199 
L 213.182575 266.975982 
L 212.950988 267.855057 
L 213.183657 266.985155 
L 213.184198 267.008394 
L 213.283759 266.636767 
L 213.287005 266.654687 
L 213.430935 266.021017 
L 213.432559 266.025472 
L 213.435805 266.03968 
L 213.525085 265.707224 
L 213.526167 265.710118 
L 213.6912 265.173738 
L 213.527791 265.728508 
L 213.692823 265.182656 
L 213.695529 265.200327 
L 213.763165 264.844315 
L 213.769117 264.870482 
L 213.887616 264.326093 
L 213.890321 264.363524 
L 214.263674 262.940937 
L 214.26638 262.954356 
L 214.271791 262.97753 
L 214.364858 262.556782 
L 214.36594 262.571026 
L 214.510412 261.921637 
L 214.37568 262.576096 
L 214.513658 261.938725 
L 214.515823 261.952875 
L 214.604561 261.623215 
L 214.608349 261.653174 
L 214.735505 261.114922 
L 214.740916 261.124665 
L 214.741457 261.130843 
L 214.814505 260.754957 
L 214.819916 260.768323 
L 214.95086 260.223629 
L 214.951942 260.236268 
L 214.953024 260.262501 
L 215.042304 259.862424 
L 215.047174 259.87428 
L 215.170001 259.370643 
L 215.052044 259.89023 
L 215.171625 259.374246 
L 215.173789 259.39161 
L 215.269562 258.986416 
L 215.398883 258.342217 
L 215.399424 258.348899 
L 215.478423 257.98248 
L 215.481129 257.988695 
L 215.906967 256.09594 
L 215.484375 258.001776 
L 215.907508 256.101226 
L 216.027089 255.495569 
L 216.029795 255.498455 
L 216.030336 255.508621 
L 216.114746 255.022754 
L 216.115828 255.025752 
L 216.121239 255.031421 
L 216.259759 254.239333 
L 216.2603 254.256705 
L 216.353367 253.704558 
L 216.354449 253.721746 
L 216.505955 252.764765 
L 216.506496 252.792559 
L 216.604975 252.169062 
L 216.746199 251.291103 
L 216.608221 252.170916 
L 216.748905 251.304512 
L 216.749446 251.32243 
L 216.840349 250.683067 
L 216.841431 250.690914 
L 216.973457 249.753605 
L 216.975081 249.757833 
L 216.976163 249.763531 
L 217.747759 242.998412 
L 218.443601 226.232542 
L 218.601059 208.381349 
L 218.65138 161.588325 
L 218.668154 56.178727 
L 218.759057 176.788156 
L 218.982528 243.96724 
L 219.07289 245.908236 
L 219.136198 245.699744 
L 219.136739 245.700878 
L 219.163252 245.51171 
L 219.164876 245.522843 
L 219.312593 243.806911 
L 219.315299 243.821169 
L 219.326121 243.658864 
L 219.497647 241.40196 
L 219.498188 241.412993 
L 219.560954 240.444801 
L 219.561495 240.471471 
L 219.716247 237.692871 
L 219.89102 233.492977 
L 220.141545 221.379111 
L 220.244352 204.389879 
L 220.283852 149.010773 
L 220.298461 56.343726 
L 220.390988 177.530755 
L 220.617164 244.00663 
L 220.715101 245.837949 
L 220.753519 245.669842 
L 220.758388 245.673547 
L 220.77408 245.526609 
L 220.775162 245.537616 
L 220.936948 243.775389 
L 221.428259 235.268181 
L 221.79079 215.347289 
L 221.871953 178.819782 
L 221.894138 56.246908 
L 221.983959 176.08088 
L 222.216628 244.402735 
L 222.305908 245.954494 
L 222.352442 245.806642 
L 222.46553 244.702584 
L 222.466071 244.711941 
L 222.615412 242.648726 
L 222.700364 241.478074 
L 222.617036 242.655107 
L 222.700905 241.491236 
L 222.849705 239.012213 
L 222.850246 239.031565 
L 222.920588 237.571969 
L 222.922752 237.572417 
L 222.971991 236.447559 
L 223.198167 229.258047 
L 223.228468 227.809147 
L 223.417309 207.792164 
L 223.464925 164.979853 
L 223.48224 56.285049 
L 223.573143 176.568756 
L 223.802025 244.299168 
L 223.895092 245.964976 
L 223.936215 245.817025 
L 224.149405 243.288241 
L 224.327424 240.412904 
L 224.601216 234.305573 
L 224.699153 231.019419 
L 224.966993 205.508688 
L 225.008657 155.45174 
L 225.024349 56.113749 
L 225.115793 177.334328 
L 225.350086 244.817536 
L 225.442071 246.186564 
L 225.48103 246.001979 
L 225.482112 246.003421 
L 226.220701 231.296726 
L 226.357597 224.240227 
L 226.504774 200.369104 
L 226.536157 135.50781 
L 226.548602 56.000752 
L 226.642752 178.735242 
L 226.873257 244.921711 
L 226.949009 246.232798 
L 227.005824 246.00369 
L 227.265548 242.513121 
L 227.267171 242.537974 
L 227.294767 242.030198 
L 227.536093 237.300043 
L 227.537175 237.305474 
L 227.667578 233.769897 
L 228.031732 193.348897 
L 228.057164 82.177793 
L 228.064739 55.935705 
L 228.156183 177.364994 
L 228.392099 245.174518 
L 228.478132 246.372694 
L 228.525207 246.196392 
L 229.001908 238.175155 
L 229.002991 238.186034 
L 229.183715 233.262637 
L 229.415302 221.14669 
L 229.525684 199.597493 
L 229.556527 126.369644 
L 229.568431 56.044373 
L 229.66258 178.847428 
L 229.882263 244.347228 
L 229.972625 246.053121 
L 230.031604 245.758461 
L 230.188521 243.611006 
L 230.601373 234.882662 
L 230.956329 209.865955 
L 231.009356 173.104849 
L 231.028835 55.887551 
L 231.119197 176.769105 
L 231.345373 244.74822 
L 231.428701 246.417339 
L 231.489844 246.072602 
L 231.49255 246.096766 
L 231.51744 245.812915 
L 231.740911 242.329888 
L 231.749027 242.206119 
L 232.298775 225.35121 
L 232.470301 194.592706 
L 232.496273 90.801478 
L 232.504931 55.83698 
L 232.597999 178.566451 
L 232.819846 244.800843 
L 232.82688 245.072414 
L 232.908585 246.437786 
L 232.965399 246.126105 
L 233.138007 243.723046 
L 233.815994 221.0692 
L 233.919884 201.613084 
L 233.953431 138.644471 
L 233.966417 55.697597 
L 234.060026 178.928598 
L 234.282415 245.083707 
L 234.282956 245.073769 
L 234.365743 246.622468 
L 234.412276 246.43441 
L 234.469632 245.821644 
L 234.670377 242.507374 
L 234.784006 240.275335 
L 235.308323 217.398295 
L 235.399767 185.426393 
L 235.42574 55.837861 
L 235.516102 177.028756 
L 235.741196 244.734524 
L 235.783942 245.944604 
L 235.814243 246.324172 
L 235.894324 245.91161 
L 235.894865 245.912456 
L 235.910016 245.741181 
L 235.911098 245.741284 
L 236.077754 243.065686 
L 236.078295 243.068767 
L 236.102644 242.571077 
L 236.369943 236.821178 
L 236.370484 236.822167 
L 236.495476 233.127512 
L 236.805521 205.919994 
L 236.847185 161.652847 
L 236.863959 55.750054 
L 236.954863 177.433418 
L 237.18158 245.0263 
L 237.271942 246.514179 
L 237.309818 246.313078 
L 237.411002 245.054559 
L 238.002956 230.3482 
L 238.246447 204.266567 
L 238.285405 147.413281 
L 238.299473 55.736958 
L 238.392 178.235691 
L 238.604649 244.315715 
L 238.711785 246.487597 
L 238.74912 246.246703 
L 238.954193 243.193689 
L 239.153315 239.131004 
L 239.153856 239.147464 
L 239.214999 237.648828 
L 239.21554 237.65391 
L 239.526127 225.725333 
L 239.687913 202.257603 
L 239.722543 142.742034 
L 239.73607 55.722775 
L 239.829137 178.632861 
L 240.057478 245.173163 
L 240.071546 245.64091 
L 240.149463 246.505404 
L 240.193292 246.185485 
L 240.917812 228.018747 
L 241.062825 215.634956 
L 241.12992 196.249925 
L 241.156975 103.187747 
L 241.166714 55.627011 
L 241.260864 179.433551 
L 241.486499 245.25322 
L 241.567121 246.609064 
L 241.625018 246.261739 
L 241.834961 242.934354 
L 241.836044 242.948569 
L 241.836585 242.953572 
L 241.872297 242.252678 
L 242.48914 215.825192 
L 242.569763 183.278024 
L 242.594112 55.657803 
L 242.684474 177.088979 
L 242.907404 244.845361 
L 242.997225 246.472094 
L 243.074601 245.829722 
L 243.076224 245.834137 
L 243.653568 232.733295 
L 243.903011 216.11694 
L 243.97714 193.629252 
L 244.002572 83.468084 
L 244.010147 55.571395 
L 244.102132 178.089454 
L 244.325062 245.121992 
L 244.408931 246.594847 
L 244.454924 246.367024 
L 244.773626 240.944918 
L 244.774167 240.946649 
L 244.943529 236.988437 
L 245.323916 216.861988 
L 245.407244 189.93386 
L 245.436463 55.540243 
L 245.528448 178.172646 
L 245.749213 245.132662 
L 245.844445 246.783178 
L 245.882863 246.575771 
L 245.883945 246.58379 
L 245.93102 246.037225 
L 246.675561 225.054811 
L 246.791895 212.141556 
L 246.855744 171.499372 
L 246.874682 55.650863 
L 246.965044 177.017661 
L 247.192303 245.035338 
L 247.279418 246.463969 
L 247.323788 246.207188 
L 247.526697 243.091138 
L 248.038569 228.221933 
L 248.224704 208.093846 
L 248.271779 169.164637 
L 248.290176 55.599655 
L 248.380538 177.200117 
L 248.611584 245.265989 
L 248.694912 246.442985 
L 248.75822 245.97884 
L 248.758761 245.981441 
L 248.787439 245.579082 
L 248.78798 245.585081 
L 248.790144 245.592015 
L 249.029847 241.222627 
L 249.030388 241.224222 
L 249.042833 240.939826 
L 249.317167 233.615985 
L 249.368029 231.797063 
L 249.562281 219.433893 
L 249.666711 190.163947 
L 249.69593 55.604939 
L 249.788457 178.282632 
L 250.015715 245.230263 
L 250.016256 245.226689 
L 250.097961 246.516003 
L 250.139625 246.279957 
L 250.142871 246.285895 
L 250.864687 227.83579 
L 251.065431 200.142981 
L 251.096273 134.516011 
L 251.108719 55.566269 
L 251.202327 179.053075 
L 251.432291 245.404217 
L 251.514537 246.595576 
L 251.572975 246.177149 
L 251.57568 246.186274 
L 252.084847 235.778895 
L 252.480925 203.543944 
L 252.517719 149.390481 
L 252.532329 55.527189 
L 252.624314 178.385914 
L 252.842374 244.992829 
L 252.842915 244.97511 
L 252.943017 246.608379 
L 252.970612 246.444533 
L 253.568518 233.801168 
L 253.808221 220.640176 
L 253.915357 197.263955 
L 253.943494 109.260842 
L 253.953775 55.664497 
L 254.047924 179.353339 
L 254.277888 245.352482 
L 254.357969 246.521493 
L 254.412079 246.181829 
L 254.41262 246.1917 
L 254.477009 245.346056 
L 254.477551 245.36198 
L 254.478633 245.368544 
L 255.07762 229.86031 
L 255.318406 200.145058 
L 255.35033 123.705715 
L 255.361693 55.621355 
L 255.455843 179.329115 
L 255.683101 245.295089 
L 255.775628 246.472099 
L 255.812422 246.177867 
L 255.813504 246.180454 
L 256.467683 230.571614 
L 256.680873 212.873571 
L 256.747427 175.177728 
L 256.767988 55.602441 
L 256.857809 176.996633 
L 257.081821 245.022174 
L 257.161361 246.52422 
L 257.263628 245.658562 
L 257.411345 243.272677 
L 257.411887 243.280077 
L 257.41838 243.174446 
L 257.888047 230.285772 
L 258.110976 209.525994 
L 258.165085 162.774441 
L 258.181859 55.508995 
L 258.272762 177.680733 
L 258.502185 245.380186 
L 258.578479 246.655013 
L 258.627718 246.388104 
L 258.908003 241.698016 
L 258.6288 246.400414 
L 258.908544 241.700653 
L 259.061132 238.240665 
L 259.254301 232.400655 
L 259.306787 230.307886 
L 259.518353 212.267769 
L 259.583284 170.245452 
L 259.601681 55.588582 
L 259.692044 177.041847 
L 259.914432 244.915408 
L 260.010205 246.571204 
L 260.100026 245.766201 
L 260.612439 234.489766 
L 260.873786 220.409786 
L 260.987415 189.763094 
L 261.016634 55.592877 
L 261.10862 178.179876 
L 261.328844 244.954792 
L 261.406761 246.571433 
L 261.494959 245.949069 
L 261.700032 242.405948 
L 261.832599 239.574976 
L 262.26926 221.57492 
L 262.383971 198.43909 
L 262.413731 111.872657 
L 262.424012 55.558002 
L 262.518703 179.72032 
L 262.749207 245.500416 
L 262.822255 246.623832 
L 262.878528 246.296643 
L 263.576535 228.95579 
L 263.782691 206.797731 
L 263.82706 161.133153 
L 263.843293 55.565623 
L 263.934737 177.791429 
L 264.162537 245.2883 
L 264.23342 246.58698 
L 264.291316 246.390722 
L 265.040186 226.149945 
L 265.204137 204.125128 
L 265.242013 151.95701 
L 265.256623 55.56295 
L 265.349149 178.409529 
L 265.576948 245.295802 
L 265.653783 246.641935 
L 265.710598 246.287142 
L 266.062307 239.939743 
L 266.313914 232.741906 
L 266.338804 231.775567 
L 266.592576 210.469418 
L 266.645062 180.306362 
L 266.667788 55.637063 
L 266.757609 176.907344 
L 266.987031 245.15174 
L 267.074147 246.456635 
L 267.148817 245.857009 
L 267.509725 238.84729 
L 267.550848 237.884106 
L 267.925824 221.185773 
L 268.020515 205.482272 
L 268.06272 148.29516 
L 268.076788 55.529883 
L 268.169315 178.470595 
L 268.399279 245.393732 
L 268.475572 246.634445 
L 268.553489 246.036252 
L 268.554572 246.039165 
L 269.310476 223.622191 
L 269.451159 197.489486 
L 269.479296 112.704784 
L 269.489577 55.51637 
L 269.584268 179.724351 
L 269.807738 245.300486 
L 269.890525 246.67594 
L 269.938141 246.434225 
L 270.668614 227.422863 
L 270.856372 203.038174 
L 270.892084 147.792239 
L 270.906153 55.560433 
L 270.998679 178.469618 
L 271.230266 245.420463 
L 271.301149 246.555519 
L 271.37095 246.070426 
L 271.80761 237.412611 
L 271.808151 237.421713 
L 272.026211 229.909172 
L 272.124148 224.205944 
L 272.235613 210.625388 
L 272.290804 175.388596 
L 272.311366 55.577004 
L 272.401187 177.012201 
L 272.623034 244.917725 
L 272.623575 244.905059 
L 272.674979 246.280317 
L 272.709609 246.500744 
L 272.775622 246.043075 
L 272.776163 246.050131 
L 273.358377 232.808021 
L 273.358918 232.810162 
L 273.637039 210.755482 
L 273.69223 177.0154 
L 273.713332 55.601647 
L 273.803153 176.870782 
L 274.019049 244.561351 
L 274.109411 246.537913 
L 274.168931 246.173904 
L 274.169472 246.174107 
L 274.180294 246.061543 
L 274.378874 242.716529 
L 274.399436 242.281583 
L 274.555811 238.928477 
L 274.556352 238.931878 
L 274.618577 237.401566 
L 275.057402 207.617789 
L 275.104477 162.027266 
L 275.121251 55.598895 
L 275.212154 177.61127 
L 275.4432 245.305863 
L 275.520035 246.595756 
L 275.575767 246.225661 
L 275.576308 246.229538 
L 275.61689 245.736443 
L 275.617431 245.740278 
L 275.787334 242.751117 
L 275.787875 242.765379 
L 275.849559 241.497547 
L 275.8501 241.513805 
L 276.014592 237.643872 
L 276.015133 237.656243 
L 276.065996 236.280959 
L 276.067078 236.289942 
L 276.173673 232.783009 
L 276.491834 196.644 
L 276.51943 103.345415 
L 276.529169 55.555553 
L 276.623319 179.521087 
L 276.835968 244.741283 
L 276.927953 246.561577 
L 276.998295 246.053882 
L 277.235834 242.033955 
L 277.715241 226.835292 
L 277.872698 209.216252 
L 277.924102 168.996996 
L 277.942499 55.627437 
L 278.032861 177.182632 
L 278.254708 244.971025 
L 278.255249 244.960184 
L 278.340201 246.609621 
L 278.397556 246.291619 
L 278.572329 243.499873 
L 278.683793 241.30925 
L 279.245987 217.13565 
L 279.33202 188.826128 
L 279.360157 55.541623 
L 279.451601 177.837147 
L 279.675613 245.035423 
L 279.686976 245.484194 
L 279.750284 246.468009 
L 279.811968 246.155964 
L 279.997021 243.269489 
L 280.176122 239.602865 
L 280.176663 239.603344 
L 280.183156 239.470344 
L 280.183697 239.469828 
L 280.47264 230.599637 
L 280.689076 212.657959 
L 280.751302 181.682279 
L 280.774569 55.492067 
L 280.86439 176.980397 
L 281.082991 244.836508 
L 281.180387 246.629912 
L 281.215017 246.463578 
L 281.366522 244.309544 
L 281.506124 241.616757 
L 281.506665 241.632801 
L 281.685225 237.519584 
L 281.725265 236.470543 
L 282.147857 202.905025 
L 282.183569 145.360444 
L 282.197638 55.622152 
L 282.290164 178.576529 
L 282.514717 245.15492 
L 282.606703 246.578957 
L 282.65486 246.288158 
L 282.82368 243.69406 
L 282.824221 243.720869 
L 282.870755 242.805612 
L 282.871296 242.806122 
L 283.065007 238.51731 
L 283.27982 231.909002 
L 283.534673 211.032549 
L 283.59257 173.340617 
L 283.612049 55.571717 
L 283.701871 176.800335 
L 283.930752 245.244267 
L 284.000012 246.57451 
L 284.062237 246.312843 
L 284.062778 246.318779 
L 284.114182 245.671339 
L 284.449117 239.239811 
L 284.643369 233.890213 
L 284.656896 233.416251 
L 284.954496 210.492706 
L 285.008605 177.174152 
L 285.029708 55.640276 
L 285.119529 176.782424 
L 285.339212 244.690246 
L 285.438231 246.460917 
L 285.512361 245.792694 
L 285.514525 245.813072 
L 285.989062 235.756793 
L 286.364579 209.74189 
L 286.418688 167.730829 
L 286.436544 55.763418 
L 286.526906 176.85313 
L 286.745507 244.382292 
L 286.834787 246.271659 
L 286.875369 246.115622 
L 286.87591 246.122895 
L 286.931101 245.44638 
L 286.93543 245.448358 
L 287.101004 242.539927 
L 287.101545 242.542761 
L 287.122647 242.074453 
L 287.474356 232.798933 
L 287.77358 205.456727 
L 287.815244 152.960441 
L 287.830394 55.625597 
L 287.92238 178.210751 
L 288.152343 245.236144 
L 288.241082 246.514161 
L 288.304931 246.003403 
L 288.995363 228.151319 
L 289.144163 215.238402 
L 289.22208 182.16154 
L 289.245888 55.81475 
L 289.335709 176.621097 
L 289.560803 244.721057 
L 289.640343 246.270244 
L 289.702569 245.945845 
L 289.854615 243.625948 
L 290.059689 239.258257 
L 290.060771 239.258965 
L 290.475788 222.209594 
L 290.594287 200.577813 
L 290.626211 132.119005 
L 290.638656 55.498697 
L 290.732265 179.29929 
L 290.947619 244.940801 
L 290.956276 245.346277 
L 291.046097 246.695887 
L 291.078563 246.527333 
L 291.87072 224.247668 
L 292.018438 198.381508 
L 292.048198 111.566822 
L 292.058479 55.621372 
L 292.153169 179.6022 
L 292.376099 245.106356 
L 292.463215 246.544932 
L 292.523276 246.085662 
L 292.524358 246.08722 
L 292.619049 244.602925 
L 293.223988 227.283195 
L 293.384692 210.243496 
L 293.440425 168.624413 
L 293.458822 55.607637 
L 293.549184 177.281177 
L 293.772113 245.011379 
L 293.804038 246.016913 
L 293.848407 246.557744 
L 293.918208 246.151122 
L 294.143843 242.346657 
L 293.919831 246.156457 
L 294.144925 242.349938 
L 294.262883 239.796857 
L 294.423046 235.59896 
L 294.520983 232.226374 
L 294.814255 201.615293 
L 294.848343 132.474051 
L 294.860788 55.523756 
L 294.954397 179.292972 
L 295.177327 245.181427 
L 295.256867 246.584295 
L 295.310976 246.292763 
L 295.987881 230.048513 
L 296.203776 209.992191 
L 296.257885 170.714167 
L 296.276823 55.586689 
L 296.366644 176.897489 
L 296.58254 244.525061 
L 296.680477 246.471486 
L 296.732963 246.103241 
L 296.733504 246.105801 
L 296.764346 245.716016 
L 296.764887 245.720344 
L 296.981865 241.840219 
L 296.982947 241.840126 
L 296.987276 241.738331 
L 296.987817 241.738254 
L 297.320047 232.883689 
L 297.644701 193.219207 
L 297.670673 75.459653 
L 297.677708 55.650442 
L 297.766988 176.637018 
L 297.994246 245.029567 
L 298.079197 246.477911 
L 298.155491 245.897256 
L 298.907607 223.705914 
L 299.026106 206.941146 
L 299.070476 163.373028 
L 299.087249 55.57384 
L 299.178153 177.513219 
L 299.400541 244.990268 
L 299.48928 246.593795 
L 299.585053 245.712479 
L 299.756038 242.758579 
L 299.758202 242.772805 
L 299.758743 242.777217 
L 299.790127 242.126605 
L 300.313903 223.792809 
L 300.409135 212.654256 
L 300.472983 177.994526 
L 300.494627 55.390741 
L 300.583907 176.878435 
L 300.803049 245.062928 
L 300.892329 246.766794 
L 300.964294 246.270656 
L 301.315462 239.716197 
L 301.316003 239.740405 
L 301.386886 237.965312 
L 301.387427 237.968071 
L 301.8203 213.360185 
L 301.886854 180.537051 
L 301.90958 55.405114 
L 301.999401 177.094667 
L 302.228823 245.364281 
L 302.308364 246.693799 
L 302.359767 246.414122 
L 302.360308 246.414908 
L 302.374377 246.248207 
L 302.374918 246.257569 
L 302.60434 242.369031 
L 302.721757 239.998395 
L 302.951721 233.636632 
L 302.972282 232.954575 
L 303.290985 198.894901 
L 303.321286 115.085229 
L 303.332108 55.61282 
L 303.426257 179.504397 
L 303.659468 245.53934 
L 303.742796 246.590186 
L 303.792576 246.243785 
L 303.81422 245.983486 
L 303.981958 243.126467 
L 303.982499 243.130874 
L 303.983581 243.132802 
L 303.999814 242.77794 
L 304.33529 234.71691 
L 304.574452 223.024373 
L 304.70702 197.835325 
L 304.735697 112.374685 
L 304.745978 55.635763 
L 304.840669 179.534728 
L 305.065222 245.178843 
L 305.14368 246.583442 
L 305.204823 246.22747 
L 305.894173 228.622141 
L 306.050548 215.464034 
L 306.127383 185.348222 
L 306.152815 55.587904 
L 306.243718 177.464389 
L 306.465024 244.964257 
L 306.557009 246.597514 
L 306.60679 246.311778 
L 306.867596 241.977651 
L 307.159244 234.68495 
L 307.508788 206.332179 
L 307.552076 158.463917 
L 307.567767 55.46677 
L 307.659212 177.889859 
L 307.88647 245.330372 
L 307.964928 246.684476 
L 308.026612 246.342691 
L 308.689449 230.48405 
L 308.855564 219.223185 
L 308.945926 199.078424 
L 308.975686 125.103575 
L 308.987049 55.501609 
L 309.08174 179.707167 
L 309.304669 245.21602 
L 309.390161 246.648303 
L 309.435072 246.411771 
L 309.804637 239.664313 
L 309.805178 239.672952 
L 310.328413 209.907288 
L 310.380899 174.168559 
L 310.400919 55.491906 
L 310.49074 176.952515 
L 310.712047 244.968844 
L 310.80782 246.606353 
L 310.87762 245.997565 
L 310.878703 246.010788 
L 311.082694 242.510414 
L 311.083235 242.512481 
L 311.099468 242.1477 
L 311.273699 238.118048 
L 311.27424 238.118292 
L 311.278569 238.002038 
L 311.726592 211.681284 
L 311.787735 172.885546 
L 311.807215 55.611073 
L 311.897036 176.792499 
L 312.132951 245.397673 
L 312.204375 246.44568 
L 312.291491 245.803291 
L 312.492236 242.426605 
L 312.293114 245.809667 
L 312.492777 242.427047 
L 312.97543 227.543492 
L 313.147497 208.747582 
L 313.197818 165.878094 
L 313.215133 55.566621 
L 313.306036 177.490826 
L 313.529507 245.080177 
L 313.618787 246.632391 
L 313.705903 245.858424 
L 313.856326 243.277948 
L 313.856867 243.285856 
L 313.906106 242.403354 
L 314.222103 234.49032 
L 314.226432 234.358622 
L 314.592751 195.448497 
L 314.619264 96.021429 
L 314.628463 55.574481 
L 314.722071 179.311315 
L 314.948247 245.308388 
L 315.032657 246.603826 
L 315.069993 246.379951 
L 315.166848 245.115581 
L 315.650583 233.803643 
L 315.94656 212.8602 
L 316.010409 180.920451 
L 316.033135 55.563592 
L 316.122956 176.781329 
L 316.346426 245.043893 
L 316.434624 246.649779 
L 316.476829 246.402425 
L 316.782545 241.266673 
L 317.251671 224.943241 
L 317.404259 200.750977 
L 317.436724 131.336476 
L 317.449169 55.634668 
L 317.542778 179.165913 
L 317.767872 245.167754 
L 317.854447 246.601945 
L 317.929117 245.974263 
L 318.092527 243.128262 
L 318.093068 243.133892 
L 318.413935 235.723051 
L 318.722897 219.444745 
L 318.821376 195.193279 
L 318.847348 98.452644 
L 318.856547 55.543399 
L 318.950697 179.434211 
L 319.179578 245.451517 
L 319.246673 246.632229 
L 319.302947 246.341519 
L 319.304029 246.346437 
L 319.324591 246.131493 
L 319.492329 243.325692 
L 319.49287 243.334821 
L 319.543732 242.335647 
L 320.067508 224.783396 
L 320.214685 202.268855 
L 320.249315 141.018845 
L 320.262842 55.495104 
L 320.35591 179.137847 
L 320.582627 245.368032 
L 320.664332 246.685103 
L 320.713571 246.415637 
L 320.855878 244.33364 
L 320.856419 244.338765 
L 321.021993 240.999906 
L 321.022534 241.000287 
L 321.028486 240.877725 
L 321.594467 211.759601 
L 321.656151 172.639112 
L 321.675631 55.603717 
L 321.765452 176.878165 
L 321.988922 244.97124 
L 322.074956 246.524716 
L 322.117161 246.28306 
L 322.25081 244.42901 
L 322.66258 235.170123 
L 323.007255 211.72981 
L 323.067857 175.521359 
L 323.088419 55.609176 
L 323.17824 176.861489 
L 323.40658 245.116368 
L 323.487744 246.505169 
L 323.547264 246.105139 
L 323.653859 244.590144 
L 323.830796 241.08162 
L 324.030999 236.221581 
L 324.406516 212.743363 
L 324.470906 178.382849 
L 324.49255 55.472166 
L 324.582371 177.037212 
L 324.802595 244.90175 
L 324.896204 246.659924 
L 324.936244 246.426202 
L 325.515753 234.171781 
L 325.687279 226.523463 
L 325.822551 212.820528 
L 325.886941 179.746874 
L 325.909126 55.674832 
L 325.998947 176.687947 
L 326.228911 245.225946 
L 326.327389 246.504931 
L 326.360396 246.22588 
L 326.360937 246.231026 
L 326.409635 245.633604 
L 326.448593 245.073993 
L 327.147142 223.125342 
L 327.28512 195.068794 
L 327.311633 90.981518 
L 327.320291 55.573119 
L 327.413359 178.922498 
L 327.638452 245.241397 
L 327.729897 246.648986 
L 327.781841 246.230205 
L 327.784547 246.23378 
L 327.933347 243.851485 
L 328.150324 239.36492 
L 328.179002 238.673005 
L 328.611334 218.596196 
L 328.696285 198.943031 
L 328.726586 115.806839 
L 328.737408 55.564068 
L 328.832099 179.7743 
L 329.051782 245.05698 
L 329.132404 246.517755 
L 329.19463 246.165762 
L 329.728687 234.885026 
L 329.891014 228.362439 
L 330.074985 209.566376 
L 330.127471 169.513761 
L 330.145868 55.542251 
L 330.23623 177.262154 
L 330.466193 245.373313 
L 330.546275 246.639297 
L 330.614993 246.191186 
L 330.752431 244.016559 
L 330.752972 244.021419 
L 330.789766 243.356417 
L 330.982394 239.390821 
L 330.983476 239.392368 
L 331.360617 225.573809 
L 331.523485 200.227805 
L 331.554868 130.645494 
L 331.567313 55.491093 
L 331.660922 179.391458 
L 331.888721 245.493934 
L 331.966097 246.699764 
L 332.049425 246.065387 
L 332.276143 242.087876 
L 332.276684 242.08864 
L 332.277225 242.10587 
L 332.342156 240.64197 
L 332.399511 239.337591 
L 332.400052 239.347556 
L 332.908137 209.506757 
L 332.960081 170.800989 
L 332.97902 55.507769 
L 333.068841 177.037712 
L 333.308003 245.644683 
L 333.370769 246.614826 
L 333.429748 246.303994 
L 333.870737 237.947356 
L 334.320384 210.690738 
L 334.375034 177.619023 
L 334.396678 55.534461 
L 334.485958 176.844906 
L 334.721873 245.553065 
L 334.791674 246.636829 
L 334.845242 246.339152 
L 334.846865 246.348027 
L 335.47399 232.041704 
L 335.650927 221.897083 
L 335.759686 203.064626 
L 335.79648 139.081504 
L 335.809466 55.512575 
L 335.903075 179.145181 
L 336.127087 245.261221 
L 336.127628 245.251813 
L 336.171997 246.392976 
L 336.172538 246.384732 
L 336.209332 246.640254 
L 336.274263 246.157154 
L 336.77369 235.942888 
L 336.774231 235.948114 
L 337.169228 204.984059 
L 337.209268 154.361009 
L 337.224419 55.639093 
L 337.316404 178.060908 
L 337.543663 245.207784 
L 337.624826 246.548685 
L 337.711942 245.814361 
L 338.103151 237.999595 
L 338.103692 238.005922 
L 338.104233 238.013305 
L 338.141027 237.01106 
L 338.479209 221.277065 
L 338.59879 192.590845 
L 338.624762 70.164352 
L 338.630714 55.502184 
L 338.716748 174.689599 
L 338.946711 245.228179 
L 339.030039 246.630514 
L 339.07495 246.38197 
L 339.810292 227.560125 
L 339.949894 215.166653 
L 340.025105 185.290691 
L 340.050537 55.62947 
L 340.14144 177.320522 
L 340.362205 244.747271 
L 340.436335 246.48424 
L 340.506135 246.139185 
L 340.506676 246.144099 
L 340.550505 245.528959 
L 340.621929 244.401474 
L 340.852975 239.726336 
L 340.957405 237.200048 
L 341.30695 220.647406 
L 341.426531 185.010418 
L 341.451962 55.534718 
L 341.542324 177.29388 
L 341.769041 245.152081 
L 341.846959 246.531873 
L 341.899985 246.259421 
L 342.144559 242.132097 
L 341.90215 246.287122 
L 342.145641 242.136134 
L 342.197585 240.989351 
L 342.508172 232.408371 
L 342.567692 229.833858 
L 342.787375 207.685753 
L 342.834991 159.441369 
L 342.851223 55.457209 
L 342.942127 177.84817 
L 343.165597 245.258288 
L 343.259206 246.722866 
L 343.30087 246.420807 
L 343.303034 246.426148 
L 343.435601 244.453522 
L 343.582778 241.69503 
L 343.883084 234.00327 
L 344.177437 214.776781 
L 344.238039 196.828065 
L 344.265635 106.593524 
L 344.275375 55.55165 
L 344.370065 179.609335 
L 344.5957 245.281579 
L 344.681193 246.597287 
L 344.760192 245.877068 
L 344.946868 242.645965 
L 344.947409 242.646989 
L 344.95769 242.437105 
L 345.22553 236.184731 
L 345.282345 234.442833 
L 345.618903 208.837278 
L 345.669225 167.13279 
L 345.687081 55.481064 
L 345.777443 177.402801 
L 346.005242 245.394508 
L 346.075584 246.761609 
L 346.148631 246.310534 
L 346.234124 245.157717 
L 346.423505 241.695768 
L 346.878563 226.836252 
L 347.000308 215.770032 
L 347.072815 192.340928 
L 347.099869 63.229569 
L 347.104198 55.449565 
L 347.181574 169.252918 
L 347.407209 244.686214 
L 347.49703 246.744037 
L 347.550598 246.436851 
L 347.73998 243.485352 
L 347.740521 243.486257 
L 347.749719 243.292732 
L 347.75026 243.305232 
L 347.950464 239.070846 
L 348.022429 237.253365 
L 348.318947 225.121281 
L 348.445021 210.080139 
L 348.500753 165.997811 
L 348.518068 55.547717 
L 348.608972 177.530613 
L 348.835689 245.275375 
L 348.912524 246.721285 
L 348.976372 246.348544 
L 349.48608 235.913808 
L 349.874583 205.87191 
L 349.916247 159.411812 
L 349.93248 55.514555 
L 350.023383 177.732953 
L 350.2501 245.236163 
L 350.330723 246.6294 
L 350.382127 246.362846 
L 350.384291 246.367586 
L 350.394031 246.229976 
L 351.116387 227.062739 
L 351.292783 204.858762 
L 351.332282 155.38055 
L 351.347433 55.608029 
L 351.439418 178.083717 
L 351.66343 245.098101 
L 351.746758 246.573075 
L 351.790586 246.369038 
L 352.057344 241.858865 
L 352.058426 241.867054 
L 352.08007 241.379681 
L 352.284061 236.448579 
L 352.284602 236.450167 
L 352.285143 236.451605 
L 352.294342 236.162684 
L 352.549196 225.423223 
L 352.696913 205.293679 
L 352.738577 149.145279 
L 352.753187 55.598821 
L 352.845172 178.269912 
L 353.068643 244.979227 
L 353.069184 244.97813 
L 353.074595 245.214176 
L 353.155217 246.467342 
L 353.20121 246.203621 
L 353.802362 232.628745 
L 354.083729 209.075141 
L 354.135674 164.631688 
L 354.152989 55.634446 
L 354.243351 177.158248 
L 354.463034 244.685156 
L 354.553396 246.452526 
L 354.618327 246.065707 
L 354.876428 241.471858 
L 354.876969 241.472077 
L 354.88238 241.357734 
L 355.123165 235.409075 
L 355.355293 225.318298 
L 355.478121 211.621581 
L 355.536017 179.936965 
L 355.558202 55.568341 
L 355.648023 176.759438 
L 355.877987 245.260174 
L 355.967267 246.499516 
L 356.007849 246.183056 
L 356.00839 246.194757 
L 356.079814 245.358952 
L 356.080355 245.363265 
L 356.765376 225.168046 
L 356.903354 207.364199 
L 356.949347 162.587817 
L 356.966121 55.550979 
L 357.057024 177.642287 
L 357.286447 245.410875 
L 357.361117 246.699583 
L 357.413603 246.403636 
L 357.415767 246.433347 
L 357.484486 245.477239 
L 357.485027 245.481119 
L 358.212794 222.780053 
L 358.307485 210.296523 
L 358.361594 174.450499 
L 358.381615 55.543183 
L 358.471436 176.948814 
L 358.69166 244.833104 
L 358.771741 246.616964 
L 358.831261 246.284844 
L 359.46055 231.817203 
L 359.649932 220.178994 
L 359.75815 193.030404 
L 359.784122 74.14018 
L 359.790615 55.666744 
L 359.879354 176.078782 
L 360.119599 245.404435 
L 360.12014 245.403027 
L 360.129338 245.665719 
L 360.193728 246.468509 
L 360.250543 246.1537 
L 360.640669 238.494174 
L 360.64121 238.496172 
L 360.654737 238.138085 
L 361.095185 213.990958 
L 361.164986 181.468764 
L 361.188253 55.529493 
L 361.278074 176.999393 
L 361.497757 244.896945 
L 361.581626 246.617155 
L 361.638982 246.373107 
L 361.790487 244.106596 
L 361.791028 244.106855 
L 361.792111 244.115461 
L 362.316428 230.158581 
L 362.535028 209.687731 
L 362.586973 174.027806 
L 362.606993 55.715029 
L 362.696815 176.750824 
L 362.921908 244.861111 
L 363.002531 246.470905 
L 363.073955 245.998408 
L 363.236823 243.369635 
L 363.237364 243.372553 
L 363.261713 242.901994 
L 363.6816 231.837326 
L 363.957015 204.909822 
L 363.996515 155.471689 
L 364.011665 55.50196 
L 364.103651 178.192584 
L 364.32658 245.187182 
L 364.415319 246.695889 
L 364.456983 246.430399 
L 364.457524 246.433309 
L 364.492695 246.014665 
L 364.494319 246.037079 
L 364.793542 240.502716 
L 364.794083 240.511433 
L 364.917993 237.548108 
L 364.919075 237.55397 
L 365.109539 231.26779 
L 365.186915 227.429824 
L 365.37792 201.427108 
L 365.411468 133.685222 
L 365.423913 55.545633 
L 365.517521 179.107237 
L 365.731252 244.72987 
L 365.821615 246.616852 
L 365.870854 246.368597 
L 366.084585 242.937144 
L 366.086208 242.937288 
L 366.086749 242.945463 
L 366.132742 241.966686 
L 366.309679 238.049209 
L 366.417897 234.965 
L 366.724154 216.999739 
L 366.8064 191.866538 
L 366.832372 66.277282 
L 366.837783 55.68947 
L 366.919488 171.968348 
L 367.146205 244.669927 
L 367.224122 246.379477 
L 367.305286 245.947862 
L 367.504948 242.574191 
L 367.505489 242.581365 
L 367.549859 241.695939 
L 367.730042 237.527432 
L 367.730583 237.53605 
L 367.770083 236.433089 
L 368.183476 204.305399 
L 368.221894 151.87239 
L 368.236503 55.535945 
L 368.32903 178.399019 
L 368.5525 245.126949 
L 368.637993 246.547159 
L 368.683985 246.298308 
L 369.371171 229.605715 
L 369.525382 218.40383 
L 369.614121 195.393809 
L 369.641175 89.468 
L 369.649292 55.498069 
L 369.7429 179.061449 
L 369.969076 245.390605 
L 370.045911 246.714336 
L 370.120041 246.180889 
L 370.671953 234.450055 
L 371.044765 191.239936 
L 371.075607 55.581422 
L 371.168134 178.622069 
L 371.39431 245.209019 
L 371.472227 246.49008 
L 371.530665 246.129087 
L 371.615616 245.022117 
L 372.243281 227.556332 
L 372.44078 199.670238 
L 372.471622 125.51219 
L 372.482985 55.617335 
L 372.577676 179.607574 
L 372.795194 244.909831 
L 372.87744 246.566951 
L 372.928303 246.277769 
L 372.931549 246.281796 
L 373.100369 243.659709 
L 373.692323 225.112406 
L 373.850863 198.883888 
L 373.880623 120.806927 
L 373.891985 55.517358 
L 373.986135 179.645487 
L 374.209065 245.284812 
L 374.290228 246.656143 
L 374.34542 246.392505 
L 374.349207 246.408357 
L 374.386543 245.970026 
L 374.579171 242.602272 
L 374.83186 236.81138 
L 375.199261 217.572677 
L 375.289082 188.482229 
L 375.317219 55.602031 
L 375.408663 177.883126 
L 375.639709 245.295457 
L 375.64025 245.294672 
L 375.64512 245.468039 
L 375.72466 246.482632 
L 375.778228 246.080032 
L 376.020096 241.9498 
L 376.020637 241.960808 
L 376.075828 240.824518 
L 376.26034 236.231448 
L 376.335552 233.928572 
L 376.689967 192.898665 
L 376.715398 76.521698 
L 376.722432 55.522917 
L 376.812253 177.099332 
L 377.039511 245.330169 
L 377.117969 246.656278 
L 377.177489 246.377444 
L 377.716957 235.178321 
L 378.088145 203.662006 
L 378.12494 151.677903 
L 378.139549 55.616013 
L 378.232076 178.36767 
L 378.459875 245.242371 
L 378.530758 246.487595 
L 378.594065 246.178791 
L 378.595148 246.196357 
L 378.664407 245.234267 
L 378.666031 245.23764 
L 379.381353 222.679116 
L 379.510673 197.279004 
L 379.53881 108.628966 
L 379.549091 55.600162 
L 379.643241 179.422299 
L 379.863465 244.960294 
L 379.946252 246.585132 
L 380.004689 246.198972 
L 380.007395 246.201369 
L 380.290385 241.373923 
L 380.525219 235.511473 
L 380.62478 232.127366 
L 380.890996 209.120794 
L 380.941318 170.932532 
L 380.960256 55.475466 
L 381.050077 177.054709 
L 381.277335 245.333442 
L 381.277876 245.332691 
L 381.282205 245.505429 
L 381.353629 246.747797 
L 381.423971 246.340625 
L 381.650688 242.624957 
L 381.653393 242.63431 
L 381.66638 242.359787 
L 381.817344 238.986465 
L 382.19719 224.338035 
L 382.342743 200.043462 
L 382.374127 127.400401 
L 382.386031 55.624945 
L 382.48018 179.374232 
L 382.692288 244.540339 
L 382.773993 246.419171 
L 382.827561 246.252608 
L 383.031011 243.071044 
L 383.161955 240.400438 
L 383.391377 234.334672 
L 383.523404 228.947128 
L 383.720902 208.192742 
L 383.767977 169.767958 
L 383.786374 55.401213 
L 383.876736 177.373377 
L 384.097501 245.117375 
L 384.185699 246.760305 
L 384.258746 246.246678 
L 384.516847 241.537766 
L 385.010863 224.155885 
L 385.116916 211.436565 
L 385.175895 176.350869 
L 385.196457 55.646318 
L 385.286278 176.647345 
L 385.508666 244.819066 
L 385.509207 244.817836 
L 385.590912 246.460698 
L 385.641233 246.207039 
L 385.913402 241.775225 
L 386.101702 237.390066 
L 386.102243 237.391781 
L 386.114688 237.061889 
L 386.49778 216.342281 
L 386.574074 193.024468 
L 386.599505 77.408235 
L 386.60654 55.54378 
L 386.696902 177.278559 
L 386.923078 245.163388 
L 387.017228 246.658208 
L 387.075124 246.177324 
L 387.272623 242.901294 
L 387.320239 241.908421 
L 387.32078 241.911752 
L 387.487977 238.100277 
L 387.854836 222.283449 
L 387.973876 200.71247 
L 388.005801 134.570465 
L 388.018246 55.562544 
L 388.111855 179.072072 
L 388.340736 245.361848 
L 388.414865 246.584799 
L 388.463023 246.313442 
L 388.464646 246.324732 
L 388.48142 246.178317 
L 388.481961 246.191961 
L 388.624268 243.953313 
L 388.62535 243.960009 
L 389.003572 235.125956 
L 389.320652 216.492947 
L 389.387747 199.701863 
L 389.418048 131.159674 
L 389.430493 55.539488 
L 389.524102 179.32827 
L 389.750819 245.321342 
L 389.8309 246.569528 
L 389.875811 246.385353 
L 390.069521 243.375476 
L 390.070063 243.379496 
L 390.102528 242.789353 
L 390.389847 236.193282 
L 390.796748 204.403124 
L 390.834624 156.869862 
L 390.850316 55.503619 
L 390.94176 178.014407 
L 391.176052 245.637007 
L 391.244771 246.699359 
L 391.30375 246.333561 
L 391.304291 246.334056 
L 391.317818 246.199939 
L 392.093743 222.898751 
L 392.213324 203.508227 
L 392.250118 148.738844 
L 392.264186 55.561966 
L 392.356713 178.378955 
L 392.573149 244.764046 
L 392.651607 246.49064 
L 392.711668 246.24709 
L 392.867503 243.910117 
L 392.868044 243.920014 
L 392.922694 242.890475 
L 392.982214 241.773462 
L 393.162397 237.626131 
L 393.227869 235.789562 
L 393.413463 228.701347 
L 393.6299 200.663987 
L 393.661824 134.348497 
L 393.674269 55.557077 
L 393.767878 179.091699 
L 393.98702 245.075537 
L 394.07143 246.686718 
L 394.145018 246.19557 
L 394.1461 246.21002 
L 394.402036 241.740031 
L 394.568692 237.962731 
L 394.569233 237.963053 
L 394.574644 237.841355 
L 394.803526 230.195501 
L 394.947997 220.782572 
L 395.069743 184.073609 
L 395.094633 55.550139 
L 395.184995 177.24426 
L 395.412253 245.190996 
L 395.493417 246.549194 
L 395.551313 246.17921 
L 396.101603 234.258434 
L 396.45223 201.197221 
L 396.485236 135.088418 
L 396.497681 55.651062 
L 396.59129 178.895946 
L 396.815843 245.10748 
L 396.907287 246.475571 
L 396.960314 246.102001 
L 397.115066 243.559999 
L 397.477056 235.203526 
L 397.864477 197.923191 
L 397.893155 113.566762 
L 397.903436 55.42283 
L 397.998127 179.790929 
L 398.219433 245.348569 
L 398.293021 246.806128 
L 398.344425 246.609282 
L 398.487273 244.530122 
L 398.487273 244.530122 
" style="fill:none;stroke:#000000;stroke-linecap:square;stroke-width:1.5;"/>
   </g>
   <g id="patch_3">
    <path d="M 57.6 307.584 
L 57.6 41.472 
" style="fill:none;stroke:#000000;stroke-linecap:square;stroke-linejoin:miter;stroke-width:0.8;"/>
   </g>
   <g id="patch_4">
    <path d="M 414.72 307.584 
L 414.72 41.472 
" style="fill:none;stroke:#000000;stroke-linecap:square;stroke-linejoin:miter;stroke-width:0.8;"/>
   </g>
   <g id="patch_5">
    <path d="M 57.6 307.584 
L 414.72 307.584 
" style="fill:none;stroke:#000000;stroke-linecap:square;stroke-linejoin:miter;stroke-width:0.8;"/>
   </g>
   <g id="patch_6">
    <path d="M 57.6 41.472 
L 414.72 41.472 
" style="fill:none;stroke:#000000;stroke-linecap:square;stroke-linejoin:miter;stroke-width:0.8;"/>
   </g>
   <g id="text_15">
    <!-- ChIN_LTS -->
    <defs>
     <path d="M 64.40625 67.28125 
L 64.40625 56.890625 
Q 59.421875 61.53125 53.78125 63.8125 
Q 48.140625 66.109375 41.796875 66.109375 
Q 29.296875 66.109375 22.65625 58.46875 
Q 16.015625 50.828125 16.015625 36.375 
Q 16.015625 21.96875 22.65625 14.328125 
Q 29.296875 6.6875 41.796875 6.6875 
Q 48.140625 6.6875 53.78125 8.984375 
Q 59.421875 11.28125 64.40625 15.921875 
L 64.40625 5.609375 
Q 59.234375 2.09375 53.4375 0.328125 
Q 47.65625 -1.421875 41.21875 -1.421875 
Q 24.65625 -1.421875 15.125 8.703125 
Q 5.609375 18.84375 5.609375 36.375 
Q 5.609375 53.953125 15.125 64.078125 
Q 24.65625 74.21875 41.21875 74.21875 
Q 47.75 74.21875 53.53125 72.484375 
Q 59.328125 70.75 64.40625 67.28125 
z
" id="DejaVuSans-43"/>
     <path d="M 54.890625 33.015625 
L 54.890625 0 
L 45.90625 0 
L 45.90625 32.71875 
Q 45.90625 40.484375 42.875 44.328125 
Q 39.84375 48.1875 33.796875 48.1875 
Q 26.515625 48.1875 22.3125 43.546875 
Q 18.109375 38.921875 18.109375 30.90625 
L 18.109375 0 
L 9.078125 0 
L 9.078125 75.984375 
L 18.109375 75.984375 
L 18.109375 46.1875 
Q 21.34375 51.125 25.703125 53.5625 
Q 30.078125 56 35.796875 56 
Q 45.21875 56 50.046875 50.171875 
Q 54.890625 44.34375 54.890625 33.015625 
z
" id="DejaVuSans-68"/>
     <path d="M 9.8125 72.90625 
L 19.671875 72.90625 
L 19.671875 0 
L 9.8125 0 
z
" id="DejaVuSans-49"/>
     <path d="M 9.8125 72.90625 
L 23.09375 72.90625 
L 55.421875 11.921875 
L 55.421875 72.90625 
L 64.984375 72.90625 
L 64.984375 0 
L 51.703125 0 
L 19.390625 60.984375 
L 19.390625 0 
L 9.8125 0 
z
" id="DejaVuSans-4e"/>
     <path d="M 50.984375 -16.609375 
L 50.984375 -23.578125 
L -0.984375 -23.578125 
L -0.984375 -16.609375 
z
" id="DejaVuSans-5f"/>
     <path d="M 9.8125 72.90625 
L 19.671875 72.90625 
L 19.671875 8.296875 
L 55.171875 8.296875 
L 55.171875 0 
L 9.8125 0 
z
" id="DejaVuSans-4c"/>
     <path d="M -0.296875 72.90625 
L 61.375 72.90625 
L 61.375 64.59375 
L 35.5 64.59375 
L 35.5 0 
L 25.59375 0 
L 25.59375 64.59375 
L -0.296875 64.59375 
z
" id="DejaVuSans-54"/>
     <path d="M 53.515625 70.515625 
L 53.515625 60.890625 
Q 47.90625 63.578125 42.921875 64.890625 
Q 37.9375 66.21875 33.296875 66.21875 
Q 25.25 66.21875 20.875 63.09375 
Q 16.5 59.96875 16.5 54.203125 
Q 16.5 49.359375 19.40625 46.890625 
Q 22.3125 44.4375 30.421875 42.921875 
L 36.375 41.703125 
Q 47.40625 39.59375 52.65625 34.296875 
Q 57.90625 29 57.90625 20.125 
Q 57.90625 9.515625 50.796875 4.046875 
Q 43.703125 -1.421875 29.984375 -1.421875 
Q 24.8125 -1.421875 18.96875 -0.25 
Q 13.140625 0.921875 6.890625 3.21875 
L 6.890625 13.375 
Q 12.890625 10.015625 18.65625 8.296875 
Q 24.421875 6.59375 29.984375 6.59375 
Q 38.421875 6.59375 43.015625 9.90625 
Q 47.609375 13.234375 47.609375 19.390625 
Q 47.609375 24.75 44.3125 27.78125 
Q 41.015625 30.8125 33.5 32.328125 
L 27.484375 33.5 
Q 16.453125 35.6875 11.515625 40.375 
Q 6.59375 45.0625 6.59375 53.421875 
Q 6.59375 63.09375 13.40625 68.65625 
Q 20.21875 74.21875 32.171875 74.21875 
Q 37.3125 74.21875 42.625 73.28125 
Q 47.953125 72.359375 53.515625 70.515625 
z
" id="DejaVuSans-53"/>
    </defs>
    <g transform="translate(208.104375 35.472)scale(0.12 -0.12)">
     <use xlink:href="#DejaVuSans-43"/>
     <use x="69.824219" xlink:href="#DejaVuSans-68"/>
     <use x="133.203125" xlink:href="#DejaVuSans-49"/>
     <use x="162.695312" xlink:href="#DejaVuSans-4e"/>
     <use x="237.5" xlink:href="#DejaVuSans-5f"/>
     <use x="287.5" xlink:href="#DejaVuSans-4c"/>
     <use x="343.009766" xlink:href="#DejaVuSans-54"/>
     <use x="404.09375" xlink:href="#DejaVuSans-53"/>
    </g>
   </g>
   <g id="legend_1">
    <g id="patch_7">
     <path d="M 403.72 54.472 
L 407.72 54.472 
Q 409.72 54.472 409.72 52.472 
L 409.72 48.472 
Q 409.72 46.472 407.72 46.472 
L 403.72 46.472 
Q 401.72 46.472 401.72 48.472 
L 401.72 52.472 
Q 401.72 54.472 403.72 54.472 
z
" style="fill:#ffffff;opacity:0.8;stroke:#cccccc;stroke-linejoin:miter;"/>
    </g>
   </g>
  </g>
 </g>
 <defs>
  <clipPath id="p7fddea8e1a">
   <rect height="266.112" width="357.12" x="57.6" y="41.472"/>
  </clipPath>
 </defs>
</svg>
