<?xml version="1.0" encoding="utf-8" standalone="no"?>
<!DOCTYPE svg PUBLIC "-//W3C//DTD SVG 1.1//EN"
  "http://www.w3.org/Graphics/SVG/1.1/DTD/svg11.dtd">
<!-- Created with matplotlib (http://matplotlib.org/) -->
<svg height="345.6pt" version="1.1" viewBox="0 0 460.8 345.6" width="460.8pt" xmlns="http://www.w3.org/2000/svg" xmlns:xlink="http://www.w3.org/1999/xlink">
 <defs>
  <style type="text/css">
*{stroke-linecap:butt;stroke-linejoin:round;}
  </style>
 </defs>
 <g id="figure_1">
  <g id="patch_1">
   <path d="M 0 345.6 
L 460.8 345.6 
L 460.8 0 
L 0 0 
z
" style="fill:#ffffff;"/>
  </g>
  <g id="axes_1">
   <g id="patch_2">
    <path d="M 57.6 307.584 
L 414.72 307.584 
L 414.72 41.472 
L 57.6 41.472 
z
" style="fill:#ffffff;"/>
   </g>
   <g id="matplotlib.axis_1">
    <g id="xtick_1">
     <g id="line2d_1">
      <defs>
       <path d="M 0 0 
L 0 3.5 
" id="md683f4f0a4" style="stroke:#000000;stroke-width:0.8;"/>
      </defs>
      <g>
       <use style="stroke:#000000;stroke-width:0.8;" x="73.832727" xlink:href="#md683f4f0a4" y="307.584"/>
      </g>
     </g>
     <g id="text_1">
      <!-- 0 -->
      <defs>
       <path d="M 31.78125 66.40625 
Q 24.171875 66.40625 20.328125 58.90625 
Q 16.5 51.421875 16.5 36.375 
Q 16.5 21.390625 20.328125 13.890625 
Q 24.171875 6.390625 31.78125 6.390625 
Q 39.453125 6.390625 43.28125 13.890625 
Q 47.125 21.390625 47.125 36.375 
Q 47.125 51.421875 43.28125 58.90625 
Q 39.453125 66.40625 31.78125 66.40625 
z
M 31.78125 74.21875 
Q 44.046875 74.21875 50.515625 64.515625 
Q 56.984375 54.828125 56.984375 36.375 
Q 56.984375 17.96875 50.515625 8.265625 
Q 44.046875 -1.421875 31.78125 -1.421875 
Q 19.53125 -1.421875 13.0625 8.265625 
Q 6.59375 17.96875 6.59375 36.375 
Q 6.59375 54.828125 13.0625 64.515625 
Q 19.53125 74.21875 31.78125 74.21875 
z
" id="DejaVuSans-30"/>
      </defs>
      <g transform="translate(70.651477 322.182437)scale(0.1 -0.1)">
       <use xlink:href="#DejaVuSans-30"/>
      </g>
     </g>
    </g>
    <g id="xtick_2">
     <g id="line2d_2">
      <g>
       <use style="stroke:#000000;stroke-width:0.8;" x="117.12" xlink:href="#md683f4f0a4" y="307.584"/>
      </g>
     </g>
     <g id="text_2">
      <!-- 2000 -->
      <defs>
       <path d="M 19.1875 8.296875 
L 53.609375 8.296875 
L 53.609375 0 
L 7.328125 0 
L 7.328125 8.296875 
Q 12.9375 14.109375 22.625 23.890625 
Q 32.328125 33.6875 34.8125 36.53125 
Q 39.546875 41.84375 41.421875 45.53125 
Q 43.3125 49.21875 43.3125 52.78125 
Q 43.3125 58.59375 39.234375 62.25 
Q 35.15625 65.921875 28.609375 65.921875 
Q 23.96875 65.921875 18.8125 64.3125 
Q 13.671875 62.703125 7.8125 59.421875 
L 7.8125 69.390625 
Q 13.765625 71.78125 18.9375 73 
Q 24.125 74.21875 28.421875 74.21875 
Q 39.75 74.21875 46.484375 68.546875 
Q 53.21875 62.890625 53.21875 53.421875 
Q 53.21875 48.921875 51.53125 44.890625 
Q 49.859375 40.875 45.40625 35.40625 
Q 44.1875 33.984375 37.640625 27.21875 
Q 31.109375 20.453125 19.1875 8.296875 
z
" id="DejaVuSans-32"/>
      </defs>
      <g transform="translate(104.395 322.182437)scale(0.1 -0.1)">
       <use xlink:href="#DejaVuSans-32"/>
       <use x="63.623047" xlink:href="#DejaVuSans-30"/>
       <use x="127.246094" xlink:href="#DejaVuSans-30"/>
       <use x="190.869141" xlink:href="#DejaVuSans-30"/>
      </g>
     </g>
    </g>
    <g id="xtick_3">
     <g id="line2d_3">
      <g>
       <use style="stroke:#000000;stroke-width:0.8;" x="160.407273" xlink:href="#md683f4f0a4" y="307.584"/>
      </g>
     </g>
     <g id="text_3">
      <!-- 4000 -->
      <defs>
       <path d="M 37.796875 64.3125 
L 12.890625 25.390625 
L 37.796875 25.390625 
z
M 35.203125 72.90625 
L 47.609375 72.90625 
L 47.609375 25.390625 
L 58.015625 25.390625 
L 58.015625 17.1875 
L 47.609375 17.1875 
L 47.609375 0 
L 37.796875 0 
L 37.796875 17.1875 
L 4.890625 17.1875 
L 4.890625 26.703125 
z
" id="DejaVuSans-34"/>
      </defs>
      <g transform="translate(147.682273 322.182437)scale(0.1 -0.1)">
       <use xlink:href="#DejaVuSans-34"/>
       <use x="63.623047" xlink:href="#DejaVuSans-30"/>
       <use x="127.246094" xlink:href="#DejaVuSans-30"/>
       <use x="190.869141" xlink:href="#DejaVuSans-30"/>
      </g>
     </g>
    </g>
    <g id="xtick_4">
     <g id="line2d_4">
      <g>
       <use style="stroke:#000000;stroke-width:0.8;" x="203.694545" xlink:href="#md683f4f0a4" y="307.584"/>
      </g>
     </g>
     <g id="text_4">
      <!-- 6000 -->
      <defs>
       <path d="M 33.015625 40.375 
Q 26.375 40.375 22.484375 35.828125 
Q 18.609375 31.296875 18.609375 23.390625 
Q 18.609375 15.53125 22.484375 10.953125 
Q 26.375 6.390625 33.015625 6.390625 
Q 39.65625 6.390625 43.53125 10.953125 
Q 47.40625 15.53125 47.40625 23.390625 
Q 47.40625 31.296875 43.53125 35.828125 
Q 39.65625 40.375 33.015625 40.375 
z
M 52.59375 71.296875 
L 52.59375 62.3125 
Q 48.875 64.0625 45.09375 64.984375 
Q 41.3125 65.921875 37.59375 65.921875 
Q 27.828125 65.921875 22.671875 59.328125 
Q 17.53125 52.734375 16.796875 39.40625 
Q 19.671875 43.65625 24.015625 45.921875 
Q 28.375 48.1875 33.59375 48.1875 
Q 44.578125 48.1875 50.953125 41.515625 
Q 57.328125 34.859375 57.328125 23.390625 
Q 57.328125 12.15625 50.6875 5.359375 
Q 44.046875 -1.421875 33.015625 -1.421875 
Q 20.359375 -1.421875 13.671875 8.265625 
Q 6.984375 17.96875 6.984375 36.375 
Q 6.984375 53.65625 15.1875 63.9375 
Q 23.390625 74.21875 37.203125 74.21875 
Q 40.921875 74.21875 44.703125 73.484375 
Q 48.484375 72.75 52.59375 71.296875 
z
" id="DejaVuSans-36"/>
      </defs>
      <g transform="translate(190.969545 322.182437)scale(0.1 -0.1)">
       <use xlink:href="#DejaVuSans-36"/>
       <use x="63.623047" xlink:href="#DejaVuSans-30"/>
       <use x="127.246094" xlink:href="#DejaVuSans-30"/>
       <use x="190.869141" xlink:href="#DejaVuSans-30"/>
      </g>
     </g>
    </g>
    <g id="xtick_5">
     <g id="line2d_5">
      <g>
       <use style="stroke:#000000;stroke-width:0.8;" x="246.981818" xlink:href="#md683f4f0a4" y="307.584"/>
      </g>
     </g>
     <g id="text_5">
      <!-- 8000 -->
      <defs>
       <path d="M 31.78125 34.625 
Q 24.75 34.625 20.71875 30.859375 
Q 16.703125 27.09375 16.703125 20.515625 
Q 16.703125 13.921875 20.71875 10.15625 
Q 24.75 6.390625 31.78125 6.390625 
Q 38.8125 6.390625 42.859375 10.171875 
Q 46.921875 13.96875 46.921875 20.515625 
Q 46.921875 27.09375 42.890625 30.859375 
Q 38.875 34.625 31.78125 34.625 
z
M 21.921875 38.8125 
Q 15.578125 40.375 12.03125 44.71875 
Q 8.5 49.078125 8.5 55.328125 
Q 8.5 64.0625 14.71875 69.140625 
Q 20.953125 74.21875 31.78125 74.21875 
Q 42.671875 74.21875 48.875 69.140625 
Q 55.078125 64.0625 55.078125 55.328125 
Q 55.078125 49.078125 51.53125 44.71875 
Q 48 40.375 41.703125 38.8125 
Q 48.828125 37.15625 52.796875 32.3125 
Q 56.78125 27.484375 56.78125 20.515625 
Q 56.78125 9.90625 50.3125 4.234375 
Q 43.84375 -1.421875 31.78125 -1.421875 
Q 19.734375 -1.421875 13.25 4.234375 
Q 6.78125 9.90625 6.78125 20.515625 
Q 6.78125 27.484375 10.78125 32.3125 
Q 14.796875 37.15625 21.921875 38.8125 
z
M 18.3125 54.390625 
Q 18.3125 48.734375 21.84375 45.5625 
Q 25.390625 42.390625 31.78125 42.390625 
Q 38.140625 42.390625 41.71875 45.5625 
Q 45.3125 48.734375 45.3125 54.390625 
Q 45.3125 60.0625 41.71875 63.234375 
Q 38.140625 66.40625 31.78125 66.40625 
Q 25.390625 66.40625 21.84375 63.234375 
Q 18.3125 60.0625 18.3125 54.390625 
z
" id="DejaVuSans-38"/>
      </defs>
      <g transform="translate(234.256818 322.182437)scale(0.1 -0.1)">
       <use xlink:href="#DejaVuSans-38"/>
       <use x="63.623047" xlink:href="#DejaVuSans-30"/>
       <use x="127.246094" xlink:href="#DejaVuSans-30"/>
       <use x="190.869141" xlink:href="#DejaVuSans-30"/>
      </g>
     </g>
    </g>
    <g id="xtick_6">
     <g id="line2d_6">
      <g>
       <use style="stroke:#000000;stroke-width:0.8;" x="290.269091" xlink:href="#md683f4f0a4" y="307.584"/>
      </g>
     </g>
     <g id="text_6">
      <!-- 10000 -->
      <defs>
       <path d="M 12.40625 8.296875 
L 28.515625 8.296875 
L 28.515625 63.921875 
L 10.984375 60.40625 
L 10.984375 69.390625 
L 28.421875 72.90625 
L 38.28125 72.90625 
L 38.28125 8.296875 
L 54.390625 8.296875 
L 54.390625 0 
L 12.40625 0 
z
" id="DejaVuSans-31"/>
      </defs>
      <g transform="translate(274.362841 322.182437)scale(0.1 -0.1)">
       <use xlink:href="#DejaVuSans-31"/>
       <use x="63.623047" xlink:href="#DejaVuSans-30"/>
       <use x="127.246094" xlink:href="#DejaVuSans-30"/>
       <use x="190.869141" xlink:href="#DejaVuSans-30"/>
       <use x="254.492188" xlink:href="#DejaVuSans-30"/>
      </g>
     </g>
    </g>
    <g id="xtick_7">
     <g id="line2d_7">
      <g>
       <use style="stroke:#000000;stroke-width:0.8;" x="333.556364" xlink:href="#md683f4f0a4" y="307.584"/>
      </g>
     </g>
     <g id="text_7">
      <!-- 12000 -->
      <g transform="translate(317.650114 322.182437)scale(0.1 -0.1)">
       <use xlink:href="#DejaVuSans-31"/>
       <use x="63.623047" xlink:href="#DejaVuSans-32"/>
       <use x="127.246094" xlink:href="#DejaVuSans-30"/>
       <use x="190.869141" xlink:href="#DejaVuSans-30"/>
       <use x="254.492188" xlink:href="#DejaVuSans-30"/>
      </g>
     </g>
    </g>
    <g id="xtick_8">
     <g id="line2d_8">
      <g>
       <use style="stroke:#000000;stroke-width:0.8;" x="376.843636" xlink:href="#md683f4f0a4" y="307.584"/>
      </g>
     </g>
     <g id="text_8">
      <!-- 14000 -->
      <g transform="translate(360.937386 322.182437)scale(0.1 -0.1)">
       <use xlink:href="#DejaVuSans-31"/>
       <use x="63.623047" xlink:href="#DejaVuSans-34"/>
       <use x="127.246094" xlink:href="#DejaVuSans-30"/>
       <use x="190.869141" xlink:href="#DejaVuSans-30"/>
       <use x="254.492188" xlink:href="#DejaVuSans-30"/>
      </g>
     </g>
    </g>
   </g>
   <g id="matplotlib.axis_2">
    <g id="ytick_1">
     <g id="line2d_9">
      <defs>
       <path d="M 0 0 
L -3.5 0 
" id="mf090759fc7" style="stroke:#000000;stroke-width:0.8;"/>
      </defs>
      <g>
       <use style="stroke:#000000;stroke-width:0.8;" x="57.6" xlink:href="#mf090759fc7" y="276.797858"/>
      </g>
     </g>
     <g id="text_9">
      <!-- −80 -->
      <defs>
       <path d="M 10.59375 35.5 
L 73.1875 35.5 
L 73.1875 27.203125 
L 10.59375 27.203125 
z
" id="DejaVuSans-2212"/>
      </defs>
      <g transform="translate(29.495313 280.597076)scale(0.1 -0.1)">
       <use xlink:href="#DejaVuSans-2212"/>
       <use x="83.789062" xlink:href="#DejaVuSans-38"/>
       <use x="147.412109" xlink:href="#DejaVuSans-30"/>
      </g>
     </g>
    </g>
    <g id="ytick_2">
     <g id="line2d_10">
      <g>
       <use style="stroke:#000000;stroke-width:0.8;" x="57.6" xlink:href="#mf090759fc7" y="232.677101"/>
      </g>
     </g>
     <g id="text_10">
      <!-- −60 -->
      <g transform="translate(29.495313 236.47632)scale(0.1 -0.1)">
       <use xlink:href="#DejaVuSans-2212"/>
       <use x="83.789062" xlink:href="#DejaVuSans-36"/>
       <use x="147.412109" xlink:href="#DejaVuSans-30"/>
      </g>
     </g>
    </g>
    <g id="ytick_3">
     <g id="line2d_11">
      <g>
       <use style="stroke:#000000;stroke-width:0.8;" x="57.6" xlink:href="#mf090759fc7" y="188.556345"/>
      </g>
     </g>
     <g id="text_11">
      <!-- −40 -->
      <g transform="translate(29.495313 192.355564)scale(0.1 -0.1)">
       <use xlink:href="#DejaVuSans-2212"/>
       <use x="83.789062" xlink:href="#DejaVuSans-34"/>
       <use x="147.412109" xlink:href="#DejaVuSans-30"/>
      </g>
     </g>
    </g>
    <g id="ytick_4">
     <g id="line2d_12">
      <g>
       <use style="stroke:#000000;stroke-width:0.8;" x="57.6" xlink:href="#mf090759fc7" y="144.435589"/>
      </g>
     </g>
     <g id="text_12">
      <!-- −20 -->
      <g transform="translate(29.495313 148.234808)scale(0.1 -0.1)">
       <use xlink:href="#DejaVuSans-2212"/>
       <use x="83.789062" xlink:href="#DejaVuSans-32"/>
       <use x="147.412109" xlink:href="#DejaVuSans-30"/>
      </g>
     </g>
    </g>
    <g id="ytick_5">
     <g id="line2d_13">
      <g>
       <use style="stroke:#000000;stroke-width:0.8;" x="57.6" xlink:href="#mf090759fc7" y="100.314833"/>
      </g>
     </g>
     <g id="text_13">
      <!-- 0 -->
      <g transform="translate(44.2375 104.114052)scale(0.1 -0.1)">
       <use xlink:href="#DejaVuSans-30"/>
      </g>
     </g>
    </g>
    <g id="ytick_6">
     <g id="line2d_14">
      <g>
       <use style="stroke:#000000;stroke-width:0.8;" x="57.6" xlink:href="#mf090759fc7" y="56.194077"/>
      </g>
     </g>
     <g id="text_14">
      <!-- 20 -->
      <g transform="translate(37.875 59.993295)scale(0.1 -0.1)">
       <use xlink:href="#DejaVuSans-32"/>
       <use x="63.623047" xlink:href="#DejaVuSans-30"/>
      </g>
     </g>
    </g>
   </g>
   <g id="line2d_15">
    <path clip-path="url(#pd1f9006ae6)" d="M 73.832727 265.767668 
L 74.044835 259.21378 
L 75.047476 223.393714 
L 75.169763 192.279185 
L 75.199523 53.568 
L 75.292591 179.961925 
L 75.51065 245.681165 
L 75.582074 246.87878 
L 75.635642 246.421865 
L 75.636183 246.427775 
L 75.678929 245.698164 
L 75.927831 239.249431 
L 76.187014 227.978299 
L 76.370985 191.621679 
L 76.400204 54.017649 
L 76.493271 179.400897 
L 76.716742 245.511893 
L 76.78546 246.664704 
L 76.840652 246.300497 
L 77.103081 240.468573 
L 77.447756 225.46055 
L 77.590063 198.7126 
L 77.618199 110.593055 
L 77.62848 54.414393 
L 77.723171 180.019831 
L 77.944477 245.166233 
L 78.012655 246.457108 
L 78.093277 245.84801 
L 78.390877 239.03824 
L 78.400617 238.779999 
L 78.691724 225.698864 
L 78.773969 217.159812 
L 78.854051 184.402552 
L 78.8784 54.658922 
L 78.968762 177.441693 
L 79.193856 244.890437 
L 79.286924 246.356658 
L 79.324259 246.061593 
L 79.543401 241.767433 
L 79.543942 241.774339 
L 79.5829 240.859798 
L 80.03417 218.477855 
L 80.123991 184.211399 
L 80.147799 54.88495 
L 80.238703 177.19515 
L 80.468666 244.878608 
L 80.550371 246.227884 
L 80.597446 245.908117 
L 80.792239 242.331636 
L 80.79278 242.334001 
L 80.793862 242.335584 
L 80.862039 240.651385 
L 81.331165 215.026501 
L 81.390685 194.108875 
L 81.416116 76.223493 
L 81.423151 55.100445 
L 81.512972 176.540574 
L 81.746723 244.833175 
L 81.755921 245.162054 
L 81.821935 246.106724 
L 81.874961 245.779517 
L 81.875503 245.788235 
L 81.935023 244.983305 
L 81.935564 244.988698 
L 82.099514 241.692431 
L 82.108713 241.495853 
L 82.595153 218.948652 
L 82.670906 201.103576 
L 82.702289 124.777928 
L 82.713652 55.042069 
L 82.808343 179.27225 
L 83.036143 244.797544 
L 83.10919 246.035563 
L 83.164381 245.730495 
L 83.366208 242.069589 
L 83.662726 233.514835 
L 83.816396 225.331647 
L 83.964655 197.311386 
L 83.991168 107.56963 
L 84.001449 55.110375 
L 84.095599 179.159743 
L 84.335843 245.290944 
L 84.399692 246.169598 
L 84.473821 245.692014 
L 84.764387 239.928403 
L 84.764928 239.939859 
L 84.815249 238.662363 
L 85.155596 223.062941 
L 85.278964 195.790828 
L 85.304937 90.493385 
L 85.313594 55.262506 
L 85.406662 178.197325 
L 85.636625 244.554016 
L 85.714001 245.92573 
L 85.769193 245.587392 
L 86.052183 240.004868 
L 86.345996 230.084646 
L 86.466118 221.588689 
L 86.547281 208.102003 
L 86.59111 166.704572 
L 86.608425 55.309503 
L 86.699328 176.850152 
L 86.935244 244.765275 
L 87.018572 246.038046 
L 87.066188 245.68117 
L 87.327535 240.727526 
L 87.328076 240.749061 
L 87.396253 239.077666 
L 87.738764 224.179781 
L 87.868084 200.343549 
L 87.898385 122.748481 
L 87.909748 55.330065 
L 88.004439 178.968692 
L 88.239814 244.724277 
L 88.317731 245.798551 
L 88.375628 245.350637 
L 88.690543 238.940356 
L 88.786316 236.187647 
L 89.042252 223.370206 
L 89.161833 199.971865 
L 89.191593 120.366072 
L 89.202956 55.246077 
L 89.297105 178.966992 
L 89.525446 244.722502 
L 89.599575 246.158999 
L 89.669376 245.735002 
L 90.133632 235.364156 
L 90.48967 195.880126 
L 90.515642 92.331686 
L 90.5243 55.42365 
L 90.617908 178.24593 
L 90.857071 244.801221 
L 90.934988 245.992347 
L 90.98585 245.592586 
L 91.655721 225.065584 
L 91.80398 195.830665 
L 91.829411 97.588992 
L 91.838609 55.34101 
L 91.932759 178.735461 
L 92.175168 245.031771 
L 92.254167 245.978095 
L 92.310441 245.580882 
L 92.310982 245.581583 
L 92.322886 245.425124 
L 92.323427 245.431917 
L 92.613993 239.741872 
L 92.632931 239.274192 
L 92.633472 239.274678 
L 92.829888 233.008356 
L 92.882915 230.640099 
L 93.075543 213.231064 
L 93.137769 176.198158 
L 93.15833 55.380876 
L 93.248151 176.448229 
L 93.478656 244.512659 
L 93.559279 246.035566 
L 93.624209 245.674107 
L 93.776256 243.117056 
L 93.777338 243.131384 
L 93.826577 242.086555 
L 93.827119 242.097327 
L 94.390935 213.913722 
L 94.453702 182.921351 
L 94.476969 55.369229 
L 94.567872 176.753513 
L 94.801082 244.572203 
L 94.887657 245.96374 
L 94.926074 245.7182 
L 94.927697 245.733997 
L 94.979642 245.03643 
L 95.232873 239.951563 
L 95.492055 231.513133 
L 95.701999 213.539292 
L 95.764224 179.629024 
L 95.785868 55.39448 
L 95.87623 176.472965 
L 96.106735 244.403979 
L 96.185193 245.967823 
L 96.242007 245.624249 
L 96.314513 244.633909 
L 96.619689 237.914614 
L 96.62023 237.916632 
L 96.632675 237.541283 
L 96.911878 225.403318 
L 97.028753 210.424655 
L 97.078534 175.687696 
L 97.098554 55.312956 
L 97.188916 176.529864 
L 97.426455 244.812952 
L 97.502749 246.069546 
L 97.554153 245.784782 
L 97.555235 245.799183 
L 97.594735 245.265658 
L 97.722432 242.996838 
L 97.87015 239.679994 
L 98.19751 227.638467 
L 98.352803 208.841103 
L 98.399337 165.950635 
L 98.416652 55.241839 
L 98.507555 177.002492 
L 98.736436 244.614078 
L 98.814353 246.180234 
L 98.870627 245.870626 
L 99.050269 242.794211 
L 99.59136 222.139516 
L 99.691462 203.53918 
L 99.726633 140.920434 
L 99.739619 55.431032 
L 99.833228 178.166135 
L 100.065356 244.508322 
L 100.145978 245.87045 
L 100.190889 245.635823 
L 100.193053 245.640845 
L 100.263395 244.706666 
L 100.445743 241.001168 
L 100.497146 239.736899 
L 100.754705 231.20282 
L 100.762822 230.850557 
L 100.976553 209.267257 
L 101.023087 171.783507 
L 101.042025 55.328197 
L 101.132387 176.74201 
L 101.363974 244.579836 
L 101.442432 246.049551 
L 101.500329 245.745627 
L 102.093905 229.678873 
L 102.262726 213.896958 
L 102.322246 187.713303 
L 102.348759 55.365012 
L 102.440745 177.48821 
L 102.678284 244.782256 
L 102.749167 245.890437 
L 102.80544 245.576491 
L 102.808145 245.581288 
L 102.849809 245.090999 
L 103.034863 241.70216 
L 103.328675 233.492858 
L 103.59922 210.393881 
L 103.650624 170.112459 
L 103.669021 55.346384 
L 103.759383 176.581262 
L 103.987724 244.444305 
L 104.072134 246.067657 
L 104.11975 245.773252 
L 104.29344 242.960378 
L 104.29831 242.849789 
L 104.756073 228.119404 
L 104.936256 203.102632 
L 104.970886 135.829988 
L 104.983331 55.375356 
L 105.077481 178.558305 
L 105.311232 244.746076 
L 105.390231 245.926448 
L 105.437847 245.633644 
L 105.438388 245.637163 
L 105.476265 245.155498 
L 106.005993 231.044358 
L 106.211607 212.339614 
L 106.270045 174.320843 
L 106.289524 55.278942 
L 106.379887 176.561122 
L 106.616884 244.844275 
L 106.617425 244.84233 
L 106.69426 246.066445 
L 106.739712 245.822972 
L 107.221824 235.165836 
L 107.569204 199.163359 
L 107.597882 116.891385 
L 107.608704 55.305576 
L 107.703395 179.025301 
L 107.951215 245.271406 
L 108.01344 245.983037 
L 108.071337 245.650299 
L 108.761769 223.793868 
L 108.873775 205.84857 
L 108.913274 153.182533 
L 108.927884 55.320787 
L 109.02041 177.683014 
L 109.242799 244.237611 
L 109.338031 245.998905 
L 109.387811 245.678123 
L 109.388893 245.678726 
L 109.571241 242.574092 
L 109.773068 237.726775 
L 109.773609 237.726964 
L 109.777937 237.611821 
L 109.952169 231.475339 
L 110.134516 217.8782 
L 110.205399 199.693582 
L 110.234077 127.72349 
L 110.245981 55.397762 
L 110.340131 178.71273 
L 110.569553 244.499497 
L 110.570095 244.499359 
L 110.656128 245.922205 
L 110.711319 245.522452 
L 110.713484 245.546314 
L 110.885551 242.634824 
L 111.105775 237.229443 
L 111.106316 237.231106 
L 111.171247 235.24536 
L 111.526202 194.128843 
L 111.551633 76.885876 
L 111.558668 55.253255 
L 111.64903 176.727274 
L 111.87737 244.597353 
L 111.954746 246.146727 
L 112.032122 245.670031 
L 112.332428 239.750415 
L 112.812916 208.806532 
L 112.861073 158.194788 
L 112.876765 55.427462 
L 112.968751 177.362795 
L 113.194927 244.20727 
L 113.288535 245.897946 
L 113.336151 245.552319 
L 113.34048 245.583944 
L 113.359959 245.279979 
L 113.361583 245.279533 
L 113.532567 242.278158 
L 113.533108 242.285427 
L 113.575855 241.367521 
L 113.957324 228.690214 
L 114.125603 210.296568 
L 114.177548 166.664003 
L 114.194863 55.296066 
L 114.285766 176.865915 
L 114.521681 244.814214 
L 114.606092 246.07409 
L 114.678057 245.49504 
L 115.038964 237.833677 
L 115.039505 237.837526 
L 115.46318 204.694271 
L 115.498351 160.914502 
L 115.514583 55.387435 
L 115.606028 177.186979 
L 115.837615 244.531265 
L 115.910121 245.930137 
L 115.993449 245.312131 
L 116.23694 240.729822 
L 116.237481 240.750869 
L 116.305117 239.094772 
L 116.731497 215.467275 
L 116.800215 187.106197 
L 116.826188 55.382983 
L 116.917632 177.133574 
L 117.145431 244.344597 
L 117.235793 246.004352 
L 117.290985 245.584503 
L 117.785542 234.118374 
L 118.076649 209.706515 
L 118.125347 169.751602 
L 118.143744 55.385377 
L 118.234106 176.601449 
L 118.46894 244.660034 
L 118.550103 245.993185 
L 118.599884 245.740064 
L 119.281658 224.137452 
L 119.410979 200.071229 
L 119.440739 123.339877 
L 119.452102 55.381844 
L 119.546793 178.912323 
L 119.770804 244.382532 
L 119.855215 245.978639 
L 119.904454 245.760873 
L 120.166883 241.152654 
L 120.167965 241.172165 
L 120.233437 239.591624 
L 120.303779 237.776639 
L 120.650618 219.562876 
L 120.743686 192.970306 
L 120.77074 61.650865 
L 120.775069 55.53187 
L 120.848116 166.154527 
L 121.071587 242.886603 
L 121.18738 245.766962 
L 121.243113 245.387203 
L 121.873484 226.783082 
L 122.022284 206.915795 
L 122.064489 155.85136 
L 122.079639 55.337093 
L 122.171625 177.491981 
L 122.405917 244.789752 
L 122.489245 246.047334 
L 122.562292 245.420494 
L 122.857187 239.500359 
L 123.306292 213.661841 
L 123.366353 185.221285 
L 123.391244 55.411604 
L 123.482147 176.8672 
L 123.714275 244.473337 
L 123.806801 245.93429 
L 123.844678 245.667824 
L 124.10386 240.827702 
L 124.104401 240.837243 
L 124.150935 239.710791 
L 124.284044 236.002432 
L 124.575151 219.19576 
L 124.668218 189.880076 
L 124.696355 55.338358 
L 124.789423 178.071251 
L 125.011811 244.278238 
L 125.10542 245.928007 
L 125.171974 245.467215 
L 125.186042 245.280327 
L 125.339171 242.542138 
L 125.340253 242.547086 
L 125.621079 235.250839 
L 125.689257 232.683572 
L 125.930583 213.188228 
L 125.992268 177.285754 
L 126.012829 55.398767 
L 126.103191 176.361758 
L 126.328826 244.140054 
L 126.415942 245.940082 
L 126.471133 245.585269 
L 126.73735 240.684806 
L 126.948375 234.621405 
L 127.110703 227.23535 
L 127.230284 215.360968 
L 127.30279 179.39113 
L 127.324433 55.348221 
L 127.414796 176.525955 
L 127.651793 244.700557 
L 127.721594 245.917385 
L 127.775703 245.629312 
L 127.972119 242.353479 
L 128.222644 235.93544 
L 128.529443 216.749276 
L 128.606278 187.858428 
L 128.632791 55.582416 
L 128.724777 177.074717 
L 128.960692 244.300747 
L 129.041315 245.68308 
L 129.087849 245.382778 
L 129.248012 242.829927 
L 129.254505 242.695441 
L 129.474729 237.464164 
L 129.867561 209.693713 
L 129.917341 165.871731 
L 129.934656 55.434533 
L 130.025559 176.802284 
L 130.258228 244.379918 
L 130.258769 244.367627 
L 130.31342 245.647644 
L 130.339933 245.746134 
L 130.431919 244.966497 
L 130.659177 240.441517 
L 130.659718 240.447223 
L 130.693265 239.624361 
L 130.804189 236.650282 
L 131.198103 199.883795 
L 131.227863 119.5924 
L 131.238685 55.377371 
L 131.333376 178.809344 
L 131.565504 244.778516 
L 131.566045 244.772685 
L 131.645044 246.043395 
L 131.695907 245.748227 
L 131.696448 245.755813 
L 131.752721 244.993838 
L 131.753263 244.999673 
L 132.356038 226.611561 
L 132.47616 213.410069 
L 132.537844 179.623037 
L 132.559488 55.336163 
L 132.64985 176.46346 
L 132.876567 244.34153 
L 132.877108 244.340413 
L 132.964224 246.023251 
L 133.017251 245.722231 
L 133.017792 245.7224 
L 133.025367 245.624522 
L 133.025908 245.626634 
L 133.263447 241.283412 
L 133.456617 236.208158 
L 133.796963 212.796653 
L 133.858106 173.715945 
L 133.877585 55.492436 
L 133.967948 176.345871 
L 134.196829 244.190937 
L 134.276911 245.80932 
L 134.340759 245.407929 
L 134.3413 245.418597 
L 134.405149 244.501138 
L 135.009548 224.406358 
L 135.146985 197.258681 
L 135.174039 101.354776 
L 135.183779 55.355503 
L 135.277929 178.790067 
L 135.512221 244.822316 
L 135.586892 246.055926 
L 135.63559 245.791946 
L 135.81415 242.880519 
L 136.002991 238.452025 
L 136.020305 237.985275 
L 136.423959 211.935604 
L 136.480233 175.772453 
L 136.500253 55.373096 
L 136.590615 176.463617 
L 136.823284 244.59221 
L 136.911482 246.033786 
L 136.97479 245.551538 
L 137.151727 242.381807 
L 137.152268 242.38907 
L 137.195014 241.468691 
L 137.679831 221.122686 
L 137.772899 202.147666 
L 137.805905 130.638067 
L 137.817809 55.299511 
L 137.9125 178.938701 
L 138.134348 244.405702 
L 138.225251 246.064196 
L 138.277737 245.741058 
L 138.383249 244.155203 
L 138.97358 223.285722 
L 139.094243 199.21051 
L 139.122921 118.582717 
L 139.133743 55.432864 
L 139.228433 178.780937 
L 139.456774 244.404618 
L 139.542266 245.880068 
L 139.585553 245.618062 
L 139.586636 245.640291 
L 139.622889 245.218166 
L 139.62343 245.229294 
L 139.869626 240.476636 
L 139.9259 239.060511 
L 140.20889 228.484601 
L 140.393402 204.277988 
L 140.429655 146.930229 
L 140.443724 55.404469 
L 140.536791 178.104631 
L 140.767837 244.480789 
L 140.852247 245.863528 
L 140.909062 245.431354 
L 141.120628 241.714611 
L 141.446365 232.197065 
L 141.706089 203.75715 
L 141.741801 140.983185 
L 141.754787 55.301035 
L 141.848396 178.333136 
L 142.065914 244.15719 
L 142.168721 246.202474 
L 142.200646 245.996482 
L 142.840756 228.864294 
L 143.018775 208.360851 
L 143.064768 160.157014 
L 143.08046 55.337951 
L 143.172445 177.332758 
L 143.401868 244.48882 
L 143.481408 246.024098 
L 143.560407 245.449145 
L 144.178874 227.754969 
L 144.305489 215.502601 
L 144.375831 185.043815 
L 144.400721 55.32475 
L 144.491625 177.010445 
L 144.714554 244.189278 
L 144.7968 246.036399 
L 144.869847 245.610748 
L 145.29785 236.380873 
L 145.6501 210.643766 
L 145.703668 165.231324 
L 145.720442 55.291898 
L 145.811887 177.112679 
L 146.039686 244.502453 
L 146.117603 246.042278 
L 146.171171 245.763122 
L 146.322676 243.425536 
L 146.645708 235.279796 
L 146.646249 235.282036 
L 146.658153 234.871904 
L 146.962246 211.704007 
L 147.016896 177.196174 
L 147.037457 55.430477 
L 147.12782 176.361496 
L 147.367523 244.766241 
L 147.458967 245.905043 
L 147.494679 245.56561 
L 147.496303 245.581508 
L 147.547706 244.898016 
L 147.86695 238.047176 
L 147.867491 238.054286 
L 147.902121 237.046084 
L 148.099619 229.331346 
L 148.280884 210.025812 
L 148.332288 163.769085 
L 148.349062 55.439877 
L 148.440506 177.13363 
L 148.689949 245.185464 
L 148.757044 245.991434 
L 148.811153 245.639067 
L 148.811695 245.64255 
L 148.84903 245.170281 
L 149.060055 241.235123 
L 149.067631 241.080188 
L 149.601687 210.160993 
L 149.652009 170.655639 
L 149.670406 55.33181 
L 149.761309 176.914012 
L 149.989108 244.486348 
L 150.077847 246.142601 
L 150.136826 245.710085 
L 150.329996 242.464513 
L 150.4117 240.708008 
L 150.412241 240.710585 
L 150.643828 233.912105 
L 150.780724 227.335175 
L 150.923031 211.151433 
L 150.976058 174.922393 
L 150.996079 55.332541 
L 151.086441 176.742977 
L 151.320192 244.74179 
L 151.405143 246.076897 
L 151.478732 245.442685 
L 151.793105 239.092634 
L 151.80014 238.897537 
L 152.248704 209.50971 
L 152.297402 167.328402 
L 152.314717 55.370997 
L 152.406161 176.992448 
L 152.636666 244.539991 
L 152.715124 245.983078 
L 152.77735 245.615244 
L 152.777891 245.6179 
L 152.80711 245.230769 
L 152.807651 245.234013 
L 152.949417 242.753272 
L 153.124189 238.728295 
L 153.519185 217.989035 
L 153.601972 190.981635 
L 153.631191 55.382824 
L 153.724259 177.994948 
L 153.949894 244.264027 
L 154.034845 245.832955 
L 154.079756 245.579781 
L 154.080838 245.58461 
L 154.098694 245.398845 
L 154.099776 245.411023 
L 154.271843 242.411938 
L 154.272384 242.413053 
L 154.283747 242.18919 
L 154.528861 236.014171 
L 154.679284 230.018798 
L 154.857844 213.308675 
L 154.918447 180.479082 
L 154.940631 55.25157 
L 155.030993 176.751086 
L 155.256628 244.465205 
L 155.346991 246.072429 
L 155.421661 245.50043 
L 155.664611 240.852121 
L 155.665152 240.859059 
L 155.834513 236.535766 
L 155.876719 235.173066 
L 156.218147 202.432317 
L 156.250071 146.810412 
L 156.26414 55.310101 
L 156.357207 178.302288 
L 156.592041 244.945049 
L 156.681321 246.152695 
L 156.721361 245.842289 
L 156.89938 242.979334 
L 156.899921 242.980577 
L 156.910743 242.755629 
L 157.08281 238.653332 
L 157.505943 212.831573 
L 157.565463 177.716003 
L 157.586566 55.30662 
L 157.676928 176.780746 
L 157.906351 244.572484 
L 157.989137 246.126624 
L 158.047034 245.800627 
L 158.047575 245.811519 
L 158.112506 244.897872 
L 158.730973 224.940951 
L 158.86841 201.039978 
L 158.899252 130.587235 
L 158.911156 55.369147 
L 159.005847 178.809501 
L 159.233105 244.424129 
L 159.315892 245.920977 
L 159.360803 245.657142 
L 159.586438 241.731534 
L 159.586979 241.732773 
L 160.087488 220.464554 
L 160.169193 204.471026 
L 160.205446 149.919547 
L 160.219514 55.275961 
L 160.312582 178.009884 
L 160.544169 244.942673 
L 160.621004 246.224494 
L 160.68377 245.866658 
L 160.684852 245.871268 
L 161.150191 235.52484 
L 161.494865 205.522571 
L 161.533824 150.149876 
L 161.547892 55.212701 
L 161.64096 178.089034 
L 161.870383 244.8536 
L 161.945053 246.246709 
L 161.999703 245.984292 
L 162.143633 243.719006 
L 162.144716 243.732385 
L 162.193955 242.801032 
L 162.410391 237.630153 
L 162.628992 229.145389 
L 162.840559 195.341088 
L 162.866531 85.282555 
L 162.874647 55.433988 
L 162.967174 177.764016 
L 163.194973 244.356329 
L 163.279383 245.896026 
L 163.345396 245.419659 
L 163.439005 243.925598 
L 163.439546 243.926929 
L 163.742016 236.793893 
L 163.789632 235.373201 
L 164.142423 198.480165 
L 164.17056 110.685986 
L 164.180841 55.386557 
L 164.275532 178.92027 
L 164.503872 244.660712 
L 164.578001 246.078924 
L 164.64185 245.737439 
L 164.840972 242.329545 
L 165.009251 238.394021 
L 165.40046 216.655216 
L 165.476753 187.042949 
L 165.502726 55.333429 
L 165.59417 177.157887 
L 165.827921 244.694482 
L 165.900969 245.952276 
L 165.956701 245.685004 
L 166.365225 237.153863 
L 166.681222 220.697619 
L 166.777536 198.198837 
L 166.805132 111.543403 
L 166.815412 55.362847 
L 166.910103 178.918473 
L 167.136279 244.421103 
L 167.1563 245.142596 
L 167.222854 245.932474 
L 167.282374 245.463947 
L 167.283997 245.473539 
L 167.325661 244.957835 
L 167.611898 238.958727 
L 167.612439 238.959278 
L 167.61298 238.968247 
L 167.653562 237.798032 
L 168.05938 209.551425 
L 168.10862 164.998289 
L 168.125393 55.378261 
L 168.216838 177.046899 
L 168.445719 244.501543 
L 168.53554 246.045791 
L 168.57991 245.790882 
L 168.766045 242.77315 
L 168.766586 242.775805 
L 168.787148 242.321007 
L 168.993303 237.311031 
L 169.075549 234.635281 
L 169.354752 215.142464 
L 169.419142 190.699222 
L 169.448361 55.30214 
L 169.540887 178.020928 
L 169.770851 244.539337 
L 169.857967 246.023074 
L 169.910452 245.617906 
L 170.124724 241.855269 
L 170.125807 241.870309 
L 170.133382 241.688521 
L 170.631185 220.409559 
L 170.735616 188.403885 
L 170.762671 55.323889 
L 170.854656 177.500535 
L 171.081914 244.436413 
L 171.167948 245.976385 
L 171.223139 245.615314 
L 171.224221 245.627682 
L 171.27346 244.960938 
L 171.274543 244.96943 
L 171.377891 243.169972 
L 171.55104 239.272312 
L 171.551581 239.273876 
L 171.562403 238.98578 
L 171.99257 214.014017 
L 172.05696 180.787109 
L 172.079145 55.377641 
L 172.169507 176.415611 
L 172.405423 244.666465 
L 172.468189 245.962258 
L 172.541777 245.545804 
L 173.109923 230.971278 
L 173.350708 199.480762 
L 173.379927 117.151999 
L 173.390749 55.241217 
L 173.48544 179.128194 
L 173.71378 244.749312 
L 173.786287 246.160337 
L 173.845807 245.857062 
L 173.989196 243.564942 
L 173.99136 243.570198 
L 174.013004 243.129146 
L 174.453993 229.770325 
L 174.676381 195.799999 
L 174.702353 90.795671 
L 174.711011 55.337055 
L 174.80462 178.455992 
L 175.028631 244.479608 
L 175.029172 244.477387 
L 175.111418 246.110936 
L 175.169315 245.762319 
L 175.337053 243.085757 
L 175.337594 243.119476 
L 175.41984 241.34252 
L 175.947945 213.823228 
L 176.013417 176.14764 
L 176.033437 55.373826 
L 176.123799 176.36547 
L 176.353763 244.405701 
L 176.432762 245.943861 
L 176.483084 245.685439 
L 176.483625 245.702539 
L 176.561001 244.652845 
L 176.562083 244.656612 
L 176.681123 242.48076 
L 176.853731 238.439509 
L 176.860224 238.242185 
L 177.080989 230.361457 
L 177.303919 202.012215 
L 177.336384 134.115151 
L 177.348829 55.251829 
L 177.442979 178.79675 
L 177.669155 244.605081 
L 177.751942 246.108432 
L 177.808756 245.734805 
L 177.81038 245.745495 
L 178.051706 241.449674 
L 178.553839 219.403761 
L 178.654481 180.25367 
L 178.676666 55.392173 
L 178.767028 176.580065 
L 178.999697 244.644757 
L 179.098717 246.051192 
L 179.128477 245.797283 
L 179.158237 245.457459 
L 179.416879 240.327836 
L 179.41742 240.333851 
L 179.452591 239.499258 
L 179.682554 232.1301 
L 179.891415 216.070331 
L 179.965004 185.777631 
L 179.989894 55.344805 
L 180.081338 177.075017 
L 180.312925 244.60751 
L 180.390301 246.051168 
L 180.456314 245.633323 
L 180.457937 245.660413 
L 180.713332 240.883941 
L 180.868084 236.794372 
L 180.970892 233.302481 
L 181.248471 207.678266 
L 181.291217 166.317873 
L 181.308532 55.49672 
L 181.399436 176.644076 
L 181.631564 244.402858 
L 181.718679 245.871754 
L 181.775494 245.441571 
L 182.024937 240.863846 
L 182.292236 232.967398 
L 182.292777 232.971313 
L 182.308468 232.301816 
L 182.521117 216.211467 
L 182.597411 182.873783 
L 182.620678 55.335199 
L 182.711581 176.80642 
L 182.943168 244.561492 
L 183.017839 246.057016 
L 183.075194 245.81683 
L 183.542697 235.629759 
L 183.893865 205.14951 
L 183.932282 148.252178 
L 183.946351 55.565038 
L 184.039418 177.779858 
L 184.271005 244.404655 
L 184.352169 245.884031 
L 184.438202 245.252707 
L 184.439825 245.283005 
L 184.465257 244.899481 
L 184.465798 244.911121 
L 184.950615 234.180187 
L 185.269318 207.761622 
L 185.314769 156.200579 
L 185.32992 56.215477 
L 185.422447 176.725957 
L 185.664855 244.225651 
L 185.767663 245.573476 
L 185.800128 245.420241 
L 185.933236 244.232871 
L 186.100975 241.937447 
L 186.102598 241.94827 
L 186.104221 241.951956 
L 186.115584 241.798617 
L 186.335808 238.46411 
L 186.336349 238.466205 
L 186.357452 238.108291 
L 186.657757 230.645989 
L 186.932631 198.147965 
L 186.960768 113.621713 
L 186.97159 57.579098 
L 187.066281 176.416026 
L 187.302737 242.185512 
L 187.448832 244.804661 
L 187.456948 244.781944 
L 187.467229 244.847468 
L 187.557591 244.590602 
L 187.561379 244.593672 
L 187.571119 244.597904 
L 187.589516 244.455168 
L 187.594927 244.456525 
L 187.755631 244.047549 
L 187.598714 244.492804 
L 187.756713 244.050404 
L 187.758877 244.087391 
L 187.864931 243.934068 
L 187.868177 243.962503 
L 187.917417 243.834227 
L 187.974231 243.876046 
L 188.078121 243.886825 
L 187.997498 243.790445 
L 188.081908 243.84831 
L 188.10734 243.82638 
L 188.178223 243.988383 
L 188.184716 243.938731 
L 188.2859 244.184103 
L 188.306461 244.181214 
L 188.309167 244.160541 
L 188.403857 244.434469 
L 188.408727 244.407209 
L 188.531555 244.89411 
L 188.532637 244.892891 
L 188.533719 244.875513 
L 188.606225 245.255498 
L 188.608931 245.241398 
L 188.75232 246.094729 
L 188.753402 246.082823 
L 188.78208 246.315544 
L 188.974708 247.775989 
L 188.975249 247.760243 
L 189.057495 248.580283 
L 189.061824 248.5533 
L 189.408122 252.730061 
L 189.450868 253.360084 
L 189.658647 256.343953 
L 189.659188 256.322609 
L 189.737647 257.586839 
L 191.199674 280.227004 
L 191.200756 280.201329 
L 191.277591 281.057054 
L 191.497274 282.966772 
L 191.497815 282.959774 
L 191.567616 283.488861 
L 191.568698 283.482601 
L 191.569239 283.480166 
L 191.60928 283.790662 
L 191.611444 283.772513 
L 191.737519 284.587147 
L 191.73806 284.571351 
L 191.800285 284.960266 
L 191.801367 284.955251 
L 191.939887 285.787474 
L 191.802991 284.954174 
L 191.943133 285.771963 
L 191.943674 285.751473 
L 192.039988 286.28316 
L 192.040529 286.257841 
L 192.162816 286.764644 
L 192.163357 286.737094 
L 192.164439 286.711017 
L 192.255343 287.155791 
L 192.256966 287.136215 
L 192.413882 287.71702 
L 192.417129 287.69427 
L 192.41767 287.689586 
L 192.489635 287.983595 
L 192.495587 287.979178 
L 194.55552 293.093786 
L 192.502621 287.9568 
L 194.566342 293.069191 
L 194.566883 293.045266 
L 194.662656 293.262413 
L 194.672937 293.251115 
L 194.795223 293.530476 
L 194.675101 293.248572 
L 194.796305 293.509188 
L 194.79847 293.475579 
L 194.898031 293.665259 
L 194.904524 293.635294 
L 195.034927 293.868942 
L 194.906688 293.630355 
L 195.035468 293.842216 
L 195.093364 293.824139 
L 195.039255 293.876815 
L 195.125289 293.907563 
L 195.143686 293.898188 
L 195.171823 293.999925 
L 195.188055 294.004494 
L 195.306013 294.143041 
L 195.193466 293.974636 
L 195.311965 294.120966 
L 195.330362 294.058686 
L 195.397457 294.225799 
L 195.413149 294.17842 
L 195.524614 294.376839 
L 195.526778 294.369586 
L 195.538141 294.310448 
L 195.629585 294.500145 
L 195.630127 294.487823 
L 195.63662 294.47121 
L 195.747543 294.662678 
L 195.834659 294.633676 
L 195.853056 294.720594 
L 195.857385 294.695993 
L 195.95911 294.857962 
L 195.861172 294.671289 
L 195.97426 294.826797 
L 195.981836 294.816839 
L 196.065705 294.930593 
L 196.072198 294.903199 
L 196.134423 294.972091 
L 196.093841 294.867214 
L 196.184204 294.938591 
L 196.198272 294.907031 
L 196.277271 295.039629 
L 196.291881 295.012636 
L 196.294586 294.980194 
L 196.347072 295.092393 
L 196.386031 295.078015 
L 196.497495 295.176423 
L 196.387113 295.068593 
L 196.499119 295.134233 
L 196.49966 295.115181 
L 196.596515 295.285595 
L 196.606255 295.273472 
L 196.656035 295.178703 
L 196.617617 295.298949 
L 196.715555 295.287338 
L 196.729623 295.320276 
L 196.790767 295.240536 
L 196.825396 295.267252 
L 196.825937 295.239102 
L 196.933615 295.388019 
L 196.934156 295.377136 
L 197.04562 295.346912 
L 197.010991 295.444618 
L 197.047785 295.361365 
L 197.062935 295.41037 
L 197.153839 295.288389 
L 197.155462 295.320528 
L 197.237708 295.288564 
L 197.247988 295.408491 
L 197.265303 295.349528 
L 197.360535 295.40558 
L 197.2837 295.335424 
L 197.378391 295.393063 
L 197.382179 295.353336 
L 197.453603 295.474074 
L 197.486068 295.416066 
L 197.520157 295.488 
L 197.550999 295.372197 
L 197.596451 295.402451 
L 197.680861 295.400028 
L 197.613766 295.322199 
L 197.691142 295.360213 
L 197.775552 295.338549 
L 197.792867 295.452893 
L 197.801524 295.37575 
L 197.903791 295.45174 
L 197.876195 295.356712 
L 197.916236 295.399734 
L 198.027159 295.325572 
L 197.94329 295.450585 
L 198.028783 295.352801 
L 198.03257 295.372941 
L 198.132672 295.281055 
L 198.135377 295.307372 
L 198.234397 295.235418 
L 198.175959 295.342466 
L 198.246301 295.303618 
L 198.39456 295.174122 
L 198.247383 295.321757 
L 198.416204 295.232872 
L 198.432436 295.278236 
L 198.509812 295.146162 
L 198.523881 295.177052 
L 198.629935 295.112569 
L 198.606127 295.209688 
L 198.63751 295.121677 
L 198.638051 295.148163 
L 198.715968 295.029824 
L 198.747351 295.069722 
L 198.759796 295.119279 
L 198.852864 294.939559 
L 198.853405 294.956105 
L 198.934028 294.890002 
L 198.855569 294.995329 
L 198.974068 294.936451 
L 198.98489 294.958509 
L 199.05415 294.851422 
L 199.08391 294.920765 
L 199.166156 294.806378 
L 199.096896 295.007032 
L 199.19808 294.870361 
L 199.225135 294.93367 
L 199.286819 294.772801 
L 199.305757 294.811919 
L 199.405318 294.665742 
L 199.418304 294.733051 
L 199.486481 294.741997 
L 199.428044 294.684226 
L 199.513536 294.670843 
L 199.572515 294.604586 
L 199.592535 294.707016 
L 199.626624 294.637141 
L 199.667206 294.658674 
L 199.717527 294.552383 
L 199.724561 294.577285 
L 199.774883 294.494166 
L 199.726185 294.60696 
L 199.836026 294.527206 
L 199.958854 294.408909 
L 199.837108 294.530561 
L 199.968052 294.438114 
L 199.969135 294.455874 
L 200.066531 294.275596 
L 200.071401 294.315609 
L 200.162304 294.223881 
L 200.084928 294.351101 
L 200.18503 294.262457 
L 200.213708 294.318244 
L 200.292707 294.197448 
L 200.29433 294.208111 
L 200.294871 294.212976 
L 200.38848 294.093245 
L 200.394432 294.115343 
L 200.428521 293.970629 
L 200.398761 294.121363 
L 200.510225 293.986102 
L 200.594095 293.98726 
L 200.521047 293.92294 
L 200.616279 293.965067 
L 200.734237 293.801952 
L 200.751552 293.874122 
L 200.828928 293.608372 
L 200.833798 293.641752 
L 200.940393 293.557949 
L 200.837585 293.686898 
L 200.946886 293.577078 
L 200.94905 293.591637 
L 201.032919 293.422431 
L 201.035084 293.425051 
L 201.144925 293.314533 
L 201.093521 293.477789 
L 201.149254 293.350581 
L 201.150877 293.394194 
L 201.24665 293.229831 
L 201.256931 293.257289 
L 201.370019 293.08716 
L 201.372183 293.1211 
L 201.384628 293.149072 
L 201.464169 293.037509 
L 201.470121 293.04138 
L 201.478778 293.055837 
L 201.584291 292.900479 
L 201.585373 292.924128 
L 201.687639 292.708886 
L 201.688721 292.713562 
L 201.807761 292.528218 
L 201.692509 292.748259 
L 201.809926 292.553858 
L 201.822912 292.58572 
L 201.898665 292.407306 
L 201.913274 292.421156 
L 202.025821 292.26099 
L 201.921391 292.437972 
L 202.027985 292.273255 
L 202.029609 292.285451 
L 202.10482 292.118804 
L 202.132416 292.145732 
L 202.246045 292.026836 
L 202.155142 292.159014 
L 202.247668 292.041859 
L 202.248209 292.060332 
L 202.35264 291.913254 
L 202.355345 291.931242 
L 202.46681 291.801923 
L 202.365085 291.971059 
L 202.468975 291.820488 
L 202.483584 291.863695 
L 202.539316 291.680176 
L 202.577734 291.73177 
L 202.616151 291.759769 
L 202.695692 291.599181 
L 202.700561 291.61676 
L 202.7893 291.458788 
L 202.801204 291.469933 
L 202.960826 291.227428 
L 202.805533 291.47798 
L 202.968943 291.250778 
L 202.969484 291.283128 
L 203.053894 291.033073 
L 203.07662 291.074892 
L 203.192954 290.872587 
L 203.089606 291.095603 
L 203.208105 290.893893 
L 203.227584 290.921457 
L 203.311994 290.705766 
L 203.321734 290.729822 
L 203.381254 290.557501 
L 203.406144 290.58778 
L 203.521937 290.330936 
L 203.408308 290.599277 
L 203.52302 290.333232 
L 203.524102 290.371953 
L 203.588492 290.1877 
L 203.630156 290.237766 
L 203.630697 290.245932 
L 203.728093 290.059197 
L 203.731881 290.092655 
L 203.732422 290.093401 
L 203.767052 289.95325 
L 203.767593 289.955669 
L 203.92018 289.703023 
L 203.780038 290.027935 
L 203.921263 289.728795 
L 203.921804 289.730769 
L 203.979159 289.563026 
L 203.988358 289.56356 
L 203.989981 289.580822 
L 204.105233 289.378347 
L 204.109562 289.40529 
L 204.203171 289.258197 
L 204.212911 289.285372 
L 204.331409 289.122552 
L 204.250246 289.29369 
L 204.331951 289.136635 
L 204.333033 289.143738 
L 204.40608 288.94622 
L 204.418525 288.982356 
L 204.532154 288.691412 
L 204.539188 288.718784 
L 204.539729 288.735473 
L 204.614941 288.544609 
L 204.644701 288.559183 
L 204.756166 288.351286 
L 204.665263 288.563684 
L 204.760495 288.362468 
L 204.770234 288.387171 
L 204.858973 288.188375 
L 204.865466 288.219184 
L 204.96178 288.04506 
L 204.867089 288.236443 
L 204.980177 288.081493 
L 205.014266 288.044841 
L 204.985047 288.054262 
L 205.018595 287.979664 
L 205.123567 287.805947 
L 205.034287 288.008337 
L 205.133306 287.826082 
L 205.133847 287.834247 
L 205.22962 287.609976 
L 205.374092 287.302111 
L 205.249641 287.639506 
L 205.377879 287.331911 
L 205.37842 287.337166 
L 205.462289 287.10666 
L 205.470406 287.153358 
L 205.473652 287.173736 
L 205.613795 286.784525 
L 205.617041 286.818978 
L 205.700911 286.603593 
L 205.711732 286.616707 
L 205.714979 286.670891 
L 205.798307 286.457602 
L 205.803177 286.486233 
L 205.930874 286.202234 
L 205.947648 286.235248 
L 206.029353 285.997408 
L 206.032058 286.021467 
L 206.147311 285.841921 
L 206.033681 286.0465 
L 206.148393 285.852206 
L 206.148934 285.855803 
L 206.232262 285.667291 
L 206.232803 285.676061 
L 206.350761 285.433859 
L 206.245789 285.699021 
L 206.351302 285.444742 
L 206.504972 285.067254 
L 206.361041 285.495209 
L 206.512006 285.085133 
L 206.512547 285.089624 
L 206.596957 284.883094 
L 206.599121 284.889611 
L 206.726819 284.572284 
L 206.72736 284.602844 
L 206.738723 284.604057 
L 206.746298 284.521358 
L 206.773353 284.521067 
L 206.866961 284.350633 
L 206.887523 284.356988 
L 207.049309 284.028226 
L 206.894557 284.381014 
L 207.050391 284.055196 
L 207.052015 284.062529 
L 207.126144 283.793959 
L 207.140753 283.806311 
L 207.277108 283.452578 
L 207.142377 283.807771 
L 207.277649 283.464173 
L 207.281437 283.483711 
L 207.372881 283.291427 
L 207.376128 283.318201 
L 207.496791 282.992621 
L 207.50112 283.015909 
L 207.594729 282.792084 
L 207.59527 282.804054 
L 207.693748 282.56699 
L 207.602304 282.812391 
L 207.709981 282.587637 
L 207.722967 282.602657 
L 207.812788 282.414477 
L 207.813329 282.420023 
L 208.109847 281.689431 
L 207.819281 282.432753 
L 208.112553 281.712395 
L 208.113094 281.726459 
L 208.20562 281.523938 
L 208.215901 281.535418 
L 208.339811 281.156489 
L 208.341434 281.179763 
L 208.464803 280.776915 
L 208.481036 280.787888 
L 208.481577 280.808831 
L 208.584925 280.522402 
L 208.585466 280.531942 
L 208.586007 280.543347 
L 208.682321 280.264309 
L 208.684486 280.275551 
L 208.802985 279.952416 
L 208.69152 280.288164 
L 208.803526 279.955996 
L 208.808396 280.011166 
L 208.898758 279.696333 
L 208.901463 279.741129 
L 209.01888 279.406856 
L 209.029161 279.470757 
L 209.126016 279.181287 
L 209.126557 279.206346 
L 209.127098 279.210808 
L 209.208262 278.98358 
L 209.230988 279.005011 
L 209.326761 278.610745 
L 209.331089 278.655967 
L 209.421993 278.357289 
L 209.431732 278.378358 
L 209.445801 278.315776 
L 209.433897 278.341056 
L 209.447965 278.276374 
L 209.454999 278.290628 
L 209.567546 278.003679 
L 209.568087 278.019248 
L 209.669271 277.732547 
L 209.679011 277.748165 
L 209.761798 277.448227 
L 209.762339 277.45726 
L 209.880297 277.122363 
L 209.880838 277.129252 
L 209.882461 277.160109 
L 209.978775 276.898302 
L 209.987974 276.914788 
L 210.157876 276.465826 
L 210.158959 276.486097 
L 210.25906 276.178056 
L 210.260684 276.192495 
L 210.384052 275.757814 
L 210.262848 276.218881 
L 210.392169 275.7888 
L 210.39271 275.806178 
L 210.492271 275.468605 
L 210.493353 275.47975 
L 210.606441 275.158478 
L 210.495517 275.510092 
L 210.622132 275.165769 
L 210.622673 275.194304 
L 210.726022 274.845832 
L 210.727104 274.85108 
L 210.728727 274.86102 
L 210.818548 274.649902 
L 210.827206 274.659455 
L 210.946787 274.262722 
L 210.947869 274.262989 
L 210.952198 274.312807 
L 211.034444 273.95868 
L 211.039855 274.00328 
L 211.150778 273.619899 
L 211.156189 273.648289 
L 211.15673 273.657553 
L 211.248716 273.35258 
L 211.366132 273.049061 
L 211.367215 273.057803 
L 211.634513 272.325277 
L 211.371543 273.070882 
L 211.635055 272.337504 
L 211.637219 272.360321 
L 211.734615 272.02605 
L 211.738944 272.077209 
L 211.781149 271.850003 
L 211.790889 271.868723 
L 211.922915 271.424125 
L 211.923997 271.430988 
L 211.924538 271.449795 
L 212.026804 271.147515 
L 212.326569 270.20021 
L 212.027887 271.175881 
L 212.335226 270.219623 
L 212.335767 270.223081 
L 212.40178 269.959887 
L 212.40665 269.968699 
L 212.41152 269.978642 
L 212.534889 269.53894 
L 212.53543 269.556302 
L 212.633908 269.239563 
L 212.636614 269.250955 
L 212.756195 268.828158 
L 212.889303 268.368826 
L 212.893632 268.40936 
L 212.900666 268.445286 
L 212.985617 268.111207 
L 212.989405 268.154873 
L 213.110068 267.688843 
L 213.110609 267.693211 
L 213.111151 267.702882 
L 213.199348 267.353001 
L 213.201513 267.355353 
L 213.317847 266.954621 
L 213.318929 266.960948 
L 213.319471 266.965748 
L 213.384943 266.660784 
L 213.399011 266.68268 
L 213.399552 266.682857 
L 213.415244 266.574315 
L 213.421737 266.580481 
L 213.544023 266.118606 
L 213.424983 266.594802 
L 213.545647 266.134329 
L 213.547811 266.158977 
L 213.640879 265.744712 
L 213.645207 265.773917 
L 213.645748 265.774924 
L 213.684707 265.615158 
L 213.891945 264.863558 
L 213.68633 265.639304 
L 213.893027 264.866189 
L 213.89952 264.883467 
L 213.973649 264.621812 
L 213.974191 264.627099 
L 214.097018 264.128128 
L 214.0981 264.136761 
L 214.104593 264.150662 
L 214.14734 263.97076 
L 214.153833 263.980566 
L 214.287482 263.479137 
L 214.288023 263.480675 
L 214.415721 263.109396 
L 214.29127 263.496361 
L 214.420591 263.110696 
L 214.424378 263.118716 
L 214.468207 262.942638 
L 214.471453 262.95845 
L 214.58887 262.428385 
L 214.4747 262.964614 
L 214.589411 262.436886 
L 214.758231 261.908071 
L 214.770676 261.939593 
L 214.856169 261.562787 
L 214.85671 261.563548 
L 214.859956 261.56673 
L 214.907031 261.275071 
L 214.913524 261.292604 
L 214.918935 261.298883 
L 215.03527 260.778762 
L 215.035811 260.793624 
L 215.130502 260.412269 
L 215.132666 260.41623 
L 215.290124 259.728142 
L 215.134289 260.425114 
L 215.292829 259.729141 
L 215.293911 259.749956 
L 215.384815 259.308723 
L 215.388061 259.322812 
L 215.519546 258.766128 
L 215.521169 258.778878 
L 215.524957 258.790855 
L 215.581772 258.565353 
L 215.582854 258.577902 
L 215.715421 257.931002 
L 215.715962 257.949381 
L 215.814441 257.522181 
L 215.816605 257.554156 
L 215.885324 257.146963 
L 215.888029 257.149673 
L 216.038452 256.418337 
L 216.050897 256.422181 
L 216.051439 256.436891 
L 216.14126 256.007107 
L 216.147753 256.036478 
L 216.268416 255.494202 
L 216.268957 255.500622 
L 216.273827 255.522155 
L 216.354449 255.075617 
L 216.354991 255.081744 
L 216.577379 253.847402 
L 216.358778 255.115874 
L 216.578461 253.859456 
L 216.713734 252.967758 
L 216.715357 252.985571 
L 216.804096 252.489052 
L 216.804637 252.497201 
L 216.950732 251.592482 
L 216.952355 251.604817 
L 216.952896 251.611613 
L 217.020532 251.066668 
L 217.434467 248.072522 
L 217.436631 248.101988 
L 217.437713 248.11256 
L 217.487494 247.664549 
L 217.489117 247.670393 
L 217.49074 247.672949 
L 217.65415 246.146743 
L 217.654691 246.15145 
L 217.704471 245.639245 
L 217.707177 245.641198 
L 217.77806 244.838676 
L 218.426287 233.151881 
L 218.658415 219.329897 
L 218.754729 189.554674 
L 218.782865 56.047178 
L 218.875933 177.02623 
L 219.123212 243.871581 
L 219.215197 245.056922 
L 219.250368 244.865172 
L 219.25145 244.881517 
L 219.330449 244.10653 
L 219.332614 244.116312 
L 219.531735 241.33859 
L 219.541475 241.223835 
L 219.813644 235.817764 
L 219.827171 235.497201 
L 220.045772 226.861858 
L 220.217297 201.453439 
L 220.249222 131.895423 
L 220.261667 56.142661 
L 220.355817 177.70203 
L 220.587945 243.353238 
L 220.686964 245.130964 
L 220.745943 244.863697 
L 221.0219 241.052288 
L 221.022441 241.067193 
L 221.022982 241.07098 
L 221.053283 240.520032 
L 221.055447 240.527737 
L 221.291904 235.452681 
L 221.292445 235.468637 
L 221.347636 233.833255 
L 221.557039 223.391255 
L 221.675537 203.301293 
L 221.710167 144.590126 
L 221.723695 56.179338 
L 221.817303 177.204274 
L 222.059712 243.751732 
L 222.149533 245.055906 
L 222.220416 244.679669 
L 222.365428 242.777365 
L 222.367052 242.778615 
L 222.413044 242.025507 
L 222.851328 231.320193 
L 223.066682 214.206321 
L 223.134319 178.584192 
L 223.155962 56.18176 
L 223.246324 175.708028 
L 223.480617 243.507094 
L 223.586129 245.335155 
L 223.633745 245.022753 
L 223.872908 241.657664 
L 223.873449 241.668367 
L 223.930263 240.621079 
L 223.931345 240.628496 
L 224.109364 236.807159 
L 224.262493 231.916441 
L 224.397225 224.642437 
L 224.507607 210.681323 
L 224.559011 175.518969 
L 224.579031 56.00629 
L 224.669935 175.983187 
L 224.906391 243.802845 
L 225.00487 245.385942 
L 225.057897 245.114171 
L 225.211567 243.002028 
L 225.626042 233.535641 
L 225.857088 220.337838 
L 225.953402 197.312132 
L 225.980457 104.730228 
L 225.990196 55.920173 
L 226.084887 178.181823 
L 226.313228 243.730363 
L 226.407919 245.434653 
L 226.441466 245.304973 
L 226.624355 242.903209 
L 226.624896 242.903762 
L 226.625437 242.905569 
L 226.642211 242.574654 
L 226.898147 237.304586 
L 226.898688 237.310427 
L 226.931153 236.465179 
L 227.190877 225.589426 
L 227.341841 200.952796 
L 227.372143 137.432798 
L 227.385129 55.937313 
L 227.478737 177.831515 
L 227.716817 244.167628 
L 227.804474 245.441592 
L 227.868864 245.064079 
L 228.435927 232.52195 
L 228.607994 222.682578 
L 228.711343 205.178919 
L 228.749219 153.109082 
L 228.763828 55.735459 
L 228.856355 177.213646 
L 229.086319 243.991507 
L 229.08686 243.988679 
L 229.185338 245.664127 
L 229.222132 245.459067 
L 229.223215 245.471379 
L 229.254057 245.197756 
L 229.899578 229.448036 
L 230.10898 202.60776 
L 230.142528 138.257412 
L 230.155514 55.747962 
L 230.249123 177.910734 
L 230.488285 244.386099 
L 230.571072 245.688497 
L 230.620852 245.427473 
L 230.779933 243.034441 
L 230.780474 243.03728 
L 230.804823 242.592163 
L 231.012061 238.129217 
L 231.01639 238.043053 
L 231.205231 231.945595 
L 231.440605 211.684674 
L 231.496879 173.030165 
L 231.516358 55.74885 
L 231.60672 176.174953 
L 231.846423 244.29832 
L 231.930292 245.58892 
L 231.980073 245.336288 
L 232.105606 243.59245 
L 232.106688 243.592749 
L 232.343145 238.77697 
L 232.543889 232.800171 
L 232.697018 224.651903 
L 232.813353 208.49969 
L 232.860969 156.108839 
L 232.876119 55.72649 
L 232.968646 177.234216 
L 233.194281 243.790277 
L 233.283561 245.692165 
L 233.329553 245.489587 
L 233.330095 245.511155 
L 233.414505 244.463632 
L 233.56601 241.666218 
L 233.567092 241.679644 
L 233.602263 240.869038 
L 233.603887 240.87512 
L 233.793268 236.097706 
L 234.098985 218.969145 
L 234.182313 197.200337 
L 234.209367 101.59521 
L 234.219107 55.659504 
L 234.313257 178.479047 
L 234.541597 244.137005 
L 234.630877 245.664998 
L 234.692561 245.268021 
L 234.881402 242.186958 
L 234.936052 241.112371 
L 234.936593 241.117728 
L 235.132468 236.164295 
L 235.213091 233.454677 
L 235.476061 213.511551 
L 235.53504 186.111898 
L 235.560471 55.571258 
L 235.651916 176.944939 
L 235.886749 244.456742 
L 235.88729 244.449863 
L 235.919756 245.440301 
L 235.973324 245.854042 
L 236.03122 245.453746 
L 236.032303 245.46558 
L 236.077213 244.846128 
L 236.256855 241.593163 
L 236.257937 241.596211 
L 236.258479 241.597671 
L 236.269841 241.318731 
L 236.593414 232.179734 
L 236.82446 212.849864 
L 236.885603 174.472105 
L 236.905082 55.597344 
L 236.995985 176.436667 
L 237.225408 244.167612 
L 237.316852 245.871669 
L 237.397475 245.209929 
L 237.916922 232.612423 
L 238.111174 219.820781 
L 238.196125 200.504183 
L 238.226426 127.504298 
L 238.23833 55.546897 
L 238.33248 178.505573 
L 238.567313 244.512617 
L 238.645231 245.839725 
L 238.695011 245.60677 
L 239.402758 224.19305 
L 239.542359 193.849318 
L 239.567249 79.142514 
L 239.574284 55.505813 
L 239.665728 176.889628 
L 239.901103 244.584981 
L 239.910301 244.909381 
L 239.985513 245.915603 
L 240.034211 245.582551 
L 240.427584 237.915497 
L 240.428125 237.916499 
L 240.846388 209.020226 
L 240.892922 169.053107 
L 240.910778 55.48482 
L 241.001681 176.633329 
L 241.237056 244.583064 
L 241.237597 244.582679 
L 241.30848 245.944651 
L 241.373952 245.649584 
L 241.443212 244.704296 
L 241.766784 237.781024 
L 241.868509 234.677745 
L 241.86905 234.678286 
L 242.188294 205.881869 
L 242.228335 150.700196 
L 242.242944 55.472065 
L 242.335471 177.783275 
L 242.562729 244.373862 
L 242.635776 245.969849 
L 242.72722 245.247253 
L 242.788364 244.383925 
L 242.968006 240.796181 
L 242.968547 240.805751 
L 243.016704 239.703125 
L 243.180113 234.947255 
L 243.495569 209.994778 
L 243.54535 170.849075 
L 243.563747 55.488867 
L 243.65465 176.606284 
L 243.882991 244.302205 
L 243.960908 245.883634 
L 244.049105 245.282842 
L 244.693545 225.68209 
L 244.846132 198.607423 
L 244.87481 107.425163 
L 244.885091 55.549395 
L 244.979241 178.542519 
L 245.208122 244.242057 
L 245.285498 245.691279 
L 245.346641 245.406139 
L 245.348265 245.413153 
L 245.521955 242.489 
L 245.522496 242.502676 
L 245.583639 241.269561 
L 245.753001 237.095987 
L 245.757329 237.001991 
L 246.048977 223.15989 
L 246.163689 202.089876 
L 246.196154 136.654566 
L 246.208599 55.44696 
L 246.302749 178.377625 
L 246.531089 244.395417 
L 246.611171 245.862917 
L 246.678807 245.458 
L 246.915264 241.153519 
L 246.915805 241.16506 
L 247.100317 236.303809 
L 247.29998 227.891714 
L 247.413068 217.941344 
L 247.485033 199.476231 
L 247.514252 117.453704 
L 247.525073 55.46603 
L 247.619764 178.795246 
L 247.855139 244.69962 
L 247.923857 245.933451 
L 247.986083 245.586603 
L 248.6197 227.770259 
L 248.766877 211.310827 
L 248.819363 178.263401 
L 248.840465 55.340527 
L 248.930828 176.597663 
L 249.171072 244.879922 
L 249.240332 245.974937 
L 249.314461 245.441549 
L 249.853929 231.696422 
L 250.116358 196.503203 
L 250.142871 95.331716 
L 250.15207 55.364324 
L 250.245679 178.508004 
L 250.475642 244.682081 
L 250.563299 246.120321 
L 250.621737 245.71719 
L 251.288902 225.860081 
L 251.408483 211.339465 
L 251.463674 170.964888 
L 251.482071 55.438139 
L 251.572975 176.716745 
L 251.805644 244.427763 
L 251.906287 245.88216 
L 251.931177 245.676014 
L 251.931718 245.676403 
L 251.946327 245.552251 
L 252.340241 237.601549 
L 252.76121 202.894219 
L 252.794758 142.700929 
L 252.808285 55.450628 
L 252.901353 178.044972 
L 253.140515 244.736303 
L 253.221137 245.830509 
L 253.264425 245.527763 
L 253.894796 227.510699 
L 254.066321 202.315592 
L 254.099328 135.127047 
L 254.111773 55.338646 
L 254.205923 178.675511 
L 254.432099 244.426733 
L 254.519215 245.961973 
L 254.580899 245.48739 
L 255.163113 230.183451 
L 255.378467 204.632964 
L 255.415261 149.993717 
L 255.429329 55.471517 
L 255.522397 177.779128 
L 255.757772 244.474853 
L 255.8411 245.741442 
L 255.889798 245.417029 
L 256.252329 237.927112 
L 255.89088 245.418623 
L 256.25287 237.940542 
L 256.427101 232.044725 
L 256.67438 206.875803 
L 256.716044 158.988383 
L 256.731735 55.434078 
L 256.823721 177.325034 
L 257.062883 244.831218 
L 257.1408 245.982686 
L 257.198697 245.587163 
L 257.361024 242.865756 
L 257.362106 242.883677 
L 257.42866 241.44759 
L 257.757644 231.466122 
L 258.011956 198.053505 
L 258.039552 109.533215 
L 258.049833 55.426282 
L 258.144524 178.865804 
L 258.366912 244.191397 
L 258.463226 245.946533 
L 258.51463 245.56892 
L 258.719162 241.977656 
L 259.002694 234.305953 
L 259.255383 217.539104 
L 259.332759 193.02506 
L 259.357649 72.59028 
L 259.364143 55.451831 
L 259.451799 174.977215 
L 259.682845 244.165822 
L 259.776995 245.761206 
L 259.8192 245.528658 
L 259.985856 242.747028 
L 260.570234 216.120399 
L 260.644364 185.777639 
L 260.669254 55.470029 
L 260.760698 176.880748 
L 260.998778 244.646649 
L 260.999319 244.645123 
L 261.079942 245.853038 
L 261.122147 245.647376 
L 261.340748 241.933275 
L 261.571252 235.839769 
L 261.630231 233.854435 
L 261.819613 223.376054 
L 261.947311 195.587118 
L 261.972742 93.979682 
L 261.981399 55.329006 
L 262.075549 178.556863 
L 262.302266 244.484796 
L 262.302807 244.481657 
L 262.316876 245.045515 
L 262.317958 245.034382 
L 262.388841 245.984364 
L 262.439703 245.660346 
L 262.441327 245.672722 
L 262.526819 244.484019 
L 262.814138 238.046078 
L 262.831994 237.578809 
L 262.832535 237.582415 
L 263.040855 229.822264 
L 263.145286 222.767316 
L 263.27136 189.932291 
L 263.299497 55.411788 
L 263.392564 177.883014 
L 263.626316 244.682492 
L 263.703151 246.01311 
L 263.788102 245.33141 
L 263.788643 245.334597 
L 263.818944 244.855337 
L 263.819485 244.86613 
L 264.43687 224.954915 
L 264.585129 194.665426 
L 264.611101 78.380269 
L 264.618135 55.411588 
L 264.709039 176.677712 
L 264.936297 244.276512 
L 265.031529 245.914174 
L 265.078604 245.583416 
L 265.23552 243.036232 
L 265.236061 243.041358 
L 265.46386 237.742185 
L 265.532038 235.713297 
L 265.876713 207.509074 
L 265.92 160.449484 
L 265.935692 55.414513 
L 266.027677 177.212431 
L 266.261969 244.559507 
L 266.345839 245.908863 
L 266.393996 245.606296 
L 266.454598 244.783361 
L 266.708369 239.555535 
L 266.75328 238.383782 
L 267.138537 217.505036 
L 267.220241 187.760567 
L 267.246755 55.393681 
L 267.33874 177.445221 
L 267.560588 244.078836 
L 267.654737 246.055374 
L 267.73049 245.460288 
L 268.005364 240.049887 
L 268.489641 211.23563 
L 268.542668 175.326791 
L 268.562688 55.265704 
L 268.65305 176.757508 
L 268.892753 245.025204 
L 268.893295 245.023135 
L 268.90574 245.409592 
L 268.964719 246.173141 
L 269.025862 245.755756 
L 269.290455 240.912602 
L 269.345647 239.619521 
L 269.772567 217.901615 
L 269.85806 186.505155 
L 269.883491 55.330586 
L 269.974935 177.169566 
L 270.20057 244.313801 
L 270.274159 246.005422 
L 270.340713 245.655933 
L 270.341254 245.66298 
L 270.395363 244.935121 
L 270.635066 240.072878 
L 270.889379 232.253132 
L 271.125295 211.398504 
L 271.180486 172.168763 
L 271.199424 55.451478 
L 271.289786 176.439567 
L 271.525702 244.4979 
L 271.59442 245.769957 
L 271.659351 245.45087 
L 271.663139 245.459888 
L 271.818973 242.806236 
L 272.408221 215.458095 
L 272.479645 183.633167 
L 272.503453 55.449037 
L 272.594356 176.706313 
L 272.81945 244.09635 
L 272.904401 245.801431 
L 272.952017 245.527964 
L 273.459561 233.742441 
L 273.681408 219.713895 
L 273.779887 188.49757 
L 273.806941 55.411863 
L 273.898927 177.330098 
L 274.137007 244.767027 
L 274.207889 245.958865 
L 274.266868 245.591801 
L 274.527133 240.748733 
L 274.916719 226.420024 
L 275.029265 214.390962 
L 275.094196 183.812723 
L 275.118004 55.441561 
L 275.208908 176.714354 
L 275.439953 244.425319 
L 275.523281 245.954574 
L 275.573603 245.651953 
L 275.748916 242.711364 
L 275.749457 242.712414 
L 275.95399 237.75774 
L 276.347904 212.7775 
L 276.409047 172.873596 
L 276.427985 55.313814 
L 276.518889 176.848042 
L 276.745606 244.443185 
L 276.827852 246.086288 
L 276.887913 245.706858 
L 276.889536 245.723163 
L 276.913885 245.407633 
L 277.366237 234.944388 
L 277.7147 194.77146 
L 277.740672 79.113592 
L 277.747706 55.412338 
L 277.839151 176.935228 
L 278.064785 244.194964 
L 278.159476 245.921905 
L 278.20601 245.641186 
L 278.207633 245.64234 
L 278.216291 245.52492 
L 278.482508 240.544013 
L 278.483049 240.557253 
L 278.713012 233.967058 
L 278.844497 227.941882 
L 279.031715 197.772837 
L 279.059311 103.788955 
L 279.06905 55.373706 
L 279.163741 178.958202 
L 279.399657 244.872016 
L 279.483526 246.011519 
L 279.524108 245.682152 
L 279.524649 245.702534 
L 279.60473 244.533154 
L 279.789242 240.715165 
L 279.790324 240.715758 
L 279.834694 239.628573 
L 280.261615 218.839521 
L 280.347648 194.188418 
L 280.373079 78.411319 
L 280.380113 55.572492 
L 280.471017 176.561689 
L 280.712343 244.57446 
L 280.712884 244.574348 
L 280.789719 245.638535 
L 280.840041 245.268016 
L 280.840582 245.273154 
L 280.887116 244.664317 
L 280.888739 244.67163 
L 281.140887 239.328001 
L 281.150086 239.123263 
L 281.348125 232.93694 
L 281.566185 217.690805 
L 281.644643 192.977383 
L 281.67278 58.440152 
L 281.676026 55.416781 
L 281.733382 154.741736 
L 281.943866 240.529653 
L 282.083468 245.95428 
L 282.092666 245.902492 
L 282.093748 245.902752 
L 282.34752 242.026404 
L 282.531491 237.584776 
L 282.688948 232.260328 
L 282.901597 216.025009 
L 282.969775 192.102282 
L 283.000076 55.445682 
L 283.094225 178.505302 
L 283.325271 244.524135 
L 283.415092 245.870249 
L 283.46866 245.441207 
L 283.692131 241.339599 
L 283.692672 241.345961 
L 283.900992 235.798628 
L 284.220236 213.999384 
L 284.284084 181.706557 
L 284.30681 55.401572 
L 284.397172 176.392 
L 284.622266 244.107952 
L 284.707217 245.878923 
L 284.756457 245.683873 
L 284.965318 242.200047 
L 284.965859 242.208554 
L 285.012934 241.234785 
L 285.219631 235.728577 
L 285.336506 231.252896 
L 285.587572 197.178712 
L 285.614627 100.214504 
L 285.623825 55.378592 
L 285.718516 178.808047 
L 285.946857 244.415368 
L 286.028561 245.854566 
L 286.099985 245.347109 
L 286.259066 242.452076 
L 286.272593 242.230186 
L 286.44466 238.13599 
L 286.459811 237.721024 
L 286.769315 223.176045 
L 286.892684 196.803547 
L 286.919738 93.792501 
L 286.928396 55.360562 
L 287.022545 178.599471 
L 287.25792 244.789085 
L 287.326639 246.040147 
L 287.388323 245.672054 
L 287.388864 245.673054 
L 287.402932 245.472447 
L 287.659409 240.601809 
L 287.888832 233.89662 
L 288.073344 223.797932 
L 288.179398 207.896687 
L 288.223226 163.759026 
L 288.24 55.371459 
L 288.331444 177.234286 
L 288.565196 244.674124 
L 288.6469 245.878326 
L 288.708044 245.454403 
L 289.393606 222.628006 
L 289.48505 208.343694 
L 289.531584 157.582801 
L 289.547276 55.377958 
L 289.639261 177.561091 
L 289.873012 244.564599 
L 289.949847 245.947306 
L 290.006121 245.608016 
L 290.15438 243.219786 
L 290.59591 230.221381 
L 290.775552 214.06615 
L 290.837236 185.804636 
L 290.862127 55.380056 
L 290.953571 177.022455 
L 291.182452 244.4558 
L 291.259828 245.996714 
L 291.33504 245.528319 
L 291.481676 243.066108 
L 291.537949 241.858781 
L 292.0693 217.415949 
L 292.146676 191.917584 
L 292.176977 55.349001 
L 292.270045 178.187405 
L 292.50542 244.835229 
L 292.591994 246.052751 
L 292.631494 245.779096 
L 292.876067 241.570588 
L 292.876608 241.576561 
L 292.913402 240.774323 
L 293.121181 235.002993 
L 293.152023 233.946895 
L 293.358179 222.099262 
L 293.469644 197.136871 
L 293.496698 99.924276 
L 293.505897 55.380095 
L 293.600588 178.866105 
L 293.825681 244.45556 
L 293.917126 246.069143 
L 293.951756 245.874183 
L 293.952297 245.879382 
L 294.001536 245.289706 
L 294.002618 245.295966 
L 294.194164 241.707717 
L 294.194705 241.708483 
L 294.614051 227.097483 
L 294.75257 210.850739 
L 294.805597 170.812343 
L 294.823994 55.355043 
L 294.914897 176.729439 
L 295.140532 244.262104 
L 295.233059 245.961166 
L 295.274182 245.71494 
L 295.424605 243.427389 
L 295.857478 231.018194 
L 296.0869 204.960949 
L 296.123695 155.19119 
L 296.138845 55.28507 
L 296.230831 177.594914 
L 296.462417 244.755994 
L 296.55278 246.166008 
L 296.596067 245.85683 
L 296.762723 243.108177 
L 296.763264 243.11651 
L 296.809798 242.139923 
L 297.353594 217.425289 
L 297.434217 188.741927 
L 297.461271 55.394908 
L 297.553798 177.588387 
L 297.78809 244.708753 
L 297.864925 245.962022 
L 297.922822 245.64472 
L 298.263709 238.960404 
L 298.60135 224.764561 
L 298.743657 197.351836 
L 298.771252 96.8288 
L 298.780451 55.364289 
L 298.874601 178.634925 
L 299.10727 244.612955 
L 299.125667 245.191481 
L 299.195468 245.930612 
L 299.243625 245.551193 
L 299.87616 227.791751 
L 300.057967 199.325348 
L 300.086644 120.992668 
L 300.098007 55.324812 
L 300.192698 179.116936 
L 300.427532 244.849284 
L 300.495168 245.94231 
L 300.567674 245.429599 
L 301.183436 228.204758 
L 301.386345 187.695018 
L 301.412858 55.447361 
L 301.504303 177.072894 
L 301.735348 244.344263 
L 301.825169 245.793938 
L 301.883607 245.312988 
L 302.141167 240.445875 
L 302.345158 234.673619 
L 302.607046 217.770032 
L 302.693079 183.920468 
L 302.716887 55.445873 
L 302.807791 176.645393 
L 303.035049 244.268535 
L 303.130281 245.926264 
L 303.177356 245.575156 
L 303.63079 235.577024 
L 303.939212 214.835522 
L 304.006848 183.450024 
L 304.030656 55.423715 
L 304.121018 176.57112 
L 304.361804 244.806902 
L 304.440262 245.927281 
L 304.49383 245.53931 
L 304.653993 242.827124 
L 304.654534 242.833657 
L 304.655075 242.847073 
L 304.715677 241.597518 
L 305.255145 214.569622 
L 305.318993 186.897943 
L 305.344966 55.423208 
L 305.43641 177.110083 
L 305.673949 244.628991 
L 305.730764 245.776172 
L 305.731305 245.771913 
L 305.753489 245.885769 
L 305.824913 245.386499 
L 305.826537 245.38995 
L 306.133876 239.191607 
L 306.134959 239.194924 
L 306.298368 234.335351 
L 306.613283 203.102121 
L 306.647372 141.942068 
L 306.660899 55.404348 
L 306.753967 178.211208 
L 306.981225 244.458459 
L 306.981766 244.454064 
L 307.07808 245.952934 
L 307.109463 245.662288 
L 307.269085 243.128766 
L 307.270167 243.140173 
L 307.312913 242.25476 
L 307.480652 238.27843 
L 307.89134 212.199224 
L 307.948154 177.100295 
L 307.968716 55.34831 
L 308.059078 176.511368 
L 308.290665 244.489366 
L 308.383191 245.978174 
L 308.423232 245.727958 
L 308.638045 242.043632 
L 308.638586 242.056448 
L 308.695401 240.774658 
L 308.695942 240.787213 
L 308.901556 235.026431 
L 309.150999 220.582832 
L 309.240279 201.438377 
L 309.272204 128.074841 
L 309.284108 55.44307 
L 309.378257 178.657354 
L 309.623913 245.07146 
L 309.689926 245.926893 
L 309.741329 245.608138 
L 310.261859 233.112415 
L 310.47072 219.251614 
L 310.567034 185.197783 
L 310.591924 55.332486 
L 310.682828 176.997463 
L 310.923072 244.961113 
L 310.923613 244.958639 
L 310.938764 245.405928 
L 310.993955 246.040514 
L 311.055639 245.619942 
L 311.436026 237.712125 
L 311.836975 209.644501 
L 311.886214 167.011609 
L 311.903529 55.33025 
L 311.994432 176.785373 
L 312.218985 244.247478 
L 312.31584 246.075315 
L 312.367244 245.753932 
L 312.654022 240.342797 
L 312.892102 233.146952 
L 312.939177 231.122578 
L 313.168599 206.163217 
L 313.208099 158.576385 
L 313.223791 55.322138 
L 313.315776 177.487976 
L 313.550609 244.762615 
L 313.644218 246.055863 
L 313.68967 245.633857 
L 314.158796 234.932897 
L 314.495354 201.996129 
L 314.52782 134.263867 
L 314.540265 55.37462 
L 314.634415 178.566571 
L 314.861673 244.514574 
L 314.949329 246.00294 
L 315.006685 245.555191 
L 315.007226 245.560134 
L 315.052137 244.972014 
L 315.281018 240.389432 
L 315.430359 236.279589 
L 315.804794 202.370118 
L 315.837801 136.151223 
L 315.850246 55.266154 
L 315.944396 178.650488 
L 316.177606 244.827091 
L 316.258769 246.155024 
L 316.332358 245.591862 
L 316.590458 240.688345 
L 316.590999 240.698773 
L 316.640239 239.516754 
L 316.64078 239.520193 
L 317.080145 215.901164 
L 317.151569 187.081663 
L 317.177542 55.283409 
L 317.268986 177.213875 
L 317.503279 244.707749 
L 317.576867 246.043687 
L 317.630976 245.730278 
L 318.2976 226.290841 
L 318.412852 213.513067 
L 318.473996 181.727279 
L 318.496721 55.365086 
L 318.587084 176.511793 
L 318.817588 244.570542 
L 318.899293 246.062597 
L 318.972881 245.50413 
L 319.017792 244.918668 
L 319.252084 240.194951 
L 319.257495 240.049423 
L 319.60704 226.831458 
L 319.769367 201.568163 
L 319.800751 136.047565 
L 319.813196 55.281192 
L 319.907345 178.634356 
L 320.139473 244.778363 
L 320.224425 246.066062 
L 320.277993 245.675613 
L 320.464128 242.515831 
L 320.464669 242.516269 
L 320.469539 242.385196 
L 320.47008 242.386624 
L 320.647017 238.162977 
L 320.81746 232.543472 
L 321.071773 208.024307 
L 321.113978 172.014291 
L 321.132916 55.298405 
L 321.223279 176.649018 
L 321.454324 244.647798 
L 321.535488 246.168462 
L 321.587433 245.894464 
L 322.105257 233.795096 
L 322.344419 217.754758 
L 322.429911 185.187249 
L 322.454801 55.321373 
L 322.545705 176.920308 
L 322.771881 244.222035 
L 322.868195 245.913784 
L 322.947194 245.151472 
L 323.605161 223.037753 
L 323.698769 208.888264 
L 323.746385 162.102414 
L 323.762618 55.267224 
L 323.854063 177.23413 
L 324.086732 244.791968 
L 324.170601 246.217612 
L 324.263668 245.306225 
L 324.264209 245.308943 
L 324.291264 244.893374 
L 324.482269 241.213396 
L 324.634857 237.311946 
L 325.037428 205.566312 
L 325.076928 148.276897 
L 325.090996 55.4286 
L 325.184064 177.935115 
L 325.417274 244.505003 
L 325.503308 245.860068 
L 325.572567 245.294845 
L 326.244061 223.110112 
L 326.353361 203.932627 
L 326.389073 144.356844 
L 326.402601 55.352725 
L 326.496209 178.361537 
L 326.731043 244.792352 
L 326.812207 245.994334 
L 326.860905 245.737137 
L 327.098985 241.439646 
L 326.861987 245.741814 
L 327.099526 241.443976 
L 327.15634 240.08031 
L 327.654144 209.518159 
L 327.702842 167.762734 
L 327.720698 55.386305 
L 327.811601 176.912396 
L 328.03886 244.317047 
L 328.134092 245.957115 
L 328.170886 245.70183 
L 328.172509 245.709732 
L 328.399226 241.792757 
L 328.625943 235.871143 
L 328.689792 233.677667 
L 328.900817 220.612872 
L 328.987933 202.812407 
L 329.022022 135.626739 
L 329.034467 55.371845 
L 329.128617 178.542416 
L 329.351005 244.289337 
L 329.431628 246.046476 
L 329.490065 245.775213 
L 329.750871 241.021258 
L 329.751412 241.025858 
L 329.781172 240.337753 
L 330.240017 218.245385 
L 330.32064 194.749443 
L 330.346612 78.68208 
L 330.353647 55.348328 
L 330.44455 176.747341 
L 330.67776 244.703271 
L 330.763252 246.098941 
L 330.836841 245.501797 
L 330.987805 242.935489 
L 331.114961 240.061085 
L 331.565149 217.642419 
L 331.642525 193.358165 
L 331.667415 74.800198 
L 331.673908 55.353081 
L 331.763188 175.831638 
L 331.99207 244.445055 
L 332.082432 246.054632 
L 332.130589 245.694576 
L 332.139247 245.593925 
L 332.131671 245.706647 
L 332.139788 245.597877 
L 332.288047 243.179119 
L 332.480675 238.864269 
L 332.900561 215.003587 
L 332.971985 176.959687 
L 332.992547 55.346513 
L 333.082909 176.571954 
L 333.320448 244.77621 
L 333.389708 246.031396 
L 333.458426 245.657372 
L 333.593699 243.438887 
L 333.59424 243.456103 
L 333.660794 242.058136 
L 333.928093 234.894093 
L 334.105571 226.660751 
L 334.259782 204.237353 
L 334.296576 141.535416 
L 334.309562 55.36913 
L 334.403171 178.224217 
L 334.630429 244.535638 
L 334.63097 244.533106 
L 334.642874 244.974058 
L 334.712134 245.99499 
L 334.764079 245.666088 
L 334.765161 245.682942 
L 335.067089 239.922107 
L 335.541626 213.211055 
L 335.603852 175.990601 
L 335.623872 55.357464 
L 335.714234 176.473364 
L 335.939869 244.302442 
L 336.028067 246.015372 
L 336.077847 245.760388 
L 336.078388 245.777413 
L 336.1536 244.665926 
L 336.367331 240.29339 
L 336.605411 233.169868 
L 336.664931 230.571417 
L 336.775855 223.434694 
L 336.901388 197.176702 
L 336.928442 100.066617 
L 336.937641 55.411755 
L 337.032332 178.835011 
L 337.272576 245.071599 
L 337.35374 246.005077 
L 337.405684 245.556625 
L 337.410554 245.552756 
L 337.417588 245.438932 
L 337.612922 242.017767 
L 337.911604 233.839249 
L 338.220026 200.75885 
L 338.250868 124.661395 
L 338.262231 55.371191 
L 338.356922 178.848143 
L 338.582557 244.387323 
L 338.664803 245.905599 
L 338.710255 245.757711 
L 338.898554 242.735368 
L 338.899095 242.740411 
L 339.462912 218.437149 
L 339.551651 187.377404 
L 339.577623 55.395365 
L 339.669609 177.252434 
L 339.899572 244.550177 
L 339.998592 246.050335 
L 340.067852 245.394673 
L 340.706339 225.94236 
L 340.823215 212.286264 
L 340.875159 187.093528 
L 340.901132 55.326829 
L 340.993117 177.452645 
L 341.225245 244.640682 
L 341.310737 246.029007 
L 341.358353 245.708722 
L 342.047703 223.934933 
L 342.179729 197.146206 
L 342.206243 105.69902 
L 342.215983 55.367566 
L 342.310673 178.889122 
L 342.547671 244.80294 
L 342.627212 245.922765 
L 342.673204 245.587712 
L 343.307363 227.385681 
L 343.393937 220.187973 
L 343.47943 201.580295 
L 343.511895 125.239871 
L 343.523258 55.39698 
L 343.617949 178.80465 
L 343.849536 244.675846 
L 343.938275 245.975398 
L 343.982103 245.691011 
L 344.228841 241.274174 
L 344.229382 241.281743 
L 344.303511 239.563581 
L 344.455558 235.187084 
L 344.759651 213.543386 
L 344.822959 178.172341 
L 344.844061 55.438403 
L 344.934423 176.428948 
L 345.168175 244.472718 
L 345.242304 245.912822 
L 345.297495 245.631984 
L 345.298036 245.632174 
L 345.307776 245.519771 
L 345.310481 245.521228 
L 345.405172 244.083 
L 345.601047 240.009706 
L 345.601588 240.012481 
L 345.912175 229.279346 
L 346.120495 199.747554 
L 346.149713 122.588888 
L 346.161076 55.365144 
L 346.255767 178.984635 
L 346.483567 244.557491 
L 346.496012 245.006644 
L 346.566895 245.905079 
L 346.615052 245.58653 
L 346.617757 245.603236 
L 346.893172 240.372499 
L 346.894255 240.375816 
L 346.902371 240.180759 
L 347.190772 230.614429 
L 347.390435 211.608953 
L 347.446708 170.640043 
L 347.465105 55.288971 
L 347.556009 176.903856 
L 347.792465 244.857179 
L 347.873629 246.123456 
L 347.923951 245.806983 
L 347.924492 245.810445 
L 347.960204 245.327284 
L 348.267002 239.008448 
L 348.685265 215.833459 
L 348.760477 179.98945 
L 348.782121 55.351081 
L 348.873024 176.755129 
L 349.0992 244.38918 
L 349.186857 246.035822 
L 349.243671 245.6835 
L 349.244212 245.691801 
L 349.302109 244.886011 
L 349.691153 235.736367 
L 349.303732 244.888747 
L 349.691695 235.742652 
L 349.895686 226.244432 
L 350.042321 204.833711 
L 350.079657 149.229147 
L 350.093725 55.376545 
L 350.186793 177.979307 
L 350.416215 244.535123 
L 350.506577 246.001141 
L 350.572049 245.477441 
L 350.883177 239.223708 
L 350.883718 239.238407 
L 350.937827 237.694702 
L 351.196468 227.168923 
L 351.346351 208.650248 
L 351.391802 167.916614 
L 351.409658 55.429386 
L 351.500561 176.851606 
L 351.729443 244.339583 
L 351.824134 245.903057 
L 351.854976 245.722454 
L 352.466409 229.351425 
L 352.593024 219.466624 
L 352.689338 188.217445 
L 352.716393 55.338524 
L 352.808378 177.551962 
L 353.048623 244.898431 
L 353.119505 245.961386 
L 353.177402 245.591067 
L 353.177943 245.5927 
L 353.201751 245.319423 
L 353.842944 225.064422 
L 353.974429 204.721197 
L 354.011764 146.790776 
L 354.025833 55.358289 
L 354.1189 178.198307 
L 354.357521 244.918455 
L 354.439226 245.985472 
L 354.486301 245.615379 
L 355.170781 224.038548 
L 355.301725 198.12147 
L 355.32878 117.504731 
L 355.339601 55.452999 
L 355.434292 178.76651 
L 355.669667 244.695234 
L 355.682653 245.078382 
L 355.755159 245.852772 
L 355.803316 245.432395 
L 356.143121 238.573335 
L 356.313565 233.05996 
L 356.314106 233.063037 
L 356.512145 220.618685 
L 356.618199 188.54298 
L 356.645254 55.312 
L 356.737239 177.439663 
L 356.968285 244.559357 
L 357.041873 245.97097 
L 357.094359 245.777226 
L 357.275625 242.918147 
L 357.276166 242.918577 
L 357.281036 242.790486 
L 357.473123 238.240177 
L 357.497472 237.591924 
L 357.907078 206.494235 
L 357.948201 155.087136 
L 357.963351 55.368484 
L 358.055337 177.537577 
L 358.292335 244.66501 
L 358.376745 245.908481 
L 358.428689 245.545709 
L 358.577489 243.07233 
L 358.789597 238.12747 
L 358.987636 231.151489 
L 359.023889 229.392578 
L 359.174854 216.012418 
L 359.245737 189.268103 
L 359.273332 55.500403 
L 359.365859 177.47296 
L 359.598528 244.398714 
L 359.69376 245.78374 
L 359.755444 245.173686 
L 359.88206 243.054632 
L 360.051421 239.221773 
L 360.470767 217.57575 
L 360.551389 189.426051 
L 360.578985 55.293396 
L 360.671511 177.724059 
L 360.905804 244.83066 
L 360.970193 246.051632 
L 361.031337 245.799122 
L 361.183924 243.507391 
L 361.279697 241.587044 
L 361.431744 237.714709 
L 361.450682 237.184305 
L 361.813754 214.773804 
L 361.877062 189.2087 
L 361.904657 55.363086 
L 361.997184 177.73215 
L 362.234723 244.832054 
L 362.316969 245.883672 
L 362.387311 245.284959 
L 362.598336 241.366448 
L 362.598877 241.367331 
L 362.599418 241.371216 
L 362.626473 240.777849 
L 363.091811 219.734677 
L 363.178927 198.538676 
L 363.206522 118.651219 
L 363.217344 55.392909 
L 363.312035 178.834845 
L 363.550115 244.938879 
L 363.627491 245.979048 
L 363.680518 245.64965 
L 363.681059 245.656343 
L 363.733004 244.936051 
L 364.111767 236.352312 
L 364.284375 229.455823 
L 364.488367 203.360826 
L 364.522996 141.053545 
L 364.535983 55.264254 
L 364.629591 178.366626 
L 364.855226 244.503921 
L 364.930979 246.121573 
L 364.989958 245.820896 
L 364.990499 245.839658 
L 365.068957 244.725857 
L 365.069498 244.732269 
L 365.530508 232.915985 
L 365.664157 225.862534 
L 365.766964 214.698115 
L 365.83406 182.818615 
L 365.857327 55.456392 
L 365.94823 176.690572 
L 366.18144 244.449987 
L 366.268015 245.826942 
L 366.3205 245.461318 
L 366.322665 245.471079 
L 366.360541 244.940424 
L 366.60295 240.11564 
L 366.603491 240.124371 
L 366.645696 239.029154 
L 366.646237 239.030073 
L 366.996323 224.232303 
L 367.135924 193.851778 
L 367.160273 83.742933 
L 367.16839 55.332315 
L 367.260375 177.651444 
L 367.495209 244.765496 
L 367.574208 246.052382 
L 367.636975 245.63289 
L 367.895075 240.766574 
L 367.895616 240.772507 
L 367.930787 239.943602 
L 368.151552 233.284261 
L 368.410193 212.07932 
L 368.466467 177.37487 
L 368.487569 55.449158 
L 368.577391 176.34633 
L 368.814388 244.571268 
L 368.887436 245.835717 
L 368.940463 245.539439 
L 369.143372 242.151915 
L 369.156358 241.916991 
L 369.34574 237.194812 
L 369.346281 237.195318 
L 369.350609 237.048641 
L 369.406883 235.298612 
L 369.750476 202.938121 
L 369.784564 137.749005 
L 369.797551 55.341738 
L 369.891159 178.456477 
L 370.122205 244.685483 
L 370.204451 246.074846 
L 370.282368 245.442624 
L 370.44199 242.571413 
L 370.452812 242.355002 
L 370.733097 234.963943 
L 370.742295 234.636 
L 370.984704 220.228491 
L 371.073443 200.2977 
L 371.103744 122.369087 
L 371.115107 55.510649 
L 371.209798 178.729323 
L 371.451124 244.709537 
L 371.520925 245.705706 
L 371.57287 245.39998 
L 371.573952 245.405744 
L 372.218932 225.758255 
L 372.353123 207.058519 
L 372.394787 162.17938 
L 372.41102 55.482972 
L 372.502464 176.857686 
L 372.738921 244.55718 
L 372.821167 245.849079 
L 372.882851 245.399439 
L 372.883933 245.406927 
L 372.955357 244.372496 
L 372.95698 244.375922 
L 373.008925 243.322261 
L 373.201553 239.058275 
L 373.538653 225.26783 
L 373.644707 212.45691 
L 373.704768 171.039377 
L 373.723165 55.389743 
L 373.814068 176.719421 
L 374.051607 244.735409 
L 374.12736 245.935392 
L 374.198784 245.426053 
L 374.200407 245.430173 
L 374.210688 245.308761 
L 374.592698 237.14043 
L 374.681437 234.198733 
L 374.966592 211.709776 
L 375.021783 176.033576 
L 375.041804 55.54349 
L 375.132707 176.45169 
L 375.361588 244.132161 
L 375.450868 245.732342 
L 375.491991 245.456454 
L 375.661894 242.670729 
L 376.158615 224.611787 
L 376.257094 212.252938 
L 376.312826 180.426275 
L 376.335011 55.409658 
L 376.425373 176.547143 
L 376.660207 244.615516 
L 376.743535 245.941618 
L 376.794938 245.601029 
L 376.945903 243.064734 
L 377.393385 229.245591 
L 377.595212 202.346301 
L 377.627677 141.496605 
L 377.641204 55.511946 
L 377.734272 178.006607 
L 377.972893 244.689934 
L 377.973434 244.681758 
L 378.02105 245.628292 
L 378.021591 245.621802 
L 378.051351 245.746291 
L 378.1152 245.277026 
L 378.116282 245.277957 
L 378.475025 237.882749 
L 378.658996 231.401161 
L 378.901405 203.944423 
L 378.936035 152.368966 
L 378.950644 55.34088 
L 379.043171 177.782917 
L 379.285039 245.061395 
L 379.350511 246.044916 
L 379.420852 245.550375 
L 379.536105 243.725923 
L 379.713041 239.85431 
L 379.714124 239.867575 
L 379.722781 239.656198 
L 380.199482 209.838429 
L 380.249804 165.31431 
L 380.266577 55.378646 
L 380.358022 176.960178 
L 380.601513 244.930508 
L 380.657786 245.93202 
L 380.72434 245.55733 
L 380.882339 242.95129 
L 381.366074 226.802493 
L 381.528943 201.283668 
L 381.560326 130.470263 
L 381.57223 55.432942 
L 381.66638 178.533892 
L 381.913658 245.108282 
L 381.984 245.903187 
L 382.039191 245.487852 
L 382.041356 245.502833 
L 382.586775 231.763298 
L 382.818362 209.212228 
L 382.865978 166.732286 
L 382.883293 55.254593 
L 382.974196 176.913133 
L 383.205783 244.765324 
L 383.274502 246.113571 
L 383.347008 245.748258 
L 383.9184 230.774196 
L 384.137001 207.388105 
L 384.179747 160.491683 
L 384.19598 55.357526 
L 384.287424 177.239738 
L 384.515223 244.291812 
L 384.515764 244.290193 
L 384.600175 245.907506 
L 384.649955 245.641407 
L 384.928076 240.42662 
L 384.928617 240.427091 
L 384.934028 240.287705 
L 384.963788 239.526234 
L 385.428044 211.402208 
L 385.481071 178.330201 
L 385.502173 55.500145 
L 385.592535 176.332948 
L 385.828451 244.558332 
L 385.904745 245.862585 
L 385.97671 245.353595 
L 386.1504 242.277475 
L 386.150941 242.289647 
L 386.207215 241.055749 
L 386.226153 240.652585 
L 386.465315 233.687103 
L 386.51239 231.759472 
L 386.737484 211.400306 
L 386.789969 179.383705 
L 386.811613 55.427372 
L 386.901975 176.414278 
L 387.140596 244.727948 
L 387.215808 245.929629 
L 387.27641 245.495195 
L 387.478778 241.880904 
L 387.479319 241.887276 
L 387.517737 241.03856 
L 387.730927 235.199334 
L 387.950068 224.147021 
L 388.09454 186.304089 
L 388.119971 55.382701 
L 388.211415 177.092037 
L 388.44679 244.646834 
L 388.533905 245.91913 
L 388.587473 245.515073 
L 388.588015 245.520998 
L 388.637254 244.869111 
L 388.637795 244.86943 
L 388.830964 241.06418 
L 388.868841 240.195818 
L 389.082031 233.822139 
L 389.2752 223.095646 
L 389.393699 199.274733 
L 389.422918 113.055247 
L 389.433199 55.352859 
L 389.527889 178.863122 
L 389.763264 244.823654 
L 389.841181 245.957984 
L 389.908276 245.526519 
L 390.125254 241.614445 
L 390.381731 234.68365 
L 390.593297 223.364816 
L 390.709632 202.269849 
L 390.742097 140.422772 
L 390.755084 55.449507 
L 390.848692 178.165563 
L 391.082444 244.673426 
L 391.161984 245.975297 
L 391.215552 245.651865 
L 391.478522 240.765401 
L 391.972538 215.588801 
L 392.043962 184.100203 
L 392.068311 55.408208 
L 392.159215 176.928314 
L 392.396212 244.72334 
L 392.396753 244.722464 
L 392.402164 244.904654 
L 392.467636 245.923829 
L 392.52878 245.584623 
L 392.529321 245.586112 
L 392.548259 245.334945 
L 392.5488 245.335621 
L 392.755497 241.436663 
L 392.968687 235.904971 
L 393.291177 214.110813 
L 393.356108 180.886721 
L 393.378292 55.405313 
L 393.469196 176.679315 
L 393.700241 244.489329 
L 393.700783 244.487689 
L 393.784111 246.016015 
L 393.82848 245.784951 
L 393.844172 245.631891 
L 393.845254 245.64726 
L 394.444783 229.94079 
L 394.624966 213.148739 
L 394.686109 177.980696 
L 394.707212 55.373694 
L 394.797574 176.552816 
L 395.032948 244.635969 
L 395.11303 245.965364 
L 395.197981 245.199514 
L 395.349487 242.555919 
L 395.801839 227.215078 
L 395.970118 201.907925 
L 396.002583 132.630433 
L 396.015028 55.436048 
L 396.109178 178.646471 
L 396.344012 244.711002 
L 396.415977 245.920876 
L 396.47225 245.607774 
L 396.86887 237.37302 
L 397.263325 208.695524 
L 397.309318 166.453533 
L 397.326633 55.417246 
L 397.417536 176.77996 
L 397.650205 244.477385 
L 397.730287 245.932311 
L 397.79143 245.534923 
L 397.992175 241.922209 
L 398.132317 238.641693 
L 398.484026 222.523005 
L 398.487273 222.211391 
L 398.487273 222.211391 
" style="fill:none;stroke:#000000;stroke-linecap:square;stroke-width:1.5;"/>
   </g>
   <g id="patch_3">
    <path d="M 57.6 307.584 
L 57.6 41.472 
" style="fill:none;stroke:#000000;stroke-linecap:square;stroke-linejoin:miter;stroke-width:0.8;"/>
   </g>
   <g id="patch_4">
    <path d="M 414.72 307.584 
L 414.72 41.472 
" style="fill:none;stroke:#000000;stroke-linecap:square;stroke-linejoin:miter;stroke-width:0.8;"/>
   </g>
   <g id="patch_5">
    <path d="M 57.6 307.584 
L 414.72 307.584 
" style="fill:none;stroke:#000000;stroke-linecap:square;stroke-linejoin:miter;stroke-width:0.8;"/>
   </g>
   <g id="patch_6">
    <path d="M 57.6 41.472 
L 414.72 41.472 
" style="fill:none;stroke:#000000;stroke-linecap:square;stroke-linejoin:miter;stroke-width:0.8;"/>
   </g>
   <g id="text_15">
    <!-- ChIN_LTS -->
    <defs>
     <path d="M 64.40625 67.28125 
L 64.40625 56.890625 
Q 59.421875 61.53125 53.78125 63.8125 
Q 48.140625 66.109375 41.796875 66.109375 
Q 29.296875 66.109375 22.65625 58.46875 
Q 16.015625 50.828125 16.015625 36.375 
Q 16.015625 21.96875 22.65625 14.328125 
Q 29.296875 6.6875 41.796875 6.6875 
Q 48.140625 6.6875 53.78125 8.984375 
Q 59.421875 11.28125 64.40625 15.921875 
L 64.40625 5.609375 
Q 59.234375 2.09375 53.4375 0.328125 
Q 47.65625 -1.421875 41.21875 -1.421875 
Q 24.65625 -1.421875 15.125 8.703125 
Q 5.609375 18.84375 5.609375 36.375 
Q 5.609375 53.953125 15.125 64.078125 
Q 24.65625 74.21875 41.21875 74.21875 
Q 47.75 74.21875 53.53125 72.484375 
Q 59.328125 70.75 64.40625 67.28125 
z
" id="DejaVuSans-43"/>
     <path d="M 54.890625 33.015625 
L 54.890625 0 
L 45.90625 0 
L 45.90625 32.71875 
Q 45.90625 40.484375 42.875 44.328125 
Q 39.84375 48.1875 33.796875 48.1875 
Q 26.515625 48.1875 22.3125 43.546875 
Q 18.109375 38.921875 18.109375 30.90625 
L 18.109375 0 
L 9.078125 0 
L 9.078125 75.984375 
L 18.109375 75.984375 
L 18.109375 46.1875 
Q 21.34375 51.125 25.703125 53.5625 
Q 30.078125 56 35.796875 56 
Q 45.21875 56 50.046875 50.171875 
Q 54.890625 44.34375 54.890625 33.015625 
z
" id="DejaVuSans-68"/>
     <path d="M 9.8125 72.90625 
L 19.671875 72.90625 
L 19.671875 0 
L 9.8125 0 
z
" id="DejaVuSans-49"/>
     <path d="M 9.8125 72.90625 
L 23.09375 72.90625 
L 55.421875 11.921875 
L 55.421875 72.90625 
L 64.984375 72.90625 
L 64.984375 0 
L 51.703125 0 
L 19.390625 60.984375 
L 19.390625 0 
L 9.8125 0 
z
" id="DejaVuSans-4e"/>
     <path d="M 50.984375 -16.609375 
L 50.984375 -23.578125 
L -0.984375 -23.578125 
L -0.984375 -16.609375 
z
" id="DejaVuSans-5f"/>
     <path d="M 9.8125 72.90625 
L 19.671875 72.90625 
L 19.671875 8.296875 
L 55.171875 8.296875 
L 55.171875 0 
L 9.8125 0 
z
" id="DejaVuSans-4c"/>
     <path d="M -0.296875 72.90625 
L 61.375 72.90625 
L 61.375 64.59375 
L 35.5 64.59375 
L 35.5 0 
L 25.59375 0 
L 25.59375 64.59375 
L -0.296875 64.59375 
z
" id="DejaVuSans-54"/>
     <path d="M 53.515625 70.515625 
L 53.515625 60.890625 
Q 47.90625 63.578125 42.921875 64.890625 
Q 37.9375 66.21875 33.296875 66.21875 
Q 25.25 66.21875 20.875 63.09375 
Q 16.5 59.96875 16.5 54.203125 
Q 16.5 49.359375 19.40625 46.890625 
Q 22.3125 44.4375 30.421875 42.921875 
L 36.375 41.703125 
Q 47.40625 39.59375 52.65625 34.296875 
Q 57.90625 29 57.90625 20.125 
Q 57.90625 9.515625 50.796875 4.046875 
Q 43.703125 -1.421875 29.984375 -1.421875 
Q 24.8125 -1.421875 18.96875 -0.25 
Q 13.140625 0.921875 6.890625 3.21875 
L 6.890625 13.375 
Q 12.890625 10.015625 18.65625 8.296875 
Q 24.421875 6.59375 29.984375 6.59375 
Q 38.421875 6.59375 43.015625 9.90625 
Q 47.609375 13.234375 47.609375 19.390625 
Q 47.609375 24.75 44.3125 27.78125 
Q 41.015625 30.8125 33.5 32.328125 
L 27.484375 33.5 
Q 16.453125 35.6875 11.515625 40.375 
Q 6.59375 45.0625 6.59375 53.421875 
Q 6.59375 63.09375 13.40625 68.65625 
Q 20.21875 74.21875 32.171875 74.21875 
Q 37.3125 74.21875 42.625 73.28125 
Q 47.953125 72.359375 53.515625 70.515625 
z
" id="DejaVuSans-53"/>
    </defs>
    <g transform="translate(208.104375 35.472)scale(0.12 -0.12)">
     <use xlink:href="#DejaVuSans-43"/>
     <use x="69.824219" xlink:href="#DejaVuSans-68"/>
     <use x="133.203125" xlink:href="#DejaVuSans-49"/>
     <use x="162.695312" xlink:href="#DejaVuSans-4e"/>
     <use x="237.5" xlink:href="#DejaVuSans-5f"/>
     <use x="287.5" xlink:href="#DejaVuSans-4c"/>
     <use x="343.009766" xlink:href="#DejaVuSans-54"/>
     <use x="404.09375" xlink:href="#DejaVuSans-53"/>
    </g>
   </g>
   <g id="legend_1">
    <g id="patch_7">
     <path d="M 403.72 54.472 
L 407.72 54.472 
Q 409.72 54.472 409.72 52.472 
L 409.72 48.472 
Q 409.72 46.472 407.72 46.472 
L 403.72 46.472 
Q 401.72 46.472 401.72 48.472 
L 401.72 52.472 
Q 401.72 54.472 403.72 54.472 
z
" style="fill:#ffffff;opacity:0.8;stroke:#cccccc;stroke-linejoin:miter;"/>
    </g>
   </g>
  </g>
 </g>
 <defs>
  <clipPath id="pd1f9006ae6">
   <rect height="266.112" width="357.12" x="57.6" y="41.472"/>
  </clipPath>
 </defs>
</svg>
