<?xml version="1.0" encoding="utf-8" standalone="no"?>
<!DOCTYPE svg PUBLIC "-//W3C//DTD SVG 1.1//EN"
  "http://www.w3.org/Graphics/SVG/1.1/DTD/svg11.dtd">
<!-- Created with matplotlib (http://matplotlib.org/) -->
<svg height="345.6pt" version="1.1" viewBox="0 0 460.8 345.6" width="460.8pt" xmlns="http://www.w3.org/2000/svg" xmlns:xlink="http://www.w3.org/1999/xlink">
 <defs>
  <style type="text/css">
*{stroke-linecap:butt;stroke-linejoin:round;}
  </style>
 </defs>
 <g id="figure_1">
  <g id="patch_1">
   <path d="M 0 345.6 
L 460.8 345.6 
L 460.8 0 
L 0 0 
z
" style="fill:#ffffff;"/>
  </g>
  <g id="axes_1">
   <g id="patch_2">
    <path d="M 57.6 307.584 
L 414.72 307.584 
L 414.72 41.472 
L 57.6 41.472 
z
" style="fill:#ffffff;"/>
   </g>
   <g id="matplotlib.axis_1">
    <g id="xtick_1">
     <g id="line2d_1">
      <defs>
       <path d="M 0 0 
L 0 3.5 
" id="ma5e7bbc777" style="stroke:#000000;stroke-width:0.8;"/>
      </defs>
      <g>
       <use style="stroke:#000000;stroke-width:0.8;" x="73.832727" xlink:href="#ma5e7bbc777" y="307.584"/>
      </g>
     </g>
     <g id="text_1">
      <!-- 0 -->
      <defs>
       <path d="M 31.78125 66.40625 
Q 24.171875 66.40625 20.328125 58.90625 
Q 16.5 51.421875 16.5 36.375 
Q 16.5 21.390625 20.328125 13.890625 
Q 24.171875 6.390625 31.78125 6.390625 
Q 39.453125 6.390625 43.28125 13.890625 
Q 47.125 21.390625 47.125 36.375 
Q 47.125 51.421875 43.28125 58.90625 
Q 39.453125 66.40625 31.78125 66.40625 
z
M 31.78125 74.21875 
Q 44.046875 74.21875 50.515625 64.515625 
Q 56.984375 54.828125 56.984375 36.375 
Q 56.984375 17.96875 50.515625 8.265625 
Q 44.046875 -1.421875 31.78125 -1.421875 
Q 19.53125 -1.421875 13.0625 8.265625 
Q 6.59375 17.96875 6.59375 36.375 
Q 6.59375 54.828125 13.0625 64.515625 
Q 19.53125 74.21875 31.78125 74.21875 
z
" id="DejaVuSans-30"/>
      </defs>
      <g transform="translate(70.651477 322.182437)scale(0.1 -0.1)">
       <use xlink:href="#DejaVuSans-30"/>
      </g>
     </g>
    </g>
    <g id="xtick_2">
     <g id="line2d_2">
      <g>
       <use style="stroke:#000000;stroke-width:0.8;" x="117.12" xlink:href="#ma5e7bbc777" y="307.584"/>
      </g>
     </g>
     <g id="text_2">
      <!-- 2000 -->
      <defs>
       <path d="M 19.1875 8.296875 
L 53.609375 8.296875 
L 53.609375 0 
L 7.328125 0 
L 7.328125 8.296875 
Q 12.9375 14.109375 22.625 23.890625 
Q 32.328125 33.6875 34.8125 36.53125 
Q 39.546875 41.84375 41.421875 45.53125 
Q 43.3125 49.21875 43.3125 52.78125 
Q 43.3125 58.59375 39.234375 62.25 
Q 35.15625 65.921875 28.609375 65.921875 
Q 23.96875 65.921875 18.8125 64.3125 
Q 13.671875 62.703125 7.8125 59.421875 
L 7.8125 69.390625 
Q 13.765625 71.78125 18.9375 73 
Q 24.125 74.21875 28.421875 74.21875 
Q 39.75 74.21875 46.484375 68.546875 
Q 53.21875 62.890625 53.21875 53.421875 
Q 53.21875 48.921875 51.53125 44.890625 
Q 49.859375 40.875 45.40625 35.40625 
Q 44.1875 33.984375 37.640625 27.21875 
Q 31.109375 20.453125 19.1875 8.296875 
z
" id="DejaVuSans-32"/>
      </defs>
      <g transform="translate(104.395 322.182437)scale(0.1 -0.1)">
       <use xlink:href="#DejaVuSans-32"/>
       <use x="63.623047" xlink:href="#DejaVuSans-30"/>
       <use x="127.246094" xlink:href="#DejaVuSans-30"/>
       <use x="190.869141" xlink:href="#DejaVuSans-30"/>
      </g>
     </g>
    </g>
    <g id="xtick_3">
     <g id="line2d_3">
      <g>
       <use style="stroke:#000000;stroke-width:0.8;" x="160.407273" xlink:href="#ma5e7bbc777" y="307.584"/>
      </g>
     </g>
     <g id="text_3">
      <!-- 4000 -->
      <defs>
       <path d="M 37.796875 64.3125 
L 12.890625 25.390625 
L 37.796875 25.390625 
z
M 35.203125 72.90625 
L 47.609375 72.90625 
L 47.609375 25.390625 
L 58.015625 25.390625 
L 58.015625 17.1875 
L 47.609375 17.1875 
L 47.609375 0 
L 37.796875 0 
L 37.796875 17.1875 
L 4.890625 17.1875 
L 4.890625 26.703125 
z
" id="DejaVuSans-34"/>
      </defs>
      <g transform="translate(147.682273 322.182437)scale(0.1 -0.1)">
       <use xlink:href="#DejaVuSans-34"/>
       <use x="63.623047" xlink:href="#DejaVuSans-30"/>
       <use x="127.246094" xlink:href="#DejaVuSans-30"/>
       <use x="190.869141" xlink:href="#DejaVuSans-30"/>
      </g>
     </g>
    </g>
    <g id="xtick_4">
     <g id="line2d_4">
      <g>
       <use style="stroke:#000000;stroke-width:0.8;" x="203.694545" xlink:href="#ma5e7bbc777" y="307.584"/>
      </g>
     </g>
     <g id="text_4">
      <!-- 6000 -->
      <defs>
       <path d="M 33.015625 40.375 
Q 26.375 40.375 22.484375 35.828125 
Q 18.609375 31.296875 18.609375 23.390625 
Q 18.609375 15.53125 22.484375 10.953125 
Q 26.375 6.390625 33.015625 6.390625 
Q 39.65625 6.390625 43.53125 10.953125 
Q 47.40625 15.53125 47.40625 23.390625 
Q 47.40625 31.296875 43.53125 35.828125 
Q 39.65625 40.375 33.015625 40.375 
z
M 52.59375 71.296875 
L 52.59375 62.3125 
Q 48.875 64.0625 45.09375 64.984375 
Q 41.3125 65.921875 37.59375 65.921875 
Q 27.828125 65.921875 22.671875 59.328125 
Q 17.53125 52.734375 16.796875 39.40625 
Q 19.671875 43.65625 24.015625 45.921875 
Q 28.375 48.1875 33.59375 48.1875 
Q 44.578125 48.1875 50.953125 41.515625 
Q 57.328125 34.859375 57.328125 23.390625 
Q 57.328125 12.15625 50.6875 5.359375 
Q 44.046875 -1.421875 33.015625 -1.421875 
Q 20.359375 -1.421875 13.671875 8.265625 
Q 6.984375 17.96875 6.984375 36.375 
Q 6.984375 53.65625 15.1875 63.9375 
Q 23.390625 74.21875 37.203125 74.21875 
Q 40.921875 74.21875 44.703125 73.484375 
Q 48.484375 72.75 52.59375 71.296875 
z
" id="DejaVuSans-36"/>
      </defs>
      <g transform="translate(190.969545 322.182437)scale(0.1 -0.1)">
       <use xlink:href="#DejaVuSans-36"/>
       <use x="63.623047" xlink:href="#DejaVuSans-30"/>
       <use x="127.246094" xlink:href="#DejaVuSans-30"/>
       <use x="190.869141" xlink:href="#DejaVuSans-30"/>
      </g>
     </g>
    </g>
    <g id="xtick_5">
     <g id="line2d_5">
      <g>
       <use style="stroke:#000000;stroke-width:0.8;" x="246.981818" xlink:href="#ma5e7bbc777" y="307.584"/>
      </g>
     </g>
     <g id="text_5">
      <!-- 8000 -->
      <defs>
       <path d="M 31.78125 34.625 
Q 24.75 34.625 20.71875 30.859375 
Q 16.703125 27.09375 16.703125 20.515625 
Q 16.703125 13.921875 20.71875 10.15625 
Q 24.75 6.390625 31.78125 6.390625 
Q 38.8125 6.390625 42.859375 10.171875 
Q 46.921875 13.96875 46.921875 20.515625 
Q 46.921875 27.09375 42.890625 30.859375 
Q 38.875 34.625 31.78125 34.625 
z
M 21.921875 38.8125 
Q 15.578125 40.375 12.03125 44.71875 
Q 8.5 49.078125 8.5 55.328125 
Q 8.5 64.0625 14.71875 69.140625 
Q 20.953125 74.21875 31.78125 74.21875 
Q 42.671875 74.21875 48.875 69.140625 
Q 55.078125 64.0625 55.078125 55.328125 
Q 55.078125 49.078125 51.53125 44.71875 
Q 48 40.375 41.703125 38.8125 
Q 48.828125 37.15625 52.796875 32.3125 
Q 56.78125 27.484375 56.78125 20.515625 
Q 56.78125 9.90625 50.3125 4.234375 
Q 43.84375 -1.421875 31.78125 -1.421875 
Q 19.734375 -1.421875 13.25 4.234375 
Q 6.78125 9.90625 6.78125 20.515625 
Q 6.78125 27.484375 10.78125 32.3125 
Q 14.796875 37.15625 21.921875 38.8125 
z
M 18.3125 54.390625 
Q 18.3125 48.734375 21.84375 45.5625 
Q 25.390625 42.390625 31.78125 42.390625 
Q 38.140625 42.390625 41.71875 45.5625 
Q 45.3125 48.734375 45.3125 54.390625 
Q 45.3125 60.0625 41.71875 63.234375 
Q 38.140625 66.40625 31.78125 66.40625 
Q 25.390625 66.40625 21.84375 63.234375 
Q 18.3125 60.0625 18.3125 54.390625 
z
" id="DejaVuSans-38"/>
      </defs>
      <g transform="translate(234.256818 322.182437)scale(0.1 -0.1)">
       <use xlink:href="#DejaVuSans-38"/>
       <use x="63.623047" xlink:href="#DejaVuSans-30"/>
       <use x="127.246094" xlink:href="#DejaVuSans-30"/>
       <use x="190.869141" xlink:href="#DejaVuSans-30"/>
      </g>
     </g>
    </g>
    <g id="xtick_6">
     <g id="line2d_6">
      <g>
       <use style="stroke:#000000;stroke-width:0.8;" x="290.269091" xlink:href="#ma5e7bbc777" y="307.584"/>
      </g>
     </g>
     <g id="text_6">
      <!-- 10000 -->
      <defs>
       <path d="M 12.40625 8.296875 
L 28.515625 8.296875 
L 28.515625 63.921875 
L 10.984375 60.40625 
L 10.984375 69.390625 
L 28.421875 72.90625 
L 38.28125 72.90625 
L 38.28125 8.296875 
L 54.390625 8.296875 
L 54.390625 0 
L 12.40625 0 
z
" id="DejaVuSans-31"/>
      </defs>
      <g transform="translate(274.362841 322.182437)scale(0.1 -0.1)">
       <use xlink:href="#DejaVuSans-31"/>
       <use x="63.623047" xlink:href="#DejaVuSans-30"/>
       <use x="127.246094" xlink:href="#DejaVuSans-30"/>
       <use x="190.869141" xlink:href="#DejaVuSans-30"/>
       <use x="254.492188" xlink:href="#DejaVuSans-30"/>
      </g>
     </g>
    </g>
    <g id="xtick_7">
     <g id="line2d_7">
      <g>
       <use style="stroke:#000000;stroke-width:0.8;" x="333.556364" xlink:href="#ma5e7bbc777" y="307.584"/>
      </g>
     </g>
     <g id="text_7">
      <!-- 12000 -->
      <g transform="translate(317.650114 322.182437)scale(0.1 -0.1)">
       <use xlink:href="#DejaVuSans-31"/>
       <use x="63.623047" xlink:href="#DejaVuSans-32"/>
       <use x="127.246094" xlink:href="#DejaVuSans-30"/>
       <use x="190.869141" xlink:href="#DejaVuSans-30"/>
       <use x="254.492188" xlink:href="#DejaVuSans-30"/>
      </g>
     </g>
    </g>
    <g id="xtick_8">
     <g id="line2d_8">
      <g>
       <use style="stroke:#000000;stroke-width:0.8;" x="376.843636" xlink:href="#ma5e7bbc777" y="307.584"/>
      </g>
     </g>
     <g id="text_8">
      <!-- 14000 -->
      <g transform="translate(360.937386 322.182437)scale(0.1 -0.1)">
       <use xlink:href="#DejaVuSans-31"/>
       <use x="63.623047" xlink:href="#DejaVuSans-34"/>
       <use x="127.246094" xlink:href="#DejaVuSans-30"/>
       <use x="190.869141" xlink:href="#DejaVuSans-30"/>
       <use x="254.492188" xlink:href="#DejaVuSans-30"/>
      </g>
     </g>
    </g>
   </g>
   <g id="matplotlib.axis_2">
    <g id="ytick_1">
     <g id="line2d_9">
      <defs>
       <path d="M 0 0 
L -3.5 0 
" id="m2c53e302fe" style="stroke:#000000;stroke-width:0.8;"/>
      </defs>
      <g>
       <use style="stroke:#000000;stroke-width:0.8;" x="57.6" xlink:href="#m2c53e302fe" y="276.50813"/>
      </g>
     </g>
     <g id="text_9">
      <!-- −80 -->
      <defs>
       <path d="M 10.59375 35.5 
L 73.1875 35.5 
L 73.1875 27.203125 
L 10.59375 27.203125 
z
" id="DejaVuSans-2212"/>
      </defs>
      <g transform="translate(29.495313 280.307349)scale(0.1 -0.1)">
       <use xlink:href="#DejaVuSans-2212"/>
       <use x="83.789062" xlink:href="#DejaVuSans-38"/>
       <use x="147.412109" xlink:href="#DejaVuSans-30"/>
      </g>
     </g>
    </g>
    <g id="ytick_2">
     <g id="line2d_10">
      <g>
       <use style="stroke:#000000;stroke-width:0.8;" x="57.6" xlink:href="#m2c53e302fe" y="232.253894"/>
      </g>
     </g>
     <g id="text_10">
      <!-- −60 -->
      <g transform="translate(29.495313 236.053113)scale(0.1 -0.1)">
       <use xlink:href="#DejaVuSans-2212"/>
       <use x="83.789062" xlink:href="#DejaVuSans-36"/>
       <use x="147.412109" xlink:href="#DejaVuSans-30"/>
      </g>
     </g>
    </g>
    <g id="ytick_3">
     <g id="line2d_11">
      <g>
       <use style="stroke:#000000;stroke-width:0.8;" x="57.6" xlink:href="#m2c53e302fe" y="187.999659"/>
      </g>
     </g>
     <g id="text_11">
      <!-- −40 -->
      <g transform="translate(29.495313 191.798878)scale(0.1 -0.1)">
       <use xlink:href="#DejaVuSans-2212"/>
       <use x="83.789062" xlink:href="#DejaVuSans-34"/>
       <use x="147.412109" xlink:href="#DejaVuSans-30"/>
      </g>
     </g>
    </g>
    <g id="ytick_4">
     <g id="line2d_12">
      <g>
       <use style="stroke:#000000;stroke-width:0.8;" x="57.6" xlink:href="#m2c53e302fe" y="143.745423"/>
      </g>
     </g>
     <g id="text_12">
      <!-- −20 -->
      <g transform="translate(29.495313 147.544642)scale(0.1 -0.1)">
       <use xlink:href="#DejaVuSans-2212"/>
       <use x="83.789062" xlink:href="#DejaVuSans-32"/>
       <use x="147.412109" xlink:href="#DejaVuSans-30"/>
      </g>
     </g>
    </g>
    <g id="ytick_5">
     <g id="line2d_13">
      <g>
       <use style="stroke:#000000;stroke-width:0.8;" x="57.6" xlink:href="#m2c53e302fe" y="99.491188"/>
      </g>
     </g>
     <g id="text_13">
      <!-- 0 -->
      <g transform="translate(44.2375 103.290407)scale(0.1 -0.1)">
       <use xlink:href="#DejaVuSans-30"/>
      </g>
     </g>
    </g>
    <g id="ytick_6">
     <g id="line2d_14">
      <g>
       <use style="stroke:#000000;stroke-width:0.8;" x="57.6" xlink:href="#m2c53e302fe" y="55.236952"/>
      </g>
     </g>
     <g id="text_14">
      <!-- 20 -->
      <g transform="translate(37.875 59.036171)scale(0.1 -0.1)">
       <use xlink:href="#DejaVuSans-32"/>
       <use x="63.623047" xlink:href="#DejaVuSans-30"/>
      </g>
     </g>
    </g>
   </g>
   <g id="line2d_15">
    <path clip-path="url(#pc6d5ce98bf)" d="M 73.832727 265.444571 
L 74.054033 258.467089 
L 74.417105 248.448856 
L 75.002566 226.367415 
L 75.109161 214.589337 
L 75.178961 177.097118 
L 75.199523 53.568 
L 75.289344 177.701464 
L 75.511191 245.111814 
L 75.582074 246.183623 
L 75.649711 245.486761 
L 75.657286 245.334961 
L 75.658368 245.339482 
L 75.848291 240.583693 
L 76.23463 222.584292 
L 76.365033 184.370686 
L 76.389382 54.05562 
L 76.479744 177.524522 
L 76.703215 244.858048 
L 76.769769 246.008278 
L 76.82983 245.570569 
L 76.830371 245.580994 
L 76.887727 244.559108 
L 77.075485 239.989607 
L 77.396893 226.953175 
L 77.557056 204.720011 
L 77.595473 145.060081 
L 77.609001 54.489634 
L 77.702068 178.48686 
L 77.92608 244.571945 
L 77.995881 245.763686 
L 78.048367 245.452921 
L 78.106263 244.558016 
L 78.410356 236.925727 
L 78.410897 236.936595 
L 78.451479 235.532617 
L 78.57593 230.456187 
L 78.689559 223.049578 
L 78.822668 191.565569 
L 78.852969 54.734936 
L 78.946577 178.793965 
L 79.178164 244.704459 
L 79.242554 245.703398 
L 79.30478 245.289554 
L 79.527709 240.734692 
L 79.704105 235.799312 
L 80.066095 204.907965 
L 80.10343 157.642237 
L 80.119121 54.919692 
L 80.211107 177.565872 
L 80.432954 244.097668 
L 80.517364 245.648541 
L 80.595281 244.930511 
L 81.229981 223.108202 
L 81.365795 191.27449 
L 81.395555 55.072162 
L 81.488623 177.899195 
L 81.717504 244.3725 
L 81.797044 245.5944 
L 81.870092 244.966014 
L 82.046487 241.645018 
L 82.047028 241.659119 
L 82.104925 240.301032 
L 82.590284 215.899766 
L 82.661708 192.006032 
L 82.69255 55.184318 
L 82.785617 178.045848 
L 83.018828 244.328774 
L 83.079971 245.386334 
L 83.142737 244.9916 
L 83.14382 245.001249 
L 83.235805 243.552373 
L 83.550179 235.817865 
L 83.784471 225.091485 
L 83.913792 208.197159 
L 83.959785 167.033413 
L 83.9771 55.250625 
L 84.068544 176.738707 
L 84.296343 244.072866 
L 84.380753 245.475898 
L 84.442979 244.998728 
L 84.589615 242.414903 
L 84.590156 242.430695 
L 84.849338 236.09136 
L 84.849879 236.091511 
L 85.202129 213.023403 
L 85.266519 176.600179 
L 85.287081 55.412854 
L 85.377443 175.973084 
L 85.614441 244.053221 
L 85.690735 245.217017 
L 85.737809 244.933285 
L 85.960198 240.767268 
L 85.96128 240.76902 
L 86.034868 239.004494 
L 86.035409 239.005733 
L 86.51698 208.474124 
L 86.562973 170.85442 
L 86.581911 55.413832 
L 86.672273 176.168903 
L 86.898991 243.729725 
L 86.986647 245.392068 
L 87.028852 245.160124 
L 87.222563 241.750536 
L 87.223104 241.761982 
L 87.27559 240.547073 
L 87.791249 214.70111 
L 87.864838 177.309527 
L 87.88594 55.435771 
L 87.976303 176.111526 
L 88.213841 244.096204 
L 88.287971 245.236922 
L 88.338292 244.871455 
L 88.993012 224.882949 
L 89.138025 201.896637 
L 89.171572 130.975609 
L 89.184017 55.335494 
L 89.277626 178.213192 
L 89.50272 244.011733 
L 89.585507 245.555254 
L 89.639075 245.217147 
L 89.639616 245.2226 
L 89.688314 244.592485 
L 89.882566 240.754489 
L 89.883107 240.759017 
L 89.883648 240.771274 
L 89.938839 239.519283 
L 90.155817 233.143356 
L 90.406883 215.695991 
L 90.481012 188.069372 
L 90.508067 55.439997 
L 90.600593 177.154963 
L 90.822441 243.582426 
L 90.926871 245.406822 
L 90.987473 244.807976 
L 91.160623 241.643253 
L 91.214732 240.499232 
L 91.307799 238.238217 
L 91.671953 222.154847 
L 91.801274 189.064723 
L 91.829411 55.493124 
L 91.921396 177.068943 
L 92.154065 244.042637 
L 92.223325 245.332648 
L 92.298537 244.917952 
L 92.299619 244.931193 
L 92.344529 244.258238 
L 92.345071 244.264914 
L 92.950551 225.503921 
L 93.120454 191.179218 
L 93.150214 55.491215 
L 93.243823 177.794489 
L 93.471081 243.909893 
L 93.559279 245.356174 
L 93.631785 244.72608 
L 93.632867 244.726725 
L 93.892049 239.686095 
L 94.101452 233.700458 
L 94.170711 230.913428 
L 94.376326 214.508795 
L 94.447209 180.728411 
L 94.469935 55.553948 
L 94.560297 176.027313 
L 94.798377 244.134109 
L 94.875212 245.271806 
L 94.949341 244.664429 
L 95.501795 229.823754 
L 95.714985 208.093803 
L 95.758813 173.672438 
L 95.778292 55.527956 
L 95.868655 175.922656 
L 96.109981 244.234398 
L 96.113769 244.404846 
L 96.185193 245.327996 
L 96.241466 244.893075 
L 96.430307 241.51229 
L 96.431389 241.519973 
L 96.470889 240.655724 
L 96.991418 215.865549 
L 97.066089 188.527369 
L 97.093684 55.400863 
L 97.18567 177.057178 
L 97.416716 244.072492 
L 97.502749 245.457381 
L 97.557399 245.055762 
L 97.745699 241.681092 
L 97.987567 235.608721 
L 97.988108 235.614152 
L 98.014621 234.769846 
L 98.295988 218.295075 
L 98.381481 195.010725 
L 98.407453 86.254768 
L 98.415569 55.353225 
L 98.508096 177.311668 
L 98.747258 244.478227 
L 98.814353 245.531184 
L 98.871709 245.1432 
L 99.287808 236.256493 
L 99.64114 215.451508 
L 99.714729 186.242979 
L 99.740701 55.532392 
L 99.832145 176.627117 
L 100.053452 243.356737 
L 100.145978 245.244459 
L 100.193594 244.980587 
L 100.424099 240.792165 
L 100.42464 240.79706 
L 100.453859 240.056102 
L 100.4544 240.063391 
L 100.980881 208.579406 
L 101.027415 170.386569 
L 101.045812 55.464949 
L 101.136716 176.296605 
L 101.364515 243.816075 
L 101.442432 245.377526 
L 101.507904 244.996979 
L 101.685382 241.793394 
L 102.079837 229.785878 
L 102.236212 218.019352 
L 102.320081 194.783812 
L 102.346054 84.234211 
L 102.35417 55.506 
L 102.446156 177.002277 
L 102.670167 243.611279 
L 102.749167 245.189147 
L 102.804899 244.917882 
L 103.336791 232.520289 
L 103.59922 210.953351 
L 103.654412 174.016953 
L 103.674432 55.502349 
L 103.764794 176.130768 
L 103.998545 244.133694 
L 104.072134 245.402389 
L 104.152215 244.767825 
L 104.852928 220.256537 
L 104.944913 201.686227 
L 104.97792 132.185398 
L 104.990365 55.509291 
L 105.084515 178.162457 
L 105.308527 243.7192 
L 105.390231 245.238102 
L 105.465984 244.680941 
L 105.678092 240.652696 
L 105.678633 240.666615 
L 105.736529 239.300824 
L 105.894528 234.848755 
L 106.156957 220.520345 
L 106.261929 195.634523 
L 106.28736 100.967176 
L 106.2971 55.468241 
L 106.391249 178.257572 
L 106.622836 244.103113 
L 106.665583 245.141177 
L 106.708329 245.34788 
L 106.764602 244.896367 
L 106.765143 244.908256 
L 107.004305 240.382128 
L 107.004847 240.383393 
L 107.015127 240.126903 
L 107.015668 240.129314 
L 107.473431 220.670755 
L 107.556218 206.658462 
L 107.598964 158.068763 
L 107.614656 55.437848 
L 107.706641 176.956371 
L 107.931735 243.769808 
L 108.021015 245.337665 
L 108.068631 245.067513 
L 108.287773 241.174537 
L 108.326191 240.328502 
L 108.653551 230.170017 
L 108.889466 202.545943 
L 108.924096 135.537545 
L 108.937082 55.480559 
L 109.030691 178.01013 
L 109.251997 243.654168 
L 109.338031 245.337158 
L 109.402961 244.974121 
L 109.566371 242.039534 
L 109.567453 242.040986 
L 109.568535 242.049276 
L 109.875875 234.017992 
L 110.209728 202.209213 
L 110.243276 138.416208 
L 110.256262 55.50394 
L 110.349871 177.870159 
L 110.570636 243.522067 
L 110.659375 245.32563 
L 110.70158 245.070893 
L 110.703744 245.073306 
L 110.727011 244.835238 
L 110.728093 244.837879 
L 110.980783 240.016918 
L 110.981324 240.016944 
L 110.981865 240.025119 
L 111.023529 238.986673 
L 111.02407 238.991169 
L 111.292451 230.124574 
L 111.488867 212.96184 
L 111.551092 180.343112 
L 111.573277 55.414181 
L 111.663639 176.078121 
L 111.889274 243.809601 
L 111.982883 245.473606 
L 112.026711 245.204934 
L 112.242065 241.393981 
L 112.304832 239.944904 
L 112.826985 208.486068 
L 112.87406 167.942497 
L 112.891916 55.503179 
L 112.982819 176.285225 
L 113.203584 243.42202 
L 113.288535 245.351934 
L 113.337233 245.138618 
L 113.34048 245.16136 
L 113.812852 234.887095 
L 114.127767 213.884096 
L 114.188911 189.909319 
L 114.217588 55.482341 
L 114.310656 177.570834 
L 114.541702 244.04911 
L 114.627194 245.374995 
L 114.67968 245.024169 
L 114.83822 242.34346 
L 114.887459 241.303108 
L 115.049786 237.337574 
L 115.263517 229.663986 
L 115.426927 216.930231 
L 115.497268 198.522995 
L 115.525946 113.890124 
L 115.536768 55.486731 
L 115.631459 178.510265 
L 115.865751 244.197415 
L 115.940963 245.294923 
L 115.986956 244.993436 
L 116.160646 242.130053 
L 116.161187 242.136064 
L 116.198522 241.314073 
L 116.399808 236.320796 
L 116.200687 241.326144 
L 116.400349 236.32427 
L 116.581073 229.646067 
L 116.676847 223.721184 
L 116.821859 191.94077 
L 116.852701 55.437417 
L 116.94631 178.069135 
L 117.175732 243.99993 
L 117.255273 245.438166 
L 117.308841 245.06998 
L 117.980335 225.192954 
L 118.123183 204.671582 
L 118.161059 152.480241 
L 118.175668 55.521854 
L 118.268195 177.075508 
L 118.494912 243.828763 
L 118.585274 245.375027 
L 118.633431 245.052262 
L 118.788724 242.308843 
L 118.789265 242.311278 
L 118.791971 242.321388 
L 118.823895 241.606297 
L 118.824977 241.619297 
L 119.026263 236.607346 
L 119.026804 236.619541 
L 119.073338 235.189419 
L 119.307089 223.985547 
L 119.387712 215.330474 
L 119.462383 183.638117 
L 119.486732 55.480701 
L 119.577094 176.168916 
L 119.808681 243.940387 
L 119.883351 245.384414 
L 119.946118 245.026811 
L 120.147404 241.585203 
L 120.147945 241.589004 
L 120.148486 241.598308 
L 120.197725 240.538811 
L 120.433641 233.986959 
L 120.699857 217.379348 
L 120.78048 193.760388 
L 120.806452 74.557481 
L 120.812945 55.618184 
L 120.902225 175.104989 
L 121.124614 243.282181 
L 121.214976 245.169505 
L 121.259345 244.905612 
L 121.260428 244.915028 
L 121.310208 244.27461 
L 121.356201 243.581848 
L 121.70304 235.361641 
L 121.808012 231.552808 
L 122.036352 213.3435 
L 122.100742 180.175017 
L 122.122927 55.413377 
L 122.213289 176.034209 
L 122.456239 244.37879 
L 122.45678 244.37698 
L 122.519546 245.380852 
L 122.579066 245.0715 
L 122.667264 243.757278 
L 122.976227 236.769358 
L 123.337676 216.627789 
L 123.416134 190.248444 
L 123.445353 55.519798 
L 123.537879 177.268972 
L 123.765679 243.929853 
L 123.84089 245.387409 
L 123.910691 244.933012 
L 124.588137 223.370682 
L 124.702307 206.394403 
L 124.743971 160.269775 
L 124.760204 55.559532 
L 124.851648 176.537823 
L 125.083235 243.840877 
L 125.088646 244.032203 
L 125.164399 245.191117 
L 125.247727 244.453139 
L 125.405725 241.698126 
L 125.780701 230.610732 
L 125.996055 211.159594 
L 126.049623 180.150953 
L 126.071808 55.431819 
L 126.16217 176.060492 
L 126.398627 244.246848 
L 126.468969 245.530096 
L 126.5339 245.188619 
L 126.561495 244.823826 
L 126.724905 241.827721 
L 126.748172 241.334533 
L 127.269242 219.846041 
L 127.355276 202.709371 
L 127.389364 143.019953 
L 127.402892 55.411655 
L 127.495959 177.586028 
L 127.728087 244.083824 
L 127.80384 245.322906 
L 127.854703 245.017025 
L 128.045167 241.776529 
L 128.046249 241.781038 
L 128.166371 239.082478 
L 128.647401 210.382236 
L 128.700428 172.821387 
L 128.719907 55.510404 
L 128.810269 176.118608 
L 129.046185 244.13379 
L 129.047267 244.125764 
L 129.121396 245.327362 
L 129.169012 245.065235 
L 129.337292 242.434162 
L 129.37625 241.654923 
L 129.915718 219.298699 
L 130.017984 187.489684 
L 130.044497 55.5723 
L 130.136483 176.686785 
L 130.362118 243.650847 
L 130.438412 245.221431 
L 130.498473 244.927436 
L 130.499014 244.931607 
L 130.540678 244.395551 
L 130.721402 240.917211 
L 130.721943 240.932166 
L 130.782004 239.574241 
L 130.956777 234.708559 
L 131.253295 215.833676 
L 131.327424 188.935773 
L 131.355561 55.515173 
L 131.448087 177.362305 
L 131.679133 243.97429 
L 131.752721 245.291003 
L 131.813324 244.971806 
L 132.15367 238.118952 
L 132.163409 237.844406 
L 132.323031 232.874511 
L 132.613056 206.139788 
L 132.654179 158.33467 
L 132.669871 55.506558 
L 132.761856 176.845114 
L 132.985327 243.63517 
L 133.072983 245.310754 
L 133.128716 244.986053 
L 133.129257 245.000035 
L 133.200681 243.978246 
L 133.357597 240.869713 
L 133.750429 227.596235 
L 133.9344 203.602408 
L 133.970653 143.437772 
L 133.98418 55.498361 
L 134.077248 177.451949 
L 134.305588 243.875177 
L 134.384047 245.323283 
L 134.483066 244.490373 
L 134.657839 241.048468 
L 134.65838 241.07145 
L 134.730886 239.444982 
L 134.920809 234.109656 
L 135.206505 215.117141 
L 135.279011 184.948083 
L 135.303901 55.57799 
L 135.395345 176.454178 
L 135.618816 243.460249 
L 135.709178 245.238988 
L 135.74976 245.013187 
L 135.907217 242.466927 
L 136.393117 226.882129 
L 136.526767 213.614304 
L 136.588451 187.32179 
L 136.614964 55.398284 
L 136.70695 176.989844 
L 136.933126 243.911843 
L 137.007255 245.397516 
L 137.090583 244.765929 
L 137.159302 243.710407 
L 137.377361 239.07027 
L 137.377903 239.07842 
L 137.418484 238.022133 
L 137.877871 204.480947 
L 137.915747 148.277529 
L 137.929815 55.52724 
L 138.022883 177.427388 
L 138.252305 243.920512 
L 138.33401 245.334392 
L 138.388119 244.955219 
L 138.757684 237.303704 
L 138.8053 235.927385 
L 139.027148 226.521177 
L 139.149434 214.334747 
L 139.217071 185.403028 
L 139.242502 55.528387 
L 139.333405 176.42104 
L 139.564992 243.879568 
L 139.640204 245.361859 
L 139.71758 244.733339 
L 139.718662 244.745225 
L 139.728943 244.567357 
L 139.924276 240.985352 
L 140.464826 215.237882 
L 140.538956 183.422585 
L 140.562764 55.4964 
L 140.653667 176.22722 
L 140.883631 243.893108 
L 140.956137 245.313144 
L 141.027561 244.883025 
L 141.164457 242.57892 
L 141.522659 233.065918 
L 141.598412 229.874744 
L 141.785629 213.66977 
L 141.849478 184.62459 
L 141.874368 55.389465 
L 141.965271 176.557906 
L 142.198481 244.098169 
L 142.272611 245.392699 
L 142.324015 245.107625 
L 142.390569 244.225299 
L 142.593478 240.072837 
L 142.691415 237.718868 
L 143.102103 213.632081 
L 143.16487 186.250465 
L 143.190842 55.486951 
L 143.282287 176.789459 
L 143.512791 243.901348 
L 143.604236 245.283939 
L 143.660509 244.770256 
L 144.080937 235.407569 
L 144.38503 217.915579 
L 144.47431 188.385772 
L 144.501905 55.343601 
L 144.593891 177.204472 
L 144.823313 244.185822 
L 144.912593 245.643287 
L 144.962374 245.24292 
L 144.962915 245.245725 
L 144.994298 244.822386 
L 145.031633 244.221347 
L 145.186927 241.15468 
L 145.722065 216.716923 
L 145.802147 188.910062 
L 145.829743 55.465842 
L 145.922269 177.143253 
L 146.154397 244.022331 
L 146.242054 245.286956 
L 146.286964 244.950668 
L 146.583482 239.159575 
L 146.617571 238.371765 
L 147.012026 219.55697 
L 147.115375 189.059797 
L 147.143511 55.450575 
L 147.236038 177.433807 
L 147.46546 244.001103 
L 147.557987 245.347631 
L 147.60398 244.987906 
L 147.605062 244.988882 
L 147.857751 240.340278 
L 147.858292 240.342715 
L 147.876689 239.9139 
L 148.063907 234.812024 
L 148.408582 206.455055 
L 148.450246 161.044698 
L 148.466479 55.508847 
L 148.557923 176.538018 
L 148.787345 243.873067 
L 148.863098 245.295069 
L 148.957789 244.513468 
L 149.122822 241.497688 
L 149.123363 241.512522 
L 149.183965 240.141018 
L 149.694214 213.731877 
L 149.759686 182.573721 
L 149.783494 55.553708 
L 149.873856 176.112158 
L 150.100573 243.599407 
L 150.118429 244.238817 
L 150.18336 245.182807 
L 150.246127 244.784597 
L 150.414406 241.84911 
L 150.900305 224.978957 
L 151.028544 208.343628 
L 151.075619 164.966029 
L 151.092934 55.436961 
L 151.183837 176.449833 
L 151.417047 244.112695 
L 151.417588 244.109228 
L 151.436527 244.69548 
L 151.501457 245.36222 
L 151.556649 244.938489 
L 151.55719 244.942759 
L 151.596148 244.377333 
L 151.597231 244.38814 
L 152.284416 219.389581 
L 152.36071 205.036194 
L 152.399127 155.393173 
L 152.414278 55.556439 
L 152.506263 176.782889 
L 152.729734 243.578015 
L 152.82713 245.294495 
L 152.900177 244.609314 
L 153.07982 241.284932 
L 153.31303 235.198478 
L 153.424495 231.073641 
L 153.691793 196.170262 
L 153.717766 103.766355 
L 153.727505 55.526421 
L 153.822196 178.394244 
L 154.044585 243.69507 
L 154.126831 245.299075 
L 154.187433 244.916064 
L 154.234508 244.264146 
L 154.394671 241.19377 
L 154.735558 231.06313 
L 154.959028 211.500973 
L 155.014761 178.526649 
L 155.036404 55.358128 
L 155.126767 176.208891 
L 155.350778 243.829246 
L 155.441681 245.606586 
L 155.490921 245.318 
L 155.686255 241.879492 
L 155.686796 241.889221 
L 155.736576 240.794843 
L 155.756055 240.349846 
L 156.281455 213.170885 
L 156.348009 172.857647 
L 156.367488 55.486977 
L 156.45785 176.175001 
L 156.693766 244.14456 
L 156.767354 245.359859 
L 156.817135 245.107321 
L 157.061167 240.850693 
L 157.061708 240.854768 
L 157.089303 240.223446 
L 157.089844 240.236052 
L 157.417745 229.7359 
L 157.605504 213.282671 
L 157.672058 175.7304 
L 157.69262 55.681646 
L 157.782982 175.859857 
L 158.01511 243.656925 
L 158.098979 245.038062 
L 158.144431 244.747721 
L 158.299724 242.289871 
L 158.300806 242.299247 
L 158.3376 241.47615 
L 158.338682 241.494333 
L 158.504797 237.485283 
L 158.505338 237.496069 
L 158.549708 236.164427 
L 158.558365 235.959898 
L 158.958231 198.879655 
L 158.986909 120.901182 
L 158.998272 55.486344 
L 159.092422 178.178297 
L 159.314269 243.641624 
L 159.40409 245.32179 
L 159.455494 245.030826 
L 159.632431 242.054325 
L 159.632972 242.059878 
L 159.669225 241.315511 
L 159.669766 241.317291 
L 160.21248 215.788998 
L 160.285527 189.50775 
L 160.313664 55.539059 
L 160.406732 177.377997 
L 160.634531 243.845837 
L 160.710284 245.295342 
L 160.780625 244.834185 
L 161.004096 240.687299 
L 161.004637 240.698032 
L 161.0555 239.510775 
L 161.056041 239.520343 
L 161.550057 211.927468 
L 161.607412 179.991749 
L 161.629597 55.50437 
L 161.719959 175.915838 
L 161.939101 243.306176 
L 162.035956 245.349197 
L 162.090065 244.967678 
L 162.090607 244.989929 
L 162.172311 243.814615 
L 162.407145 238.892064 
L 162.433117 238.218201 
L 162.838394 217.562722 
L 162.924969 188.871637 
L 162.952564 55.511881 
L 163.045091 177.066962 
L 163.278301 244.009176 
L 163.355136 245.16823 
L 163.408163 244.786514 
L 163.409245 244.790472 
L 163.72903 238.464562 
L 164.13106 218.923119 
L 164.22521 192.747615 
L 164.252265 62.324323 
L 164.256593 55.459106 
L 164.331264 166.511584 
L 164.555276 242.744713 
L 164.669446 245.343304 
L 164.702993 245.066998 
L 164.705158 245.097158 
L 164.777664 244.186051 
L 164.778205 244.18633 
L 165.003299 239.571244 
L 165.219735 233.191254 
L 165.490281 213.380085 
L 165.550342 187.983383 
L 165.577396 55.641633 
L 165.669382 176.743462 
L 165.897722 243.69428 
L 165.989167 245.211471 
L 166.033536 244.895075 
L 166.107665 243.883491 
L 166.278109 240.502238 
L 166.28839 240.289057 
L 166.288931 240.291511 
L 166.492381 234.660878 
L 166.820282 210.139589 
L 166.870063 179.037224 
L 166.891706 55.56282 
L 166.982068 175.871027 
L 167.211491 243.854571 
L 167.212032 243.850879 
L 167.301853 245.342166 
L 167.341894 245.045605 
L 167.342435 245.051817 
L 167.396544 244.402511 
L 167.397085 244.414894 
L 167.72174 237.351784 
L 167.731479 237.058903 
L 168.108079 215.987821 
L 168.189242 178.698325 
L 168.210886 55.461905 
L 168.301248 176.038734 
L 168.538246 244.095277 
L 168.606423 245.297635 
L 168.669731 244.96177 
L 168.670813 244.96513 
L 168.693539 244.629583 
L 169.329862 225.308545 
L 169.469463 205.973916 
L 169.510045 157.950168 
L 169.525737 55.381265 
L 169.617722 177.098736 
L 169.853097 244.330558 
L 169.853638 244.321347 
L 169.902336 245.361895 
L 169.903959 245.347753 
L 169.927767 245.477421 
L 170.005684 244.849546 
L 170.041396 244.32543 
L 170.041937 244.340357 
L 170.25134 240.198792 
L 170.251881 240.200014 
L 170.26162 239.95846 
L 170.262161 239.966725 
L 170.760506 214.270729 
L 170.825978 187.087338 
L 170.852492 55.346507 
L 170.943936 176.879695 
L 171.169571 244.049165 
L 171.266967 245.553342 
L 171.299433 245.327277 
L 171.74962 235.828789 
L 172.11648 209.214826 
L 172.164096 174.980966 
L 172.184116 55.49867 
L 172.274479 175.968734 
L 172.497408 243.581843 
L 172.59264 245.465562 
L 172.633763 245.198177 
L 172.637009 245.200411 
L 172.844247 241.51597 
L 172.856692 241.249093 
L 173.025513 237.148207 
L 173.026054 237.162324 
L 173.07854 235.631756 
L 173.451351 205.367727 
L 173.49031 157.561846 
L 173.506001 55.448679 
L 173.597987 176.956026 
L 173.825786 243.863808 
L 173.903703 245.368104 
L 173.955648 245.181796 
L 174.576279 228.702626 
L 174.778647 204.679874 
L 174.816524 152.459776 
L 174.831133 55.498325 
L 174.92366 177.079364 
L 175.155788 243.991851 
L 175.230999 245.3059 
L 175.321361 244.566567 
L 175.541044 240.318272 
L 175.542668 240.322159 
L 175.566476 239.722327 
L 175.567558 239.726758 
L 175.689844 236.476919 
L 175.974999 223.519115 
L 176.10432 200.654712 
L 176.135162 133.144498 
L 176.147607 55.507627 
L 176.241757 178.156445 
L 176.465228 243.648997 
L 176.539357 245.284996 
L 176.609699 244.868905 
L 176.611322 244.870354 
L 176.649199 244.363485 
L 177.208145 228.54641 
L 177.409431 203.628481 
L 177.445684 143.949791 
L 177.459212 55.473856 
L 177.552279 177.531557 
L 177.778996 243.915519 
L 177.863407 245.410185 
L 177.906694 245.064998 
L 178.017076 243.352883 
L 177.909399 245.083092 
L 178.017617 243.355417 
L 178.354176 235.065842 
L 178.358505 234.953455 
L 178.501353 229.31073 
L 178.697228 209.63196 
L 178.749172 165.029824 
L 178.766487 55.414374 
L 178.857391 176.511614 
L 179.103046 244.54138 
L 179.171223 245.407363 
L 179.222627 245.061019 
L 179.362769 242.681692 
L 179.64576 235.847721 
L 180.035345 201.353914 
L 180.067811 130.291889 
L 180.079715 55.472824 
L 180.173865 178.025233 
L 180.405993 244.085217 
L 180.476876 245.320083 
L 180.53856 244.982425 
L 180.618641 243.83505 
L 181.207889 225.004296 
L 181.360477 199.537953 
L 181.390237 122.086103 
L 181.4016 55.516118 
L 181.496291 178.427972 
L 181.713809 243.527804 
L 181.804172 245.372258 
L 181.852329 245.06036 
L 181.953513 243.594625 
L 181.954054 243.610017 
L 182.099607 240.58725 
L 182.100689 240.597913 
L 182.473501 228.536929 
L 182.675869 202.954902 
L 182.71104 138.665667 
L 182.724026 55.432456 
L 182.817635 177.90197 
L 183.049222 244.173562 
L 183.124433 245.418776 
L 183.175837 245.091411 
L 183.176378 245.09419 
L 183.207761 244.681098 
L 183.528087 238.226546 
L 183.528628 238.227914 
L 183.70286 232.972994 
L 184.011281 200.815995 
L 184.042124 136.488027 
L 184.05511 55.572301 
L 184.148719 177.887259 
L 184.373271 243.715936 
L 184.452812 245.338581 
L 184.520989 244.954916 
L 184.688186 242.395455 
L 184.768268 240.855175 
L 185.183825 229.080745 
L 185.414871 198.892212 
L 185.44409 119.327283 
L 185.455453 56.437603 
L 185.549603 177.101925 
L 185.783354 243.086624 
L 185.892655 244.823229 
L 185.993839 244.137772 
L 185.99438 244.140756 
L 186.032256 243.733178 
L 186.033338 243.750438 
L 186.810345 230.200749 
L 186.909364 225.83969 
L 187.101452 195.915523 
L 187.127965 103.352354 
L 187.137705 57.935747 
L 187.231855 175.366795 
L 187.470476 241.463927 
L 187.623604 244.074087 
L 187.624687 244.055688 
L 187.734528 243.911645 
L 187.637132 244.096216 
L 187.746432 243.919192 
L 187.747514 243.943633 
L 187.851945 243.745071 
L 187.853568 243.763972 
L 187.966656 243.644836 
L 187.864931 243.7753 
L 187.967738 243.65959 
L 188.081908 243.830504 
L 188.090566 243.804925 
L 188.176058 244.008602 
L 188.176599 243.994974 
L 188.291311 244.371581 
L 188.292393 244.346019 
L 188.292934 244.326928 
L 188.389789 244.749435 
L 188.391412 244.737103 
L 188.393036 244.719781 
L 188.515322 245.308052 
L 188.519651 245.284277 
L 188.598109 245.755906 
L 188.59865 245.747391 
L 188.777751 246.957797 
L 188.601356 245.720722 
L 188.779375 246.945943 
L 188.779916 246.929989 
L 188.867572 247.621268 
L 188.869196 247.608986 
L 188.94062 248.312524 
L 188.942243 248.306297 
L 189.071023 249.653068 
L 189.072105 249.651762 
L 189.651613 257.337833 
L 189.935145 261.793208 
L 189.935686 261.780775 
L 189.997911 262.867747 
L 189.999535 262.857113 
L 190.154287 265.324534 
L 190.154828 265.324405 
L 190.161862 265.423655 
L 190.162944 265.423086 
L 190.327977 268.146061 
L 190.3296 268.108902 
L 190.396695 269.256131 
L 190.398319 269.249566 
L 190.627741 272.742811 
L 190.657501 273.162584 
L 190.825239 275.394744 
L 190.827404 275.39375 
L 190.827945 275.392541 
L 190.84526 275.61696 
L 190.846342 275.604841 
L 191.011375 277.618244 
L 191.011916 277.609039 
L 191.692067 283.888249 
L 191.692608 283.875457 
L 192.120611 286.167342 
L 191.696396 283.862921 
L 192.123316 286.158627 
L 192.123857 286.142416 
L 192.218007 286.622205 
L 192.219089 286.616125 
L 192.219631 286.610873 
L 192.290513 286.978235 
L 192.29376 286.951332 
L 192.4128 287.454796 
L 192.414964 287.431936 
L 192.494505 287.744729 
L 192.642223 288.27889 
L 192.503162 287.723678 
L 192.643305 288.275265 
L 192.652503 288.243936 
L 192.74016 288.570828 
L 192.742324 288.563369 
L 192.873809 288.869032 
L 192.874351 288.855799 
L 192.962548 289.193042 
L 192.972829 289.152841 
L 193.091869 289.576211 
L 193.098362 289.573868 
L 193.100527 289.55062 
L 193.194676 289.864466 
L 193.200087 289.837336 
L 193.322915 290.233456 
L 193.204416 289.833056 
L 193.323997 290.203889 
L 193.472797 290.641317 
L 193.326703 290.188019 
L 193.47442 290.61152 
L 193.476044 290.610613 
L 193.513379 290.763872 
L 193.520413 290.761776 
L 193.522577 290.752031 
L 193.641617 291.055644 
L 193.643241 291.034499 
L 193.730356 291.349506 
L 193.735226 291.345703 
L 193.749836 291.329177 
L 193.813143 291.548492 
L 193.820719 291.524766 
L 193.930019 291.838181 
L 193.935971 291.823133 
L 194.295255 292.606532 
L 193.944087 291.785805 
L 194.299043 292.568109 
L 194.302831 292.547556 
L 194.382912 292.776789 
L 194.480308 292.975697 
L 194.397521 292.769703 
L 194.507363 292.959122 
L 194.507904 292.92263 
L 194.604759 293.146478 
L 194.615581 293.116045 
L 194.7541 293.364601 
L 194.618828 293.102666 
L 194.755183 293.353421 
L 194.756265 293.330386 
L 194.853661 293.568141 
L 194.855825 293.544102 
L 194.946729 293.731541 
L 194.861236 293.538956 
L 194.972701 293.72459 
L 194.973242 293.707262 
L 195.078755 293.878132 
L 195.079296 293.861067 
L 195.111761 293.855569 
L 195.146932 293.966274 
L 195.156131 293.956379 
L 195.26489 294.12658 
L 195.165871 293.927547 
L 195.270301 294.1166 
L 195.274089 294.105029 
L 195.355252 294.311455 
L 195.373108 294.284546 
L 195.494313 294.512651 
L 195.374732 294.270276 
L 195.510545 294.495006 
L 195.511628 294.478225 
L 195.611729 294.653497 
L 195.614435 294.618358 
L 195.717783 294.764567 
L 195.634996 294.601932 
L 195.729146 294.70638 
L 195.849268 294.858059 
L 195.757824 294.684195 
L 195.856844 294.847018 
L 195.858467 294.835593 
L 195.906083 294.925557 
L 195.948829 294.928112 
L 196.037027 295.045686 
L 195.981295 294.902903 
L 196.06354 294.973489 
L 196.064081 294.966804 
L 196.16256 295.083393 
L 196.166348 295.062431 
L 196.275648 295.164738 
L 196.171217 295.051722 
L 196.279436 295.150455 
L 196.2816 295.188915 
L 196.456372 295.223505 
L 196.545652 295.308351 
L 196.496954 295.174594 
L 196.56946 295.28646 
L 196.673891 295.368636 
L 196.580282 295.258564 
L 196.683089 295.319415 
L 196.696076 295.273949 
L 196.747479 295.389231 
L 196.779404 295.368414 
L 196.884375 295.463051 
L 196.821068 295.32181 
L 196.893033 295.435619 
L 196.897361 295.482529 
L 196.996381 295.393194 
L 197.002333 295.402167 
L 197.113798 295.365196 
L 197.015319 295.44789 
L 197.114339 295.372262 
L 197.220934 295.488 
L 197.125161 295.355206 
L 197.22905 295.432755 
L 197.277748 295.353326 
L 197.232838 295.464903 
L 197.341056 295.404597 
L 197.367569 295.380443 
L 197.422761 295.480497 
L 197.446569 295.4488 
L 197.509335 295.475491 
L 197.471459 295.402428 
L 197.555869 295.435607 
L 197.665711 295.377608 
L 197.610519 295.472919 
L 197.667875 295.405406 
L 197.698176 295.429254 
L 197.766353 295.346269 
L 197.775011 295.364015 
L 197.851305 295.315746 
L 197.821545 295.393061 
L 197.887558 295.326527 
L 197.965475 295.469796 
L 198.006598 295.421164 
L 198.075316 295.361205 
L 198.038522 295.458046 
L 198.118604 295.390618 
L 198.22574 295.320285 
L 198.155398 295.437571 
L 198.231692 295.345743 
L 198.261452 295.395225 
L 198.311773 295.260622 
L 198.336122 295.293297 
L 198.382115 295.249427 
L 198.350732 295.342869 
L 198.446505 295.295929 
L 198.469231 295.341115 
L 198.495203 295.233666 
L 198.557428 295.322038 
L 198.646167 295.259514 
L 198.561216 295.345484 
L 198.669434 295.280185 
L 198.701359 295.307278 
L 198.759796 295.192521 
L 198.779276 295.224507 
L 198.884788 295.145943 
L 198.802001 295.284829 
L 198.895069 295.159683 
L 198.976233 295.225648 
L 198.921041 295.110047 
L 199.006534 295.178914 
L 199.089862 295.110316 
L 199.200785 295.000664 
L 199.121245 295.127286 
L 199.201868 295.017657 
L 199.237039 295.043021 
L 199.300887 294.938884 
L 199.310627 294.963869 
L 199.410729 294.882915 
L 199.313332 295.000948 
L 199.423715 294.911636 
L 199.432372 294.955691 
L 199.510831 294.76958 
L 199.530851 294.826762 
L 199.531933 294.843409 
L 199.655302 294.632957 
L 199.655843 294.614208 
L 199.69426 294.75203 
L 199.76352 294.719571 
L 199.764061 294.734843 
L 199.864704 294.544772 
L 199.868492 294.557186 
L 200.06599 294.430755 
L 200.073565 294.468524 
L 200.074106 294.473185 
L 200.172585 294.370703 
L 200.175831 294.394247 
L 200.265111 294.303426 
L 200.220742 294.439441 
L 200.287837 294.374169 
L 200.291084 294.415138 
L 200.356556 294.246104 
L 200.374412 294.281733 
L 200.488041 294.154571 
L 200.426356 294.31904 
L 200.488582 294.166476 
L 200.615197 294.036587 
L 200.499404 294.194834 
L 200.617361 294.057608 
L 200.617903 294.066134 
L 200.689868 293.945436 
L 200.723415 293.975661 
L 200.8549 293.811965 
L 200.86464 293.843664 
L 200.865181 293.859286 
L 200.951215 293.649715 
L 200.969612 293.668494 
L 201.011276 293.687183 
L 201.070255 293.566689 
L 201.073501 293.569097 
L 201.079994 293.591931 
L 201.148713 293.462347 
L 201.153041 293.483104 
L 201.260719 293.291161 
L 201.160617 293.505212 
L 201.267212 293.305738 
L 201.272081 293.368528 
L 201.360279 293.184204 
L 201.374348 293.217925 
L 201.484189 293.022488 
L 201.391663 293.220692 
L 201.488518 293.057406 
L 201.531264 293.08929 
L 201.584832 292.954175 
L 201.589161 292.959757 
L 201.680605 292.825755 
L 201.592407 292.987235 
L 201.710365 292.847513 
L 201.711447 292.874364 
L 201.753652 292.740973 
L 201.802351 292.778899 
L 201.913815 292.602464 
L 201.91598 292.628223 
L 201.919767 292.654552 
L 202.016623 292.455531 
L 202.017705 292.473699 
L 202.125382 292.27502 
L 202.031773 292.48768 
L 202.134039 292.294197 
L 202.142697 292.330156 
L 202.230353 292.155077 
L 202.242257 292.198942 
L 202.378612 291.958834 
L 202.387811 292.004358 
L 202.483043 291.878589 
L 202.487913 291.885041 
L 202.495488 291.936233 
L 202.584768 291.712925 
L 202.586391 291.722767 
L 202.692445 291.56819 
L 202.646993 291.727231 
L 202.704349 291.585902 
L 202.737897 291.619858 
L 202.788218 291.472329 
L 202.804992 291.518147 
L 202.919162 291.340637 
L 202.810944 291.532089 
L 202.919703 291.345937 
L 202.921327 291.36843 
L 203.014394 291.182014 
L 203.018723 291.208705 
L 203.139386 290.936407 
L 203.144797 290.961718 
L 203.155619 291.005149 
L 203.242735 290.880979 
L 203.253015 290.888465 
L 203.267084 290.890776 
L 203.368268 290.745948 
L 203.369891 290.767862 
L 203.467828 290.565627 
L 203.472698 290.570975 
L 203.475945 290.586309 
L 203.562519 290.406294 
L 203.568471 290.437937 
L 203.684806 290.197812 
L 203.569553 290.440487 
L 203.689135 290.215417 
L 203.689676 290.23874 
L 203.787072 290.029156 
L 203.795729 290.033076 
L 203.906653 289.941036 
L 203.818996 290.076035 
L 203.9099 289.960432 
L 203.92505 289.984995 
L 204.007837 289.809108 
L 204.010543 289.854994 
L 204.130124 289.586919 
L 204.135535 289.614979 
L 204.232931 289.337268 
L 204.235636 289.387098 
L 204.348724 289.19401 
L 204.237801 289.401797 
L 204.3563 289.246494 
L 204.369827 289.253274 
L 204.441792 289.076815 
L 204.451532 289.096457 
L 204.581393 288.822628 
L 204.452614 289.112558 
L 204.582476 288.836098 
L 204.784844 288.526932 
L 204.597085 288.856955 
L 204.79296 288.591641 
L 204.793501 288.607588 
L 204.889815 288.296493 
L 204.895226 288.346334 
L 205.049437 288.061734 
L 204.903884 288.363318 
L 205.050519 288.071339 
L 205.059177 288.082394 
L 205.148457 287.855822 
L 205.270202 287.669955 
L 205.165772 287.893967 
L 205.272367 287.684571 
L 205.272908 287.685793 
L 205.307537 287.521816 
L 205.321606 287.522624 
L 205.461207 287.259485 
L 205.57159 287.001743 
L 205.463913 287.285201 
L 205.580788 287.015069 
L 205.587823 287.049049 
L 205.687383 286.759746 
L 205.698205 286.794034 
L 205.774499 286.616593 
L 205.781533 286.618835 
L 205.78478 286.640586 
L 205.905984 286.363027 
L 205.912477 286.407201 
L 206.008791 286.183901 
L 206.012038 286.19402 
L 206.122961 285.889746 
L 206.01312 286.209535 
L 206.13216 285.904879 
L 206.132701 285.933953 
L 206.234426 285.712817 
L 206.239837 285.742219 
L 206.242543 285.764887 
L 206.272303 285.617472 
L 206.283124 285.625602 
L 206.402164 285.362968 
L 206.403247 285.382423 
L 206.412986 285.391119 
L 206.497396 285.210957 
L 206.501725 285.223031 
L 206.620224 284.924253 
L 206.502807 285.235566 
L 206.629964 284.933269 
L 206.63321 284.966765 
L 206.733853 284.731585 
L 206.734935 284.740324 
L 206.77714 284.7148 
L 206.782551 284.624687 
L 206.784716 284.636022 
L 206.890769 284.376509 
L 206.788503 284.637759 
L 206.901591 284.412422 
L 207.027124 284.104627 
L 206.903756 284.41435 
L 207.028748 284.13256 
L 207.029289 284.141205 
L 207.115863 283.81298 
L 207.121274 283.84229 
L 207.237609 283.51751 
L 207.123439 283.843227 
L 207.246266 283.566262 
L 207.420497 283.070205 
L 207.425367 283.096193 
L 207.431319 283.112917 
L 207.52114 282.9643 
L 207.527633 282.982709 
L 207.648297 282.579453 
L 207.529257 282.987366 
L 207.654249 282.61903 
L 207.658577 282.654423 
L 207.758138 282.382989 
L 207.759761 282.399102 
L 207.771124 282.41035 
L 207.859863 282.179718 
L 207.98215 281.911173 
L 207.866356 282.22428 
L 207.984855 281.919648 
L 208.002711 281.969992 
L 208.086039 281.68601 
L 208.087663 281.703006 
L 208.179107 281.494764 
L 208.187764 281.52395 
L 208.317085 281.222751 
L 208.200751 281.536498 
L 208.318708 281.250011 
L 208.32466 281.273466 
L 208.41881 280.958047 
L 208.419892 280.984328 
L 208.546508 280.666158 
L 208.54759 280.67381 
L 208.843025 279.895604 
L 208.549213 280.689868 
L 208.849519 279.903639 
L 208.853306 279.93222 
L 208.94962 279.641326 
L 208.955031 279.668926 
L 209.074612 279.308802 
L 209.190406 278.99616 
L 209.081647 279.352709 
L 209.192029 279.010995 
L 209.19257 279.01887 
L 209.284556 278.742388 
L 209.285097 278.744958 
L 209.285638 278.746274 
L 209.337041 278.579885 
L 209.458246 278.21109 
L 209.345158 278.597893 
L 209.460951 278.246131 
L 209.467444 278.268479 
L 209.517225 278.065982 
L 209.521012 278.074069 
L 209.641676 277.753231 
L 209.533457 278.082949 
L 209.644381 277.756786 
L 209.644922 277.793167 
L 209.748271 277.476967 
L 209.751517 277.496644 
L 209.874886 277.146372 
L 209.875968 277.169579 
L 209.876509 277.189549 
L 209.969036 276.81271 
L 209.977152 276.817769 
L 209.990138 276.844549 
L 210.021521 276.704741 
L 210.032884 276.741868 
L 210.143808 276.380562 
L 210.153548 276.417517 
L 210.210362 276.183245 
L 210.212527 276.198146 
L 210.328861 275.88849 
L 210.216855 276.21953 
L 210.329943 275.924701 
L 210.498223 275.352335 
L 210.506339 275.378313 
L 210.509585 275.40059 
L 210.588585 275.137994 
L 210.723316 274.65178 
L 210.723857 274.655986 
L 210.727645 274.663024 
L 210.806644 274.400261 
L 210.807727 274.402337 
L 210.955444 273.999167 
L 210.961937 274.00776 
L 210.967889 274.020832 
L 211.056628 273.732114 
L 211.061498 273.732764 
L 211.064745 273.765481 
L 211.096669 273.597532 
L 211.103162 273.621907 
L 211.217332 273.295401 
L 211.218956 273.330033 
L 211.219497 273.341756 
L 211.312023 272.947442 
L 211.312564 272.959839 
L 211.460823 272.516523 
L 211.321222 272.972608 
L 211.465152 272.546734 
L 211.487337 272.434016 
L 211.502487 272.444463 
L 211.613411 272.017871 
L 211.746519 271.580615 
L 211.616116 272.034452 
L 211.748143 271.592663 
L 211.750307 271.611501 
L 211.842292 271.311176 
L 211.848785 271.316138 
L 211.982976 270.900894 
L 211.984058 270.915046 
L 212.07442 270.608458 
L 212.080372 270.625389 
L 212.235665 270.106882 
L 212.083078 270.646661 
L 212.237289 270.149585 
L 212.241076 270.152009 
L 212.285446 269.974131 
L 212.296268 269.988943 
L 212.419095 269.548371 
L 213.119267 267.105329 
L 212.427212 269.599673 
L 213.121972 267.120128 
L 213.123596 267.14577 
L 213.224239 266.79987 
L 213.493161 265.743447 
L 213.225862 266.819913 
L 213.494784 265.745836 
L 213.495325 265.785261 
L 213.600838 265.420111 
L 213.736652 264.877363 
L 213.738816 264.910883 
L 213.74098 264.922132 
L 213.778316 264.755027 
L 213.779398 264.768674 
L 213.928739 264.170847 
L 213.929821 264.179004 
L 214.012067 263.812823 
L 214.016396 263.832064 
L 214.137059 263.364868 
L 214.141929 263.366171 
L 214.296681 262.778002 
L 214.297222 262.820485 
L 214.401652 262.386673 
L 214.402735 262.389734 
L 214.530432 261.819904 
L 214.531514 261.85131 
L 214.63378 261.419158 
L 214.533137 261.856744 
L 214.634321 261.42972 
L 214.75282 260.986675 
L 214.637568 261.445845 
L 214.754985 260.991151 
L 214.756067 261.0011 
L 214.835607 260.63412 
L 214.837231 260.640551 
L 214.963846 260.121639 
L 214.964928 260.149446 
L 214.96601 260.171909 
L 215.060701 259.734746 
L 215.061242 259.752849 
L 215.177577 259.27501 
L 215.179741 259.277695 
L 215.453533 258.027071 
L 215.182988 259.288003 
L 215.454074 258.036216 
L 215.488704 257.888398 
L 215.455156 258.038952 
L 215.489245 257.896077 
L 215.606662 257.326932 
L 215.609908 257.339729 
L 215.612073 257.360307 
L 215.765201 256.66602 
L 215.765743 256.679404 
L 215.858269 256.22433 
L 216.036288 255.355501 
L 215.860975 256.249919 
L 216.040076 255.381478 
L 216.040617 255.389002 
L 216.116369 254.918147 
L 216.117993 254.920337 
L 216.321984 253.791535 
L 216.121239 254.935539 
L 216.323607 253.811665 
L 216.324148 253.827123 
L 216.412346 253.254564 
L 216.415052 253.265959 
L 216.417757 253.271416 
L 216.540044 252.490222 
L 216.543831 252.510181 
L 216.628241 251.902457 
L 216.628783 251.920276 
L 216.630406 251.921157 
L 216.659084 251.713726 
L 216.659625 251.717904 
L 216.660707 251.725585 
L 216.821411 250.704603 
L 216.821952 250.712673 
L 216.896081 250.172119 
L 217.139572 248.369443 
L 217.140655 248.396667 
L 217.141196 248.418343 
L 217.233722 247.690136 
L 217.234263 247.717014 
L 217.415529 246.189947 
L 217.417152 246.204995 
L 217.478836 245.572035 
L 217.479377 245.57929 
L 217.511843 245.234133 
L 217.512925 245.234941 
L 217.64441 243.826371 
L 217.645492 243.832015 
L 218.392198 226.799077 
L 218.530176 213.823327 
L 218.598353 180.82034 
L 218.621079 56.158683 
L 218.711983 175.397624 
L 218.943569 242.65688 
L 219.063692 244.404458 
L 219.076137 244.301134 
L 219.07776 244.308505 
L 219.128081 243.878379 
L 219.130246 243.886795 
L 219.671878 234.096142 
L 220.041984 201.747176 
L 220.074449 143.100782 
L 220.087977 56.395971 
L 220.181585 176.554836 
L 220.412631 242.440082 
L 220.509487 244.214432 
L 220.551692 244.052116 
L 220.699951 242.352635 
L 220.706444 242.224715 
L 220.706985 242.23019 
L 220.969955 237.663372 
L 221.459101 209.518705 
L 221.509964 171.198507 
L 221.528902 56.282365 
L 221.619805 175.329788 
L 221.857344 242.908558 
L 221.950953 244.378219 
L 222.000192 244.122426 
L 222.573748 233.271349 
L 222.816157 220.817323 
L 222.923293 198.417789 
L 222.951971 115.07362 
L 222.962793 56.228414 
L 223.057484 177.461643 
L 223.292317 243.159616 
L 223.374022 244.653365 
L 223.430836 244.419002 
L 223.562863 242.755616 
L 223.563404 242.759707 
L 223.599116 242.187594 
L 223.599657 242.206847 
L 223.760902 239.416284 
L 223.761443 239.424603 
L 224.29063 215.700292 
L 224.363136 191.287291 
L 224.393437 56.125205 
L 224.487046 177.051926 
L 224.731078 243.612918 
L 224.805207 244.733681 
L 224.858234 244.436176 
L 224.859316 244.462236 
L 224.91559 243.889293 
L 224.917213 243.898472 
L 225.124992 240.52865 
L 225.125533 240.534972 
L 225.167197 239.740003 
L 225.433414 233.200059 
L 225.635782 223.066022 
L 225.775383 192.6926 
L 225.802979 61.475266 
L 225.806767 56.085456 
L 225.877649 163.470455 
L 226.106531 241.822939 
L 226.229359 244.753287 
L 226.24992 244.625411 
L 226.254249 244.635756 
L 226.571328 239.777663 
L 226.755299 235.457728 
L 226.75584 235.462954 
L 226.783977 234.667769 
L 227.149213 204.750355 
L 227.187631 153.022222 
L 227.202781 56.073068 
L 227.294767 176.388537 
L 227.52473 243.174916 
L 227.625914 244.815891 
L 227.678941 244.453746 
L 227.681647 244.453562 
L 227.691927 244.321617 
L 228.218409 233.092198 
L 228.543604 201.340614 
L 228.57607 133.022752 
L 228.588515 55.980444 
L 228.682665 177.498839 
L 228.917498 243.528643 
L 229.003532 244.894538 
L 229.051148 244.63428 
L 229.741039 226.563763 
L 229.919599 198.973241 
L 229.948817 117.994725 
L 229.959639 55.81859 
L 230.05433 177.915267 
L 230.284835 243.763622 
L 230.369786 245.197259 
L 230.426601 244.795464 
L 230.883281 235.97199 
L 231.232285 216.436763 
L 231.308579 192.001236 
L 231.339421 55.927857 
L 231.434112 177.909508 
L 231.675439 243.873888 
L 231.754979 244.942023 
L 231.802595 244.548392 
L 231.927587 242.743643 
L 232.084503 239.670463 
L 232.085044 239.69024 
L 232.153222 238.126773 
L 232.547677 220.1501 
L 232.646156 198.261494 
L 232.674833 111.227989 
L 232.685114 55.891552 
L 232.779805 177.805471 
L 233.011933 243.569089 
L 233.102295 245.002818 
L 233.142877 244.737684 
L 233.219712 243.694577 
L 233.418833 239.86567 
L 233.221335 243.697777 
L 233.419375 239.868864 
L 233.58062 235.879108 
L 233.988602 198.017181 
L 234.016739 111.77359 
L 234.027561 55.766478 
L 234.121711 177.95676 
L 234.346263 243.471694 
L 234.434461 245.116572 
L 234.525364 244.393708 
L 234.769396 239.999976 
L 234.770479 240.005828 
L 234.791581 239.503323 
L 235.300207 212.097137 
L 235.358103 181.354565 
L 235.380829 55.724629 
L 235.471732 175.968011 
L 235.706025 243.736682 
L 235.786106 245.104777 
L 235.844003 244.753201 
L 235.845085 244.755623 
L 235.863482 244.572855 
L 235.864564 244.577321 
L 235.979276 242.651506 
L 236.3483 233.508625 
L 236.691351 186.34925 
L 236.717324 55.763341 
L 236.808768 176.322232 
L 237.044143 243.84674 
L 237.133964 245.121928 
L 237.175087 244.865137 
L 237.50894 238.512861 
L 237.692911 232.980853 
L 237.693452 232.98175 
L 237.699404 232.780624 
L 237.967785 212.662221 
L 238.028387 181.788007 
L 238.051654 55.690607 
L 238.142016 175.878313 
L 238.374685 243.683909 
L 238.468294 245.144192 
L 238.51104 244.874629 
L 238.666874 242.374359 
L 238.886016 237.44547 
L 238.98233 234.688043 
L 239.204719 224.097336 
L 239.321594 208.473077 
L 239.368669 167.949905 
L 239.386525 55.660931 
L 239.477428 176.089567 
L 239.712262 243.908462 
L 239.78585 245.255869 
L 239.844829 244.894281 
L 240.432995 230.533267 
L 240.670534 205.379081 
L 240.711116 147.290199 
L 240.725184 55.591668 
L 240.818252 177.365837 
L 241.041722 243.546091 
L 241.136413 245.203188 
L 241.181865 244.898287 
L 241.369623 241.673046 
L 241.370164 241.678863 
L 241.408041 240.900411 
L 241.408582 240.911853 
L 241.97294 212.000166 
L 242.033542 173.000451 
L 242.053021 55.593302 
L 242.143383 175.912915 
L 242.381463 244.040991 
L 242.402025 244.643648 
L 242.456675 245.255527 
L 242.517818 244.812167 
L 242.519441 244.820622 
L 242.574633 244.069411 
L 242.772672 240.152306 
L 243.281297 215.52733 
L 243.353263 189.531778 
L 243.38194 55.621526 
L 243.474467 177.222882 
L 243.706595 243.904403 
L 243.714711 244.198995 
L 243.77856 245.269119 
L 243.854854 244.806072 
L 244.517149 224.606999 
L 244.665408 198.607611 
L 244.694086 116.172866 
L 244.704908 55.565338 
L 244.799599 178.290782 
L 245.02848 243.998984 
L 245.11289 245.377069 
L 245.192972 244.706995 
L 245.194054 244.70983 
L 245.392634 240.979967 
L 245.393175 240.989026 
L 245.440791 239.929928 
L 245.668049 233.467761 
L 245.735686 230.799099 
L 245.893684 220.557094 
L 245.994327 198.875941 
L 246.023005 121.59879 
L 246.034368 55.59365 
L 246.129059 178.259368 
L 246.356317 243.757155 
L 246.439104 245.159616 
L 246.514316 244.571528 
L 247.132241 226.498526 
L 247.292404 205.999364 
L 247.334068 153.057369 
L 247.349219 55.61958 
L 247.441204 176.953514 
L 247.676579 244.007428 
L 247.748003 245.264382 
L 247.803735 244.98623 
L 247.804276 244.989349 
L 247.836742 244.538836 
L 248.015302 241.276321 
L 248.114863 238.940969 
L 248.358895 231.30528 
L 248.359436 231.310658 
L 248.379456 230.407918 
L 248.486592 224.119036 
L 248.609961 206.336239 
L 248.64946 169.040877 
L 248.667857 55.514731 
L 248.75822 176.134864 
L 248.984937 243.79153 
L 249.073135 245.365756 
L 249.122374 245.048359 
L 249.154839 244.600473 
L 249.363159 240.687283 
L 249.3637 240.696105 
L 249.408611 239.650915 
L 249.409152 239.651684 
L 249.876655 217.269797 
L 249.955113 194.640752 
L 249.981626 77.77054 
L 249.98866 55.442091 
L 250.079023 176.025425 
L 250.307363 243.888616 
L 250.393937 245.455157 
L 250.445341 245.107754 
L 250.693702 240.592834 
L 250.694243 240.593952 
L 250.705065 240.366801 
L 251.162828 221.65266 
L 251.257519 206.261925 
L 251.298641 160.28783 
L 251.314874 55.425888 
L 251.406319 176.731596 
L 251.632495 243.850468 
L 251.709329 245.415145 
L 251.759651 245.186806 
L 251.948492 242.248136 
L 251.760733 245.188901 
L 251.949033 242.25164 
L 252.267735 234.064058 
L 252.268276 234.072786 
L 252.302365 232.828501 
L 252.526918 218.372086 
L 252.610246 197.307009 
L 252.6373 110.878995 
L 252.647581 55.513035 
L 252.742272 178.364619 
L 252.960873 243.459155 
L 253.056646 245.319681 
L 253.10318 245.026305 
L 253.317452 241.283694 
L 253.526313 235.989424 
L 253.628038 232.558462 
L 253.897501 210.287076 
L 253.950528 171.683377 
L 253.969466 55.513253 
L 254.059828 175.978447 
L 254.291415 243.949278 
L 254.379613 245.368328 
L 254.440756 244.930346 
L 254.441297 244.933008 
L 254.468893 244.519452 
L 254.469434 244.537358 
L 254.646912 241.126439 
L 254.811945 236.997808 
L 255.225338 207.896559 
L 255.271872 159.905404 
L 255.288105 55.505693 
L 255.379549 176.67689 
L 255.611136 244.037785 
L 255.613841 244.141749 
L 255.689053 245.394699 
L 255.743162 244.984793 
L 255.963386 241.034272 
L 255.970961 240.859849 
L 255.972044 240.869024 
L 256.15872 236.056876 
L 256.159261 236.059415 
L 256.173329 235.614238 
L 256.515299 213.747184 
L 256.582935 178.425674 
L 256.604579 55.568458 
L 256.694941 176.016731 
L 256.921117 243.605332 
L 256.999034 245.248588 
L 257.086691 244.605008 
L 257.740329 223.97816 
L 257.869108 203.617265 
L 257.90482 148.276252 
L 257.918889 55.482078 
L 258.011956 177.498041 
L 258.241379 243.964991 
L 258.32633 245.427193 
L 258.373405 245.142114 
L 259.01568 227.138588 
L 259.197487 200.78002 
L 259.22887 130.315995 
L 259.241315 55.590922 
L 259.334924 177.84551 
L 259.555689 243.349068 
L 259.643345 245.189559 
L 259.690961 244.903186 
L 259.802967 243.174037 
L 259.803508 243.18863 
L 259.960425 239.866098 
L 259.961507 239.891567 
L 260.029143 238.199078 
L 260.427386 218.58338 
L 260.518831 192.726466 
L 260.544803 67.323308 
L 260.550214 55.594127 
L 260.633542 171.75233 
L 260.85593 243.005741 
L 260.963066 245.260437 
L 261.040983 244.488384 
L 261.043148 244.490465 
L 261.057757 244.290613 
L 261.731956 219.569325 
L 261.822319 199.241211 
L 261.851537 121.845217 
L 261.8629 55.507489 
L 261.957591 178.407556 
L 262.187014 244.049644 
L 262.26926 245.375112 
L 262.328239 244.989911 
L 262.484614 242.286702 
L 262.99865 224.470046 
L 263.105786 211.834303 
L 263.164224 176.211046 
L 263.184785 55.458004 
L 263.275148 176.081518 
L 263.505111 243.964308 
L 263.583569 245.408636 
L 263.6485 244.988786 
L 263.84167 241.64817 
L 263.994799 238.119002 
L 264.43687 210.722704 
L 264.488273 180.70351 
L 264.510999 55.541456 
L 264.601361 176.039554 
L 264.829702 243.755811 
L 264.915735 245.258877 
L 264.968762 244.868823 
L 265.56288 229.00105 
L 265.695447 219.141279 
L 265.794467 189.036222 
L 265.822604 55.415718 
L 265.914589 177.178202 
L 266.154833 244.480102 
L 266.228963 245.432734 
L 266.292812 244.955658 
L 266.603398 238.722236 
L 266.60448 238.729367 
L 266.662377 237.268761 
L 266.984326 222.504381 
L 267.121222 183.278853 
L 267.14503 55.52114 
L 267.235933 176.226723 
L 267.465356 243.922095 
L 267.544896 245.413536 
L 267.598464 245.15505 
L 268.103302 233.422538 
L 268.361402 216.461197 
L 268.433908 194.588391 
L 268.459881 81.868574 
L 268.467456 55.472372 
L 268.5589 176.613668 
L 268.7867 243.735867 
L 268.867863 245.330884 
L 268.919267 245.015487 
L 269.070772 242.519575 
L 269.648657 219.106436 
L 269.742266 194.520787 
L 269.76878 76.537554 
L 269.775814 55.418693 
L 269.865635 175.785845 
L 270.092893 243.830722 
L 270.129146 244.941517 
L 270.169187 245.398963 
L 270.241693 245.014081 
L 270.89479 226.148981 
L 271.052247 204.67784 
L 271.090124 152.431955 
L 271.104733 55.558401 
L 271.19726 177.025932 
L 271.436422 244.173538 
L 271.508387 245.25076 
L 271.573859 244.76346 
L 271.574941 244.767698 
L 271.938013 237.137932 
L 272.113868 231.170456 
L 272.114409 231.178343 
L 272.140922 229.943266 
L 272.347078 210.308018 
L 272.399564 174.189421 
L 272.419584 55.550259 
L 272.509946 176.030248 
L 272.744239 243.894896 
L 272.828649 245.260709 
L 272.873559 244.915694 
L 273.056989 241.763149 
L 273.05753 241.776291 
L 273.116509 240.515144 
L 273.163043 239.388381 
L 273.163584 239.389205 
L 273.655436 210.389359 
L 273.708463 173.304164 
L 273.727942 55.509236 
L 273.818304 176.01801 
L 274.042316 243.578706 
L 274.141335 245.244517 
L 274.191657 244.879414 
L 274.348573 242.30192 
L 274.85287 224.968769 
L 274.983273 207.629577 
L 275.028724 160.965524 
L 275.044957 55.503933 
L 275.136401 176.499571 
L 275.364742 243.775305 
L 275.460515 245.319264 
L 275.516247 244.845288 
L 275.572521 244.014513 
L 275.518412 244.84772 
L 275.573062 244.024419 
L 275.814388 238.85811 
L 275.963729 234.584146 
L 276.294877 208.455241 
L 276.341411 169.070599 
L 276.359808 55.461818 
L 276.45017 176.129603 
L 276.675264 243.657387 
L 276.761297 245.338365 
L 276.805667 245.119597 
L 277.453353 226.694156 
L 277.579968 214.216789 
L 277.648145 182.740595 
L 277.671953 55.485951 
L 277.762316 176.138898 
L 277.997149 244.073835 
L 277.99769 244.07016 
L 278.017711 244.696013 
L 278.035025 245.065419 
L 278.070196 245.34051 
L 278.138915 244.836221 
L 278.139456 244.843971 
L 278.683252 231.243936 
L 278.897524 214.772731 
L 278.967325 185.552338 
L 278.992756 55.492402 
L 279.084201 176.675386 
L 279.320657 244.15137 
L 279.400198 245.290543 
L 279.461341 244.864178 
L 279.70375 240.259521 
L 279.849303 236.499258 
L 280.153396 221.873879 
L 280.267025 199.026526 
L 280.296244 118.270732 
L 280.307607 55.589634 
L 280.401757 178.198968 
L 280.630097 243.895021 
L 280.709638 245.263866 
L 280.766452 244.902613 
L 281.054854 239.383075 
L 281.45959 222.551616 
L 281.575924 201.613101 
L 281.607849 141.188395 
L 281.621376 55.471356 
L 281.714444 177.688822 
L 281.938455 243.86696 
L 282.038016 245.487273 
L 282.072646 245.217429 
L 282.455738 237.248588 
L 282.648367 230.549146 
L 282.825303 217.583519 
L 282.907008 193.483403 
L 282.932439 75.24544 
L 282.939473 55.372191 
L 283.028753 175.622039 
L 283.257094 243.950457 
L 283.331764 245.496115 
L 283.390202 245.267454 
L 283.654796 240.378751 
L 283.863116 234.674472 
L 284.193722 209.588131 
L 284.244044 171.230606 
L 284.262982 55.555501 
L 284.353344 175.958867 
L 284.583849 243.822103 
L 284.670423 245.308059 
L 284.717498 244.99291 
L 284.879825 242.366055 
L 284.988585 240.023405 
L 285.41767 223.109392 
L 285.552401 194.471972 
L 285.578374 80.932188 
L 285.585949 55.538091 
L 285.677393 176.568362 
L 285.906816 243.780111 
L 285.985274 245.298935 
L 286.033972 245.049261 
L 286.165999 243.101259 
L 286.775808 220.158913 
L 286.882944 190.5653 
L 286.912163 55.481585 
L 287.005231 177.526357 
L 287.228701 243.684673 
L 287.308783 245.304947 
L 287.372631 244.977766 
L 287.537664 242.147155 
L 287.538205 242.154295 
L 287.581492 241.264986 
L 287.617204 240.441021 
L 288.086871 220.773079 
L 288.198877 191.322261 
L 288.229178 55.442883 
L 288.322246 177.87498 
L 288.559785 244.423577 
L 288.638243 245.487562 
L 288.688023 245.135989 
L 289.166889 234.320801 
L 289.493167 208.437156 
L 289.540241 167.368342 
L 289.558097 55.530716 
L 289.649001 176.323878 
L 289.873553 243.564521 
L 289.96121 245.2676 
L 290.033716 244.648123 
L 290.034257 244.655038 
L 290.084038 243.886417 
L 290.08512 243.898255 
L 290.265303 240.135318 
L 290.265844 240.143057 
L 290.508794 233.31169 
L 290.763107 216.014459 
L 290.836154 191.274387 
L 290.865914 55.412495 
L 290.960064 178.192217 
L 291.185158 243.95481 
L 291.265239 245.520192 
L 291.332876 245.014343 
L 292.026013 222.800435 
L 292.127197 208.080587 
L 292.173731 163.891348 
L 292.190505 55.502628 
L 292.281949 176.539261 
L 292.509207 243.774674 
L 292.597946 245.25783 
L 292.642316 244.979946 
L 292.643939 244.989986 
L 292.928012 239.544205 
L 292.933964 239.385374 
L 293.375494 218.759651 
L 293.467479 193.046869 
L 293.493452 69.296993 
L 293.499404 55.534913 
L 293.584896 173.182652 
L 293.812695 243.533009 
L 293.8944 245.291097 
L 293.992337 244.520655 
L 294.292643 238.150156 
L 294.57401 227.592484 
L 294.703331 216.206761 
L 294.783412 183.647177 
L 294.807761 55.462631 
L 294.898665 176.502779 
L 295.131334 244.121078 
L 295.131875 244.108812 
L 295.185443 245.268605 
L 295.191936 245.257753 
L 295.211415 245.339402 
L 295.274182 244.879238 
L 295.787136 232.544311 
L 296.013853 217.541052 
L 296.098804 190.320515 
L 296.128023 55.525895 
L 296.221091 177.575212 
L 296.445103 243.714793 
L 296.512198 245.260561 
L 296.584163 244.936379 
L 297.084672 233.01633 
L 297.295156 220.572018 
L 297.393094 200.217633 
L 297.423936 123.42405 
L 297.435299 55.474047 
L 297.52999 178.4168 
L 297.759953 244.018625 
L 297.828672 245.274107 
L 297.886569 244.954081 
L 298.073786 241.784754 
L 298.074868 241.796116 
L 298.075409 241.796422 
L 298.080279 241.687449 
L 298.33351 235.187088 
L 298.334051 235.191688 
L 298.357859 234.449826 
L 298.657082 214.500601 
L 298.722554 189.219635 
L 298.750691 55.513834 
L 298.843217 177.248026 
L 299.067229 243.655941 
L 299.15218 245.304264 
L 299.219817 244.86121 
L 299.897804 223.217408 
L 300.028748 197.754356 
L 300.055802 118.04578 
L 300.067165 55.468121 
L 300.161315 178.417749 
L 300.391279 244.185139 
L 300.39182 244.184806 
L 300.394525 244.311265 
L 300.475689 245.446128 
L 300.532503 244.98505 
L 300.690502 242.257512 
L 301.186141 225.585122 
L 301.332777 205.323527 
L 301.372276 153.643588 
L 301.387427 55.523094 
L 301.479412 176.91849 
L 301.719657 244.191925 
L 301.720198 244.187761 
L 301.747252 244.834181 
L 301.793245 245.154842 
L 301.855471 244.73432 
L 301.86521 244.605029 
L 302.191488 237.540569 
L 302.192029 237.551975 
L 302.239104 236.218493 
L 302.626525 207.64499 
L 302.670895 166.602179 
L 302.688751 55.599192 
L 302.779654 176.33303 
L 303.013405 243.930897 
L 303.017734 244.095987 
L 303.091322 245.15081 
L 303.150842 244.750476 
L 303.249321 243.307376 
L 303.327779 241.811301 
L 303.56153 235.974967 
L 303.562071 235.976508 
L 303.572352 235.671487 
L 303.966266 197.356539 
L 303.993862 104.893833 
L 304.003601 55.542013 
L 304.098292 178.314976 
L 304.325551 243.819025 
L 304.404009 245.280757 
L 304.454871 245.013412 
L 304.52359 244.129885 
L 305.111756 226.180397 
L 305.252439 209.857288 
L 305.302761 174.476542 
L 305.322781 55.431016 
L 305.413143 176.131174 
L 305.644189 243.883856 
L 305.731305 245.377207 
L 305.794071 244.843476 
L 305.973172 241.643979 
L 305.973713 241.644881 
L 305.982912 241.456844 
L 306.553763 213.428588 
L 306.617612 182.828576 
L 306.64142 55.593419 
L 306.731782 175.968198 
L 306.960122 243.690175 
L 307.041286 245.266418 
L 307.095936 244.992229 
L 307.785827 223.06115 
L 307.919476 194.457599 
L 307.944908 85.184718 
L 307.953024 55.45804 
L 308.045551 177.365003 
L 308.284172 244.398447 
L 308.361548 245.440044 
L 308.442711 244.739558 
L 309.129356 221.557037 
L 309.239197 199.253934 
L 309.268416 122.793148 
L 309.279779 55.54981 
L 309.37447 178.343025 
L 309.599023 243.725688 
L 309.599564 243.719347 
L 309.629324 244.649846 
L 309.629865 244.641703 
L 309.670447 245.214532 
L 309.743494 244.789929 
L 309.744035 244.803583 
L 309.814377 243.809437 
L 309.814918 243.810866 
L 310.011334 239.726678 
L 310.239133 233.078217 
L 310.49561 214.770442 
L 310.562705 188.91397 
L 310.590842 55.485387 
L 310.682828 177.177555 
L 310.919284 244.200671 
L 310.943633 244.877463 
L 310.985297 245.296102 
L 311.053475 244.878881 
L 311.197946 242.474931 
L 311.199569 242.478887 
L 311.585908 231.745998 
L 311.820201 212.9111 
L 311.881344 181.890541 
L 311.904611 55.431393 
L 311.994973 176.20453 
L 312.22169 243.792515 
L 312.267683 245.10298 
L 312.314758 245.385761 
L 312.369949 244.95792 
L 312.604783 240.575979 
L 313.115031 216.151514 
L 313.195654 182.40101 
L 313.218921 55.466253 
L 313.309824 176.257987 
L 313.54087 244.001897 
L 313.541411 243.997142 
L 313.565219 244.765725 
L 313.620951 245.378761 
L 313.684259 244.96837 
L 313.692375 244.833325 
L 313.961839 239.686469 
L 314.404451 219.941684 
L 314.500224 198.04797 
L 314.528361 111.933199 
L 314.538641 55.661009 
L 314.633332 178.049892 
L 314.862755 243.803383 
L 314.936884 245.125452 
L 314.996404 244.81051 
L 314.996945 244.815931 
L 315.043479 244.174004 
L 315.04402 244.192855 
L 315.195526 241.280366 
L 315.196067 241.292988 
L 315.251799 240.027542 
L 315.753391 214.589441 
L 315.823732 182.979479 
L 315.84754 55.590729 
L 315.938444 176.179835 
L 316.173277 243.848519 
L 316.248489 245.22321 
L 316.306385 244.882577 
L 316.634287 238.353317 
L 316.634828 238.366602 
L 316.686772 236.951502 
L 317.088262 210.261575 
L 317.140207 174.772101 
L 317.160227 55.471163 
L 317.250589 176.035562 
L 317.477306 243.745474 
L 317.565504 245.309322 
L 317.601757 245.107195 
L 318.290566 224.529323 
L 318.438825 197.42361 
L 318.465879 112.392709 
L 318.476701 55.445484 
L 318.570851 178.345028 
L 318.799732 244.056287 
L 318.874944 245.441584 
L 318.945827 244.934961 
L 319.654656 220.987173 
L 319.768826 191.676784 
L 319.799127 55.484203 
L 319.892736 177.749525 
L 320.111878 243.588017 
L 320.204945 245.361891 
L 320.250397 245.023089 
L 320.250938 245.033224 
L 320.314246 244.168171 
L 320.315328 244.1706 
L 320.542586 239.464435 
L 320.544209 239.465545 
L 320.884556 227.347587 
L 321.026321 213.527002 
L 321.090711 182.638049 
L 321.114519 55.593663 
L 321.204881 176.005329 
L 321.436468 243.768579 
L 321.505728 245.179316 
L 321.576611 244.810131 
L 321.577693 244.818293 
L 321.629638 244.085319 
L 321.806033 240.677018 
L 321.883951 238.842332 
L 321.884492 238.852696 
L 322.06738 233.413593 
L 322.348748 212.268666 
L 322.405021 184.711221 
L 322.429911 55.496245 
L 322.520815 176.401535 
L 322.745367 243.697727 
L 322.85575 245.381779 
L 322.882263 245.087255 
L 323.008879 243.13931 
L 323.00942 243.140173 
L 323.189603 239.165212 
L 323.190144 239.166805 
L 323.202589 238.8604 
L 323.20313 238.86957 
L 323.679831 209.925387 
L 323.732317 168.311961 
L 323.750173 55.474089 
L 323.841076 176.211283 
L 324.074828 244.026687 
L 324.153827 245.349557 
L 324.222545 244.867117 
L 324.499043 239.488343 
L 324.499584 239.500843 
L 324.553152 238.173821 
L 324.566138 237.811504 
L 325.006586 207.468605 
L 325.049873 168.824475 
L 325.068271 55.560987 
L 325.158633 176.079756 
L 325.402665 244.327082 
L 325.470842 245.211449 
L 325.53415 244.777546 
L 325.536855 244.778267 
L 326.234863 221.302599 
L 326.350115 193.898214 
L 326.375546 79.449117 
L 326.383121 55.509233 
L 326.474025 176.390987 
L 326.703988 243.823521 
L 326.793809 245.288135 
L 326.838179 244.954914 
L 326.83872 244.959538 
L 326.886877 244.423768 
L 327.0768 240.725587 
L 327.077341 240.735915 
L 327.231011 236.80325 
L 327.519412 224.042655 
L 327.644945 205.108917 
L 327.683904 152.895307 
L 327.699055 55.42983 
L 327.79104 177.178919 
L 328.014511 243.709719 
L 328.105955 245.399467 
L 328.160605 244.99378 
L 328.161146 244.994004 
L 328.16818 244.889319 
L 328.170886 244.888457 
L 328.704401 231.86106 
L 328.704943 231.861969 
L 328.960879 208.700142 
L 329.009577 164.602845 
L 329.026892 55.550402 
L 329.117795 176.365661 
L 329.355875 244.145218 
L 329.424052 245.280617 
L 329.484655 244.917717 
L 329.715159 240.757275 
L 329.7157 240.765298 
L 329.759529 239.774468 
L 330.060916 230.089387 
L 330.061457 230.096602 
L 330.302243 199.038943 
L 330.331462 118.300946 
L 330.342284 55.589596 
L 330.436975 178.228459 
L 330.665856 243.915524 
L 330.749725 245.235736 
L 330.814656 244.804436 
L 330.993757 241.636973 
L 330.994298 241.642329 
L 331.028928 240.888335 
L 331.518615 220.680338 
L 331.624128 196.428575 
L 331.650641 101.180709 
L 331.660381 55.448314 
L 331.754531 178.286983 
L 331.994234 244.44305 
L 332.059165 245.428354 
L 332.118144 245.096858 
L 332.257204 242.806742 
L 332.257745 242.807276 
L 332.258287 242.814998 
L 332.302115 241.860295 
L 332.302656 241.870531 
L 332.478511 237.616758 
L 332.848076 219.117768 
L 332.937356 197.62366 
L 332.965492 103.551092 
L 332.975232 55.485318 
L 333.069382 178.113482 
L 333.295558 243.878265 
L 333.296099 243.868501 
L 333.339386 245.090421 
L 333.370769 245.327861 
L 333.434077 244.964091 
L 333.638068 241.396829 
L 333.4357 244.970726 
L 333.638609 241.400364 
L 333.841519 236.396611 
L 334.133167 222.724149 
L 334.231645 208.482791 
L 334.277097 173.021415 
L 334.296576 55.480668 
L 334.386938 176.071213 
L 334.623395 244.069565 
L 334.688326 245.318064 
L 334.761914 244.888739 
L 334.930735 241.912788 
L 334.931276 241.922026 
L 334.979433 240.847184 
L 335.468038 220.889176 
L 335.5584 204.878311 
L 335.595735 159.214522 
L 335.611968 55.599993 
L 335.703412 176.642934 
L 335.928506 243.593843 
L 336.019409 245.18612 
L 336.06919 244.907515 
L 336.748259 223.852333 
L 336.890025 195.867477 
L 336.916538 92.763271 
L 336.925196 55.423967 
L 337.018804 177.894214 
L 337.24985 244.198729 
L 337.33426 245.446936 
L 337.390534 245.053613 
L 338.023069 227.44083 
L 338.099363 221.865927 
L 338.215156 197.937352 
L 338.243293 109.447349 
L 338.253574 55.590624 
L 338.348265 178.292995 
L 338.588509 244.219431 
L 338.649111 245.203367 
L 338.713501 244.811447 
L 338.732439 244.591326 
L 338.880157 241.980211 
L 338.895308 241.668153 
L 339.460207 216.135141 
L 339.538124 186.608398 
L 339.564096 55.44102 
L 339.65554 176.655704 
L 339.889292 244.219018 
L 339.969373 245.509785 
L 340.028352 245.086703 
L 340.657641 227.539892 
L 340.84594 201.184872 
L 340.877865 132.364093 
L 340.89031 55.436646 
L 340.98446 178.22859 
L 341.207389 243.759808 
L 341.298833 245.39849 
L 341.39136 244.591554 
L 341.583988 240.875614 
L 341.585071 240.875709 
L 341.820445 234.473358 
L 342.079628 219.649107 
L 342.181353 190.917571 
L 342.211113 55.420623 
L 342.30418 177.721063 
L 342.528733 243.855058 
L 342.618013 245.390955 
L 342.663465 245.096504 
L 342.872867 241.406213 
L 342.873408 241.42056 
L 342.931846 240.039251 
L 343.174796 233.019505 
L 343.479971 201.654584 
L 343.512436 137.509574 
L 343.525423 55.498982 
L 343.619031 177.83077 
L 343.847913 243.913762 
L 343.932323 245.354542 
L 343.982644 244.997505 
L 344.131985 242.50485 
L 344.133068 242.507651 
L 344.133609 242.518781 
L 344.187177 241.34704 
L 344.188259 241.357776 
L 344.389004 236.194872 
L 344.389545 236.205893 
L 344.432832 234.840776 
L 344.730973 216.448137 
L 344.807267 190.798459 
L 344.837027 55.489329 
L 344.930095 177.69052 
L 345.163846 244.15989 
L 345.245009 245.419076 
L 345.287215 245.119531 
L 345.447919 242.60659 
L 345.44846 242.606922 
L 345.449001 242.612308 
L 345.485795 241.867894 
L 345.763916 234.80549 
L 345.936524 227.456354 
L 346.130775 197.165841 
L 346.15783 107.217334 
L 346.168111 55.415882 
L 346.26226 178.379361 
L 346.492765 244.233598 
L 346.569059 245.489214 
L 346.634531 245.005189 
L 347.283299 225.956363 
L 347.462941 188.341922 
L 347.490537 55.518951 
L 347.582522 177.049204 
L 347.820061 244.191754 
L 347.887697 245.317181 
L 347.956416 244.827747 
L 348.262132 238.616147 
L 348.262673 238.618632 
L 348.383878 235.215922 
L 348.7621 197.536642 
L 348.789155 114.658758 
L 348.799977 55.502345 
L 348.894668 178.512428 
L 349.123008 244.003897 
L 349.19822 245.397228 
L 349.255575 245.068989 
L 349.326999 244.062205 
L 349.477964 241.201088 
L 349.575901 238.929996 
L 349.969274 222.131915 
L 350.085068 199.389249 
L 350.114287 124.875741 
L 350.126191 55.518214 
L 350.22034 178.26488 
L 350.455174 244.185082 
L 350.530927 245.347217 
L 350.591529 244.87019 
L 350.898327 238.850224 
L 351.2219 227.006956 
L 351.397213 202.465855 
L 351.43022 148.392824 
L 351.444288 55.53284 
L 351.537356 177.442814 
L 351.76786 243.920561 
L 351.845777 245.269553 
L 351.909626 244.785256 
L 352.108207 241.189767 
L 352.108748 241.19571 
L 352.145001 240.395193 
L 352.327348 235.596435 
L 352.542703 226.137261 
L 352.678516 210.710106 
L 352.734249 168.453547 
L 352.752105 55.483051 
L 352.843008 176.238254 
L 353.0773 244.168852 
L 353.153053 245.459404 
L 353.204998 245.133922 
L 353.371654 242.316658 
L 353.372195 242.327671 
L 353.5632 237.797624 
L 353.993908 210.527278 
L 354.045853 177.707246 
L 354.066956 55.487377 
L 354.157318 175.948283 
L 354.379706 243.469259 
L 354.480349 245.289523 
L 354.53554 244.853164 
L 354.650252 242.952056 
L 354.848832 238.582132 
L 354.849373 238.584539 
L 354.902941 237.192143 
L 355.344471 199.584656 
L 355.374231 123.561095 
L 355.385594 55.636397 
L 355.480285 178.147254 
L 355.698886 243.355149 
L 355.787084 245.149919 
L 355.8347 244.884694 
L 355.835782 244.893776 
L 356.077108 240.642862 
L 356.277312 235.4548 
L 356.297873 234.803957 
L 356.545152 221.781421 
L 356.657699 198.930131 
L 356.686918 115.659389 
L 356.69774 55.471235 
L 356.792431 178.47056 
L 357.016983 243.853552 
L 357.102476 245.424474 
L 357.146845 245.156103 
L 357.859462 222.357635 
L 357.940084 211.800493 
L 357.999604 173.046122 
L 358.019084 55.461882 
L 358.109446 176.047629 
L 358.346985 244.122388 
L 358.424361 245.288843 
L 358.472518 245.017426 
L 358.618071 242.693093 
L 358.618612 242.699809 
L 358.993588 232.712967 
L 359.26738 209.788932 
L 359.317702 173.477198 
L 359.337181 55.488615 
L 359.427543 175.957114 
L 359.652637 243.656379 
L 359.653178 243.6518 
L 359.74354 245.366548 
L 359.794944 245.052243 
L 359.796567 245.057426 
L 360.391767 229.15983 
L 360.5963 206.466648 
L 360.638505 158.233423 
L 360.654196 55.433103 
L 360.746182 176.929466 
L 360.982639 244.190336 
L 361.067049 245.354979 
L 361.109795 245.088081 
L 361.271581 242.42266 
L 361.312163 241.622568 
L 361.87598 215.812674 
L 361.95552 179.994962 
L 361.977705 55.557437 
L 362.068067 175.885613 
L 362.301818 243.882747 
L 362.379194 245.147907 
L 362.466851 244.409055 
L 363.148625 220.657058 
L 363.253056 196.90357 
L 363.280111 103.198707 
L 363.28985 55.504878 
L 363.384 178.140794 
L 363.616669 244.149188 
L 363.648052 244.986601 
L 363.648593 244.986354 
L 363.687552 245.343194 
L 363.756812 244.913802 
L 363.817414 243.966353 
L 363.817955 243.973407 
L 364.461312 221.264633 
L 364.577105 193.007482 
L 364.602537 72.22306 
L 364.60903 55.508235 
L 364.696687 174.516103 
L 364.934767 244.071787 
L 365.010519 245.33902 
L 365.087354 244.697757 
L 365.633856 230.240252 
L 365.818909 215.705733 
L 365.895203 184.618956 
L 365.920093 55.486202 
L 366.010996 176.428083 
L 366.238255 243.813229 
L 366.321583 245.340073 
L 366.370281 245.051706 
L 366.558039 241.900092 
L 366.55858 241.903629 
L 366.584553 241.338999 
L 367.052596 224.663263 
L 367.196527 200.994097 
L 367.22791 133.985452 
L 367.240355 55.459809 
L 367.334505 178.178493 
L 367.559599 243.864762 
L 367.639139 245.386843 
L 367.691625 245.073691 
L 368.061731 237.512296 
L 368.338228 226.532605 
L 368.504884 203.49586 
L 368.540596 145.7602 
L 368.554665 55.530012 
L 368.647732 177.581551 
L 368.870121 243.618249 
L 368.961565 245.313112 
L 369.021626 244.836756 
L 369.022167 244.842871 
L 369.070865 244.152075 
L 369.071407 244.158743 
L 369.288925 239.796287 
L 369.418787 236.479215 
L 369.619532 228.735188 
L 369.766708 216.548906 
L 369.844625 190.302638 
L 369.873844 55.530297 
L 369.966912 177.539483 
L 370.19904 244.035316 
L 370.199581 244.03246 
L 370.275334 245.281144 
L 370.328361 244.958647 
L 370.385175 244.225579 
L 370.545879 241.14542 
L 370.54642 241.15156 
L 370.585379 240.347803 
L 371.080477 217.451731 
L 371.165969 189.244726 
L 371.194106 55.508946 
L 371.286633 177.220782 
L 371.514973 243.810463 
L 371.597219 245.294634 
L 371.650246 244.977369 
L 371.650787 244.982419 
L 371.700567 244.421162 
L 372.349335 222.339783 
L 372.4608 202.709885 
L 372.494348 148.287488 
L 372.508416 55.550088 
L 372.601484 177.36584 
L 372.833071 243.938211 
L 372.910447 245.249612 
L 372.979706 244.728403 
L 373.306525 237.997348 
L 373.771863 202.739235 
L 373.805952 143.888666 
L 373.819479 55.506683 
L 373.913088 177.717639 
L 374.139264 243.834408 
L 374.225297 245.353393 
L 374.140346 243.830354 
L 374.314036 244.541672 
L 374.556986 239.821064 
L 374.557527 239.82533 
L 374.584041 239.169841 
L 374.584582 239.171658 
L 375.046673 215.138851 
L 375.118639 185.792342 
L 375.14407 55.565444 
L 375.235514 176.470461 
L 375.459526 243.534045 
L 375.542313 245.217955 
L 375.591552 244.947467 
L 375.592634 244.958164 
L 375.956788 237.641484 
L 376.381004 210.660949 
L 376.435654 171.610033 
L 376.454592 55.500687 
L 376.544954 175.942485 
L 376.771671 243.600077 
L 376.86528 245.283982 
L 376.922636 244.84432 
L 377.122839 241.227614 
L 377.630924 220.76291 
L 377.721286 204.339453 
L 377.75808 153.222112 
L 377.773231 55.442385 
L 377.865216 177.149833 
L 378.094639 244.039745 
L 378.165521 245.41893 
L 378.256966 244.786481 
L 378.866234 227.46058 
L 379.048041 203.373228 
L 379.083212 147.393782 
L 379.09728 55.436975 
L 379.190348 177.63559 
L 379.415983 243.894595 
L 379.497146 245.438454 
L 379.564241 245.025248 
L 380.110743 231.272177 
L 380.338543 212.209516 
L 380.39698 180.407858 
L 380.419706 55.565155 
L 380.510068 176.105055 
L 380.734621 243.419085 
L 380.825524 245.16652 
L 380.880175 244.817719 
L 381.031139 242.339436 
L 381.035468 242.235887 
L 381.432628 230.961362 
L 381.665839 209.505027 
L 381.715078 173.204567 
L 381.734557 55.557357 
L 381.824919 175.91768 
L 382.057047 243.806603 
L 382.138752 245.28122 
L 382.204224 244.75472 
L 382.453667 240.037641 
L 382.454208 240.04784 
L 382.502365 238.902114 
L 382.502906 238.904785 
L 382.717178 232.169236 
L 382.809164 227.849178 
L 382.927121 218.264997 
L 383.003415 200.752109 
L 383.034799 129.662892 
L 383.047244 55.524619 
L 383.140852 177.99445 
L 383.375686 244.079655 
L 383.376227 244.073987 
L 383.46226 245.202456 
L 383.512041 244.808101 
L 383.706833 241.326336 
L 383.940585 235.17833 
L 383.972509 234.094349 
L 384.264698 213.778426 
L 384.329629 183.869895 
L 384.353978 55.4207 
L 384.444881 176.424816 
L 384.674845 244.063497 
L 384.748975 245.505758 
L 384.797673 245.199494 
L 384.798755 245.229215 
L 384.876672 244.166782 
L 384.877213 244.180039 
L 385.483235 224.865188 
L 385.621213 204.671809 
L 385.660172 143.922027 
L 385.673699 55.508446 
L 385.766767 177.449689 
L 385.996189 243.852368 
L 386.072483 245.276157 
L 386.133626 244.865417 
L 386.704477 229.990901 
L 386.932276 204.065728 
L 386.969071 149.200427 
L 386.98368 55.592979 
L 387.076207 177.28054 
L 387.316992 244.237452 
L 387.317533 244.2366 
L 387.378135 245.224338 
L 387.441443 244.876839 
L 387.660585 240.9195 
L 388.042595 228.722503 
L 388.216826 211.817492 
L 388.276346 173.019698 
L 388.295825 55.426357 
L 388.386188 176.094669 
L 388.608576 243.630012 
L 388.694068 245.419871 
L 388.74926 245.075598 
L 388.749801 245.089342 
L 388.820684 244.072519 
L 388.821225 244.076668 
L 388.854772 243.477429 
L 388.855855 243.489747 
L 389.373679 228.021771 
L 389.552239 207.988163 
L 389.597149 168.81803 
L 389.615546 55.532775 
L 389.705908 176.095356 
L 389.927756 243.442613 
L 390.026775 245.210022 
L 390.062487 244.984955 
L 390.065734 244.991998 
L 390.197219 242.957903 
L 390.764823 222.804861 
L 390.889815 198.627703 
L 390.917952 122.602242 
L 390.929315 55.55751 
L 391.024006 178.307288 
L 391.261545 244.200864 
L 391.330263 245.293165 
L 391.392489 244.87421 
L 392.006627 227.86682 
L 392.194385 203.562243 
L 392.23118 138.263238 
L 392.244166 55.502753 
L 392.337775 177.824918 
L 392.567738 243.941276 
L 392.651607 245.244448 
L 392.70247 244.870939 
L 392.719785 244.677451 
L 393.224623 232.411947 
L 393.439977 218.188024 
L 393.533044 186.322615 
L 393.559017 55.499282 
L 393.650461 176.725848 
L 393.880425 243.921194 
L 393.880966 243.92073 
L 393.884212 244.039033 
L 393.956719 245.384325 
L 394.015156 244.999411 
L 394.015697 245.001865 
L 394.043293 244.622091 
L 394.21536 241.414042 
L 394.215901 241.418393 
L 394.244579 240.766671 
L 394.715869 222.414681 
L 394.832745 200.508058 
L 394.864128 123.909618 
L 394.876032 55.481652 
L 394.970182 178.375308 
L 395.19257 243.757205 
L 395.208262 244.357371 
L 395.285097 245.364568 
L 395.333254 245.017355 
L 395.34137 244.907908 
L 395.814825 233.994239 
L 396.12487 209.479144 
L 396.175191 169.674939 
L 396.193588 55.44381 
L 396.283951 176.043074 
L 396.513914 243.887377 
L 396.606982 245.380939 
L 396.662173 244.871557 
L 396.816384 242.285828 
L 396.818548 242.272469 
L 396.822336 242.17497 
L 397.056087 236.548861 
L 397.434851 212.859088 
L 397.495453 182.674516 
L 397.519261 55.478062 
L 397.609623 176.1967 
L 397.837964 243.824089 
L 397.847703 244.19638 
L 397.928326 245.284901 
L 397.979729 244.981715 
L 398.188049 241.225984 
L 398.189132 241.229599 
L 398.189673 241.240314 
L 398.240535 240.050068 
L 398.487273 232.992385 
L 398.487273 232.992385 
" style="fill:none;stroke:#000000;stroke-linecap:square;stroke-width:1.5;"/>
   </g>
   <g id="patch_3">
    <path d="M 57.6 307.584 
L 57.6 41.472 
" style="fill:none;stroke:#000000;stroke-linecap:square;stroke-linejoin:miter;stroke-width:0.8;"/>
   </g>
   <g id="patch_4">
    <path d="M 414.72 307.584 
L 414.72 41.472 
" style="fill:none;stroke:#000000;stroke-linecap:square;stroke-linejoin:miter;stroke-width:0.8;"/>
   </g>
   <g id="patch_5">
    <path d="M 57.6 307.584 
L 414.72 307.584 
" style="fill:none;stroke:#000000;stroke-linecap:square;stroke-linejoin:miter;stroke-width:0.8;"/>
   </g>
   <g id="patch_6">
    <path d="M 57.6 41.472 
L 414.72 41.472 
" style="fill:none;stroke:#000000;stroke-linecap:square;stroke-linejoin:miter;stroke-width:0.8;"/>
   </g>
   <g id="text_15">
    <!-- ChIN_LTS -->
    <defs>
     <path d="M 64.40625 67.28125 
L 64.40625 56.890625 
Q 59.421875 61.53125 53.78125 63.8125 
Q 48.140625 66.109375 41.796875 66.109375 
Q 29.296875 66.109375 22.65625 58.46875 
Q 16.015625 50.828125 16.015625 36.375 
Q 16.015625 21.96875 22.65625 14.328125 
Q 29.296875 6.6875 41.796875 6.6875 
Q 48.140625 6.6875 53.78125 8.984375 
Q 59.421875 11.28125 64.40625 15.921875 
L 64.40625 5.609375 
Q 59.234375 2.09375 53.4375 0.328125 
Q 47.65625 -1.421875 41.21875 -1.421875 
Q 24.65625 -1.421875 15.125 8.703125 
Q 5.609375 18.84375 5.609375 36.375 
Q 5.609375 53.953125 15.125 64.078125 
Q 24.65625 74.21875 41.21875 74.21875 
Q 47.75 74.21875 53.53125 72.484375 
Q 59.328125 70.75 64.40625 67.28125 
z
" id="DejaVuSans-43"/>
     <path d="M 54.890625 33.015625 
L 54.890625 0 
L 45.90625 0 
L 45.90625 32.71875 
Q 45.90625 40.484375 42.875 44.328125 
Q 39.84375 48.1875 33.796875 48.1875 
Q 26.515625 48.1875 22.3125 43.546875 
Q 18.109375 38.921875 18.109375 30.90625 
L 18.109375 0 
L 9.078125 0 
L 9.078125 75.984375 
L 18.109375 75.984375 
L 18.109375 46.1875 
Q 21.34375 51.125 25.703125 53.5625 
Q 30.078125 56 35.796875 56 
Q 45.21875 56 50.046875 50.171875 
Q 54.890625 44.34375 54.890625 33.015625 
z
" id="DejaVuSans-68"/>
     <path d="M 9.8125 72.90625 
L 19.671875 72.90625 
L 19.671875 0 
L 9.8125 0 
z
" id="DejaVuSans-49"/>
     <path d="M 9.8125 72.90625 
L 23.09375 72.90625 
L 55.421875 11.921875 
L 55.421875 72.90625 
L 64.984375 72.90625 
L 64.984375 0 
L 51.703125 0 
L 19.390625 60.984375 
L 19.390625 0 
L 9.8125 0 
z
" id="DejaVuSans-4e"/>
     <path d="M 50.984375 -16.609375 
L 50.984375 -23.578125 
L -0.984375 -23.578125 
L -0.984375 -16.609375 
z
" id="DejaVuSans-5f"/>
     <path d="M 9.8125 72.90625 
L 19.671875 72.90625 
L 19.671875 8.296875 
L 55.171875 8.296875 
L 55.171875 0 
L 9.8125 0 
z
" id="DejaVuSans-4c"/>
     <path d="M -0.296875 72.90625 
L 61.375 72.90625 
L 61.375 64.59375 
L 35.5 64.59375 
L 35.5 0 
L 25.59375 0 
L 25.59375 64.59375 
L -0.296875 64.59375 
z
" id="DejaVuSans-54"/>
     <path d="M 53.515625 70.515625 
L 53.515625 60.890625 
Q 47.90625 63.578125 42.921875 64.890625 
Q 37.9375 66.21875 33.296875 66.21875 
Q 25.25 66.21875 20.875 63.09375 
Q 16.5 59.96875 16.5 54.203125 
Q 16.5 49.359375 19.40625 46.890625 
Q 22.3125 44.4375 30.421875 42.921875 
L 36.375 41.703125 
Q 47.40625 39.59375 52.65625 34.296875 
Q 57.90625 29 57.90625 20.125 
Q 57.90625 9.515625 50.796875 4.046875 
Q 43.703125 -1.421875 29.984375 -1.421875 
Q 24.8125 -1.421875 18.96875 -0.25 
Q 13.140625 0.921875 6.890625 3.21875 
L 6.890625 13.375 
Q 12.890625 10.015625 18.65625 8.296875 
Q 24.421875 6.59375 29.984375 6.59375 
Q 38.421875 6.59375 43.015625 9.90625 
Q 47.609375 13.234375 47.609375 19.390625 
Q 47.609375 24.75 44.3125 27.78125 
Q 41.015625 30.8125 33.5 32.328125 
L 27.484375 33.5 
Q 16.453125 35.6875 11.515625 40.375 
Q 6.59375 45.0625 6.59375 53.421875 
Q 6.59375 63.09375 13.40625 68.65625 
Q 20.21875 74.21875 32.171875 74.21875 
Q 37.3125 74.21875 42.625 73.28125 
Q 47.953125 72.359375 53.515625 70.515625 
z
" id="DejaVuSans-53"/>
    </defs>
    <g transform="translate(208.104375 35.472)scale(0.12 -0.12)">
     <use xlink:href="#DejaVuSans-43"/>
     <use x="69.824219" xlink:href="#DejaVuSans-68"/>
     <use x="133.203125" xlink:href="#DejaVuSans-49"/>
     <use x="162.695312" xlink:href="#DejaVuSans-4e"/>
     <use x="237.5" xlink:href="#DejaVuSans-5f"/>
     <use x="287.5" xlink:href="#DejaVuSans-4c"/>
     <use x="343.009766" xlink:href="#DejaVuSans-54"/>
     <use x="404.09375" xlink:href="#DejaVuSans-53"/>
    </g>
   </g>
   <g id="legend_1">
    <g id="patch_7">
     <path d="M 403.72 54.472 
L 407.72 54.472 
Q 409.72 54.472 409.72 52.472 
L 409.72 48.472 
Q 409.72 46.472 407.72 46.472 
L 403.72 46.472 
Q 401.72 46.472 401.72 48.472 
L 401.72 52.472 
Q 401.72 54.472 403.72 54.472 
z
" style="fill:#ffffff;opacity:0.8;stroke:#cccccc;stroke-linejoin:miter;"/>
    </g>
   </g>
  </g>
 </g>
 <defs>
  <clipPath id="pc6d5ce98bf">
   <rect height="266.112" width="357.12" x="57.6" y="41.472"/>
  </clipPath>
 </defs>
</svg>
