<?xml version="1.0" encoding="utf-8" standalone="no"?>
<!DOCTYPE svg PUBLIC "-//W3C//DTD SVG 1.1//EN"
  "http://www.w3.org/Graphics/SVG/1.1/DTD/svg11.dtd">
<!-- Created with matplotlib (http://matplotlib.org/) -->
<svg height="345.6pt" version="1.1" viewBox="0 0 460.8 345.6" width="460.8pt" xmlns="http://www.w3.org/2000/svg" xmlns:xlink="http://www.w3.org/1999/xlink">
 <defs>
  <style type="text/css">
*{stroke-linecap:butt;stroke-linejoin:round;}
  </style>
 </defs>
 <g id="figure_1">
  <g id="patch_1">
   <path d="M 0 345.6 
L 460.8 345.6 
L 460.8 0 
L 0 0 
z
" style="fill:#ffffff;"/>
  </g>
  <g id="axes_1">
   <g id="patch_2">
    <path d="M 57.6 307.584 
L 414.72 307.584 
L 414.72 41.472 
L 57.6 41.472 
z
" style="fill:#ffffff;"/>
   </g>
   <g id="matplotlib.axis_1">
    <g id="xtick_1">
     <g id="line2d_1">
      <defs>
       <path d="M 0 0 
L 0 3.5 
" id="m2acc5ef37a" style="stroke:#000000;stroke-width:0.8;"/>
      </defs>
      <g>
       <use style="stroke:#000000;stroke-width:0.8;" x="73.832727" xlink:href="#m2acc5ef37a" y="307.584"/>
      </g>
     </g>
     <g id="text_1">
      <!-- 0 -->
      <defs>
       <path d="M 31.78125 66.40625 
Q 24.171875 66.40625 20.328125 58.90625 
Q 16.5 51.421875 16.5 36.375 
Q 16.5 21.390625 20.328125 13.890625 
Q 24.171875 6.390625 31.78125 6.390625 
Q 39.453125 6.390625 43.28125 13.890625 
Q 47.125 21.390625 47.125 36.375 
Q 47.125 51.421875 43.28125 58.90625 
Q 39.453125 66.40625 31.78125 66.40625 
z
M 31.78125 74.21875 
Q 44.046875 74.21875 50.515625 64.515625 
Q 56.984375 54.828125 56.984375 36.375 
Q 56.984375 17.96875 50.515625 8.265625 
Q 44.046875 -1.421875 31.78125 -1.421875 
Q 19.53125 -1.421875 13.0625 8.265625 
Q 6.59375 17.96875 6.59375 36.375 
Q 6.59375 54.828125 13.0625 64.515625 
Q 19.53125 74.21875 31.78125 74.21875 
z
" id="DejaVuSans-30"/>
      </defs>
      <g transform="translate(70.651477 322.182437)scale(0.1 -0.1)">
       <use xlink:href="#DejaVuSans-30"/>
      </g>
     </g>
    </g>
    <g id="xtick_2">
     <g id="line2d_2">
      <g>
       <use style="stroke:#000000;stroke-width:0.8;" x="117.12" xlink:href="#m2acc5ef37a" y="307.584"/>
      </g>
     </g>
     <g id="text_2">
      <!-- 2000 -->
      <defs>
       <path d="M 19.1875 8.296875 
L 53.609375 8.296875 
L 53.609375 0 
L 7.328125 0 
L 7.328125 8.296875 
Q 12.9375 14.109375 22.625 23.890625 
Q 32.328125 33.6875 34.8125 36.53125 
Q 39.546875 41.84375 41.421875 45.53125 
Q 43.3125 49.21875 43.3125 52.78125 
Q 43.3125 58.59375 39.234375 62.25 
Q 35.15625 65.921875 28.609375 65.921875 
Q 23.96875 65.921875 18.8125 64.3125 
Q 13.671875 62.703125 7.8125 59.421875 
L 7.8125 69.390625 
Q 13.765625 71.78125 18.9375 73 
Q 24.125 74.21875 28.421875 74.21875 
Q 39.75 74.21875 46.484375 68.546875 
Q 53.21875 62.890625 53.21875 53.421875 
Q 53.21875 48.921875 51.53125 44.890625 
Q 49.859375 40.875 45.40625 35.40625 
Q 44.1875 33.984375 37.640625 27.21875 
Q 31.109375 20.453125 19.1875 8.296875 
z
" id="DejaVuSans-32"/>
      </defs>
      <g transform="translate(104.395 322.182437)scale(0.1 -0.1)">
       <use xlink:href="#DejaVuSans-32"/>
       <use x="63.623047" xlink:href="#DejaVuSans-30"/>
       <use x="127.246094" xlink:href="#DejaVuSans-30"/>
       <use x="190.869141" xlink:href="#DejaVuSans-30"/>
      </g>
     </g>
    </g>
    <g id="xtick_3">
     <g id="line2d_3">
      <g>
       <use style="stroke:#000000;stroke-width:0.8;" x="160.407273" xlink:href="#m2acc5ef37a" y="307.584"/>
      </g>
     </g>
     <g id="text_3">
      <!-- 4000 -->
      <defs>
       <path d="M 37.796875 64.3125 
L 12.890625 25.390625 
L 37.796875 25.390625 
z
M 35.203125 72.90625 
L 47.609375 72.90625 
L 47.609375 25.390625 
L 58.015625 25.390625 
L 58.015625 17.1875 
L 47.609375 17.1875 
L 47.609375 0 
L 37.796875 0 
L 37.796875 17.1875 
L 4.890625 17.1875 
L 4.890625 26.703125 
z
" id="DejaVuSans-34"/>
      </defs>
      <g transform="translate(147.682273 322.182437)scale(0.1 -0.1)">
       <use xlink:href="#DejaVuSans-34"/>
       <use x="63.623047" xlink:href="#DejaVuSans-30"/>
       <use x="127.246094" xlink:href="#DejaVuSans-30"/>
       <use x="190.869141" xlink:href="#DejaVuSans-30"/>
      </g>
     </g>
    </g>
    <g id="xtick_4">
     <g id="line2d_4">
      <g>
       <use style="stroke:#000000;stroke-width:0.8;" x="203.694545" xlink:href="#m2acc5ef37a" y="307.584"/>
      </g>
     </g>
     <g id="text_4">
      <!-- 6000 -->
      <defs>
       <path d="M 33.015625 40.375 
Q 26.375 40.375 22.484375 35.828125 
Q 18.609375 31.296875 18.609375 23.390625 
Q 18.609375 15.53125 22.484375 10.953125 
Q 26.375 6.390625 33.015625 6.390625 
Q 39.65625 6.390625 43.53125 10.953125 
Q 47.40625 15.53125 47.40625 23.390625 
Q 47.40625 31.296875 43.53125 35.828125 
Q 39.65625 40.375 33.015625 40.375 
z
M 52.59375 71.296875 
L 52.59375 62.3125 
Q 48.875 64.0625 45.09375 64.984375 
Q 41.3125 65.921875 37.59375 65.921875 
Q 27.828125 65.921875 22.671875 59.328125 
Q 17.53125 52.734375 16.796875 39.40625 
Q 19.671875 43.65625 24.015625 45.921875 
Q 28.375 48.1875 33.59375 48.1875 
Q 44.578125 48.1875 50.953125 41.515625 
Q 57.328125 34.859375 57.328125 23.390625 
Q 57.328125 12.15625 50.6875 5.359375 
Q 44.046875 -1.421875 33.015625 -1.421875 
Q 20.359375 -1.421875 13.671875 8.265625 
Q 6.984375 17.96875 6.984375 36.375 
Q 6.984375 53.65625 15.1875 63.9375 
Q 23.390625 74.21875 37.203125 74.21875 
Q 40.921875 74.21875 44.703125 73.484375 
Q 48.484375 72.75 52.59375 71.296875 
z
" id="DejaVuSans-36"/>
      </defs>
      <g transform="translate(190.969545 322.182437)scale(0.1 -0.1)">
       <use xlink:href="#DejaVuSans-36"/>
       <use x="63.623047" xlink:href="#DejaVuSans-30"/>
       <use x="127.246094" xlink:href="#DejaVuSans-30"/>
       <use x="190.869141" xlink:href="#DejaVuSans-30"/>
      </g>
     </g>
    </g>
    <g id="xtick_5">
     <g id="line2d_5">
      <g>
       <use style="stroke:#000000;stroke-width:0.8;" x="246.981818" xlink:href="#m2acc5ef37a" y="307.584"/>
      </g>
     </g>
     <g id="text_5">
      <!-- 8000 -->
      <defs>
       <path d="M 31.78125 34.625 
Q 24.75 34.625 20.71875 30.859375 
Q 16.703125 27.09375 16.703125 20.515625 
Q 16.703125 13.921875 20.71875 10.15625 
Q 24.75 6.390625 31.78125 6.390625 
Q 38.8125 6.390625 42.859375 10.171875 
Q 46.921875 13.96875 46.921875 20.515625 
Q 46.921875 27.09375 42.890625 30.859375 
Q 38.875 34.625 31.78125 34.625 
z
M 21.921875 38.8125 
Q 15.578125 40.375 12.03125 44.71875 
Q 8.5 49.078125 8.5 55.328125 
Q 8.5 64.0625 14.71875 69.140625 
Q 20.953125 74.21875 31.78125 74.21875 
Q 42.671875 74.21875 48.875 69.140625 
Q 55.078125 64.0625 55.078125 55.328125 
Q 55.078125 49.078125 51.53125 44.71875 
Q 48 40.375 41.703125 38.8125 
Q 48.828125 37.15625 52.796875 32.3125 
Q 56.78125 27.484375 56.78125 20.515625 
Q 56.78125 9.90625 50.3125 4.234375 
Q 43.84375 -1.421875 31.78125 -1.421875 
Q 19.734375 -1.421875 13.25 4.234375 
Q 6.78125 9.90625 6.78125 20.515625 
Q 6.78125 27.484375 10.78125 32.3125 
Q 14.796875 37.15625 21.921875 38.8125 
z
M 18.3125 54.390625 
Q 18.3125 48.734375 21.84375 45.5625 
Q 25.390625 42.390625 31.78125 42.390625 
Q 38.140625 42.390625 41.71875 45.5625 
Q 45.3125 48.734375 45.3125 54.390625 
Q 45.3125 60.0625 41.71875 63.234375 
Q 38.140625 66.40625 31.78125 66.40625 
Q 25.390625 66.40625 21.84375 63.234375 
Q 18.3125 60.0625 18.3125 54.390625 
z
" id="DejaVuSans-38"/>
      </defs>
      <g transform="translate(234.256818 322.182437)scale(0.1 -0.1)">
       <use xlink:href="#DejaVuSans-38"/>
       <use x="63.623047" xlink:href="#DejaVuSans-30"/>
       <use x="127.246094" xlink:href="#DejaVuSans-30"/>
       <use x="190.869141" xlink:href="#DejaVuSans-30"/>
      </g>
     </g>
    </g>
    <g id="xtick_6">
     <g id="line2d_6">
      <g>
       <use style="stroke:#000000;stroke-width:0.8;" x="290.269091" xlink:href="#m2acc5ef37a" y="307.584"/>
      </g>
     </g>
     <g id="text_6">
      <!-- 10000 -->
      <defs>
       <path d="M 12.40625 8.296875 
L 28.515625 8.296875 
L 28.515625 63.921875 
L 10.984375 60.40625 
L 10.984375 69.390625 
L 28.421875 72.90625 
L 38.28125 72.90625 
L 38.28125 8.296875 
L 54.390625 8.296875 
L 54.390625 0 
L 12.40625 0 
z
" id="DejaVuSans-31"/>
      </defs>
      <g transform="translate(274.362841 322.182437)scale(0.1 -0.1)">
       <use xlink:href="#DejaVuSans-31"/>
       <use x="63.623047" xlink:href="#DejaVuSans-30"/>
       <use x="127.246094" xlink:href="#DejaVuSans-30"/>
       <use x="190.869141" xlink:href="#DejaVuSans-30"/>
       <use x="254.492188" xlink:href="#DejaVuSans-30"/>
      </g>
     </g>
    </g>
    <g id="xtick_7">
     <g id="line2d_7">
      <g>
       <use style="stroke:#000000;stroke-width:0.8;" x="333.556364" xlink:href="#m2acc5ef37a" y="307.584"/>
      </g>
     </g>
     <g id="text_7">
      <!-- 12000 -->
      <g transform="translate(317.650114 322.182437)scale(0.1 -0.1)">
       <use xlink:href="#DejaVuSans-31"/>
       <use x="63.623047" xlink:href="#DejaVuSans-32"/>
       <use x="127.246094" xlink:href="#DejaVuSans-30"/>
       <use x="190.869141" xlink:href="#DejaVuSans-30"/>
       <use x="254.492188" xlink:href="#DejaVuSans-30"/>
      </g>
     </g>
    </g>
    <g id="xtick_8">
     <g id="line2d_8">
      <g>
       <use style="stroke:#000000;stroke-width:0.8;" x="376.843636" xlink:href="#m2acc5ef37a" y="307.584"/>
      </g>
     </g>
     <g id="text_8">
      <!-- 14000 -->
      <g transform="translate(360.937386 322.182437)scale(0.1 -0.1)">
       <use xlink:href="#DejaVuSans-31"/>
       <use x="63.623047" xlink:href="#DejaVuSans-34"/>
       <use x="127.246094" xlink:href="#DejaVuSans-30"/>
       <use x="190.869141" xlink:href="#DejaVuSans-30"/>
       <use x="254.492188" xlink:href="#DejaVuSans-30"/>
      </g>
     </g>
    </g>
   </g>
   <g id="matplotlib.axis_2">
    <g id="ytick_1">
     <g id="line2d_9">
      <defs>
       <path d="M 0 0 
L -3.5 0 
" id="m1fdc1207f9" style="stroke:#000000;stroke-width:0.8;"/>
      </defs>
      <g>
       <use style="stroke:#000000;stroke-width:0.8;" x="57.6" xlink:href="#m1fdc1207f9" y="277.258772"/>
      </g>
     </g>
     <g id="text_9">
      <!-- −80 -->
      <defs>
       <path d="M 10.59375 35.5 
L 73.1875 35.5 
L 73.1875 27.203125 
L 10.59375 27.203125 
z
" id="DejaVuSans-2212"/>
      </defs>
      <g transform="translate(29.495313 281.057991)scale(0.1 -0.1)">
       <use xlink:href="#DejaVuSans-2212"/>
       <use x="83.789062" xlink:href="#DejaVuSans-38"/>
       <use x="147.412109" xlink:href="#DejaVuSans-30"/>
      </g>
     </g>
    </g>
    <g id="ytick_2">
     <g id="line2d_10">
      <g>
       <use style="stroke:#000000;stroke-width:0.8;" x="57.6" xlink:href="#m1fdc1207f9" y="233.481994"/>
      </g>
     </g>
     <g id="text_10">
      <!-- −60 -->
      <g transform="translate(29.495313 237.281212)scale(0.1 -0.1)">
       <use xlink:href="#DejaVuSans-2212"/>
       <use x="83.789062" xlink:href="#DejaVuSans-36"/>
       <use x="147.412109" xlink:href="#DejaVuSans-30"/>
      </g>
     </g>
    </g>
    <g id="ytick_3">
     <g id="line2d_11">
      <g>
       <use style="stroke:#000000;stroke-width:0.8;" x="57.6" xlink:href="#m1fdc1207f9" y="189.705215"/>
      </g>
     </g>
     <g id="text_11">
      <!-- −40 -->
      <g transform="translate(29.495313 193.504434)scale(0.1 -0.1)">
       <use xlink:href="#DejaVuSans-2212"/>
       <use x="83.789062" xlink:href="#DejaVuSans-34"/>
       <use x="147.412109" xlink:href="#DejaVuSans-30"/>
      </g>
     </g>
    </g>
    <g id="ytick_4">
     <g id="line2d_12">
      <g>
       <use style="stroke:#000000;stroke-width:0.8;" x="57.6" xlink:href="#m1fdc1207f9" y="145.928437"/>
      </g>
     </g>
     <g id="text_12">
      <!-- −20 -->
      <g transform="translate(29.495313 149.727655)scale(0.1 -0.1)">
       <use xlink:href="#DejaVuSans-2212"/>
       <use x="83.789062" xlink:href="#DejaVuSans-32"/>
       <use x="147.412109" xlink:href="#DejaVuSans-30"/>
      </g>
     </g>
    </g>
    <g id="ytick_5">
     <g id="line2d_13">
      <g>
       <use style="stroke:#000000;stroke-width:0.8;" x="57.6" xlink:href="#m1fdc1207f9" y="102.151658"/>
      </g>
     </g>
     <g id="text_13">
      <!-- 0 -->
      <g transform="translate(44.2375 105.950877)scale(0.1 -0.1)">
       <use xlink:href="#DejaVuSans-30"/>
      </g>
     </g>
    </g>
    <g id="ytick_6">
     <g id="line2d_14">
      <g>
       <use style="stroke:#000000;stroke-width:0.8;" x="57.6" xlink:href="#m1fdc1207f9" y="58.37488"/>
      </g>
     </g>
     <g id="text_14">
      <!-- 20 -->
      <g transform="translate(37.875 62.174099)scale(0.1 -0.1)">
       <use xlink:href="#DejaVuSans-32"/>
       <use x="63.623047" xlink:href="#DejaVuSans-30"/>
      </g>
     </g>
    </g>
   </g>
   <g id="line2d_15">
    <path clip-path="url(#pf86a8a68f1)" d="M 73.832727 266.314578 
L 74.039965 259.958662 
L 74.286161 253.198831 
L 74.343517 251.670868 
L 74.6027 244.593177 
L 74.603241 244.600285 
L 74.635706 243.585928 
L 74.636247 243.589238 
L 75.092387 219.136117 
L 75.166516 197.555229 
L 75.191407 93.690553 
L 75.200064 53.568 
L 75.294214 182.228482 
L 75.516602 246.489413 
L 75.517143 246.482813 
L 75.558807 247.326882 
L 75.582074 247.38858 
L 75.640512 246.852975 
L 75.641053 246.85689 
L 75.835305 242.260336 
L 75.945687 238.991133 
L 76.347177 201.317109 
L 76.375855 121.394696 
L 76.386676 54.029393 
L 76.481908 182.273319 
L 76.711872 246.458784 
L 76.769769 247.223113 
L 76.829289 246.770974 
L 76.830371 246.774293 
L 77.024623 242.598383 
L 77.441804 224.781286 
L 77.556515 204.81748 
L 77.590063 147.313347 
L 77.60359 54.439844 
L 77.697199 181.014929 
L 77.923375 245.966798 
L 77.986682 247.019402 
L 78.051072 246.60777 
L 78.239913 242.877148 
L 78.265885 242.204489 
L 78.558074 232.474061 
L 78.683066 224.66238 
L 78.807517 200.028075 
L 78.834572 117.60791 
L 78.845393 54.691824 
L 78.940084 181.408378 
L 79.162473 245.637092 
L 79.234438 246.936478 
L 79.296663 246.513408 
L 79.325882 246.106017 
L 79.582359 240.488541 
L 79.813946 232.663892 
L 79.996835 219.15174 
L 80.070423 199.993585 
L 80.098019 110.105309 
L 80.107759 54.808233 
L 80.202991 181.301352 
L 80.432954 245.886352 
L 80.458927 246.575953 
L 80.508707 246.9493 
L 80.567145 246.476868 
L 80.568227 246.494921 
L 80.734883 243.43535 
L 81.303028 214.373335 
L 81.364172 179.665449 
L 81.384733 55.016827 
L 81.475636 178.762214 
L 81.70073 245.366664 
L 81.782976 246.81497 
L 81.833839 246.48972 
L 81.834921 246.498964 
L 82.054063 242.544844 
L 82.309999 235.298392 
L 82.363025 233.296966 
L 82.561606 219.525919 
L 82.649263 191.270953 
L 82.676858 55.065936 
L 82.769385 179.802704 
L 82.990691 245.231427 
L 83.079971 246.732435 
L 83.120012 246.397599 
L 83.353222 242.116335 
L 83.847779 219.429131 
L 83.931648 194.392784 
L 83.956538 67.477515 
L 83.961949 55.177455 
L 84.046359 174.711955 
L 84.282275 245.34594 
L 84.352076 246.680918 
L 84.428369 246.176765 
L 85.032227 229.274846 
L 85.215116 205.831856 
L 85.25191 144.520979 
L 85.264896 55.308464 
L 85.359046 180.198644 
L 85.583057 245.095141 
L 85.671796 246.543519 
L 85.747549 245.895378 
L 86.142004 236.897089 
L 86.502371 208.512844 
L 86.544576 160.941876 
L 86.559727 55.196696 
L 86.652253 179.324271 
L 86.881676 245.400407 
L 86.96338 246.800002 
L 87.014784 246.477897 
L 87.016407 246.479096 
L 87.180358 243.680002 
L 87.440081 237.246619 
L 87.440623 237.259934 
L 87.738223 221.233784 
L 87.828585 201.146968 
L 87.856721 129.879912 
L 87.868084 55.319835 
L 87.963316 180.6681 
L 88.189492 245.153345 
L 88.266327 246.526462 
L 88.312861 246.197133 
L 88.31719 246.213003 
L 88.366429 245.541283 
L 88.368052 245.552514 
L 88.576913 241.389143 
L 88.583407 241.238021 
L 88.989225 225.236826 
L 89.128826 196.900415 
L 89.153175 97.920015 
L 89.162374 55.231855 
L 89.256524 180.549828 
L 89.490816 245.753689 
L 89.491357 245.74312 
L 89.548713 246.771065 
L 89.549795 246.765967 
L 89.607692 246.569738 
L 89.554124 246.807236 
L 89.608233 246.576875 
L 89.803025 243.453336 
L 89.804108 243.456682 
L 89.835491 242.814403 
L 90.280268 227.554198 
L 90.4453 200.849566 
L 90.472896 131.234481 
L 90.4848 55.393345 
L 90.579491 180.496004 
L 90.798633 244.837335 
L 90.890077 246.603095 
L 90.959337 246.107843 
L 91.16928 242.225226 
L 91.374895 237.071164 
L 91.61568 226.041892 
L 91.759069 201.851818 
L 91.788288 132.484937 
L 91.800192 55.342576 
L 91.894883 180.504652 
L 92.116189 244.98874 
L 92.212503 246.620928 
L 92.269859 246.190986 
L 92.971113 223.028896 
L 93.086365 196.176414 
L 93.110714 88.276691 
L 93.118831 55.357183 
L 93.212439 179.894731 
L 93.436992 245.098082 
L 93.518697 246.665184 
L 93.588497 246.195123 
L 93.58958 246.203271 
L 93.64423 245.403062 
L 93.866077 240.963446 
L 94.219409 228.311606 
L 94.400134 199.584372 
L 94.427188 110.965085 
L 94.437469 55.310763 
L 94.53216 180.704506 
L 94.761583 245.492967 
L 94.842205 246.709891 
L 94.889821 246.408482 
L 94.892527 246.417804 
L 95.22638 239.836357 
L 95.226921 239.858421 
L 95.292393 238.064598 
L 95.292934 238.064713 
L 95.708492 202.809847 
L 95.739334 135.552595 
L 95.751238 55.341142 
L 95.845929 180.396225 
L 96.080221 245.587769 
L 96.15922 246.68082 
L 96.225233 246.174943 
L 96.471971 241.435245 
L 96.472512 241.456117 
L 96.540689 239.828818 
L 96.541231 239.840004 
L 96.738729 233.702277 
L 96.86318 227.45878 
L 97.013062 207.209033 
L 97.05202 157.166776 
L 97.06663 55.354552 
L 97.159697 179.535903 
L 97.388579 245.267536 
L 97.472989 246.664366 
L 97.532509 246.284529 
L 97.533591 246.289956 
L 97.997847 235.783471 
L 98.281379 217.802688 
L 98.35118 196.487842 
L 98.37607 86.093242 
L 98.384186 55.301436 
L 98.477254 179.849783 
L 98.710464 245.630294 
L 98.715334 245.770104 
L 98.785676 246.813711 
L 98.846278 246.381122 
L 99.004276 243.655094 
L 99.004817 243.657271 
L 99.005359 243.672215 
L 99.067043 242.33469 
L 99.276986 237.018916 
L 99.277527 237.025108 
L 99.42254 231.694305 
L 99.65575 205.633478 
L 99.690921 154.568916 
L 99.70553 55.403457 
L 99.798057 179.383038 
L 100.019904 244.864149 
L 100.114054 246.583089 
L 100.154636 246.329824 
L 100.283956 244.417959 
L 100.525283 238.810226 
L 100.525824 238.826893 
L 100.58318 237.1762 
L 100.584262 237.180475 
L 100.605905 236.492757 
L 100.869958 222.490896 
L 100.977094 198.271593 
L 101.003066 100.968969 
L 101.012265 55.412672 
L 101.106956 180.440183 
L 101.339084 245.372399 
L 101.412131 246.563825 
L 101.494377 245.959174 
L 101.716224 241.625471 
L 101.717306 241.630747 
L 102.038173 231.482698 
L 102.240541 212.656571 
L 102.29465 177.08796 
L 102.314129 55.321122 
L 102.405033 178.465218 
L 102.637161 245.393933 
L 102.720489 246.653469 
L 102.760529 246.363818 
L 102.761071 246.370927 
L 102.819508 245.677605 
L 103.084643 240.470669 
L 103.463407 225.383795 
L 103.600844 199.825887 
L 103.627898 116.717051 
L 103.638179 55.390542 
L 103.733411 180.618172 
L 103.967703 245.506155 
L 104.031011 246.683478 
L 104.101353 246.247407 
L 104.354583 241.52135 
L 104.60078 234.459434 
L 104.716573 229.191095 
L 104.89838 206.367181 
L 104.935715 152.364534 
L 104.949783 55.344196 
L 105.042851 179.580595 
L 105.267945 245.111954 
L 105.351814 246.60878 
L 105.417827 246.048977 
L 105.418909 246.063293 
L 106.088239 224.797353 
L 106.206737 205.452982 
L 106.241908 150.459143 
L 106.255977 55.359398 
L 106.349044 179.774559 
L 106.591453 245.803362 
L 106.666665 246.628394 
L 106.70887 246.360105 
L 106.716986 246.257651 
L 107.271604 232.483907 
L 107.460986 218.811244 
L 107.540527 194.577398 
L 107.566499 63.275843 
L 107.570828 55.321535 
L 107.648745 170.58723 
L 107.877085 244.526613 
L 107.974481 246.608702 
L 108.012358 246.416746 
L 108.01344 246.418398 
L 108.291561 241.478389 
L 108.292102 241.486101 
L 108.333225 240.491422 
L 108.591325 232.370845 
L 108.798563 215.843595 
L 108.86674 183.065166 
L 108.888925 55.317334 
L 108.979828 178.477724 
L 109.215744 245.531708 
L 109.295825 246.659666 
L 109.340195 246.392326 
L 109.490077 244.072458 
L 109.490618 244.082288 
L 109.541481 243.01091 
L 110.103133 218.032299 
L 110.183215 186.655585 
L 110.207023 55.384964 
L 110.299008 178.864056 
L 110.528431 245.243071 
L 110.536006 245.51172 
L 110.603642 246.618158 
L 110.684265 246.092836 
L 110.886633 242.443142 
L 111.122548 236.314309 
L 111.474799 205.314589 
L 111.510511 143.637055 
L 111.523497 55.425417 
L 111.617647 180.075067 
L 111.843823 245.136567 
L 111.844364 245.133696 
L 111.93202 246.57536 
L 111.972602 246.290238 
L 111.973143 246.297436 
L 112.03104 245.59042 
L 112.560768 231.067178 
L 112.776663 207.193129 
L 112.816163 152.785013 
L 112.830231 55.32744 
L 112.923299 179.584487 
L 113.158132 245.581915 
L 113.230097 246.68415 
L 113.292323 246.310948 
L 113.507677 242.584639 
L 113.727901 237.093092 
L 113.831791 233.54203 
L 114.077446 213.768912 
L 114.135343 180.801592 
L 114.155904 55.27674 
L 114.247348 178.609312 
L 114.486511 245.774338 
L 114.559558 246.779365 
L 114.609338 246.499322 
L 114.612044 246.511346 
L 114.673728 245.702896 
L 114.765713 244.054368 
L 115.259188 228.466398 
L 115.417728 209.920496 
L 115.464262 164.16206 
L 115.480495 55.35139 
L 115.57248 179.077546 
L 115.799738 245.086489 
L 115.885772 246.619799 
L 115.928518 246.305786 
L 116.520471 231.237046 
L 116.753681 200.994048 
L 116.782359 120.605214 
L 116.793181 55.307853 
L 116.888413 180.902532 
L 117.110801 245.097383 
L 117.200081 246.680978 
L 117.239581 246.493951 
L 117.241204 246.503421 
L 117.282868 245.98434 
L 117.539345 240.938414 
L 117.539887 240.945778 
L 117.579927 239.987061 
L 118.007389 218.428796 
L 118.083683 194.926145 
L 118.109114 67.971584 
L 118.114525 55.404681 
L 118.199476 174.799463 
L 118.428899 244.838926 
L 118.506816 246.581599 
L 118.564172 246.339826 
L 118.735156 243.477082 
L 118.735697 243.495705 
L 118.802793 242.039138 
L 118.803875 242.053164 
L 119.331439 215.73538 
L 119.399616 181.675168 
L 119.420719 55.298405 
L 119.511622 178.295342 
L 119.744291 245.496018 
L 119.821667 246.745461 
L 119.874153 246.461882 
L 119.875776 246.462972 
L 120.237766 239.498085 
L 120.248047 239.250869 
L 120.396305 234.622651 
L 120.641961 218.506582 
L 120.714467 198.466677 
L 120.740439 103.861439 
L 120.749638 55.366312 
L 120.84487 180.641144 
L 121.069423 245.149894 
L 121.146799 246.595075 
L 121.213894 246.242143 
L 121.424919 242.550771 
L 121.42546 242.557269 
L 121.757149 232.782985 
L 121.984407 213.833621 
L 122.041763 183.310377 
L 122.063948 55.339197 
L 122.154851 178.416684 
L 122.38752 245.403518 
L 122.466519 246.662763 
L 122.522252 246.369848 
L 123.218636 223.721743 
L 123.336052 200.279311 
L 123.363107 126.055338 
L 123.37447 55.425991 
L 123.469161 180.503197 
L 123.693172 245.047992 
L 123.778124 246.575998 
L 123.828445 246.285509 
L 123.996183 243.514534 
L 124.428515 230.163756 
L 124.598417 214.161948 
L 124.660102 176.332371 
L 124.67904 55.434753 
L 124.770484 178.466658 
L 125.002071 245.206317 
L 125.07079 246.479615 
L 125.140591 246.124337 
L 125.634607 234.636984 
L 125.849961 222.212131 
L 125.955473 197.768875 
L 125.980905 98.797137 
L 125.990103 55.327422 
L 126.084794 180.579244 
L 126.31584 245.450753 
L 126.316381 245.439559 
L 126.371031 246.606774 
L 126.372113 246.576651 
L 126.40025 246.673465 
L 126.459229 246.157341 
L 126.45977 246.171644 
L 126.673501 242.319011 
L 127.232989 212.705221 
L 127.286016 180.618361 
L 127.307119 55.314372 
L 127.397481 178.185106 
L 127.626903 245.234602 
L 127.705361 246.610107 
L 127.770292 246.163143 
L 127.928832 243.528109 
L 128.087372 239.973423 
L 128.486156 221.377641 
L 128.595456 183.959246 
L 128.618182 55.456063 
L 128.709085 178.292615 
L 128.931473 244.629418 
L 129.034281 246.462752 
L 129.070534 246.202081 
L 129.266409 242.885756 
L 129.324847 241.647299 
L 129.635974 232.019317 
L 129.769623 223.845439 
L 129.883793 202.955663 
L 129.915177 132.501214 
L 129.927081 55.400425 
L 130.021772 180.426541 
L 130.251194 245.190477 
L 130.323159 246.455478 
L 130.379433 246.136221 
L 130.379974 246.143913 
L 130.436788 245.414161 
L 130.438412 245.427099 
L 130.605068 242.135585 
L 130.605609 242.158936 
L 130.60615 242.163308 
L 130.635369 241.500496 
L 130.728436 239.235762 
L 130.938921 232.26288 
L 131.131549 217.700458 
L 131.209466 187.407801 
L 131.233815 55.348871 
L 131.325801 178.86712 
L 131.550895 245.141975 
L 131.632058 246.70932 
L 131.683462 246.448765 
L 131.882042 243.152978 
L 132.097396 237.902687 
L 132.398784 223.853941 
L 132.51566 201.313882 
L 132.544337 127.380077 
L 132.5557 55.345542 
L 132.650391 180.409982 
L 132.88306 245.492812 
L 132.883601 245.47107 
L 132.964224 246.633032 
L 133.005888 246.371978 
L 133.156311 244.04398 
L 133.189859 243.373641 
L 133.357056 239.540057 
L 133.471226 236.190597 
L 133.763415 218.553927 
L 133.838627 196.723457 
L 133.863517 89.782372 
L 133.871633 55.48486 
L 133.965242 179.623302 
L 134.19737 245.253608 
L 134.26663 246.531875 
L 134.328855 246.129193 
L 134.875357 232.713126 
L 135.038767 222.377856 
L 135.149149 194.9627 
L 135.173498 75.312119 
L 135.179991 55.32779 
L 135.269812 177.733854 
L 135.497612 245.177928 
L 135.586892 246.740449 
L 135.628556 246.515064 
L 135.873129 242.199295 
L 135.876375 242.105802 
L 136.063593 237.281416 
L 136.342255 223.895186 
L 136.465082 197.219161 
L 136.489972 96.446885 
L 136.49863 55.372596 
L 136.593321 180.394585 
L 136.815709 245.107666 
L 136.904989 246.706457 
L 136.956393 246.342792 
L 136.957475 246.349457 
L 137.464477 234.605237 
L 137.773981 203.290533 
L 137.805905 133.555193 
L 137.817809 55.270714 
L 137.9125 180.567977 
L 138.131642 245.081271 
L 138.225251 246.737423 
L 138.262045 246.534262 
L 138.265292 246.537632 
L 138.949772 226.132994 
L 139.087209 204.984942 
L 139.121839 145.666109 
L 139.134825 55.445149 
L 139.228975 179.977699 
L 139.454609 245.001327 
L 139.542266 246.534771 
L 139.581225 246.323793 
L 139.583389 246.331809 
L 139.938345 239.393944 
L 140.392861 206.632342 
L 140.430737 153.801148 
L 140.444806 55.374321 
L 140.537873 179.442028 
L 140.764591 245.148311 
L 140.782447 245.716885 
L 140.836556 246.556837 
L 140.902569 246.193282 
L 141.546467 228.003759 
L 141.664425 216.543951 
L 141.733143 188.953154 
L 141.758575 55.239621 
L 141.85056 178.978822 
L 142.079983 245.431253 
L 142.168721 246.88743 
L 142.216879 246.523101 
L 142.48039 241.712529 
L 142.480931 241.716521 
L 142.509609 241.044471 
L 142.511232 241.054711 
L 142.73362 234.57515 
L 142.776908 232.943132 
L 143.008495 213.48116 
L 143.066391 177.465797 
L 143.085871 55.334598 
L 143.176774 178.277752 
L 143.419183 245.644127 
L 143.431628 245.986896 
L 143.485737 246.631719 
L 143.547962 246.25388 
L 143.820131 241.284214 
L 143.825542 241.17229 
L 144.203223 227.236332 
L 144.373667 194.129827 
L 144.403427 55.266052 
L 144.498118 180.42878 
L 144.718883 245.058986 
L 144.7968 246.732776 
L 144.845498 246.514726 
L 144.909347 245.730005 
L 145.14905 241.139764 
L 145.239412 238.828165 
L 145.441239 231.843696 
L 145.612765 219.297527 
L 145.701504 188.034079 
L 145.726394 55.29606 
L 145.81838 179.048282 
L 146.038604 244.935591 
L 146.130048 246.679884 
L 146.169548 246.434415 
L 146.17063 246.43475 
L 146.88 224.369463 
L 147.003369 201.02153 
L 147.031505 128.175917 
L 147.042868 55.406101 
L 147.1381 180.608298 
L 147.358865 244.985269 
L 147.458967 246.570121 
L 147.506583 246.138755 
L 147.705705 242.773167 
L 147.706246 242.780511 
L 147.748451 241.842218 
L 148.143988 227.848395 
L 148.287919 211.00551 
L 148.337158 170.685528 
L 148.354473 55.375799 
L 148.445917 178.580799 
L 148.686703 245.737979 
L 148.758127 246.747714 
L 148.806825 246.457613 
L 149.007569 243.174938 
L 149.129856 240.508544 
L 149.549743 221.458562 
L 149.654173 191.254791 
L 149.681769 55.257043 
L 149.774295 179.579296 
L 150.001553 245.413095 
L 150.077847 246.880952 
L 150.140073 246.502846 
L 150.347852 243.061324 
L 150.348393 243.068217 
L 150.390057 242.17931 
L 150.734191 231.498648 
L 150.845114 224.659004 
L 150.963072 205.130266 
L 150.99662 156.774061 
L 151.011229 55.318977 
L 151.104297 179.567044 
L 151.335343 245.450122 
L 151.414883 246.693195 
L 151.475485 246.270135 
L 151.476567 246.272839 
L 151.589655 244.48841 
L 152.220567 218.555592 
L 152.296861 195.608479 
L 152.321751 76.862895 
L 152.328785 55.383121 
L 152.419148 178.121016 
L 152.647488 245.125524 
L 152.727569 246.598411 
L 152.793041 246.180219 
L 152.944006 243.664228 
L 152.988916 242.765728 
L 153.205353 237.402275 
L 153.205894 237.407015 
L 153.230784 236.654882 
L 153.279482 234.971708 
L 153.280023 234.973883 
L 153.560308 214.549308 
L 153.621993 181.982467 
L 153.643636 55.41932 
L 153.73454 178.341537 
L 153.970996 245.321909 
L 154.05703 246.436896 
L 154.11168 246.004866 
L 154.263185 243.412528 
L 154.58784 235.028158 
L 154.743674 227.728346 
L 154.886522 210.524637 
L 154.934679 166.810394 
L 154.951453 55.337586 
L 155.042897 178.859108 
L 155.278272 245.481979 
L 155.278813 245.476023 
L 155.313984 246.301358 
L 155.315066 246.287835 
L 155.346991 246.602581 
L 155.419497 246.130687 
L 155.42112 246.15315 
L 155.800966 238.257854 
L 156.156463 219.215752 
L 156.243037 189.849048 
L 156.269009 55.297346 
L 156.361536 179.231499 
L 156.589876 245.365768 
L 156.681321 246.782509 
L 156.759238 246.053664 
L 157.406383 226.055213 
L 157.549231 202.018656 
L 157.579532 123.836172 
L 157.590353 55.341924 
L 157.685585 180.713515 
L 157.920419 245.681856 
L 157.989137 246.749833 
L 158.047575 246.456228 
L 158.206115 243.889841 
L 158.539968 235.349239 
L 158.785623 221.103025 
L 158.881396 196.906027 
L 158.906287 92.058463 
L 158.914403 55.387492 
L 159.008553 179.965247 
L 159.234188 245.11123 
L 159.315892 246.588285 
L 159.364049 246.264717 
L 159.366214 246.28701 
L 159.441967 245.245181 
L 159.442508 245.266573 
L 159.832634 235.957412 
L 159.843997 235.543694 
L 160.0139 227.836784 
L 160.181097 203.033184 
L 160.211939 139.682934 
L 160.224384 55.302754 
L 160.318534 180.185342 
L 160.557155 245.933109 
L 160.621004 246.827247 
L 160.69838 246.359829 
L 161.398551 223.52053 
L 161.489455 209.646082 
L 161.535447 161.491687 
L 161.551139 55.239843 
L 161.643124 179.226807 
L 161.864431 245.19978 
L 161.961286 246.869575 
L 162.009984 246.495134 
L 162.644684 229.098788 
L 162.766429 218.765891 
L 162.848134 192.018081 
L 162.876271 55.374387 
L 162.969338 179.62172 
L 163.190103 244.927851 
L 163.265856 246.618787 
L 163.330787 246.27239 
L 163.331328 246.281149 
L 163.391389 245.476941 
L 163.39193 245.488652 
L 163.562374 242.165067 
L 163.562915 242.177239 
L 163.910295 231.40516 
L 164.126191 209.270146 
L 164.169478 168.510787 
L 164.186252 55.315409 
L 164.277696 178.622669 
L 164.511447 245.553528 
L 164.597481 246.794413 
L 164.653754 246.343137 
L 164.730589 245.272283 
L 164.882095 242.26163 
L 164.882636 242.269135 
L 164.925382 241.317175 
L 164.925923 241.319044 
L 164.938368 240.9733 
L 164.93945 240.976243 
L 165.133702 235.49876 
L 165.390179 220.282464 
L 165.481623 193.876816 
L 165.511383 55.3205 
L 165.605533 180.249685 
L 165.839284 245.612451 
L 165.917743 246.650495 
L 165.973475 246.246014 
L 165.975098 246.251965 
L 166.142836 243.382173 
L 166.143919 243.399912 
L 166.208849 242.002369 
L 166.453423 235.386302 
L 166.481018 234.398547 
L 166.674188 223.4805 
L 166.795933 194.955153 
L 166.820823 71.170237 
L 166.826775 55.296797 
L 166.914432 176.518118 
L 167.146019 245.191987 
L 167.222854 246.658894 
L 167.282915 246.292945 
L 167.286161 246.302595 
L 167.358127 245.350118 
L 167.61785 239.841085 
L 167.618391 239.853332 
L 167.668172 238.463439 
L 167.884608 230.416827 
L 168.011223 221.170378 
L 168.102668 200.257868 
L 168.130263 117.779719 
L 168.141085 55.242883 
L 168.235776 180.775602 
L 168.456541 245.255787 
L 168.542575 246.852027 
L 168.610752 246.43881 
L 169.084207 235.811842 
L 169.422388 205.30885 
L 169.457559 147.484532 
L 169.471087 55.298019 
L 169.564695 180.047516 
L 169.788166 245.051943 
L 169.857967 246.654653 
L 169.915322 246.418215 
L 169.916404 246.450953 
L 169.988369 245.474545 
L 169.988911 245.480789 
L 169.989452 245.485107 
L 170.025164 244.884431 
L 170.025705 244.894622 
L 170.304908 238.665941 
L 170.305449 238.668801 
L 170.322223 238.162567 
L 170.364428 236.957681 
L 170.601967 226.04833 
L 170.731287 207.467773 
L 170.769164 167.321144 
L 170.785937 55.300273 
L 170.877382 178.818867 
L 171.111133 245.504757 
L 171.187968 246.686916 
L 171.279412 245.954414 
L 171.429295 243.226032 
L 171.430377 243.233246 
L 171.43687 243.093928 
L 172.011508 216.428112 
L 172.085638 177.061473 
L 172.105117 55.394097 
L 172.19602 178.267787 
L 172.429772 245.329808 
L 172.506607 246.583043 
L 172.56775 246.14138 
L 172.965993 237.737222 
L 173.371811 203.046562 
L 173.403194 134.954794 
L 173.415098 55.352967 
L 173.509789 180.424427 
L 173.731095 245.064702 
L 173.735424 245.232132 
L 173.826327 246.661017 
L 173.862039 246.456936 
L 174.562752 224.717181 
L 174.706141 185.10767 
L 174.729408 55.422374 
L 174.820311 178.402698 
L 175.056768 245.506332 
L 175.057309 245.500397 
L 175.131439 246.638677 
L 175.205568 246.096715 
L 175.343005 243.795603 
L 175.620585 237.015982 
L 175.659543 235.754611 
L 175.890048 223.763526 
L 176.012876 196.508788 
L 176.037766 86.94711 
L 176.045882 55.421835 
L 176.13895 179.597979 
L 176.364044 245.063238 
L 176.458735 246.541514 
L 176.495529 246.279911 
L 176.737937 242.120471 
L 176.930566 237.210995 
L 177.226001 221.605251 
L 177.326644 196.343003 
L 177.352076 79.445836 
L 177.35911 55.280952 
L 177.450554 178.708874 
L 177.687552 245.690724 
L 177.762223 246.725545 
L 177.821743 246.345412 
L 178.495401 226.437531 
L 178.625263 209.407671 
L 178.670714 160.610428 
L 178.685865 55.360587 
L 178.778391 179.179125 
L 179.017012 245.702958 
L 179.017553 245.698449 
L 179.046772 246.382203 
L 179.098717 246.719006 
L 179.149039 246.290689 
L 179.837306 224.205637 
L 179.967168 194.967245 
L 179.992599 67.958783 
L 179.99801 55.341279 
L 180.082961 174.912987 
L 180.311843 244.951943 
L 180.390301 246.680318 
L 180.453068 246.369979 
L 181.130513 226.168201 
L 181.283642 196.68874 
L 181.307991 95.440024 
L 181.316649 55.443075 
L 181.410799 179.967591 
L 181.631564 244.871089 
L 181.718679 246.589418 
L 181.77874 246.176837 
L 182.471337 224.231216 
L 182.592541 201.424085 
L 182.62176 123.576393 
L 182.632582 55.357224 
L 182.727814 180.633463 
L 182.95399 245.264262 
L 183.037859 246.687825 
L 183.094132 246.347146 
L 183.657408 232.508138 
L 183.912803 203.681823 
L 183.944727 143.182763 
L 183.957713 55.524548 
L 184.051863 179.95132 
L 184.274252 244.876643 
L 184.369484 246.584671 
L 184.444695 245.980596 
L 184.503674 245.164741 
L 184.504215 245.171066 
L 184.690351 241.723735 
L 184.690892 241.728393 
L 184.721193 241.05869 
L 184.905164 236.566176 
L 185.127552 227.64507 
L 185.30503 198.787925 
L 185.331002 113.552717 
L 185.341283 56.07917 
L 185.436515 179.990656 
L 185.672431 245.005591 
L 185.775238 246.375453 
L 185.838545 245.991842 
L 186.650723 231.552535 
L 186.90233 210.130602 
L 186.948323 175.714665 
L 186.967802 57.224114 
L 187.058705 176.331507 
L 187.294621 243.28546 
L 187.428812 245.818728 
L 187.436387 245.809129 
L 187.467229 245.870252 
L 187.540817 245.578461 
L 187.5419 245.611042 
L 187.675008 245.057296 
L 187.675549 245.067105 
L 187.765911 244.780425 
L 187.771322 244.793299 
L 187.926615 244.402699 
L 187.772945 244.803639 
L 187.935273 244.444983 
L 187.942848 244.450851 
L 187.997498 244.257286 
L 188.020224 244.256949 
L 188.153873 244.11662 
L 188.032128 244.30105 
L 188.156038 244.128451 
L 188.178223 244.168382 
L 188.227462 244.069348 
L 188.265879 244.114466 
L 188.275619 244.077877 
L 188.2859 244.15827 
L 188.376803 244.118958 
L 188.502877 244.285075 
L 188.401693 244.103211 
L 188.503418 244.269224 
L 188.521274 244.226241 
L 188.606225 244.444685 
L 188.60839 244.408961 
L 188.7323 244.746765 
L 188.732841 244.726407 
L 188.830237 245.158113 
L 188.832401 245.135627 
L 188.834025 245.131502 
L 188.987695 245.81818 
L 188.9904 245.794524 
L 189.026112 246.046662 
L 189.028817 246.041963 
L 189.170042 247.009701 
L 189.341568 248.419226 
L 189.171665 246.987335 
L 189.344273 248.408187 
L 189.344815 248.389812 
L 189.429766 249.262064 
L 189.612113 251.253334 
L 189.613737 251.247383 
L 189.614278 251.232696 
L 189.690572 252.15145 
L 189.692195 252.130804 
L 189.714921 252.486459 
L 189.875625 254.752148 
L 189.877248 254.748282 
L 189.877789 254.742603 
L 189.922159 255.446506 
L 189.9227 255.444082 
L 189.948672 255.818832 
L 190.148335 259.047003 
L 190.148876 259.045722 
L 190.163485 259.285327 
L 190.366935 262.69753 
L 190.368017 262.690881 
L 190.388038 263.091541 
L 191.59954 281.256601 
L 191.600081 281.246402 
L 191.600623 281.236105 
L 191.672047 281.946163 
L 191.675834 281.906612 
L 191.839244 283.422518 
L 191.840867 283.401215 
L 191.929065 284.226344 
L 191.929606 284.206887 
L 192.056221 285.129036 
L 192.056762 285.115042 
L 192.057844 285.112819 
L 192.097885 285.323826 
L 192.375465 286.936763 
L 192.100049 285.311398 
L 192.377629 286.909746 
L 192.381417 286.885728 
L 192.456628 287.293938 
L 192.589737 287.790249 
L 192.591901 287.777015 
L 192.594607 287.750227 
L 192.632483 287.924308 
L 192.635188 287.911042 
L 192.636271 287.903871 
L 192.762886 288.419251 
L 192.947398 288.966446 
L 192.767215 288.388244 
L 192.949021 288.961318 
L 192.949562 288.93603 
L 193.051828 289.306636 
L 193.052911 289.265437 
L 193.170868 289.635793 
L 193.058863 289.25038 
L 193.173033 289.629792 
L 193.174115 289.609913 
L 193.267724 289.880684 
L 193.273135 289.831159 
L 193.466304 290.354593 
L 193.282874 289.809363 
L 193.468468 290.347323 
L 193.469009 290.332164 
L 193.568029 290.625847 
L 193.570735 290.588437 
L 193.586967 290.566242 
L 193.654063 290.770421 
L 193.65785 290.763184 
L 193.796911 291.156936 
L 193.664343 290.755267 
L 193.797452 291.150173 
L 193.798534 291.13413 
L 193.896471 291.41708 
L 193.899718 291.389025 
L 194.611793 293.07233 
L 194.612876 293.039884 
L 194.617204 293.03267 
L 194.695121 293.251536 
L 194.697827 293.2452 
L 194.822278 293.486648 
L 194.832559 293.454591 
L 194.978112 293.680816 
L 194.833641 293.451154 
L 194.980276 293.656927 
L 194.980817 293.641783 
L 195.07118 293.843349 
L 195.085248 293.812772 
L 195.228096 294.035252 
L 195.091741 293.76801 
L 195.228637 294.021216 
L 195.23513 293.963327 
L 195.306013 294.096954 
L 195.338479 294.067333 
L 195.459683 294.248669 
L 195.348759 294.040474 
L 195.463471 294.223278 
L 195.465094 294.200484 
L 195.565737 294.361531 
L 195.570065 294.307153 
L 195.673955 294.567608 
L 195.684777 294.553572 
L 195.693975 294.519948 
L 195.776221 294.656628 
L 195.793536 294.622367 
L 195.894179 294.746409 
L 195.834659 294.604516 
L 195.906083 294.739267 
L 195.909329 294.69255 
L 196.005644 294.874515 
L 196.010513 294.867014 
L 196.116567 294.934687 
L 196.014301 294.841108 
L 196.12306 294.898629 
L 196.176087 294.859348 
L 196.134423 294.955462 
L 196.228573 294.922151 
L 196.342202 295.064287 
L 196.343825 295.046928 
L 196.445551 295.14026 
L 196.369798 295.012821 
L 196.457455 295.128393 
L 196.466112 295.0633 
L 196.535913 295.211296 
L 196.566755 295.205827 
L 196.656035 295.175393 
L 196.617617 295.296063 
L 196.677137 295.21398 
L 196.729623 295.320732 
L 196.682548 295.211373 
L 196.790225 295.267847 
L 196.825937 295.240472 
L 196.878964 295.368118 
L 196.900067 295.312479 
L 196.955258 295.420865 
L 196.903313 295.304133 
L 197.023977 295.331891 
L 197.126243 295.250703 
L 197.062935 295.353825 
L 197.137606 295.293112 
L 197.247988 295.382932 
L 197.153839 295.247854 
L 197.251235 295.367677 
L 197.360535 295.391738 
L 197.272879 295.311832 
L 197.363241 295.38575 
L 197.37298 295.325389 
L 197.453603 295.468876 
L 197.469295 295.425652 
L 197.520157 295.488 
L 197.550999 295.372095 
L 197.579677 295.412322 
L 197.613766 295.325548 
L 197.599156 295.438695 
L 197.691683 295.3445 
L 197.792867 295.465784 
L 197.803689 295.410555 
L 197.876195 295.370566 
L 197.903791 295.468131 
L 197.914071 295.408423 
L 197.94329 295.468246 
L 198.017961 295.356805 
L 198.023913 295.385743 
L 198.132672 295.301171 
L 198.03257 295.392386 
L 198.138083 295.306548 
L 198.175959 295.364343 
L 198.234397 295.256232 
L 198.249548 295.330504 
L 198.350732 295.214473 
L 198.363718 295.224132 
L 198.432436 295.301603 
L 198.39456 295.195605 
L 198.478429 295.21464 
L 198.535244 295.13873 
L 198.491956 295.227917 
L 198.590976 295.168975 
L 198.606127 295.233333 
L 198.689455 295.065652 
L 198.693783 295.110865 
L 198.798214 295.021697 
L 198.759796 295.142929 
L 198.805789 295.041502 
L 198.812823 295.066253 
L 198.871261 294.943539 
L 198.90048 294.954534 
L 198.90535 294.902334 
L 198.938356 294.988926 
L 199.010863 294.955275 
L 199.096896 295.029276 
L 199.05415 294.871299 
L 199.121245 294.937532 
L 199.166156 294.826047 
L 199.122327 294.95438 
L 199.235956 294.871249 
L 199.243532 294.898343 
L 199.323072 294.765299 
L 199.339846 294.770516 
L 199.405318 294.685193 
L 199.345798 294.804836 
L 199.451311 294.737926 
L 199.486481 294.763293 
L 199.527604 294.63855 
L 199.558988 294.668386 
L 199.592535 294.728471 
L 199.659631 294.613444 
L 199.667747 294.666783 
L 199.774883 294.514295 
L 199.781376 294.552458 
L 200.197475 294.25723 
L 199.805725 294.611483 
L 200.207215 294.28871 
L 200.213708 294.340271 
L 200.301905 294.153686 
L 200.314892 294.171339 
L 200.428521 293.990219 
L 200.340864 294.21724 
L 200.433391 294.008566 
L 200.521047 293.942165 
L 200.45287 294.091972 
L 200.549725 294.000189 
L 200.550266 294.012816 
L 200.639546 293.916 
L 200.658484 293.958049 
L 200.769408 293.800223 
L 200.677423 293.973671 
L 200.772113 293.812026 
L 200.772655 293.836331 
L 200.828928 293.626455 
L 200.879249 293.632286 
L 200.996125 293.527998 
L 200.887907 293.67983 
L 201.000995 293.533292 
L 201.001536 293.540649 
L 201.076207 293.397642 
L 201.104884 293.440045 
L 201.203904 293.300157 
L 201.106508 293.450464 
L 201.226089 293.306593 
L 201.229335 293.325786 
L 201.318615 293.15021 
L 201.322944 293.171759 
L 201.433868 293.067073 
L 201.347834 293.203276 
L 201.435491 293.077106 
L 201.549661 292.972912 
L 201.441443 293.105989 
L 201.553449 292.990264 
L 201.555072 293.027061 
L 201.647599 292.786387 
L 201.658961 292.808509 
L 201.807761 292.53172 
L 201.669783 292.817423 
L 201.81696 292.558728 
L 201.822912 292.590654 
L 201.918144 292.378811 
L 201.923555 292.412331 
L 202.038807 292.225985 
L 201.930589 292.417621 
L 202.039889 292.226663 
L 202.049629 292.270093 
L 202.10482 292.114776 
L 202.135121 292.122178 
L 202.246045 292.019357 
L 202.155142 292.155296 
L 202.248209 292.053419 
L 202.358051 291.896396 
L 202.362921 291.930715 
L 202.365085 291.96267 
L 202.46681 291.790632 
L 202.47168 291.825094 
L 202.585309 291.653523 
L 202.483584 291.853698 
L 202.596131 291.676933 
L 202.616151 291.748537 
L 202.698397 291.569078 
L 202.700561 291.603769 
L 202.814191 291.41743 
L 202.815814 291.423058 
L 202.81906 291.456914 
L 202.879663 291.2827 
L 202.91808 291.290547 
L 203.053894 291.014996 
L 202.925655 291.325272 
L 203.056058 291.029282 
L 203.093935 291.078773 
L 203.05714 291.026375 
L 203.132893 290.950419 
L 203.247604 290.81404 
L 203.162112 290.966355 
L 203.251933 290.847702 
L 203.39911 290.534955 
L 203.401815 290.546167 
L 203.402356 290.582479 
L 203.506787 290.333729 
L 203.509492 290.341789 
L 203.588492 290.157747 
L 203.512739 290.371895 
L 203.629615 290.206048 
L 203.630697 290.216352 
L 203.703744 290.066849 
L 203.71186 290.09129 
L 203.712943 290.111263 
L 203.839558 289.830806 
L 203.848215 289.869437 
L 203.938036 289.614481 
L 203.941824 289.666414 
L 204.055994 289.368572 
L 204.058159 289.392119 
L 204.081425 289.445074 
L 204.150144 289.241015 
L 204.165295 289.286555 
L 204.278924 289.170777 
L 204.168541 289.304141 
L 204.279465 289.181423 
L 204.284335 289.20395 
L 204.428265 288.875302 
L 204.429347 288.914885 
L 204.532154 288.630981 
L 204.535401 288.658282 
L 204.656064 288.434032 
L 204.539729 288.676099 
L 204.659852 288.47195 
L 204.665263 288.500401 
L 204.756166 288.28368 
L 204.766447 288.318595 
L 204.900096 288.049895 
L 204.770234 288.320042 
L 204.905507 288.103978 
L 204.930938 288.128357 
L 204.990458 287.959467 
L 205.004527 287.993306 
L 205.123567 287.726629 
L 205.13006 287.769302 
L 205.230161 287.523174 
L 205.349201 287.279089 
L 205.249641 287.557653 
L 205.351907 287.287517 
L 205.356236 287.317091 
L 205.453091 287.052578 
L 205.453632 287.067297 
L 205.468783 287.089676 
L 205.572672 286.807106 
L 205.686842 286.536022 
L 205.573754 286.835972 
L 205.694417 286.536406 
L 205.714979 286.570271 
L 205.788567 286.369222 
L 205.789649 286.378847 
L 205.792896 286.404765 
L 205.847005 286.213885 
L 205.859991 286.245125 
L 205.975244 285.985432 
L 205.862156 286.274681 
L 205.977408 285.993586 
L 205.979572 286.013199 
L 206.076428 285.797743 
L 206.084003 285.844397 
L 206.210618 285.578336 
L 206.087249 285.850923 
L 206.2117 285.597515 
L 206.219276 285.604194 
L 206.28096 285.482842 
L 206.287453 285.494574 
L 206.403788 285.179072 
L 206.289076 285.494956 
L 206.408657 285.218655 
L 206.409199 285.220246 
L 206.476835 285.07469 
L 206.477376 285.083094 
L 206.620765 284.636088 
L 206.481164 285.091313 
L 206.621306 284.646512 
L 206.627799 284.676345 
L 206.726819 284.419403 
L 206.727901 284.45085 
L 206.728442 284.457055 
L 206.817181 284.204924 
L 206.819887 284.2282 
L 206.94542 284.037993 
L 206.838284 284.271019 
L 206.948125 284.042389 
L 206.959488 284.081304 
L 207.046604 283.856456 
L 207.053097 283.884553 
L 207.179171 283.467271 
L 207.182959 283.492042 
L 207.212719 283.354762 
L 207.233821 283.357378 
L 207.343663 283.12837 
L 207.237609 283.371548 
L 207.349073 283.136404 
L 207.351779 283.186978 
L 207.455127 282.905821 
L 207.57038 282.672036 
L 207.462161 282.914013 
L 207.572544 282.685135 
L 207.693748 282.355548 
L 207.573626 282.687133 
L 207.704029 282.376794 
L 207.708358 282.414732 
L 207.811165 282.200707 
L 207.812247 282.212108 
L 207.929123 281.952675 
L 207.819281 282.214737 
L 207.930746 281.979631 
L 207.931828 282.003626 
L 208.030307 281.693898 
L 208.033553 281.722115 
L 208.158004 281.340356 
L 208.166662 281.359806 
L 208.172614 281.404485 
L 208.261894 281.164372 
L 208.379311 280.768601 
L 208.266764 281.1784 
L 208.380393 280.786041 
L 208.496186 280.472307 
L 208.506467 280.487756 
L 208.507008 280.509936 
L 208.600076 280.200873 
L 208.611439 280.239654 
L 208.785129 279.714688 
L 208.614144 280.244975 
L 208.796492 279.730244 
L 208.797033 279.735684 
L 208.876032 279.44477 
L 208.880902 279.473665 
L 209.003729 279.128933 
L 208.886313 279.48078 
L 209.004271 279.130855 
L 209.029161 279.16184 
L 209.105455 278.9597 
L 209.107078 278.976857 
L 209.216919 278.603469 
L 209.108701 278.98701 
L 209.229364 278.646921 
L 209.230988 278.676943 
L 209.329466 278.270792 
L 209.332713 278.298016 
L 209.333254 278.302394 
L 209.406301 278.049176 
L 209.413876 278.080102 
L 209.526423 277.700875 
L 209.530211 277.716012 
L 209.673059 277.334305 
L 209.535081 277.721588 
L 209.675223 277.347887 
L 209.679011 277.373211 
L 209.754223 277.092683 
L 209.893283 276.675873 
L 209.757469 277.100268 
L 209.893824 276.680989 
L 209.900858 276.73989 
L 209.991761 276.450883 
L 209.997172 276.462223 
L 209.998796 276.466296 
L 210.04046 276.303249 
L 210.051823 276.311633 
L 210.167075 275.991777 
L 210.055069 276.322433 
L 210.172486 276.002155 
L 210.173568 276.02968 
L 210.273129 275.707771 
L 210.275293 275.724791 
L 210.479284 275.045168 
L 210.481449 275.048741 
L 210.483072 275.067123 
L 210.577222 274.783167 
L 210.577763 274.792386 
L 210.696262 274.434257 
L 210.696803 274.440634 
L 210.697344 274.459581 
L 210.797446 274.168102 
L 210.79961 274.173917 
L 210.929472 273.798978 
L 210.808268 274.229015 
L 210.931095 273.828033 
L 214.357283 261.970915 
L 214.480111 261.571374 
L 214.37081 262.020676 
L 214.486604 261.619844 
L 216.575756 250.979059 
L 216.713734 249.819217 
L 216.715898 249.828824 
L 217.661184 238.403743 
L 218.129769 207.514572 
L 218.169268 161.94117 
L 218.18496 55.915253 
L 218.276945 178.178604 
L 218.510156 244.29984 
L 218.597271 245.883379 
L 218.68114 245.4888 
L 219.430551 228.520775 
L 219.616145 203.945489 
L 219.649152 141.597695 
L 219.662138 56.045405 
L 219.756288 179.30258 
L 219.979759 243.960274 
L 220.095011 246.011923 
L 220.115031 245.88625 
L 220.264913 244.363433 
L 220.266537 244.372454 
L 220.284934 244.123709 
L 220.500829 240.623956 
L 220.508404 240.504785 
L 220.958592 225.389022 
L 221.090618 205.206248 
L 221.125789 148.75768 
L 221.139316 56.087593 
L 221.232925 178.839241 
L 221.460183 244.051512 
L 221.476957 244.729348 
L 221.574353 245.874261 
L 221.610607 245.632455 
L 221.613312 245.645269 
L 221.64199 245.362869 
L 221.643613 245.363793 
L 221.791331 243.397397 
L 222.159814 236.009479 
L 222.490961 215.981066 
L 222.558057 188.62343 
L 222.583488 56.076396 
L 222.676015 178.308844 
L 222.905437 244.202485 
L 222.997964 245.953772 
L 223.055319 245.752442 
L 223.058025 245.755819 
L 223.146223 244.673169 
L 223.501178 238.496864 
L 223.501719 238.498241 
L 223.513623 238.240719 
L 223.909161 218.674843 
L 223.992489 190.699372 
L 224.019543 55.970891 
L 224.112611 178.796671 
L 224.346362 244.583539 
L 224.447546 246.060843 
L 224.488669 245.790781 
L 224.489751 245.79297 
L 224.560093 244.951715 
L 224.728913 242.293892 
L 225.121745 232.342492 
L 225.349545 213.970597 
L 225.409606 180.497954 
L 225.430708 55.967779 
L 225.521612 177.674313 
L 225.751034 244.252208 
L 225.751575 244.251973 
L 225.754281 244.360081 
L 225.843561 245.982186 
L 225.885766 245.795772 
L 225.886307 245.807735 
L 225.960977 245.004397 
L 226.06649 243.388427 
L 225.96206 245.006481 
L 226.067031 243.396623 
L 226.251543 239.84978 
L 226.252084 239.858427 
L 226.252625 239.862102 
L 226.277516 239.281943 
L 226.731491 214.808116 
L 226.794799 182.504775 
L 226.816442 55.854942 
L 226.907887 177.952864 
L 227.14759 244.934931 
L 227.168692 245.582667 
L 227.220637 246.223336 
L 227.297472 245.78155 
L 227.334807 245.354328 
L 227.336972 245.356933 
L 227.523107 242.326248 
L 227.523648 242.337065 
L 227.57938 241.262325 
L 227.580463 241.266139 
L 227.913233 231.823645 
L 227.913775 231.831077 
L 227.938665 230.660471 
L 228.148608 207.957661 
L 228.188649 165.563873 
L 228.204881 55.794431 
L 228.296867 178.382507 
L 228.528454 244.798919 
L 228.624768 246.357591 
L 228.671302 246.098629 
L 228.671843 246.102302 
L 228.71026 245.605617 
L 228.711343 245.608012 
L 228.946717 241.558187 
L 229.231872 234.042246 
L 229.509452 212.752598 
L 229.561396 184.61157 
L 229.584122 55.849717 
L 229.675567 177.970008 
L 229.908236 244.605791 
L 229.99968 246.092089 
L 230.042426 245.860704 
L 230.043508 245.861545 
L 230.322711 241.200984 
L 230.611113 233.233325 
L 230.621935 232.809538 
L 230.848111 215.205137 
L 230.906548 192.556622 
L 230.935226 55.656399 
L 231.028835 179.563416 
L 231.267997 245.359825 
L 231.338339 246.41512 
L 231.397318 246.181845 
L 231.397859 246.185013 
L 231.433571 245.762732 
L 231.434112 245.774624 
L 231.578042 243.473965 
L 231.578583 243.490757 
L 231.591569 243.26527 
L 231.592652 243.268778 
L 231.840471 237.708152 
L 231.841012 237.708801 
L 231.8448 237.55178 
L 232.154845 222.984505 
L 232.269015 197.949791 
L 232.294447 103.144276 
L 232.303645 55.649789 
L 232.398877 180.258241 
L 232.62343 244.692364 
L 232.710545 246.384736 
L 232.770607 246.026998 
L 233.051974 241.180119 
L 233.053056 241.203367 
L 233.108247 239.908226 
L 233.530839 220.670449 
L 233.626071 194.72639 
L 233.651503 67.133818 
L 233.656913 55.542186 
L 233.740241 173.872591 
L 233.978863 245.017236 
L 234.065437 246.478191 
L 234.103855 246.298005 
L 234.106019 246.304062 
L 234.638452 234.984643 
L 234.94958 209.067416 
L 234.992326 168.01046 
L 235.0091 55.475762 
L 235.100544 178.474581 
L 235.332672 245.217618 
L 235.357562 245.953619 
L 235.358103 245.952198 
L 235.417623 246.537943 
L 235.474438 246.262837 
L 235.678429 242.83429 
L 235.679511 242.83515 
L 235.680052 242.839308 
L 235.70873 242.207442 
L 235.833722 239.329528 
L 236.287697 210.479918 
L 236.335855 168.101802 
L 236.352628 55.631628 
L 236.444614 178.540564 
L 236.674577 244.836186 
L 236.760611 246.359881 
L 236.813097 245.987367 
L 236.947287 243.960757 
L 236.947828 243.967697 
L 236.993821 243.129674 
L 237.263284 236.71755 
L 237.336873 234.306287 
L 237.662609 184.62171 
L 237.685335 55.451257 
L 237.77678 178.523718 
L 238.022435 245.795801 
L 238.087907 246.744145 
L 238.146345 246.431202 
L 238.185303 245.953254 
L 238.445568 241.008812 
L 238.446109 241.028615 
L 238.512663 239.431826 
L 238.948241 215.038776 
L 239.006679 191.509667 
L 239.034275 55.487989 
L 239.127884 179.64705 
L 239.356765 245.124877 
L 239.441716 246.463087 
L 239.493661 246.159257 
L 239.635427 244.000417 
L 239.680337 243.159446 
L 239.935191 237.083189 
L 240.054772 232.899916 
L 240.263092 217.932271 
L 240.333434 197.361784 
L 240.358324 98.855836 
L 240.367523 55.496067 
L 240.462214 180.387761 
L 240.690013 245.106656 
L 240.769012 246.549155 
L 240.854505 245.869046 
L 241.054708 242.387473 
L 241.055249 242.391376 
L 241.081763 241.798111 
L 241.625018 213.299203 
L 241.683456 174.230286 
L 241.701853 55.454774 
L 241.793297 178.453433 
L 242.025967 245.267394 
L 242.108212 246.633648 
L 242.166109 246.307572 
L 242.218054 245.601047 
L 242.423668 241.665363 
L 242.4491 241.094663 
L 242.449641 241.094826 
L 242.739665 232.069593 
L 242.787281 229.791842 
L 242.997766 197.255634 
L 243.022656 97.404662 
L 243.031313 55.460621 
L 243.126004 180.266382 
L 243.359756 245.399323 
L 243.437673 246.541529 
L 243.484207 246.236061 
L 243.586473 244.803167 
L 243.907881 237.571074 
L 244.221713 221.596748 
L 244.299631 207.986919 
L 244.339671 164.273894 
L 244.355904 55.373654 
L 244.447889 179.077321 
L 244.67136 245.038659 
L 244.763345 246.672208 
L 244.806092 246.389095 
L 244.968419 243.900907 
L 244.97383 243.787628 
L 244.974371 243.790896 
L 245.130746 240.413845 
L 245.210287 238.25789 
L 245.599331 214.426419 
L 245.661015 181.164311 
L 245.682118 55.441363 
L 245.773021 178.208165 
L 245.999738 244.993505 
L 246.088477 246.583051 
L 246.136093 246.25586 
L 246.404474 241.408579 
L 246.482391 239.520651 
L 246.482932 239.523309 
L 246.686383 232.962356 
L 246.796765 227.18004 
L 246.966127 195.38308 
L 246.991558 70.963179 
L 246.99751 55.375904 
L 247.084625 176.134997 
L 247.312966 245.023231 
L 247.395753 246.69644 
L 247.449321 246.402764 
L 247.965521 235.034257 
L 248.261498 211.729966 
L 248.312902 173.155276 
L 248.331299 55.293167 
L 248.422202 178.56743 
L 248.650543 245.216316 
L 248.736035 246.775516 
L 248.773911 246.546878 
L 248.785815 246.439461 
L 249.185681 238.164465 
L 249.530356 219.463103 
L 249.619095 189.344378 
L 249.645068 55.409175 
L 249.737594 179.251137 
L 249.964311 245.016078 
L 250.047098 246.554462 
L 250.108241 246.107137 
L 250.542737 236.928724 
L 250.73266 229.223193 
L 250.887412 213.819615 
L 250.948556 173.606236 
L 250.966953 55.432956 
L 251.057856 178.300506 
L 251.288361 245.156005 
L 251.369524 246.538167 
L 251.441489 245.96781 
L 251.630871 242.68132 
L 251.746124 239.940319 
L 252.208756 212.62577 
L 252.266112 165.01061 
L 252.282345 55.336235 
L 252.37433 178.971969 
L 252.604835 245.322677 
L 252.689786 246.67772 
L 252.735238 246.425925 
L 252.890531 243.974951 
L 252.891072 243.976555 
L 253.175686 237.080972 
L 253.525772 213.237971 
L 253.582586 177.402236 
L 253.602065 55.348315 
L 253.692969 178.338887 
L 253.92672 245.454805 
L 254.013295 246.635682 
L 254.057123 246.392246 
L 254.268148 242.744989 
L 254.579817 233.98096 
L 254.76487 223.213469 
L 254.887156 192.037101 
L 254.915293 55.449474 
L 255.008902 179.763824 
L 255.235619 245.03769 
L 255.316241 246.514457 
L 255.364399 246.318652 
L 255.36494 246.3312 
L 255.435281 245.400867 
L 255.435823 245.404337 
L 255.709073 239.543128 
L 255.709615 239.546152 
L 255.729094 239.041282 
L 256.120303 217.803026 
L 256.197679 188.736908 
L 256.22311 55.315222 
L 256.315095 178.99428 
L 256.536401 245.018573 
L 256.619188 246.712761 
L 256.694941 246.257589 
L 257.229539 233.404809 
L 257.451927 217.386254 
L 257.530385 182.195487 
L 257.552029 55.395335 
L 257.642932 178.358406 
L 257.863697 244.791242 
L 257.958929 246.596817 
L 257.9941 246.391478 
L 257.994641 246.401766 
L 258.06336 245.613478 
L 258.681827 226.478012 
L 258.831168 201.445856 
L 258.860387 124.026815 
L 258.871209 55.380086 
L 258.966441 180.636986 
L 259.196404 245.463123 
L 259.196945 245.451829 
L 259.275404 246.728825 
L 259.322479 246.463177 
L 259.324102 246.463741 
L 259.955555 229.462779 
L 260.105437 215.404769 
L 260.170368 185.118435 
L 260.193635 55.379197 
L 260.284538 178.371184 
L 260.510173 245.053031 
L 260.601617 246.647633 
L 260.660055 246.191242 
L 261.10375 236.413996 
L 261.406761 217.955844 
L 261.487383 184.953593 
L 261.51065 55.346058 
L 261.601553 178.510109 
L 261.830976 245.252736 
L 261.831517 245.251897 
L 261.835305 245.428353 
L 261.835846 245.427013 
L 261.915386 246.675194 
L 261.965167 246.358678 
L 262.662092 224.526443 
L 262.722694 217.972229 
L 262.80007 189.75044 
L 262.826042 55.259118 
L 262.918569 179.256957 
L 263.137169 245.022013 
L 263.219415 246.810655 
L 263.276771 246.528996 
L 263.277312 246.537929 
L 263.338455 245.728947 
L 263.340079 245.739767 
L 263.506193 242.554436 
L 263.506735 242.569385 
L 263.567878 241.202934 
L 263.568419 241.211173 
L 263.667439 238.840098 
L 264.051072 218.042514 
L 264.130612 188.02596 
L 264.155503 55.395007 
L 264.247488 178.860513 
L 264.477993 245.227981 
L 264.553204 246.56957 
L 264.627334 246.028957 
L 264.628416 246.032994 
L 264.643025 245.84967 
L 265.292876 225.175632 
L 265.418409 205.030265 
L 265.453039 147.169102 
L 265.466566 55.403398 
L 265.560175 179.939131 
L 265.789056 245.229924 
L 265.855069 246.565743 
L 265.92974 246.184509 
L 266.50546 231.224421 
L 266.631535 222.917494 
L 266.719732 208.654296 
L 266.760855 169.235387 
L 266.77817 55.395582 
L 266.869615 178.701121 
L 267.087674 244.612138 
L 267.181283 246.597728 
L 267.247296 246.010096 
L 267.388521 243.676749 
L 267.389062 243.687703 
L 267.445335 242.601593 
L 267.445876 242.616518 
L 267.637423 237.891471 
L 267.637964 237.895116 
L 267.739689 234.630276 
L 267.887948 227.473763 
L 268.024303 211.43115 
L 268.074624 172.602708 
L 268.09248 55.313063 
L 268.183924 178.632307 
L 268.414429 245.331001 
L 268.493969 246.724638 
L 268.548079 246.39171 
L 268.734755 243.233642 
L 268.549702 246.395251 
L 268.735296 243.235043 
L 269.207127 227.378556 
L 269.350516 209.265715 
L 269.394345 165.870528 
L 269.410577 55.370684 
L 269.502563 178.867914 
L 269.740102 245.55446 
L 269.812067 246.675664 
L 269.865094 246.360624 
L 270.493841 229.31621 
L 270.695668 196.589086 
L 270.720017 93.316185 
L 270.728675 55.357236 
L 270.822825 180.291486 
L 271.047377 245.176551 
L 271.127459 246.686631 
L 271.199965 246.235249 
L 271.835747 227.759657 
L 271.992122 206.845194 
L 272.029457 161.296888 
L 272.045149 55.47849 
L 272.137135 178.98877 
L 272.371427 245.237908 
L 272.455296 246.439606 
L 272.508864 246.041504 
L 272.510487 246.042944 
L 272.547823 245.549292 
L 273.217693 220.898883 
L 273.311302 197.023375 
L 273.336192 93.850552 
L 273.344849 55.39369 
L 273.438999 180.130408 
L 273.664093 245.080992 
L 273.742551 246.62795 
L 273.796119 246.352974 
L 273.997946 242.898987 
L 274.444346 227.955825 
L 274.581783 212.982385 
L 274.637516 177.619359 
L 274.656995 55.431138 
L 274.747898 178.163303 
L 274.973533 244.905058 
L 275.057943 246.487663 
L 275.157504 245.588499 
L 275.71104 230.078561 
L 275.899881 209.208254 
L 275.943709 165.351453 
L 275.959942 55.38046 
L 276.051927 178.962193 
L 276.285137 245.350792 
L 276.285679 245.347511 
L 276.302993 245.917863 
L 276.365219 246.567049 
L 276.418246 246.225942 
L 276.418787 246.237493 
L 276.485882 245.311333 
L 276.685004 241.314769 
L 276.685545 241.318175 
L 276.708271 240.753312 
L 277.068096 227.4257 
L 277.196876 213.040832 
L 277.252067 179.070921 
L 277.272087 55.348504 
L 277.362991 178.293423 
L 277.592413 245.250888 
L 277.686022 246.630827 
L 277.736343 246.223404 
L 277.76448 245.879097 
L 277.765021 245.879606 
L 278.049094 240.146725 
L 278.049635 240.151499 
L 278.076689 239.40856 
L 278.217914 235.243123 
L 278.471686 219.899285 
L 278.559343 194.943369 
L 278.584233 71.022383 
L 278.590185 55.295471 
L 278.677841 176.49461 
L 278.901853 245.065783 
L 278.902394 245.063319 
L 278.913757 245.528716 
L 279.000873 246.85769 
L 279.0539 246.454889 
L 279.261679 242.79786 
L 279.267631 242.686972 
L 279.268172 242.696447 
L 279.518156 236.192399 
L 279.521402 236.080267 
L 279.521943 236.087795 
L 279.780585 221.672603 
L 279.886639 192.169523 
L 279.914775 55.331122 
L 280.008384 179.884714 
L 280.241053 245.451563 
L 280.310313 246.746436 
L 280.377408 246.419771 
L 280.37849 246.431754 
L 280.846534 235.934446 
L 280.985053 230.229564 
L 281.189585 204.587274 
L 281.223133 146.970165 
L 281.23666 55.401521 
L 281.330269 179.916618 
L 281.57376 245.726227 
L 281.574301 245.726202 
L 281.576465 245.8259 
L 281.577007 245.833447 
L 281.632739 246.592907 
L 281.704163 246.103622 
L 281.870278 243.2972 
L 281.87136 243.3097 
L 281.899497 242.686026 
L 282.288 230.863845 
L 282.499025 207.449833 
L 282.538525 157.884781 
L 282.553676 55.350381 
L 282.646202 179.423895 
L 282.871837 245.124023 
L 282.975727 246.578976 
L 283.00224 246.359941 
L 283.150499 244.022266 
L 283.314991 240.430101 
L 283.603392 230.746625 
L 283.780329 214.781151 
L 283.843095 181.737257 
L 283.864198 55.295342 
L 283.955101 178.302919 
L 284.178572 245.08353 
L 284.262441 246.802699 
L 284.324666 246.41222 
L 284.58926 241.48968 
L 284.589801 241.503259 
L 284.644992 240.108267 
L 285.061632 220.46843 
L 285.14496 201.501709 
L 285.174179 124.986304 
L 285.185542 55.402012 
L 285.280233 180.474524 
L 285.508032 245.223448 
L 285.595148 246.62613 
L 285.634106 246.356229 
L 285.636271 246.370978 
L 285.645469 246.240601 
L 285.80942 243.499404 
L 285.809961 243.503227 
L 285.835392 242.926 
L 285.835933 242.931134 
L 286.018822 238.407532 
L 286.382435 218.375199 
L 286.469009 179.479039 
L 286.489571 55.408149 
L 286.580474 178.362412 
L 286.803945 244.904832 
L 286.902423 246.6106 
L 286.939217 246.378881 
L 286.940841 246.38726 
L 286.967895 246.059935 
L 286.969519 246.063376 
L 287.119942 243.471225 
L 287.375337 237.239827 
L 287.679971 220.637353 
L 287.762758 202.469296 
L 287.7936 129.032499 
L 287.804963 55.452726 
L 287.900195 180.534386 
L 288.124748 244.997132 
L 288.206452 246.436573 
L 288.268678 246.024323 
L 288.623092 238.793929 
L 289.057047 205.787123 
L 289.092759 152.860005 
L 289.106828 55.387843 
L 289.199895 179.579257 
L 289.419037 244.854518 
L 289.517516 246.706816 
L 289.562426 246.40309 
L 289.722589 243.811533 
L 289.72313 243.824673 
L 290.177105 230.138165 
L 290.375686 206.558112 
L 290.413021 156.411115 
L 290.427631 55.423218 
L 290.520698 179.47851 
L 290.743087 244.840054 
L 290.743628 244.835763 
L 290.762025 245.556986 
L 290.834531 246.501745 
L 290.887558 246.081942 
L 291.231692 239.231135 
L 291.675927 208.478693 
L 291.717591 164.410325 
L 291.733824 55.344756 
L 291.825809 179.071135 
L 292.056855 245.388132 
L 292.140183 246.697697 
L 292.192128 246.338278 
L 292.202409 246.199477 
L 292.20295 246.200743 
L 292.568727 238.71504 
L 292.781917 231.244369 
L 292.929635 220.726809 
L 293.029737 188.271499 
L 293.054627 55.363801 
L 293.146612 178.824596 
L 293.370624 245.02719 
L 293.449082 246.635428 
L 293.50752 246.321191 
L 293.784017 241.384942 
L 293.835962 240.156126 
L 294.237993 222.200347 
L 294.341341 198.730603 
L 294.367313 108.731448 
L 294.377053 55.338727 
L 294.472285 180.693703 
L 294.701167 245.368345 
L 294.776378 246.587342 
L 294.83698 246.264887 
L 295.032314 242.813412 
L 295.032855 242.817418 
L 295.060451 242.198493 
L 295.445708 229.741217 
L 295.446249 229.742802 
L 295.635631 206.89854 
L 295.673507 158.705032 
L 295.688657 55.409842 
L 295.781184 179.323101 
L 296.009524 245.193204 
L 296.09664 246.601685 
L 296.146961 246.228427 
L 296.388829 242.007909 
L 296.636649 235.202816 
L 296.63719 235.210892 
L 296.669114 234.057038 
L 296.90503 217.67807 
L 296.980241 190.318627 
L 297.006755 55.389554 
L 297.099281 179.168046 
L 297.331409 245.284045 
L 297.417443 246.565771 
L 297.463436 246.222606 
L 297.464518 246.238769 
L 297.478045 246.089244 
L 297.479127 246.103003 
L 297.678249 242.580901 
L 298.120861 227.382253 
L 298.288599 198.637752 
L 298.314572 107.582147 
L 298.324311 55.402392 
L 298.419543 180.697525 
L 298.641391 244.971998 
L 298.729588 246.570737 
L 298.830772 245.659774 
L 299.063441 240.904228 
L 299.063983 240.915275 
L 299.112681 239.652945 
L 299.355631 231.558384 
L 299.521745 219.263775 
L 299.610484 187.779868 
L 299.635375 55.349798 
L 299.72736 179.089365 
L 299.948666 244.911127 
L 300.047145 246.612751 
L 300.119651 245.880982 
L 300.274944 243.044252 
L 300.275485 243.055205 
L 300.299293 242.572807 
L 300.849041 215.569886 
L 300.917219 180.144171 
L 300.93778 55.457063 
L 301.028684 178.199631 
L 301.268928 245.464529 
L 301.269469 245.462336 
L 301.28462 245.816113 
L 301.337105 246.478939 
L 301.399872 246.050648 
L 301.571398 243.073711 
L 301.606028 242.300386 
L 302.094092 222.574234 
L 302.198522 200.57536 
L 302.226659 117.798271 
L 302.23694 55.337828 
L 302.332172 180.712871 
L 302.571334 245.774156 
L 302.650874 246.746616 
L 302.694161 246.434383 
L 303.063185 239.139897 
L 303.484695 213.461571 
L 303.543133 176.157963 
L 303.562071 55.439044 
L 303.652975 178.191078 
L 303.891596 245.512242 
L 303.961937 246.621068 
L 304.018752 246.25014 
L 304.051759 245.83892 
L 304.218415 242.88568 
L 304.218956 242.892483 
L 304.260079 242.018918 
L 304.426735 237.769495 
L 304.48409 236.00732 
L 304.726499 223.403456 
L 304.845539 196.378147 
L 304.869888 91.041318 
L 304.878545 55.455972 
L 304.972154 179.983054 
L 305.196707 245.080948 
L 305.282199 246.564845 
L 305.331439 246.214451 
L 305.332521 246.215094 
L 305.541382 242.589638 
L 305.735092 237.745985 
L 305.98183 227.553013 
L 306.141452 204.241448 
L 306.174458 145.39418 
L 306.187444 55.399092 
L 306.281594 180.04283 
L 306.509393 245.23642 
L 306.539153 246.099809 
L 306.598673 246.608073 
L 306.653324 246.224086 
L 306.793466 243.950095 
L 307.349708 223.716602 
L 307.456844 205.078106 
L 307.491473 147.465125 
L 307.505001 55.327254 
L 307.598609 179.952085 
L 307.831279 245.395215 
L 307.910819 246.626315 
L 307.952483 246.411108 
L 308.108317 243.979187 
L 308.108858 243.984983 
L 308.110481 243.985729 
L 308.6256 227.00294 
L 308.786304 199.167778 
L 308.812276 117.060959 
L 308.822557 55.329482 
L 308.917789 180.719535 
L 309.139636 245.114929 
L 309.231081 246.665554 
L 309.299258 246.06368 
L 309.604433 240.150852 
L 309.814377 233.545058 
L 309.814918 233.545618 
L 310.032977 218.217473 
L 310.109271 193.626955 
L 310.139031 55.47986 
L 310.233181 180.115564 
L 310.46098 245.081853 
L 310.549719 246.502973 
L 310.590301 246.213117 
L 310.977722 238.271129 
L 311.381376 209.261153 
L 311.426828 157.045741 
L 311.441437 55.353549 
L 311.534505 179.499892 
L 311.761222 245.157762 
L 311.839139 246.615987 
L 311.881344 246.420255 
L 312.122129 242.238927 
L 312.122671 242.260743 
L 312.193553 240.643106 
L 312.670255 215.089448 
L 312.736809 176.369668 
L 312.756288 55.352821 
L 312.847191 178.507847 
L 313.075532 245.248188 
L 313.076073 245.246359 
L 313.08473 245.608205 
L 313.085271 245.607533 
L 313.0896 245.769312 
L 313.15886 246.674384 
L 313.210263 246.375661 
L 313.397481 243.283645 
L 313.746484 233.714908 
L 314.014865 208.895334 
L 314.057071 168.300326 
L 314.073844 55.267129 
L 314.165289 178.747922 
L 314.402287 245.713436 
L 314.486156 246.80903 
L 314.539183 246.453853 
L 314.717743 243.42456 
L 314.788084 241.876678 
L 314.940131 238.125187 
L 314.940672 238.125574 
L 314.945001 238.013233 
L 315.328634 212.644491 
L 315.383284 175.5838 
L 315.402223 55.317351 
L 315.493126 178.391744 
L 315.723631 245.36818 
L 315.805335 246.794328 
L 315.85241 246.520583 
L 316.107805 241.897876 
L 316.286906 237.362216 
L 316.428672 232.317872 
L 316.684608 201.575117 
L 316.713286 133.390397 
L 316.72519 55.483275 
L 316.819881 180.300763 
L 317.050385 245.235289 
L 317.127761 246.45561 
L 317.188364 246.06525 
L 317.189446 246.068997 
L 317.565504 238.124548 
L 317.637469 235.864789 
L 317.956713 212.163028 
L 318.008116 178.803163 
L 318.028137 55.298342 
L 318.11904 178.363802 
L 318.345757 245.129547 
L 318.428544 246.684816 
L 318.49618 246.229522 
L 318.67961 242.973072 
L 318.680151 242.974615 
L 318.680692 242.980392 
L 318.719651 242.212497 
L 319.266153 214.74562 
L 319.326755 185.860358 
L 319.350563 55.374864 
L 319.441466 178.507323 
L 319.662231 244.915681 
L 319.662772 244.91563 
L 319.664937 245.01807 
L 319.746641 246.689176 
L 319.789929 246.462245 
L 319.946304 244.13439 
L 319.792093 246.480204 
L 319.946845 244.146494 
L 320.113501 240.488783 
L 320.396492 231.151631 
L 320.517696 223.191615 
L 320.62375 203.134014 
L 320.655133 137.369607 
L 320.667578 55.363939 
L 320.761728 180.17625 
L 320.989527 245.25241 
L 321.066903 246.638557 
L 321.140492 246.113687 
L 321.142115 246.120641 
L 321.329873 242.762727 
L 321.460817 239.737835 
L 321.827136 223.959143 
L 321.956457 192.522279 
L 321.985135 55.412824 
L 322.078743 179.889221 
L 322.309248 245.316365 
L 322.396364 246.531609 
L 322.442356 246.195676 
L 322.581958 243.940886 
L 322.582499 243.941006 
L 322.586828 243.835061 
L 322.58791 243.832342 
L 322.752943 240.063213 
L 322.753484 240.065516 
L 322.769175 239.648451 
L 323.015913 231.23374 
L 323.021324 230.995546 
L 323.223692 210.424689 
L 323.270225 172.016557 
L 323.288081 55.246997 
L 323.378985 178.504585 
L 323.612736 245.560455 
L 323.690112 246.799218 
L 323.745303 246.448588 
L 323.781556 245.979624 
L 323.941178 243.113494 
L 324.36864 229.905426 
L 324.498502 219.615247 
L 324.58183 196.82216 
L 324.60672 91.08499 
L 324.614836 55.451641 
L 324.708986 179.922782 
L 324.937868 245.161396 
L 325.02336 246.527221 
L 325.07801 246.150284 
L 325.378857 240.235883 
L 325.379398 240.240112 
L 325.478417 237.62539 
L 325.683491 229.636751 
L 325.882612 201.878288 
L 325.912372 127.527805 
L 325.923735 55.405471 
L 326.018426 180.346954 
L 326.239732 244.960577 
L 326.323601 246.61978 
L 326.418833 245.842409 
L 326.904733 234.07303 
L 327.165539 213.358389 
L 327.224518 172.938881 
L 327.242374 55.388992 
L 327.333818 178.433362 
L 327.558371 244.967438 
L 327.643322 246.50552 
L 327.700137 246.212314 
L 327.888977 242.840041 
L 328.443055 218.062873 
L 328.521513 190.2724 
L 328.548026 55.426223 
L 328.640553 179.134901 
L 328.870516 245.158088 
L 328.95168 246.559813 
L 328.996591 246.326115 
L 328.997132 246.329221 
L 329.033385 245.896898 
L 329.033926 245.928039 
L 329.189219 243.098969 
L 329.18976 243.100917 
L 329.206534 242.749684 
L 329.360745 239.184982 
L 329.698385 224.572641 
L 329.827706 198.762447 
L 329.85422 103.198941 
L 329.863418 55.434243 
L 329.95865 180.619676 
L 330.189696 245.312698 
L 330.254627 246.510375 
L 330.327133 246.189145 
L 330.455913 244.079837 
L 330.788684 235.987399 
L 330.789225 235.995008 
L 330.820608 234.8859 
L 330.821149 234.897978 
L 331.06464 219.780444 
L 331.157167 187.640169 
L 331.182057 55.352832 
L 331.273501 178.808302 
L 331.504006 245.352555 
L 331.588416 246.683508 
L 331.643607 246.314864 
L 332.242054 230.539713 
L 332.443881 208.227983 
L 332.485545 160.51418 
L 332.500695 55.432739 
L 332.593222 179.063993 
L 332.821021 245.042311 
L 332.916794 246.508826 
L 332.948719 246.267479 
L 332.94926 246.270419 
L 332.983348 245.867146 
L 332.984431 245.876283 
L 333.15271 242.860946 
L 333.24199 240.957301 
L 333.660794 223.489786 
L 333.767389 204.26397 
L 333.799855 148.833443 
L 333.813382 55.27261 
L 333.906991 179.976707 
L 334.128297 245.13631 
L 334.216495 246.820612 
L 334.266816 246.44393 
L 334.270063 246.455796 
L 334.327418 245.626719 
L 334.521129 241.936716 
L 334.734319 236.193218 
L 334.801955 233.81493 
L 335.028131 218.126039 
L 335.100637 196.479163 
L 335.125527 86.510785 
L 335.133644 55.377407 
L 335.226711 179.697687 
L 335.463709 245.542147 
L 335.542708 246.584534 
L 335.588701 246.310651 
L 335.840308 241.710845 
L 335.840849 241.713886 
L 335.862493 241.256774 
L 336.315927 221.207934 
L 336.414406 195.179631 
L 336.438755 77.407153 
L 336.445789 55.394326 
L 336.536151 178.099821 
L 336.762868 245.102759 
L 336.844573 246.672435 
L 336.896518 246.334556 
L 336.897059 246.335427 
L 336.913833 246.159722 
L 336.914374 246.163086 
L 337.549615 228.258772 
L 337.731962 198.347925 
L 337.757393 108.874823 
L 337.767133 55.393944 
L 337.862365 180.68128 
L 338.091788 245.241316 
L 338.17241 246.559333 
L 338.227601 246.244164 
L 338.353676 244.17024 
L 338.514921 240.661237 
L 338.969437 218.469539 
L 339.056553 179.347923 
L 339.077114 55.34141 
L 339.167476 178.233822 
L 339.40231 245.461194 
L 339.471028 246.688355 
L 339.527302 246.398773 
L 339.719389 243.268283 
L 340.191761 227.890425 
L 340.343267 209.36428 
L 340.387636 165.014485 
L 340.403869 55.352463 
L 340.495855 178.991779 
L 340.720948 245.106815 
L 340.806441 246.631191 
L 340.857303 246.293006 
L 340.857844 246.30589 
L 340.927645 245.349629 
L 341.079692 242.465801 
L 341.329676 235.797379 
L 341.648378 211.325463 
L 341.699241 169.523158 
L 341.716556 55.428351 
L 341.808 178.589623 
L 342.035258 244.952513 
L 342.11047 246.408783 
L 342.16999 246.135206 
L 342.233297 245.212696 
L 342.233839 245.213049 
L 342.481658 240.041084 
L 342.566068 237.755013 
L 342.763567 230.169754 
L 342.764108 230.172596 
L 342.773306 229.661681 
L 342.977297 199.764184 
L 343.004893 108.109351 
L 343.014633 55.271412 
L 343.109865 180.840001 
L 343.321972 244.696023 
L 343.422074 246.71319 
L 343.462115 246.459832 
L 343.462656 246.461984 
L 343.494039 246.132656 
L 343.790557 240.391103 
L 344.043247 232.336781 
L 344.177978 224.355392 
L 344.309463 195.141599 
L 344.333812 77.070726 
L 344.340847 55.383837 
L 344.431209 178.111571 
L 344.659549 245.178977 
L 344.66009 245.177831 
L 344.7445 246.600131 
L 344.789952 246.324831 
L 344.959855 243.577945 
L 344.960396 243.592422 
L 345.02208 242.288568 
L 345.555596 217.447179 
L 345.627561 192.750412 
L 345.656239 55.329603 
L 345.750388 180.237115 
L 345.978729 245.415689 
L 346.062598 246.779015 
L 346.121577 246.350703 
L 346.305548 243.253637 
L 346.30663 243.254027 
L 346.307171 243.260047 
L 346.344506 242.445742 
L 346.576093 236.317343 
L 346.889926 215.433439 
L 346.955398 183.901771 
L 346.977583 55.364221 
L 347.069027 178.464344 
L 347.296285 245.021081 
L 347.377449 246.614066 
L 347.432099 246.293387 
L 347.433181 246.305574 
L 348.131729 223.720724 
L 348.248064 200.666025 
L 348.27566 127.100469 
L 348.287023 55.418569 
L 348.381713 180.313613 
L 348.617629 245.47962 
L 348.68743 246.594574 
L 348.738292 246.339025 
L 348.973667 242.297337 
L 348.974208 242.299277 
L 348.987735 241.952558 
L 349.219322 235.724743 
L 349.219863 235.743286 
L 349.27289 233.815356 
L 349.273431 233.819422 
L 349.533155 212.015004 
L 349.584559 176.781348 
L 349.604038 55.304438 
L 349.694941 178.513471 
L 349.930316 245.625389 
L 350.006068 246.826084 
L 350.056931 246.515789 
L 350.057472 246.522609 
L 350.112122 245.809551 
L 350.116992 245.706012 
L 350.117533 245.707865 
L 350.333428 241.443838 
L 350.347497 241.111274 
L 350.847465 214.149609 
L 350.907526 180.735531 
L 350.928628 55.362819 
L 351.019532 178.488866 
L 351.239756 244.742733 
L 351.329036 246.582569 
L 351.376652 246.330145 
L 351.616355 242.152821 
L 351.616896 242.153167 
L 351.806278 237.353843 
L 352.175302 210.724446 
L 352.223459 170.393221 
L 352.240774 55.311767 
L 352.332218 178.624207 
L 352.559476 245.083811 
L 352.654708 246.637565 
L 352.70016 246.290726 
L 353.405743 222.969958 
L 353.5237 193.108925 
L 353.552919 55.332767 
L 353.647069 180.288998 
L 353.883526 245.697821 
L 353.952785 246.647597 
L 354.012847 246.27557 
L 354.405679 238.121483 
L 354.40622 238.138569 
L 354.461411 236.402116 
L 354.7141 223.55363 
L 354.832058 198.404245 
L 354.857489 109.119766 
L 354.867229 55.30831 
L 354.962461 180.739809 
L 355.185391 245.191024 
L 355.267636 246.794086 
L 355.319581 246.532173 
L 355.55225 242.645579 
L 356.106327 216.008062 
L 356.176669 180.391011 
L 356.197231 55.365803 
L 356.288134 178.26582 
L 356.523508 245.423204 
L 356.609001 246.601441 
L 356.646877 246.302393 
L 356.647418 246.303662 
L 356.669603 246.075488 
L 356.838964 243.039898 
L 356.839505 243.058211 
L 356.90606 241.580032 
L 357.368692 221.999884 
L 357.462301 203.11267 
L 357.493684 135.985504 
L 357.506129 55.311875 
L 357.600279 180.362944 
L 357.816716 244.934441 
L 357.91303 246.778827 
L 357.957399 246.503011 
L 357.958481 246.515233 
L 358.006639 245.864223 
L 358.659194 224.459335 
L 358.778234 203.85333 
L 358.8107 140.784643 
L 358.823145 55.39354 
L 358.917836 180.33718 
L 359.148881 245.424369 
L 359.149423 245.413799 
L 359.200826 246.528696 
L 359.203532 246.51834 
L 359.228422 246.638726 
L 359.296599 246.136428 
L 359.483276 242.764021 
L 359.955107 226.103094 
L 360.084428 207.594218 
L 360.125551 149.583422 
L 360.139078 55.309667 
L 360.232687 179.884479 
L 360.476719 245.958155 
L 360.543273 246.766932 
L 360.600087 246.351048 
L 361.028631 237.15087 
L 361.376012 214.909604 
L 361.438778 183.210898 
L 361.460963 55.317123 
L 361.551866 178.481021 
L 361.781289 245.217772 
L 361.862993 246.60504 
L 361.912233 246.337136 
L 362.166545 241.85927 
L 362.194682 241.180443 
L 362.195223 241.189757 
L 362.441961 233.808662 
L 362.639459 221.657644 
L 362.737396 198.797931 
L 362.763369 110.048625 
L 362.773108 55.239116 
L 362.86834 180.847956 
L 363.099927 245.57116 
L 363.170269 246.735295 
L 363.23033 246.42078 
L 363.450554 242.598729 
L 363.451095 242.601506 
L 363.609094 238.805605 
L 363.776832 233.406502 
L 364.004631 216.285199 
L 364.07822 176.24054 
L 364.097158 55.391029 
L 364.188061 178.197665 
L 364.416401 245.029283 
L 364.500271 246.527105 
L 364.547345 246.290065 
L 364.547887 246.2953 
L 364.593338 245.69125 
L 364.597126 245.697388 
L 365.25888 223.067712 
L 365.376297 194.55136 
L 365.402269 63.205235 
L 365.406598 55.346603 
L 365.484515 170.605111 
L 365.710691 244.422666 
L 365.812416 246.699046 
L 365.856244 246.464818 
L 366.111639 241.868833 
L 366.59321 221.359374 
L 366.678703 204.156481 
L 366.71225 138.194867 
L 366.724695 55.419305 
L 366.818845 180.143438 
L 367.054761 245.510624 
L 367.125644 246.574926 
L 367.179753 246.239696 
L 367.83826 226.806955 
L 367.975156 208.625964 
L 368.017903 161.030044 
L 368.033053 55.370682 
L 368.12558 179.137058 
L 368.356625 245.293762 
L 368.444823 246.612764 
L 368.504343 246.197041 
L 368.666129 243.329757 
L 368.712122 242.337063 
L 369.172049 225.311927 
L 369.288925 208.575577 
L 369.332212 156.442451 
L 369.346822 55.373614 
L 369.439889 179.498755 
L 369.661737 244.80118 
L 369.760215 246.530944 
L 369.794304 246.273147 
L 370.309423 234.584756 
L 370.599988 209.784922 
L 370.645981 164.560708 
L 370.662214 55.355289 
L 370.754199 179.10664 
L 370.985245 245.350006 
L 371.066409 246.670294 
L 371.124305 246.285199 
L 371.516055 238.054898 
L 371.846662 220.925291 
L 371.942435 195.263582 
L 371.967325 73.480275 
L 371.973818 55.217264 
L 372.062557 177.335378 
L 372.280617 244.791266 
L 372.372061 246.843456 
L 372.419677 246.568806 
L 372.420759 246.574945 
L 372.434828 246.443815 
L 373.041932 230.701711 
L 373.240512 210.157562 
L 373.287046 168.165257 
L 373.30382 55.319304 
L 373.395264 178.631474 
L 373.633885 245.638693 
L 373.634426 245.635568 
L 373.699898 246.67725 
L 373.759959 246.372448 
L 374.041327 241.093129 
L 374.041868 241.108661 
L 374.101929 239.64825 
L 374.381673 229.725005 
L 374.566726 208.091987 
L 374.607308 163.775116 
L 374.622999 55.425813 
L 374.715526 178.992638 
L 374.949818 245.387044 
L 375.024489 246.680653 
L 375.085632 246.228152 
L 375.11431 245.898035 
L 375.086714 246.231579 
L 375.114851 245.907177 
L 375.315055 242.203143 
L 375.315596 242.210387 
L 375.806906 221.208916 
L 375.903761 196.306896 
L 375.928111 89.938159 
L 375.936227 55.363528 
L 376.029836 179.800456 
L 376.268457 245.59896 
L 376.332305 246.632129 
L 376.395072 246.282989 
L 376.555235 243.617716 
L 376.555776 243.621642 
L 376.556317 243.623325 
L 376.570385 243.306173 
L 377.132038 219.483663 
L 377.216989 194.326603 
L 377.241338 70.661247 
L 377.24729 55.336191 
L 377.334406 176.213752 
L 377.563287 245.132606 
L 377.653108 246.72086 
L 377.726156 246.114565 
L 378.346787 228.305785 
L 378.527511 199.331111 
L 378.554025 113.625708 
L 378.564305 55.293609 
L 378.659537 180.836928 
L 378.886255 245.324167 
L 378.967418 246.684165 
L 379.033972 246.192116 
L 379.034513 246.199173 
L 379.085917 245.42448 
L 379.269347 241.897943 
L 379.627549 230.342642 
L 379.802321 213.785474 
L 379.859136 183.750584 
L 379.881321 55.297925 
L 379.972765 178.693913 
L 380.206516 245.538385 
L 380.288762 246.784459 
L 380.335837 246.478314 
L 380.494377 243.908469 
L 380.769792 237.141758 
L 380.998132 227.139953 
L 381.161542 199.081833 
L 381.188055 108.502126 
L 381.197795 55.283295 
L 381.293027 180.88781 
L 381.518121 245.415103 
L 381.614976 246.844947 
L 381.659345 246.532639 
L 381.928268 241.543648 
L 381.928809 241.552459 
L 381.972637 240.462499 
L 382.054883 238.369755 
L 382.389818 221.88576 
L 382.492084 197.341148 
L 382.516975 98.468044 
L 382.526173 55.396827 
L 382.620864 180.530867 
L 382.848122 245.231159 
L 382.932532 246.602198 
L 382.980148 246.28783 
L 382.981231 246.292789 
L 383.170071 243.138902 
L 383.743628 216.034051 
L 383.811805 185.079574 
L 383.835072 55.332554 
L 383.925975 178.462404 
L 384.151069 245.083686 
L 384.246301 246.685154 
L 384.308527 246.107826 
L 384.309068 246.112688 
L 384.350732 245.499831 
L 384.351273 245.501147 
L 384.53362 241.830547 
L 384.534161 241.839824 
L 384.581236 240.740303 
L 385.065513 213.341935 
L 385.123409 175.341681 
L 385.142348 55.259646 
L 385.233251 178.548868 
L 385.465379 245.498485 
L 385.548166 246.774148 
L 385.612015 246.27553 
L 385.754863 243.984349 
L 385.755404 244.002617 
L 385.756486 244.008709 
L 385.848471 242.051992 
L 386.064367 236.324334 
L 386.252125 228.187252 
L 386.363049 218.095142 
L 386.443671 187.036728 
L 386.46802 55.332569 
L 386.559465 178.704914 
L 386.789428 245.257823 
L 386.872215 246.633781 
L 386.916585 246.343827 
L 387.579962 227.298746 
L 387.744995 199.397562 
L 387.771508 114.681082 
L 387.781789 55.296399 
L 387.877021 180.863975 
L 388.108608 245.553557 
L 388.178409 246.725221 
L 388.230895 246.465547 
L 388.654569 237.711838 
L 388.850444 230.197709 
L 388.923491 225.575122 
L 389.045236 207.770114 
L 389.085277 161.327396 
L 389.100969 55.430091 
L 389.192954 179.02036 
L 389.427247 245.297809 
L 389.427788 245.296557 
L 389.506787 246.512517 
L 389.553321 246.186698 
L 389.717812 243.437745 
L 389.718353 243.438612 
L 389.718895 243.4397 
L 389.728093 243.21978 
L 390.196678 227.972095 
L 390.371991 199.651459 
L 390.399046 113.762979 
L 390.409327 55.4679 
L 390.504559 180.682875 
L 390.732899 245.158253 
L 390.8027 246.474479 
L 390.869795 246.121619 
L 391.377879 234.119532 
L 391.651671 210.701885 
L 391.700369 167.971324 
L 391.717143 55.341575 
L 391.808588 178.579374 
L 392.025565 244.677886 
L 392.132701 246.60656 
L 392.168954 246.298796 
L 392.171119 246.303744 
L 392.488739 240.289211 
L 392.744675 231.792513 
L 392.745216 231.792847 
L 392.74738 231.663963 
L 392.831791 227.004434 
L 392.981673 205.122164 
L 393.016303 147.972503 
L 393.02983 55.404348 
L 393.123439 179.8614 
L 393.354484 245.290394 
L 393.355025 245.283914 
L 393.434566 246.492909 
L 393.478394 246.238974 
L 393.680762 242.910148 
L 393.718639 242.101018 
L 393.71918 242.103241 
L 393.926417 236.861936 
L 394.055197 232.229524 
L 394.306804 202.693306 
L 394.337647 132.794142 
L 394.349551 55.39721 
L 394.444241 180.498911 
L 394.678534 245.516626 
L 394.753745 246.611997 
L 394.805149 246.287037 
L 395.063791 241.590105 
L 395.064332 241.597781 
L 395.105996 240.614982 
L 395.106537 240.630388 
L 395.551313 218.970286 
L 395.6341 192.027396 
L 395.662237 55.317701 
L 395.755305 179.646856 
L 395.982563 245.286896 
L 395.983104 245.272571 
L 396.069679 246.683665 
L 396.138938 246.12287 
L 396.331567 242.610075 
L 396.332108 242.612556 
L 396.352669 242.205179 
L 396.35321 242.207389 
L 396.544215 237.348239 
L 396.544756 237.352886 
L 396.569105 236.605544 
L 396.715741 230.870383 
L 396.906746 212.691637 
L 396.959232 181.805039 
L 396.980876 55.377812 
L 397.071779 178.414577 
L 397.303366 245.367684 
L 397.381824 246.676376 
L 397.435392 246.406661 
L 397.689705 241.818574 
L 397.959168 234.049909 
L 397.959709 234.050656 
L 398.051695 229.870171 
L 398.171817 220.746853 
L 398.264343 196.8566 
L 398.289233 90.969377 
L 398.29735 55.349408 
L 398.3915 180.107796 
L 398.487273 225.824553 
L 398.487273 225.824553 
" style="fill:none;stroke:#000000;stroke-linecap:square;stroke-width:1.5;"/>
   </g>
   <g id="patch_3">
    <path d="M 57.6 307.584 
L 57.6 41.472 
" style="fill:none;stroke:#000000;stroke-linecap:square;stroke-linejoin:miter;stroke-width:0.8;"/>
   </g>
   <g id="patch_4">
    <path d="M 414.72 307.584 
L 414.72 41.472 
" style="fill:none;stroke:#000000;stroke-linecap:square;stroke-linejoin:miter;stroke-width:0.8;"/>
   </g>
   <g id="patch_5">
    <path d="M 57.6 307.584 
L 414.72 307.584 
" style="fill:none;stroke:#000000;stroke-linecap:square;stroke-linejoin:miter;stroke-width:0.8;"/>
   </g>
   <g id="patch_6">
    <path d="M 57.6 41.472 
L 414.72 41.472 
" style="fill:none;stroke:#000000;stroke-linecap:square;stroke-linejoin:miter;stroke-width:0.8;"/>
   </g>
   <g id="text_15">
    <!-- ChIN_LTS -->
    <defs>
     <path d="M 64.40625 67.28125 
L 64.40625 56.890625 
Q 59.421875 61.53125 53.78125 63.8125 
Q 48.140625 66.109375 41.796875 66.109375 
Q 29.296875 66.109375 22.65625 58.46875 
Q 16.015625 50.828125 16.015625 36.375 
Q 16.015625 21.96875 22.65625 14.328125 
Q 29.296875 6.6875 41.796875 6.6875 
Q 48.140625 6.6875 53.78125 8.984375 
Q 59.421875 11.28125 64.40625 15.921875 
L 64.40625 5.609375 
Q 59.234375 2.09375 53.4375 0.328125 
Q 47.65625 -1.421875 41.21875 -1.421875 
Q 24.65625 -1.421875 15.125 8.703125 
Q 5.609375 18.84375 5.609375 36.375 
Q 5.609375 53.953125 15.125 64.078125 
Q 24.65625 74.21875 41.21875 74.21875 
Q 47.75 74.21875 53.53125 72.484375 
Q 59.328125 70.75 64.40625 67.28125 
z
" id="DejaVuSans-43"/>
     <path d="M 54.890625 33.015625 
L 54.890625 0 
L 45.90625 0 
L 45.90625 32.71875 
Q 45.90625 40.484375 42.875 44.328125 
Q 39.84375 48.1875 33.796875 48.1875 
Q 26.515625 48.1875 22.3125 43.546875 
Q 18.109375 38.921875 18.109375 30.90625 
L 18.109375 0 
L 9.078125 0 
L 9.078125 75.984375 
L 18.109375 75.984375 
L 18.109375 46.1875 
Q 21.34375 51.125 25.703125 53.5625 
Q 30.078125 56 35.796875 56 
Q 45.21875 56 50.046875 50.171875 
Q 54.890625 44.34375 54.890625 33.015625 
z
" id="DejaVuSans-68"/>
     <path d="M 9.8125 72.90625 
L 19.671875 72.90625 
L 19.671875 0 
L 9.8125 0 
z
" id="DejaVuSans-49"/>
     <path d="M 9.8125 72.90625 
L 23.09375 72.90625 
L 55.421875 11.921875 
L 55.421875 72.90625 
L 64.984375 72.90625 
L 64.984375 0 
L 51.703125 0 
L 19.390625 60.984375 
L 19.390625 0 
L 9.8125 0 
z
" id="DejaVuSans-4e"/>
     <path d="M 50.984375 -16.609375 
L 50.984375 -23.578125 
L -0.984375 -23.578125 
L -0.984375 -16.609375 
z
" id="DejaVuSans-5f"/>
     <path d="M 9.8125 72.90625 
L 19.671875 72.90625 
L 19.671875 8.296875 
L 55.171875 8.296875 
L 55.171875 0 
L 9.8125 0 
z
" id="DejaVuSans-4c"/>
     <path d="M -0.296875 72.90625 
L 61.375 72.90625 
L 61.375 64.59375 
L 35.5 64.59375 
L 35.5 0 
L 25.59375 0 
L 25.59375 64.59375 
L -0.296875 64.59375 
z
" id="DejaVuSans-54"/>
     <path d="M 53.515625 70.515625 
L 53.515625 60.890625 
Q 47.90625 63.578125 42.921875 64.890625 
Q 37.9375 66.21875 33.296875 66.21875 
Q 25.25 66.21875 20.875 63.09375 
Q 16.5 59.96875 16.5 54.203125 
Q 16.5 49.359375 19.40625 46.890625 
Q 22.3125 44.4375 30.421875 42.921875 
L 36.375 41.703125 
Q 47.40625 39.59375 52.65625 34.296875 
Q 57.90625 29 57.90625 20.125 
Q 57.90625 9.515625 50.796875 4.046875 
Q 43.703125 -1.421875 29.984375 -1.421875 
Q 24.8125 -1.421875 18.96875 -0.25 
Q 13.140625 0.921875 6.890625 3.21875 
L 6.890625 13.375 
Q 12.890625 10.015625 18.65625 8.296875 
Q 24.421875 6.59375 29.984375 6.59375 
Q 38.421875 6.59375 43.015625 9.90625 
Q 47.609375 13.234375 47.609375 19.390625 
Q 47.609375 24.75 44.3125 27.78125 
Q 41.015625 30.8125 33.5 32.328125 
L 27.484375 33.5 
Q 16.453125 35.6875 11.515625 40.375 
Q 6.59375 45.0625 6.59375 53.421875 
Q 6.59375 63.09375 13.40625 68.65625 
Q 20.21875 74.21875 32.171875 74.21875 
Q 37.3125 74.21875 42.625 73.28125 
Q 47.953125 72.359375 53.515625 70.515625 
z
" id="DejaVuSans-53"/>
    </defs>
    <g transform="translate(208.104375 35.472)scale(0.12 -0.12)">
     <use xlink:href="#DejaVuSans-43"/>
     <use x="69.824219" xlink:href="#DejaVuSans-68"/>
     <use x="133.203125" xlink:href="#DejaVuSans-49"/>
     <use x="162.695312" xlink:href="#DejaVuSans-4e"/>
     <use x="237.5" xlink:href="#DejaVuSans-5f"/>
     <use x="287.5" xlink:href="#DejaVuSans-4c"/>
     <use x="343.009766" xlink:href="#DejaVuSans-54"/>
     <use x="404.09375" xlink:href="#DejaVuSans-53"/>
    </g>
   </g>
   <g id="legend_1">
    <g id="patch_7">
     <path d="M 403.72 54.472 
L 407.72 54.472 
Q 409.72 54.472 409.72 52.472 
L 409.72 48.472 
Q 409.72 46.472 407.72 46.472 
L 403.72 46.472 
Q 401.72 46.472 401.72 48.472 
L 401.72 52.472 
Q 401.72 54.472 403.72 54.472 
z
" style="fill:#ffffff;opacity:0.8;stroke:#cccccc;stroke-linejoin:miter;"/>
    </g>
   </g>
  </g>
 </g>
 <defs>
  <clipPath id="pf86a8a68f1">
   <rect height="266.112" width="357.12" x="57.6" y="41.472"/>
  </clipPath>
 </defs>
</svg>
