<?xml version="1.0" encoding="utf-8" standalone="no"?>
<!DOCTYPE svg PUBLIC "-//W3C//DTD SVG 1.1//EN"
  "http://www.w3.org/Graphics/SVG/1.1/DTD/svg11.dtd">
<!-- Created with matplotlib (http://matplotlib.org/) -->
<svg height="345.6pt" version="1.1" viewBox="0 0 460.8 345.6" width="460.8pt" xmlns="http://www.w3.org/2000/svg" xmlns:xlink="http://www.w3.org/1999/xlink">
 <defs>
  <style type="text/css">
*{stroke-linecap:butt;stroke-linejoin:round;}
  </style>
 </defs>
 <g id="figure_1">
  <g id="patch_1">
   <path d="M 0 345.6 
L 460.8 345.6 
L 460.8 0 
L 0 0 
z
" style="fill:#ffffff;"/>
  </g>
  <g id="axes_1">
   <g id="patch_2">
    <path d="M 57.6 307.584 
L 414.72 307.584 
L 414.72 41.472 
L 57.6 41.472 
z
" style="fill:#ffffff;"/>
   </g>
   <g id="matplotlib.axis_1">
    <g id="xtick_1">
     <g id="line2d_1">
      <defs>
       <path d="M 0 0 
L 0 3.5 
" id="m762126101a" style="stroke:#000000;stroke-width:0.8;"/>
      </defs>
      <g>
       <use style="stroke:#000000;stroke-width:0.8;" x="73.832727" xlink:href="#m762126101a" y="307.584"/>
      </g>
     </g>
     <g id="text_1">
      <!-- 0 -->
      <defs>
       <path d="M 31.78125 66.40625 
Q 24.171875 66.40625 20.328125 58.90625 
Q 16.5 51.421875 16.5 36.375 
Q 16.5 21.390625 20.328125 13.890625 
Q 24.171875 6.390625 31.78125 6.390625 
Q 39.453125 6.390625 43.28125 13.890625 
Q 47.125 21.390625 47.125 36.375 
Q 47.125 51.421875 43.28125 58.90625 
Q 39.453125 66.40625 31.78125 66.40625 
z
M 31.78125 74.21875 
Q 44.046875 74.21875 50.515625 64.515625 
Q 56.984375 54.828125 56.984375 36.375 
Q 56.984375 17.96875 50.515625 8.265625 
Q 44.046875 -1.421875 31.78125 -1.421875 
Q 19.53125 -1.421875 13.0625 8.265625 
Q 6.59375 17.96875 6.59375 36.375 
Q 6.59375 54.828125 13.0625 64.515625 
Q 19.53125 74.21875 31.78125 74.21875 
z
" id="DejaVuSans-30"/>
      </defs>
      <g transform="translate(70.651477 322.182437)scale(0.1 -0.1)">
       <use xlink:href="#DejaVuSans-30"/>
      </g>
     </g>
    </g>
    <g id="xtick_2">
     <g id="line2d_2">
      <g>
       <use style="stroke:#000000;stroke-width:0.8;" x="114.414545" xlink:href="#m762126101a" y="307.584"/>
      </g>
     </g>
     <g id="text_2">
      <!-- 5000 -->
      <defs>
       <path d="M 10.796875 72.90625 
L 49.515625 72.90625 
L 49.515625 64.59375 
L 19.828125 64.59375 
L 19.828125 46.734375 
Q 21.96875 47.46875 24.109375 47.828125 
Q 26.265625 48.1875 28.421875 48.1875 
Q 40.625 48.1875 47.75 41.5 
Q 54.890625 34.8125 54.890625 23.390625 
Q 54.890625 11.625 47.5625 5.09375 
Q 40.234375 -1.421875 26.90625 -1.421875 
Q 22.3125 -1.421875 17.546875 -0.640625 
Q 12.796875 0.140625 7.71875 1.703125 
L 7.71875 11.625 
Q 12.109375 9.234375 16.796875 8.0625 
Q 21.484375 6.890625 26.703125 6.890625 
Q 35.15625 6.890625 40.078125 11.328125 
Q 45.015625 15.765625 45.015625 23.390625 
Q 45.015625 31 40.078125 35.4375 
Q 35.15625 39.890625 26.703125 39.890625 
Q 22.75 39.890625 18.8125 39.015625 
Q 14.890625 38.140625 10.796875 36.28125 
z
" id="DejaVuSans-35"/>
      </defs>
      <g transform="translate(101.689545 322.182437)scale(0.1 -0.1)">
       <use xlink:href="#DejaVuSans-35"/>
       <use x="63.623047" xlink:href="#DejaVuSans-30"/>
       <use x="127.246094" xlink:href="#DejaVuSans-30"/>
       <use x="190.869141" xlink:href="#DejaVuSans-30"/>
      </g>
     </g>
    </g>
    <g id="xtick_3">
     <g id="line2d_3">
      <g>
       <use style="stroke:#000000;stroke-width:0.8;" x="154.996364" xlink:href="#m762126101a" y="307.584"/>
      </g>
     </g>
     <g id="text_3">
      <!-- 10000 -->
      <defs>
       <path d="M 12.40625 8.296875 
L 28.515625 8.296875 
L 28.515625 63.921875 
L 10.984375 60.40625 
L 10.984375 69.390625 
L 28.421875 72.90625 
L 38.28125 72.90625 
L 38.28125 8.296875 
L 54.390625 8.296875 
L 54.390625 0 
L 12.40625 0 
z
" id="DejaVuSans-31"/>
      </defs>
      <g transform="translate(139.090114 322.182437)scale(0.1 -0.1)">
       <use xlink:href="#DejaVuSans-31"/>
       <use x="63.623047" xlink:href="#DejaVuSans-30"/>
       <use x="127.246094" xlink:href="#DejaVuSans-30"/>
       <use x="190.869141" xlink:href="#DejaVuSans-30"/>
       <use x="254.492188" xlink:href="#DejaVuSans-30"/>
      </g>
     </g>
    </g>
    <g id="xtick_4">
     <g id="line2d_4">
      <g>
       <use style="stroke:#000000;stroke-width:0.8;" x="195.578182" xlink:href="#m762126101a" y="307.584"/>
      </g>
     </g>
     <g id="text_4">
      <!-- 15000 -->
      <g transform="translate(179.671932 322.182437)scale(0.1 -0.1)">
       <use xlink:href="#DejaVuSans-31"/>
       <use x="63.623047" xlink:href="#DejaVuSans-35"/>
       <use x="127.246094" xlink:href="#DejaVuSans-30"/>
       <use x="190.869141" xlink:href="#DejaVuSans-30"/>
       <use x="254.492188" xlink:href="#DejaVuSans-30"/>
      </g>
     </g>
    </g>
    <g id="xtick_5">
     <g id="line2d_5">
      <g>
       <use style="stroke:#000000;stroke-width:0.8;" x="236.16" xlink:href="#m762126101a" y="307.584"/>
      </g>
     </g>
     <g id="text_5">
      <!-- 20000 -->
      <defs>
       <path d="M 19.1875 8.296875 
L 53.609375 8.296875 
L 53.609375 0 
L 7.328125 0 
L 7.328125 8.296875 
Q 12.9375 14.109375 22.625 23.890625 
Q 32.328125 33.6875 34.8125 36.53125 
Q 39.546875 41.84375 41.421875 45.53125 
Q 43.3125 49.21875 43.3125 52.78125 
Q 43.3125 58.59375 39.234375 62.25 
Q 35.15625 65.921875 28.609375 65.921875 
Q 23.96875 65.921875 18.8125 64.3125 
Q 13.671875 62.703125 7.8125 59.421875 
L 7.8125 69.390625 
Q 13.765625 71.78125 18.9375 73 
Q 24.125 74.21875 28.421875 74.21875 
Q 39.75 74.21875 46.484375 68.546875 
Q 53.21875 62.890625 53.21875 53.421875 
Q 53.21875 48.921875 51.53125 44.890625 
Q 49.859375 40.875 45.40625 35.40625 
Q 44.1875 33.984375 37.640625 27.21875 
Q 31.109375 20.453125 19.1875 8.296875 
z
" id="DejaVuSans-32"/>
      </defs>
      <g transform="translate(220.25375 322.182437)scale(0.1 -0.1)">
       <use xlink:href="#DejaVuSans-32"/>
       <use x="63.623047" xlink:href="#DejaVuSans-30"/>
       <use x="127.246094" xlink:href="#DejaVuSans-30"/>
       <use x="190.869141" xlink:href="#DejaVuSans-30"/>
       <use x="254.492188" xlink:href="#DejaVuSans-30"/>
      </g>
     </g>
    </g>
    <g id="xtick_6">
     <g id="line2d_6">
      <g>
       <use style="stroke:#000000;stroke-width:0.8;" x="276.741818" xlink:href="#m762126101a" y="307.584"/>
      </g>
     </g>
     <g id="text_6">
      <!-- 25000 -->
      <g transform="translate(260.835568 322.182437)scale(0.1 -0.1)">
       <use xlink:href="#DejaVuSans-32"/>
       <use x="63.623047" xlink:href="#DejaVuSans-35"/>
       <use x="127.246094" xlink:href="#DejaVuSans-30"/>
       <use x="190.869141" xlink:href="#DejaVuSans-30"/>
       <use x="254.492188" xlink:href="#DejaVuSans-30"/>
      </g>
     </g>
    </g>
    <g id="xtick_7">
     <g id="line2d_7">
      <g>
       <use style="stroke:#000000;stroke-width:0.8;" x="317.323636" xlink:href="#m762126101a" y="307.584"/>
      </g>
     </g>
     <g id="text_7">
      <!-- 30000 -->
      <defs>
       <path d="M 40.578125 39.3125 
Q 47.65625 37.796875 51.625 33 
Q 55.609375 28.21875 55.609375 21.1875 
Q 55.609375 10.40625 48.1875 4.484375 
Q 40.765625 -1.421875 27.09375 -1.421875 
Q 22.515625 -1.421875 17.65625 -0.515625 
Q 12.796875 0.390625 7.625 2.203125 
L 7.625 11.71875 
Q 11.71875 9.328125 16.59375 8.109375 
Q 21.484375 6.890625 26.8125 6.890625 
Q 36.078125 6.890625 40.9375 10.546875 
Q 45.796875 14.203125 45.796875 21.1875 
Q 45.796875 27.640625 41.28125 31.265625 
Q 36.765625 34.90625 28.71875 34.90625 
L 20.21875 34.90625 
L 20.21875 43.015625 
L 29.109375 43.015625 
Q 36.375 43.015625 40.234375 45.921875 
Q 44.09375 48.828125 44.09375 54.296875 
Q 44.09375 59.90625 40.109375 62.90625 
Q 36.140625 65.921875 28.71875 65.921875 
Q 24.65625 65.921875 20.015625 65.03125 
Q 15.375 64.15625 9.8125 62.3125 
L 9.8125 71.09375 
Q 15.4375 72.65625 20.34375 73.4375 
Q 25.25 74.21875 29.59375 74.21875 
Q 40.828125 74.21875 47.359375 69.109375 
Q 53.90625 64.015625 53.90625 55.328125 
Q 53.90625 49.265625 50.4375 45.09375 
Q 46.96875 40.921875 40.578125 39.3125 
z
" id="DejaVuSans-33"/>
      </defs>
      <g transform="translate(301.417386 322.182437)scale(0.1 -0.1)">
       <use xlink:href="#DejaVuSans-33"/>
       <use x="63.623047" xlink:href="#DejaVuSans-30"/>
       <use x="127.246094" xlink:href="#DejaVuSans-30"/>
       <use x="190.869141" xlink:href="#DejaVuSans-30"/>
       <use x="254.492188" xlink:href="#DejaVuSans-30"/>
      </g>
     </g>
    </g>
    <g id="xtick_8">
     <g id="line2d_8">
      <g>
       <use style="stroke:#000000;stroke-width:0.8;" x="357.905455" xlink:href="#m762126101a" y="307.584"/>
      </g>
     </g>
     <g id="text_8">
      <!-- 35000 -->
      <g transform="translate(341.999205 322.182437)scale(0.1 -0.1)">
       <use xlink:href="#DejaVuSans-33"/>
       <use x="63.623047" xlink:href="#DejaVuSans-35"/>
       <use x="127.246094" xlink:href="#DejaVuSans-30"/>
       <use x="190.869141" xlink:href="#DejaVuSans-30"/>
       <use x="254.492188" xlink:href="#DejaVuSans-30"/>
      </g>
     </g>
    </g>
    <g id="xtick_9">
     <g id="line2d_9">
      <g>
       <use style="stroke:#000000;stroke-width:0.8;" x="398.487273" xlink:href="#m762126101a" y="307.584"/>
      </g>
     </g>
     <g id="text_9">
      <!-- 40000 -->
      <defs>
       <path d="M 37.796875 64.3125 
L 12.890625 25.390625 
L 37.796875 25.390625 
z
M 35.203125 72.90625 
L 47.609375 72.90625 
L 47.609375 25.390625 
L 58.015625 25.390625 
L 58.015625 17.1875 
L 47.609375 17.1875 
L 47.609375 0 
L 37.796875 0 
L 37.796875 17.1875 
L 4.890625 17.1875 
L 4.890625 26.703125 
z
" id="DejaVuSans-34"/>
      </defs>
      <g transform="translate(382.581023 322.182437)scale(0.1 -0.1)">
       <use xlink:href="#DejaVuSans-34"/>
       <use x="63.623047" xlink:href="#DejaVuSans-30"/>
       <use x="127.246094" xlink:href="#DejaVuSans-30"/>
       <use x="190.869141" xlink:href="#DejaVuSans-30"/>
       <use x="254.492188" xlink:href="#DejaVuSans-30"/>
      </g>
     </g>
    </g>
   </g>
   <g id="matplotlib.axis_2">
    <g id="ytick_1">
     <g id="line2d_10">
      <defs>
       <path d="M 0 0 
L -3.5 0 
" id="m3dd8adc66b" style="stroke:#000000;stroke-width:0.8;"/>
      </defs>
      <g>
       <use style="stroke:#000000;stroke-width:0.8;" x="57.6" xlink:href="#m3dd8adc66b" y="295.488"/>
      </g>
     </g>
     <g id="text_10">
      <!-- 0.00 -->
      <defs>
       <path d="M 10.6875 12.40625 
L 21 12.40625 
L 21 0 
L 10.6875 0 
z
" id="DejaVuSans-2e"/>
      </defs>
      <g transform="translate(28.334375 299.287219)scale(0.1 -0.1)">
       <use xlink:href="#DejaVuSans-30"/>
       <use x="63.623047" xlink:href="#DejaVuSans-2e"/>
       <use x="95.410156" xlink:href="#DejaVuSans-30"/>
       <use x="159.033203" xlink:href="#DejaVuSans-30"/>
      </g>
     </g>
    </g>
    <g id="ytick_2">
     <g id="line2d_11">
      <g>
       <use style="stroke:#000000;stroke-width:0.8;" x="57.6" xlink:href="#m3dd8adc66b" y="265.429041"/>
      </g>
     </g>
     <g id="text_11">
      <!-- 0.05 -->
      <g transform="translate(28.334375 269.22826)scale(0.1 -0.1)">
       <use xlink:href="#DejaVuSans-30"/>
       <use x="63.623047" xlink:href="#DejaVuSans-2e"/>
       <use x="95.410156" xlink:href="#DejaVuSans-30"/>
       <use x="159.033203" xlink:href="#DejaVuSans-35"/>
      </g>
     </g>
    </g>
    <g id="ytick_3">
     <g id="line2d_12">
      <g>
       <use style="stroke:#000000;stroke-width:0.8;" x="57.6" xlink:href="#m3dd8adc66b" y="235.370082"/>
      </g>
     </g>
     <g id="text_12">
      <!-- 0.10 -->
      <g transform="translate(28.334375 239.169301)scale(0.1 -0.1)">
       <use xlink:href="#DejaVuSans-30"/>
       <use x="63.623047" xlink:href="#DejaVuSans-2e"/>
       <use x="95.410156" xlink:href="#DejaVuSans-31"/>
       <use x="159.033203" xlink:href="#DejaVuSans-30"/>
      </g>
     </g>
    </g>
    <g id="ytick_4">
     <g id="line2d_13">
      <g>
       <use style="stroke:#000000;stroke-width:0.8;" x="57.6" xlink:href="#m3dd8adc66b" y="205.311123"/>
      </g>
     </g>
     <g id="text_13">
      <!-- 0.15 -->
      <g transform="translate(28.334375 209.110342)scale(0.1 -0.1)">
       <use xlink:href="#DejaVuSans-30"/>
       <use x="63.623047" xlink:href="#DejaVuSans-2e"/>
       <use x="95.410156" xlink:href="#DejaVuSans-31"/>
       <use x="159.033203" xlink:href="#DejaVuSans-35"/>
      </g>
     </g>
    </g>
    <g id="ytick_5">
     <g id="line2d_14">
      <g>
       <use style="stroke:#000000;stroke-width:0.8;" x="57.6" xlink:href="#m3dd8adc66b" y="175.252164"/>
      </g>
     </g>
     <g id="text_14">
      <!-- 0.20 -->
      <g transform="translate(28.334375 179.051383)scale(0.1 -0.1)">
       <use xlink:href="#DejaVuSans-30"/>
       <use x="63.623047" xlink:href="#DejaVuSans-2e"/>
       <use x="95.410156" xlink:href="#DejaVuSans-32"/>
       <use x="159.033203" xlink:href="#DejaVuSans-30"/>
      </g>
     </g>
    </g>
    <g id="ytick_6">
     <g id="line2d_15">
      <g>
       <use style="stroke:#000000;stroke-width:0.8;" x="57.6" xlink:href="#m3dd8adc66b" y="145.193205"/>
      </g>
     </g>
     <g id="text_15">
      <!-- 0.25 -->
      <g transform="translate(28.334375 148.992424)scale(0.1 -0.1)">
       <use xlink:href="#DejaVuSans-30"/>
       <use x="63.623047" xlink:href="#DejaVuSans-2e"/>
       <use x="95.410156" xlink:href="#DejaVuSans-32"/>
       <use x="159.033203" xlink:href="#DejaVuSans-35"/>
      </g>
     </g>
    </g>
    <g id="ytick_7">
     <g id="line2d_16">
      <g>
       <use style="stroke:#000000;stroke-width:0.8;" x="57.6" xlink:href="#m3dd8adc66b" y="115.134246"/>
      </g>
     </g>
     <g id="text_16">
      <!-- 0.30 -->
      <g transform="translate(28.334375 118.933465)scale(0.1 -0.1)">
       <use xlink:href="#DejaVuSans-30"/>
       <use x="63.623047" xlink:href="#DejaVuSans-2e"/>
       <use x="95.410156" xlink:href="#DejaVuSans-33"/>
       <use x="159.033203" xlink:href="#DejaVuSans-30"/>
      </g>
     </g>
    </g>
    <g id="ytick_8">
     <g id="line2d_17">
      <g>
       <use style="stroke:#000000;stroke-width:0.8;" x="57.6" xlink:href="#m3dd8adc66b" y="85.075287"/>
      </g>
     </g>
     <g id="text_17">
      <!-- 0.35 -->
      <g transform="translate(28.334375 88.874506)scale(0.1 -0.1)">
       <use xlink:href="#DejaVuSans-30"/>
       <use x="63.623047" xlink:href="#DejaVuSans-2e"/>
       <use x="95.410156" xlink:href="#DejaVuSans-33"/>
       <use x="159.033203" xlink:href="#DejaVuSans-35"/>
      </g>
     </g>
    </g>
    <g id="ytick_9">
     <g id="line2d_18">
      <g>
       <use style="stroke:#000000;stroke-width:0.8;" x="57.6" xlink:href="#m3dd8adc66b" y="55.016328"/>
      </g>
     </g>
     <g id="text_18">
      <!-- 0.40 -->
      <g transform="translate(28.334375 58.815547)scale(0.1 -0.1)">
       <use xlink:href="#DejaVuSans-30"/>
       <use x="63.623047" xlink:href="#DejaVuSans-2e"/>
       <use x="95.410156" xlink:href="#DejaVuSans-34"/>
       <use x="159.033203" xlink:href="#DejaVuSans-30"/>
      </g>
     </g>
    </g>
   </g>
   <g id="line2d_19">
    <path clip-path="url(#p5aae96c949)" d="M 73.832727 295.488 
L 74.325188 295.488 
L 74.436382 277.452625 
L 74.749876 277.452625 
L 74.861071 260.336686 
L 75.189377 260.336686 
L 75.300572 244.154136 
L 75.68549 244.154136 
L 75.796684 229.162569 
L 76.205749 229.162569 
L 76.316943 215.24526 
L 76.825839 215.24526 
L 76.937033 203.112095 
L 77.47454 203.112095 
L 77.585734 192.172521 
L 78.493955 192.172521 
L 78.605149 186.331723 
L 90.127951 186.331723 
L 90.239145 251.419218 
L 90.746417 251.419218 
L 90.857612 236.617131 
L 91.331607 236.617131 
L 91.442801 222.67694 
L 92.106314 222.67694 
L 92.217508 211.270006 
L 92.846932 211.270006 
L 92.958127 200.579325 
L 93.524649 200.579325 
L 93.635843 190.146981 
L 94.129115 190.146981 
L 94.240309 179.671859 
L 94.724856 179.671859 
L 94.83605 169.8329 
L 95.351642 169.8329 
L 95.462836 161.136017 
L 95.96666 161.136017 
L 96.077854 152.905009 
L 96.563415 152.905009 
L 96.674609 144.976926 
L 97.399401 144.976926 
L 97.510595 141.672525 
L 98.049116 141.672525 
L 98.16031 135.470145 
L 105.056378 135.470145 
L 105.167572 209.965596 
L 105.724761 209.965596 
L 105.835955 198.690804 
L 106.225946 198.690804 
L 106.33714 186.451849 
L 106.799976 186.451849 
L 106.91117 175.861671 
L 107.312524 175.861671 
L 107.423719 165.147111 
L 107.822435 165.147111 
L 107.933629 155.048479 
L 108.388957 155.048479 
L 108.500151 146.481491 
L 108.955276 146.481491 
L 109.066471 138.488614 
L 109.514088 138.488614 
L 109.625282 130.898927 
L 110.080204 130.898927 
L 110.191399 123.95242 
L 110.569621 123.95242 
L 110.680815 115.954956 
L 111.05011 115.954956 
L 111.161304 108.239454 
L 111.564079 108.239454 
L 111.675273 101.693956 
L 112.157182 101.693956 
L 112.268376 97.315031 
L 112.780519 97.315031 
L 112.891713 93.929582 
L 113.254514 93.929582 
L 113.365708 87.328099 
L 113.800745 87.328099 
L 113.91194 82.840877 
L 114.478056 82.840877 
L 114.58925 81.830651 
L 115.091247 81.830651 
L 115.202441 79.342401 
L 115.628348 79.342401 
L 115.739542 75.147465 
L 116.20603 75.147465 
L 116.317224 72.249726 
L 116.74171 72.249726 
L 116.852904 68.472387 
L 117.355104 68.472387 
L 117.466298 66.961435 
L 117.922641 66.961435 
L 118.033835 64.359887 
L 118.428087 64.359887 
L 118.539281 60.278997 
L 119.057308 60.278997 
L 119.168503 59.789299 
L 119.540435 59.789299 
L 119.651629 55.374485 
L 120.21389 55.374485 
L 120.325084 56.458351 
L 120.942334 56.458351 
L 121.053528 58.941353 
L 121.844671 58.941353 
L 121.955865 65.794908 
L 122.674975 65.794908 
L 122.786169 70.095191 
L 124.26842 70.095191 
L 124.379614 92.237183 
L 129.594175 92.237183 
L 129.705369 171.999581 
L 130.11768 171.999581 
L 130.228874 161.677772 
L 130.608923 161.677772 
L 130.720117 151.50104 
L 131.107471 151.50104 
L 131.218665 142.043907 
L 131.657963 142.043907 
L 131.769157 134.070784 
L 132.222659 134.070784 
L 132.333853 126.884232 
L 132.648362 126.884232 
L 132.759556 117.464212 
L 133.178158 117.464212 
L 133.289352 110.678194 
L 133.767609 110.678194 
L 133.878803 105.588839 
L 134.31526 105.588839 
L 134.426455 99.944177 
L 134.841607 99.944177 
L 134.952801 94.187383 
L 135.477524 94.187383 
L 135.588718 91.321872 
L 136.106542 91.321872 
L 136.217736 88.511772 
L 136.679963 88.511772 
L 136.791157 84.594667 
L 137.200222 84.594667 
L 137.311416 79.653405 
L 137.760454 79.653405 
L 137.871648 76.013475 
L 138.403879 76.013475 
L 138.515073 74.705164 
L 138.950719 74.705164 
L 139.061913 71.054989 
L 139.517038 71.054989 
L 139.628232 68.145584 
L 140.038514 68.145584 
L 140.149708 64.257607 
L 140.622892 64.257607 
L 140.734087 62.2856 
L 141.170747 62.2856 
L 141.281941 59.471877 
L 141.709268 59.471877 
L 141.820462 56.587963 
L 142.29953 56.587963 
L 142.410724 55.309871 
L 142.869705 55.309871 
L 142.980899 53.568 
L 143.532 53.568 
L 143.643194 54.489345 
L 144.353173 54.489345 
L 144.464367 59.644099 
L 145.158722 59.644099 
L 145.269916 63.892128 
L 145.975431 63.892128 
L 146.086625 68.026946 
L 147.39823 68.026946 
L 147.509424 86.56612 
L 154.764236 86.56612 
L 154.87543 193.150219 
L 155.302148 193.150219 
L 155.413342 181.677411 
L 155.811247 181.677411 
L 155.922441 170.561524 
L 156.299243 170.561524 
L 156.410437 159.816006 
L 156.739556 159.816006 
L 156.85075 148.944752 
L 157.297353 148.944752 
L 157.408547 140.642284 
L 157.809495 140.642284 
L 157.920689 132.075789 
L 158.415991 132.075789 
L 158.527185 125.806313 
L 159.058401 125.806313 
L 159.169595 120.683488 
L 159.553702 120.683488 
L 159.664896 112.996589 
L 160.100136 112.996589 
L 160.21133 106.84299 
L 160.699327 106.84299 
L 160.810521 102.232683 
L 161.278226 102.232683 
L 161.38942 97.501155 
L 161.808428 97.501155 
L 161.919622 91.98588 
L 162.289525 91.98588 
L 162.400719 85.662548 
L 162.843061 85.662548 
L 162.954255 81.460201 
L 163.418917 81.460201 
L 163.530111 78.083918 
L 164.10617 78.083918 
L 164.217364 77.699395 
L 164.712463 77.699395 
L 164.823657 75.340041 
L 165.31632 75.340041 
L 165.427514 73.089208 
L 165.837999 73.089208 
L 165.949193 68.898806 
L 166.366577 68.898806 
L 166.477772 65.149803 
L 166.90246 65.149803 
L 167.013655 61.83132 
L 167.399385 61.83132 
L 167.510579 57.672446 
L 168.139597 57.672446 
L 168.250791 60.366233 
L 168.875143 60.366233 
L 168.986337 62.701771 
L 169.462767 62.701771 
L 169.573961 60.924475 
L 170.709238 60.924475 
L 170.820432 76.282398 
L 178.33862 76.282398 
L 178.449814 191.824815 
L 178.840211 191.824815 
L 178.951405 180.001883 
L 179.380152 180.001883 
L 179.491346 169.399249 
L 179.865308 169.399249 
L 179.976502 158.67999 
L 180.373798 158.67999 
L 180.484992 148.952669 
L 180.865649 148.952669 
L 180.976844 139.533623 
L 181.342689 139.533623 
L 181.453883 130.400295 
L 181.914081 130.400295 
L 182.025275 123.587427 
L 182.50272 123.587427 
L 182.613914 117.577787 
L 183.071068 117.577787 
L 183.182263 111.574388 
L 183.733769 111.574388 
L 183.844964 107.958859 
L 184.22765 107.958859 
L 184.338844 100.994384 
L 184.832522 100.994384 
L 184.943716 96.92671 
L 185.37713 96.92671 
L 185.488324 91.777627 
L 185.890693 91.777627 
L 186.001887 86.232692 
L 186.411561 86.232692 
L 186.522755 81.204446 
L 187.027187 81.204446 
L 187.138381 78.821362 
L 187.574433 78.821362 
L 187.685627 74.913122 
L 188.3185 74.913122 
L 188.429695 76.199746 
L 188.91343 76.199746 
L 189.024624 73.663227 
L 189.583436 73.663227 
L 189.69463 73.20405 
L 190.06433 73.20405 
L 190.175524 67.95642 
L 190.618881 67.95642 
L 190.730075 64.947939 
L 191.172823 64.947939 
L 191.284017 62.121997 
L 191.674414 62.121997 
L 191.785608 58.07204 
L 192.244994 58.07204 
L 192.356188 56.153851 
L 193.081994 56.153851 
L 193.193188 61.56982 
L 193.664749 61.56982 
L 193.775943 59.740993 
L 203.030424 59.740993 
L 203.141618 203.098866 
L 203.553118 203.098866 
L 203.664312 190.825813 
L 204.034621 190.825813 
L 204.145815 178.818933 
L 204.506993 178.818933 
L 204.618188 167.379883 
L 205.03618 167.379883 
L 205.147375 157.430683 
L 205.516872 157.430683 
L 205.628066 147.334337 
L 206.078524 147.334337 
L 206.189719 139.204511 
L 206.653569 139.204511 
L 206.764763 131.858672 
L 207.302472 131.858672 
L 207.413666 126.396165 
L 207.919721 126.396165 
L 208.030916 120.743407 
L 208.451749 120.743407 
L 208.562943 113.795189 
L 209.004879 113.795189 
L 209.116073 107.729673 
L 209.601432 107.729673 
L 209.712626 102.999576 
L 210.130619 102.999576 
L 210.241813 97.114057 
L 210.651892 97.114057 
L 210.763087 91.418737 
L 211.27178 91.418737 
L 211.382974 88.388836 
L 211.909726 88.388836 
L 212.02092 86.008167 
L 212.448044 86.008167 
L 212.559238 81.415809 
L 213.121702 81.415809 
L 213.232896 80.431038 
L 213.865769 80.431038 
L 213.976964 81.234302 
L 214.450553 81.234302 
L 214.561748 78.092907 
L 215.032497 78.092907 
L 215.143691 75.099077 
L 215.549915 75.099077 
L 215.661109 70.675025 
L 216.123742 70.675025 
L 216.234936 67.985075 
L 216.647653 67.985075 
L 216.758847 64.171081 
L 217.223103 64.171081 
L 217.334297 61.968182 
L 217.888645 61.968182 
L 217.999839 62.317364 
L 218.841506 62.317364 
L 218.9527 70.110433 
L 227.479346 70.110433 
L 227.59054 199.700407 
L 227.993518 199.700407 
L 228.104712 187.544963 
L 228.555576 187.544963 
L 228.66677 176.731691 
L 229.058993 176.731691 
L 229.170188 165.838393 
L 229.568904 165.838393 
L 229.680098 155.697667 
L 230.137252 155.697667 
L 230.248447 147.11624 
L 230.644119 147.11624 
L 230.755313 138.063286 
L 231.22586 138.063286 
L 231.337054 130.916448 
L 231.743887 130.916448 
L 231.855081 123.056669 
L 232.408211 123.056669 
L 232.519405 118.572645 
L 232.930093 118.572645 
L 233.041287 111.554914 
L 233.522993 111.554914 
L 233.634188 106.476824 
L 234.224044 106.476824 
L 234.335239 104.082086 
L 234.805379 104.082086 
L 234.916573 99.276704 
L 235.267809 99.276704 
L 235.379003 92.107965 
L 235.793749 92.107965 
L 235.904943 86.833691 
L 236.302239 86.833691 
L 236.413433 81.469441 
L 236.884791 81.469441 
L 236.995985 78.256929 
L 237.542825 78.256929 
L 237.65402 77.138526 
L 238.091897 77.138526 
L 238.203092 73.38593 
L 238.7617 73.38593 
L 238.872895 72.943611 
L 239.360891 72.943611 
L 239.472085 70.74578 
L 239.974691 70.74578 
L 240.085885 69.079767 
L 240.482369 69.079767 
L 240.593564 64.772408 
L 241.038137 64.772408 
L 241.149332 62.006527 
L 241.551295 62.006527 
L 241.662489 58.27604 
L 242.123701 58.27604 
L 242.234895 56.393745 
L 242.781532 56.393745 
L 242.892727 56.972436 
L 243.494149 56.972436 
L 243.605343 58.985713 
L 244.203722 58.985713 
L 244.314916 60.748514 
L 245.022257 60.748514 
L 245.133452 65.232018 
L 245.693481 65.232018 
L 245.804675 65.472683 
L 246.284758 65.472683 
L 246.395952 63.59812 
L 246.763217 63.59812 
L 246.874412 58.837534 
L 247.311884 58.837534 
L 247.423078 56.270993 
L 248.01334 56.270993 
L 248.124535 58.041749 
L 248.895183 58.041749 
L 249.006377 64.452812 
L 249.457444 64.452812 
L 249.568639 61.88061 
L 250.309054 61.88061 
L 250.420248 67.114388 
L 250.948623 67.114388 
L 251.059817 66.38408 
L 251.477404 66.38408 
L 251.588599 62.798996 
L 252.070711 62.798996 
L 252.181905 61.166363 
L 252.692221 61.166363 
L 252.803415 60.404372 
L 253.438521 60.404372 
L 253.549715 63.020916 
L 254.033856 63.020916 
L 254.14505 61.426653 
L 254.824593 61.426653 
L 254.935787 65.119104 
L 255.491758 65.119104 
L 255.602952 65.262663 
L 256.017089 65.262663 
L 256.128284 61.656616 
L 256.679385 61.656616 
L 256.790579 61.944141 
L 257.258487 61.944141 
L 257.369681 59.991545 
L 258.164476 59.991545 
L 258.275671 66.829402 
L 258.898601 66.829402 
L 259.009796 68.568421 
L 259.459645 68.568421 
L 259.570839 65.688999 
L 260.005876 65.688999 
L 260.117071 62.610164 
L 261.198576 62.559887 
L 261.30977 59.526773 
L 263.275756 59.606554 
L 263.386951 63.275292 
L 263.829901 63.275292 
L 263.941095 60.565122 
L 264.483268 60.565122 
L 264.594463 60.699879 
L 265.267106 60.699879 
L 265.3783 64.278676 
L 266.000014 64.278676 
L 266.111208 66.206596 
L 266.691325 66.206596 
L 266.802519 66.89169 
L 267.311009 66.89169 
L 267.422204 65.66 
L 267.848516 65.66 
L 267.95971 62.351944 
L 268.565799 62.351944 
L 268.676993 64.035792 
L 269.519675 64.035792 
L 269.630869 71.664234 
L 270.846497 71.605458 
L 270.957692 70.731317 
L 271.477545 70.731317 
L 271.588739 69.508709 
L 272.044067 69.508709 
L 272.155261 66.708785 
L 272.580153 66.708785 
L 272.691347 63.296049 
L 273.11076 63.296049 
L 273.221954 59.954679 
L 273.792129 59.954679 
L 273.903323 60.885099 
L 274.556284 60.885099 
L 274.667479 63.929679 
L 275.296497 63.929679 
L 275.407691 66.078056 
L 276.008505 66.078056 
L 276.119699 67.310192 
L 276.523082 67.310192 
L 276.634276 63.292242 
L 277.160217 63.292242 
L 277.271411 62.787168 
L 277.710912 62.787168 
L 277.822106 60.016822 
L 278.229751 60.016822 
L 278.340945 56.562916 
L 278.829347 56.562916 
L 278.940541 55.541925 
L 279.574023 55.541925 
L 279.685217 58.541853 
L 280.610686 58.541853 
L 280.72188 68.917418 
L 281.50937 68.917418 
L 281.620564 74.630063 
L 282.120532 74.630063 
L 282.231727 72.614572 
L 282.788915 72.614572 
L 282.900109 72.197437 
L 283.430919 72.197437 
L 283.542113 71.143862 
L 284.042893 71.143862 
L 284.154087 69.402049 
L 285.384122 69.402049 
L 285.495316 85.803688 
L 286.093289 85.803688 
L 286.204484 85.311885 
L 286.813617 85.311885 
L 286.924811 85.12586 
L 287.441417 85.12586 
L 287.552612 82.748612 
L 288.00307 82.748612 
L 288.114264 78.936985 
L 288.541793 78.936985 
L 288.652988 74.808542 
L 289.116635 74.808542 
L 289.227829 71.862144 
L 289.816063 71.862144 
L 289.927257 72.290735 
L 290.410586 72.290735 
L 290.52178 70.020127 
L 290.899597 70.020127 
L 291.010791 65.168056 
L 291.602271 65.168056 
L 291.713465 66.233858 
L 292.179751 66.233858 
L 292.290945 63.943157 
L 292.8179 63.943157 
L 292.929094 63.415696 
L 293.419119 63.415696 
L 293.530313 61.949809 
L 294.095212 61.949809 
L 294.206407 62.579954 
L 294.896095 62.579954 
L 295.007289 66.429289 
L 296.075199 66.429289 
L 296.186393 79.366214 
L 296.69326 79.366214 
L 296.804455 77.177494 
L 297.27216 77.177494 
L 297.383354 74.170785 
L 297.846596 74.170785 
L 297.95779 71.257684 
L 298.544603 71.257684 
L 298.655797 71.700181 
L 299.129996 71.700181 
L 299.24119 69.237173 
L 299.638892 69.237173 
L 299.750086 64.952147 
L 300.173963 64.952147 
L 300.285157 61.624711 
L 300.980729 61.624711 
L 301.091924 65.717367 
L 301.539338 65.717367 
L 301.650532 62.96403 
L 302.32764 62.96403 
L 302.438834 66.450476 
L 302.951991 66.450476 
L 303.063185 65.3732 
L 303.605156 65.3732 
L 303.71635 65.130768 
L 304.191563 65.130768 
L 304.302757 63.151685 
L 304.77797 63.151685 
L 304.889164 61.310547 
L 306.661575 61.241757 
L 306.772769 76.288144 
L 307.316363 76.288144 
L 307.427557 75.242193 
L 308.124144 75.242193 
L 308.235338 78.071293 
L 308.788671 78.071293 
L 308.899865 77.12767 
L 309.346671 77.12767 
L 309.457865 73.600146 
L 309.907918 73.600146 
L 310.019112 70.389833 
L 310.501224 70.389833 
L 310.612418 68.222105 
L 311.04989 68.222105 
L 311.161084 65.042135 
L 311.853004 65.042135 
L 311.964199 68.717526 
L 312.754124 68.717526 
L 312.865318 74.512014 
L 313.528831 74.512014 
L 313.640025 76.593451 
L 314.17814 76.593451 
L 314.289334 75.387488 
L 314.79823 75.387488 
L 314.909424 73.541484 
L 315.40716 73.541484 
L 315.519977 54.952725 
L 316.075745 54.952725 
L 316.18694 54.503913 
L 316.682849 54.503913 
L 316.794044 53.836489 
L 317.394857 53.836489 
L 317.506052 56.09676 
L 318.085966 56.09676 
L 318.19716 57.60181 
L 318.919922 57.60181 
L 319.031116 62.795419 
L 319.65912 62.795419 
L 319.770314 65.01611 
L 320.37823 65.01611 
L 320.489424 66.522081 
L 320.969507 66.522081 
L 321.080701 64.573787 
L 321.580263 64.573787 
L 321.691457 63.277018 
L 322.126089 63.277018 
L 322.237283 60.344312 
L 322.716757 60.344312 
L 322.827951 58.813669 
L 323.372762 58.813669 
L 323.483956 59.154851 
L 324.50114 59.154851 
L 324.612334 71.794036 
L 325.42397 71.794036 
L 325.535164 77.800019 
L 325.920286 77.800019 
L 326.03148 72.677431 
L 326.519679 72.677431 
L 326.630873 70.503716 
L 327.07565 70.503716 
L 327.186844 67.363772 
L 327.722727 67.363772 
L 327.833921 66.809502 
L 328.280321 66.809502 
L 328.391516 63.956842 
L 329.023983 63.956842 
L 329.135177 66.192655 
L 329.786313 66.192655 
L 329.897507 68.71337 
L 330.376575 68.71337 
L 330.487769 66.58476 
L 331.268361 66.58476 
L 331.379555 72.367654 
L 331.778068 72.367654 
L 331.889263 67.913329 
L 332.331401 67.913329 
L 332.442596 64.875809 
L 332.849428 64.875809 
L 332.960623 61.099378 
L 333.397892 61.099378 
L 333.509086 58.379513 
L 334.123089 58.379513 
L 334.234283 60.610883 
L 334.94832 60.610883 
L 335.059514 65.282703 
L 335.690561 65.282703 
L 335.801756 67.365671 
L 336.368075 67.365671 
L 336.479269 67.599682 
L 336.966454 67.599682 
L 337.077648 65.760987 
L 337.682114 65.760987 
L 337.793308 67.114426 
L 338.267304 67.114426 
L 338.378498 64.965208 
L 338.805419 64.965208 
L 338.916613 61.717854 
L 339.381681 61.717854 
L 339.492875 59.704642 
L 339.99406 59.704642 
L 340.105255 58.804564 
L 340.855207 58.804564 
L 340.966401 64.594995 
L 341.568026 64.594995 
L 341.67922 65.972839 
L 342.302557 65.972839 
L 342.413751 67.796415 
L 342.913313 67.796415 
L 343.024508 66.266043 
L 343.608886 66.266043 
L 343.72008 67.05677 
L 344.161813 67.05677 
L 344.273007 64.065031 
L 344.655491 64.065031 
L 344.766685 59.686411 
L 345.385355 59.686411 
L 345.496549 61.930036 
L 346.256241 61.930036 
L 346.367435 67.657745 
L 346.899665 67.657745 
L 347.01086 66.98626 
L 347.991519 66.98626 
L 348.102713 77.712164 
L 348.708803 77.712164 
L 348.819997 78.096806 
L 349.428724 78.096806 
L 349.539919 78.513581 
L 350.010262 78.513581 
L 350.121456 75.480546 
L 350.595857 75.480546 
L 350.707052 72.759598 
L 351.238471 72.759598 
L 351.349665 71.678702 
L 352.086833 71.678702 
L 352.198028 75.85589 
L 352.924239 75.85589 
L 353.035433 79.351244 
L 353.506385 79.351244 
L 353.61758 76.27538 
L 353.959481 76.27538 
L 354.070676 70.142237 
L 354.6443 70.142237 
L 354.755494 70.340368 
L 355.2581 70.340368 
L 355.369294 68.703884 
L 355.905988 68.703884 
L 356.017183 68.067861 
L 357.285364 68.067861 
L 357.396559 85.576661 
L 358.161526 85.576661 
L 358.27272 89.020993 
L 358.807791 89.020993 
L 358.918985 86.78807 
L 359.889905 86.78807 
L 360.0011 94.802492 
L 360.485444 94.802492 
L 360.597449 74.259947 
L 361.142463 74.259947 
L 361.253657 72.091691 
L 361.776148 72.091691 
L 361.887343 70.834483 
L 362.607873 70.834483 
L 362.719067 74.6802 
L 363.688364 74.6802 
L 363.799558 84.167265 
L 364.697025 84.167265 
L 364.808219 90.827477 
L 365.227632 90.827477 
L 365.338826 85.743811 
L 365.879782 85.743811 
L 365.990976 83.90209 
L 366.611675 83.90209 
L 366.722869 84.111501 
L 367.219185 84.111501 
L 367.330379 81.320037 
L 367.849826 81.320037 
L 367.96102 79.295439 
L 368.58943 79.295439 
L 368.700624 80.089659 
L 369.268567 80.089659 
L 369.379761 79.344283 
L 370.069246 79.344283 
L 370.18044 81.613497 
L 370.76218 81.613497 
L 370.873375 81.07992 
L 371.312673 81.07992 
L 371.423867 77.104573 
L 371.779364 77.104573 
L 371.890558 71.27205 
L 373.155899 71.229307 
L 373.267093 71.663852 
L 374.101252 71.663852 
L 374.212447 78.237416 
L 374.682384 78.237416 
L 374.793578 75.213365 
L 375.416712 75.213365 
L 375.527906 76.232369 
L 376.193245 76.232369 
L 376.304439 78.202027 
L 376.795682 78.202027 
L 376.906876 75.710689 
L 377.402989 75.710689 
L 377.514183 73.519971 
L 378.042153 73.519971 
L 378.153347 72.294021 
L 378.696129 72.294021 
L 378.807323 71.537049 
L 382.429453 71.537049 
L 382.540647 136.072518 
L 382.945857 136.072518 
L 383.057051 127.86402 
L 383.571628 127.86402 
L 383.682823 122.266802 
L 384.280187 122.266802 
L 384.391381 118.712349 
L 385.046169 118.712349 
L 385.157363 116.597129 
L 385.697101 116.597129 
L 385.808295 112.348561 
L 386.404239 112.348561 
L 386.515433 109.593879 
L 387.384087 109.593879 
L 387.495281 112.69882 
L 387.967654 112.69882 
L 388.078848 107.344635 
L 388.560351 107.344635 
L 388.671545 102.558769 
L 389.095423 102.558769 
L 389.206617 96.832071 
L 389.667017 96.832071 
L 389.778212 92.305768 
L 390.448217 92.305768 
L 390.559412 92.915018 
L 391.574972 92.915018 
L 391.686166 101.137086 
L 393.204129 101.209336 
L 393.315323 102.175456 
L 393.89544 102.175456 
L 394.006634 99.923749 
L 394.501935 99.923749 
L 394.613129 95.969263 
L 395.282932 95.969263 
L 395.394127 96.23781 
L 396.468733 96.23781 
L 396.579927 105.286255 
L 397.317908 105.286255 
L 397.429102 106.145101 
L 398.113717 106.145101 
L 398.224911 105.793676 
L 398.487273 105.793676 
L 398.487273 105.793676 
" style="fill:none;stroke:#1f77b4;stroke-linecap:square;stroke-width:1.5;"/>
   </g>
   <g id="patch_3">
    <path d="M 57.6 307.584 
L 57.6 41.472 
" style="fill:none;stroke:#000000;stroke-linecap:square;stroke-linejoin:miter;stroke-width:0.8;"/>
   </g>
   <g id="patch_4">
    <path d="M 414.72 307.584 
L 414.72 41.472 
" style="fill:none;stroke:#000000;stroke-linecap:square;stroke-linejoin:miter;stroke-width:0.8;"/>
   </g>
   <g id="patch_5">
    <path d="M 57.6 307.584 
L 414.72 307.584 
" style="fill:none;stroke:#000000;stroke-linecap:square;stroke-linejoin:miter;stroke-width:0.8;"/>
   </g>
   <g id="patch_6">
    <path d="M 57.6 41.472 
L 414.72 41.472 
" style="fill:none;stroke:#000000;stroke-linecap:square;stroke-linejoin:miter;stroke-width:0.8;"/>
   </g>
   <g id="text_19">
    <!-- Checker on LTS -->
    <defs>
     <path d="M 64.40625 67.28125 
L 64.40625 56.890625 
Q 59.421875 61.53125 53.78125 63.8125 
Q 48.140625 66.109375 41.796875 66.109375 
Q 29.296875 66.109375 22.65625 58.46875 
Q 16.015625 50.828125 16.015625 36.375 
Q 16.015625 21.96875 22.65625 14.328125 
Q 29.296875 6.6875 41.796875 6.6875 
Q 48.140625 6.6875 53.78125 8.984375 
Q 59.421875 11.28125 64.40625 15.921875 
L 64.40625 5.609375 
Q 59.234375 2.09375 53.4375 0.328125 
Q 47.65625 -1.421875 41.21875 -1.421875 
Q 24.65625 -1.421875 15.125 8.703125 
Q 5.609375 18.84375 5.609375 36.375 
Q 5.609375 53.953125 15.125 64.078125 
Q 24.65625 74.21875 41.21875 74.21875 
Q 47.75 74.21875 53.53125 72.484375 
Q 59.328125 70.75 64.40625 67.28125 
z
" id="DejaVuSans-43"/>
     <path d="M 54.890625 33.015625 
L 54.890625 0 
L 45.90625 0 
L 45.90625 32.71875 
Q 45.90625 40.484375 42.875 44.328125 
Q 39.84375 48.1875 33.796875 48.1875 
Q 26.515625 48.1875 22.3125 43.546875 
Q 18.109375 38.921875 18.109375 30.90625 
L 18.109375 0 
L 9.078125 0 
L 9.078125 75.984375 
L 18.109375 75.984375 
L 18.109375 46.1875 
Q 21.34375 51.125 25.703125 53.5625 
Q 30.078125 56 35.796875 56 
Q 45.21875 56 50.046875 50.171875 
Q 54.890625 44.34375 54.890625 33.015625 
z
" id="DejaVuSans-68"/>
     <path d="M 56.203125 29.59375 
L 56.203125 25.203125 
L 14.890625 25.203125 
Q 15.484375 15.921875 20.484375 11.0625 
Q 25.484375 6.203125 34.421875 6.203125 
Q 39.59375 6.203125 44.453125 7.46875 
Q 49.3125 8.734375 54.109375 11.28125 
L 54.109375 2.78125 
Q 49.265625 0.734375 44.1875 -0.34375 
Q 39.109375 -1.421875 33.890625 -1.421875 
Q 20.796875 -1.421875 13.15625 6.1875 
Q 5.515625 13.8125 5.515625 26.8125 
Q 5.515625 40.234375 12.765625 48.109375 
Q 20.015625 56 32.328125 56 
Q 43.359375 56 49.78125 48.890625 
Q 56.203125 41.796875 56.203125 29.59375 
z
M 47.21875 32.234375 
Q 47.125 39.59375 43.09375 43.984375 
Q 39.0625 48.390625 32.421875 48.390625 
Q 24.90625 48.390625 20.390625 44.140625 
Q 15.875 39.890625 15.1875 32.171875 
z
" id="DejaVuSans-65"/>
     <path d="M 48.78125 52.59375 
L 48.78125 44.1875 
Q 44.96875 46.296875 41.140625 47.34375 
Q 37.3125 48.390625 33.40625 48.390625 
Q 24.65625 48.390625 19.8125 42.84375 
Q 14.984375 37.3125 14.984375 27.296875 
Q 14.984375 17.28125 19.8125 11.734375 
Q 24.65625 6.203125 33.40625 6.203125 
Q 37.3125 6.203125 41.140625 7.25 
Q 44.96875 8.296875 48.78125 10.40625 
L 48.78125 2.09375 
Q 45.015625 0.34375 40.984375 -0.53125 
Q 36.96875 -1.421875 32.421875 -1.421875 
Q 20.0625 -1.421875 12.78125 6.34375 
Q 5.515625 14.109375 5.515625 27.296875 
Q 5.515625 40.671875 12.859375 48.328125 
Q 20.21875 56 33.015625 56 
Q 37.15625 56 41.109375 55.140625 
Q 45.0625 54.296875 48.78125 52.59375 
z
" id="DejaVuSans-63"/>
     <path d="M 9.078125 75.984375 
L 18.109375 75.984375 
L 18.109375 31.109375 
L 44.921875 54.6875 
L 56.390625 54.6875 
L 27.390625 29.109375 
L 57.625 0 
L 45.90625 0 
L 18.109375 26.703125 
L 18.109375 0 
L 9.078125 0 
z
" id="DejaVuSans-6b"/>
     <path d="M 41.109375 46.296875 
Q 39.59375 47.171875 37.8125 47.578125 
Q 36.03125 48 33.890625 48 
Q 26.265625 48 22.1875 43.046875 
Q 18.109375 38.09375 18.109375 28.8125 
L 18.109375 0 
L 9.078125 0 
L 9.078125 54.6875 
L 18.109375 54.6875 
L 18.109375 46.1875 
Q 20.953125 51.171875 25.484375 53.578125 
Q 30.03125 56 36.53125 56 
Q 37.453125 56 38.578125 55.875 
Q 39.703125 55.765625 41.0625 55.515625 
z
" id="DejaVuSans-72"/>
     <path id="DejaVuSans-20"/>
     <path d="M 30.609375 48.390625 
Q 23.390625 48.390625 19.1875 42.75 
Q 14.984375 37.109375 14.984375 27.296875 
Q 14.984375 17.484375 19.15625 11.84375 
Q 23.34375 6.203125 30.609375 6.203125 
Q 37.796875 6.203125 41.984375 11.859375 
Q 46.1875 17.53125 46.1875 27.296875 
Q 46.1875 37.015625 41.984375 42.703125 
Q 37.796875 48.390625 30.609375 48.390625 
z
M 30.609375 56 
Q 42.328125 56 49.015625 48.375 
Q 55.71875 40.765625 55.71875 27.296875 
Q 55.71875 13.875 49.015625 6.21875 
Q 42.328125 -1.421875 30.609375 -1.421875 
Q 18.84375 -1.421875 12.171875 6.21875 
Q 5.515625 13.875 5.515625 27.296875 
Q 5.515625 40.765625 12.171875 48.375 
Q 18.84375 56 30.609375 56 
z
" id="DejaVuSans-6f"/>
     <path d="M 54.890625 33.015625 
L 54.890625 0 
L 45.90625 0 
L 45.90625 32.71875 
Q 45.90625 40.484375 42.875 44.328125 
Q 39.84375 48.1875 33.796875 48.1875 
Q 26.515625 48.1875 22.3125 43.546875 
Q 18.109375 38.921875 18.109375 30.90625 
L 18.109375 0 
L 9.078125 0 
L 9.078125 54.6875 
L 18.109375 54.6875 
L 18.109375 46.1875 
Q 21.34375 51.125 25.703125 53.5625 
Q 30.078125 56 35.796875 56 
Q 45.21875 56 50.046875 50.171875 
Q 54.890625 44.34375 54.890625 33.015625 
z
" id="DejaVuSans-6e"/>
     <path d="M 9.8125 72.90625 
L 19.671875 72.90625 
L 19.671875 8.296875 
L 55.171875 8.296875 
L 55.171875 0 
L 9.8125 0 
z
" id="DejaVuSans-4c"/>
     <path d="M -0.296875 72.90625 
L 61.375 72.90625 
L 61.375 64.59375 
L 35.5 64.59375 
L 35.5 0 
L 25.59375 0 
L 25.59375 64.59375 
L -0.296875 64.59375 
z
" id="DejaVuSans-54"/>
     <path d="M 53.515625 70.515625 
L 53.515625 60.890625 
Q 47.90625 63.578125 42.921875 64.890625 
Q 37.9375 66.21875 33.296875 66.21875 
Q 25.25 66.21875 20.875 63.09375 
Q 16.5 59.96875 16.5 54.203125 
Q 16.5 49.359375 19.40625 46.890625 
Q 22.3125 44.4375 30.421875 42.921875 
L 36.375 41.703125 
Q 47.40625 39.59375 52.65625 34.296875 
Q 57.90625 29 57.90625 20.125 
Q 57.90625 9.515625 50.796875 4.046875 
Q 43.703125 -1.421875 29.984375 -1.421875 
Q 24.8125 -1.421875 18.96875 -0.25 
Q 13.140625 0.921875 6.890625 3.21875 
L 6.890625 13.375 
Q 12.890625 10.015625 18.65625 8.296875 
Q 24.421875 6.59375 29.984375 6.59375 
Q 38.421875 6.59375 43.015625 9.90625 
Q 47.609375 13.234375 47.609375 19.390625 
Q 47.609375 24.75 44.3125 27.78125 
Q 41.015625 30.8125 33.5 32.328125 
L 27.484375 33.5 
Q 16.453125 35.6875 11.515625 40.375 
Q 6.59375 45.0625 6.59375 53.421875 
Q 6.59375 63.09375 13.40625 68.65625 
Q 20.21875 74.21875 32.171875 74.21875 
Q 37.3125 74.21875 42.625 73.28125 
Q 47.953125 72.359375 53.515625 70.515625 
z
" id="DejaVuSans-53"/>
    </defs>
    <g transform="translate(189.454688 35.472)scale(0.12 -0.12)">
     <use xlink:href="#DejaVuSans-43"/>
     <use x="69.824219" xlink:href="#DejaVuSans-68"/>
     <use x="133.203125" xlink:href="#DejaVuSans-65"/>
     <use x="194.726562" xlink:href="#DejaVuSans-63"/>
     <use x="249.707031" xlink:href="#DejaVuSans-6b"/>
     <use x="307.570312" xlink:href="#DejaVuSans-65"/>
     <use x="369.09375" xlink:href="#DejaVuSans-72"/>
     <use x="410.207031" xlink:href="#DejaVuSans-20"/>
     <use x="441.994141" xlink:href="#DejaVuSans-6f"/>
     <use x="503.175781" xlink:href="#DejaVuSans-6e"/>
     <use x="566.554688" xlink:href="#DejaVuSans-20"/>
     <use x="598.341797" xlink:href="#DejaVuSans-4c"/>
     <use x="653.851562" xlink:href="#DejaVuSans-54"/>
     <use x="714.935547" xlink:href="#DejaVuSans-53"/>
    </g>
   </g>
   <g id="legend_1">
    <g id="patch_7">
     <path d="M 357.712188 64.150125 
L 407.72 64.150125 
Q 409.72 64.150125 409.72 62.150125 
L 409.72 48.472 
Q 409.72 46.472 407.72 46.472 
L 357.712188 46.472 
Q 355.712188 46.472 355.712188 48.472 
L 355.712188 62.150125 
Q 355.712188 64.150125 357.712188 64.150125 
z
" style="fill:#ffffff;opacity:0.8;stroke:#cccccc;stroke-linejoin:miter;"/>
    </g>
    <g id="line2d_20">
     <path d="M 359.712188 54.570438 
L 379.712188 54.570438 
" style="fill:none;stroke:#1f77b4;stroke-linecap:square;stroke-width:1.5;"/>
    </g>
    <g id="line2d_21"/>
    <g id="text_20">
     <!-- LTS -->
     <g transform="translate(387.712188 58.070438)scale(0.1 -0.1)">
      <use xlink:href="#DejaVuSans-4c"/>
      <use x="55.509766" xlink:href="#DejaVuSans-54"/>
      <use x="116.59375" xlink:href="#DejaVuSans-53"/>
     </g>
    </g>
   </g>
  </g>
 </g>
 <defs>
  <clipPath id="p5aae96c949">
   <rect height="266.112" width="357.12" x="57.6" y="41.472"/>
  </clipPath>
 </defs>
</svg>
