<?xml version="1.0" encoding="utf-8" standalone="no"?>
<!DOCTYPE svg PUBLIC "-//W3C//DTD SVG 1.1//EN"
  "http://www.w3.org/Graphics/SVG/1.1/DTD/svg11.dtd">
<!-- Created with matplotlib (http://matplotlib.org/) -->
<svg height="345.6pt" version="1.1" viewBox="0 0 460.8 345.6" width="460.8pt" xmlns="http://www.w3.org/2000/svg" xmlns:xlink="http://www.w3.org/1999/xlink">
 <defs>
  <style type="text/css">
*{stroke-linecap:butt;stroke-linejoin:round;}
  </style>
 </defs>
 <g id="figure_1">
  <g id="patch_1">
   <path d="M 0 345.6 
L 460.8 345.6 
L 460.8 0 
L 0 0 
z
" style="fill:#ffffff;"/>
  </g>
  <g id="axes_1">
   <g id="patch_2">
    <path d="M 57.6 307.584 
L 414.72 307.584 
L 414.72 41.472 
L 57.6 41.472 
z
" style="fill:#ffffff;"/>
   </g>
   <g id="matplotlib.axis_1">
    <g id="xtick_1">
     <g id="line2d_1">
      <defs>
       <path d="M 0 0 
L 0 3.5 
" id="m06489a21dd" style="stroke:#000000;stroke-width:0.8;"/>
      </defs>
      <g>
       <use style="stroke:#000000;stroke-width:0.8;" x="73.832727" xlink:href="#m06489a21dd" y="307.584"/>
      </g>
     </g>
     <g id="text_1">
      <!-- 0 -->
      <defs>
       <path d="M 31.78125 66.40625 
Q 24.171875 66.40625 20.328125 58.90625 
Q 16.5 51.421875 16.5 36.375 
Q 16.5 21.390625 20.328125 13.890625 
Q 24.171875 6.390625 31.78125 6.390625 
Q 39.453125 6.390625 43.28125 13.890625 
Q 47.125 21.390625 47.125 36.375 
Q 47.125 51.421875 43.28125 58.90625 
Q 39.453125 66.40625 31.78125 66.40625 
z
M 31.78125 74.21875 
Q 44.046875 74.21875 50.515625 64.515625 
Q 56.984375 54.828125 56.984375 36.375 
Q 56.984375 17.96875 50.515625 8.265625 
Q 44.046875 -1.421875 31.78125 -1.421875 
Q 19.53125 -1.421875 13.0625 8.265625 
Q 6.59375 17.96875 6.59375 36.375 
Q 6.59375 54.828125 13.0625 64.515625 
Q 19.53125 74.21875 31.78125 74.21875 
z
" id="DejaVuSans-30"/>
      </defs>
      <g transform="translate(70.651477 322.182437)scale(0.1 -0.1)">
       <use xlink:href="#DejaVuSans-30"/>
      </g>
     </g>
    </g>
    <g id="xtick_2">
     <g id="line2d_2">
      <g>
       <use style="stroke:#000000;stroke-width:0.8;" x="114.414545" xlink:href="#m06489a21dd" y="307.584"/>
      </g>
     </g>
     <g id="text_2">
      <!-- 5000 -->
      <defs>
       <path d="M 10.796875 72.90625 
L 49.515625 72.90625 
L 49.515625 64.59375 
L 19.828125 64.59375 
L 19.828125 46.734375 
Q 21.96875 47.46875 24.109375 47.828125 
Q 26.265625 48.1875 28.421875 48.1875 
Q 40.625 48.1875 47.75 41.5 
Q 54.890625 34.8125 54.890625 23.390625 
Q 54.890625 11.625 47.5625 5.09375 
Q 40.234375 -1.421875 26.90625 -1.421875 
Q 22.3125 -1.421875 17.546875 -0.640625 
Q 12.796875 0.140625 7.71875 1.703125 
L 7.71875 11.625 
Q 12.109375 9.234375 16.796875 8.0625 
Q 21.484375 6.890625 26.703125 6.890625 
Q 35.15625 6.890625 40.078125 11.328125 
Q 45.015625 15.765625 45.015625 23.390625 
Q 45.015625 31 40.078125 35.4375 
Q 35.15625 39.890625 26.703125 39.890625 
Q 22.75 39.890625 18.8125 39.015625 
Q 14.890625 38.140625 10.796875 36.28125 
z
" id="DejaVuSans-35"/>
      </defs>
      <g transform="translate(101.689545 322.182437)scale(0.1 -0.1)">
       <use xlink:href="#DejaVuSans-35"/>
       <use x="63.623047" xlink:href="#DejaVuSans-30"/>
       <use x="127.246094" xlink:href="#DejaVuSans-30"/>
       <use x="190.869141" xlink:href="#DejaVuSans-30"/>
      </g>
     </g>
    </g>
    <g id="xtick_3">
     <g id="line2d_3">
      <g>
       <use style="stroke:#000000;stroke-width:0.8;" x="154.996364" xlink:href="#m06489a21dd" y="307.584"/>
      </g>
     </g>
     <g id="text_3">
      <!-- 10000 -->
      <defs>
       <path d="M 12.40625 8.296875 
L 28.515625 8.296875 
L 28.515625 63.921875 
L 10.984375 60.40625 
L 10.984375 69.390625 
L 28.421875 72.90625 
L 38.28125 72.90625 
L 38.28125 8.296875 
L 54.390625 8.296875 
L 54.390625 0 
L 12.40625 0 
z
" id="DejaVuSans-31"/>
      </defs>
      <g transform="translate(139.090114 322.182437)scale(0.1 -0.1)">
       <use xlink:href="#DejaVuSans-31"/>
       <use x="63.623047" xlink:href="#DejaVuSans-30"/>
       <use x="127.246094" xlink:href="#DejaVuSans-30"/>
       <use x="190.869141" xlink:href="#DejaVuSans-30"/>
       <use x="254.492188" xlink:href="#DejaVuSans-30"/>
      </g>
     </g>
    </g>
    <g id="xtick_4">
     <g id="line2d_4">
      <g>
       <use style="stroke:#000000;stroke-width:0.8;" x="195.578182" xlink:href="#m06489a21dd" y="307.584"/>
      </g>
     </g>
     <g id="text_4">
      <!-- 15000 -->
      <g transform="translate(179.671932 322.182437)scale(0.1 -0.1)">
       <use xlink:href="#DejaVuSans-31"/>
       <use x="63.623047" xlink:href="#DejaVuSans-35"/>
       <use x="127.246094" xlink:href="#DejaVuSans-30"/>
       <use x="190.869141" xlink:href="#DejaVuSans-30"/>
       <use x="254.492188" xlink:href="#DejaVuSans-30"/>
      </g>
     </g>
    </g>
    <g id="xtick_5">
     <g id="line2d_5">
      <g>
       <use style="stroke:#000000;stroke-width:0.8;" x="236.16" xlink:href="#m06489a21dd" y="307.584"/>
      </g>
     </g>
     <g id="text_5">
      <!-- 20000 -->
      <defs>
       <path d="M 19.1875 8.296875 
L 53.609375 8.296875 
L 53.609375 0 
L 7.328125 0 
L 7.328125 8.296875 
Q 12.9375 14.109375 22.625 23.890625 
Q 32.328125 33.6875 34.8125 36.53125 
Q 39.546875 41.84375 41.421875 45.53125 
Q 43.3125 49.21875 43.3125 52.78125 
Q 43.3125 58.59375 39.234375 62.25 
Q 35.15625 65.921875 28.609375 65.921875 
Q 23.96875 65.921875 18.8125 64.3125 
Q 13.671875 62.703125 7.8125 59.421875 
L 7.8125 69.390625 
Q 13.765625 71.78125 18.9375 73 
Q 24.125 74.21875 28.421875 74.21875 
Q 39.75 74.21875 46.484375 68.546875 
Q 53.21875 62.890625 53.21875 53.421875 
Q 53.21875 48.921875 51.53125 44.890625 
Q 49.859375 40.875 45.40625 35.40625 
Q 44.1875 33.984375 37.640625 27.21875 
Q 31.109375 20.453125 19.1875 8.296875 
z
" id="DejaVuSans-32"/>
      </defs>
      <g transform="translate(220.25375 322.182437)scale(0.1 -0.1)">
       <use xlink:href="#DejaVuSans-32"/>
       <use x="63.623047" xlink:href="#DejaVuSans-30"/>
       <use x="127.246094" xlink:href="#DejaVuSans-30"/>
       <use x="190.869141" xlink:href="#DejaVuSans-30"/>
       <use x="254.492188" xlink:href="#DejaVuSans-30"/>
      </g>
     </g>
    </g>
    <g id="xtick_6">
     <g id="line2d_6">
      <g>
       <use style="stroke:#000000;stroke-width:0.8;" x="276.741818" xlink:href="#m06489a21dd" y="307.584"/>
      </g>
     </g>
     <g id="text_6">
      <!-- 25000 -->
      <g transform="translate(260.835568 322.182437)scale(0.1 -0.1)">
       <use xlink:href="#DejaVuSans-32"/>
       <use x="63.623047" xlink:href="#DejaVuSans-35"/>
       <use x="127.246094" xlink:href="#DejaVuSans-30"/>
       <use x="190.869141" xlink:href="#DejaVuSans-30"/>
       <use x="254.492188" xlink:href="#DejaVuSans-30"/>
      </g>
     </g>
    </g>
    <g id="xtick_7">
     <g id="line2d_7">
      <g>
       <use style="stroke:#000000;stroke-width:0.8;" x="317.323636" xlink:href="#m06489a21dd" y="307.584"/>
      </g>
     </g>
     <g id="text_7">
      <!-- 30000 -->
      <defs>
       <path d="M 40.578125 39.3125 
Q 47.65625 37.796875 51.625 33 
Q 55.609375 28.21875 55.609375 21.1875 
Q 55.609375 10.40625 48.1875 4.484375 
Q 40.765625 -1.421875 27.09375 -1.421875 
Q 22.515625 -1.421875 17.65625 -0.515625 
Q 12.796875 0.390625 7.625 2.203125 
L 7.625 11.71875 
Q 11.71875 9.328125 16.59375 8.109375 
Q 21.484375 6.890625 26.8125 6.890625 
Q 36.078125 6.890625 40.9375 10.546875 
Q 45.796875 14.203125 45.796875 21.1875 
Q 45.796875 27.640625 41.28125 31.265625 
Q 36.765625 34.90625 28.71875 34.90625 
L 20.21875 34.90625 
L 20.21875 43.015625 
L 29.109375 43.015625 
Q 36.375 43.015625 40.234375 45.921875 
Q 44.09375 48.828125 44.09375 54.296875 
Q 44.09375 59.90625 40.109375 62.90625 
Q 36.140625 65.921875 28.71875 65.921875 
Q 24.65625 65.921875 20.015625 65.03125 
Q 15.375 64.15625 9.8125 62.3125 
L 9.8125 71.09375 
Q 15.4375 72.65625 20.34375 73.4375 
Q 25.25 74.21875 29.59375 74.21875 
Q 40.828125 74.21875 47.359375 69.109375 
Q 53.90625 64.015625 53.90625 55.328125 
Q 53.90625 49.265625 50.4375 45.09375 
Q 46.96875 40.921875 40.578125 39.3125 
z
" id="DejaVuSans-33"/>
      </defs>
      <g transform="translate(301.417386 322.182437)scale(0.1 -0.1)">
       <use xlink:href="#DejaVuSans-33"/>
       <use x="63.623047" xlink:href="#DejaVuSans-30"/>
       <use x="127.246094" xlink:href="#DejaVuSans-30"/>
       <use x="190.869141" xlink:href="#DejaVuSans-30"/>
       <use x="254.492188" xlink:href="#DejaVuSans-30"/>
      </g>
     </g>
    </g>
    <g id="xtick_8">
     <g id="line2d_8">
      <g>
       <use style="stroke:#000000;stroke-width:0.8;" x="357.905455" xlink:href="#m06489a21dd" y="307.584"/>
      </g>
     </g>
     <g id="text_8">
      <!-- 35000 -->
      <g transform="translate(341.999205 322.182437)scale(0.1 -0.1)">
       <use xlink:href="#DejaVuSans-33"/>
       <use x="63.623047" xlink:href="#DejaVuSans-35"/>
       <use x="127.246094" xlink:href="#DejaVuSans-30"/>
       <use x="190.869141" xlink:href="#DejaVuSans-30"/>
       <use x="254.492188" xlink:href="#DejaVuSans-30"/>
      </g>
     </g>
    </g>
    <g id="xtick_9">
     <g id="line2d_9">
      <g>
       <use style="stroke:#000000;stroke-width:0.8;" x="398.487273" xlink:href="#m06489a21dd" y="307.584"/>
      </g>
     </g>
     <g id="text_9">
      <!-- 40000 -->
      <defs>
       <path d="M 37.796875 64.3125 
L 12.890625 25.390625 
L 37.796875 25.390625 
z
M 35.203125 72.90625 
L 47.609375 72.90625 
L 47.609375 25.390625 
L 58.015625 25.390625 
L 58.015625 17.1875 
L 47.609375 17.1875 
L 47.609375 0 
L 37.796875 0 
L 37.796875 17.1875 
L 4.890625 17.1875 
L 4.890625 26.703125 
z
" id="DejaVuSans-34"/>
      </defs>
      <g transform="translate(382.581023 322.182437)scale(0.1 -0.1)">
       <use xlink:href="#DejaVuSans-34"/>
       <use x="63.623047" xlink:href="#DejaVuSans-30"/>
       <use x="127.246094" xlink:href="#DejaVuSans-30"/>
       <use x="190.869141" xlink:href="#DejaVuSans-30"/>
       <use x="254.492188" xlink:href="#DejaVuSans-30"/>
      </g>
     </g>
    </g>
   </g>
   <g id="matplotlib.axis_2">
    <g id="ytick_1">
     <g id="line2d_10">
      <defs>
       <path d="M 0 0 
L -3.5 0 
" id="mf387bb5107" style="stroke:#000000;stroke-width:0.8;"/>
      </defs>
      <g>
       <use style="stroke:#000000;stroke-width:0.8;" x="57.6" xlink:href="#mf387bb5107" y="295.488"/>
      </g>
     </g>
     <g id="text_10">
      <!-- 0 -->
      <g transform="translate(44.2375 299.287219)scale(0.1 -0.1)">
       <use xlink:href="#DejaVuSans-30"/>
      </g>
     </g>
    </g>
    <g id="ytick_2">
     <g id="line2d_11">
      <g>
       <use style="stroke:#000000;stroke-width:0.8;" x="57.6" xlink:href="#mf387bb5107" y="236.907978"/>
      </g>
     </g>
     <g id="text_11">
      <!-- 1 -->
      <g transform="translate(44.2375 240.707197)scale(0.1 -0.1)">
       <use xlink:href="#DejaVuSans-31"/>
      </g>
     </g>
    </g>
    <g id="ytick_3">
     <g id="line2d_12">
      <g>
       <use style="stroke:#000000;stroke-width:0.8;" x="57.6" xlink:href="#mf387bb5107" y="178.327956"/>
      </g>
     </g>
     <g id="text_12">
      <!-- 2 -->
      <g transform="translate(44.2375 182.127175)scale(0.1 -0.1)">
       <use xlink:href="#DejaVuSans-32"/>
      </g>
     </g>
    </g>
    <g id="ytick_4">
     <g id="line2d_13">
      <g>
       <use style="stroke:#000000;stroke-width:0.8;" x="57.6" xlink:href="#mf387bb5107" y="119.747934"/>
      </g>
     </g>
     <g id="text_13">
      <!-- 3 -->
      <g transform="translate(44.2375 123.547153)scale(0.1 -0.1)">
       <use xlink:href="#DejaVuSans-33"/>
      </g>
     </g>
    </g>
    <g id="ytick_5">
     <g id="line2d_14">
      <g>
       <use style="stroke:#000000;stroke-width:0.8;" x="57.6" xlink:href="#mf387bb5107" y="61.167912"/>
      </g>
     </g>
     <g id="text_14">
      <!-- 4 -->
      <g transform="translate(44.2375 64.967131)scale(0.1 -0.1)">
       <use xlink:href="#DejaVuSans-34"/>
      </g>
     </g>
    </g>
    <g id="text_15">
     <!-- 1e−7 -->
     <defs>
      <path d="M 56.203125 29.59375 
L 56.203125 25.203125 
L 14.890625 25.203125 
Q 15.484375 15.921875 20.484375 11.0625 
Q 25.484375 6.203125 34.421875 6.203125 
Q 39.59375 6.203125 44.453125 7.46875 
Q 49.3125 8.734375 54.109375 11.28125 
L 54.109375 2.78125 
Q 49.265625 0.734375 44.1875 -0.34375 
Q 39.109375 -1.421875 33.890625 -1.421875 
Q 20.796875 -1.421875 13.15625 6.1875 
Q 5.515625 13.8125 5.515625 26.8125 
Q 5.515625 40.234375 12.765625 48.109375 
Q 20.015625 56 32.328125 56 
Q 43.359375 56 49.78125 48.890625 
Q 56.203125 41.796875 56.203125 29.59375 
z
M 47.21875 32.234375 
Q 47.125 39.59375 43.09375 43.984375 
Q 39.0625 48.390625 32.421875 48.390625 
Q 24.90625 48.390625 20.390625 44.140625 
Q 15.875 39.890625 15.1875 32.171875 
z
" id="DejaVuSans-65"/>
      <path d="M 10.59375 35.5 
L 73.1875 35.5 
L 73.1875 27.203125 
L 10.59375 27.203125 
z
" id="DejaVuSans-2212"/>
      <path d="M 8.203125 72.90625 
L 55.078125 72.90625 
L 55.078125 68.703125 
L 28.609375 0 
L 18.3125 0 
L 43.21875 64.59375 
L 8.203125 64.59375 
z
" id="DejaVuSans-37"/>
     </defs>
     <g transform="translate(57.6 38.472)scale(0.1 -0.1)">
      <use xlink:href="#DejaVuSans-31"/>
      <use x="63.623047" xlink:href="#DejaVuSans-65"/>
      <use x="125.146484" xlink:href="#DejaVuSans-2212"/>
      <use x="208.935547" xlink:href="#DejaVuSans-37"/>
     </g>
    </g>
   </g>
   <g id="line2d_15">
    <path clip-path="url(#p43ed9684da)" d="M 73.832727 295.488 
L 73.893803 295.35684 
L 73.944124 295.365536 
L 74.282577 295.335984 
L 74.39722 294.603433 
L 74.63158 291.365915 
L 75.208248 279.425407 
L 75.652822 267.448424 
L 76.58316 229.610577 
L 79.118712 107.406773 
L 80.3455 69.189372 
L 81.199139 57.899623 
L 81.563969 54.058196 
L 81.752269 53.568592 
L 81.766676 53.574319 
L 81.861434 53.762136 
L 82.028428 54.708371 
L 82.293833 57.703119 
L 82.688695 65.025667 
L 83.279972 80.649399 
L 83.584335 86.420991 
L 83.865973 87.990565 
L 84.281734 89.931864 
L 84.595634 92.877235 
L 85.004293 99.0924 
L 85.581164 111.680697 
L 86.546199 138.394644 
L 87.432912 161.201686 
L 87.576369 161.579611 
L 87.604979 161.562948 
L 87.725913 161.287954 
L 88.364062 159.508033 
L 88.382932 159.516266 
L 88.516649 159.720033 
L 88.719761 160.52362 
L 89.020473 162.761442 
L 89.456119 167.895526 
L 90.117602 178.669165 
L 91.004112 193.568661 
L 91.047129 193.5041 
L 91.161975 192.837557 
L 91.452541 189.499809 
L 92.048891 183.184002 
L 92.343515 182.004822 
L 92.481696 181.943266 
L 92.50361 181.961073 
L 92.647879 182.258193 
L 92.879398 183.341731 
L 93.231445 186.210161 
L 93.761849 192.598018 
L 94.662766 206.56969 
L 94.884343 208.833128 
L 94.908895 208.8068 
L 94.994522 208.377611 
L 95.198446 205.955005 
L 96.164496 193.230489 
L 96.485092 190.488072 
L 96.804877 182.50627 
L 97.498623 166.122262 
L 97.873193 161.909425 
L 98.050333 159.991052 
L 98.353682 152.704224 
L 99.024905 137.431749 
L 99.574992 127.584577 
L 100.309726 110.060198 
L 100.636004 106.921641 
L 100.814361 106.524128 
L 100.831811 106.531891 
L 100.933874 106.735294 
L 101.112637 107.704387 
L 101.397724 110.673907 
L 101.828095 117.800298 
L 102.497492 133.067795 
L 104.101691 176.50747 
L 105.500749 211.021942 
L 106.604372 232.990666 
L 107.047728 239.232277 
L 107.06741 239.212444 
L 107.143298 238.823927 
L 107.323279 236.478211 
L 108.680132 215.417617 
L 108.974756 214.362822 
L 109.143373 214.299018 
L 109.149257 214.303223 
L 109.304077 214.558336 
L 109.547974 215.471945 
L 109.921124 217.857407 
L 110.494545 223.153883 
L 111.242265 230.998068 
L 111.323834 230.665192 
L 111.485756 228.548431 
L 111.93946 218.740661 
L 112.518563 208.350084 
L 112.906728 204.826683 
L 113.182887 203.918967 
L 113.325735 203.903902 
L 113.335881 203.913593 
L 113.493135 204.233741 
L 113.744134 205.342128 
L 114.128038 208.188977 
L 114.719924 214.464271 
L 115.662031 225.89416 
L 115.753745 225.494664 
L 115.929262 223.137479 
L 117.260954 201.776363 
L 117.535896 200.869665 
L 117.675092 200.857209 
L 117.686455 200.868342 
L 117.842897 201.195632 
L 118.093084 202.329232 
L 118.475365 205.240694 
L 119.064207 211.66095 
L 119.182097 212.404843 
L 119.228564 212.295183 
L 119.344425 211.254545 
L 119.621193 206.280715 
L 120.400161 192.257653 
L 120.99996 184.042152 
L 122.071117 157.305193 
L 122.40125 154.512457 
L 122.522793 153.483217 
L 122.743761 148.901601 
L 123.642039 128.819449 
L 124.258477 120.090872 
L 125.003153 103.613863 
L 125.31259 101.04166 
L 125.455641 100.79761 
L 125.487295 100.819598 
L 125.600518 101.112951 
L 125.796934 102.367101 
L 126.104747 105.992792 
L 126.567785 114.42773 
L 127.301302 132.409701 
L 130.649302 219.482668 
L 131.703212 239.00121 
L 132.501456 250.257316 
L 132.519718 250.262983 
L 132.559285 250.14862 
L 132.672508 249.024024 
L 132.933247 243.712529 
L 133.918167 222.425954 
L 134.32642 218.349403 
L 134.632204 217.106536 
L 134.818678 216.990392 
L 134.82091 216.991635 
L 134.970048 217.204785 
L 135.203799 218.00685 
L 135.563354 220.153371 
L 136.115064 224.972372 
L 137.183989 236.262514 
L 137.295589 235.603509 
L 137.494237 232.176467 
L 138.762419 206.824557 
L 139.098639 204.748135 
L 139.320013 204.403882 
L 139.447846 204.525928 
L 139.641218 205.103312 
L 139.94477 206.822464 
L 140.406388 210.889164 
L 141.151471 219.706565 
L 141.783735 227.351546 
L 141.840144 227.179082 
L 141.968585 225.763389 
L 142.276399 219.312367 
L 143.041163 203.645171 
L 143.435212 199.712318 
L 143.717053 198.665098 
L 143.856655 198.622397 
L 143.874511 198.637683 
L 144.025475 198.942218 
L 144.239544 199.708151 
L 144.306504 199.438742 
L 144.447323 197.51782 
L 144.803428 188.790479 
L 145.449085 174.431721 
L 145.826699 170.341161 
L 146.004244 168.479041 
L 146.267215 161.662926 
L 147.082909 140.048392 
L 147.308138 134.43097 
L 148.431037 101.133128 
L 148.690558 93.750978 
L 149.448017 71.906798 
L 149.773484 68.170085 
L 149.948797 67.696855 
L 149.968276 67.706287 
L 150.064049 67.924038 
L 150.236725 68.996517 
L 150.514305 72.346684 
L 150.933921 80.473842 
L 151.581607 97.902007 
L 152.952663 142.384166 
L 154.497613 189.522706 
L 155.621527 217.252208 
L 156.642565 237.214686 
L 157.254336 246.090352 
L 157.267728 246.079022 
L 157.330427 245.762478 
L 157.483217 243.581266 
L 157.867527 234.050898 
L 158.559244 218.391002 
L 158.986977 213.215003 
L 159.311428 211.51094 
L 159.520831 211.270641 
L 159.656171 211.424645 
L 159.865573 212.080706 
L 160.191242 213.945829 
L 160.687964 218.257366 
L 161.517253 227.697151 
L 162.119081 234.564256 
L 162.173461 234.38605 
L 162.29825 232.889628 
L 162.591048 226.072965 
L 163.433729 206.287224 
L 163.84178 201.597571 
L 164.142897 200.207263 
L 164.307659 200.084679 
L 164.322674 200.093729 
L 164.463087 200.330032 
L 164.689331 201.235651 
L 165.039146 203.690972 
L 165.574015 209.231459 
L 166.505773 221.588035 
L 167.11937 229.470148 
L 167.166648 229.338079 
L 167.282103 228.10308 
L 167.550958 222.287059 
L 168.448019 202.152917 
L 168.840039 198.105191 
L 169.0675 195.933595 
L 169.318702 188.950236 
L 170.258983 161.226482 
L 170.638423 156.380499 
L 170.789793 153.793453 
L 171.139608 142.757104 
L 171.77796 124.480564 
L 172.263927 112.788844 
L 173.084086 87.112483 
L 173.423553 82.796202 
L 173.635593 82.114587 
L 173.637419 82.11491 
L 173.724467 82.246222 
L 173.877866 83.003543 
L 174.130691 85.563508 
L 174.516421 92.051299 
L 175.105872 106.203274 
L 176.191841 138.654032 
L 178.069765 193.798066 
L 179.203215 220.497718 
L 180.228109 239.647024 
L 181.028991 251.019168 
L 181.044615 251.02308 
L 181.081748 250.906987 
L 181.189492 249.715199 
L 181.435215 243.980023 
L 182.525852 216.225421 
L 182.934308 211.636657 
L 183.242729 210.211087 
L 183.427985 210.06085 
L 183.43387 210.063816 
L 183.575297 210.267245 
L 183.799309 211.061924 
L 184.146284 213.235836 
L 184.677905 218.166529 
L 185.60378 229.178246 
L 186.331615 237.800517 
L 186.383153 237.628841 
L 186.503276 236.130023 
L 186.781058 229.239716 
L 187.695367 205.766618 
L 188.107475 200.6808 
L 188.415288 199.117821 
L 188.591413 198.953933 
L 188.603385 198.960089 
L 188.738725 199.171491 
L 188.956852 200.01311 
L 189.295711 202.341189 
L 189.813535 207.649318 
L 190.697204 219.367566 
L 191.421183 228.947257 
L 191.472113 228.783916 
L 191.592033 227.342705 
L 191.871236 220.683705 
L 192.750035 199.176167 
L 193.150983 194.51727 
L 193.526771 190.938285 
L 193.832352 181.284514 
L 194.607465 157.229689 
L 195.007804 151.141596 
L 195.175204 147.646188 
L 195.602734 132.344315 
L 196.170676 115.374813 
L 196.65218 103.07202 
L 197.479643 75.610645 
L 197.819516 71.039344 
L 198.031961 70.313732 
L 198.033788 70.314037 
L 198.118401 70.4438 
L 198.269162 71.209374 
L 198.51874 73.827594 
L 198.899804 80.501363 
L 199.481138 95.093886 
L 200.535657 128.193547 
L 202.476685 188.413758 
L 203.609121 216.522662 
L 204.633406 236.686687 
L 205.400199 248.074283 
L 205.421099 248.053218 
L 205.442404 247.971929 
L 205.544265 246.856703 
L 205.77619 241.332719 
L 206.943932 210.369491 
L 207.341025 206.032104 
L 207.636663 204.764392 
L 207.796961 204.666262 
L 207.811977 204.676093 
L 207.956854 204.9257 
L 208.189591 205.857856 
L 208.549145 208.351192 
L 209.10187 213.949918 
L 210.094704 226.680207 
L 210.611513 232.990973 
L 210.660617 232.827919 
L 210.776884 231.352892 
L 211.044319 224.485282 
L 211.994136 198.882245 
L 212.400157 193.770343 
L 212.701274 192.246131 
L 212.861775 192.10647 
L 212.880443 192.117542 
L 213.015783 192.355834 
L 213.236548 193.28771 
L 213.579465 195.844951 
L 214.103782 201.651576 
L 215.005104 214.511261 
L 216.090871 230.243771 
L 216.139163 230.087529 
L 216.254618 228.65633 
L 216.520632 221.965712 
L 217.465377 197.02426 
L 218.024391 185.695841 
L 219.233932 143.76551 
L 219.671607 134.26759 
L 220.756562 98.832909 
L 221.164004 90.535904 
L 222.165563 60.45669 
L 222.453085 57.975528 
L 222.559409 57.815236 
L 222.603238 57.860299 
L 222.72194 58.292187 
L 222.928704 60.045961 
L 223.251329 64.971383 
L 223.7375 76.247671 
L 224.521743 100.340464 
L 227.507551 196.430965 
L 228.582969 222.018543 
L 229.580267 240.702462 
L 230.453588 253.268154 
L 230.484024 253.330984 
L 230.53536 253.129769 
L 230.654671 251.395695 
L 230.925351 243.490338 
L 231.941926 212.025414 
L 232.374934 205.524665 
L 232.711966 203.247385 
L 232.937601 202.846697 
L 233.06239 202.955508 
L 233.249066 203.502341 
L 233.544502 205.168543 
L 233.995772 209.162105 
L 234.72178 217.849126 
L 235.644814 229.76578 
L 235.714817 229.422738 
L 235.857665 227.014078 
L 236.201393 216.513691 
L 236.955201 194.527248 
L 237.380904 188.018932 
L 237.701906 185.905976 
L 237.899743 185.619833 
L 237.904815 185.621594 
L 238.025546 185.787951 
L 238.221759 186.5293 
L 238.531196 188.705424 
L 239.002756 193.815551 
L 239.770564 204.908376 
L 241.234351 227.642146 
L 241.304557 227.301399 
L 241.448217 224.91223 
L 241.796003 214.48128 
L 242.536824 193.409157 
L 242.959078 187.129761 
L 243.275819 185.128885 
L 243.46351 184.877958 
L 243.473047 184.881836 
L 243.596009 185.065533 
L 243.797092 185.858843 
L 244.113022 188.151574 
L 244.594525 193.494448 
L 245.385059 205.110699 
L 246.521553 222.744193 
L 246.584657 222.467756 
L 246.719186 220.380669 
L 247.038159 211.135146 
L 247.825447 188.810366 
L 248.23999 182.845888 
L 248.5476 181.021564 
L 248.714797 180.828498 
L 248.733059 180.838074 
L 248.859877 181.059542 
L 249.069279 181.969307 
L 249.396775 184.53556 
L 249.895931 190.438433 
L 250.729076 203.334942 
L 251.644804 217.874398 
L 251.699184 217.668288 
L 251.822553 215.93423 
L 252.109669 208.032777 
L 252.967163 184.052455 
L 253.369532 178.638606 
L 253.663141 177.089554 
L 253.804163 176.968895 
L 253.831353 176.98779 
L 253.964867 177.265067 
L 254.186038 178.339279 
L 254.529563 181.275039 
L 255.054286 187.927305 
L 255.954796 202.634161 
L 256.575698 212.479188 
L 256.621961 212.329295 
L 256.734576 210.907341 
L 256.9943 204.166966 
L 257.929913 178.600479 
L 258.315847 173.90074 
L 258.590585 172.689024 
L 258.70462 172.640812 
L 258.735665 172.669929 
L 258.877499 173.018271 
L 259.111656 174.293913 
L 259.47324 177.676479 
L 260.027182 185.229228 
L 261.016161 202.298942 
L 261.759214 214.685794 
L 261.800607 214.562938 
L 261.906526 213.299075 
L 262.149408 207.140154 
L 263.165577 179.277384 
L 263.543596 174.931287 
L 263.810828 173.858936 
L 263.919587 173.835677 
L 263.947791 173.865399 
L 264.093683 174.23929 
L 264.333521 175.578706 
L 264.703019 179.086822 
L 265.270556 186.879675 
L 266.30803 204.76595 
L 267.424233 223.55936 
L 267.454872 223.489199 
L 267.544355 222.576066 
L 267.749699 217.694184 
L 269.0262 182.695868 
L 269.375812 179.551873 
L 269.612404 178.933002 
L 269.726845 179.012034 
L 269.890593 179.505616 
L 270.155592 181.132306 
L 270.561207 185.200039 
L 271.193878 194.088891 
L 272.553572 216.156889 
L 272.660505 215.368634 
L 272.849413 211.1731 
L 274.221281 175.163578 
L 274.538631 172.955743 
L 274.723481 172.676624 
L 274.73525 172.681405 
L 274.852937 172.867435 
L 275.048339 173.689804 
L 275.356964 176.102404 
L 275.826698 181.763621 
L 276.589231 194.031865 
L 278.091164 220.035575 
L 278.161776 219.673176 
L 278.305436 217.144878 
L 278.652613 206.119282 
L 279.391202 183.876588 
L 279.810615 177.302549 
L 280.123298 175.245114 
L 280.299626 175.003157 
L 280.314844 175.010161 
L 280.435778 175.212352 
L 280.636861 176.079655 
L 280.953196 178.582389 
L 281.435105 184.407318 
L 282.226045 197.063611 
L 282.808394 206.318967 
L 282.859121 206.130077 
L 282.977417 204.463401 
L 283.250939 196.742295 
L 284.13826 170.877457 
L 284.529672 165.599854 
L 284.810092 164.193947 
L 284.926765 164.119202 
L 284.960651 164.148804 
L 285.097006 164.486636 
L 285.324264 165.757361 
L 285.676311 169.176046 
L 286.214223 176.858264 
L 287.151663 193.9686 
L 288.368712 216.230102 
L 288.405641 216.126964 
L 288.504458 214.967543 
L 288.72989 209.119623 
L 289.862732 176.345198 
L 290.231215 172.262789 
L 290.488909 171.313918 
L 290.593407 171.317472 
L 290.615727 171.34489 
L 290.76446 171.752133 
L 291.008965 173.187355 
L 291.385361 176.912273 
L 291.965073 185.155436 
L 293.050433 204.392641 
L 293.426424 210.211931 
L 293.469035 210.074564 
L 293.575765 208.694968 
L 293.819459 202.015723 
L 294.842729 171.667454 
L 295.222778 166.926542 
L 295.492241 165.739087 
L 295.597754 165.702173 
L 295.630423 165.735453 
L 295.772256 166.109686 
L 296.007428 167.474984 
L 296.370635 171.085976 
L 296.927417 179.138488 
L 297.926542 197.396441 
L 299.504363 225.771301 
L 299.511059 225.767416 
L 299.557931 225.547779 
L 299.678662 223.654499 
L 299.954212 215.0397 
L 300.898754 184.224175 
L 301.312892 177.762623 
L 301.62314 175.749709 
L 301.795409 175.520688 
L 301.812454 175.52894 
L 301.934605 175.739423 
L 302.13792 176.631171 
L 302.457705 179.18971 
L 302.945498 185.127453 
L 303.751453 198.062104 
L 304.780405 215.304691 
L 304.839452 215.035754 
L 304.96769 212.908713 
L 305.264749 203.412757 
L 306.11717 175.915235 
L 306.529684 169.341423 
L 306.835468 167.342918 
L 306.995767 167.135022 
L 307.018087 167.147344 
L 307.140441 167.381905 
L 307.345988 168.360112 
L 307.668613 171.143317 
L 308.160465 177.577115 
L 308.974739 191.585727 
L 310.76602 223.931993 
L 310.814516 223.745055 
L 310.928348 222.039576 
L 311.186042 214.085627 
L 312.203023 180.495181 
L 312.607826 174.437579 
L 312.908132 172.632185 
L 313.060313 172.462656 
L 313.084865 172.477565 
L 313.211684 172.728577 
L 313.423724 173.743647 
L 313.75548 176.584716 
L 314.262144 183.097658 
L 315.115377 197.381671 
L 316.176388 215.649733 
L 316.229348 215.428485 
L 316.349267 213.534972 
L 316.622991 204.885164 
L 317.556373 174.130433 
L 317.962597 167.819076 
L 318.262497 165.948108 
L 318.411432 165.774681 
L 318.43781 165.791136 
L 318.563005 166.049716 
L 318.773625 167.100597 
L 319.103352 170.05002 
L 319.606364 176.819143 
L 320.448842 191.621507 
L 321.658992 213.635833 
L 321.711951 213.412867 
L 321.832073 211.509789 
L 322.106407 202.825883 
L 323.033904 172.264291 
L 323.438911 165.974763 
L 323.736984 164.127205 
L 323.882267 163.96216 
L 323.910065 163.980211 
L 324.035869 164.247877 
L 324.247706 165.328412 
L 324.579057 168.35007 
L 325.084503 175.27177 
L 325.933272 190.423521 
L 326.994689 209.885266 
L 327.046634 209.669866 
L 327.165539 207.804239 
L 327.437031 199.246451 
L 328.367775 168.623792 
L 328.768724 162.476063 
L 329.061927 160.714512 
L 329.197268 160.574426 
L 329.228313 160.596605 
L 329.356145 160.887459 
L 329.571635 162.0415 
L 329.907855 165.23665 
L 330.420809 172.518921 
L 331.288855 188.507635 
L 332.690753 215.059268 
L 332.735596 214.895145 
L 332.844559 213.309264 
L 333.090687 205.753407 
L 334.146829 170.540682 
L 334.538444 164.936345 
L 334.822922 163.396456 
L 334.945682 163.29869 
L 334.979365 163.326074 
L 335.112676 163.648414 
L 335.335876 164.882911 
L 335.683054 168.239413 
L 336.214067 175.822593 
L 337.133448 192.665946 
L 338.779649 223.09263 
L 338.802172 223.049256 
L 338.877452 222.326122 
L 339.051548 218.02711 
L 339.526964 199.001006 
L 340.147054 178.025437 
L 340.573975 170.197961 
L 340.89802 167.612898 
L 341.099712 167.239642 
L 341.104379 167.241005 
L 341.214761 167.395637 
L 341.397988 168.134421 
L 341.690786 170.388551 
L 342.137592 175.791402 
L 342.851832 187.505557 
L 344.117173 210.266373 
L 344.196713 209.757117 
L 344.349504 206.486646 
L 344.725089 192.409881 
L 345.428372 168.093245 
L 345.850828 160.367084 
L 346.166758 157.91383 
L 346.346535 157.60634 
L 346.361551 157.612726 
L 346.473962 157.806884 
L 346.664697 158.683565 
L 346.96764 161.288147 
L 347.429055 167.44084 
L 348.173123 180.760003 
L 349.917735 214.689769 
L 349.993217 214.223446 
L 350.140732 211.123251 
L 350.494403 197.819978 
L 351.240297 171.225409 
L 351.66742 163.190857 
L 351.989234 160.572745 
L 352.183418 160.209786 
L 352.19194 160.212616 
L 352.301308 160.379201 
L 352.485347 161.166728 
L 352.779159 163.558717 
L 353.227183 169.27907 
L 353.943249 181.669418 
L 355.208387 205.619608 
L 355.287116 205.116859 
L 355.438689 201.86812 
L 355.810012 187.877189 
L 356.515121 163.29497 
L 356.934737 155.602033 
L 357.246812 153.202293 
L 357.417052 152.921128 
L 357.436329 152.930454 
L 357.549958 153.144208 
L 357.743939 154.089261 
L 358.051143 156.865352 
L 358.519052 163.388536 
L 359.27712 177.513688 
L 360.537388 202.648274 
L 360.605566 202.267018 
L 360.744559 199.544733 
L 361.071851 187.700539 
L 361.849399 160.360783 
L 362.264348 152.917222 
L 362.571146 150.649992 
L 362.729415 150.409492 
L 362.753764 150.423153 
L 362.87064 150.664381 
L 363.070303 151.696444 
L 363.385217 154.676845 
L 363.864692 161.615454 
L 364.648732 176.66131 
L 366.397809 212.363615 
L 366.457464 212.060513 
L 366.585094 209.690235 
L 366.876065 199.190368 
L 367.770692 166.156605 
L 368.187467 158.590578 
L 368.499135 156.220867 
L 368.670188 155.941653 
L 368.689058 155.950643 
L 368.803296 156.162384 
L 368.997886 157.097288 
L 369.306105 159.841084 
L 369.775839 166.283777 
L 370.538777 180.248316 
L 371.944532 207.87065 
L 372.013724 207.464103 
L 372.153122 204.601212 
L 372.478791 192.224996 
L 373.276427 162.563509 
L 373.698478 154.487057 
L 374.01461 151.917095 
L 374.193779 151.593235 
L 374.209403 151.599849 
L 374.319785 151.795082 
L 374.508288 152.686201 
L 374.808391 155.350354 
L 375.265748 161.667546 
L 376.000887 175.338055 
L 377.646074 208.717966 
L 377.724803 208.191353 
L 377.875564 204.794855 
L 378.238975 190.293794 
L 378.969853 162.926158 
L 379.396571 154.46683 
L 379.71737 151.724116 
L 379.907699 151.349916 
L 379.918453 151.353712 
L 380.025589 151.527212 
L 380.208207 152.351835 
L 380.500396 154.866794 
L 380.945782 160.890872 
L 381.655964 173.933594 
L 383.346602 208.301273 
L 383.434868 207.638877 
L 383.596789 203.677803 
L 384.005042 186.708942 
L 384.677889 161.638388 
L 385.103998 153.120897 
L 385.424594 150.358984 
L 385.614314 149.983467 
L 385.625271 149.987378 
L 385.732001 150.161712 
L 385.914214 150.990688 
L 386.205997 153.521972 
L 386.650774 159.587928 
L 387.359738 172.722141 
L 389.038405 207.161981 
L 389.126873 206.49088 
L 389.288998 202.48294 
L 389.697251 185.333961 
L 390.370503 159.977672 
L 390.796612 151.369987 
L 391.117006 148.581506 
L 391.306117 148.20289 
L 391.31748 148.206971 
L 391.423804 148.382495 
L 391.605611 149.217697 
L 391.896785 151.769152 
L 392.340953 157.891241 
L 393.048497 171.146377 
L 394.468252 200.484038 
L 394.55246 199.874096 
L 394.709714 196.114897 
L 395.098894 180.038197 
L 395.787161 154.135057 
L 396.209009 145.714454 
L 396.523519 143.059296 
L 396.697817 142.733632 
L 396.715876 142.741901 
L 396.824839 142.948074 
L 397.012935 143.889202 
L 397.312632 146.704506 
L 397.768975 153.377433 
L 398.487273 167.502092 
L 398.487273 167.502092 
" style="fill:none;stroke:#1f77b4;stroke-linecap:square;stroke-width:1.5;"/>
   </g>
   <g id="patch_3">
    <path d="M 57.6 307.584 
L 57.6 41.472 
" style="fill:none;stroke:#000000;stroke-linecap:square;stroke-linejoin:miter;stroke-width:0.8;"/>
   </g>
   <g id="patch_4">
    <path d="M 414.72 307.584 
L 414.72 41.472 
" style="fill:none;stroke:#000000;stroke-linecap:square;stroke-linejoin:miter;stroke-width:0.8;"/>
   </g>
   <g id="patch_5">
    <path d="M 57.6 307.584 
L 414.72 307.584 
" style="fill:none;stroke:#000000;stroke-linecap:square;stroke-linejoin:miter;stroke-width:0.8;"/>
   </g>
   <g id="patch_6">
    <path d="M 57.6 41.472 
L 414.72 41.472 
" style="fill:none;stroke:#000000;stroke-linecap:square;stroke-linejoin:miter;stroke-width:0.8;"/>
   </g>
   <g id="text_16">
    <!-- Muscarinic recording -->
    <defs>
     <path d="M 9.8125 72.90625 
L 24.515625 72.90625 
L 43.109375 23.296875 
L 61.8125 72.90625 
L 76.515625 72.90625 
L 76.515625 0 
L 66.890625 0 
L 66.890625 64.015625 
L 48.09375 14.015625 
L 38.1875 14.015625 
L 19.390625 64.015625 
L 19.390625 0 
L 9.8125 0 
z
" id="DejaVuSans-4d"/>
     <path d="M 8.5 21.578125 
L 8.5 54.6875 
L 17.484375 54.6875 
L 17.484375 21.921875 
Q 17.484375 14.15625 20.5 10.265625 
Q 23.53125 6.390625 29.59375 6.390625 
Q 36.859375 6.390625 41.078125 11.03125 
Q 45.3125 15.671875 45.3125 23.6875 
L 45.3125 54.6875 
L 54.296875 54.6875 
L 54.296875 0 
L 45.3125 0 
L 45.3125 8.40625 
Q 42.046875 3.421875 37.71875 1 
Q 33.40625 -1.421875 27.6875 -1.421875 
Q 18.265625 -1.421875 13.375 4.4375 
Q 8.5 10.296875 8.5 21.578125 
z
M 31.109375 56 
z
" id="DejaVuSans-75"/>
     <path d="M 44.28125 53.078125 
L 44.28125 44.578125 
Q 40.484375 46.53125 36.375 47.5 
Q 32.28125 48.484375 27.875 48.484375 
Q 21.1875 48.484375 17.84375 46.4375 
Q 14.5 44.390625 14.5 40.28125 
Q 14.5 37.15625 16.890625 35.375 
Q 19.28125 33.59375 26.515625 31.984375 
L 29.59375 31.296875 
Q 39.15625 29.25 43.1875 25.515625 
Q 47.21875 21.78125 47.21875 15.09375 
Q 47.21875 7.46875 41.1875 3.015625 
Q 35.15625 -1.421875 24.609375 -1.421875 
Q 20.21875 -1.421875 15.453125 -0.5625 
Q 10.6875 0.296875 5.421875 2 
L 5.421875 11.28125 
Q 10.40625 8.6875 15.234375 7.390625 
Q 20.0625 6.109375 24.8125 6.109375 
Q 31.15625 6.109375 34.5625 8.28125 
Q 37.984375 10.453125 37.984375 14.40625 
Q 37.984375 18.0625 35.515625 20.015625 
Q 33.0625 21.96875 24.703125 23.78125 
L 21.578125 24.515625 
Q 13.234375 26.265625 9.515625 29.90625 
Q 5.8125 33.546875 5.8125 39.890625 
Q 5.8125 47.609375 11.28125 51.796875 
Q 16.75 56 26.8125 56 
Q 31.78125 56 36.171875 55.265625 
Q 40.578125 54.546875 44.28125 53.078125 
z
" id="DejaVuSans-73"/>
     <path d="M 48.78125 52.59375 
L 48.78125 44.1875 
Q 44.96875 46.296875 41.140625 47.34375 
Q 37.3125 48.390625 33.40625 48.390625 
Q 24.65625 48.390625 19.8125 42.84375 
Q 14.984375 37.3125 14.984375 27.296875 
Q 14.984375 17.28125 19.8125 11.734375 
Q 24.65625 6.203125 33.40625 6.203125 
Q 37.3125 6.203125 41.140625 7.25 
Q 44.96875 8.296875 48.78125 10.40625 
L 48.78125 2.09375 
Q 45.015625 0.34375 40.984375 -0.53125 
Q 36.96875 -1.421875 32.421875 -1.421875 
Q 20.0625 -1.421875 12.78125 6.34375 
Q 5.515625 14.109375 5.515625 27.296875 
Q 5.515625 40.671875 12.859375 48.328125 
Q 20.21875 56 33.015625 56 
Q 37.15625 56 41.109375 55.140625 
Q 45.0625 54.296875 48.78125 52.59375 
z
" id="DejaVuSans-63"/>
     <path d="M 34.28125 27.484375 
Q 23.390625 27.484375 19.1875 25 
Q 14.984375 22.515625 14.984375 16.5 
Q 14.984375 11.71875 18.140625 8.90625 
Q 21.296875 6.109375 26.703125 6.109375 
Q 34.1875 6.109375 38.703125 11.40625 
Q 43.21875 16.703125 43.21875 25.484375 
L 43.21875 27.484375 
z
M 52.203125 31.203125 
L 52.203125 0 
L 43.21875 0 
L 43.21875 8.296875 
Q 40.140625 3.328125 35.546875 0.953125 
Q 30.953125 -1.421875 24.3125 -1.421875 
Q 15.921875 -1.421875 10.953125 3.296875 
Q 6 8.015625 6 15.921875 
Q 6 25.140625 12.171875 29.828125 
Q 18.359375 34.515625 30.609375 34.515625 
L 43.21875 34.515625 
L 43.21875 35.40625 
Q 43.21875 41.609375 39.140625 45 
Q 35.0625 48.390625 27.6875 48.390625 
Q 23 48.390625 18.546875 47.265625 
Q 14.109375 46.140625 10.015625 43.890625 
L 10.015625 52.203125 
Q 14.9375 54.109375 19.578125 55.046875 
Q 24.21875 56 28.609375 56 
Q 40.484375 56 46.34375 49.84375 
Q 52.203125 43.703125 52.203125 31.203125 
z
" id="DejaVuSans-61"/>
     <path d="M 41.109375 46.296875 
Q 39.59375 47.171875 37.8125 47.578125 
Q 36.03125 48 33.890625 48 
Q 26.265625 48 22.1875 43.046875 
Q 18.109375 38.09375 18.109375 28.8125 
L 18.109375 0 
L 9.078125 0 
L 9.078125 54.6875 
L 18.109375 54.6875 
L 18.109375 46.1875 
Q 20.953125 51.171875 25.484375 53.578125 
Q 30.03125 56 36.53125 56 
Q 37.453125 56 38.578125 55.875 
Q 39.703125 55.765625 41.0625 55.515625 
z
" id="DejaVuSans-72"/>
     <path d="M 9.421875 54.6875 
L 18.40625 54.6875 
L 18.40625 0 
L 9.421875 0 
z
M 9.421875 75.984375 
L 18.40625 75.984375 
L 18.40625 64.59375 
L 9.421875 64.59375 
z
" id="DejaVuSans-69"/>
     <path d="M 54.890625 33.015625 
L 54.890625 0 
L 45.90625 0 
L 45.90625 32.71875 
Q 45.90625 40.484375 42.875 44.328125 
Q 39.84375 48.1875 33.796875 48.1875 
Q 26.515625 48.1875 22.3125 43.546875 
Q 18.109375 38.921875 18.109375 30.90625 
L 18.109375 0 
L 9.078125 0 
L 9.078125 54.6875 
L 18.109375 54.6875 
L 18.109375 46.1875 
Q 21.34375 51.125 25.703125 53.5625 
Q 30.078125 56 35.796875 56 
Q 45.21875 56 50.046875 50.171875 
Q 54.890625 44.34375 54.890625 33.015625 
z
" id="DejaVuSans-6e"/>
     <path id="DejaVuSans-20"/>
     <path d="M 30.609375 48.390625 
Q 23.390625 48.390625 19.1875 42.75 
Q 14.984375 37.109375 14.984375 27.296875 
Q 14.984375 17.484375 19.15625 11.84375 
Q 23.34375 6.203125 30.609375 6.203125 
Q 37.796875 6.203125 41.984375 11.859375 
Q 46.1875 17.53125 46.1875 27.296875 
Q 46.1875 37.015625 41.984375 42.703125 
Q 37.796875 48.390625 30.609375 48.390625 
z
M 30.609375 56 
Q 42.328125 56 49.015625 48.375 
Q 55.71875 40.765625 55.71875 27.296875 
Q 55.71875 13.875 49.015625 6.21875 
Q 42.328125 -1.421875 30.609375 -1.421875 
Q 18.84375 -1.421875 12.171875 6.21875 
Q 5.515625 13.875 5.515625 27.296875 
Q 5.515625 40.765625 12.171875 48.375 
Q 18.84375 56 30.609375 56 
z
" id="DejaVuSans-6f"/>
     <path d="M 45.40625 46.390625 
L 45.40625 75.984375 
L 54.390625 75.984375 
L 54.390625 0 
L 45.40625 0 
L 45.40625 8.203125 
Q 42.578125 3.328125 38.25 0.953125 
Q 33.9375 -1.421875 27.875 -1.421875 
Q 17.96875 -1.421875 11.734375 6.484375 
Q 5.515625 14.40625 5.515625 27.296875 
Q 5.515625 40.1875 11.734375 48.09375 
Q 17.96875 56 27.875 56 
Q 33.9375 56 38.25 53.625 
Q 42.578125 51.265625 45.40625 46.390625 
z
M 14.796875 27.296875 
Q 14.796875 17.390625 18.875 11.75 
Q 22.953125 6.109375 30.078125 6.109375 
Q 37.203125 6.109375 41.296875 11.75 
Q 45.40625 17.390625 45.40625 27.296875 
Q 45.40625 37.203125 41.296875 42.84375 
Q 37.203125 48.484375 30.078125 48.484375 
Q 22.953125 48.484375 18.875 42.84375 
Q 14.796875 37.203125 14.796875 27.296875 
z
" id="DejaVuSans-64"/>
     <path d="M 45.40625 27.984375 
Q 45.40625 37.75 41.375 43.109375 
Q 37.359375 48.484375 30.078125 48.484375 
Q 22.859375 48.484375 18.828125 43.109375 
Q 14.796875 37.75 14.796875 27.984375 
Q 14.796875 18.265625 18.828125 12.890625 
Q 22.859375 7.515625 30.078125 7.515625 
Q 37.359375 7.515625 41.375 12.890625 
Q 45.40625 18.265625 45.40625 27.984375 
z
M 54.390625 6.78125 
Q 54.390625 -7.171875 48.1875 -13.984375 
Q 42 -20.796875 29.203125 -20.796875 
Q 24.46875 -20.796875 20.265625 -20.09375 
Q 16.0625 -19.390625 12.109375 -17.921875 
L 12.109375 -9.1875 
Q 16.0625 -11.328125 19.921875 -12.34375 
Q 23.78125 -13.375 27.78125 -13.375 
Q 36.625 -13.375 41.015625 -8.765625 
Q 45.40625 -4.15625 45.40625 5.171875 
L 45.40625 9.625 
Q 42.625 4.78125 38.28125 2.390625 
Q 33.9375 0 27.875 0 
Q 17.828125 0 11.671875 7.65625 
Q 5.515625 15.328125 5.515625 27.984375 
Q 5.515625 40.671875 11.671875 48.328125 
Q 17.828125 56 27.875 56 
Q 33.9375 56 38.28125 53.609375 
Q 42.625 51.21875 45.40625 46.390625 
L 45.40625 54.6875 
L 54.390625 54.6875 
z
" id="DejaVuSans-67"/>
    </defs>
    <g transform="translate(173.590312 35.472)scale(0.12 -0.12)">
     <use xlink:href="#DejaVuSans-4d"/>
     <use x="86.279297" xlink:href="#DejaVuSans-75"/>
     <use x="149.658203" xlink:href="#DejaVuSans-73"/>
     <use x="201.757812" xlink:href="#DejaVuSans-63"/>
     <use x="256.738281" xlink:href="#DejaVuSans-61"/>
     <use x="318.017578" xlink:href="#DejaVuSans-72"/>
     <use x="359.130859" xlink:href="#DejaVuSans-69"/>
     <use x="386.914062" xlink:href="#DejaVuSans-6e"/>
     <use x="450.292969" xlink:href="#DejaVuSans-69"/>
     <use x="478.076172" xlink:href="#DejaVuSans-63"/>
     <use x="533.056641" xlink:href="#DejaVuSans-20"/>
     <use x="564.84375" xlink:href="#DejaVuSans-72"/>
     <use x="605.925781" xlink:href="#DejaVuSans-65"/>
     <use x="667.449219" xlink:href="#DejaVuSans-63"/>
     <use x="722.429688" xlink:href="#DejaVuSans-6f"/>
     <use x="783.611328" xlink:href="#DejaVuSans-72"/>
     <use x="824.708984" xlink:href="#DejaVuSans-64"/>
     <use x="888.185547" xlink:href="#DejaVuSans-69"/>
     <use x="915.96875" xlink:href="#DejaVuSans-6e"/>
     <use x="979.347656" xlink:href="#DejaVuSans-67"/>
    </g>
   </g>
  </g>
 </g>
 <defs>
  <clipPath id="p43ed9684da">
   <rect height="266.112" width="357.12" x="57.6" y="41.472"/>
  </clipPath>
 </defs>
</svg>
