<?xml version="1.0" encoding="utf-8" standalone="no"?>
<!DOCTYPE svg PUBLIC "-//W3C//DTD SVG 1.1//EN"
  "http://www.w3.org/Graphics/SVG/1.1/DTD/svg11.dtd">
<!-- Created with matplotlib (http://matplotlib.org/) -->
<svg height="345.6pt" version="1.1" viewBox="0 0 460.8 345.6" width="460.8pt" xmlns="http://www.w3.org/2000/svg" xmlns:xlink="http://www.w3.org/1999/xlink">
 <defs>
  <style type="text/css">
*{stroke-linecap:butt;stroke-linejoin:round;}
  </style>
 </defs>
 <g id="figure_1">
  <g id="patch_1">
   <path d="M 0 345.6 
L 460.8 345.6 
L 460.8 0 
L 0 0 
z
" style="fill:#ffffff;"/>
  </g>
  <g id="axes_1">
   <g id="patch_2">
    <path d="M 57.6 307.584 
L 414.72 307.584 
L 414.72 41.472 
L 57.6 41.472 
z
" style="fill:#ffffff;"/>
   </g>
   <g id="matplotlib.axis_1">
    <g id="xtick_1">
     <g id="line2d_1">
      <defs>
       <path d="M 0 0 
L 0 3.5 
" id="m628bf427b5" style="stroke:#000000;stroke-width:0.8;"/>
      </defs>
      <g>
       <use style="stroke:#000000;stroke-width:0.8;" x="73.832727" xlink:href="#m628bf427b5" y="307.584"/>
      </g>
     </g>
     <g id="text_1">
      <!-- 0 -->
      <defs>
       <path d="M 31.78125 66.40625 
Q 24.171875 66.40625 20.328125 58.90625 
Q 16.5 51.421875 16.5 36.375 
Q 16.5 21.390625 20.328125 13.890625 
Q 24.171875 6.390625 31.78125 6.390625 
Q 39.453125 6.390625 43.28125 13.890625 
Q 47.125 21.390625 47.125 36.375 
Q 47.125 51.421875 43.28125 58.90625 
Q 39.453125 66.40625 31.78125 66.40625 
z
M 31.78125 74.21875 
Q 44.046875 74.21875 50.515625 64.515625 
Q 56.984375 54.828125 56.984375 36.375 
Q 56.984375 17.96875 50.515625 8.265625 
Q 44.046875 -1.421875 31.78125 -1.421875 
Q 19.53125 -1.421875 13.0625 8.265625 
Q 6.59375 17.96875 6.59375 36.375 
Q 6.59375 54.828125 13.0625 64.515625 
Q 19.53125 74.21875 31.78125 74.21875 
z
" id="DejaVuSans-30"/>
      </defs>
      <g transform="translate(70.651477 322.182437)scale(0.1 -0.1)">
       <use xlink:href="#DejaVuSans-30"/>
      </g>
     </g>
    </g>
    <g id="xtick_2">
     <g id="line2d_2">
      <g>
       <use style="stroke:#000000;stroke-width:0.8;" x="114.414545" xlink:href="#m628bf427b5" y="307.584"/>
      </g>
     </g>
     <g id="text_2">
      <!-- 5000 -->
      <defs>
       <path d="M 10.796875 72.90625 
L 49.515625 72.90625 
L 49.515625 64.59375 
L 19.828125 64.59375 
L 19.828125 46.734375 
Q 21.96875 47.46875 24.109375 47.828125 
Q 26.265625 48.1875 28.421875 48.1875 
Q 40.625 48.1875 47.75 41.5 
Q 54.890625 34.8125 54.890625 23.390625 
Q 54.890625 11.625 47.5625 5.09375 
Q 40.234375 -1.421875 26.90625 -1.421875 
Q 22.3125 -1.421875 17.546875 -0.640625 
Q 12.796875 0.140625 7.71875 1.703125 
L 7.71875 11.625 
Q 12.109375 9.234375 16.796875 8.0625 
Q 21.484375 6.890625 26.703125 6.890625 
Q 35.15625 6.890625 40.078125 11.328125 
Q 45.015625 15.765625 45.015625 23.390625 
Q 45.015625 31 40.078125 35.4375 
Q 35.15625 39.890625 26.703125 39.890625 
Q 22.75 39.890625 18.8125 39.015625 
Q 14.890625 38.140625 10.796875 36.28125 
z
" id="DejaVuSans-35"/>
      </defs>
      <g transform="translate(101.689545 322.182437)scale(0.1 -0.1)">
       <use xlink:href="#DejaVuSans-35"/>
       <use x="63.623047" xlink:href="#DejaVuSans-30"/>
       <use x="127.246094" xlink:href="#DejaVuSans-30"/>
       <use x="190.869141" xlink:href="#DejaVuSans-30"/>
      </g>
     </g>
    </g>
    <g id="xtick_3">
     <g id="line2d_3">
      <g>
       <use style="stroke:#000000;stroke-width:0.8;" x="154.996364" xlink:href="#m628bf427b5" y="307.584"/>
      </g>
     </g>
     <g id="text_3">
      <!-- 10000 -->
      <defs>
       <path d="M 12.40625 8.296875 
L 28.515625 8.296875 
L 28.515625 63.921875 
L 10.984375 60.40625 
L 10.984375 69.390625 
L 28.421875 72.90625 
L 38.28125 72.90625 
L 38.28125 8.296875 
L 54.390625 8.296875 
L 54.390625 0 
L 12.40625 0 
z
" id="DejaVuSans-31"/>
      </defs>
      <g transform="translate(139.090114 322.182437)scale(0.1 -0.1)">
       <use xlink:href="#DejaVuSans-31"/>
       <use x="63.623047" xlink:href="#DejaVuSans-30"/>
       <use x="127.246094" xlink:href="#DejaVuSans-30"/>
       <use x="190.869141" xlink:href="#DejaVuSans-30"/>
       <use x="254.492188" xlink:href="#DejaVuSans-30"/>
      </g>
     </g>
    </g>
    <g id="xtick_4">
     <g id="line2d_4">
      <g>
       <use style="stroke:#000000;stroke-width:0.8;" x="195.578182" xlink:href="#m628bf427b5" y="307.584"/>
      </g>
     </g>
     <g id="text_4">
      <!-- 15000 -->
      <g transform="translate(179.671932 322.182437)scale(0.1 -0.1)">
       <use xlink:href="#DejaVuSans-31"/>
       <use x="63.623047" xlink:href="#DejaVuSans-35"/>
       <use x="127.246094" xlink:href="#DejaVuSans-30"/>
       <use x="190.869141" xlink:href="#DejaVuSans-30"/>
       <use x="254.492188" xlink:href="#DejaVuSans-30"/>
      </g>
     </g>
    </g>
    <g id="xtick_5">
     <g id="line2d_5">
      <g>
       <use style="stroke:#000000;stroke-width:0.8;" x="236.16" xlink:href="#m628bf427b5" y="307.584"/>
      </g>
     </g>
     <g id="text_5">
      <!-- 20000 -->
      <defs>
       <path d="M 19.1875 8.296875 
L 53.609375 8.296875 
L 53.609375 0 
L 7.328125 0 
L 7.328125 8.296875 
Q 12.9375 14.109375 22.625 23.890625 
Q 32.328125 33.6875 34.8125 36.53125 
Q 39.546875 41.84375 41.421875 45.53125 
Q 43.3125 49.21875 43.3125 52.78125 
Q 43.3125 58.59375 39.234375 62.25 
Q 35.15625 65.921875 28.609375 65.921875 
Q 23.96875 65.921875 18.8125 64.3125 
Q 13.671875 62.703125 7.8125 59.421875 
L 7.8125 69.390625 
Q 13.765625 71.78125 18.9375 73 
Q 24.125 74.21875 28.421875 74.21875 
Q 39.75 74.21875 46.484375 68.546875 
Q 53.21875 62.890625 53.21875 53.421875 
Q 53.21875 48.921875 51.53125 44.890625 
Q 49.859375 40.875 45.40625 35.40625 
Q 44.1875 33.984375 37.640625 27.21875 
Q 31.109375 20.453125 19.1875 8.296875 
z
" id="DejaVuSans-32"/>
      </defs>
      <g transform="translate(220.25375 322.182437)scale(0.1 -0.1)">
       <use xlink:href="#DejaVuSans-32"/>
       <use x="63.623047" xlink:href="#DejaVuSans-30"/>
       <use x="127.246094" xlink:href="#DejaVuSans-30"/>
       <use x="190.869141" xlink:href="#DejaVuSans-30"/>
       <use x="254.492188" xlink:href="#DejaVuSans-30"/>
      </g>
     </g>
    </g>
    <g id="xtick_6">
     <g id="line2d_6">
      <g>
       <use style="stroke:#000000;stroke-width:0.8;" x="276.741818" xlink:href="#m628bf427b5" y="307.584"/>
      </g>
     </g>
     <g id="text_6">
      <!-- 25000 -->
      <g transform="translate(260.835568 322.182437)scale(0.1 -0.1)">
       <use xlink:href="#DejaVuSans-32"/>
       <use x="63.623047" xlink:href="#DejaVuSans-35"/>
       <use x="127.246094" xlink:href="#DejaVuSans-30"/>
       <use x="190.869141" xlink:href="#DejaVuSans-30"/>
       <use x="254.492188" xlink:href="#DejaVuSans-30"/>
      </g>
     </g>
    </g>
    <g id="xtick_7">
     <g id="line2d_7">
      <g>
       <use style="stroke:#000000;stroke-width:0.8;" x="317.323636" xlink:href="#m628bf427b5" y="307.584"/>
      </g>
     </g>
     <g id="text_7">
      <!-- 30000 -->
      <defs>
       <path d="M 40.578125 39.3125 
Q 47.65625 37.796875 51.625 33 
Q 55.609375 28.21875 55.609375 21.1875 
Q 55.609375 10.40625 48.1875 4.484375 
Q 40.765625 -1.421875 27.09375 -1.421875 
Q 22.515625 -1.421875 17.65625 -0.515625 
Q 12.796875 0.390625 7.625 2.203125 
L 7.625 11.71875 
Q 11.71875 9.328125 16.59375 8.109375 
Q 21.484375 6.890625 26.8125 6.890625 
Q 36.078125 6.890625 40.9375 10.546875 
Q 45.796875 14.203125 45.796875 21.1875 
Q 45.796875 27.640625 41.28125 31.265625 
Q 36.765625 34.90625 28.71875 34.90625 
L 20.21875 34.90625 
L 20.21875 43.015625 
L 29.109375 43.015625 
Q 36.375 43.015625 40.234375 45.921875 
Q 44.09375 48.828125 44.09375 54.296875 
Q 44.09375 59.90625 40.109375 62.90625 
Q 36.140625 65.921875 28.71875 65.921875 
Q 24.65625 65.921875 20.015625 65.03125 
Q 15.375 64.15625 9.8125 62.3125 
L 9.8125 71.09375 
Q 15.4375 72.65625 20.34375 73.4375 
Q 25.25 74.21875 29.59375 74.21875 
Q 40.828125 74.21875 47.359375 69.109375 
Q 53.90625 64.015625 53.90625 55.328125 
Q 53.90625 49.265625 50.4375 45.09375 
Q 46.96875 40.921875 40.578125 39.3125 
z
" id="DejaVuSans-33"/>
      </defs>
      <g transform="translate(301.417386 322.182437)scale(0.1 -0.1)">
       <use xlink:href="#DejaVuSans-33"/>
       <use x="63.623047" xlink:href="#DejaVuSans-30"/>
       <use x="127.246094" xlink:href="#DejaVuSans-30"/>
       <use x="190.869141" xlink:href="#DejaVuSans-30"/>
       <use x="254.492188" xlink:href="#DejaVuSans-30"/>
      </g>
     </g>
    </g>
    <g id="xtick_8">
     <g id="line2d_8">
      <g>
       <use style="stroke:#000000;stroke-width:0.8;" x="357.905455" xlink:href="#m628bf427b5" y="307.584"/>
      </g>
     </g>
     <g id="text_8">
      <!-- 35000 -->
      <g transform="translate(341.999205 322.182437)scale(0.1 -0.1)">
       <use xlink:href="#DejaVuSans-33"/>
       <use x="63.623047" xlink:href="#DejaVuSans-35"/>
       <use x="127.246094" xlink:href="#DejaVuSans-30"/>
       <use x="190.869141" xlink:href="#DejaVuSans-30"/>
       <use x="254.492188" xlink:href="#DejaVuSans-30"/>
      </g>
     </g>
    </g>
    <g id="xtick_9">
     <g id="line2d_9">
      <g>
       <use style="stroke:#000000;stroke-width:0.8;" x="398.487273" xlink:href="#m628bf427b5" y="307.584"/>
      </g>
     </g>
     <g id="text_9">
      <!-- 40000 -->
      <defs>
       <path d="M 37.796875 64.3125 
L 12.890625 25.390625 
L 37.796875 25.390625 
z
M 35.203125 72.90625 
L 47.609375 72.90625 
L 47.609375 25.390625 
L 58.015625 25.390625 
L 58.015625 17.1875 
L 47.609375 17.1875 
L 47.609375 0 
L 37.796875 0 
L 37.796875 17.1875 
L 4.890625 17.1875 
L 4.890625 26.703125 
z
" id="DejaVuSans-34"/>
      </defs>
      <g transform="translate(382.581023 322.182437)scale(0.1 -0.1)">
       <use xlink:href="#DejaVuSans-34"/>
       <use x="63.623047" xlink:href="#DejaVuSans-30"/>
       <use x="127.246094" xlink:href="#DejaVuSans-30"/>
       <use x="190.869141" xlink:href="#DejaVuSans-30"/>
       <use x="254.492188" xlink:href="#DejaVuSans-30"/>
      </g>
     </g>
    </g>
   </g>
   <g id="matplotlib.axis_2">
    <g id="ytick_1">
     <g id="line2d_10">
      <defs>
       <path d="M 0 0 
L -3.5 0 
" id="m3515c17875" style="stroke:#000000;stroke-width:0.8;"/>
      </defs>
      <g>
       <use style="stroke:#000000;stroke-width:0.8;" x="57.6" xlink:href="#m3515c17875" y="295.488"/>
      </g>
     </g>
     <g id="text_10">
      <!-- 0.00000 -->
      <defs>
       <path d="M 10.6875 12.40625 
L 21 12.40625 
L 21 0 
L 10.6875 0 
z
" id="DejaVuSans-2e"/>
      </defs>
      <g transform="translate(9.246875 299.287219)scale(0.1 -0.1)">
       <use xlink:href="#DejaVuSans-30"/>
       <use x="63.623047" xlink:href="#DejaVuSans-2e"/>
       <use x="95.410156" xlink:href="#DejaVuSans-30"/>
       <use x="159.033203" xlink:href="#DejaVuSans-30"/>
       <use x="222.65625" xlink:href="#DejaVuSans-30"/>
       <use x="286.279297" xlink:href="#DejaVuSans-30"/>
       <use x="349.902344" xlink:href="#DejaVuSans-30"/>
      </g>
     </g>
    </g>
    <g id="ytick_2">
     <g id="line2d_11">
      <g>
       <use style="stroke:#000000;stroke-width:0.8;" x="57.6" xlink:href="#m3515c17875" y="241.728"/>
      </g>
     </g>
     <g id="text_11">
      <!-- 0.00001 -->
      <g transform="translate(9.246875 245.527219)scale(0.1 -0.1)">
       <use xlink:href="#DejaVuSans-30"/>
       <use x="63.623047" xlink:href="#DejaVuSans-2e"/>
       <use x="95.410156" xlink:href="#DejaVuSans-30"/>
       <use x="159.033203" xlink:href="#DejaVuSans-30"/>
       <use x="222.65625" xlink:href="#DejaVuSans-30"/>
       <use x="286.279297" xlink:href="#DejaVuSans-30"/>
       <use x="349.902344" xlink:href="#DejaVuSans-31"/>
      </g>
     </g>
    </g>
    <g id="ytick_3">
     <g id="line2d_12">
      <g>
       <use style="stroke:#000000;stroke-width:0.8;" x="57.6" xlink:href="#m3515c17875" y="187.968"/>
      </g>
     </g>
     <g id="text_12">
      <!-- 0.00002 -->
      <g transform="translate(9.246875 191.767219)scale(0.1 -0.1)">
       <use xlink:href="#DejaVuSans-30"/>
       <use x="63.623047" xlink:href="#DejaVuSans-2e"/>
       <use x="95.410156" xlink:href="#DejaVuSans-30"/>
       <use x="159.033203" xlink:href="#DejaVuSans-30"/>
       <use x="222.65625" xlink:href="#DejaVuSans-30"/>
       <use x="286.279297" xlink:href="#DejaVuSans-30"/>
       <use x="349.902344" xlink:href="#DejaVuSans-32"/>
      </g>
     </g>
    </g>
    <g id="ytick_4">
     <g id="line2d_13">
      <g>
       <use style="stroke:#000000;stroke-width:0.8;" x="57.6" xlink:href="#m3515c17875" y="134.208"/>
      </g>
     </g>
     <g id="text_13">
      <!-- 0.00003 -->
      <g transform="translate(9.246875 138.007219)scale(0.1 -0.1)">
       <use xlink:href="#DejaVuSans-30"/>
       <use x="63.623047" xlink:href="#DejaVuSans-2e"/>
       <use x="95.410156" xlink:href="#DejaVuSans-30"/>
       <use x="159.033203" xlink:href="#DejaVuSans-30"/>
       <use x="222.65625" xlink:href="#DejaVuSans-30"/>
       <use x="286.279297" xlink:href="#DejaVuSans-30"/>
       <use x="349.902344" xlink:href="#DejaVuSans-33"/>
      </g>
     </g>
    </g>
    <g id="ytick_5">
     <g id="line2d_14">
      <g>
       <use style="stroke:#000000;stroke-width:0.8;" x="57.6" xlink:href="#m3515c17875" y="80.448"/>
      </g>
     </g>
     <g id="text_14">
      <!-- 0.00004 -->
      <g transform="translate(9.246875 84.247219)scale(0.1 -0.1)">
       <use xlink:href="#DejaVuSans-30"/>
       <use x="63.623047" xlink:href="#DejaVuSans-2e"/>
       <use x="95.410156" xlink:href="#DejaVuSans-30"/>
       <use x="159.033203" xlink:href="#DejaVuSans-30"/>
       <use x="222.65625" xlink:href="#DejaVuSans-30"/>
       <use x="286.279297" xlink:href="#DejaVuSans-30"/>
       <use x="349.902344" xlink:href="#DejaVuSans-34"/>
      </g>
     </g>
    </g>
   </g>
   <g id="line2d_15">
    <path clip-path="url(#p939f690358)" d="M 73.832727 53.568 
L 73.943921 295.488 
L 74.219269 295.378503 
L 74.76895 275.677163 
L 75.281701 264.534601 
L 75.387011 260.993209 
L 75.905444 237.416807 
L 76.472169 214.112373 
L 76.950831 194.348039 
L 77.215425 183.045943 
L 77.681913 161.327982 
L 78.318641 136.291989 
L 78.728518 123.639205 
L 79.222196 111.262275 
L 79.614216 99.854136 
L 79.91858 96.25485 
L 80.078066 95.838297 
L 80.103836 95.854033 
L 80.204073 96.11835 
L 80.386894 97.364174 
L 80.543337 99.120633 
L 80.576614 98.090054 
L 80.93069 90.801683 
L 81.184124 89.102465 
L 81.250475 89.062817 
L 81.29755 89.126915 
L 81.426194 89.667317 
L 81.6498 91.74434 
L 82.002456 97.408559 
L 82.550716 110.277725 
L 83.284639 131.671806 
L 83.408007 130.203207 
L 83.661238 128.840975 
L 83.735908 128.815726 
L 83.777505 128.868853 
L 83.912236 129.348888 
L 84.142944 131.14565 
L 84.504934 135.968544 
L 85.069224 146.859711 
L 86.135308 172.603146 
L 87.157361 197.743854 
L 87.205248 196.753572 
L 87.588543 191.345607 
L 87.881544 189.7409 
L 88.030276 189.602333 
L 88.054625 189.617843 
L 88.187328 189.87597 
L 88.408296 190.891428 
L 88.755271 193.689779 
L 89.293385 200.081814 
L 90.262479 214.723974 
L 90.782332 223.021955 
L 90.822305 221.885036 
L 91.262212 212.767968 
L 91.630898 209.060564 
L 91.904825 208.078507 
L 92.042398 208.049361 
L 92.058428 208.063916 
L 92.212841 208.380289 
L 92.462825 209.493566 
L 92.850382 212.381611 
L 93.458906 218.816682 
L 94.705985 234.882355 
L 94.766655 233.014121 
L 95.224215 222.719984 
L 95.616236 218.227211 
L 95.921411 216.811356 
L 96.108899 216.659778 
L 96.113363 216.661989 
L 96.255805 216.862153 
L 96.297604 216.96613 
L 96.303895 216.70104 
L 96.769165 201.829214 
L 97.171534 195.147224 
L 97.489898 192.902382 
L 97.695445 192.577657 
L 97.696663 192.578014 
L 97.815161 192.730308 
L 97.891861 192.94632 
L 97.898963 192.651974 
L 98.34374 178.883372 
L 98.718919 173.164915 
L 99.000759 171.567676 
L 99.123925 171.461928 
L 99.158014 171.489122 
L 99.206712 171.568084 
L 99.210973 171.385709 
L 99.643372 157.673584 
L 100.001913 152.279767 
L 100.261433 150.97125 
L 100.348684 150.937399 
L 100.388049 150.982304 
L 100.525621 151.412447 
L 100.758967 153.007677 
L 101.124406 157.268636 
L 101.69458 166.872077 
L 102.784405 189.760238 
L 104.534496 225.553935 
L 105.650496 243.844539 
L 106.665244 256.997215 
L 106.885401 259.44312 
L 106.911982 258.545637 
L 107.40708 245.754171 
L 107.848813 239.428355 
L 108.22034 236.836248 
L 108.499137 236.138005 
L 108.669377 236.135257 
L 108.849155 236.425834 
L 109.127546 237.37349 
L 109.554061 239.724848 
L 110.236444 244.907824 
L 111.119708 252.690435 
L 111.149332 251.638552 
L 111.638343 238.424559 
L 112.072163 232.005037 
L 112.432935 229.466226 
L 112.697123 228.843116 
L 112.851334 228.872364 
L 113.030908 229.216099 
L 113.312749 230.319525 
L 113.745554 233.038571 
L 114.441329 239.024963 
L 115.524458 249.785487 
L 115.559561 248.578187 
L 116.043094 236.004696 
L 116.469609 229.999122 
L 116.820844 227.701387 
L 117.072655 227.18878 
L 117.218343 227.246743 
L 117.404614 227.643057 
L 117.697209 228.876434 
L 118.146652 231.868101 
L 118.87814 238.451395 
L 119.05325 240.19812 
L 119.078411 239.331111 
L 119.552001 227.014925 
L 119.965124 221.326216 
L 120.2983 219.293791 
L 120.526167 218.928135 
L 120.659681 219.034725 
L 120.679364 219.06847 
L 120.684031 218.867444 
L 121.152751 203.506623 
L 121.55938 196.528038 
L 121.883629 194.121504 
L 122.098307 193.73766 
L 122.21498 193.86775 
L 122.398207 194.48934 
L 122.409975 194.017988 
L 122.852926 180.825409 
L 123.225467 175.390706 
L 123.504061 173.900505 
L 123.623169 173.812265 
L 123.65746 173.841031 
L 123.792598 174.172118 
L 123.877414 174.545086 
L 123.888574 174.102965 
L 124.3159 161.669229 
L 124.667745 156.89143 
L 124.918337 155.80669 
L 125.003356 155.803535 
L 125.03501 155.845053 
L 125.177452 156.298714 
L 125.417291 157.940575 
L 125.791861 162.267836 
L 126.378065 171.969404 
L 127.54114 195.741041 
L 129.1914 228.172557 
L 130.305574 245.769115 
L 131.319511 258.430145 
L 132.283532 267.811466 
L 132.383566 268.653167 
L 132.404465 267.89336 
L 132.914782 253.52521 
L 133.3764 246.115245 
L 133.774305 242.829893 
L 134.087799 241.759672 
L 134.295781 241.631747 
L 134.463384 241.808973 
L 134.713368 242.463257 
L 135.096055 244.179292 
L 135.693216 248.017383 
L 136.906004 257.60517 
L 137.068331 258.917043 
L 137.088419 258.181839 
L 137.586967 244.144723 
L 138.033164 237.135579 
L 138.410372 234.210398 
L 138.696473 233.383427 
L 138.87199 233.352961 
L 139.043245 233.617219 
L 139.309259 234.511874 
L 139.717715 236.776799 
L 140.364386 241.788888 
L 141.652453 253.660426 
L 141.691817 252.281282 
L 142.180625 239.314974 
L 142.614242 233.018619 
L 142.974609 230.532019 
L 143.238593 229.923162 
L 143.39321 229.953988 
L 143.574205 230.298376 
L 143.857872 231.399007 
L 144.17299 233.256226 
L 144.193078 232.496249 
L 144.66545 218.981945 
L 145.077153 212.762027 
L 145.408097 210.559912 
L 145.632312 210.174427 
L 145.758724 210.285142 
L 145.853889 210.506364 
L 145.860179 210.242477 
L 146.319768 195.677082 
L 146.714426 189.268845 
L 147.022848 187.211324 
L 147.08575 186.642671 
L 147.535396 170.875024 
L 147.917068 164.193752 
L 148.207634 162.2334 
L 148.368541 161.447251 
L 148.796273 147.645486 
L 149.148524 142.335157 
L 149.399522 141.123882 
L 149.477236 141.110931 
L 149.514369 141.159414 
L 149.65255 141.629414 
L 149.887316 143.360538 
L 150.254987 147.96921 
L 150.829017 158.339446 
L 151.935886 183.212456 
L 153.660207 220.832391 
L 154.776004 240.356817 
L 155.79055 254.396234 
L 156.754571 264.794836 
L 157.117778 268.062865 
L 157.137257 267.359106 
L 157.646762 253.101455 
L 158.107366 245.765653 
L 158.503647 242.52934 
L 158.815113 241.485225 
L 159.02066 241.366863 
L 159.188871 241.550379 
L 159.440681 242.22072 
L 159.826209 243.971718 
L 160.428646 247.882677 
L 161.671667 257.775718 
L 162.000583 260.428107 
L 162.020265 259.706101 
L 162.520639 245.564714 
L 162.969473 238.461219 
L 163.350131 235.466048 
L 163.6409 234.59729 
L 163.821286 234.552706 
L 163.991324 234.801611 
L 164.254497 235.654901 
L 164.658489 237.827345 
L 165.296232 242.640329 
L 166.845646 256.624968 
L 166.9889 257.895765 
L 167.011017 257.103795 
L 167.507129 243.470099 
L 167.950283 236.705711 
L 168.323433 233.918598 
L 168.604259 233.155537 
L 168.7745 233.142244 
L 168.912275 233.342774 
L 168.917551 233.116924 
L 169.398242 217.339626 
L 169.821105 209.869537 
L 170.166862 207.066027 
L 170.410353 206.472003 
L 170.538185 206.537256 
L 170.603116 206.658537 
L 170.607986 206.451122 
L 171.065749 191.731494 
L 171.457972 185.303335 
L 171.762742 183.275916 
L 171.934403 182.383084 
L 172.376948 167.756602 
L 172.749083 161.737663 
L 173.027068 160.093269 
L 173.140495 159.995346 
L 173.178236 160.028264 
L 173.309518 160.378425 
L 173.533124 161.729756 
L 173.884765 165.420142 
L 174.431199 173.816198 
L 175.429512 193.220083 
L 177.34822 230.173321 
L 178.462597 247.248025 
L 179.476737 259.533895 
L 180.440961 268.637132 
L 180.918 272.335225 
L 180.932609 271.787168 
L 181.449013 256.686424 
L 181.918748 248.77125 
L 182.327204 245.161015 
L 182.654902 243.907199 
L 182.879928 243.708047 
L 183.045096 243.84451 
L 183.282905 244.393602 
L 183.646519 245.876259 
L 184.209794 249.232848 
L 185.264719 257.130304 
L 186.216565 264.435592 
L 186.232798 263.82957 
L 186.739056 249.193764 
L 187.195399 241.72617 
L 187.586201 238.480663 
L 187.890362 237.469845 
L 188.086169 237.375829 
L 188.252352 237.581466 
L 188.505583 238.318617 
L 188.894153 240.233469 
L 189.502881 244.503956 
L 190.786078 255.492722 
L 191.293553 259.839948 
L 191.313439 259.118568 
L 191.812798 245.174951 
L 192.260009 238.198783 
L 192.638638 235.275678 
L 192.926566 234.441767 
L 193.104111 234.406987 
L 193.275569 234.665084 
L 193.325688 234.788864 
L 193.331978 234.523424 
L 193.813279 218.956967 
L 194.236547 211.582 
L 194.583116 208.804221 
L 194.827824 208.210367 
L 194.957077 208.273649 
L 194.964382 208.284225 
L 194.968643 208.099251 
L 195.429044 192.976196 
L 195.824716 186.305877 
L 196.134356 184.152014 
L 196.32367 183.13422 
L 196.766417 168.5567 
L 197.138756 162.553158 
L 197.417147 160.908368 
L 197.531385 160.809205 
L 197.568923 160.841657 
L 197.700205 161.189138 
L 197.923811 162.531511 
L 198.275452 166.19871 
L 198.821684 174.539803 
L 199.819591 193.817662 
L 201.739516 230.57233 
L 202.853893 247.543132 
L 203.868033 259.754053 
L 204.832257 268.801667 
L 205.279671 272.262887 
L 205.294889 271.692401 
L 205.811293 256.609041 
L 206.280825 248.709361 
L 206.689078 245.108562 
L 207.01637 243.860603 
L 207.240788 243.66371 
L 207.405956 243.801058 
L 207.643968 244.352179 
L 208.007987 245.839588 
L 208.571871 249.205323 
L 209.629433 257.132104 
L 210.49342 263.789146 
L 210.510465 263.154334 
L 211.015708 248.595693 
L 211.470833 241.18453 
L 211.860013 237.978542 
L 212.161942 236.990916 
L 212.355314 236.905221 
L 212.521903 237.11735 
L 212.776553 237.871832 
L 213.167356 239.825322 
L 213.780345 244.177755 
L 215.092558 255.519547 
L 215.963038 262.87734 
L 215.978459 262.311471 
L 216.482282 248.011686 
L 216.935378 240.766968 
L 217.321717 237.659731 
L 217.619993 236.720798 
L 217.717593 236.401809 
L 218.204372 219.441334 
L 218.635148 211.258869 
L 218.991659 208.06662 
L 219.249353 207.310759 
L 219.381041 207.07263 
L 219.841036 191.843817 
L 220.236506 185.128384 
L 220.545537 182.966232 
L 220.725923 182.699062 
L 220.739518 182.704857 
L 220.858423 182.897662 
L 220.873844 182.940599 
L 220.880945 182.642948 
L 221.319229 168.992129 
L 221.685683 163.477138 
L 221.955958 162.040375 
L 222.059036 161.976334 
L 222.097385 162.013447 
L 222.233132 162.390781 
L 222.463028 163.810885 
L 222.823394 167.63438 
L 223.384641 176.279588 
L 224.438145 196.624132 
L 226.2485 230.898914 
L 227.364703 247.79452 
L 228.379654 259.943559 
L 229.344284 268.943119 
L 230.278477 275.667889 
L 230.371612 276.245356 
L 230.387033 275.649681 
L 230.909321 259.879842 
L 231.386564 251.49629 
L 231.804962 247.57333 
L 232.145849 246.134987 
L 232.387311 245.856412 
L 232.553697 245.956802 
L 232.780752 246.416349 
L 233.127321 247.696817 
L 233.660769 250.633583 
L 234.609977 257.323107 
L 235.527329 264.137932 
L 235.545185 263.469273 
L 236.051038 248.814689 
L 236.506975 241.34287 
L 236.897169 238.101759 
L 237.200518 237.096478 
L 237.395311 237.005402 
L 237.56129 237.213428 
L 237.814724 237.957561 
L 238.2037 239.889197 
L 238.813239 244.196158 
L 240.102118 255.306749 
L 241.104692 263.730501 
L 241.118084 263.236907 
L 241.623124 248.81227 
L 242.078047 241.473682 
L 242.46682 238.30426 
L 242.76814 237.33114 
L 242.961107 237.248661 
L 243.128507 237.462746 
L 243.384375 238.221034 
L 243.777004 240.180602 
L 244.393239 244.54293 
L 245.728787 256.027968 
L 246.389053 261.621983 
L 246.407112 260.962747 
L 246.908906 246.827882 
L 247.359567 239.701555 
L 247.74266 236.67558 
L 248.036472 235.783262 
L 248.220713 235.728877 
L 248.390548 235.967769 
L 248.652301 236.792251 
L 249.053858 238.896998 
L 249.687137 243.565939 
L 251.178925 256.767768 
L 251.507841 259.621777 
L 251.52874 258.867138 
L 252.027491 245.016659 
L 252.474094 238.095119 
L 252.851708 235.204497 
L 253.138418 234.385357 
L 253.314746 234.354631 
L 253.487016 234.617071 
L 253.754044 235.503826 
L 254.163718 237.744874 
L 254.812621 242.701761 
L 256.434473 257.391119 
L 256.476679 255.897772 
L 256.970356 242.649034 
L 257.410263 236.124451 
L 257.779152 233.473933 
L 258.054297 232.774914 
L 258.219262 232.778856 
L 258.396807 233.082196 
L 258.673575 234.073805 
L 259.098061 236.538064 
L 259.776589 241.970707 
L 261.616366 259.008371 
L 261.655324 257.625208 
L 262.151437 244.223529 
L 262.594388 237.58022 
L 262.967335 234.845343 
L 263.247958 234.098661 
L 263.418401 234.087708 
L 263.594121 234.37132 
L 263.867033 235.30986 
L 264.285838 237.659083 
L 264.952597 242.842918 
L 267.288892 263.685289 
L 267.326025 262.33828 
L 267.828833 248.385159 
L 268.280712 241.331045 
L 268.665631 238.317597 
L 268.962081 237.416618 
L 269.149772 237.355341 
L 269.320418 237.586252 
L 269.582171 238.385771 
L 269.983525 240.429129 
L 270.615993 244.961454 
L 272.097838 257.717123 
L 272.417217 260.417365 
L 272.437711 259.67289 
L 272.937679 245.690529 
L 273.385905 238.677703 
L 273.765751 235.728597 
L 274.055302 234.879004 
L 274.234876 234.8388 
L 274.405929 235.09141 
L 274.670725 235.952864 
L 275.076949 238.139051 
L 275.719156 242.980057 
L 277.336748 257.508258 
L 277.953794 262.765984 
L 277.971244 262.128658 
L 278.474459 247.929878 
L 278.926946 240.742393 
L 279.312473 237.666623 
L 279.609735 236.741964 
L 279.798035 236.675587 
L 279.967058 236.903022 
L 280.226579 237.696339 
L 280.624687 239.731352 
L 281.25127 244.251568 
L 282.667778 256.578318 
L 282.708969 255.114231 
L 283.202038 241.821742 
L 283.64093 235.291998 
L 284.008399 232.65021 
L 284.28192 231.960008 
L 284.445059 231.967774 
L 284.622604 232.277109 
L 284.899778 233.286088 
L 285.325076 235.79177 
L 286.005227 241.314316 
L 288.225864 261.887509 
L 288.262388 260.576341 
L 288.762559 246.859406 
L 289.210988 239.975218 
L 289.591239 237.075022 
L 289.881602 236.236 
L 290.062597 236.195288 
L 290.23507 236.445553 
L 290.501287 237.29659 
L 290.909337 239.451794 
L 291.554993 244.222194 
L 293.238936 258.998863 
L 293.284996 259.392332 
L 293.306302 258.622981 
L 293.804647 244.787347 
L 294.250844 237.877189 
L 294.627849 234.996112 
L 294.913951 234.182283 
L 295.08967 234.153629 
L 295.262143 234.418666 
L 295.529577 235.312118 
L 295.940062 237.569039 
L 296.590588 242.56057 
L 298.442134 259.320151 
L 299.371457 266.880337 
L 299.3814 266.509463 
L 299.891108 251.71355 
L 300.351914 244.09638 
L 300.748601 240.730638 
L 301.060473 239.641731 
L 301.265817 239.515554 
L 301.430782 239.69663 
L 301.678737 240.366722 
L 302.058988 242.129358 
L 302.652092 246.076443 
L 303.843371 255.850458 
L 304.645065 262.446289 
L 304.662109 261.81937 
L 305.165324 247.518359 
L 305.617608 240.283502 
L 306.003135 237.187126 
L 306.300194 236.257926 
L 306.487885 236.191707 
L 306.6563 236.419654 
L 306.915212 237.215786 
L 307.312508 239.259778 
L 307.937468 243.799873 
L 309.345657 256.152292 
L 310.633115 266.730866 
L 310.637782 266.556084 
L 311.147692 251.654505 
L 311.608905 243.97482 
L 312.005998 240.577326 
L 312.318681 239.473712 
L 312.524836 239.343751 
L 312.689396 239.52326 
L 312.936336 240.189316 
L 313.315167 241.944475 
L 313.905836 245.878011 
L 315.084737 255.571262 
L 316.040642 263.414157 
L 316.05586 262.852255 
L 316.560495 248.430234 
L 317.014809 241.102782 
L 317.402771 237.945098 
L 317.703076 236.980355 
L 317.894825 236.90142 
L 318.062428 237.118915 
L 318.318905 237.886675 
L 318.712549 239.86829 
L 319.33061 244.277125 
L 320.680361 255.958697 
L 321.518985 263.024696 
L 321.534609 262.451123 
L 322.038432 248.143404 
L 322.491731 240.887587 
L 322.878476 237.771383 
L 323.177158 236.827658 
L 323.367081 236.755431 
L 323.535495 236.978425 
L 323.793596 237.76022 
L 324.189674 239.77157 
L 324.812199 244.241209 
L 326.198677 256.282027 
L 326.852247 261.832646 
L 326.870103 261.180867 
L 327.3721 247.037205 
L 327.822964 239.901456 
L 328.206463 236.865782 
L 328.500884 235.966878 
L 328.685937 235.909909 
L 328.855569 236.146283 
L 329.116713 236.963659 
L 329.517458 239.053225 
L 330.149114 243.689696 
L 331.62264 256.688474 
L 332.550543 264.458681 
L 332.563327 263.986731 
L 333.069382 249.496236 
L 333.525521 242.105408 
L 333.915919 238.896855 
L 334.219673 237.899044 
L 334.415278 237.807407 
L 334.582069 238.013709 
L 334.836314 238.751633 
L 335.226305 240.665507 
L 335.837468 244.930614 
L 337.136897 255.983235 
L 338.647353 268.083515 
L 338.647556 268.075838 
L 339.159901 252.899554 
L 339.624157 245.03313 
L 340.025308 241.51463 
L 340.343064 240.344098 
L 340.55551 240.188351 
L 340.718649 240.351444 
L 340.960922 240.974749 
L 341.332449 242.635017 
L 341.910131 246.372819 
L 343.026334 255.362339 
L 343.978586 263.116511 
L 343.994616 262.524562 
L 344.498845 248.121426 
L 344.95255 240.81273 
L 345.3397 237.669461 
L 345.639194 236.71306 
L 345.829726 236.637558 
L 345.997329 236.857598 
L 346.254415 237.633206 
L 346.64887 239.63226 
L 347.268554 244.078901 
L 348.630886 255.926702 
L 349.777728 265.435657 
L 349.786859 265.096211 
L 350.29474 250.413338 
L 350.753112 242.892548 
L 351.146553 239.599669 
L 351.454163 238.556207 
L 351.654231 238.448358 
L 351.820008 238.642882 
L 352.071007 239.349085 
L 352.456128 241.193602 
L 353.058159 245.312958 
L 354.299963 255.729219 
L 355.06493 262.116105 
L 355.082177 261.48377 
L 355.584783 247.251765 
L 356.036459 240.060239 
L 356.420972 236.992506 
L 356.716813 236.077844 
L 356.903084 236.016379 
L 357.072107 236.248664 
L 357.332236 237.056266 
L 357.731359 239.125037 
L 358.359768 243.71711 
L 359.80022 256.396583 
L 360.389062 261.443455 
L 360.407729 260.764161 
L 360.909118 246.692969 
L 361.35917 239.607215 
L 361.741451 236.604182 
L 362.034452 235.722018 
L 362.217881 235.670699 
L 362.388122 235.912374 
L 362.650687 236.743916 
L 363.053461 238.863444 
L 363.688972 243.562369 
L 365.208153 257.021616 
L 366.254961 265.69265 
L 366.2647 265.330709 
L 366.772785 250.649052 
L 367.231562 243.121543 
L 367.625409 239.822261 
L 367.933628 238.773325 
L 368.134508 238.662969 
L 368.300284 238.855599 
L 368.550877 239.556183 
L 368.93539 241.387734 
L 369.536407 245.480275 
L 370.771717 255.799294 
L 371.801481 264.255478 
L 371.814873 263.7596 
L 372.320725 249.237858 
L 372.776662 241.833768 
L 373.166856 238.622033 
L 373.470205 237.625862 
L 373.665201 237.535711 
L 373.831992 237.743731 
L 374.086237 238.486081 
L 374.476431 240.41126 
L 375.087999 244.701059 
L 376.39027 255.831358 
L 377.502212 265.012001 
L 377.512966 264.612755 
L 378.020036 249.989452 
L 378.477596 242.509117 
L 378.869819 239.245727 
L 379.175806 238.21935 
L 379.374251 238.117813 
L 379.540433 238.317389 
L 379.792649 239.03696 
L 380.179597 240.910763 
L 380.785281 245.093293 
L 382.048796 255.765324 
L 383.202943 265.228187 
L 383.213494 264.835766 
L 383.720969 250.170358 
L 384.178935 242.663278 
L 384.571767 239.382107 
L 384.878566 238.346057 
L 385.077823 238.241096 
L 385.243599 238.437761 
L 385.495004 239.149852 
L 385.880734 241.007531 
L 386.483983 245.155186 
L 387.733091 255.675068 
L 388.893934 265.188483 
L 388.904485 264.796057 
L 389.411961 250.131235 
L 389.869927 242.625715 
L 390.262759 239.346382 
L 390.569557 238.311975 
L 390.768611 238.208051 
L 390.934591 238.405773 
L 391.186401 239.120865 
L 391.57274 240.985233 
L 392.177003 245.146255 
L 393.432199 255.726909 
L 394.319723 263.110254 
L 394.335144 262.542657 
L 394.839373 248.184173 
L 395.293078 240.900684 
L 395.680025 237.771633 
L 395.979316 236.820913 
L 396.169645 236.746939 
L 396.337654 236.968237 
L 396.595145 237.745836 
L 396.990209 239.747832 
L 397.611111 244.199896 
L 398.487273 251.729798 
L 398.487273 251.729798 
" style="fill:none;stroke:#1f77b4;stroke-linecap:square;stroke-width:1.5;"/>
   </g>
   <g id="patch_3">
    <path d="M 57.6 307.584 
L 57.6 41.472 
" style="fill:none;stroke:#000000;stroke-linecap:square;stroke-linejoin:miter;stroke-width:0.8;"/>
   </g>
   <g id="patch_4">
    <path d="M 414.72 307.584 
L 414.72 41.472 
" style="fill:none;stroke:#000000;stroke-linecap:square;stroke-linejoin:miter;stroke-width:0.8;"/>
   </g>
   <g id="patch_5">
    <path d="M 57.6 307.584 
L 414.72 307.584 
" style="fill:none;stroke:#000000;stroke-linecap:square;stroke-linejoin:miter;stroke-width:0.8;"/>
   </g>
   <g id="patch_6">
    <path d="M 57.6 41.472 
L 414.72 41.472 
" style="fill:none;stroke:#000000;stroke-linecap:square;stroke-linejoin:miter;stroke-width:0.8;"/>
   </g>
   <g id="text_15">
    <!-- Acetylcholine activation -->
    <defs>
     <path d="M 34.1875 63.1875 
L 20.796875 26.90625 
L 47.609375 26.90625 
z
M 28.609375 72.90625 
L 39.796875 72.90625 
L 67.578125 0 
L 57.328125 0 
L 50.6875 18.703125 
L 17.828125 18.703125 
L 11.1875 0 
L 0.78125 0 
z
" id="DejaVuSans-41"/>
     <path d="M 48.78125 52.59375 
L 48.78125 44.1875 
Q 44.96875 46.296875 41.140625 47.34375 
Q 37.3125 48.390625 33.40625 48.390625 
Q 24.65625 48.390625 19.8125 42.84375 
Q 14.984375 37.3125 14.984375 27.296875 
Q 14.984375 17.28125 19.8125 11.734375 
Q 24.65625 6.203125 33.40625 6.203125 
Q 37.3125 6.203125 41.140625 7.25 
Q 44.96875 8.296875 48.78125 10.40625 
L 48.78125 2.09375 
Q 45.015625 0.34375 40.984375 -0.53125 
Q 36.96875 -1.421875 32.421875 -1.421875 
Q 20.0625 -1.421875 12.78125 6.34375 
Q 5.515625 14.109375 5.515625 27.296875 
Q 5.515625 40.671875 12.859375 48.328125 
Q 20.21875 56 33.015625 56 
Q 37.15625 56 41.109375 55.140625 
Q 45.0625 54.296875 48.78125 52.59375 
z
" id="DejaVuSans-63"/>
     <path d="M 56.203125 29.59375 
L 56.203125 25.203125 
L 14.890625 25.203125 
Q 15.484375 15.921875 20.484375 11.0625 
Q 25.484375 6.203125 34.421875 6.203125 
Q 39.59375 6.203125 44.453125 7.46875 
Q 49.3125 8.734375 54.109375 11.28125 
L 54.109375 2.78125 
Q 49.265625 0.734375 44.1875 -0.34375 
Q 39.109375 -1.421875 33.890625 -1.421875 
Q 20.796875 -1.421875 13.15625 6.1875 
Q 5.515625 13.8125 5.515625 26.8125 
Q 5.515625 40.234375 12.765625 48.109375 
Q 20.015625 56 32.328125 56 
Q 43.359375 56 49.78125 48.890625 
Q 56.203125 41.796875 56.203125 29.59375 
z
M 47.21875 32.234375 
Q 47.125 39.59375 43.09375 43.984375 
Q 39.0625 48.390625 32.421875 48.390625 
Q 24.90625 48.390625 20.390625 44.140625 
Q 15.875 39.890625 15.1875 32.171875 
z
" id="DejaVuSans-65"/>
     <path d="M 18.3125 70.21875 
L 18.3125 54.6875 
L 36.8125 54.6875 
L 36.8125 47.703125 
L 18.3125 47.703125 
L 18.3125 18.015625 
Q 18.3125 11.328125 20.140625 9.421875 
Q 21.96875 7.515625 27.59375 7.515625 
L 36.8125 7.515625 
L 36.8125 0 
L 27.59375 0 
Q 17.1875 0 13.234375 3.875 
Q 9.28125 7.765625 9.28125 18.015625 
L 9.28125 47.703125 
L 2.6875 47.703125 
L 2.6875 54.6875 
L 9.28125 54.6875 
L 9.28125 70.21875 
z
" id="DejaVuSans-74"/>
     <path d="M 32.171875 -5.078125 
Q 28.375 -14.84375 24.75 -17.8125 
Q 21.140625 -20.796875 15.09375 -20.796875 
L 7.90625 -20.796875 
L 7.90625 -13.28125 
L 13.1875 -13.28125 
Q 16.890625 -13.28125 18.9375 -11.515625 
Q 21 -9.765625 23.484375 -3.21875 
L 25.09375 0.875 
L 2.984375 54.6875 
L 12.5 54.6875 
L 29.59375 11.921875 
L 46.6875 54.6875 
L 56.203125 54.6875 
z
" id="DejaVuSans-79"/>
     <path d="M 9.421875 75.984375 
L 18.40625 75.984375 
L 18.40625 0 
L 9.421875 0 
z
" id="DejaVuSans-6c"/>
     <path d="M 54.890625 33.015625 
L 54.890625 0 
L 45.90625 0 
L 45.90625 32.71875 
Q 45.90625 40.484375 42.875 44.328125 
Q 39.84375 48.1875 33.796875 48.1875 
Q 26.515625 48.1875 22.3125 43.546875 
Q 18.109375 38.921875 18.109375 30.90625 
L 18.109375 0 
L 9.078125 0 
L 9.078125 75.984375 
L 18.109375 75.984375 
L 18.109375 46.1875 
Q 21.34375 51.125 25.703125 53.5625 
Q 30.078125 56 35.796875 56 
Q 45.21875 56 50.046875 50.171875 
Q 54.890625 44.34375 54.890625 33.015625 
z
" id="DejaVuSans-68"/>
     <path d="M 30.609375 48.390625 
Q 23.390625 48.390625 19.1875 42.75 
Q 14.984375 37.109375 14.984375 27.296875 
Q 14.984375 17.484375 19.15625 11.84375 
Q 23.34375 6.203125 30.609375 6.203125 
Q 37.796875 6.203125 41.984375 11.859375 
Q 46.1875 17.53125 46.1875 27.296875 
Q 46.1875 37.015625 41.984375 42.703125 
Q 37.796875 48.390625 30.609375 48.390625 
z
M 30.609375 56 
Q 42.328125 56 49.015625 48.375 
Q 55.71875 40.765625 55.71875 27.296875 
Q 55.71875 13.875 49.015625 6.21875 
Q 42.328125 -1.421875 30.609375 -1.421875 
Q 18.84375 -1.421875 12.171875 6.21875 
Q 5.515625 13.875 5.515625 27.296875 
Q 5.515625 40.765625 12.171875 48.375 
Q 18.84375 56 30.609375 56 
z
" id="DejaVuSans-6f"/>
     <path d="M 9.421875 54.6875 
L 18.40625 54.6875 
L 18.40625 0 
L 9.421875 0 
z
M 9.421875 75.984375 
L 18.40625 75.984375 
L 18.40625 64.59375 
L 9.421875 64.59375 
z
" id="DejaVuSans-69"/>
     <path d="M 54.890625 33.015625 
L 54.890625 0 
L 45.90625 0 
L 45.90625 32.71875 
Q 45.90625 40.484375 42.875 44.328125 
Q 39.84375 48.1875 33.796875 48.1875 
Q 26.515625 48.1875 22.3125 43.546875 
Q 18.109375 38.921875 18.109375 30.90625 
L 18.109375 0 
L 9.078125 0 
L 9.078125 54.6875 
L 18.109375 54.6875 
L 18.109375 46.1875 
Q 21.34375 51.125 25.703125 53.5625 
Q 30.078125 56 35.796875 56 
Q 45.21875 56 50.046875 50.171875 
Q 54.890625 44.34375 54.890625 33.015625 
z
" id="DejaVuSans-6e"/>
     <path id="DejaVuSans-20"/>
     <path d="M 34.28125 27.484375 
Q 23.390625 27.484375 19.1875 25 
Q 14.984375 22.515625 14.984375 16.5 
Q 14.984375 11.71875 18.140625 8.90625 
Q 21.296875 6.109375 26.703125 6.109375 
Q 34.1875 6.109375 38.703125 11.40625 
Q 43.21875 16.703125 43.21875 25.484375 
L 43.21875 27.484375 
z
M 52.203125 31.203125 
L 52.203125 0 
L 43.21875 0 
L 43.21875 8.296875 
Q 40.140625 3.328125 35.546875 0.953125 
Q 30.953125 -1.421875 24.3125 -1.421875 
Q 15.921875 -1.421875 10.953125 3.296875 
Q 6 8.015625 6 15.921875 
Q 6 25.140625 12.171875 29.828125 
Q 18.359375 34.515625 30.609375 34.515625 
L 43.21875 34.515625 
L 43.21875 35.40625 
Q 43.21875 41.609375 39.140625 45 
Q 35.0625 48.390625 27.6875 48.390625 
Q 23 48.390625 18.546875 47.265625 
Q 14.109375 46.140625 10.015625 43.890625 
L 10.015625 52.203125 
Q 14.9375 54.109375 19.578125 55.046875 
Q 24.21875 56 28.609375 56 
Q 40.484375 56 46.34375 49.84375 
Q 52.203125 43.703125 52.203125 31.203125 
z
" id="DejaVuSans-61"/>
     <path d="M 2.984375 54.6875 
L 12.5 54.6875 
L 29.59375 8.796875 
L 46.6875 54.6875 
L 56.203125 54.6875 
L 35.6875 0 
L 23.484375 0 
z
" id="DejaVuSans-76"/>
    </defs>
    <g transform="translate(164.271563 35.472)scale(0.12 -0.12)">
     <use xlink:href="#DejaVuSans-41"/>
     <use x="68.392578" xlink:href="#DejaVuSans-63"/>
     <use x="123.373047" xlink:href="#DejaVuSans-65"/>
     <use x="184.896484" xlink:href="#DejaVuSans-74"/>
     <use x="224.105469" xlink:href="#DejaVuSans-79"/>
     <use x="283.285156" xlink:href="#DejaVuSans-6c"/>
     <use x="311.068359" xlink:href="#DejaVuSans-63"/>
     <use x="366.048828" xlink:href="#DejaVuSans-68"/>
     <use x="429.427734" xlink:href="#DejaVuSans-6f"/>
     <use x="490.609375" xlink:href="#DejaVuSans-6c"/>
     <use x="518.392578" xlink:href="#DejaVuSans-69"/>
     <use x="546.175781" xlink:href="#DejaVuSans-6e"/>
     <use x="609.554688" xlink:href="#DejaVuSans-65"/>
     <use x="671.078125" xlink:href="#DejaVuSans-20"/>
     <use x="702.865234" xlink:href="#DejaVuSans-61"/>
     <use x="764.144531" xlink:href="#DejaVuSans-63"/>
     <use x="819.125" xlink:href="#DejaVuSans-74"/>
     <use x="858.333984" xlink:href="#DejaVuSans-69"/>
     <use x="886.117188" xlink:href="#DejaVuSans-76"/>
     <use x="945.296875" xlink:href="#DejaVuSans-61"/>
     <use x="1006.576172" xlink:href="#DejaVuSans-74"/>
     <use x="1045.785156" xlink:href="#DejaVuSans-69"/>
     <use x="1073.568359" xlink:href="#DejaVuSans-6f"/>
     <use x="1134.75" xlink:href="#DejaVuSans-6e"/>
    </g>
   </g>
  </g>
 </g>
 <defs>
  <clipPath id="p939f690358">
   <rect height="266.112" width="357.12" x="57.6" y="41.472"/>
  </clipPath>
 </defs>
</svg>
